<svg id="Camada_1" data-name="Camada 1" xmlns="http://www.w3.org/2000/svg" viewBox="0 0 470 280"><defs><style>.cls-1{fill:#606060;}.cls-2{fill:#cacaca;}</style></defs><title>01</title><path class="cls-1" d="M158.78,211.3a.6.6,0,0,1-.44-.18.56.56,0,0,1-.19-.43.62.62,0,0,1,.19-.46.58.58,0,0,1,.44-.19l12-.07a.6.6,0,0,1,.44.18.58.58,0,0,1,.19.45.6.6,0,0,1-.18.44.58.58,0,0,1-.45.19Zm5,.65a.61.61,0,0,1,.24-.42.57.57,0,0,1,.46-.14.65.65,0,0,1,.42.24.54.54,0,0,1,.14.45l-1.49,13.71a.71.71,0,0,1-.25.43.6.6,0,0,1-.46.13.67.67,0,0,1-.42-.24.56.56,0,0,1-.13-.46Z"/><path class="cls-1" d="M174,215.91a.63.63,0,0,1,.23-.42.57.57,0,0,1,.47-.14.69.69,0,0,1,.42.24.58.58,0,0,1,.14.46L174.15,226a.63.63,0,0,1-.23.42.54.54,0,0,1-.45.14.68.68,0,0,1-.43-.23.61.61,0,0,1-.13-.47Zm.47-4.81a.61.61,0,0,1,.24-.41.6.6,0,0,1,.46-.13.69.69,0,0,1,.43.24.56.56,0,0,1,.13.45l-.09.63a.69.69,0,0,1-.24.43.6.6,0,0,1-.47.13.66.66,0,0,1-.41-.25.6.6,0,0,1-.13-.46Z"/><path class="cls-1" d="M179.87,223.61l-.09.46-.09.44-.86,7.49a.46.46,0,0,1-.21.34.7.7,0,0,1-.38.11.85.85,0,0,1-.47-.13.39.39,0,0,1-.2-.39c.05-.73.1-1.4.16-2s.14-1.32.24-2.13.22-1.66.38-2.55l1-8.92a.68.68,0,0,1,.23-.43.53.53,0,0,1,.45-.13.59.59,0,0,1,.43.24.6.6,0,0,1,.13.46l-.16,1.42a7.82,7.82,0,0,1,1.48-2.1,2.72,2.72,0,0,1,1.92-.8,3.53,3.53,0,0,1,1.95.54,4.49,4.49,0,0,1,1.36,1.35,6.14,6.14,0,0,1,.8,1.83,7.48,7.48,0,0,1,.26,1.95,8.09,8.09,0,0,1-.28,2.1,6.19,6.19,0,0,1-.89,1.95,4.84,4.84,0,0,1-1.48,1.44,3.82,3.82,0,0,1-2.11.56,3.22,3.22,0,0,1-1.59-.36,3.83,3.83,0,0,1-1.07-.85,3.76,3.76,0,0,1-.64-1C180,224.11,179.94,223.83,179.87,223.61Zm.2-1a1,1,0,0,1,.24-.09.63.63,0,0,1,.46.12.71.71,0,0,1,.26.41,3.22,3.22,0,0,0,.45,1.18,3,3,0,0,0,.74.82,2,2,0,0,0,1.26.37,2.7,2.7,0,0,0,1.58-.46,3.67,3.67,0,0,0,1.09-1.16,5.61,5.61,0,0,0,.63-1.55,6.65,6.65,0,0,0,.2-1.62,6.34,6.34,0,0,0-.17-1.45,4.81,4.81,0,0,0-.54-1.43,3.52,3.52,0,0,0-1-1.09,2.32,2.32,0,0,0-1.43-.44,1.83,1.83,0,0,0-1.26.53,5,5,0,0,0-1,1.39,11.71,11.71,0,0,0-.84,2C180.48,221,180.26,221.77,180.07,222.62Z"/><path class="cls-1" d="M191.63,217.89a5.22,5.22,0,0,1,.27-.87,3.2,3.2,0,0,1,.62-1,3.46,3.46,0,0,1,1.13-.77,4.33,4.33,0,0,1,1.78-.32,3.67,3.67,0,0,1,1.87.46,4,4,0,0,1,1.26,1.19,5.27,5.27,0,0,1,.71,1.66,7.82,7.82,0,0,1,.22,1.86,9.54,9.54,0,0,1-.35,2.62,6,6,0,0,1-1.08,2.1,5,5,0,0,1-1.74,1.41,5.35,5.35,0,0,1-2.39.51,4.18,4.18,0,0,1-1.77-.36,3.93,3.93,0,0,1-1.32-1A4.33,4.33,0,0,1,190,224a5.12,5.12,0,0,1-.29-1.71,7.64,7.64,0,0,1,.17-1.61,12.63,12.63,0,0,1,.38-1.35,7.16,7.16,0,0,1,.4-1,3.72,3.72,0,0,1,.2-.37.47.47,0,0,1,.36-.2A.72.72,0,0,1,191.63,217.89Zm.14,1s-.08,0-.16.2a3.77,3.77,0,0,0-.26.69,8.89,8.89,0,0,0-.24,1.1,7.61,7.61,0,0,0-.11,1.41,3.86,3.86,0,0,0,.19,1.23,2.94,2.94,0,0,0,.56,1,2.64,2.64,0,0,0,.91.7,3,3,0,0,0,1.27.26,4.18,4.18,0,0,0,1.89-.41,3.8,3.8,0,0,0,1.34-1.14,5,5,0,0,0,.8-1.7,7.58,7.58,0,0,0,.27-2.13,7.16,7.16,0,0,0-.13-1.38,4,4,0,0,0-.46-1.26,2.68,2.68,0,0,0-.86-.91,2.38,2.38,0,0,0-1.35-.36,2.73,2.73,0,0,0-1.5.35,2.27,2.27,0,0,0-.76.75,3.23,3.23,0,0,0-.34,1.12.69.69,0,0,1-.18.46.55.55,0,0,1-.45.19A.51.51,0,0,1,191.77,218.9Z"/><path class="cls-1" d="M212.42,221.35a.65.65,0,0,1-.44-.22.58.58,0,0,1-.16-.45.71.71,0,0,1,.24-.44.58.58,0,0,1,.45-.15c.9.07,1.78.1,2.64.1.5,0,1,0,1.42,0a11.5,11.5,0,0,0,1.19-.14,3.46,3.46,0,0,0,.84-.27.72.72,0,0,0,.41-.39,3.52,3.52,0,0,0,.09-.72,2.44,2.44,0,0,0-.24-1.1,2.47,2.47,0,0,0-.64-.83,2.92,2.92,0,0,0-1-.52A4,4,0,0,0,216,216a3.67,3.67,0,0,0-2,.53,4.53,4.53,0,0,0-1.37,1.35,6,6,0,0,0-.81,1.82,7.7,7.7,0,0,0-.26,1.92,6.22,6.22,0,0,0,.15,1.32,4.47,4.47,0,0,0,.46,1.27,2.77,2.77,0,0,0,.82.94,2.12,2.12,0,0,0,1.27.37,5.27,5.27,0,0,0,1.64-.23,5.94,5.94,0,0,0,1.15-.52,3.45,3.45,0,0,0,.88-.74.69.69,0,0,1,.43-.24.65.65,0,0,1,.48.13.62.62,0,0,1,.22.42.61.61,0,0,1-.13.46,6.08,6.08,0,0,1-1.16,1,6.8,6.8,0,0,1-1.45.68,6.31,6.31,0,0,1-2.06.3,3.21,3.21,0,0,1-1.77-.47,4,4,0,0,1-1.24-1.21,5.47,5.47,0,0,1-.73-1.67,7.08,7.08,0,0,1-.23-1.81,8.28,8.28,0,0,1,.35-2.36,7.39,7.39,0,0,1,1.08-2.22,5.74,5.74,0,0,1,1.78-1.65,4.71,4.71,0,0,1,2.49-.65,5.21,5.21,0,0,1,1.77.29,4,4,0,0,1,1.35.8,3.58,3.58,0,0,1,.89,1.24,4,4,0,0,1,.31,1.59,3.44,3.44,0,0,1,0,.46,4.49,4.49,0,0,1-.06.48,1.43,1.43,0,0,1-.56.87,3.38,3.38,0,0,1-1.14.57,8.28,8.28,0,0,1-1.56.31,15,15,0,0,1-1.82.1l-1.37,0Z"/><path class="cls-1" d="M233,210.62a.65.65,0,0,1,.24-.43.6.6,0,0,1,.46-.13.65.65,0,0,1,.42.24.59.59,0,0,1,.12.46L232.38,226a.61.61,0,0,1-.24.42.59.59,0,0,1-.46.12.57.57,0,0,1-.41-.24.56.56,0,0,1-.13-.46Z"/><path class="cls-1" d="M237.71,217.89A5.22,5.22,0,0,1,238,217a3.2,3.2,0,0,1,.62-1,3.46,3.46,0,0,1,1.13-.77,4.33,4.33,0,0,1,1.78-.32,3.67,3.67,0,0,1,1.87.46,3.89,3.89,0,0,1,1.26,1.19,5.27,5.27,0,0,1,.71,1.66,7.82,7.82,0,0,1,.22,1.86,9.54,9.54,0,0,1-.35,2.62,6,6,0,0,1-1.08,2.1,5,5,0,0,1-1.74,1.41,5.35,5.35,0,0,1-2.39.51,4.18,4.18,0,0,1-1.77-.36,3.93,3.93,0,0,1-1.32-1,4.33,4.33,0,0,1-.83-1.43,5.12,5.12,0,0,1-.29-1.71,7.64,7.64,0,0,1,.17-1.61,12.63,12.63,0,0,1,.38-1.35,7.16,7.16,0,0,1,.4-1,3.72,3.72,0,0,1,.2-.37.47.47,0,0,1,.36-.2A.72.72,0,0,1,237.71,217.89Zm.14,1s-.08,0-.16.2a3.77,3.77,0,0,0-.26.69,8.89,8.89,0,0,0-.24,1.1,7.61,7.61,0,0,0-.11,1.41,3.86,3.86,0,0,0,.19,1.23,2.94,2.94,0,0,0,.56,1,2.64,2.64,0,0,0,.91.7,3,3,0,0,0,1.27.26,4.18,4.18,0,0,0,1.89-.41,3.8,3.8,0,0,0,1.34-1.14,5,5,0,0,0,.8-1.7,7.57,7.57,0,0,0,.28-2.13,7.18,7.18,0,0,0-.14-1.38,4,4,0,0,0-.46-1.26,2.68,2.68,0,0,0-.86-.91,2.38,2.38,0,0,0-1.35-.36,2.73,2.73,0,0,0-1.5.35,2.27,2.27,0,0,0-.76.75,3.23,3.23,0,0,0-.34,1.12.69.69,0,0,1-.18.46.55.55,0,0,1-.45.19A.51.51,0,0,1,237.85,218.9Z"/><path class="cls-1" d="M248,216.5a.64.64,0,0,1-.44-.18.67.67,0,0,1-.2-.45.64.64,0,0,1,.18-.44.59.59,0,0,1,.43-.19l1.54,0c.07-.28.12-.54.16-.79s.08-.52.13-.79.1-.55.16-.84.11-.62.17-1a.58.58,0,0,1,.25-.4.66.66,0,0,1,.47-.12.69.69,0,0,1,.4.27.67.67,0,0,1,.12.47c-.07.42-.16.91-.26,1.48l-.3,1.67,4.48-.11a.63.63,0,0,1,.46.18.57.57,0,0,1,.19.43.63.63,0,0,1-.18.46.56.56,0,0,1-.43.19l-4.75.11c-.25,1.4-.47,2.7-.64,3.9a20.77,20.77,0,0,0-.26,3.07,5.72,5.72,0,0,0,.13,1.4c.09.34.24.5.46.5a3.09,3.09,0,0,0,1.52-.32,2.95,2.95,0,0,0,1.51-1.73.51.51,0,0,1,.27-.38.58.58,0,0,1,.48-.07.68.68,0,0,1,.39.29.55.55,0,0,1,.06.47,4.07,4.07,0,0,1-.32.78,5.78,5.78,0,0,1-.49.72,3.56,3.56,0,0,1-.77.72,4.58,4.58,0,0,1-1.13.56,4.68,4.68,0,0,1-1.52.22,1.49,1.49,0,0,1-1.44-.83,5.32,5.32,0,0,1-.41-2.33,21.81,21.81,0,0,1,.25-3.07c.17-1.18.37-2.47.61-3.86Z"/><path class="cls-1" d="M259.89,221.35a.67.67,0,0,1-.45-.22.62.62,0,0,1-.15-.45.7.7,0,0,1,.23-.44.61.61,0,0,1,.46-.15c.89.07,1.78.1,2.64.1.49,0,1,0,1.41,0a11.18,11.18,0,0,0,1.19-.14,3.55,3.55,0,0,0,.85-.27.69.69,0,0,0,.4-.39,3.52,3.52,0,0,0,.09-.72,2.57,2.57,0,0,0-.23-1.1,2.5,2.5,0,0,0-.65-.83,2.87,2.87,0,0,0-1-.52,4.06,4.06,0,0,0-1.23-.18,3.67,3.67,0,0,0-2,.53,4.68,4.68,0,0,0-1.38,1.35,6,6,0,0,0-.8,1.82,7.7,7.7,0,0,0-.26,1.92,6.9,6.9,0,0,0,.14,1.32,4.8,4.8,0,0,0,.46,1.27,2.79,2.79,0,0,0,.83.94,2.08,2.08,0,0,0,1.27.37,5.32,5.32,0,0,0,1.64-.23,6.23,6.23,0,0,0,1.15-.52,3.63,3.63,0,0,0,.88-.74.69.69,0,0,1,.42-.24.62.62,0,0,1,.71.55.62.62,0,0,1-.14.46,6,6,0,0,1-1.15,1,7.3,7.3,0,0,1-1.45.68,6.35,6.35,0,0,1-2.06.3,3.18,3.18,0,0,1-1.77-.47,4,4,0,0,1-1.25-1.21,5.47,5.47,0,0,1-.73-1.67,7.55,7.55,0,0,1-.23-1.81,8.31,8.31,0,0,1,.36-2.36,7.37,7.37,0,0,1,1.07-2.22,6,6,0,0,1,1.78-1.65,4.78,4.78,0,0,1,2.5-.65,5.2,5.2,0,0,1,1.76.29,4.08,4.08,0,0,1,1.36.8,3.55,3.55,0,0,1,.88,1.24,4,4,0,0,1,.32,1.59,3.44,3.44,0,0,1,0,.46l-.06.48a1.47,1.47,0,0,1-.56.87A3.38,3.38,0,0,1,266,221a8.44,8.44,0,0,1-1.56.31,15.14,15.14,0,0,1-1.82.1l-1.38,0Z"/><path class="cls-1" d="M277.58,218.7a.59.59,0,0,1-.36-.81,1,1,0,0,0-.12-.67,1.28,1.28,0,0,0-.48-.47,2.36,2.36,0,0,0-.73-.28,4,4,0,0,0-.85-.09,6.13,6.13,0,0,0-1.09.1,4.19,4.19,0,0,0-1.11.33,2.8,2.8,0,0,0-.9.61,1.6,1.6,0,0,0-.45.94,1.19,1.19,0,0,0,.3.83,2.35,2.35,0,0,0,.74.52,4.59,4.59,0,0,0,1,.3c.33.08.63.13.88.17a8.27,8.27,0,0,1,1.36.35,5.7,5.7,0,0,1,1.34.64,3.57,3.57,0,0,1,1,.94,1.79,1.79,0,0,1,.29,1.27,2.61,2.61,0,0,1-.46,1.3,4.05,4.05,0,0,1-1,1,5.28,5.28,0,0,1-1.36.63,5,5,0,0,1-1.47.23,4.32,4.32,0,0,1-1.67-.31,7.28,7.28,0,0,1-1.34-.68,8.41,8.41,0,0,1-1.21-1,.6.6,0,0,1,0-.88.63.63,0,0,1,.44-.21.65.65,0,0,1,.45.17,6.72,6.72,0,0,0,1,.83,6.54,6.54,0,0,0,1.06.56,3.26,3.26,0,0,0,1.29.25,4.1,4.1,0,0,0,1-.14,3.89,3.89,0,0,0,.95-.41,2.69,2.69,0,0,0,.74-.64,1.51,1.51,0,0,0,.36-.84.81.81,0,0,0-.28-.69A3.22,3.22,0,0,0,276,222a7,7,0,0,0-1-.38,8.25,8.25,0,0,0-.87-.23,12.69,12.69,0,0,1-1.35-.31,5.19,5.19,0,0,1-1.34-.56,3,3,0,0,1-1-.94,2,2,0,0,1-.27-1.41,2.78,2.78,0,0,1,.6-1.39,4,4,0,0,1,1.17-.95,5.25,5.25,0,0,1,1.48-.55,7.83,7.83,0,0,1,1.56-.17,4.71,4.71,0,0,1,1.31.18,4.1,4.1,0,0,1,1.1.5,2.7,2.7,0,0,1,.78.8,2.07,2.07,0,0,1,.29,1.07,1.66,1.66,0,0,1-.15.67.56.56,0,0,1-.32.35A.59.59,0,0,1,277.58,218.7Z"/><path class="cls-1" d="M298,216.9c.12-1.08.24-2.15.36-3.2l.36-3.21a.41.41,0,0,1,.2-.34.86.86,0,0,1,.39-.09.88.88,0,0,1,.47.13.42.42,0,0,1,.2.39c0,.73-.08,1.4-.14,2s-.13,1.3-.22,2.1-.23,1.63-.38,2.49l-1,9a.63.63,0,0,1-.23.42.56.56,0,0,1-.45.14.69.69,0,0,1-.43-.24A.56.56,0,0,1,297,226l.23-2.11a7,7,0,0,1-1.55,2,2.84,2.84,0,0,1-2,.77,4.61,4.61,0,0,1-1.82-.34,3.88,3.88,0,0,1-1.38-1,4.26,4.26,0,0,1-.87-1.48,5.76,5.76,0,0,1-.3-1.89,8.73,8.73,0,0,1,1.47-4.81,6.17,6.17,0,0,1,1.67-1.67,3.7,3.7,0,0,1,2.11-.65,4,4,0,0,1,2.15.54A3.55,3.55,0,0,1,298,216.9Zm-.24,1.62a.67.67,0,0,1-.43-.12.61.61,0,0,1-.25-.37,2.33,2.33,0,0,0-.83-1.37,2.7,2.7,0,0,0-1.71-.5,2.63,2.63,0,0,0-1.62.56,5.1,5.1,0,0,0-1.26,1.42,7.91,7.91,0,0,0-.82,1.9,7.12,7.12,0,0,0-.3,2,3.65,3.65,0,0,0,.81,2.48,2.87,2.87,0,0,0,2.33.94,2,2,0,0,0,1.43-.57,5.82,5.82,0,0,0,1.14-1.55,11.78,11.78,0,0,0,.87-2.23C297.4,220.27,297.61,219.41,297.79,218.52Z"/><path class="cls-1" d="M304,221.35a.65.65,0,0,1-.44-.22.58.58,0,0,1-.16-.45.71.71,0,0,1,.24-.44.58.58,0,0,1,.45-.15c.9.07,1.78.1,2.64.1.5,0,1,0,1.42,0a11.5,11.5,0,0,0,1.19-.14,3.46,3.46,0,0,0,.84-.27.72.72,0,0,0,.41-.39,3.52,3.52,0,0,0,.09-.72,2.44,2.44,0,0,0-.24-1.1,2.38,2.38,0,0,0-.65-.83,2.78,2.78,0,0,0-1-.52,4,4,0,0,0-1.23-.18,3.67,3.67,0,0,0-2,.53,4.68,4.68,0,0,0-1.38,1.35,6.22,6.22,0,0,0-.8,1.82,7.7,7.7,0,0,0-.26,1.92,6.22,6.22,0,0,0,.15,1.32,4.47,4.47,0,0,0,.46,1.27,2.77,2.77,0,0,0,.82.94,2.12,2.12,0,0,0,1.27.37,5.27,5.27,0,0,0,1.64-.23,5.94,5.94,0,0,0,1.15-.52,3.45,3.45,0,0,0,.88-.74.69.69,0,0,1,.43-.24.62.62,0,0,1,.47.13.6.6,0,0,1,.23.42.58.58,0,0,1-.14.46,5.75,5.75,0,0,1-1.15,1,7,7,0,0,1-1.45.68,6.35,6.35,0,0,1-2.06.3,3.21,3.21,0,0,1-1.77-.47,4,4,0,0,1-1.24-1.21,5.24,5.24,0,0,1-.73-1.67,7.09,7.09,0,0,1-.24-1.81,8.31,8.31,0,0,1,.36-2.36,7.16,7.16,0,0,1,1.08-2.22,5.74,5.74,0,0,1,1.78-1.65,4.71,4.71,0,0,1,2.49-.65,5.11,5.11,0,0,1,1.76.29,4.08,4.08,0,0,1,1.36.8,3.58,3.58,0,0,1,.89,1.24,4,4,0,0,1,.31,1.59,3.44,3.44,0,0,1,0,.46c0,.15,0,.31-.06.48a1.43,1.43,0,0,1-.56.87,3.38,3.38,0,0,1-1.14.57,8.28,8.28,0,0,1-1.56.31,15,15,0,0,1-1.82.1l-1.37,0Z"/><path class="cls-1" d="M125.08,245.91a.69.69,0,0,1,.24-.42.57.57,0,0,1,.47-.14.75.75,0,0,1,.42.24.57.57,0,0,1,.13.46L125.23,256a.65.65,0,0,1-.24.42.54.54,0,0,1-.45.14.66.66,0,0,1-.42-.23.57.57,0,0,1-.13-.47Zm.47-4.81a.7.7,0,0,1,.24-.41.61.61,0,0,1,.46-.13.71.71,0,0,1,.44.24.56.56,0,0,1,.12.45l-.09.63a.63.63,0,0,1-.23.43.6.6,0,0,1-.47.13.61.61,0,0,1-.41-.25.6.6,0,0,1-.13-.46Z"/><path class="cls-1" d="M129.84,245.66a.61.61,0,0,1,.23-.43.6.6,0,0,1,.47-.13.61.61,0,0,1,.41.23.58.58,0,0,1,.13.45c-.1.86-.19,1.7-.29,2.54s-.19,1.69-.29,2.54c.33-.71.68-1.4,1.07-2.09a12.94,12.94,0,0,1,1.27-1.84,6.87,6.87,0,0,1,1.45-1.33,2.93,2.93,0,0,1,1.61-.5,2.08,2.08,0,0,1,1.34.42,2.74,2.74,0,0,1,.84,1.14,6.15,6.15,0,0,1,.43,1.63,12.94,12.94,0,0,1,.13,1.89c0,.72,0,1.43-.11,2.15s-.15,1.35-.24,1.92-.22,1.21-.37,1.92a.66.66,0,0,1-.27.4.65.65,0,0,1-.47.09.74.74,0,0,1-.4-.29.65.65,0,0,1-.09-.47c.17-.77.3-1.45.4-2s.18-1.25.26-2a18.7,18.7,0,0,0,.12-2.09c0-.47,0-.91-.07-1.33a4.59,4.59,0,0,0-.26-1.09,1.87,1.87,0,0,0-.48-.75,1.12,1.12,0,0,0-.76-.27,2,2,0,0,0-1.2.42,5.46,5.46,0,0,0-1.14,1.12,10.87,10.87,0,0,0-1,1.57q-.48.89-.9,1.8c-.27.62-.52,1.22-.73,1.8s-.4,1.12-.55,1.58-.31,1-.48,1.56a.42.42,0,0,1-.21.27,1,1,0,0,1-.35.07.8.8,0,0,1-.49-.16.4.4,0,0,1-.19-.42Z"/><path class="cls-1" d="M149.15,246.58a.57.57,0,0,0,0-.18.35.35,0,0,1,0-.17.44.44,0,0,1,.21-.31.69.69,0,0,1,.37-.1.85.85,0,0,1,.48.15.41.41,0,0,1,.19.41c-.1.79-.18,1.58-.23,2.37s-.11,1.58-.17,2.34c-.06,1-.13,2-.21,2.92a24.66,24.66,0,0,1-.35,2.63,12,12,0,0,1-.64,2.24,5.62,5.62,0,0,1-1.08,1.75,4.55,4.55,0,0,1-1.67,1.12,6.66,6.66,0,0,1-2.42.4,5.91,5.91,0,0,1-1.61-.18,2.8,2.8,0,0,1-1-.44,1.46,1.46,0,0,1-.5-.6,1.77,1.77,0,0,1-.13-.67,2.47,2.47,0,0,1,0-.54,2.39,2.39,0,0,1,.14-.45,4.48,4.48,0,0,1,.2-.44.72.72,0,0,1,.39-.3.56.56,0,0,1,.48.07.63.63,0,0,1,.29.39.64.64,0,0,1-.06.47l-.07.15a.92.92,0,0,0-.07.36.74.74,0,0,0,.07.32.72.72,0,0,0,.28.3,1.62,1.62,0,0,0,.57.21,4.13,4.13,0,0,0,1,.09,4.27,4.27,0,0,0,2.36-.59,4.09,4.09,0,0,0,1.44-1.61,8.36,8.36,0,0,0,.79-2.43c.17-.94.29-1.95.38-3a11.3,11.3,0,0,1-.74,1.38,6.6,6.6,0,0,1-.91,1.14,3.83,3.83,0,0,1-1.09.76,2.92,2.92,0,0,1-1.28.28,3.46,3.46,0,0,1-1.73-.42,3.6,3.6,0,0,1-1.21-1.12,4.83,4.83,0,0,1-.71-1.56,6.75,6.75,0,0,1-.24-1.78,9.48,9.48,0,0,1,.35-2.5,8.73,8.73,0,0,1,1-2.26,5.6,5.6,0,0,1,1.5-1.63,3.25,3.25,0,0,1,1.93-.63,7.73,7.73,0,0,1,1,.08,4,4,0,0,1,1.05.26,3.09,3.09,0,0,1,.92.52A2.26,2.26,0,0,1,149.15,246.58Zm-.32,1.92a.6.6,0,0,1-.36,0,.53.53,0,0,1-.21-.21,1,1,0,0,1-.12-.32,2,2,0,0,1,0-.34,1.05,1.05,0,0,0-.28-.75,1.88,1.88,0,0,0-.68-.45,3.23,3.23,0,0,0-.84-.2,6.19,6.19,0,0,0-.81-.06,2.2,2.2,0,0,0-1.43.54,4.67,4.67,0,0,0-1.1,1.39,7.4,7.4,0,0,0-.71,1.86,8.15,8.15,0,0,0-.26,2,5.7,5.7,0,0,0,.15,1.3,3.61,3.61,0,0,0,.46,1.16,2.71,2.71,0,0,0,.81.84,2.2,2.2,0,0,0,1.21.32,2,2,0,0,0,1.1-.33,4,4,0,0,0,.93-.88,7.36,7.36,0,0,0,.76-1.27,12.34,12.34,0,0,0,.6-1.5c.18-.51.33-1,.46-1.56S148.73,249,148.83,248.5Z"/><path class="cls-1" d="M153.87,249.13a12.09,12.09,0,0,1,.72-1.44,6.41,6.41,0,0,1,.87-1.19,4,4,0,0,1,1-.82,2.54,2.54,0,0,1,1.18-.29,4.41,4.41,0,0,1,1.55.23,2.45,2.45,0,0,1,.92.6,1.75,1.75,0,0,1,.43.77,3.26,3.26,0,0,1,.11.79,3.9,3.9,0,0,1,0,.67c0,.09-.05.18-.08.27a.6.6,0,0,1-.79.41.57.57,0,0,1-.37-.29.66.66,0,0,1,0-.48,1.8,1.8,0,0,0,0-.87,1.17,1.17,0,0,0-.48-.58,2.16,2.16,0,0,0-1.2-.26,1.58,1.58,0,0,0-1,.37,4,4,0,0,0-.88,1,9,9,0,0,0-.72,1.39c-.23.53-.43,1.08-.61,1.63s-.33,1.12-.47,1.67-.24,1.06-.33,1.52-.16.85-.21,1.18-.09.54-.1.65a.49.49,0,0,1-.23.38.69.69,0,0,1-.39.12.79.79,0,0,1-.46-.15.39.39,0,0,1-.18-.41c.15-1.69.3-3.37.43-5s.25-3.35.36-5a.6.6,0,0,1,.21-.44.65.65,0,0,1,.45-.15.74.74,0,0,1,.45.22.63.63,0,0,1,.15.46l-.12,1.58C154,248.08,153.91,248.6,153.87,249.13Z"/><path class="cls-1" d="M164.59,251.35a.67.67,0,0,1-.44-.22.62.62,0,0,1-.15-.45.66.66,0,0,1,.23-.44.6.6,0,0,1,.45-.15c.9.07,1.79.1,2.65.1.49,0,1,0,1.41,0a11.18,11.18,0,0,0,1.19-.14,3.7,3.7,0,0,0,.85-.27.69.69,0,0,0,.4-.39,3.52,3.52,0,0,0,.09-.72,2.57,2.57,0,0,0-.23-1.1,2.5,2.5,0,0,0-.65-.83,2.87,2.87,0,0,0-1-.52,4.06,4.06,0,0,0-1.23-.18,3.65,3.65,0,0,0-2,.53,4.68,4.68,0,0,0-1.38,1.35,6,6,0,0,0-.8,1.82,7.26,7.26,0,0,0-.26,1.92,6.9,6.9,0,0,0,.14,1.32,4.8,4.8,0,0,0,.46,1.27,2.79,2.79,0,0,0,.83.94,2.08,2.08,0,0,0,1.27.37,5.32,5.32,0,0,0,1.64-.23,6.23,6.23,0,0,0,1.15-.52,3.63,3.63,0,0,0,.88-.74.69.69,0,0,1,.42-.24.63.63,0,0,1,.48.13.58.58,0,0,1,.22.42.57.57,0,0,1-.13.46,6,6,0,0,1-1.15,1,7.3,7.3,0,0,1-1.45.68,6.35,6.35,0,0,1-2.06.3,3.16,3.16,0,0,1-1.77-.47,4,4,0,0,1-1.25-1.21,5.47,5.47,0,0,1-.73-1.67,7.55,7.55,0,0,1-.23-1.81,8.31,8.31,0,0,1,.36-2.36A7.37,7.37,0,0,1,163.9,247a5.85,5.85,0,0,1,1.78-1.65,4.78,4.78,0,0,1,2.5-.65,5.2,5.2,0,0,1,1.76.29,4.08,4.08,0,0,1,1.36.8,3.55,3.55,0,0,1,.88,1.24,4,4,0,0,1,.32,1.59,3.44,3.44,0,0,1,0,.46q0,.23-.06.48a1.47,1.47,0,0,1-.56.87,3.34,3.34,0,0,1-1.15.57,8.33,8.33,0,0,1-1.55.31,15.14,15.14,0,0,1-1.82.1l-1.38,0Z"/><path class="cls-1" d="M182.29,248.7a.59.59,0,0,1-.36-.81,1.08,1.08,0,0,0-.12-.67,1.3,1.3,0,0,0-.49-.47,2.3,2.3,0,0,0-.72-.28,4,4,0,0,0-.85-.09,6.13,6.13,0,0,0-1.09.1,4.37,4.37,0,0,0-1.12.33,3,3,0,0,0-.9.61,1.65,1.65,0,0,0-.44.94,1.19,1.19,0,0,0,.3.83,2.24,2.24,0,0,0,.74.52,4.69,4.69,0,0,0,.94.3c.34.08.63.13.89.17a8.18,8.18,0,0,1,1.35.35,5.59,5.59,0,0,1,1.35.64,3.71,3.71,0,0,1,1,.94,1.79,1.79,0,0,1,.28,1.27,2.52,2.52,0,0,1-.46,1.3,4,4,0,0,1-1,1,5.44,5.44,0,0,1-1.36.63,5,5,0,0,1-1.48.23,4.3,4.3,0,0,1-1.66-.31,7.28,7.28,0,0,1-1.34-.68,7.89,7.89,0,0,1-1.21-1,.58.58,0,0,1,0-.88.63.63,0,0,1,.44-.21.67.67,0,0,1,.45.17,5.81,5.81,0,0,0,2.06,1.39,3.25,3.25,0,0,0,1.28.25,4.12,4.12,0,0,0,1-.14,4.07,4.07,0,0,0,.95-.41,2.69,2.69,0,0,0,.74-.64,1.51,1.51,0,0,0,.36-.84.84.84,0,0,0-.28-.69,3.22,3.22,0,0,0-.79-.54,7,7,0,0,0-1-.38,8.25,8.25,0,0,0-.87-.23,12.69,12.69,0,0,1-1.35-.31,5,5,0,0,1-1.34-.56,3,3,0,0,1-1-.94,2.09,2.09,0,0,1-.26-1.41,2.7,2.7,0,0,1,.6-1.39,4,4,0,0,1,1.17-.95,5.25,5.25,0,0,1,1.48-.55,7.75,7.75,0,0,1,1.56-.17,4.64,4.64,0,0,1,1.3.18,4,4,0,0,1,1.11.5,2.82,2.82,0,0,1,.78.8,2.06,2.06,0,0,1,.28,1.07,1.65,1.65,0,0,1-.14.67.56.56,0,0,1-.32.35A.59.59,0,0,1,182.29,248.7Z"/><path class="cls-1" d="M193,248.7a.6.6,0,0,1-.36-.32.53.53,0,0,1,0-.49,1.08,1.08,0,0,0-.12-.67,1.38,1.38,0,0,0-.49-.47,2.27,2.27,0,0,0-.73-.28,3.86,3.86,0,0,0-.84-.09,6.13,6.13,0,0,0-1.09.1,4.37,4.37,0,0,0-1.12.33,3,3,0,0,0-.9.61,1.65,1.65,0,0,0-.44.94,1.19,1.19,0,0,0,.3.83,2.24,2.24,0,0,0,.74.52,4.69,4.69,0,0,0,.94.3c.34.08.63.13.88.17a8,8,0,0,1,1.36.35,5.35,5.35,0,0,1,1.34.64,3.43,3.43,0,0,1,1,.94,1.74,1.74,0,0,1,.29,1.27,2.52,2.52,0,0,1-.46,1.3,4,4,0,0,1-1,1,5.44,5.44,0,0,1-1.36.63,5.07,5.07,0,0,1-1.48.23,4.3,4.3,0,0,1-1.66-.31,7.28,7.28,0,0,1-1.34-.68,7.89,7.89,0,0,1-1.21-1,.64.64,0,0,1,.41-1.09.63.63,0,0,1,.45.17,7.27,7.27,0,0,0,1,.83,7,7,0,0,0,1.06.56,3.33,3.33,0,0,0,1.29.25,4.12,4.12,0,0,0,1-.14,4.07,4.07,0,0,0,1-.41,2.69,2.69,0,0,0,.74-.64,1.66,1.66,0,0,0,.36-.84.84.84,0,0,0-.28-.69,3.22,3.22,0,0,0-.79-.54,7,7,0,0,0-1-.38,8.25,8.25,0,0,0-.87-.23,12.69,12.69,0,0,1-1.35-.31,5.26,5.26,0,0,1-1.35-.56,3.11,3.11,0,0,1-1-.94,2.09,2.09,0,0,1-.26-1.41,2.62,2.62,0,0,1,.6-1.39,4,4,0,0,1,1.17-.95,5.25,5.25,0,0,1,1.48-.55,7.68,7.68,0,0,1,1.56-.17,4.64,4.64,0,0,1,1.3.18,4,4,0,0,1,1.11.5,2.66,2.66,0,0,1,.77.8,2,2,0,0,1,.29,1.07,1.83,1.83,0,0,1-.14.67.55.55,0,0,1-.33.35A.57.57,0,0,1,193,248.7Z"/><path class="cls-1" d="M197.66,247.89a5.22,5.22,0,0,1,.27-.87,3.2,3.2,0,0,1,.62-1,3.46,3.46,0,0,1,1.13-.77,4.33,4.33,0,0,1,1.78-.32,3.67,3.67,0,0,1,1.87.46,3.89,3.89,0,0,1,1.26,1.19,5.27,5.27,0,0,1,.71,1.66,7.82,7.82,0,0,1,.22,1.86,9.54,9.54,0,0,1-.35,2.62,6,6,0,0,1-1.08,2.1,5,5,0,0,1-1.74,1.41,5.35,5.35,0,0,1-2.39.51,4.18,4.18,0,0,1-1.77-.36,3.93,3.93,0,0,1-1.32-1A4.33,4.33,0,0,1,196,254a5.12,5.12,0,0,1-.29-1.71,7.64,7.64,0,0,1,.17-1.61,12.63,12.63,0,0,1,.38-1.35,7.16,7.16,0,0,1,.4-1,3.72,3.72,0,0,1,.2-.37.47.47,0,0,1,.36-.2A.72.72,0,0,1,197.66,247.89Zm.14,1s-.07,0-.16.2a3.77,3.77,0,0,0-.26.69,8.89,8.89,0,0,0-.24,1.1,8.59,8.59,0,0,0-.11,1.41,3.86,3.86,0,0,0,.19,1.23,2.94,2.94,0,0,0,.56,1,2.64,2.64,0,0,0,.91.7,3,3,0,0,0,1.27.26,4.18,4.18,0,0,0,1.89-.41,3.8,3.8,0,0,0,1.34-1.14,4.78,4.78,0,0,0,.8-1.7,7.57,7.57,0,0,0,.28-2.13,7.18,7.18,0,0,0-.14-1.38,4,4,0,0,0-.46-1.26,2.68,2.68,0,0,0-.86-.91,2.38,2.38,0,0,0-1.35-.36,2.73,2.73,0,0,0-1.5.35,2.27,2.27,0,0,0-.76.75,3.23,3.23,0,0,0-.34,1.12.69.69,0,0,1-.18.46.55.55,0,0,1-.45.19A.51.51,0,0,1,197.8,248.9Z"/><path class="cls-1" d="M215.32,248.7a.59.59,0,0,1-.36-.81,1.08,1.08,0,0,0-.12-.67,1.3,1.3,0,0,0-.49-.47,2.3,2.3,0,0,0-.72-.28,4,4,0,0,0-.85-.09,6.13,6.13,0,0,0-1.09.1,4.37,4.37,0,0,0-1.12.33,3,3,0,0,0-.9.61,1.65,1.65,0,0,0-.44.94,1.19,1.19,0,0,0,.3.83,2.24,2.24,0,0,0,.74.52,4.69,4.69,0,0,0,.94.3c.34.08.63.13.89.17a7.93,7.93,0,0,1,1.35.35,5.59,5.59,0,0,1,1.35.64,3.71,3.71,0,0,1,1,.94,1.79,1.79,0,0,1,.28,1.27,2.52,2.52,0,0,1-.46,1.3,4,4,0,0,1-1,1,5.44,5.44,0,0,1-1.36.63,5,5,0,0,1-1.48.23,4.3,4.3,0,0,1-1.66-.31,7.28,7.28,0,0,1-1.34-.68,7.89,7.89,0,0,1-1.21-1,.58.58,0,0,1,0-.88.63.63,0,0,1,.44-.21.67.67,0,0,1,.45.17,7.25,7.25,0,0,0,1,.83,6.66,6.66,0,0,0,1.07.56,3.25,3.25,0,0,0,1.28.25,4.12,4.12,0,0,0,1-.14,4.07,4.07,0,0,0,.95-.41,2.69,2.69,0,0,0,.74-.64,1.51,1.51,0,0,0,.36-.84.81.81,0,0,0-.28-.69,3.22,3.22,0,0,0-.79-.54,7,7,0,0,0-1-.38,8.25,8.25,0,0,0-.87-.23,12.69,12.69,0,0,1-1.35-.31,5.19,5.19,0,0,1-1.34-.56,3,3,0,0,1-1-.94,2.09,2.09,0,0,1-.26-1.41,2.7,2.7,0,0,1,.6-1.39,4,4,0,0,1,1.17-.95,5.25,5.25,0,0,1,1.48-.55,7.75,7.75,0,0,1,1.56-.17,4.64,4.64,0,0,1,1.3.18,4,4,0,0,1,1.11.5,2.7,2.7,0,0,1,.78.8,2.06,2.06,0,0,1,.28,1.07,1.65,1.65,0,0,1-.14.67.56.56,0,0,1-.32.35A.59.59,0,0,1,215.32,248.7Z"/><path class="cls-1" d="M229.18,251.35a.65.65,0,0,1-.44-.22.58.58,0,0,1-.16-.45.71.71,0,0,1,.24-.44.58.58,0,0,1,.45-.15c.9.07,1.78.1,2.64.1.49,0,1,0,1.42,0a11,11,0,0,0,1.18-.14,3.41,3.41,0,0,0,.85-.27.72.72,0,0,0,.41-.39,4.39,4.39,0,0,0,.09-.72,2.44,2.44,0,0,0-.24-1.1,2.5,2.5,0,0,0-.65-.83,2.78,2.78,0,0,0-1-.52,4.06,4.06,0,0,0-1.23-.18,3.67,3.67,0,0,0-2,.53,4.68,4.68,0,0,0-1.38,1.35,6.22,6.22,0,0,0-.8,1.82,7.7,7.7,0,0,0-.26,1.92,6.22,6.22,0,0,0,.15,1.32,4.46,4.46,0,0,0,.45,1.27,2.79,2.79,0,0,0,.83.94,2.1,2.1,0,0,0,1.27.37,5.27,5.27,0,0,0,1.64-.23,6.23,6.23,0,0,0,1.15-.52,3.45,3.45,0,0,0,.88-.74.69.69,0,0,1,.43-.24.62.62,0,0,1,.47.13.63.63,0,0,1,.23.42.58.58,0,0,1-.14.46,6,6,0,0,1-1.15,1,7,7,0,0,1-1.45.68,6.35,6.35,0,0,1-2.06.3,3.21,3.21,0,0,1-1.77-.47A4,4,0,0,1,228,255.1a5.24,5.24,0,0,1-.73-1.67,7.09,7.09,0,0,1-.24-1.81,8.31,8.31,0,0,1,.36-2.36,7.37,7.37,0,0,1,1.07-2.22,5.89,5.89,0,0,1,1.79-1.65,4.71,4.71,0,0,1,2.49-.65,5.16,5.16,0,0,1,1.76.29,4.08,4.08,0,0,1,1.36.8,3.55,3.55,0,0,1,.88,1.24,4,4,0,0,1,.32,1.59,3.44,3.44,0,0,1,0,.46q0,.23-.06.48a1.43,1.43,0,0,1-.56.87,3.38,3.38,0,0,1-1.14.57,8.28,8.28,0,0,1-1.56.31,15.14,15.14,0,0,1-1.82.1l-1.37,0Z"/><path class="cls-1" d="M249,245.91a.69.69,0,0,1,.24-.42.57.57,0,0,1,.47-.14.72.72,0,0,1,.42.24.62.62,0,0,1,.14.46L249.14,256a.65.65,0,0,1-.24.42.54.54,0,0,1-.45.14.68.68,0,0,1-.42-.23.57.57,0,0,1-.13-.47Zm.47-4.81a.66.66,0,0,1,.25-.41.57.57,0,0,1,.45-.13.69.69,0,0,1,.44.24.56.56,0,0,1,.12.45l-.09.63a.63.63,0,0,1-.23.43.6.6,0,0,1-.47.13.64.64,0,0,1-.41-.25.6.6,0,0,1-.13-.46Z"/><path class="cls-1" d="M253.75,245.66a.61.61,0,0,1,.23-.43.6.6,0,0,1,.47-.13.61.61,0,0,1,.41.23.58.58,0,0,1,.13.45c-.1.86-.19,1.7-.29,2.54s-.19,1.69-.29,2.54c.33-.71.68-1.4,1.07-2.09a12.94,12.94,0,0,1,1.27-1.84,6.87,6.87,0,0,1,1.45-1.33,2.93,2.93,0,0,1,1.61-.5,2.08,2.08,0,0,1,1.34.42,2.74,2.74,0,0,1,.84,1.14,6.15,6.15,0,0,1,.43,1.63,12.94,12.94,0,0,1,.13,1.89c0,.72,0,1.43-.11,2.15s-.15,1.35-.24,1.92-.22,1.21-.37,1.92a.66.66,0,0,1-.27.4.65.65,0,0,1-.47.09.74.74,0,0,1-.4-.29.65.65,0,0,1-.09-.47c.17-.77.3-1.45.4-2s.18-1.25.26-2a18.7,18.7,0,0,0,.12-2.09c0-.47,0-.91-.07-1.33a4.59,4.59,0,0,0-.26-1.09,1.87,1.87,0,0,0-.48-.75,1.12,1.12,0,0,0-.76-.27,2,2,0,0,0-1.2.42,5.46,5.46,0,0,0-1.14,1.12,10.87,10.87,0,0,0-1,1.57q-.48.89-.9,1.8c-.27.62-.52,1.22-.73,1.8s-.4,1.12-.55,1.58-.31,1-.48,1.56a.42.42,0,0,1-.21.27,1,1,0,0,1-.35.07.8.8,0,0,1-.49-.16.4.4,0,0,1-.19-.42Z"/><path class="cls-1" d="M272.34,248.7a.59.59,0,0,1-.36-.81,1,1,0,0,0-.12-.67,1.28,1.28,0,0,0-.48-.47,2.36,2.36,0,0,0-.73-.28,4,4,0,0,0-.85-.09,6.22,6.22,0,0,0-1.09.1,4.19,4.19,0,0,0-1.11.33,2.8,2.8,0,0,0-.9.61,1.53,1.53,0,0,0-.44.94,1.23,1.23,0,0,0,.29.83,2.35,2.35,0,0,0,.74.52,4.79,4.79,0,0,0,.95.3c.33.08.63.13.88.17a8.27,8.27,0,0,1,1.36.35,5.7,5.7,0,0,1,1.34.64,3.43,3.43,0,0,1,1,.94,1.79,1.79,0,0,1,.29,1.27,2.61,2.61,0,0,1-.46,1.3,3.9,3.9,0,0,1-1,1,5.28,5.28,0,0,1-1.36.63,5,5,0,0,1-1.47.23,4.35,4.35,0,0,1-1.67-.31,7.28,7.28,0,0,1-1.34-.68,7.81,7.81,0,0,1-1.2-1,.58.58,0,0,1,0-.88.61.61,0,0,1,.43-.21.63.63,0,0,1,.45.17,6.72,6.72,0,0,0,1,.83,6.54,6.54,0,0,0,1.06.56,3.26,3.26,0,0,0,1.29.25,4.1,4.1,0,0,0,1-.14,4.15,4.15,0,0,0,1-.41,2.8,2.8,0,0,0,.73-.64,1.6,1.6,0,0,0,.37-.84.84.84,0,0,0-.28-.69,3.29,3.29,0,0,0-.8-.54,6.15,6.15,0,0,0-1-.38,8.25,8.25,0,0,0-.87-.23,12.69,12.69,0,0,1-1.35-.31,5.19,5.19,0,0,1-1.34-.56,3,3,0,0,1-1-.94,2,2,0,0,1-.26-1.41,2.69,2.69,0,0,1,.59-1.39,4,4,0,0,1,1.17-.95,5.32,5.32,0,0,1,1.49-.55,7.66,7.66,0,0,1,1.55-.17,4.71,4.71,0,0,1,1.31.18,4.1,4.1,0,0,1,1.1.5,2.58,2.58,0,0,1,.78.8,2.07,2.07,0,0,1,.29,1.07,1.66,1.66,0,0,1-.15.67.56.56,0,0,1-.32.35A.59.59,0,0,1,272.34,248.7Z"/><path class="cls-1" d="M284.65,248.77a.58.58,0,0,1-.25.41.6.6,0,0,1-.47.1.57.57,0,0,1-.4-.26.64.64,0,0,1-.12-.46,1.17,1.17,0,0,0,0-.26v-.25a2.19,2.19,0,0,0-.2-1,1.89,1.89,0,0,0-.55-.67,2.38,2.38,0,0,0-.82-.38,3.63,3.63,0,0,0-1-.13,4.1,4.1,0,0,0-1.8.4,4.19,4.19,0,0,0-1.38,1.13,5.66,5.66,0,0,0-.92,1.7,8,8,0,0,0-.42,2.15,5.81,5.81,0,0,0,.08,1.44,4,4,0,0,0,.45,1.31,3.11,3.11,0,0,0,.85,1,2.62,2.62,0,0,0,1.31.49,3.8,3.8,0,0,0,1.15-.09,4.77,4.77,0,0,0,1.12-.38,4.52,4.52,0,0,0,1-.6,2.7,2.7,0,0,0,.66-.75.61.61,0,0,1,.37-.28.62.62,0,0,1,.48.05.65.65,0,0,1,.3.39.53.53,0,0,1-.07.47,3.65,3.65,0,0,1-.86,1,5.93,5.93,0,0,1-1.25.8,7.43,7.43,0,0,1-1.46.51,5.51,5.51,0,0,1-1.5.13,3.82,3.82,0,0,1-1.8-.62,4.13,4.13,0,0,1-1.24-1.29,5.57,5.57,0,0,1-.68-1.72,6.9,6.9,0,0,1-.14-1.93,9.24,9.24,0,0,1,.54-2.65,6.56,6.56,0,0,1,1.19-2.07,5.32,5.32,0,0,1,1.78-1.36,5.17,5.17,0,0,1,2.27-.49,4.64,4.64,0,0,1,1.51.23,3.45,3.45,0,0,1,1.21.65,3.09,3.09,0,0,1,.82,1.07,3.39,3.39,0,0,1,.3,1.45A4.56,4.56,0,0,1,284.65,248.77Z"/><path class="cls-1" d="M288.32,249.13q.33-.75.72-1.44a6.93,6.93,0,0,1,.88-1.19,3.88,3.88,0,0,1,1-.82,2.54,2.54,0,0,1,1.18-.29,4.45,4.45,0,0,1,1.55.23,2.45,2.45,0,0,1,.92.6,1.85,1.85,0,0,1,.43.77,3.26,3.26,0,0,1,.11.79,3,3,0,0,1-.06.67,2.68,2.68,0,0,1-.07.27.63.63,0,0,1-.3.38.6.6,0,0,1-.49,0,.57.57,0,0,1-.37-.29.62.62,0,0,1,0-.48,1.8,1.8,0,0,0,0-.87,1.23,1.23,0,0,0-.48-.58,2.18,2.18,0,0,0-1.2-.26,1.58,1.58,0,0,0-1,.37,4,4,0,0,0-.88,1,10,10,0,0,0-.73,1.39c-.22.53-.42,1.08-.6,1.63s-.34,1.12-.47,1.67-.24,1.06-.33,1.52-.16.85-.22,1.18-.08.54-.1.65a.45.45,0,0,1-.22.38.74.74,0,0,1-.39.12.82.82,0,0,1-.47-.15.42.42,0,0,1-.18-.41c.16-1.69.3-3.37.44-5s.25-3.35.36-5a.6.6,0,0,1,.21-.44.62.62,0,0,1,.45-.15.69.69,0,0,1,.44.22.59.59,0,0,1,.16.46l-.12,1.58C288.42,248.08,288.37,248.6,288.32,249.13Z"/><path class="cls-1" d="M298,245.91a.69.69,0,0,1,.24-.42.57.57,0,0,1,.47-.14.75.75,0,0,1,.42.24.57.57,0,0,1,.13.46L298.19,256a.65.65,0,0,1-.24.42.54.54,0,0,1-.45.14.66.66,0,0,1-.42-.23.57.57,0,0,1-.13-.47Zm.47-4.81a.7.7,0,0,1,.24-.41.61.61,0,0,1,.46-.13.71.71,0,0,1,.44.24.56.56,0,0,1,.12.45l-.09.63a.63.63,0,0,1-.23.43.6.6,0,0,1-.47.13.61.61,0,0,1-.41-.25.6.6,0,0,1-.13-.46Z"/><path class="cls-1" d="M305.59,257.52a.65.65,0,0,1-.39-.3.56.56,0,0,1-.06-.47.54.54,0,0,0-.18,0,3.6,3.6,0,0,1-1.55-.7,4.21,4.21,0,0,1-1.1-1.3,5.63,5.63,0,0,1-.59-1.64,6.61,6.61,0,0,1-.11-1.85c0-.17,0-.34,0-.5s.05-.34.08-.51a8,8,0,0,1,1.21-3.17,5.35,5.35,0,0,1,2-1.81,2.18,2.18,0,0,1,.47-.21l.46-.15a5.32,5.32,0,0,1,1.52-.22l.46,0,.44.05a3.49,3.49,0,0,1,2.17,1.15,3.18,3.18,0,0,1,.76,2.18,6.09,6.09,0,0,1-.05.72A.63.63,0,0,1,310,249a.64.64,0,0,1-.12-.46.78.78,0,0,0,0-.26v-.25a2,2,0,0,0-.45-1.37,2.3,2.3,0,0,0-1.42-.72,5.12,5.12,0,0,0-.7-.05,4.18,4.18,0,0,0-1.17.16,5.69,5.69,0,0,0-.71.27,4.33,4.33,0,0,0-1.57,1.46,6.7,6.7,0,0,0-1,2.63v0a6.85,6.85,0,0,0-.11.84,5.37,5.37,0,0,0,.09,1.51,4.34,4.34,0,0,0,.45,1.3,3.09,3.09,0,0,0,.75.89,2.22,2.22,0,0,0,1,.48l.16,0,.2,0h.74l.35-.06.35-.08a4.29,4.29,0,0,0,1.51-.7,3.54,3.54,0,0,0,1-1,.57.57,0,0,1,.36-.28.62.62,0,0,1,.48.05.66.66,0,0,1,.31.39.56.56,0,0,1-.07.47,4.46,4.46,0,0,1-.52.69,5.19,5.19,0,0,1-.73.65,6.65,6.65,0,0,1-.91.55,5.43,5.43,0,0,1-1.07.38l-.35.07a1.91,1.91,0,0,0-.33.06,1.06,1.06,0,0,1,.22.42,1.88,1.88,0,0,1,0,.48,2.19,2.19,0,0,1-.34.86,4.6,4.6,0,0,1-.57.7,7,7,0,0,1-.65.6.62.62,0,0,1-.46.1.59.59,0,0,1-.41-.25.61.61,0,0,1-.12-.47.63.63,0,0,1,.25-.41,3.77,3.77,0,0,0,.49-.42,2.78,2.78,0,0,0,.41-.51.81.81,0,0,0,.14-.31Z"/><path class="cls-1" d="M314.24,247.94a.56.56,0,0,1,.69-.05,5.22,5.22,0,0,1,.27-.87,3.2,3.2,0,0,1,.62-1,3.52,3.52,0,0,1,1.12-.77,4.41,4.41,0,0,1,1.79-.32,4.15,4.15,0,0,1,.73.06,3.34,3.34,0,0,1,1.61.69,4.08,4.08,0,0,1,1,1.29,5.54,5.54,0,0,1,.52,1.5,8.26,8.26,0,0,1,.16,1.63c0,.28,0,.54,0,.8s-.06.51-.09.75a7.53,7.53,0,0,1-1.06,2.92,4.61,4.61,0,0,1-2.07,1.74,5,5,0,0,1-1.08.32,5.92,5.92,0,0,1-1.23.11h-.29l-.28,0a3.88,3.88,0,0,1-1.65-.55,4.09,4.09,0,0,1-1.78-2.43,5.33,5.33,0,0,1-.21-1.47,4.7,4.7,0,0,1,.05-.63,14.7,14.7,0,0,1,.34-1.89,6.12,6.12,0,0,1,.38-1.13A2.73,2.73,0,0,1,314.24,247.94Zm.83,1a0,0,0,0,0,0,0,1.39,1.39,0,0,0-.26.47,8.5,8.5,0,0,0-.23.87c-.08.38-.16.9-.23,1.54a1.14,1.14,0,0,0,0,.26v.23a4.54,4.54,0,0,0,.14,1.1,3.31,3.31,0,0,0,.47,1,2.92,2.92,0,0,0,.77.71,3,3,0,0,0,1.12.38.65.65,0,0,0,.2,0h.23l.51,0,.48-.07a2,2,0,0,0,.42-.1l.39-.15a3.47,3.47,0,0,0,1.57-1.35,6.38,6.38,0,0,0,.83-2.34c0-.2,0-.42.07-.65s0-.46,0-.7a7.42,7.42,0,0,0-.12-1.34,4.51,4.51,0,0,0-.42-1.22,2.53,2.53,0,0,0-.67-.85,2.2,2.2,0,0,0-1.05-.46l-.27,0h-.27a2.73,2.73,0,0,0-1.5.35,2.27,2.27,0,0,0-.76.75,2.85,2.85,0,0,0-.34,1.12.59.59,0,0,1-.19.44.56.56,0,0,1-.44.17A.57.57,0,0,1,315.07,248.9Zm2.31-6a.64.64,0,0,1-.27.39.57.57,0,0,1-.47.09.59.59,0,0,1-.4-.27.64.64,0,0,1-.09-.47,3.6,3.6,0,0,1,.45-1,2.66,2.66,0,0,1,.71-.71,2.05,2.05,0,0,1,1.18-.32,1.94,1.94,0,0,1,.74.12,1.84,1.84,0,0,1,.49.3,1.49,1.49,0,0,1,.31.4,4.69,4.69,0,0,1,.21.46l.14.29a1.31,1.31,0,0,0,.62-.2,4.41,4.41,0,0,0,.66-.43,9.51,9.51,0,0,0,.74-.61.64.64,0,0,1,.45-.18.53.53,0,0,1,.43.2.61.61,0,0,1,.19.45.64.64,0,0,1-.21.45,8,8,0,0,1-1,.79,8.43,8.43,0,0,1-.93.55,2.19,2.19,0,0,1-1,.24,1.29,1.29,0,0,1-.51-.09,1.12,1.12,0,0,1-.35-.23,1.16,1.16,0,0,1-.24-.34l-.18-.38a2,2,0,0,0-.2-.36.48.48,0,0,0-.41-.17.91.91,0,0,0-.56.17,1.29,1.29,0,0,0-.34.36A1.65,1.65,0,0,0,317.38,242.89Z"/><path class="cls-1" d="M327.4,251.35a.65.65,0,0,1-.44-.22.62.62,0,0,1-.15-.45.66.66,0,0,1,.23-.44.58.58,0,0,1,.45-.15c.9.07,1.78.1,2.65.1.49,0,1,0,1.41,0a11.18,11.18,0,0,0,1.19-.14,3.46,3.46,0,0,0,.84-.27.69.69,0,0,0,.41-.39,3.52,3.52,0,0,0,.09-.72,2.57,2.57,0,0,0-.23-1.1,2.63,2.63,0,0,0-.65-.83,3,3,0,0,0-1-.52A4.08,4.08,0,0,0,331,246a3.7,3.7,0,0,0-2,.53,4.76,4.76,0,0,0-1.37,1.35,6,6,0,0,0-.8,1.82,7.26,7.26,0,0,0-.26,1.92,6.18,6.18,0,0,0,.14,1.32,4.8,4.8,0,0,0,.46,1.27,2.69,2.69,0,0,0,.83.94,2.08,2.08,0,0,0,1.27.37,5.21,5.21,0,0,0,1.63-.23,6.35,6.35,0,0,0,1.16-.52,3.63,3.63,0,0,0,.88-.74.69.69,0,0,1,.42-.24.65.65,0,0,1,.48.13.62.62,0,0,1,.22.42.57.57,0,0,1-.13.46,6.36,6.36,0,0,1-1.15,1,7.3,7.3,0,0,1-1.45.68,6.39,6.39,0,0,1-2.06.3,3.22,3.22,0,0,1-1.78-.47,4,4,0,0,1-1.24-1.21,5.47,5.47,0,0,1-.73-1.67,7.55,7.55,0,0,1-.23-1.81,8.31,8.31,0,0,1,.36-2.36,7.14,7.14,0,0,1,1.07-2.22,5.85,5.85,0,0,1,1.78-1.65,4.74,4.74,0,0,1,2.49-.65,5.21,5.21,0,0,1,1.77.29,4.18,4.18,0,0,1,1.36.8,3.68,3.68,0,0,1,.88,1.24,4,4,0,0,1,.31,1.59c0,.16,0,.31,0,.46s0,.31-.07.48a1.41,1.41,0,0,1-.55.87,3.44,3.44,0,0,1-1.15.57,8.33,8.33,0,0,1-1.55.31,15.25,15.25,0,0,1-1.82.1l-1.38,0Z"/><path class="cls-1" d="M345.1,248.7a.6.6,0,0,1-.36-.32.53.53,0,0,1,0-.49,1.08,1.08,0,0,0-.12-.67,1.38,1.38,0,0,0-.49-.47,2.27,2.27,0,0,0-.73-.28,3.86,3.86,0,0,0-.84-.09,6.13,6.13,0,0,0-1.09.1,4.37,4.37,0,0,0-1.12.33,3,3,0,0,0-.9.61,1.65,1.65,0,0,0-.44.94,1.19,1.19,0,0,0,.3.83,2.24,2.24,0,0,0,.74.52,4.69,4.69,0,0,0,.94.3c.34.08.63.13.88.17a8,8,0,0,1,1.36.35,5.35,5.35,0,0,1,1.34.64,3.43,3.43,0,0,1,1,.94,1.74,1.74,0,0,1,.29,1.27,2.52,2.52,0,0,1-.46,1.3,4,4,0,0,1-1,1,5.44,5.44,0,0,1-1.36.63,5.07,5.07,0,0,1-1.48.23,4.3,4.3,0,0,1-1.66-.31,7.28,7.28,0,0,1-1.34-.68,7.89,7.89,0,0,1-1.21-1,.58.58,0,0,1,0-.88.6.6,0,0,1,.88,0,7.27,7.27,0,0,0,1,.83,7,7,0,0,0,1.06.56,3.33,3.33,0,0,0,1.29.25,4.12,4.12,0,0,0,1-.14,4.07,4.07,0,0,0,.95-.41,2.69,2.69,0,0,0,.74-.64,1.66,1.66,0,0,0,.36-.84.84.84,0,0,0-.28-.69,3.22,3.22,0,0,0-.79-.54,7,7,0,0,0-1-.38,8.25,8.25,0,0,0-.87-.23,12.69,12.69,0,0,1-1.35-.31,5.26,5.26,0,0,1-1.35-.56,3.11,3.11,0,0,1-1-.94,2.09,2.09,0,0,1-.26-1.41,2.62,2.62,0,0,1,.6-1.39,4,4,0,0,1,1.17-.95,5.25,5.25,0,0,1,1.48-.55,7.68,7.68,0,0,1,1.56-.17,4.64,4.64,0,0,1,1.3.18,4,4,0,0,1,1.11.5,2.66,2.66,0,0,1,.77.8,2,2,0,0,1,.29,1.07,1.83,1.83,0,0,1-.14.67.55.55,0,0,1-.33.35A.57.57,0,0,1,345.1,248.7Z"/><path class="cls-2" d="M452,3.49a15,15,0,0,1,15,15v244a15,15,0,0,1-15,15H18a15,15,0,0,1-15-15v-244a15,15,0,0,1,15-15H452m0-1H18a16,16,0,0,0-16,16v244a16,16,0,0,0,16,16H452a16,16,0,0,0,16-16v-244a16,16,0,0,0-16-16Z"/><path class="cls-1" d="M212.81,75.26a6.53,6.53,0,1,1,6.62-6.53A6.59,6.59,0,0,1,212.81,75.26Zm0-10.85a4.33,4.33,0,1,0,4.41,4.32A4.38,4.38,0,0,0,212.81,64.41Z"/><path class="cls-1" d="M219.62,93.65h-13.8l-.1-1.9h-2.09V78.36l7.24-1.29,2,2.32,2-2.34,6.4,1.34V91.75h-1.58Zm-11.7-2.21h9.6l.1-1.9h1.46V80.18l-3.36-.7-2.79,3.29L210,79.46l-4.19.75v9.33h2Z"/><path class="cls-1" d="M234.57,75a6.54,6.54,0,1,1,6.63-6.54A6.59,6.59,0,0,1,234.57,75Zm0-10.86A4.33,4.33,0,1,0,239,68.43,4.38,4.38,0,0,0,234.57,64.11Z"/><path class="cls-1" d="M241.38,93.35H227.59l-.1-1.9H225.4V78.07l7.24-1.31,2,2.32,2-2.33,6.4,1.34V91.45h-1.58Zm-11.69-2.21h9.59l.1-1.9h1.47V79.88l-3.36-.7-2.8,3.28-2.89-3.3-4.2.75v9.33h2Z"/><path class="cls-1" d="M255.75,75a6.53,6.53,0,1,1,6.62-6.53A6.59,6.59,0,0,1,255.75,75Zm0-10.85a4.32,4.32,0,1,0,4.41,4.32A4.38,4.38,0,0,0,255.75,64.11Z"/><path class="cls-1" d="M262.55,93.35H248.77l-.1-1.9h-2.1V78.06l7.24-1.3,2,2.32,2-2.33,6.4,1.34V91.45h-1.58Zm-11.69-2.21h9.6l.1-1.9H262V79.88l-3.36-.7-2.79,3.28-2.9-3.3-4.19.75v9.33h2Z"/><path class="cls-1" d="M224.5,43.59A5.45,5.45,0,1,1,230,38.14,5.5,5.5,0,0,1,224.5,43.59Zm0-8.69a3.24,3.24,0,1,0,3.31,3.24A3.28,3.28,0,0,0,224.5,34.9Z"/><path class="cls-1" d="M230.17,58.78H218.7l-.08-1.53h-1.69V46.12L223,45l1.54,1.76L226.09,45l5.43,1.14V57.25h-1.27Zm-9.38-2.21h7.28l.08-1.53h1.16v-7.1l-2.39-.51-2.32,2.73-2.41-2.75-3.05.55V55h1.57Z"/><ellipse class="cls-1" cx="246.27" cy="37.9" rx="4.42" ry="4.34"/><path class="cls-1" d="M246.27,43.34a5.45,5.45,0,1,1,5.52-5.44A5.49,5.49,0,0,1,246.27,43.34Zm0-8.68a3.24,3.24,0,1,0,3.31,3.24A3.29,3.29,0,0,0,246.27,34.66Z"/><polygon class="cls-1" points="246.35 48.23 244.38 45.98 239.8 46.8 239.8 55.91 241.43 55.91 241.51 57.43 250.89 57.43 250.96 55.91 252.18 55.91 252.18 46.8 248.27 45.98 246.35 48.23"/><path class="cls-1" d="M251.94,58.53H240.46L240.38,57h-1.69V45.87l6.11-1.09,1.54,1.76,1.52-1.78,5.43,1.14V57H252Zm-9.38-2.2h7.28l.07-1.52h1.17V47.69l-2.39-.5-2.33,2.73L244,47.18l-3.06.54v7.09h1.58Z"/><ellipse class="cls-1" cx="263.24" cy="37.9" rx="5.19" ry="5.1"/><path class="cls-1" d="M263.24,44.1a6.21,6.21,0,1,1,6.3-6.2A6.25,6.25,0,0,1,263.24,44.1Zm0-10.2a4,4,0,1,0,4.09,4A4.06,4.06,0,0,0,263.24,33.9Z"/><polygon class="cls-1" points="265.25 45.98 263.33 48.23 261.36 45.98 256.78 46.8 256.78 55.91 258.41 55.91 258.49 57.43 267.86 57.43 267.94 55.91 269.16 55.91 269.16 46.8 265.25 45.98"/><path class="cls-1" d="M268.91,58.53H257.44L257.36,57h-1.69V45.87l6.11-1.09,1.54,1.76,1.51-1.78,5.44,1.14V57H269Zm-9.37-2.2h7.27l.08-1.52h1.17V47.69l-2.4-.5-2.32,2.73-2.4-2.74-3.06.54v7.09h1.58Z"/><path class="cls-1" d="M207.16,43.34a5.45,5.45,0,1,1,5.52-5.44A5.49,5.49,0,0,1,207.16,43.34Zm0-8.68a3.24,3.24,0,1,0,3.31,3.24A3.28,3.28,0,0,0,207.16,34.66Z"/><path class="cls-1" d="M212.83,58.53H201.35L201.27,57h-1.69V45.87l6.11-1.09,1.54,1.76,1.51-1.78,5.44,1.14V57H212.9Zm-9.38-2.2h7.28l.07-1.52H212V47.69l-2.4-.5-2.32,2.73-2.4-2.75-3.06.55v7.09h1.58Z"/><path class="cls-1" d="M116.75,37.49h1l0,0V34.74a2,2,0,0,0-2-2H51.24a2,2,0,0,0-2,2v2.73s0,0,0,0h.92a1.53,1.53,0,0,1,1.54,1.3,1.49,1.49,0,0,1-1.48,1.68h-1v4.2s0,0,0,0h.92A1.53,1.53,0,0,1,51.74,46a1.49,1.49,0,0,1-1.48,1.68h-1v4.2s0,0,0,0h.92a1.53,1.53,0,0,1,1.54,1.3,1.49,1.49,0,0,1-1.48,1.68h-1v2.74a2,2,0,0,0,2,2h64.53a2,2,0,0,0,2-2V54.9h-.94a1.53,1.53,0,0,1-1.54-1.31,1.49,1.49,0,0,1,1.48-1.67h1l0,0v-4.2h-.94a1.53,1.53,0,0,1-1.54-1.31,1.49,1.49,0,0,1,1.48-1.67h1l0,0v-4.2h-.94a1.53,1.53,0,0,1-1.54-1.31A1.49,1.49,0,0,1,116.75,37.49Zm-1,4.82h0v.54a3.48,3.48,0,0,0,0,6.66h0v.52a0,0,0,0,1,0,0,3.48,3.48,0,0,0,0,6.67h0v.87H51.26v-.87a0,0,0,0,1,0,0,3.49,3.49,0,0,0,0-6.67s0,0,0,0v-.52h0a3.48,3.48,0,0,0,0-6.66v-.54h0a3.48,3.48,0,0,0,0-6.66v-.88s0,0,0,0h64.47a0,0,0,0,1,0,0v.88a3.48,3.48,0,0,0,0,6.66Z"/><rect class="cls-1" x="56.29" y="51.22" width="1.74" height="3.74"/><rect class="cls-1" x="56.29" y="44.51" width="1.74" height="3.74"/><rect class="cls-1" x="56.29" y="37.82" width="1.74" height="3.74"/><rect class="cls-1" x="108.66" y="51.22" width="1.74" height="3.74"/><rect class="cls-1" x="108.66" y="44.51" width="1.74" height="3.74"/><rect class="cls-1" x="108.66" y="37.82" width="1.74" height="3.74"/><path class="cls-1" d="M100.27,70.46h1a0,0,0,0,0,0,0V67.71a2,2,0,0,0-2-2H64.64a2,2,0,0,0-2,2v2.73a0,0,0,0,0,0,0h.91a1.55,1.55,0,0,1,1.55,1.3,1.5,1.5,0,0,1-1.48,1.68h-1l0,0v4.19l0,0h.91A1.54,1.54,0,0,1,65.14,79a1.5,1.5,0,0,1-1.48,1.68h-1v4.2a0,0,0,0,0,0,0h.91a1.54,1.54,0,0,1,1.55,1.3,1.5,1.5,0,0,1-1.48,1.68h-1v2.74a2,2,0,0,0,2,2H99.29a2,2,0,0,0,2-2V87.87h-.93a1.53,1.53,0,0,1-1.54-1.31,1.49,1.49,0,0,1,1.48-1.67h1a0,0,0,0,0,0,0v-4.2h-.93a1.53,1.53,0,0,1-1.54-1.31,1.49,1.49,0,0,1,1.48-1.67h1V73.44h-.92a1.53,1.53,0,0,1-1.54-1.31A1.49,1.49,0,0,1,100.27,70.46Zm-1,4.82s0,0,0,0v.53a3.48,3.48,0,0,0,0,6.66,0,0,0,0,1,0,0V83s0,0,0,0a3.48,3.48,0,0,0,0,6.66h0v.87a0,0,0,0,1,0,0H64.66a0,0,0,0,1,0,0v-.87h0a3.48,3.48,0,0,0,0-6.66s0,0,0,0V82.5a0,0,0,0,1,0,0,3.48,3.48,0,0,0,0-6.66V75.3s0,0,0,0a3.48,3.48,0,0,0,0-6.66s0,0,0,0v-.88h34.6v.88s0,0,0,0a3.48,3.48,0,0,0,0,6.66Z"/><rect class="cls-1" x="69.68" y="84.19" width="1.74" height="3.74"/><rect class="cls-1" x="69.68" y="77.48" width="1.74" height="3.74"/><rect class="cls-1" x="69.68" y="70.79" width="1.74" height="3.74"/><rect class="cls-1" x="93.2" y="84.19" width="1.74" height="3.74"/><rect class="cls-1" x="93.2" y="77.48" width="1.74" height="3.74"/><rect class="cls-1" x="93.2" y="70.79" width="1.74" height="3.74"/><path class="cls-1" d="M419.33,32.93h1.17a0,0,0,0,0,0,0l0-3.28a2.37,2.37,0,0,0-2.39-2.34l-56.39.5a2.37,2.37,0,0,0-2.35,2.39l0,3.28h1.12A1.82,1.82,0,0,1,362.37,35a1.79,1.79,0,0,1-1.75,2h-1.18a0,0,0,0,0,0,0l.05,5v0h1.1a1.84,1.84,0,0,1,1.87,1.55,1.79,1.79,0,0,1-1.76,2H359.5l0,5,0,0h1.1a1.84,1.84,0,0,1,1.87,1.55,1.78,1.78,0,0,1-1.76,2l-1.18,0h0l0,3.28A2.37,2.37,0,0,0,362,60l56.4-.5a2.37,2.37,0,0,0,2.34-2.39l0-3.28s0,0,0,0h-1.1a1.84,1.84,0,0,1-1.87-1.55,1.79,1.79,0,0,1,1.76-2h1.18v0l0-5h-1.12a1.82,1.82,0,0,1-1.86-1.55,1.78,1.78,0,0,1,1.75-2h1.18a0,0,0,0,0,0,0l-.05-5a0,0,0,0,0,0,0h-1.1A1.84,1.84,0,0,1,417.57,35,1.79,1.79,0,0,1,419.33,32.93Zm-1.16,5.8h0v.63a0,0,0,0,1,0,0,4.18,4.18,0,0,0,.07,8h0V48a0,0,0,0,1,0,0,4.17,4.17,0,0,0,.07,8v1.06a0,0,0,0,1,0,0L362,57.59s0,0,0,0V56.52a4.17,4.17,0,0,0-.07-8,0,0,0,0,1,0,0v-.62h0a4.18,4.18,0,0,0-.07-8,0,0,0,0,1,0,0v-.62a0,0,0,0,1,0,0,4.18,4.18,0,0,0-.07-8,0,0,0,0,1,0,0V30.16l56.33-.5s0,0,0,0v1s0,0,0,0a4.18,4.18,0,0,0,.07,8Z"/><rect class="cls-1" x="367.98" y="49.84" width="2.09" height="4.49" transform="translate(-0.45 3.27) rotate(-0.51)"/><rect class="cls-1" x="367.9" y="41.8" width="2.09" height="4.49" transform="matrix(1, -0.01, 0.01, 1, -0.38, 3.27)"/><rect class="cls-1" x="367.83" y="33.77" width="2.09" height="4.49" transform="matrix(1, -0.01, 0.01, 1, -0.3, 3.27)"/><rect class="cls-1" x="411.02" y="49.46" width="2.09" height="4.49" transform="translate(-0.44 3.65) rotate(-0.51)"/><rect class="cls-1" x="410.95" y="41.42" width="2.09" height="4.49" transform="translate(-0.37 3.65) rotate(-0.51)"/><rect class="cls-1" x="410.88" y="33.39" width="2.09" height="4.49" transform="translate(-0.3 3.65) rotate(-0.51)"/><path class="cls-1" d="M418.85,71H420a0,0,0,0,0,0,0l0-3.28a2.37,2.37,0,0,0-2.39-2.34l-56.39.5a2.37,2.37,0,0,0-2.35,2.39l0,3.28H360a1.83,1.83,0,0,1,1.86,1.55,1.79,1.79,0,0,1-1.75,2H359a0,0,0,0,0,0,0l.05,5v0h1.1A1.84,1.84,0,0,1,362,81.74a1.79,1.79,0,0,1-1.76,2H359a0,0,0,0,0,0,0l0,5a0,0,0,0,0,0,0h1.1a1.84,1.84,0,0,1,1.87,1.55,1.8,1.8,0,0,1-1.76,2H359.1l0,3.28a2.37,2.37,0,0,0,2.38,2.35l56.4-.5a2.37,2.37,0,0,0,2.34-2.39l0-3.28s0,0,0,0h-1.1a1.84,1.84,0,0,1-1.87-1.55,1.79,1.79,0,0,1,1.76-2h1.18v0l0-5s0,0,0,0H419a1.84,1.84,0,0,1-1.87-1.55,1.79,1.79,0,0,1,1.76-2h1.18a0,0,0,0,0,0,0l-.05-5a0,0,0,0,0,0,0H419a1.84,1.84,0,0,1-1.86-1.55A1.79,1.79,0,0,1,418.85,71Zm-1.16,5.8s0,0,0,0v.62a0,0,0,0,1,0,0,4.18,4.18,0,0,0,.07,8,0,0,0,0,1,0,0v.62a0,0,0,0,1,0,0,4.17,4.17,0,0,0,.07,8s0,0,0,0v1a0,0,0,0,1,0,0l-56.32.49s0,0,0,0V94.61a4.17,4.17,0,0,0-.07-8s0,0,0,0V86s0,0,0,0a4.18,4.18,0,0,0-.07-8l0,0v-.62a0,0,0,0,1,0,0,4.18,4.18,0,0,0-.07-8h0V68.25l56.33-.5s0,0,0,0v1h0a4.18,4.18,0,0,0,.07,8Z"/><rect class="cls-1" x="367.5" y="87.93" width="2.09" height="4.49" transform="translate(-0.78 3.27) rotate(-0.51)"/><rect class="cls-1" x="367.42" y="79.89" width="2.09" height="4.49" transform="translate(-0.71 3.26) rotate(-0.51)"/><rect class="cls-1" x="367.35" y="71.86" width="2.09" height="4.49" transform="translate(-0.64 3.26) rotate(-0.51)"/><rect class="cls-1" x="410.54" y="87.55" width="2.09" height="4.49" transform="translate(-0.78 3.65) rotate(-0.51)"/><rect class="cls-1" x="410.47" y="79.51" width="2.09" height="4.49" transform="matrix(1, -0.01, 0.01, 1, -0.71, 3.65)"/><rect class="cls-1" x="410.4" y="71.48" width="2.09" height="4.49" transform="translate(-0.64 3.64) rotate(-0.51)"/><path class="cls-1" d="M396.82,92.76l-7.25-3.82-7.25,3.82,1.38-8.08L377.84,79l8.1-1.17,3.63-7.35,3.62,7.35L401.3,79l-5.87,5.72Zm-7.25-5.06,5.78,3-1.1-6.44,4.67-4.56-6.46-.94-2.89-5.86-2.89,5.86-6.47.94,4.68,4.56-1.11,6.44Z"/><path class="cls-1" d="M297.42,147.64a15.35,15.35,0,1,1,15.35-15.34A15.36,15.36,0,0,1,297.42,147.64Zm0-28.92A13.58,13.58,0,1,0,311,132.3,13.6,13.6,0,0,0,297.42,118.72Z"/><circle class="cls-1" cx="331.73" cy="132.3" r="14.46"/><path class="cls-1" d="M331.73,147.64a15.35,15.35,0,1,1,15.34-15.34A15.36,15.36,0,0,1,331.73,147.64Zm0-28.92A13.58,13.58,0,1,0,345.3,132.3,13.59,13.59,0,0,0,331.73,118.72Z"/><path class="cls-1" d="M331.73,181.11a15.35,15.35,0,1,1,15.34-15.35A15.37,15.37,0,0,1,331.73,181.11Zm0-28.93a13.58,13.58,0,1,0,13.57,13.58A13.59,13.59,0,0,0,331.73,152.18Z"/><path class="cls-1" d="M297.42,181.11a15.35,15.35,0,1,1,15.35-15.35A15.37,15.37,0,0,1,297.42,181.11Zm0-28.93A13.58,13.58,0,1,0,311,165.76,13.6,13.6,0,0,0,297.42,152.18Z"/><path class="cls-1" d="M173,148a15.39,15.39,0,1,1,15.39-15.39A15.42,15.42,0,0,1,173,148Zm0-29a13.58,13.58,0,1,0,13.58,13.58A13.6,13.6,0,0,0,173,119Z"/><path class="cls-1" d="M153.54,147.05H127a1.81,1.81,0,0,1-1.81-1.81V118.69a1.81,1.81,0,0,1,1.81-1.81h26.55a1.81,1.81,0,0,1,1.81,1.81v26.55A1.81,1.81,0,0,1,153.54,147.05ZM127,118.69v26.55h26.55V118.69Z"/><path class="cls-1" d="M153.42,180.27H128a.91.91,0,0,1-.81-1.31l12.72-25.43a.9.9,0,0,1,1.62,0L154.23,179A.91.91,0,0,1,153.42,180.27Z"/><path class="cls-1" d="M153.42,180.72H128a1.37,1.37,0,0,1-1.16-.64,1.35,1.35,0,0,1-.06-1.32l12.72-25.43a1.35,1.35,0,0,1,2.43,0l12.72,25.43a1.35,1.35,0,0,1-1.22,2Zm-12.71-27.24a.44.44,0,0,0-.41.25l-12.72,25.43a.46.46,0,0,0,.41.66h25.43a.46.46,0,0,0,.41-.66l-12.72-25.43A.44.44,0,0,0,140.71,153.48Z"/><path class="cls-1" d="M180.7,181.18H165.37a1.82,1.82,0,0,1-1.57-.91L156.14,167a1.8,1.8,0,0,1,0-1.82l7.66-13.27a1.82,1.82,0,0,1,1.57-.91H180.7a1.82,1.82,0,0,1,1.57.91l7.66,13.27a1.8,1.8,0,0,1,0,1.82l-7.66,13.27A1.82,1.82,0,0,1,180.7,181.18Zm-15.33-28.37-7.66,13.28,7.66,13.28H180.7l7.66-13.28-7.66-13.28Z"/></svg>