<svg id="Camada_1" data-name="Camada 1" xmlns="http://www.w3.org/2000/svg" viewBox="0 0 470 280"><defs><style>.cls-1{fill:#606060;}.cls-2{fill:#096;}.cls-3{fill:#605f5f;}.cls-4{fill:#cacaca;}</style></defs><title>01</title><path class="cls-1" d="M159.44,211a.52.52,0,0,1-.44-.13.7.7,0,0,1-.24-.42.6.6,0,0,1,.13-.46.64.64,0,0,1,.41-.25c.75-.08,1.49-.15,2.22-.2s1.47-.08,2.19-.08c.51,0,1,0,1.59.06a12.39,12.39,0,0,1,1.62.23,9.34,9.34,0,0,1,1.5.47,4.35,4.35,0,0,1,1.24.78,3.75,3.75,0,0,1,.85,1.18,3.92,3.92,0,0,1,.31,1.63,7.5,7.5,0,0,1-.35,2.38,6,6,0,0,1-.94,1.77,5.2,5.2,0,0,1-1.34,1.23,7.74,7.74,0,0,1-1.54.79,8.18,8.18,0,0,1-1.54.41,9,9,0,0,1-1.38.12l-.65,0-.48,0a.67.67,0,0,1-.44-.2.58.58,0,0,1-.16-.44.66.66,0,0,1,.23-.44.58.58,0,0,1,.46-.16l.39,0h.52a8,8,0,0,0,1.12-.09,7.46,7.46,0,0,0,1.3-.32,6.3,6.3,0,0,0,1.29-.61,4.56,4.56,0,0,0,1.13-1,5,5,0,0,0,.8-1.42,5.67,5.67,0,0,0,.3-1.93,2.53,2.53,0,0,0-.56-1.73,3.6,3.6,0,0,0-1.43-1,7,7,0,0,0-1.88-.4c-.67-.06-1.29-.08-1.87-.08s-1.41,0-2.15.08S160.18,210.93,159.44,211Zm1.84.72a.7.7,0,0,1,.24-.42.53.53,0,0,1,.45-.13.65.65,0,0,1,.42.24.56.56,0,0,1,.13.46L161,226a.66.66,0,0,1-.25.42.55.55,0,0,1-.45.14.65.65,0,0,1-.43-.24.56.56,0,0,1-.13-.46Z"/><path class="cls-1" d="M174.46,219.13a12.09,12.09,0,0,1,.72-1.44,6.41,6.41,0,0,1,.87-1.19,3.92,3.92,0,0,1,1-.82,2.47,2.47,0,0,1,1.17-.29,4.41,4.41,0,0,1,1.55.23,2.45,2.45,0,0,1,.92.6,1.75,1.75,0,0,1,.43.77,2.83,2.83,0,0,1,.11.79,3.9,3.9,0,0,1,0,.67,2.68,2.68,0,0,0-.07.27.65.65,0,0,1-.31.38.6.6,0,0,1-.49,0,.57.57,0,0,1-.37-.29.66.66,0,0,1,0-.48,1.8,1.8,0,0,0,0-.87,1.17,1.17,0,0,0-.48-.58,2.13,2.13,0,0,0-1.2-.26,1.62,1.62,0,0,0-1,.37,4,4,0,0,0-.88,1,9,9,0,0,0-.72,1.39c-.23.53-.43,1.08-.61,1.63s-.33,1.12-.46,1.67-.25,1.06-.34,1.52-.16.85-.21,1.18-.09.54-.1.65a.49.49,0,0,1-.23.38.68.68,0,0,1-.38.12.8.8,0,0,1-.47-.15.39.39,0,0,1-.18-.41c.15-1.69.3-3.37.43-5s.25-3.35.36-5a.6.6,0,0,1,.21-.44.65.65,0,0,1,.45-.15.74.74,0,0,1,.45.22.63.63,0,0,1,.15.46l-.12,1.58C174.55,218.08,174.5,218.6,174.46,219.13Z"/><path class="cls-1" d="M185,217.89a5.22,5.22,0,0,1,.27-.87,3.2,3.2,0,0,1,.62-1,3.52,3.52,0,0,1,1.12-.77,4.41,4.41,0,0,1,1.79-.32,3.67,3.67,0,0,1,1.87.46,4.1,4.1,0,0,1,1.26,1.19,5.27,5.27,0,0,1,.71,1.66,7.82,7.82,0,0,1,.22,1.86,9.54,9.54,0,0,1-.35,2.62,6.14,6.14,0,0,1-1.08,2.1,5,5,0,0,1-1.74,1.41,5.35,5.35,0,0,1-2.39.51,4.18,4.18,0,0,1-1.77-.36,3.93,3.93,0,0,1-1.32-1,4.33,4.33,0,0,1-.83-1.43,5.12,5.12,0,0,1-.29-1.71,7.64,7.64,0,0,1,.17-1.61,12.63,12.63,0,0,1,.38-1.35,7.16,7.16,0,0,1,.4-1,3.72,3.72,0,0,1,.2-.37.47.47,0,0,1,.36-.2A.72.72,0,0,1,185,217.89Zm.14,1s-.08,0-.16.2a3.77,3.77,0,0,0-.26.69,8.89,8.89,0,0,0-.24,1.1,7.61,7.61,0,0,0-.11,1.41,3.86,3.86,0,0,0,.19,1.23,2.94,2.94,0,0,0,.56,1,2.64,2.64,0,0,0,.91.7,3,3,0,0,0,1.27.26,4.18,4.18,0,0,0,1.89-.41A3.8,3.8,0,0,0,190.5,224a5,5,0,0,0,.8-1.7,8,8,0,0,0,.27-2.13,7.16,7.16,0,0,0-.13-1.38,4,4,0,0,0-.46-1.26,2.68,2.68,0,0,0-.86-.91,2.38,2.38,0,0,0-1.35-.36,2.73,2.73,0,0,0-1.5.35,2.27,2.27,0,0,0-.76.75,3,3,0,0,0-.34,1.12.69.69,0,0,1-.18.46.55.55,0,0,1-.45.19A.51.51,0,0,1,185.11,218.9Z"/><path class="cls-1" d="M203.35,216.58a.37.37,0,0,0,0-.18.55.55,0,0,1,0-.17.39.39,0,0,1,.21-.31.66.66,0,0,1,.37-.1.82.82,0,0,1,.47.15.4.4,0,0,1,.19.41c-.09.79-.17,1.58-.22,2.37s-.11,1.58-.17,2.34c-.06,1-.13,2-.21,2.92s-.2,1.81-.35,2.63a12.8,12.8,0,0,1-.64,2.24,5.62,5.62,0,0,1-1.08,1.75,4.55,4.55,0,0,1-1.67,1.12,6.72,6.72,0,0,1-2.43.4,6,6,0,0,1-1.61-.18,2.88,2.88,0,0,1-1-.44,1.44,1.44,0,0,1-.49-.6,1.79,1.79,0,0,1-.14-.67,2.48,2.48,0,0,1,.06-.54,1.83,1.83,0,0,1,.14-.45,4.48,4.48,0,0,1,.2-.44.68.68,0,0,1,.39-.3.53.53,0,0,1,.47.07.61.61,0,0,1,.3.39.64.64,0,0,1-.06.47l-.08.15a1.15,1.15,0,0,0-.07.36.92.92,0,0,0,.07.32.79.79,0,0,0,.28.3,1.68,1.68,0,0,0,.58.21,4.1,4.1,0,0,0,.94.09,4.29,4.29,0,0,0,2.37-.59,4.09,4.09,0,0,0,1.44-1.61,8.36,8.36,0,0,0,.79-2.43c.16-.94.29-1.95.37-3a10,10,0,0,1-.73,1.38,6.6,6.6,0,0,1-.91,1.14,4,4,0,0,1-1.09.76,3,3,0,0,1-1.28.28,3.44,3.44,0,0,1-1.73-.42,3.51,3.51,0,0,1-1.21-1.12,4.83,4.83,0,0,1-.71-1.56,6.75,6.75,0,0,1-.24-1.78,9.48,9.48,0,0,1,.35-2.5,9.07,9.07,0,0,1,1-2.26,5.77,5.77,0,0,1,1.51-1.63,3.24,3.24,0,0,1,1.92-.63,7.75,7.75,0,0,1,1,.08,4.25,4.25,0,0,1,1.05.26,3.22,3.22,0,0,1,.92.52A2.26,2.26,0,0,1,203.35,216.58ZM203,218.5a.56.56,0,0,1-.35,0,.53.53,0,0,1-.21-.21.82.82,0,0,1-.12-.32,2.09,2.09,0,0,1,0-.34,1,1,0,0,0-.28-.75,1.84,1.84,0,0,0-.67-.45,3.4,3.4,0,0,0-.85-.2,6.19,6.19,0,0,0-.81-.06,2.18,2.18,0,0,0-1.42.54,4.86,4.86,0,0,0-1.11,1.39,8.25,8.25,0,0,0-.71,1.86,8.12,8.12,0,0,0-.25,2,5.7,5.7,0,0,0,.15,1.3,3.6,3.6,0,0,0,.45,1.16,2.71,2.71,0,0,0,.81.84,2.24,2.24,0,0,0,1.22.32,2,2,0,0,0,1.1-.33,4,4,0,0,0,.92-.88,6.8,6.8,0,0,0,.77-1.27,12.34,12.34,0,0,0,.6-1.5c.18-.51.33-1,.46-1.56S202.93,219,203,218.5Z"/><path class="cls-1" d="M208.06,219.13q.33-.75.72-1.44a6.93,6.93,0,0,1,.88-1.19,3.88,3.88,0,0,1,1-.82,2.54,2.54,0,0,1,1.18-.29,4.45,4.45,0,0,1,1.55.23,2.45,2.45,0,0,1,.92.6,1.85,1.85,0,0,1,.43.77,3.26,3.26,0,0,1,.11.79,3,3,0,0,1-.06.67,2.68,2.68,0,0,1-.07.27.63.63,0,0,1-.3.38.6.6,0,0,1-.49,0,.57.57,0,0,1-.37-.29.62.62,0,0,1,0-.48,1.8,1.8,0,0,0,0-.87,1.29,1.29,0,0,0-.48-.58,2.18,2.18,0,0,0-1.2-.26,1.62,1.62,0,0,0-1,.37,4,4,0,0,0-.87,1,9,9,0,0,0-.73,1.39c-.22.53-.42,1.08-.6,1.63s-.34,1.12-.47,1.67-.24,1.06-.33,1.52-.16.85-.22,1.18-.09.54-.1.65a.48.48,0,0,1-.22.38.74.74,0,0,1-.39.12.82.82,0,0,1-.47-.15.42.42,0,0,1-.18-.41c.16-1.69.3-3.37.43-5s.26-3.35.37-5a.6.6,0,0,1,.21-.44.62.62,0,0,1,.45-.15.69.69,0,0,1,.44.22.59.59,0,0,1,.16.46l-.12,1.58C208.16,218.08,208.11,218.6,208.06,219.13Z"/><path class="cls-1" d="M224.69,215.68a2.51,2.51,0,0,1,1,1.24c0-.15,0-.27.06-.38s0-.2.06-.29a.74.74,0,0,0,0-.23.45.45,0,0,1,.2-.3.75.75,0,0,1,.36-.1.87.87,0,0,1,.49.16.43.43,0,0,1,.19.44c-.2,1.64-.41,3.27-.63,4.87s-.42,3.24-.63,4.88a.61.61,0,0,1-.24.42.59.59,0,0,1-.46.12.57.57,0,0,1-.41-.24.6.6,0,0,1-.13-.46l.36-2.81a11.3,11.3,0,0,1-.84,1.44,6.64,6.64,0,0,1-1,1.21,4.46,4.46,0,0,1-1.17.83,3.47,3.47,0,0,1-1.34.36,3.81,3.81,0,0,1-1.64-.34,3.38,3.38,0,0,1-1.19-.92,4.28,4.28,0,0,1-.75-1.42,6.64,6.64,0,0,1-.29-1.79,8.44,8.44,0,0,1,.31-2.68,7.92,7.92,0,0,1,1.1-2.39,5.76,5.76,0,0,1,1.83-1.71,4.83,4.83,0,0,1,2.5-.65,3.78,3.78,0,0,1,1.21.19A3.29,3.29,0,0,1,224.69,215.68Zm.65,2.52a.82.82,0,0,1-.28.05.7.7,0,0,1-.44-.23.56.56,0,0,1-.16-.45,1,1,0,0,0-.21-.62,1.77,1.77,0,0,0-.51-.42,2.37,2.37,0,0,0-.66-.25,2.56,2.56,0,0,0-.65-.08,3.54,3.54,0,0,0-2,.56A4.68,4.68,0,0,0,219,218.2a6.1,6.1,0,0,0-.83,2,8.33,8.33,0,0,0-.23,2.15,7,7,0,0,0,.19,1.29,3.36,3.36,0,0,0,.46,1,2.21,2.21,0,0,0,.78.68,2.33,2.33,0,0,0,1.13.26,2.52,2.52,0,0,0,1.21-.4,4.34,4.34,0,0,0,1-1,7.37,7.37,0,0,0,.87-1.34,15.9,15.9,0,0,0,.73-1.56q.32-.81.57-1.62C225.08,219.17,225.22,218.66,225.34,218.2Z"/><path class="cls-1" d="M230,215.66a.71.71,0,0,1,.25-.43.6.6,0,0,1,.46-.13.66.66,0,0,1,.42.23.59.59,0,0,1,.14.45c-.07.54-.12,1.08-.18,1.62s-.11,1.08-.17,1.62c.23-.51.48-1,.74-1.46a6.79,6.79,0,0,1,.85-1.21,3.84,3.84,0,0,1,1-.81,2.17,2.17,0,0,1,1.1-.3,1.84,1.84,0,0,1,1.23.42,2.88,2.88,0,0,1,.8,1.1,6.09,6.09,0,0,1,.46,1.56,17.52,17.52,0,0,1,.21,1.84c.24-.64.5-1.25.79-1.84a9.62,9.62,0,0,1,.94-1.56,5,5,0,0,1,1.1-1.1,2.08,2.08,0,0,1,1.24-.42,1.67,1.67,0,0,1,1.21.47,3.13,3.13,0,0,1,.75,1.23,8,8,0,0,1,.38,1.71,18.35,18.35,0,0,1,.1,2c0,.67,0,1.33-.07,2s-.1,1.21-.17,1.71l-.24,1.68a.66.66,0,0,1-.27.4.54.54,0,0,1-.47.1.53.53,0,0,1-.4-.25.65.65,0,0,1-.1-.47c.12-.72.21-1.35.28-1.91s.14-1.18.2-1.87.09-1.35.09-2c0-.47,0-.91-.06-1.33a5.45,5.45,0,0,0-.22-1.11,2.17,2.17,0,0,0-.39-.76.82.82,0,0,0-.62-.28,1.4,1.4,0,0,0-.95.42,4.44,4.44,0,0,0-.86,1.08,11.35,11.35,0,0,0-.74,1.52c-.24.57-.45,1.15-.65,1.75s-.37,1.19-.52,1.77-.28,1.09-.38,1.54l-.33,1.5a.41.41,0,0,1-.19.28.78.78,0,0,1-.35.08.89.89,0,0,1-.51-.17.43.43,0,0,1-.18-.44l.09-.61c.05-.33.1-.73.15-1.21s.09-1,.13-1.59.06-1.17.06-1.76,0-1.06-.07-1.56a7.92,7.92,0,0,0-.24-1.33,2.27,2.27,0,0,0-.47-.92,1,1,0,0,0-.76-.35,1.46,1.46,0,0,0-1,.42,4.32,4.32,0,0,0-.88,1.09,10.53,10.53,0,0,0-.75,1.54,17.5,17.5,0,0,0-.63,1.76c-.19.6-.35,1.19-.5,1.77s-.26,1.1-.37,1.55-.2,1-.31,1.52a.41.41,0,0,1-.2.29.74.74,0,0,1-.36.09.92.92,0,0,1-.48-.14.39.39,0,0,1-.2-.42Z"/><path class="cls-1" d="M253.62,215.68a2.43,2.43,0,0,1,.95,1.24c0-.15.05-.27.07-.38s0-.2.06-.29a.74.74,0,0,0,0-.23.42.42,0,0,1,.2-.3.68.68,0,0,1,.35-.1.88.88,0,0,1,.5.16.45.45,0,0,1,.19.44c-.21,1.64-.41,3.27-.63,4.87s-.43,3.24-.63,4.88a.69.69,0,0,1-.24.42.59.59,0,0,1-.46.12.61.61,0,0,1-.42-.24.55.55,0,0,1-.12-.46l.36-2.81a12.63,12.63,0,0,1-.84,1.44,7.58,7.58,0,0,1-1,1.21,4.63,4.63,0,0,1-1.17.83,3.47,3.47,0,0,1-1.35.36,3.84,3.84,0,0,1-1.64-.34,3.47,3.47,0,0,1-1.19-.92,4.26,4.26,0,0,1-.74-1.42,6.63,6.63,0,0,1-.3-1.79,8.45,8.45,0,0,1,.32-2.68A7.9,7.9,0,0,1,247,217.3a6,6,0,0,1,1.83-1.71,4.85,4.85,0,0,1,2.5-.65,3.84,3.84,0,0,1,1.22.19A3.29,3.29,0,0,1,253.62,215.68Zm.65,2.52a.84.84,0,0,1-.29.05.68.68,0,0,1-.43-.23.53.53,0,0,1-.16-.45,1,1,0,0,0-.21-.62,1.91,1.91,0,0,0-.51-.42,2.64,2.64,0,0,0-.66-.25,2.59,2.59,0,0,0-.66-.08,3.51,3.51,0,0,0-2,.56,4.71,4.71,0,0,0-1.44,1.44,6.31,6.31,0,0,0-.82,2,7.92,7.92,0,0,0-.23,2.15,7,7,0,0,0,.19,1.29,3.14,3.14,0,0,0,.46,1,2.1,2.1,0,0,0,.77.68,2.37,2.37,0,0,0,1.14.26,2.49,2.49,0,0,0,1.2-.4,4.38,4.38,0,0,0,1-1,7.37,7.37,0,0,0,.87-1.34q.39-.75.72-1.56c.22-.54.41-1.08.58-1.62S254.15,218.66,254.27,218.2Z"/><path class="cls-1" d="M261.81,227.52a.65.65,0,0,1-.39-.3.56.56,0,0,1-.06-.47.45.45,0,0,0-.18,0,3.66,3.66,0,0,1-1.55-.7,4.35,4.35,0,0,1-1.1-1.3,5.93,5.93,0,0,1-.59-1.64,6.61,6.61,0,0,1-.11-1.85c0-.17,0-.34.05-.5a4.5,4.5,0,0,1,.08-.51,8,8,0,0,1,1.2-3.17,5.43,5.43,0,0,1,2-1.81,2.42,2.42,0,0,1,.47-.21c.16-.05.31-.11.47-.15a5.26,5.26,0,0,1,1.51-.22l.47,0,.43.05a3.51,3.51,0,0,1,2.18,1.15,3.23,3.23,0,0,1,.75,2.18,4.51,4.51,0,0,1-.05.72.58.58,0,0,1-.25.41.61.61,0,0,1-.47.1.57.57,0,0,1-.4-.26.56.56,0,0,1-.12-.46,1.15,1.15,0,0,0,0-.26v-.25a2,2,0,0,0-.45-1.37,2.27,2.27,0,0,0-1.42-.72,5,5,0,0,0-.7-.05,4.18,4.18,0,0,0-1.17.16,5.57,5.57,0,0,0-.7.27,4.36,4.36,0,0,0-1.58,1.46,6.7,6.7,0,0,0-1,2.63v0c-.05.26-.08.54-.11.84a6.23,6.23,0,0,0,.09,1.51,5,5,0,0,0,.45,1.3,3.29,3.29,0,0,0,.76.89,2.19,2.19,0,0,0,1,.48l.17,0,.19,0h.74l.35-.06.35-.08a4.42,4.42,0,0,0,1.52-.7,3.35,3.35,0,0,0,.95-1,.58.58,0,0,1,.37-.28.62.62,0,0,1,.48.05.68.68,0,0,1,.3.39.53.53,0,0,1-.07.47,3.82,3.82,0,0,1-.51.69,5.81,5.81,0,0,1-.73.65,6.78,6.78,0,0,1-.92.55,5.57,5.57,0,0,1-1.06.38l-.35.07a1.61,1.61,0,0,0-.33.06,1.19,1.19,0,0,1,.21.42,1.51,1.51,0,0,1,0,.48,2.23,2.23,0,0,1-.35.86,4,4,0,0,1-.56.7,6,6,0,0,1-.66.6.6.6,0,0,1-.46.1.64.64,0,0,1-.52-.72.62.62,0,0,1,.24-.41,3.84,3.84,0,0,0,.5-.42,2.72,2.72,0,0,0,.4-.51.86.86,0,0,0,.15-.31Z"/><path class="cls-1" d="M270.47,217.94a.54.54,0,0,1,.68-.05,5.22,5.22,0,0,1,.27-.87,3.2,3.2,0,0,1,.62-1,3.46,3.46,0,0,1,1.13-.77,4.95,4.95,0,0,1,2.52-.26,3.38,3.38,0,0,1,1.61.69,4.05,4.05,0,0,1,1,1.29,5.56,5.56,0,0,1,.53,1.5,9.09,9.09,0,0,1,.16,1.63,6.91,6.91,0,0,1,0,.8q0,.39-.09.75a7.37,7.37,0,0,1-1.06,2.92,4.61,4.61,0,0,1-2.07,1.74,4.72,4.72,0,0,1-1.08.32,5.83,5.83,0,0,1-1.22.11h-.29l-.29,0a3.88,3.88,0,0,1-1.65-.55,4.48,4.48,0,0,1-1.14-1.07,4.7,4.7,0,0,1-.64-1.36,5.33,5.33,0,0,1-.21-1.47,3.52,3.52,0,0,1,.06-.63,14.94,14.94,0,0,1,.33-1.89,6.86,6.86,0,0,1,.39-1.13A2.29,2.29,0,0,1,270.47,217.94Zm.83,1s0,0,0,0a1.41,1.41,0,0,0-.25.47q-.11.32-.24.87c-.08.38-.16.9-.23,1.54a2.28,2.28,0,0,0,0,.26v.23a4.11,4.11,0,0,0,.15,1.1,3.29,3.29,0,0,0,.46,1,3.14,3.14,0,0,0,.78.71,2.86,2.86,0,0,0,1.11.38.65.65,0,0,0,.2,0h.24l.51,0,.48-.07a1.89,1.89,0,0,0,.41-.1l.4-.15a3.45,3.45,0,0,0,1.56-1.35,6.2,6.2,0,0,0,.83-2.34c0-.2.05-.42.07-.65a5.37,5.37,0,0,0,0-.7,6.62,6.62,0,0,0-.13-1.34,4.5,4.5,0,0,0-.41-1.22,2.69,2.69,0,0,0-.68-.85,2.2,2.2,0,0,0-1.05-.46l-.26,0H275a2.67,2.67,0,0,0-1.49.35,2.31,2.31,0,0,0-.77.75,3,3,0,0,0-.33,1.12.59.59,0,0,1-.19.44.57.57,0,0,1-.44.17A.56.56,0,0,1,271.3,218.9Zm2.3-6a.64.64,0,0,1-.27.39.56.56,0,0,1-.47.09.55.55,0,0,1-.39-.27.56.56,0,0,1-.09-.47,3.13,3.13,0,0,1,.45-1,2.4,2.4,0,0,1,.71-.71,2,2,0,0,1,1.18-.32,1.89,1.89,0,0,1,.73.12,1.57,1.57,0,0,1,.49.3,1.52,1.52,0,0,1,.32.4c.07.15.14.31.2.46l.15.29a1.35,1.35,0,0,0,.62-.2,4.88,4.88,0,0,0,.65-.43,9.51,9.51,0,0,0,.74-.61.64.64,0,0,1,.45-.18.53.53,0,0,1,.43.2.55.55,0,0,1,.19.45.59.59,0,0,1-.2.45,9.78,9.78,0,0,1-1,.79,8.43,8.43,0,0,1-.93.55,2.19,2.19,0,0,1-1,.24,1.31,1.31,0,0,1-.52-.09,1.41,1.41,0,0,1-.35-.23,1.36,1.36,0,0,1-.23-.34l-.18-.38a1.55,1.55,0,0,0-.21-.36.46.46,0,0,0-.4-.17.89.89,0,0,0-.56.17,1.06,1.06,0,0,0-.34.36A1.65,1.65,0,0,0,273.6,212.89Z"/><path class="cls-1" d="M283.63,221.35a.65.65,0,0,1-.44-.22.58.58,0,0,1-.16-.45.67.67,0,0,1,.24-.44.58.58,0,0,1,.45-.15c.9.07,1.78.1,2.64.1.49,0,1,0,1.41,0A10.87,10.87,0,0,0,289,220a3.41,3.41,0,0,0,.85-.27.67.67,0,0,0,.4-.39,3.52,3.52,0,0,0,.09-.72,2.43,2.43,0,0,0-.23-1.1,2.5,2.5,0,0,0-.65-.83,2.78,2.78,0,0,0-1-.52,4.06,4.06,0,0,0-1.23-.18,3.67,3.67,0,0,0-2,.53,4.68,4.68,0,0,0-1.38,1.35,6.22,6.22,0,0,0-.8,1.82,7.7,7.7,0,0,0-.26,1.92,6.9,6.9,0,0,0,.14,1.32,4.8,4.8,0,0,0,.46,1.27,2.79,2.79,0,0,0,.83.94,2.1,2.1,0,0,0,1.27.37,5.27,5.27,0,0,0,1.64-.23,6.23,6.23,0,0,0,1.15-.52,3.63,3.63,0,0,0,.88-.74.69.69,0,0,1,.42-.24.62.62,0,0,1,.71.55.58.58,0,0,1-.14.46,6,6,0,0,1-1.15,1,7,7,0,0,1-1.45.68,6.35,6.35,0,0,1-2.06.3,3.18,3.18,0,0,1-1.77-.47,4,4,0,0,1-1.24-1.21,5.24,5.24,0,0,1-.73-1.67,7.09,7.09,0,0,1-.24-1.81,8.31,8.31,0,0,1,.36-2.36,7.37,7.37,0,0,1,1.07-2.22,5.89,5.89,0,0,1,1.79-1.65,4.71,4.71,0,0,1,2.49-.65A5.16,5.16,0,0,1,289,215a4.08,4.08,0,0,1,1.36.8,3.55,3.55,0,0,1,.88,1.24,4,4,0,0,1,.32,1.59,3.44,3.44,0,0,1,0,.46q0,.23-.06.48a1.43,1.43,0,0,1-.56.87,3.38,3.38,0,0,1-1.14.57,8.44,8.44,0,0,1-1.56.31,15.14,15.14,0,0,1-1.82.1l-1.38,0Z"/><path class="cls-1" d="M301.32,218.7a.59.59,0,0,1-.36-.81,1,1,0,0,0-.12-.67,1.28,1.28,0,0,0-.48-.47,2.36,2.36,0,0,0-.73-.28,4,4,0,0,0-.85-.09,6.22,6.22,0,0,0-1.09.1,4.19,4.19,0,0,0-1.11.33,2.8,2.8,0,0,0-.9.61,1.53,1.53,0,0,0-.44.94,1.23,1.23,0,0,0,.29.83,2.35,2.35,0,0,0,.74.52,4.79,4.79,0,0,0,1,.3c.33.08.63.13.88.17a8.27,8.27,0,0,1,1.36.35,5.7,5.7,0,0,1,1.34.64,3.43,3.43,0,0,1,1,.94,1.79,1.79,0,0,1,.29,1.27,2.61,2.61,0,0,1-.46,1.3,3.9,3.9,0,0,1-1,1,5.28,5.28,0,0,1-1.36.63,5,5,0,0,1-1.47.23,4.35,4.35,0,0,1-1.67-.31,7.28,7.28,0,0,1-1.34-.68,8.41,8.41,0,0,1-1.21-1,.57.57,0,0,1-.2-.43.55.55,0,0,1,.19-.45.61.61,0,0,1,.43-.21.63.63,0,0,1,.45.17,6.72,6.72,0,0,0,1,.83,6.54,6.54,0,0,0,1.06.56,3.26,3.26,0,0,0,1.29.25,4.1,4.1,0,0,0,1-.14,4.15,4.15,0,0,0,1-.41,2.8,2.8,0,0,0,.73-.64,1.51,1.51,0,0,0,.36-.84.8.8,0,0,0-.27-.69,3.29,3.29,0,0,0-.8-.54,7,7,0,0,0-1-.38,8.25,8.25,0,0,0-.87-.23,12.69,12.69,0,0,1-1.35-.31,5.19,5.19,0,0,1-1.34-.56,3,3,0,0,1-1-.94,2,2,0,0,1-.26-1.41,2.69,2.69,0,0,1,.59-1.39,4,4,0,0,1,1.17-.95,5.32,5.32,0,0,1,1.49-.55,7.66,7.66,0,0,1,1.55-.17,4.71,4.71,0,0,1,1.31.18,4.1,4.1,0,0,1,1.1.5,2.58,2.58,0,0,1,.78.8,2.07,2.07,0,0,1,.29,1.07,1.66,1.66,0,0,1-.15.67.56.56,0,0,1-.32.35A.59.59,0,0,1,301.32,218.7Z"/><path class="cls-1" d="M111.56,248.7a.59.59,0,0,1-.36-.81,1.08,1.08,0,0,0-.12-.67,1.3,1.3,0,0,0-.49-.47,2.3,2.3,0,0,0-.72-.28,4,4,0,0,0-.85-.09,6.13,6.13,0,0,0-1.09.1,4.19,4.19,0,0,0-1.11.33,3,3,0,0,0-.91.61,1.65,1.65,0,0,0-.44.94,1.19,1.19,0,0,0,.3.83,2.24,2.24,0,0,0,.74.52,4.69,4.69,0,0,0,.94.3c.34.08.63.13.89.17a7.93,7.93,0,0,1,1.35.35,5.59,5.59,0,0,1,1.35.64,3.71,3.71,0,0,1,1,.94,1.79,1.79,0,0,1,.28,1.27,2.6,2.6,0,0,1-.45,1.3,4.22,4.22,0,0,1-1,1,5.44,5.44,0,0,1-1.36.63,5,5,0,0,1-1.48.23,4.3,4.3,0,0,1-1.66-.31,7.28,7.28,0,0,1-1.34-.68,7.89,7.89,0,0,1-1.21-1,.58.58,0,0,1,0-.88.63.63,0,0,1,.44-.21.67.67,0,0,1,.45.17,7.25,7.25,0,0,0,1,.83,6.66,6.66,0,0,0,1.07.56,3.25,3.25,0,0,0,1.28.25,4.12,4.12,0,0,0,1-.14,3.89,3.89,0,0,0,1-.41,2.69,2.69,0,0,0,.74-.64,1.51,1.51,0,0,0,.36-.84.81.81,0,0,0-.28-.69A3.22,3.22,0,0,0,110,252a7,7,0,0,0-1-.38,8.25,8.25,0,0,0-.87-.23,12.69,12.69,0,0,1-1.35-.31,5.19,5.19,0,0,1-1.34-.56,3,3,0,0,1-1-.94,2.09,2.09,0,0,1-.26-1.41,2.7,2.7,0,0,1,.6-1.39,4,4,0,0,1,1.17-.95,5.25,5.25,0,0,1,1.48-.55,7.83,7.83,0,0,1,1.56-.17,4.59,4.59,0,0,1,1.3.18,4,4,0,0,1,1.11.5,2.7,2.7,0,0,1,.78.8,2.06,2.06,0,0,1,.28,1.07,1.65,1.65,0,0,1-.14.67.56.56,0,0,1-.32.35A.59.59,0,0,1,111.56,248.7Z"/><path class="cls-1" d="M116.42,251.35a.65.65,0,0,1-.44-.22.58.58,0,0,1-.16-.45.71.71,0,0,1,.24-.44.58.58,0,0,1,.45-.15c.9.07,1.78.1,2.64.1.5,0,1,0,1.42,0a11,11,0,0,0,1.18-.14,3.41,3.41,0,0,0,.85-.27.72.72,0,0,0,.41-.39,3.52,3.52,0,0,0,.09-.72,2.44,2.44,0,0,0-.24-1.1,2.5,2.5,0,0,0-.65-.83,2.78,2.78,0,0,0-1-.52A4.06,4.06,0,0,0,120,246a3.67,3.67,0,0,0-2,.53,4.68,4.68,0,0,0-1.38,1.35,6.22,6.22,0,0,0-.8,1.82,7.7,7.7,0,0,0-.26,1.92,6.22,6.22,0,0,0,.15,1.32,4.46,4.46,0,0,0,.45,1.27,2.79,2.79,0,0,0,.83.94,2.1,2.1,0,0,0,1.27.37,5.27,5.27,0,0,0,1.64-.23,6.23,6.23,0,0,0,1.15-.52,3.45,3.45,0,0,0,.88-.74.69.69,0,0,1,.43-.24.62.62,0,0,1,.47.13.6.6,0,0,1,.23.42.58.58,0,0,1-.14.46,6,6,0,0,1-1.15,1,7,7,0,0,1-1.45.68,6.35,6.35,0,0,1-2.06.3,3.21,3.21,0,0,1-1.77-.47,4,4,0,0,1-1.24-1.21,5.24,5.24,0,0,1-.73-1.67,7.09,7.09,0,0,1-.24-1.81,8.31,8.31,0,0,1,.36-2.36,7.37,7.37,0,0,1,1.07-2.22,5.89,5.89,0,0,1,1.79-1.65,4.71,4.71,0,0,1,2.49-.65,5.16,5.16,0,0,1,1.76.29,4.08,4.08,0,0,1,1.36.8,3.55,3.55,0,0,1,.88,1.24,4,4,0,0,1,.32,1.59,3.44,3.44,0,0,1,0,.46q0,.23-.06.48a1.43,1.43,0,0,1-.56.87,3.38,3.38,0,0,1-1.14.57,8.28,8.28,0,0,1-1.56.31,15,15,0,0,1-1.82.1l-1.37,0Z"/><path class="cls-1" d="M128,240.62a.65.65,0,0,1,.24-.43.63.63,0,0,1,1,.57L127.38,256a.65.65,0,0,1-.24.42.59.59,0,0,1-.46.12.61.61,0,0,1-.42-.24.55.55,0,0,1-.12-.46Z"/><path class="cls-1" d="M133.21,251.35a.65.65,0,0,1-.44-.22.62.62,0,0,1-.15-.45.66.66,0,0,1,.23-.44.58.58,0,0,1,.45-.15c.9.07,1.78.1,2.65.1.49,0,1,0,1.41,0a11.18,11.18,0,0,0,1.19-.14,3.46,3.46,0,0,0,.84-.27.69.69,0,0,0,.41-.39,3.52,3.52,0,0,0,.09-.72,2.44,2.44,0,0,0-.24-1.1,2.47,2.47,0,0,0-.64-.83,3,3,0,0,0-1-.52,4.08,4.08,0,0,0-1.24-.18,3.67,3.67,0,0,0-2,.53,4.76,4.76,0,0,0-1.37,1.35,6,6,0,0,0-.8,1.82,7.28,7.28,0,0,0-.27,1.92,6.22,6.22,0,0,0,.15,1.32,4.8,4.8,0,0,0,.46,1.27,2.69,2.69,0,0,0,.83.94,2.08,2.08,0,0,0,1.27.37,5.21,5.21,0,0,0,1.63-.23,6.35,6.35,0,0,0,1.16-.52,3.63,3.63,0,0,0,.88-.74.69.69,0,0,1,.42-.24.65.65,0,0,1,.48.13.62.62,0,0,1,.22.42.57.57,0,0,1-.13.46,6.08,6.08,0,0,1-1.16,1,6.94,6.94,0,0,1-1.44.68,6.39,6.39,0,0,1-2.06.3,3.22,3.22,0,0,1-1.78-.47,4,4,0,0,1-1.24-1.21,5.47,5.47,0,0,1-.73-1.67,7.08,7.08,0,0,1-.23-1.81,8.31,8.31,0,0,1,.36-2.36,7.14,7.14,0,0,1,1.07-2.22,5.85,5.85,0,0,1,1.78-1.65,4.74,4.74,0,0,1,2.49-.65,5.21,5.21,0,0,1,1.77.29,4.18,4.18,0,0,1,1.36.8,3.68,3.68,0,0,1,.88,1.24,4,4,0,0,1,.31,1.59c0,.16,0,.31,0,.46s0,.31-.07.48a1.41,1.41,0,0,1-.55.87,3.54,3.54,0,0,1-1.15.57,8.33,8.33,0,0,1-1.55.31,15.25,15.25,0,0,1-1.82.1l-1.38,0Z"/><path class="cls-1" d="M152.49,248.77a.58.58,0,0,1-.25.41.64.64,0,0,1-.88-.16.59.59,0,0,1-.11-.46,1.15,1.15,0,0,0,0-.26v-.25a2.19,2.19,0,0,0-.19-1,2,2,0,0,0-.55-.67,2.47,2.47,0,0,0-.82-.38,3.68,3.68,0,0,0-1-.13,4.1,4.1,0,0,0-1.8.4,4.33,4.33,0,0,0-1.39,1.13,5.64,5.64,0,0,0-.91,1.7,8,8,0,0,0-.42,2.15,5.8,5.8,0,0,0,.07,1.44,4.5,4.5,0,0,0,.45,1.31,3.14,3.14,0,0,0,.86,1,2.59,2.59,0,0,0,1.3.49,3.78,3.78,0,0,0,1.15-.09,5,5,0,0,0,2.09-1,2.75,2.75,0,0,0,.67-.75.58.58,0,0,1,.37-.28.62.62,0,0,1,.48.05.68.68,0,0,1,.3.39.53.53,0,0,1-.07.47,3.83,3.83,0,0,1-.86,1,6,6,0,0,1-1.26.8,7.12,7.12,0,0,1-1.45.51,5.58,5.58,0,0,1-1.51.13,3.9,3.9,0,0,1-1.8-.62,4.21,4.21,0,0,1-1.23-1.29,5.12,5.12,0,0,1-.68-1.72,6.55,6.55,0,0,1-.14-1.93,9.59,9.59,0,0,1,.53-2.65,6.59,6.59,0,0,1,1.2-2.07,5.23,5.23,0,0,1,1.78-1.36,5.17,5.17,0,0,1,2.27-.49,4.54,4.54,0,0,1,1.5.23,3.49,3.49,0,0,1,1.22.65,3.22,3.22,0,0,1,.82,1.07,3.54,3.54,0,0,1,.29,1.45A6.09,6.09,0,0,1,152.49,248.77Z"/><path class="cls-1" d="M155.46,245.91a.63.63,0,0,1,.23-.42.57.57,0,0,1,.47-.14.69.69,0,0,1,.42.24.58.58,0,0,1,.14.46L155.6,256a.63.63,0,0,1-.23.42.54.54,0,0,1-.45.14.63.63,0,0,1-.42-.23.58.58,0,0,1-.14-.47Zm.47-4.81a.61.61,0,0,1,.24-.41.6.6,0,0,1,.46-.13.69.69,0,0,1,.43.24.56.56,0,0,1,.13.45l-.09.63a.69.69,0,0,1-.24.43.59.59,0,0,1-.46.13.66.66,0,0,1-.42-.25.55.55,0,0,1-.12-.46Z"/><path class="cls-1" d="M160.91,247.89a5.22,5.22,0,0,1,.27-.87,3.41,3.41,0,0,1,.62-1,3.57,3.57,0,0,1,1.13-.77,4.36,4.36,0,0,1,1.78-.32,3.65,3.65,0,0,1,1.87.46,3.89,3.89,0,0,1,1.26,1.19,5.05,5.05,0,0,1,.71,1.66,7.83,7.83,0,0,1,.23,1.86,9.17,9.17,0,0,1-.36,2.62,6.13,6.13,0,0,1-1.07,2.1,5.1,5.1,0,0,1-1.75,1.41,5.31,5.31,0,0,1-2.38.51,4.26,4.26,0,0,1-1.78-.36,3.93,3.93,0,0,1-1.32-1,4.33,4.33,0,0,1-.83-1.43,5.11,5.11,0,0,1-.28-1.71,7,7,0,0,1,.17-1.61,12.77,12.77,0,0,1,.37-1.35,7.16,7.16,0,0,1,.4-1c.13-.24.2-.36.21-.37a.44.44,0,0,1,.36-.2A.68.68,0,0,1,160.91,247.89Zm.15,1s-.08,0-.16.2a3.08,3.08,0,0,0-.27.69,8.89,8.89,0,0,0-.24,1.1,8.59,8.59,0,0,0-.11,1.41,4.16,4.16,0,0,0,.19,1.23,3.11,3.11,0,0,0,.56,1,2.68,2.68,0,0,0,.92.7,3,3,0,0,0,1.27.26,4.18,4.18,0,0,0,1.89-.41,3.89,3.89,0,0,0,1.34-1.14,5.14,5.14,0,0,0,.8-1.7,8,8,0,0,0,.27-2.13,7.18,7.18,0,0,0-.14-1.38,4.29,4.29,0,0,0-.45-1.26,2.71,2.71,0,0,0-.87-.91,2.38,2.38,0,0,0-1.35-.36,2.69,2.69,0,0,0-1.49.35,2.31,2.31,0,0,0-.77.75,3,3,0,0,0-.33,1.12.65.65,0,0,1-.19.46.53.53,0,0,1-.44.19A.5.5,0,0,1,161.06,248.9Z"/><path class="cls-1" d="M171.78,245.66a.66.66,0,0,1,.24-.43.6.6,0,0,1,.47-.13.63.63,0,0,1,.41.23.58.58,0,0,1,.13.45c-.1.86-.2,1.7-.29,2.54s-.19,1.69-.29,2.54c.32-.71.68-1.4,1.07-2.09a12.17,12.17,0,0,1,1.27-1.84,6.87,6.87,0,0,1,1.45-1.33,2.93,2.93,0,0,1,1.61-.5,2.08,2.08,0,0,1,1.34.42,2.83,2.83,0,0,1,.84,1.14,6.15,6.15,0,0,1,.43,1.63,14.5,14.5,0,0,1,.13,1.89c0,.72,0,1.43-.11,2.15s-.15,1.35-.25,1.92-.21,1.21-.36,1.92a.66.66,0,0,1-.27.4.65.65,0,0,1-.47.09.74.74,0,0,1-.4-.29.65.65,0,0,1-.09-.47c.17-.77.3-1.45.4-2s.18-1.25.26-2a18.7,18.7,0,0,0,.12-2.09,11.19,11.19,0,0,0-.08-1.33,4.16,4.16,0,0,0-.25-1.09,1.87,1.87,0,0,0-.48-.75,1.12,1.12,0,0,0-.76-.27,2.09,2.09,0,0,0-1.21.42,5.68,5.68,0,0,0-1.13,1.12,11.82,11.82,0,0,0-1,1.57c-.31.59-.61,1.19-.89,1.8s-.52,1.22-.74,1.8-.39,1.12-.54,1.58-.31,1-.48,1.56a.42.42,0,0,1-.21.27,1,1,0,0,1-.35.07.8.8,0,0,1-.49-.16.4.4,0,0,1-.19-.42Z"/><path class="cls-1" d="M190.41,245.68a2.51,2.51,0,0,1,1,1.24c0-.15,0-.27.06-.38s0-.2.06-.29a.74.74,0,0,0,0-.23.45.45,0,0,1,.2-.3.75.75,0,0,1,.36-.1.89.89,0,0,1,.5.15.41.41,0,0,1,.2.43l0,0v0L191.51,256a.61.61,0,0,1-.24.42.59.59,0,0,1-.46.12.57.57,0,0,1-.41-.24.6.6,0,0,1-.13-.46l.36-2.81a11.3,11.3,0,0,1-.84,1.44,7.08,7.08,0,0,1-1,1.21,4.46,4.46,0,0,1-1.17.83,3.47,3.47,0,0,1-1.35.36H186a1.35,1.35,0,0,1-.29,0,3.8,3.8,0,0,1-1.22-.36,3.14,3.14,0,0,1-1-.86,4.58,4.58,0,0,1-.71-1.34,6.27,6.27,0,0,1-.32-1.87c0-.26,0-.54,0-.83s0-.59.08-.91a6.3,6.3,0,0,1,.4-1.7,7.2,7.2,0,0,1,.78-1.45,5.36,5.36,0,0,1,1.05-1.17,6,6,0,0,1,1.24-.83,5,5,0,0,1,2.2-.54h.25a3.66,3.66,0,0,1,1.08.23A3.47,3.47,0,0,1,190.41,245.68Zm.65,2.52a.84.84,0,0,1-.29.05.71.71,0,0,1-.43-.23.56.56,0,0,1-.16-.45v0a.82.82,0,0,0-.13-.46,1.69,1.69,0,0,0-.37-.39,2.54,2.54,0,0,0-1.37-.48h-.16a2.65,2.65,0,0,0-.81.11,2.7,2.7,0,0,0-.83.3,4.49,4.49,0,0,0-1,.67,5.09,5.09,0,0,0-.85.94,5.9,5.9,0,0,0-.61,1.17,6,6,0,0,0-.33,1.36,14.73,14.73,0,0,0-.06,1.57,5.48,5.48,0,0,0,.25,1.47,3.53,3.53,0,0,0,.51,1,2,2,0,0,0,.65.55,2,2,0,0,0,.75.23l.18,0h.22a2.52,2.52,0,0,0,1.21-.4,4.34,4.34,0,0,0,1-1,7.37,7.37,0,0,0,.87-1.34,15.9,15.9,0,0,0,.73-1.56q.31-.81.57-1.62C190.8,249.17,190.94,248.66,191.06,248.2Zm-3.6-5.28a.56.56,0,0,1-.47-.06.65.65,0,0,1-.3-.39.56.56,0,0,1,.06-.47.62.62,0,0,1,.39-.28,9.66,9.66,0,0,0,1.74-.65c.52-.27,1-.52,1.35-.76a10.87,10.87,0,0,0,1.21-.9.62.62,0,0,1,.46-.17.63.63,0,0,1,.44.21.59.59,0,0,1,.16.46.63.63,0,0,1-.21.44,14.82,14.82,0,0,1-1.35,1,16.45,16.45,0,0,1-1.51.84A10.6,10.6,0,0,1,187.46,242.92Z"/><path class="cls-1" d="M195,245.69a.55.55,0,0,1,.46-.14.59.59,0,0,1,.43.22.51.51,0,0,1,.14.45c0,.55-.06,1-.08,1.48s0,.93,0,1.49,0,1.11,0,1.69,0,1.06,0,1.56a12.28,12.28,0,0,0,.11,1.35,4.35,4.35,0,0,0,.21,1c.09.24.2.36.34.36s.37-.15.6-.43a9.4,9.4,0,0,0,.75-1.14c.26-.47.53-1,.82-1.6s.55-1.21.81-1.84.52-1.23.76-1.83l.63-1.6c.18-.47.37-1,.58-1.57a.57.57,0,0,1,.32-.36.64.64,0,0,1,.49,0,.62.62,0,0,1,.37.81c-.24.63-.45,1.2-.65,1.71s-.44,1.1-.71,1.75-.57,1.31-.89,2-.64,1.35-1,2a19.09,19.09,0,0,1-1,1.74,7.54,7.54,0,0,1-1,1.23,1.34,1.34,0,0,1-.92.47,1.06,1.06,0,0,1-.93-.66,5.94,5.94,0,0,1-.56-1.7,17.8,17.8,0,0,1-.27-2.25c0-.81-.07-1.6-.07-2.35,0-.46,0-.89,0-1.29s0-.75,0-1,0-.63,0-1A.76.76,0,0,1,195,245.69Z"/><path class="cls-1" d="M206.4,251.35a.65.65,0,0,1-.44-.22.58.58,0,0,1-.16-.45.71.71,0,0,1,.24-.44.58.58,0,0,1,.45-.15c.9.07,1.78.1,2.64.1.5,0,1,0,1.42,0a11.5,11.5,0,0,0,1.19-.14,3.46,3.46,0,0,0,.84-.27.72.72,0,0,0,.41-.39,3.52,3.52,0,0,0,.09-.72,2.44,2.44,0,0,0-.24-1.1,2.38,2.38,0,0,0-.65-.83,2.78,2.78,0,0,0-1-.52A4,4,0,0,0,210,246a3.67,3.67,0,0,0-2,.53,4.68,4.68,0,0,0-1.38,1.35,6.22,6.22,0,0,0-.8,1.82,7.7,7.7,0,0,0-.26,1.92,6.22,6.22,0,0,0,.15,1.32,4.47,4.47,0,0,0,.46,1.27,2.77,2.77,0,0,0,.82.94,2.12,2.12,0,0,0,1.27.37,5.27,5.27,0,0,0,1.64-.23,5.94,5.94,0,0,0,1.15-.52,3.45,3.45,0,0,0,.88-.74.69.69,0,0,1,.43-.24.62.62,0,0,1,.47.13.6.6,0,0,1,.23.42.58.58,0,0,1-.14.46,5.75,5.75,0,0,1-1.15,1,6.8,6.8,0,0,1-1.45.68,6.35,6.35,0,0,1-2.06.3,3.21,3.21,0,0,1-1.77-.47,4,4,0,0,1-1.24-1.21,5.24,5.24,0,0,1-.73-1.67,7.09,7.09,0,0,1-.24-1.81,8.31,8.31,0,0,1,.36-2.36,7.16,7.16,0,0,1,1.08-2.22,5.74,5.74,0,0,1,1.78-1.65,4.71,4.71,0,0,1,2.49-.65,5.11,5.11,0,0,1,1.76.29,4,4,0,0,1,1.36.8,3.58,3.58,0,0,1,.89,1.24,4,4,0,0,1,.31,1.59,3.44,3.44,0,0,1,0,.46c0,.15,0,.31-.06.48a1.43,1.43,0,0,1-.56.87,3.38,3.38,0,0,1-1.14.57,8.28,8.28,0,0,1-1.56.31,15,15,0,0,1-1.82.1l-1.37,0Z"/><path class="cls-1" d="M217.22,245.91a.63.63,0,0,1,.23-.42.57.57,0,0,1,.47-.14.69.69,0,0,1,.42.24.62.62,0,0,1,.14.46L217.36,256a.63.63,0,0,1-.23.42.56.56,0,0,1-.45.14.68.68,0,0,1-.43-.23.57.57,0,0,1-.13-.47Zm.46-4.81a.66.66,0,0,1,.25-.41.6.6,0,0,1,.46-.13.69.69,0,0,1,.43.24.52.52,0,0,1,.12.45l-.09.63a.63.63,0,0,1-.23.43.6.6,0,0,1-.47.13.64.64,0,0,1-.41-.25.6.6,0,0,1-.13-.46Z"/><path class="cls-1" d="M228.75,248.7a.66.66,0,0,1-.36-.32.6.6,0,0,1,0-.49,1,1,0,0,0-.11-.67,1.38,1.38,0,0,0-.49-.47,2.27,2.27,0,0,0-.73-.28,3.93,3.93,0,0,0-.84-.09,6.13,6.13,0,0,0-1.09.1,4.26,4.26,0,0,0-1.12.33,3,3,0,0,0-.9.61,1.59,1.59,0,0,0-.44.94,1.19,1.19,0,0,0,.3.83,2.2,2.2,0,0,0,.73.52,4.79,4.79,0,0,0,1,.3c.34.08.63.13.88.17a8.27,8.27,0,0,1,1.36.35,5.52,5.52,0,0,1,1.34.64,3.43,3.43,0,0,1,1,.94,1.79,1.79,0,0,1,.29,1.27,2.61,2.61,0,0,1-.46,1.3,3.9,3.9,0,0,1-1,1,5.22,5.22,0,0,1-1.35.63,5.12,5.12,0,0,1-1.48.23,4.35,4.35,0,0,1-1.67-.31,7.62,7.62,0,0,1-1.34-.68,8.32,8.32,0,0,1-1.2-1,.61.61,0,0,1-.21-.43.58.58,0,0,1,.19-.45.61.61,0,0,1,.43-.21.63.63,0,0,1,.45.17,6.72,6.72,0,0,0,1,.83,7,7,0,0,0,1.06.56,3.3,3.3,0,0,0,1.29.25,4.12,4.12,0,0,0,1-.14,4.26,4.26,0,0,0,.95-.41,2.85,2.85,0,0,0,.74-.64,1.66,1.66,0,0,0,.36-.84.84.84,0,0,0-.28-.69,3.42,3.42,0,0,0-.79-.54,7,7,0,0,0-1-.38,9,9,0,0,0-.88-.23c-.4-.07-.85-.17-1.35-.31a5.19,5.19,0,0,1-1.34-.56,3.11,3.11,0,0,1-1-.94,2,2,0,0,1-.26-1.41,2.69,2.69,0,0,1,.59-1.39,4.32,4.32,0,0,1,1.17-.95,5.32,5.32,0,0,1,1.49-.55,7.68,7.68,0,0,1,1.56-.17,4.64,4.64,0,0,1,1.3.18,4.17,4.17,0,0,1,1.11.5,2.66,2.66,0,0,1,.77.8,2.07,2.07,0,0,1,.29,1.07,1.83,1.83,0,0,1-.14.67.55.55,0,0,1-.33.35A.59.59,0,0,1,228.75,248.7Z"/><path class="cls-1" d="M242.4,247.89a4.42,4.42,0,0,1,.27-.87,3.2,3.2,0,0,1,.62-1,3.52,3.52,0,0,1,1.12-.77,4.41,4.41,0,0,1,1.79-.32,3.67,3.67,0,0,1,1.87.46,4.1,4.1,0,0,1,1.26,1.19,5.27,5.27,0,0,1,.71,1.66,7.82,7.82,0,0,1,.22,1.86,9.17,9.17,0,0,1-.36,2.62,6,6,0,0,1-1.07,2.1,5,5,0,0,1-1.74,1.41,5.35,5.35,0,0,1-2.39.51,4.18,4.18,0,0,1-1.77-.36,3.93,3.93,0,0,1-1.32-1,4.33,4.33,0,0,1-.83-1.43,5.12,5.12,0,0,1-.29-1.71,7.64,7.64,0,0,1,.17-1.61,10.66,10.66,0,0,1,.38-1.35,9,9,0,0,1,.39-1c.13-.24.2-.36.21-.37a.47.47,0,0,1,.36-.2A.72.72,0,0,1,242.4,247.89Zm.14,1s-.08,0-.16.2a3.77,3.77,0,0,0-.26.69,8.89,8.89,0,0,0-.24,1.1,7.61,7.61,0,0,0-.11,1.41,3.86,3.86,0,0,0,.19,1.23,3.09,3.09,0,0,0,.55,1,2.78,2.78,0,0,0,.92.7,3,3,0,0,0,1.27.26,4.18,4.18,0,0,0,1.89-.41,3.8,3.8,0,0,0,1.34-1.14,5,5,0,0,0,.8-1.7,8,8,0,0,0,.27-2.13,7.16,7.16,0,0,0-.13-1.38,4,4,0,0,0-.46-1.26,2.68,2.68,0,0,0-.86-.91,2.38,2.38,0,0,0-1.35-.36,2.73,2.73,0,0,0-1.5.35,2.27,2.27,0,0,0-.76.75,2.85,2.85,0,0,0-.34,1.12.65.65,0,0,1-.19.46.52.52,0,0,1-.44.19A.51.51,0,0,1,242.54,248.9Z"/><path class="cls-1" d="M259.1,251c-.3.67-.63,1.34-1,2a11.38,11.38,0,0,1-1.14,1.74,6.09,6.09,0,0,1-1.3,1.25,2.41,2.41,0,0,1-1.42.47,1.83,1.83,0,0,1-1-.29,2.08,2.08,0,0,1-.68-.81,4,4,0,0,1-.36-1.2,9.62,9.62,0,0,1-.11-1.46,14.93,14.93,0,0,1,.09-1.62c.06-.55.14-1.09.22-1.62s.18-1,.29-1.49.2-.88.29-1.24.18-.74.3-1.16a.69.69,0,0,1,.32-.37.56.56,0,0,1,.47-.06.67.67,0,0,1,.38.32.52.52,0,0,1,0,.47c-.12.45-.22.85-.31,1.22s-.18.79-.29,1.27-.2,1-.28,1.5-.16,1.05-.22,1.57a12.82,12.82,0,0,0-.09,1.46,4.69,4.69,0,0,0,.23,1.59.85.85,0,0,0,.85.61,2,2,0,0,0,1.39-.71,8.48,8.48,0,0,0,1.27-1.78,19.9,19.9,0,0,0,1.09-2.32c.33-.82.62-1.6.86-2.31s.49-1.55.75-2.51a.41.41,0,0,1,.25-.28,1,1,0,0,1,.38-.08.67.67,0,0,1,.44.15.45.45,0,0,1,.16.43c-.18,1.7-.37,3.4-.55,5.08s-.37,3.38-.55,5.09a.68.68,0,0,1-.23.42.57.57,0,0,1-.47.13.68.68,0,0,1-.43-.23.6.6,0,0,1-.13-.47c.1-.79.18-1.58.26-2.37S259,251.83,259.1,251Z"/><path class="cls-1" d="M279.78,245.68a2.51,2.51,0,0,1,1,1.24c0-.15,0-.27.06-.38s0-.2.06-.29a.74.74,0,0,0,0-.23.42.42,0,0,1,.2-.3.75.75,0,0,1,.36-.1.87.87,0,0,1,.49.16.43.43,0,0,1,.19.44c-.2,1.64-.41,3.27-.63,4.87s-.42,3.24-.63,4.88a.61.61,0,0,1-.24.42.59.59,0,0,1-.46.12.57.57,0,0,1-.41-.24.6.6,0,0,1-.13-.46L280,253a11.3,11.3,0,0,1-.84,1.44,7.08,7.08,0,0,1-1,1.21,4.63,4.63,0,0,1-1.17.83,3.47,3.47,0,0,1-1.35.36,3.76,3.76,0,0,1-1.63-.34,3.38,3.38,0,0,1-1.19-.92,4.1,4.1,0,0,1-.75-1.42,7,7,0,0,1-.3-1.79,8.75,8.75,0,0,1,.32-2.68,7.69,7.69,0,0,1,1.1-2.39,5.83,5.83,0,0,1,1.82-1.71,4.89,4.89,0,0,1,2.51-.65,3.78,3.78,0,0,1,1.21.19A3.29,3.29,0,0,1,279.78,245.68Zm.65,2.52a.84.84,0,0,1-.29.05.71.71,0,0,1-.43-.23.56.56,0,0,1-.16-.45,1,1,0,0,0-.21-.62,1.91,1.91,0,0,0-.51-.42,2.37,2.37,0,0,0-.66-.25,2.56,2.56,0,0,0-.65-.08,3.52,3.52,0,0,0-2,.56,4.68,4.68,0,0,0-1.43,1.44,6.1,6.1,0,0,0-.83,2,7.92,7.92,0,0,0-.23,2.15,7,7,0,0,0,.19,1.29,3.14,3.14,0,0,0,.46,1,2.13,2.13,0,0,0,.78.68,2.33,2.33,0,0,0,1.13.26,2.56,2.56,0,0,0,1.21-.4,4.34,4.34,0,0,0,1-1,7.37,7.37,0,0,0,.87-1.34,13.83,13.83,0,0,0,.72-1.56c.22-.54.41-1.08.58-1.62S280.31,248.66,280.43,248.2Z"/><path class="cls-1" d="M292.69,246.9c.12-1.08.24-2.15.36-3.2l.36-3.21a.4.4,0,0,1,.21-.34.79.79,0,0,1,.38-.09.85.85,0,0,1,.47.13.4.4,0,0,1,.2.39c0,.73-.08,1.4-.14,2s-.12,1.3-.22,2.1-.22,1.63-.38,2.49l-1,9a.63.63,0,0,1-.23.42.54.54,0,0,1-.45.14.65.65,0,0,1-.42-.24.57.57,0,0,1-.14-.46l.24-2.11a7.21,7.21,0,0,1-1.55,2,2.86,2.86,0,0,1-2,.77,4.61,4.61,0,0,1-1.82-.34,3.75,3.75,0,0,1-1.37-1,4.28,4.28,0,0,1-.88-1.48A5.76,5.76,0,0,1,284,252a8.73,8.73,0,0,1,1.47-4.81,6.31,6.31,0,0,1,1.67-1.67,3.72,3.72,0,0,1,2.11-.65,3.92,3.92,0,0,1,2.15.54A3.55,3.55,0,0,1,292.69,246.9Zm-.23,1.62a.7.7,0,0,1-.44-.12.61.61,0,0,1-.25-.37,2.33,2.33,0,0,0-.83-1.37,2.88,2.88,0,0,0-3.33.06,5.1,5.1,0,0,0-1.26,1.42,8.32,8.32,0,0,0-.82,1.9,7.48,7.48,0,0,0-.29,2,3.64,3.64,0,0,0,.8,2.48,2.87,2.87,0,0,0,2.33.94,2,2,0,0,0,1.43-.57,5.42,5.42,0,0,0,1.14-1.55,12.49,12.49,0,0,0,.88-2.23C292.06,250.27,292.28,249.41,292.46,248.52Z"/><path class="cls-1" d="M297.6,245.91a.69.69,0,0,1,.24-.42.57.57,0,0,1,.47-.14.75.75,0,0,1,.42.24.57.57,0,0,1,.13.46L297.75,256a.65.65,0,0,1-.24.42.54.54,0,0,1-.45.14.66.66,0,0,1-.42-.23.57.57,0,0,1-.13-.47Zm.47-4.81a.7.7,0,0,1,.24-.41.61.61,0,0,1,.46-.13.71.71,0,0,1,.44.24.56.56,0,0,1,.12.45l-.09.63a.63.63,0,0,1-.23.43.6.6,0,0,1-.47.13.61.61,0,0,1-.41-.25.6.6,0,0,1-.13-.46Z"/><path class="cls-1" d="M310.72,248.77a.55.55,0,0,1-.25.41.6.6,0,0,1-.47.1.59.59,0,0,1-.4-.26.64.64,0,0,1-.12-.46.78.78,0,0,0,0-.26v-.25a2.19,2.19,0,0,0-.2-1,1.79,1.79,0,0,0-.55-.67A2.38,2.38,0,0,0,308,246a3.63,3.63,0,0,0-1-.13,4,4,0,0,0-1.79.4,4.22,4.22,0,0,0-1.39,1.13,5.66,5.66,0,0,0-.92,1.7,7.67,7.67,0,0,0-.41,2.15,5.36,5.36,0,0,0,.07,1.44A4,4,0,0,0,303,254a3.11,3.11,0,0,0,.85,1,2.62,2.62,0,0,0,1.31.49,3.8,3.8,0,0,0,1.15-.09,4.85,4.85,0,0,0,1.13-.38,4.7,4.7,0,0,0,1-.6,2.55,2.55,0,0,0,.66-.75.61.61,0,0,1,.37-.28.62.62,0,0,1,.48.05.66.66,0,0,1,.31.39.57.57,0,0,1-.08.47,3.65,3.65,0,0,1-.86,1,5.93,5.93,0,0,1-1.25.8,7.21,7.21,0,0,1-1.46.51,5.51,5.51,0,0,1-1.5.13,3.82,3.82,0,0,1-1.8-.62,4,4,0,0,1-1.23-1.29,5.35,5.35,0,0,1-.69-1.72,6.55,6.55,0,0,1-.13-1.93,9.24,9.24,0,0,1,.53-2.65,6.4,6.4,0,0,1,1.2-2.07,5.23,5.23,0,0,1,4-1.85,4.6,4.6,0,0,1,1.51.23,3.45,3.45,0,0,1,1.21.65,3.09,3.09,0,0,1,.82,1.07,3.39,3.39,0,0,1,.3,1.45A4.56,4.56,0,0,1,310.72,248.77Z"/><path class="cls-1" d="M313.69,245.91a.69.69,0,0,1,.24-.42.57.57,0,0,1,.47-.14.69.69,0,0,1,.42.24.62.62,0,0,1,.14.46L313.84,256a.63.63,0,0,1-.23.42.57.57,0,0,1-.46.14.68.68,0,0,1-.42-.23.57.57,0,0,1-.13-.47Zm.47-4.81a.66.66,0,0,1,.25-.41.57.57,0,0,1,.45-.13.69.69,0,0,1,.44.24.56.56,0,0,1,.12.45l-.09.63a.63.63,0,0,1-.23.43.6.6,0,0,1-.47.13.64.64,0,0,1-.41-.25.6.6,0,0,1-.13-.46Z"/><path class="cls-1" d="M319.15,247.89a5.22,5.22,0,0,1,.27-.87,3.2,3.2,0,0,1,.62-1,3.52,3.52,0,0,1,1.12-.77A4.41,4.41,0,0,1,323,245a3.67,3.67,0,0,1,1.87.46,4.1,4.1,0,0,1,1.26,1.19,5.27,5.27,0,0,1,.71,1.66,7.82,7.82,0,0,1,.22,1.86,9.17,9.17,0,0,1-.36,2.62,6,6,0,0,1-1.07,2.1,5,5,0,0,1-1.74,1.41,5.35,5.35,0,0,1-2.39.51,4.18,4.18,0,0,1-1.77-.36,3.93,3.93,0,0,1-1.32-1,4.33,4.33,0,0,1-.83-1.43,5.12,5.12,0,0,1-.29-1.71,7.64,7.64,0,0,1,.17-1.61,10.66,10.66,0,0,1,.38-1.35,7.16,7.16,0,0,1,.4-1,3.72,3.72,0,0,1,.2-.37.47.47,0,0,1,.36-.2A.72.72,0,0,1,319.15,247.89Zm.14,1s-.08,0-.16.2a3.77,3.77,0,0,0-.26.69,8.89,8.89,0,0,0-.24,1.1,7.61,7.61,0,0,0-.11,1.41,3.86,3.86,0,0,0,.19,1.23,2.94,2.94,0,0,0,.56,1,2.64,2.64,0,0,0,.91.7,3,3,0,0,0,1.27.26,4.18,4.18,0,0,0,1.89-.41,3.8,3.8,0,0,0,1.34-1.14,5,5,0,0,0,.8-1.7,8,8,0,0,0,.27-2.13,7.16,7.16,0,0,0-.13-1.38,4,4,0,0,0-.46-1.26,2.68,2.68,0,0,0-.86-.91,2.38,2.38,0,0,0-1.35-.36,2.73,2.73,0,0,0-1.5.35,2.27,2.27,0,0,0-.76.75,2.85,2.85,0,0,0-.34,1.12.69.69,0,0,1-.18.46.55.55,0,0,1-.45.19A.51.51,0,0,1,319.29,248.9Z"/><path class="cls-1" d="M330,245.66a.62.62,0,0,1,.7-.56.63.63,0,0,1,.42.23.58.58,0,0,1,.12.45c-.09.86-.19,1.7-.29,2.54s-.19,1.69-.28,2.54c.32-.71.68-1.4,1.07-2.09a12.17,12.17,0,0,1,1.27-1.84,6.63,6.63,0,0,1,1.45-1.33,2.91,2.91,0,0,1,1.61-.5,2.1,2.1,0,0,1,1.34.42,2.81,2.81,0,0,1,.83,1.14,6.15,6.15,0,0,1,.44,1.63,14.53,14.53,0,0,1,.12,1.89,19.35,19.35,0,0,1-.11,2.15q-.1,1.06-.24,1.92c-.09.57-.21,1.21-.37,1.92a.59.59,0,0,1-.27.4.64.64,0,0,1-.47.09.75.75,0,0,1-.39-.29.57.57,0,0,1-.09-.47q.25-1.16.39-2c.1-.6.19-1.25.27-2s.11-1.41.11-2.09a11.25,11.25,0,0,0-.07-1.33,4.61,4.61,0,0,0-.25-1.09,1.78,1.78,0,0,0-.49-.75,1.08,1.08,0,0,0-.75-.27,2.09,2.09,0,0,0-1.21.42,5.43,5.43,0,0,0-1.13,1.12,11.82,11.82,0,0,0-1,1.57c-.32.59-.62,1.19-.89,1.8s-.52,1.22-.74,1.8-.4,1.12-.55,1.58-.31,1-.48,1.56a.38.38,0,0,1-.2.27,1,1,0,0,1-.35.07.83.83,0,0,1-.5-.16.41.41,0,0,1-.19-.42Z"/><path class="cls-1" d="M348.65,245.68a2.43,2.43,0,0,1,1,1.24c0-.15,0-.27.07-.38s0-.2.06-.29a1.24,1.24,0,0,0,0-.23.44.44,0,0,1,.19-.3.75.75,0,0,1,.36-.1.9.9,0,0,1,.5.16.45.45,0,0,1,.19.44c-.21,1.64-.42,3.27-.63,4.87s-.43,3.24-.63,4.88a.69.69,0,0,1-.24.42.6.6,0,0,1-.46.12.61.61,0,0,1-.42-.24.55.55,0,0,1-.12-.46l.36-2.81a12.63,12.63,0,0,1-.84,1.44,7.58,7.58,0,0,1-1,1.21,4.63,4.63,0,0,1-1.17.83,3.47,3.47,0,0,1-1.35.36,3.84,3.84,0,0,1-1.64-.34,3.47,3.47,0,0,1-1.19-.92,4.26,4.26,0,0,1-.74-1.42,6.27,6.27,0,0,1-.3-1.79,8.45,8.45,0,0,1,.32-2.68,7.9,7.9,0,0,1,1.09-2.39,6,6,0,0,1,1.83-1.71,4.85,4.85,0,0,1,2.5-.65,3.84,3.84,0,0,1,1.22.19A3.29,3.29,0,0,1,348.65,245.68Zm.65,2.52a.88.88,0,0,1-.29.05.68.68,0,0,1-.43-.23.53.53,0,0,1-.16-.45,1,1,0,0,0-.21-.62,1.91,1.91,0,0,0-.51-.42,2.64,2.64,0,0,0-.66-.25,2.59,2.59,0,0,0-.66-.08,3.57,3.57,0,0,0-2,.56A4.79,4.79,0,0,0,343,248.2a6.08,6.08,0,0,0-.82,2,7.92,7.92,0,0,0-.23,2.15,6.25,6.25,0,0,0,.19,1.29,2.94,2.94,0,0,0,.46,1,2.1,2.1,0,0,0,.77.68,2.34,2.34,0,0,0,1.14.26,2.49,2.49,0,0,0,1.2-.4,4.38,4.38,0,0,0,1-1,7.37,7.37,0,0,0,.87-1.34q.39-.75.72-1.56c.22-.54.41-1.08.58-1.62S349.18,248.66,349.3,248.2Z"/><path class="cls-1" d="M354,245.91a.63.63,0,0,1,.23-.42.58.58,0,0,1,.47-.14.69.69,0,0,1,.42.24.58.58,0,0,1,.14.46L354.1,256a.63.63,0,0,1-.23.42.54.54,0,0,1-.45.14.63.63,0,0,1-.42-.23.58.58,0,0,1-.14-.47Zm.47-4.81a.61.61,0,0,1,.24-.41.6.6,0,0,1,.46-.13.69.69,0,0,1,.43.24.56.56,0,0,1,.13.45l-.09.63a.65.65,0,0,1-.24.43.57.57,0,0,1-.46.13.66.66,0,0,1-.42-.25.55.55,0,0,1-.12-.46Z"/><path class="cls-1" d="M365.5,248.7a.59.59,0,0,1-.36-.81,1,1,0,0,0-.12-.67,1.3,1.3,0,0,0-.49-.47,2.3,2.3,0,0,0-.72-.28,4,4,0,0,0-.85-.09,6.13,6.13,0,0,0-1.09.1,4.19,4.19,0,0,0-1.11.33,2.8,2.8,0,0,0-.9.61,1.6,1.6,0,0,0-.45.94,1.19,1.19,0,0,0,.3.83,2.24,2.24,0,0,0,.74.52,4.69,4.69,0,0,0,.94.3c.34.08.63.13.89.17a8.27,8.27,0,0,1,1.36.35,5.7,5.7,0,0,1,1.34.64,3.71,3.71,0,0,1,1,.94,1.79,1.79,0,0,1,.28,1.27,2.51,2.51,0,0,1-.45,1.3,4.22,4.22,0,0,1-1,1,5.28,5.28,0,0,1-1.36.63,5,5,0,0,1-1.48.23,4.3,4.3,0,0,1-1.66-.31,7.28,7.28,0,0,1-1.34-.68,7.89,7.89,0,0,1-1.21-1,.6.6,0,0,1,0-.88.63.63,0,0,1,.44-.21.67.67,0,0,1,.45.17,7.25,7.25,0,0,0,1,.83,6.66,6.66,0,0,0,1.07.56,3.25,3.25,0,0,0,1.28.25,4.12,4.12,0,0,0,1-.14,3.89,3.89,0,0,0,1-.41,2.69,2.69,0,0,0,.74-.64,1.51,1.51,0,0,0,.36-.84.81.81,0,0,0-.28-.69,3.22,3.22,0,0,0-.79-.54,7,7,0,0,0-1-.38,8.25,8.25,0,0,0-.87-.23,12.69,12.69,0,0,1-1.35-.31,5.19,5.19,0,0,1-1.34-.56,3,3,0,0,1-1-.94,2.09,2.09,0,0,1-.26-1.41,2.7,2.7,0,0,1,.6-1.39,4,4,0,0,1,1.17-.95,5.25,5.25,0,0,1,1.48-.55,7.83,7.83,0,0,1,1.56-.17,4.71,4.71,0,0,1,1.31.18,4.1,4.1,0,0,1,1.1.5,2.7,2.7,0,0,1,.78.8,2.06,2.06,0,0,1,.28,1.07,1.65,1.65,0,0,1-.14.67.56.56,0,0,1-.32.35A.59.59,0,0,1,365.5,248.7Z"/><path class="cls-2" d="M256.64,79.78H245.09a4.87,4.87,0,0,0-4.69-3.61,1.25,1.25,0,0,0-1.24,1.24,1.21,1.21,0,0,0,.38.89,1.29,1.29,0,0,0,.89.35,2.12,2.12,0,0,1,1.77.71,2.59,2.59,0,0,1,.31,2.74,2.38,2.38,0,0,1-2.11,1.29,1.24,1.24,0,0,0,0,2.48,4.87,4.87,0,0,0,4.69-3.61h10.19a1,1,0,0,1,1,1V89.7h-48V83.27a1,1,0,0,1,1-1h14a1.24,1.24,0,0,0,0-2.48h-1.11a2.36,2.36,0,1,1,2,3.61,1.24,1.24,0,1,0,0,2.48,4.83,4.83,0,0,0,3.76-1.8,4.88,4.88,0,0,0,1-4.09,4.85,4.85,0,0,0-9.43-.2H207.94a2.14,2.14,0,0,0-2.15,2.14v44.19a2.14,2.14,0,0,0,2.15,2.14h48.7a2.14,2.14,0,0,0,2.14-2.14V81.92A2.14,2.14,0,0,0,256.64,79.78Zm-.34,12.4v32.58a1,1,0,0,1-1,1h-46a1,1,0,0,1-1-1V92.18Z"/><path class="cls-2" d="M229.58,78.65a2.37,2.37,0,0,1,0,4.74,1.24,1.24,0,0,0,0,2.48,4.85,4.85,0,0,0,0-9.7,1.24,1.24,0,0,0,0,2.48Z"/><path class="cls-2" d="M235,78.65a2.37,2.37,0,1,1,0,4.74,1.24,1.24,0,0,0,0,2.48,4.85,4.85,0,0,0,0-9.7,1.24,1.24,0,0,0,0,2.48Z"/><path class="cls-2" d="M226.72,120.14H224c-.33,0-.5-.16-.5-.46V103.74l-2-1.51a.43.43,0,0,1-.19-.34.39.39,0,0,1,.11-.31l2.24-2.9a.62.62,0,0,1,.31-.08h2.75a.44.44,0,0,1,.46.46v20.62A.41.41,0,0,1,226.72,120.14Z"/><path class="cls-2" d="M241.26,120.14h-2.63a.69.69,0,0,1-.39-.14.41.41,0,0,1-.19-.32l.54-8a6,6,0,0,1-1.37.46,6.61,6.61,0,0,1-1.49.16,6.35,6.35,0,0,1-2.61-.54,6.67,6.67,0,0,1-2.11-1.47,6.9,6.9,0,0,1-1.39-2.17,7.09,7.09,0,0,1-.5-2.67,6.73,6.73,0,0,1,.6-2.68,7.35,7.35,0,0,1,1.49-2.21,6.78,6.78,0,0,1,2.16-1.49,6.64,6.64,0,0,1,2.67-.54,5.85,5.85,0,0,1,1.8.27,7.71,7.71,0,0,1,1.6.74l0-.47a.45.45,0,0,1,.14-.33.44.44,0,0,1,.33-.13h2.74a.44.44,0,0,1,.33.13.45.45,0,0,1,.14.33l-1.4,20.62C241.76,120,241.6,120.14,241.26,120.14Zm-8.43-14.74a3,3,0,0,0,.23,1.16,3.21,3.21,0,0,0,.64,1,3.06,3.06,0,0,0,1,.68,2.69,2.69,0,0,0,1.16.25,2.84,2.84,0,0,0,1.18-.25,3.41,3.41,0,0,0,1-.68,3,3,0,0,0,.7-1,2.66,2.66,0,0,0,.25-1.16,2.86,2.86,0,0,0-.87-2.24,3,3,0,0,0-4.29,0A3.15,3.15,0,0,0,232.83,105.4Z"/><path class="cls-3" d="M326.78,79.78H315.23a4.87,4.87,0,0,0-4.69-3.61,1.24,1.24,0,0,0-.86,2.13,1.29,1.29,0,0,0,.89.35,2.12,2.12,0,0,1,1.77.71,2.59,2.59,0,0,1,.31,2.74,2.38,2.38,0,0,1-2.11,1.29,1.24,1.24,0,0,0,0,2.48,4.87,4.87,0,0,0,4.69-3.61h10.19a1,1,0,0,1,1,1V89.7h-48V83.27a1,1,0,0,1,1-1h14a1.24,1.24,0,1,0,0-2.48H292.3a2.36,2.36,0,1,1,2,3.61,1.24,1.24,0,0,0,0,2.48,4.81,4.81,0,0,0,3.76-1.8,4.88,4.88,0,0,0,1-4.09,4.85,4.85,0,0,0-9.43-.2H278.08a2.15,2.15,0,0,0-2.15,2.14v44.19a2.15,2.15,0,0,0,2.15,2.14h48.7a2.14,2.14,0,0,0,2.14-2.14V81.92A2.14,2.14,0,0,0,326.78,79.78Zm-.34,12.4v32.58a1,1,0,0,1-1,1h-46a1,1,0,0,1-1-1V92.18Z"/><path class="cls-3" d="M299.72,78.65a2.37,2.37,0,0,1,0,4.74,1.24,1.24,0,0,0,0,2.48,4.85,4.85,0,0,0,0-9.7,1.24,1.24,0,0,0,0,2.48Z"/><path class="cls-3" d="M305.13,78.65a2.37,2.37,0,1,1,0,4.74,1.24,1.24,0,0,0,0,2.48,4.85,4.85,0,1,0,0-9.7,1.24,1.24,0,0,0,0,2.48Z"/><path class="cls-3" d="M286.84,117.39a4.73,4.73,0,0,1,.77-2.63,10.65,10.65,0,0,1,1.95-2.22,24.13,24.13,0,0,1,2.56-1.93q1.36-.92,2.55-1.8a11.15,11.15,0,0,0,1.95-1.82,3.07,3.07,0,0,0,.78-2,2.64,2.64,0,0,0-.87-2,3.47,3.47,0,0,0-2.46-.81,4.76,4.76,0,0,0-1.37.17,4,4,0,0,0-1.09.5,6,6,0,0,0-.92.78c-.3.29-.6.62-.91,1l0,0a.51.51,0,0,1-.74,0l-2-1.89a.52.52,0,0,1,0-.7,12.94,12.94,0,0,1,3-2.59,8.63,8.63,0,0,1,9.09.71,6,6,0,0,1,1.95,4.82,5.9,5.9,0,0,1-.64,2.78,9.47,9.47,0,0,1-1.62,2.25,15,15,0,0,1-2.19,1.83l-2.32,1.61c-.75.51-1.42,1-2,1.49a4.49,4.49,0,0,0-1.28,1.53h9.59a.44.44,0,0,1,.33.13.45.45,0,0,1,.14.33v2.75a.45.45,0,0,1-.14.32.45.45,0,0,1-.33.14H287.3a.41.41,0,0,1-.46-.46Z"/><path class="cls-3" d="M302.62,109.31a14.91,14.91,0,0,1,.58-4.23,10.64,10.64,0,0,1,1.66-3.45,8.31,8.31,0,0,1,2.61-2.3,7,7,0,0,1,3.42-.85,7.07,7.07,0,0,1,3.44.85,8.34,8.34,0,0,1,2.65,2.3,10.72,10.72,0,0,1,1.71,3.45,15.53,15.53,0,0,1,0,8.48A10.92,10.92,0,0,1,317,117a8.16,8.16,0,0,1-2.65,2.32,7.07,7.07,0,0,1-3.44.85,7,7,0,0,1-3.42-.85,8.13,8.13,0,0,1-2.61-2.32,10.84,10.84,0,0,1-1.66-3.45A14.85,14.85,0,0,1,302.62,109.31Zm3.71,0a12.77,12.77,0,0,0,.29,2.76,7.14,7.14,0,0,0,.87,2.25,4.54,4.54,0,0,0,1.43,1.49,3.59,3.59,0,0,0,2,.54,3.69,3.69,0,0,0,2-.54,4.65,4.65,0,0,0,1.47-1.49,7.17,7.17,0,0,0,.91-2.25,11.61,11.61,0,0,0,.31-2.76,11.76,11.76,0,0,0-.31-2.77,7.54,7.54,0,0,0-.91-2.26,4.9,4.9,0,0,0-1.47-1.53,3.62,3.62,0,0,0-2-.56,3.52,3.52,0,0,0-2,.56,4.79,4.79,0,0,0-1.43,1.53,7.5,7.5,0,0,0-.87,2.26A12.93,12.93,0,0,0,306.33,109.35Z"/><path class="cls-3" d="M190,79.78H178.43a4.85,4.85,0,0,0-4.68-3.61,1.24,1.24,0,0,0-.87,2.13,1.3,1.3,0,0,0,.9.35,2.1,2.1,0,0,1,1.76.71,2.57,2.57,0,0,1,.31,2.74,2.36,2.36,0,0,1-2.1,1.29,1.24,1.24,0,1,0,0,2.48,4.85,4.85,0,0,0,4.68-3.61h10.2a1,1,0,0,1,1,1V89.7h-48V83.27a1,1,0,0,1,1-1h14a1.24,1.24,0,0,0,0-2.48h-1.1A2.35,2.35,0,0,1,158,78.7a2.39,2.39,0,0,1,1.85,1.87,2.38,2.38,0,0,1-2.33,2.82,1.24,1.24,0,0,0,0,2.48,4.85,4.85,0,1,0-4.68-6.09H141.28a2.14,2.14,0,0,0-2.14,2.14v44.19a2.14,2.14,0,0,0,2.14,2.14H190a2.14,2.14,0,0,0,2.14-2.14V81.92A2.14,2.14,0,0,0,190,79.78Zm-.34,12.4v32.58a1,1,0,0,1-1,1h-46a1,1,0,0,1-1-1V92.18Z"/><path class="cls-3" d="M162.93,78.65a2.37,2.37,0,0,1,0,4.74,1.24,1.24,0,1,0,0,2.48,4.85,4.85,0,0,0,0-9.7,1.24,1.24,0,1,0,0,2.48Z"/><path class="cls-3" d="M168.34,78.65a2.37,2.37,0,0,1,0,4.74,1.24,1.24,0,1,0,0,2.48,4.85,4.85,0,0,0,0-9.7,1.24,1.24,0,1,0,0,2.48Z"/><path class="cls-3" d="M160.08,120.14h-2.75c-.33,0-.5-.16-.5-.46V103.74l-2-1.51a.44.44,0,0,1-.2-.34.4.4,0,0,1,.12-.31l2.24-2.9a.62.62,0,0,1,.31-.08h2.75a.44.44,0,0,1,.46.46v20.62A.41.41,0,0,1,160.08,120.14Z"/><path class="cls-3" d="M170.27,98.52a8.6,8.6,0,0,1,2.87.48,8.06,8.06,0,0,1,2.41,1.34,6.52,6.52,0,0,1,1.66,2,5.27,5.27,0,0,1,.62,2.51,5.18,5.18,0,0,1-.62,2.5,6.89,6.89,0,0,1-1.62,2,7.33,7.33,0,0,1,1.62,2,5.11,5.11,0,0,1,.62,2.46,5.27,5.27,0,0,1-.62,2.51,6.84,6.84,0,0,1-1.62,2,7.53,7.53,0,0,1-2.33,1.33,7.87,7.87,0,0,1-2.76.49,8.36,8.36,0,0,1-2.87-.49,7.71,7.71,0,0,1-2.41-1.33,6.52,6.52,0,0,1-1.66-2,5.27,5.27,0,0,1-.62-2.51,5.2,5.2,0,0,1,.6-2.46,6.89,6.89,0,0,1,1.64-2,6.5,6.5,0,0,1-1.64-2,5.45,5.45,0,0,1,0-5,6.6,6.6,0,0,1,1.64-2A8,8,0,0,1,167.53,99,7.9,7.9,0,0,1,170.27,98.52Zm0,3.6a4,4,0,0,0-2.7.81,2.51,2.51,0,0,0-.92,1.93,2.43,2.43,0,0,0,.88,1.9,4.37,4.37,0,0,0,2.89.77,4.23,4.23,0,0,0,2.82-.77,2.46,2.46,0,0,0,.88-1.9,2.53,2.53,0,0,0-.9-1.91A4.23,4.23,0,0,0,170.27,102.12Zm0,9.09a4,4,0,0,0-2.76.79,2.45,2.45,0,0,0-.86,1.84,2.52,2.52,0,0,0,.9,1.93,4.34,4.34,0,0,0,2.95.81,3.94,3.94,0,0,0,2.74-.81,2.57,2.57,0,0,0,.88-1.93,2.31,2.31,0,0,0-.94-1.88A4.61,4.61,0,0,0,170.27,111.21Z"/><path class="cls-3" d="M122,79.78H110.44a4.86,4.86,0,0,0-4.68-3.61,1.24,1.24,0,0,0-.87,2.13,1.29,1.29,0,0,0,.89.35,2.12,2.12,0,0,1,1.77.71,2.57,2.57,0,0,1,.31,2.74,2.38,2.38,0,0,1-2.1,1.29,1.24,1.24,0,1,0,0,2.48,4.86,4.86,0,0,0,4.68-3.61h10.2a1,1,0,0,1,1,1V89.7h-48V83.27a1,1,0,0,1,1-1h14a1.24,1.24,0,0,0,0-2.48h-1.1A2.35,2.35,0,0,1,90,78.7a2.36,2.36,0,0,1,1.34,3.83,2.33,2.33,0,0,1-1.82.86,1.24,1.24,0,1,0,0,2.48,4.85,4.85,0,1,0-4.68-6.09H73.29a2.14,2.14,0,0,0-2.14,2.14v44.19a2.14,2.14,0,0,0,2.14,2.14H122a2.14,2.14,0,0,0,2.14-2.14V81.92A2.14,2.14,0,0,0,122,79.78Zm-.34,12.4v32.58a1,1,0,0,1-1,1h-46a1,1,0,0,1-1-1V92.18Z"/><path class="cls-3" d="M94.93,78.65a2.37,2.37,0,0,1,0,4.74,1.24,1.24,0,0,0,0,2.48,4.85,4.85,0,1,0,0-9.7,1.24,1.24,0,0,0,0,2.48Z"/><path class="cls-3" d="M100.34,78.65a2.37,2.37,0,1,1,0,4.74,1.24,1.24,0,0,0,0,2.48,4.85,4.85,0,1,0,0-9.7,1.24,1.24,0,0,0,0,2.48Z"/><path class="cls-3" d="M93.56,120.14H90.81c-.34,0-.5-.16-.5-.46V103.74l-2-1.51a.43.43,0,0,1-.19-.34.4.4,0,0,1,.12-.31l2.24-2.9a.6.6,0,0,1,.31-.08h2.75a.44.44,0,0,1,.32.13.45.45,0,0,1,.14.33v20.62A.41.41,0,0,1,93.56,120.14Z"/><path class="cls-3" d="M96,101.81V99.06a.41.41,0,0,1,.47-.46h12a.52.52,0,0,1,.32.11.45.45,0,0,1,.14.35v2.13a2.4,2.4,0,0,1-.06.48,3.08,3.08,0,0,1-.13.49l-6,17.52a1.91,1.91,0,0,1-.17.32.34.34,0,0,1-.29.14h-3a.56.56,0,0,1-.39-.14.27.27,0,0,1-.08-.32l5.81-17.41h-8.2A.41.41,0,0,1,96,101.81Z"/><path class="cls-2" d="M396.45,79.78H384.91a4.87,4.87,0,0,0-4.69-3.61,1.24,1.24,0,0,0-.87,2.13,1.31,1.31,0,0,0,.9.35,2.13,2.13,0,0,1,1.77.71,2.61,2.61,0,0,1,.31,2.74,2.38,2.38,0,0,1-2.11,1.29,1.24,1.24,0,0,0,0,2.48,4.87,4.87,0,0,0,4.69-3.61H395.1a1,1,0,0,1,1,1V89.7h-48V83.27a1,1,0,0,1,1-1h14a1.24,1.24,0,1,0,0-2.48H362a2.36,2.36,0,0,1,2.48-1.08,2.37,2.37,0,0,1-.47,4.69,1.24,1.24,0,0,0,0,2.48,4.85,4.85,0,1,0-4.69-6.09H347.75a2.14,2.14,0,0,0-2.14,2.14v44.19a2.14,2.14,0,0,0,2.14,2.14h48.7a2.14,2.14,0,0,0,2.14-2.14V81.92A2.14,2.14,0,0,0,396.45,79.78Zm-.34,12.4v32.58a1,1,0,0,1-1,1h-46a1,1,0,0,1-1-1V92.18Z"/><path class="cls-2" d="M369.4,78.65a2.37,2.37,0,0,1,0,4.74,1.24,1.24,0,0,0,0,2.48,4.85,4.85,0,0,0,0-9.7,1.24,1.24,0,0,0,0,2.48Z"/><path class="cls-2" d="M374.81,78.65a2.37,2.37,0,1,1,0,4.74,1.24,1.24,0,0,0,0,2.48,4.85,4.85,0,1,0,0-9.7,1.24,1.24,0,0,0,0,2.48Z"/><path class="cls-2" d="M360.1,117.39a4.81,4.81,0,0,1,.77-2.63,10.42,10.42,0,0,1,2-2.22,23,23,0,0,1,2.55-1.93c.91-.61,1.77-1.21,2.55-1.8a11.6,11.6,0,0,0,2-1.82,3.11,3.11,0,0,0,.77-2,2.64,2.64,0,0,0-.87-2,3.47,3.47,0,0,0-2.46-.81,4.8,4.8,0,0,0-1.37.17,3.82,3.82,0,0,0-1.08.5,5.66,5.66,0,0,0-.93.78c-.3.29-.6.62-.91,1l0,0a.5.5,0,0,1-.73,0l-2-1.89a.52.52,0,0,1,0-.7,13.14,13.14,0,0,1,3-2.59,8.63,8.63,0,0,1,9.09.71,6,6,0,0,1,1.95,4.82,5.9,5.9,0,0,1-.64,2.78,8.94,8.94,0,0,1-1.62,2.25,15,15,0,0,1-2.19,1.83l-2.32,1.61c-.74.51-1.41,1-2,1.49a4.34,4.34,0,0,0-1.27,1.53h9.59a.44.44,0,0,1,.46.46v2.75a.44.44,0,0,1-.13.32.45.45,0,0,1-.33.14H360.56a.41.41,0,0,1-.46-.46Z"/><path class="cls-2" d="M380.83,120.14h-2.75c-.33,0-.5-.16-.5-.46V103.74l-2-1.51a.43.43,0,0,1-.19-.34.39.39,0,0,1,.11-.31l2.24-2.9a.62.62,0,0,1,.31-.08h2.75a.44.44,0,0,1,.46.46v20.62A.41.41,0,0,1,380.83,120.14Z"/><rect class="cls-4" x="208.17" y="133.54" width="50.72" height="5.94" rx="2.71" ry="2.71"/><rect class="cls-2" x="208.17" y="142.72" width="50.72" height="5.94" rx="2.71" ry="2.71"/><rect class="cls-4" x="276.97" y="133.54" width="50.72" height="5.94" rx="2.71" ry="2.71"/><rect class="cls-4" x="276.97" y="142.72" width="50.72" height="5.94" rx="2.71" ry="2.71"/><rect class="cls-4" x="208.17" y="151.89" width="50.72" height="5.94" rx="2.71" ry="2.71"/><rect class="cls-2" x="208.17" y="161.06" width="50.72" height="5.94" rx="2.71" ry="2.71"/><rect class="cls-2" x="345.5" y="133.54" width="50.72" height="5.94" rx="2.71" ry="2.71"/><rect class="cls-2" x="345.5" y="142.72" width="50.72" height="5.94" rx="2.71" ry="2.71"/><rect class="cls-2" x="345.5" y="151.89" width="50.72" height="5.94" rx="2.71" ry="2.71"/><rect class="cls-2" x="345.5" y="161.06" width="50.72" height="5.94" rx="2.71" ry="2.71"/><rect class="cls-2" x="345.5" y="170.24" width="50.72" height="5.94" rx="2.71" ry="2.71"/><rect class="cls-4" x="72.18" y="133.54" width="50.72" height="5.94" rx="2.71" ry="2.71"/><rect class="cls-4" x="72.18" y="142.72" width="50.72" height="5.94" rx="2.71" ry="2.71"/><rect class="cls-4" x="72.18" y="151.89" width="50.72" height="5.94" rx="2.71" ry="2.71"/><rect class="cls-4" x="72.18" y="161.06" width="50.72" height="5.94" rx="2.71" ry="2.71"/><rect class="cls-4" x="140.17" y="151.89" width="50.72" height="5.94" rx="2.71" ry="2.71"/><rect class="cls-4" x="140.17" y="161.06" width="50.72" height="5.94" rx="2.71" ry="2.71"/><path class="cls-4" d="M452,3.49a15,15,0,0,1,15,15v244a15,15,0,0,1-15,15H18a15,15,0,0,1-15-15v-244a15,15,0,0,1,15-15H452m0-1H18a16,16,0,0,0-16,16v244a16,16,0,0,0,16,16H452a16,16,0,0,0,16-16v-244a16,16,0,0,0-16-16Z"/></svg>