<svg id="Camada_1" data-name="Camada 1" xmlns="http://www.w3.org/2000/svg" viewBox="0 0 470 280"><defs><style>.cls-1{fill:#606060;}.cls-2{fill:#295ea3;}.cls-3{fill:#fff;}.cls-4{opacity:0.75;}.cls-5{opacity:0.5;}.cls-6{fill:#459b64;}.cls-7{fill:#605f5f;}.cls-8{fill:#cacaca;}.cls-9{fill:#bf3687;}</style></defs><title>02</title><path class="cls-1" d="M285.86,211a.53.53,0,0,1-.45-.13.7.7,0,0,1-.24-.42.6.6,0,0,1,.13-.46.64.64,0,0,1,.41-.25c.75-.08,1.49-.15,2.23-.2s1.46-.08,2.18-.08c.51,0,1,0,1.59.06a12.39,12.39,0,0,1,1.62.23,9,9,0,0,1,1.5.47,4.35,4.35,0,0,1,1.24.78,3.6,3.6,0,0,1,.85,1.18,3.92,3.92,0,0,1,.31,1.63,7.23,7.23,0,0,1-.35,2.38A6,6,0,0,1,296,218a5.24,5.24,0,0,1-1.35,1.23,8,8,0,0,1-1.53.79,8.48,8.48,0,0,1-1.55.41,9,9,0,0,1-1.38.12l-.65,0-.48,0a.67.67,0,0,1-.44-.2.58.58,0,0,1-.16-.44.7.7,0,0,1,.23-.44.58.58,0,0,1,.46-.16l.39,0H290a8,8,0,0,0,1.12-.09,7.46,7.46,0,0,0,1.3-.32,6.3,6.3,0,0,0,1.29-.61,4.56,4.56,0,0,0,1.13-1,5,5,0,0,0,.8-1.42,5.67,5.67,0,0,0,.3-1.93,2.49,2.49,0,0,0-.56-1.73,3.6,3.6,0,0,0-1.43-1,7,7,0,0,0-1.88-.4c-.67-.06-1.29-.08-1.87-.08s-1.41,0-2.15.08S286.59,210.93,285.86,211Zm1.83.72a.7.7,0,0,1,.24-.42.53.53,0,0,1,.45-.13.63.63,0,0,1,.42.24.56.56,0,0,1,.13.46L287.37,226a.69.69,0,0,1-.24.42.58.58,0,0,1-.46.14.65.65,0,0,1-.43-.24.56.56,0,0,1-.13-.46Z"/><path class="cls-1" d="M300.87,219.13a12.09,12.09,0,0,1,.72-1.44,6.41,6.41,0,0,1,.87-1.19,3.92,3.92,0,0,1,1-.82,2.51,2.51,0,0,1,1.18-.29,4.38,4.38,0,0,1,1.54.23,2.37,2.37,0,0,1,.92.6,1.75,1.75,0,0,1,.43.77,2.83,2.83,0,0,1,.11.79,3.9,3.9,0,0,1-.05.67,2.68,2.68,0,0,0-.07.27.62.62,0,0,1-.31.38.6.6,0,0,1-.49,0,.56.56,0,0,1-.36-.29.62.62,0,0,1-.05-.48,1.8,1.8,0,0,0,0-.87,1.17,1.17,0,0,0-.48-.58,2.12,2.12,0,0,0-1.19-.26,1.62,1.62,0,0,0-1,.37,3.76,3.76,0,0,0-.87,1,8.22,8.22,0,0,0-.73,1.39c-.23.53-.43,1.08-.61,1.63s-.33,1.12-.46,1.67-.25,1.06-.34,1.52-.16.85-.21,1.18-.09.54-.1.65a.49.49,0,0,1-.23.38.68.68,0,0,1-.38.12.8.8,0,0,1-.47-.15.39.39,0,0,1-.18-.41c.15-1.69.3-3.37.43-5s.25-3.35.36-5a.57.57,0,0,1,.22-.44.62.62,0,0,1,.45-.15.72.72,0,0,1,.44.22.63.63,0,0,1,.15.46l-.12,1.58C301,218.08,300.92,218.6,300.87,219.13Z"/><path class="cls-1" d="M311.38,217.89a5.22,5.22,0,0,1,.27-.87,3.2,3.2,0,0,1,.62-1,3.46,3.46,0,0,1,1.13-.77,4.33,4.33,0,0,1,1.78-.32,3.67,3.67,0,0,1,1.87.46,3.89,3.89,0,0,1,1.26,1.19,5.27,5.27,0,0,1,.71,1.66,7.83,7.83,0,0,1,.23,1.86,9.17,9.17,0,0,1-.36,2.62,6.13,6.13,0,0,1-1.07,2.1,5.1,5.1,0,0,1-1.75,1.41,5.35,5.35,0,0,1-2.39.51,4.18,4.18,0,0,1-1.77-.36,3.93,3.93,0,0,1-1.32-1,4.33,4.33,0,0,1-.83-1.43,5.12,5.12,0,0,1-.29-1.71,7.64,7.64,0,0,1,.17-1.61,12.63,12.63,0,0,1,.38-1.35,7.16,7.16,0,0,1,.4-1,3.72,3.72,0,0,1,.2-.37.47.47,0,0,1,.36-.2A.72.72,0,0,1,311.38,217.89Zm.14,1s-.07,0-.16.2a3.77,3.77,0,0,0-.26.69,8.89,8.89,0,0,0-.24,1.1,8.59,8.59,0,0,0-.11,1.41,3.86,3.86,0,0,0,.19,1.23,3.11,3.11,0,0,0,.56,1,2.64,2.64,0,0,0,.91.7,3,3,0,0,0,1.27.26,4.18,4.18,0,0,0,1.89-.41,3.8,3.8,0,0,0,1.34-1.14,5,5,0,0,0,.81-1.7,8,8,0,0,0,.27-2.13,7.18,7.18,0,0,0-.14-1.38,4,4,0,0,0-.46-1.26,2.59,2.59,0,0,0-.86-.91,2.38,2.38,0,0,0-1.35-.36,2.73,2.73,0,0,0-1.5.35,2.37,2.37,0,0,0-.76.75,3,3,0,0,0-.33,1.12.7.7,0,0,1-.19.46.54.54,0,0,1-.44.19A.52.52,0,0,1,311.52,218.9Z"/><path class="cls-1" d="M329.76,216.9c.12-1.08.24-2.15.36-3.2l.36-3.21a.4.4,0,0,1,.21-.34.79.79,0,0,1,.38-.09.85.85,0,0,1,.47.13.42.42,0,0,1,.2.39c0,.73-.08,1.4-.14,2s-.13,1.3-.22,2.1-.22,1.63-.38,2.49l-1,9a.63.63,0,0,1-.23.42.54.54,0,0,1-.45.14.65.65,0,0,1-.42-.24.57.57,0,0,1-.14-.46l.23-2.11a7.19,7.19,0,0,1-1.54,2,2.86,2.86,0,0,1-2,.77,4.61,4.61,0,0,1-1.82-.34,3.75,3.75,0,0,1-1.37-1,4.28,4.28,0,0,1-.88-1.48,5.76,5.76,0,0,1-.3-1.89,8.79,8.79,0,0,1,.38-2.51,8.41,8.41,0,0,1,1.09-2.3,6.17,6.17,0,0,1,1.67-1.67,3.7,3.7,0,0,1,2.11-.65,3.94,3.94,0,0,1,2.15.54A3.55,3.55,0,0,1,329.76,216.9Zm-.24,1.62a.67.67,0,0,1-.43-.12.61.61,0,0,1-.25-.37,2.33,2.33,0,0,0-.83-1.37,2.7,2.7,0,0,0-1.71-.5,2.63,2.63,0,0,0-1.62.56,5.1,5.1,0,0,0-1.26,1.42,7.91,7.91,0,0,0-.82,1.9,7.1,7.1,0,0,0-.29,2,3.64,3.64,0,0,0,.8,2.48,2.87,2.87,0,0,0,2.33.94,2,2,0,0,0,1.43-.57,5.62,5.62,0,0,0,1.14-1.55,12.49,12.49,0,0,0,.88-2.23Q329.25,219.86,329.52,218.52Z"/><path class="cls-1" d="M340.59,221c-.3.67-.62,1.34-1,2a11.38,11.38,0,0,1-1.14,1.74,6.09,6.09,0,0,1-1.3,1.25,2.41,2.41,0,0,1-1.42.47,1.83,1.83,0,0,1-1.05-.29,2.17,2.17,0,0,1-.68-.81,4.72,4.72,0,0,1-.36-1.2,9.66,9.66,0,0,1-.1-1.46,14.93,14.93,0,0,1,.09-1.62q.09-.83.21-1.62c.09-.53.18-1,.29-1.49s.2-.88.29-1.24.18-.74.3-1.16a.69.69,0,0,1,.32-.37.58.58,0,0,1,.48-.06.69.69,0,0,1,.37.32.52.52,0,0,1,0,.47c-.12.45-.22.85-.31,1.22s-.18.79-.28,1.27-.21,1-.29,1.5-.16,1.05-.22,1.57a12.82,12.82,0,0,0-.09,1.46,4.44,4.44,0,0,0,.24,1.59.83.83,0,0,0,.84.61,2,2,0,0,0,1.4-.71,8.85,8.85,0,0,0,1.27-1.78,23.8,23.8,0,0,0,1.09-2.32c.32-.82.61-1.6.85-2.31s.49-1.55.76-2.51a.38.38,0,0,1,.24-.28,1,1,0,0,1,.39-.08.71.71,0,0,1,.44.15.46.46,0,0,1,.15.43c-.18,1.7-.36,3.4-.55,5.08s-.37,3.38-.55,5.09a.68.68,0,0,1-.23.42.56.56,0,0,1-.47.13.63.63,0,0,1-.42-.23.57.57,0,0,1-.14-.47c.1-.79.18-1.58.26-2.37S340.5,221.83,340.59,221Z"/><path class="cls-1" d="M344.9,216.5a.6.6,0,0,1-.44-.18.61.61,0,0,1,0-.89.59.59,0,0,1,.43-.19l1.55,0c.06-.28.11-.54.15-.79s.09-.52.14-.79.1-.55.15-.84.11-.62.17-1a.58.58,0,0,1,.25-.4.67.67,0,0,1,.47-.12.71.71,0,0,1,.41.27.62.62,0,0,1,.11.47c-.07.42-.16.91-.26,1.48l-.3,1.67,4.49-.11a.65.65,0,0,1,.46.18.6.6,0,0,1,.18.43.63.63,0,0,1-.18.46.56.56,0,0,1-.43.19l-4.75.11c-.25,1.4-.46,2.7-.64,3.9a22.23,22.23,0,0,0-.26,3.07,5.19,5.19,0,0,0,.14,1.4c.09.34.24.5.45.5a3.1,3.1,0,0,0,1.53-.32,3.63,3.63,0,0,0,.91-.7,3.54,3.54,0,0,0,.59-1,.52.52,0,0,1,.28-.38.56.56,0,0,1,.47-.07.68.68,0,0,1,.39.29.55.55,0,0,1,.06.47,4.07,4.07,0,0,1-.32.78,4.86,4.86,0,0,1-.49.72,3.56,3.56,0,0,1-.77.72,4.51,4.51,0,0,1-1.12.56,4.75,4.75,0,0,1-1.53.22,1.49,1.49,0,0,1-1.44-.83,5.47,5.47,0,0,1-.41-2.33,21.81,21.81,0,0,1,.25-3.07c.17-1.18.37-2.47.61-3.86Z"/><path class="cls-1" d="M356.25,217.89a5.22,5.22,0,0,1,.27-.87,3.24,3.24,0,0,1,.63-1,3.41,3.41,0,0,1,1.12-.77,4.36,4.36,0,0,1,1.78-.32,3.65,3.65,0,0,1,1.87.46,3.89,3.89,0,0,1,1.26,1.19,5.29,5.29,0,0,1,.72,1.66,8.37,8.37,0,0,1,.22,1.86,9.17,9.17,0,0,1-.36,2.62,6.13,6.13,0,0,1-1.07,2.1,5.1,5.1,0,0,1-1.75,1.41,5.31,5.31,0,0,1-2.38.51,4.26,4.26,0,0,1-1.78-.36,3.93,3.93,0,0,1-1.32-1,4.51,4.51,0,0,1-.83-1.43,5.11,5.11,0,0,1-.28-1.71,7,7,0,0,1,.17-1.61,10.66,10.66,0,0,1,.38-1.35,6.12,6.12,0,0,1,.39-1c.13-.24.2-.36.21-.37a.44.44,0,0,1,.36-.2A.68.68,0,0,1,356.25,217.89Zm.15,1s-.08,0-.16.2a3.15,3.15,0,0,0-.26.69,8.73,8.73,0,0,0-.25,1.1,8.59,8.59,0,0,0-.11,1.41,4.16,4.16,0,0,0,.19,1.23,3.11,3.11,0,0,0,.56,1,2.68,2.68,0,0,0,.92.7,3,3,0,0,0,1.27.26,4.18,4.18,0,0,0,1.89-.41,3.8,3.8,0,0,0,1.34-1.14,5.14,5.14,0,0,0,.8-1.7,8,8,0,0,0,.27-2.13,7.16,7.16,0,0,0-.13-1.38,4.3,4.3,0,0,0-.46-1.26,2.71,2.71,0,0,0-.87-.91,2.38,2.38,0,0,0-1.35-.36,2.69,2.69,0,0,0-1.49.35,2.31,2.31,0,0,0-.77.75,3,3,0,0,0-.33,1.12.65.65,0,0,1-.19.46.52.52,0,0,1-.44.19A.5.5,0,0,1,356.4,218.9Z"/><path class="cls-1" d="M373.91,218.7a.59.59,0,0,1-.36-.81,1,1,0,0,0-.11-.67,1.38,1.38,0,0,0-.49-.47,2.27,2.27,0,0,0-.73-.28,4,4,0,0,0-.85-.09,6.3,6.3,0,0,0-1.09.1,4.3,4.3,0,0,0-1.11.33,3,3,0,0,0-.9.61,1.59,1.59,0,0,0-.44.94,1.19,1.19,0,0,0,.3.83,2.2,2.2,0,0,0,.73.52,4.79,4.79,0,0,0,.95.3c.33.08.63.13.88.17a8.27,8.27,0,0,1,1.36.35,5.7,5.7,0,0,1,1.34.64,3.43,3.43,0,0,1,1,.94,1.79,1.79,0,0,1,.29,1.27,2.61,2.61,0,0,1-.46,1.3,3.9,3.9,0,0,1-1,1,5.13,5.13,0,0,1-1.36.63,5,5,0,0,1-1.47.23,4.35,4.35,0,0,1-1.67-.31,7.62,7.62,0,0,1-1.34-.68,8.32,8.32,0,0,1-1.2-1,.58.58,0,0,1,0-.88.61.61,0,0,1,.43-.21.63.63,0,0,1,.45.17,6.72,6.72,0,0,0,1,.83,7,7,0,0,0,1.06.56,3.26,3.26,0,0,0,1.29.25,4,4,0,0,0,1-.14,4.15,4.15,0,0,0,1-.41,2.85,2.85,0,0,0,.74-.64,1.66,1.66,0,0,0,.36-.84.84.84,0,0,0-.28-.69,3.42,3.42,0,0,0-.79-.54,6.66,6.66,0,0,0-1-.38,8.25,8.25,0,0,0-.87-.23,12.69,12.69,0,0,1-1.35-.31,5.19,5.19,0,0,1-1.34-.56,3,3,0,0,1-1-.94,2,2,0,0,1-.26-1.41,2.69,2.69,0,0,1,.59-1.39,4.32,4.32,0,0,1,1.17-.95,5.32,5.32,0,0,1,1.49-.55,7.66,7.66,0,0,1,1.55-.17,4.66,4.66,0,0,1,1.31.18,4.32,4.32,0,0,1,1.11.5,2.66,2.66,0,0,1,.77.8,2.07,2.07,0,0,1,.29,1.07,1.66,1.66,0,0,1-.15.67.53.53,0,0,1-.32.35A.59.59,0,0,1,373.91,218.7Z"/><path class="cls-1" d="M282,251.35a.65.65,0,0,1-.44-.22.58.58,0,0,1-.16-.45.67.67,0,0,1,.24-.44.58.58,0,0,1,.45-.15c.9.07,1.78.1,2.64.1.49,0,1,0,1.42,0a11,11,0,0,0,1.18-.14,3.41,3.41,0,0,0,.85-.27.67.67,0,0,0,.4-.39,3.52,3.52,0,0,0,.09-.72,2.43,2.43,0,0,0-.23-1.1,2.5,2.5,0,0,0-.65-.83,2.78,2.78,0,0,0-1-.52,4.06,4.06,0,0,0-1.23-.18,3.67,3.67,0,0,0-2,.53,4.68,4.68,0,0,0-1.38,1.35,6.22,6.22,0,0,0-.8,1.82,7.7,7.7,0,0,0-.26,1.92,6.9,6.9,0,0,0,.14,1.32,4.8,4.8,0,0,0,.46,1.27,2.79,2.79,0,0,0,.83.94,2.1,2.1,0,0,0,1.27.37,5.27,5.27,0,0,0,1.64-.23,6.23,6.23,0,0,0,1.15-.52,3.63,3.63,0,0,0,.88-.74.69.69,0,0,1,.43-.24.62.62,0,0,1,.47.13.63.63,0,0,1,.23.42.58.58,0,0,1-.14.46,6,6,0,0,1-1.15,1,7,7,0,0,1-1.45.68,6.35,6.35,0,0,1-2.06.3,3.21,3.21,0,0,1-1.77-.47,4,4,0,0,1-1.24-1.21,5.24,5.24,0,0,1-.73-1.67,7.09,7.09,0,0,1-.24-1.81,8.31,8.31,0,0,1,.36-2.36,7.37,7.37,0,0,1,1.07-2.22,5.89,5.89,0,0,1,1.79-1.65,4.71,4.71,0,0,1,2.49-.65,5.16,5.16,0,0,1,1.76.29,4.08,4.08,0,0,1,1.36.8,3.55,3.55,0,0,1,.88,1.24,4,4,0,0,1,.32,1.59,3.44,3.44,0,0,1,0,.46q0,.23-.06.48a1.43,1.43,0,0,1-.56.87,3.38,3.38,0,0,1-1.14.57,8.28,8.28,0,0,1-1.56.31,15.14,15.14,0,0,1-1.82.1l-1.37,0Z"/><path class="cls-1" d="M308.68,248.7a.59.59,0,0,1-.36-.81,1,1,0,0,0-.12-.67,1.28,1.28,0,0,0-.48-.47,2.36,2.36,0,0,0-.73-.28,4,4,0,0,0-.85-.09,6.22,6.22,0,0,0-1.09.1,4.19,4.19,0,0,0-1.11.33,2.8,2.8,0,0,0-.9.61,1.53,1.53,0,0,0-.44.94,1.23,1.23,0,0,0,.29.83,2.35,2.35,0,0,0,.74.52,4.79,4.79,0,0,0,.95.3c.33.08.63.13.88.17a8.27,8.27,0,0,1,1.36.35,5.7,5.7,0,0,1,1.34.64,3.43,3.43,0,0,1,1,.94,1.79,1.79,0,0,1,.29,1.27,2.61,2.61,0,0,1-.46,1.3,3.9,3.9,0,0,1-1,1,5.28,5.28,0,0,1-1.36.63,5,5,0,0,1-1.47.23,4.35,4.35,0,0,1-1.67-.31,7.28,7.28,0,0,1-1.34-.68,8.41,8.41,0,0,1-1.21-1,.57.57,0,0,1-.2-.43.55.55,0,0,1,.19-.45.61.61,0,0,1,.43-.21.63.63,0,0,1,.45.17,6.72,6.72,0,0,0,1,.83,6.54,6.54,0,0,0,1.06.56,3.26,3.26,0,0,0,1.29.25,4.1,4.1,0,0,0,1-.14,4.15,4.15,0,0,0,1-.41,2.8,2.8,0,0,0,.73-.64,1.51,1.51,0,0,0,.36-.84.8.8,0,0,0-.27-.69,3.29,3.29,0,0,0-.8-.54,6.15,6.15,0,0,0-1-.38,8.25,8.25,0,0,0-.87-.23,12.69,12.69,0,0,1-1.35-.31,5.19,5.19,0,0,1-1.34-.56,3,3,0,0,1-1-.94,2,2,0,0,1-.26-1.41,2.69,2.69,0,0,1,.59-1.39,4,4,0,0,1,1.17-.95,5.32,5.32,0,0,1,1.49-.55,7.66,7.66,0,0,1,1.55-.17,4.71,4.71,0,0,1,1.31.18,4.1,4.1,0,0,1,1.1.5,2.58,2.58,0,0,1,.78.8,2.07,2.07,0,0,1,.29,1.07,1.66,1.66,0,0,1-.15.67.56.56,0,0,1-.32.35A.59.59,0,0,1,308.68,248.7Z"/><path class="cls-1" d="M313.54,251.35a.65.65,0,0,1-.44-.22.54.54,0,0,1-.15-.45.66.66,0,0,1,.23-.44.58.58,0,0,1,.45-.15c.9.07,1.78.1,2.65.1.49,0,1,0,1.41,0a11.5,11.5,0,0,0,1.19-.14,3.46,3.46,0,0,0,.84-.27.72.72,0,0,0,.41-.39,3.52,3.52,0,0,0,.09-.72,2.44,2.44,0,0,0-.24-1.1,2.47,2.47,0,0,0-.64-.83,3,3,0,0,0-1-.52,4.08,4.08,0,0,0-1.24-.18,3.67,3.67,0,0,0-2,.53,4.64,4.64,0,0,0-1.37,1.35,6,6,0,0,0-.8,1.82,7.28,7.28,0,0,0-.27,1.92,6.22,6.22,0,0,0,.15,1.32,4.47,4.47,0,0,0,.46,1.27,2.69,2.69,0,0,0,.83.94,2.07,2.07,0,0,0,1.26.37,5.23,5.23,0,0,0,1.64-.23,5.94,5.94,0,0,0,1.15-.52,3.69,3.69,0,0,0,.89-.74.66.66,0,0,1,.42-.24.65.65,0,0,1,.48.13.62.62,0,0,1,.22.42.61.61,0,0,1-.13.46,6.08,6.08,0,0,1-1.16,1,6.94,6.94,0,0,1-1.44.68,6.41,6.41,0,0,1-2.07.3,3.21,3.21,0,0,1-1.77-.47,4,4,0,0,1-1.24-1.21,5.47,5.47,0,0,1-.73-1.67,7.08,7.08,0,0,1-.23-1.81,8.31,8.31,0,0,1,.36-2.36,7.14,7.14,0,0,1,1.07-2.22,5.74,5.74,0,0,1,1.78-1.65,4.71,4.71,0,0,1,2.49-.65,5.21,5.21,0,0,1,1.77.29,4,4,0,0,1,1.35.8,3.58,3.58,0,0,1,.89,1.24,4,4,0,0,1,.31,1.59c0,.16,0,.31,0,.46s0,.31-.07.48a1.43,1.43,0,0,1-.56.87,3.38,3.38,0,0,1-1.14.57,8.28,8.28,0,0,1-1.56.31,15,15,0,0,1-1.81.1l-1.38,0Z"/><path class="cls-1" d="M325.06,249.13q.33-.75.72-1.44a6.89,6.89,0,0,1,.87-1.19,3.92,3.92,0,0,1,1-.82,2.54,2.54,0,0,1,1.18-.29,4.49,4.49,0,0,1,1.55.23,2.41,2.41,0,0,1,.91.6,1.88,1.88,0,0,1,.44.77,3.23,3.23,0,0,1,.1.79,3.09,3.09,0,0,1-.05.67c0,.09-.05.18-.07.27a.62.62,0,0,1-.31.38.58.58,0,0,1-.48,0,.55.55,0,0,1-.37-.29.62.62,0,0,1-.05-.48,1.8,1.8,0,0,0,0-.87,1.2,1.2,0,0,0-.47-.58,2.18,2.18,0,0,0-1.2-.26,1.62,1.62,0,0,0-1,.37,3.76,3.76,0,0,0-.87,1,8.22,8.22,0,0,0-.73,1.39c-.22.53-.42,1.08-.6,1.63s-.34,1.12-.47,1.67-.24,1.06-.33,1.52-.17.85-.22,1.18-.09.54-.1.65a.48.48,0,0,1-.22.38.74.74,0,0,1-.39.12.8.8,0,0,1-.47-.15.42.42,0,0,1-.18-.41c.16-1.69.3-3.37.43-5s.25-3.35.36-5a.61.61,0,0,1,.22-.44.62.62,0,0,1,.45-.15.69.69,0,0,1,.44.22.63.63,0,0,1,.15.46c0,.53-.07,1.06-.12,1.58S325.11,248.6,325.06,249.13Z"/><path class="cls-1" d="M334,245.69a.52.52,0,0,1,.45-.14.61.61,0,0,1,.44.22.54.54,0,0,1,.14.45c0,.55-.06,1-.08,1.48s0,.93-.05,1.49,0,1.11,0,1.69,0,1.06,0,1.56a12.49,12.49,0,0,0,.1,1.35,4.92,4.92,0,0,0,.22,1q.13.36.33.36c.17,0,.37-.15.61-.43a8.39,8.39,0,0,0,.74-1.14c.27-.47.54-1,.82-1.6s.56-1.21.82-1.84.52-1.23.76-1.83l.63-1.6c.18-.47.37-1,.57-1.57a.59.59,0,0,1,.33-.36.61.61,0,0,1,.48,0,.59.59,0,0,1,.36.33.61.61,0,0,1,0,.48l-.66,1.71c-.19.52-.43,1.1-.71,1.75s-.57,1.31-.88,2-.64,1.35-1,2-.69,1.23-1,1.74a8.11,8.11,0,0,1-1,1.23,1.36,1.36,0,0,1-.92.47,1.06,1.06,0,0,1-.94-.66,6.27,6.27,0,0,1-.56-1.7,17.8,17.8,0,0,1-.27-2.25c0-.81-.07-1.6-.07-2.35,0-.46,0-.89,0-1.29s0-.75,0-1,0-.63.05-1A.7.7,0,0,1,334,245.69Z"/><path class="cls-1" d="M344.66,245.91a.65.65,0,0,1,.24-.42.55.55,0,0,1,.46-.14.74.74,0,0,1,.43.24.57.57,0,0,1,.13.46L344.81,256a.69.69,0,0,1-.24.42.54.54,0,0,1-.45.14.63.63,0,0,1-.42-.23.58.58,0,0,1-.14-.47Zm.47-4.81a.61.61,0,0,1,.24-.41.6.6,0,0,1,.46-.13.66.66,0,0,1,.43.24.56.56,0,0,1,.13.45l-.09.63a.63.63,0,0,1-.23.43.61.61,0,0,1-.47.13.66.66,0,0,1-.42-.25.59.59,0,0,1-.12-.46Z"/><path class="cls-1" d="M352.2,257.52a.66.66,0,0,1-.38-.3.6.6,0,0,1-.07-.47.45.45,0,0,0-.18,0A3.62,3.62,0,0,1,350,256a4.21,4.21,0,0,1-1.1-1.3,5.64,5.64,0,0,1-.6-1.64,6.62,6.62,0,0,1-.1-1.85c0-.17,0-.34,0-.5s.05-.34.08-.51a7.87,7.87,0,0,1,1.21-3.17,5.35,5.35,0,0,1,2-1.81A2.35,2.35,0,0,1,352,245l.47-.15a5.31,5.31,0,0,1,1.51-.22l.47,0,.43.05a3.49,3.49,0,0,1,2.18,1.15,3.18,3.18,0,0,1,.76,2.18,4.56,4.56,0,0,1-.06.72.55.55,0,0,1-.25.41.6.6,0,0,1-.47.1.59.59,0,0,1-.4-.26.64.64,0,0,1-.12-.46.78.78,0,0,0,0-.26v-.25a2,2,0,0,0-.45-1.37,2.3,2.3,0,0,0-1.42-.72,5.16,5.16,0,0,0-.71-.05,4.29,4.29,0,0,0-1.17.16,6.23,6.23,0,0,0-.7.27,4.33,4.33,0,0,0-1.57,1.46,6.86,6.86,0,0,0-1,2.63v0c0,.26-.08.54-.1.84a5.37,5.37,0,0,0,.09,1.51,4.34,4.34,0,0,0,.45,1.3,3.09,3.09,0,0,0,.75.89,2.18,2.18,0,0,0,1,.48l.16,0,.2,0h.74l.35-.06.35-.08a4.37,4.37,0,0,0,1.51-.7,3.35,3.35,0,0,0,.95-1,.61.61,0,0,1,.37-.28.62.62,0,0,1,.48.05.66.66,0,0,1,.31.39.57.57,0,0,1-.08.47,3.82,3.82,0,0,1-.51.69,5.19,5.19,0,0,1-.73.65,6.22,6.22,0,0,1-.92.55,5.34,5.34,0,0,1-1.06.38l-.35.07a1.91,1.91,0,0,0-.33.06.93.93,0,0,1,.21.42,1.51,1.51,0,0,1,0,.48,2.36,2.36,0,0,1-.34.86,4.6,4.6,0,0,1-.57.7,6,6,0,0,1-.66.6.59.59,0,0,1-.45.1.59.59,0,0,1-.41-.25.58.58,0,0,1-.12-.47.59.59,0,0,1,.25-.41,4.57,4.57,0,0,0,.49-.42,2.78,2.78,0,0,0,.41-.51.81.81,0,0,0,.14-.31Z"/><path class="cls-1" d="M361.55,247.89a3.84,3.84,0,0,1,.27-.87,3,3,0,0,1,.62-1,3.41,3.41,0,0,1,1.12-.77,4.36,4.36,0,0,1,1.78-.32,3.69,3.69,0,0,1,1.88.46,4.1,4.1,0,0,1,1.26,1.19,5.27,5.27,0,0,1,.71,1.66,7.82,7.82,0,0,1,.22,1.86,9.17,9.17,0,0,1-.36,2.62,6.13,6.13,0,0,1-1.07,2.1,5,5,0,0,1-1.75,1.41,5.31,5.31,0,0,1-2.38.51,4.18,4.18,0,0,1-1.77-.36,4,4,0,0,1-1.33-1,4.31,4.31,0,0,1-.82-1.43,4.88,4.88,0,0,1-.29-1.71,7,7,0,0,1,.17-1.61,10.66,10.66,0,0,1,.38-1.35,7.3,7.3,0,0,1,.39-1c.13-.24.2-.36.21-.37a.44.44,0,0,1,.36-.2A.72.72,0,0,1,361.55,247.89Zm.14,1s-.08,0-.16.2a3.15,3.15,0,0,0-.26.69,10.93,10.93,0,0,0-.25,1.1,8.65,8.65,0,0,0-.1,1.41,3.86,3.86,0,0,0,.19,1.23,3.09,3.09,0,0,0,.55,1,2.68,2.68,0,0,0,.92.7,3,3,0,0,0,1.27.26,4.18,4.18,0,0,0,1.89-.41,3.8,3.8,0,0,0,1.34-1.14,5,5,0,0,0,.8-1.7,8,8,0,0,0,.27-2.13,7.16,7.16,0,0,0-.13-1.38,4.3,4.3,0,0,0-.46-1.26,2.71,2.71,0,0,0-.87-.91,2.38,2.38,0,0,0-1.35-.36,2.71,2.71,0,0,0-1.49.35,2.41,2.41,0,0,0-.77.75,3,3,0,0,0-.33,1.12.65.65,0,0,1-.19.46.52.52,0,0,1-.44.19A.51.51,0,0,1,361.69,248.9Z"/><path class="cls-1" d="M379.2,248.7a.59.59,0,0,1-.36-.81,1,1,0,0,0-.11-.67,1.38,1.38,0,0,0-.49-.47,2.27,2.27,0,0,0-.73-.28,4,4,0,0,0-.85-.09,6.11,6.11,0,0,0-1.08.1,4.26,4.26,0,0,0-1.12.33,3,3,0,0,0-.9.61,1.59,1.59,0,0,0-.44.94,1.19,1.19,0,0,0,.3.83,2.2,2.2,0,0,0,.73.52,4.79,4.79,0,0,0,1,.3c.34.08.63.13.88.17a8.27,8.27,0,0,1,1.36.35,5.52,5.52,0,0,1,1.34.64,3.43,3.43,0,0,1,1,.94,1.79,1.79,0,0,1,.29,1.27,2.61,2.61,0,0,1-.46,1.3,3.9,3.9,0,0,1-1,1,5.13,5.13,0,0,1-1.36.63,5,5,0,0,1-1.47.23,4.35,4.35,0,0,1-1.67-.31,7.62,7.62,0,0,1-1.34-.68,8.32,8.32,0,0,1-1.2-1,.58.58,0,0,1,0-.88.61.61,0,0,1,.43-.21.63.63,0,0,1,.45.17,6.72,6.72,0,0,0,1,.83,7,7,0,0,0,1.06.56,3.26,3.26,0,0,0,1.29.25,4,4,0,0,0,1-.14,4.15,4.15,0,0,0,1-.41,2.85,2.85,0,0,0,.74-.64,1.66,1.66,0,0,0,.36-.84.84.84,0,0,0-.28-.69,3.42,3.42,0,0,0-.79-.54,7,7,0,0,0-1-.38,9,9,0,0,0-.88-.23,13.27,13.27,0,0,1-1.35-.31,5.19,5.19,0,0,1-1.34-.56,3.11,3.11,0,0,1-1-.94,2,2,0,0,1-.26-1.41,2.69,2.69,0,0,1,.59-1.39,4.32,4.32,0,0,1,1.17-.95,5.32,5.32,0,0,1,1.49-.55,7.66,7.66,0,0,1,1.55-.17,4.66,4.66,0,0,1,1.31.18,4.32,4.32,0,0,1,1.11.5,2.66,2.66,0,0,1,.77.8,2.07,2.07,0,0,1,.29,1.07,1.66,1.66,0,0,1-.15.67.51.51,0,0,1-.32.35A.59.59,0,0,1,379.2,248.7Z"/><path class="cls-2" d="M317.91,102H251.14c-2.09,0-9.89-7.8-9.89-9.89V35.86a3,3,0,0,1,3-3l73.63-.16c2.09,0,9.89,7.8,9.89,9.9V92.1C327.8,94.19,320,102,317.91,102Z"/><rect class="cls-3" x="241.25" y="50.06" width="86.56" height="34.7"/><g class="cls-4"><path class="cls-3" d="M288.1,38.1H246.63a.36.36,0,0,1-.37-.37.37.37,0,0,1,.37-.38H288.1a.38.38,0,0,1,.37.38A.37.37,0,0,1,288.1,38.1Z"/><g class="cls-5"><path class="cls-3" d="M272.42,42.15H246.63a.38.38,0,0,1,0-.75h25.79a.38.38,0,0,1,0,.75Z"/></g><g class="cls-5"><path class="cls-3" d="M272.42,45.72H246.63a.38.38,0,0,1,0-.75h25.79a.38.38,0,0,1,0,.75Z"/></g></g><path class="cls-6" d="M305.16,50.06H327.8V36.13a3.46,3.46,0,0,0-3.46-3.46H305.16Z"/><path class="cls-6" d="M241.25,84.76H327.8a0,0,0,0,1,0,0v16.1a1.13,1.13,0,0,1-1.13,1.13H242.38a1.13,1.13,0,0,1-1.13-1.13V84.76A0,0,0,0,1,241.25,84.76Z"/><path class="cls-3" d="M309.87,42.07a.53.53,0,0,1-.16-.37.57.57,0,0,1,.16-.37l.73-.74a.51.51,0,0,1,.74,0l.05,0,2.88,3.13a.25.25,0,0,0,.37,0l7-7.37h.06a.5.5,0,0,1,.73,0l.73.74a.53.53,0,0,1,0,.75h0l-8.38,8.79a.51.51,0,0,1-.74,0L310,42.23Z"/><path class="cls-3" d="M271.41,99.49a5.91,5.91,0,1,1,5.91-5.9A5.91,5.91,0,0,1,271.41,99.49Zm0-11.25a5.35,5.35,0,1,0,5.34,5.35A5.36,5.36,0,0,0,271.41,88.24Z"/><path class="cls-3" d="M299.54,99.49a5.91,5.91,0,1,1,5.9-5.9A5.91,5.91,0,0,1,299.54,99.49Zm0-11.25a5.35,5.35,0,1,0,5.34,5.35A5.36,5.36,0,0,0,299.54,88.24Z"/><path class="cls-3" d="M282.5,96.72a1.84,1.84,0,0,1,.3-1,3.82,3.82,0,0,1,.76-.86,11,11,0,0,1,1-.75,11.45,11.45,0,0,0,1-.7,4,4,0,0,0,.76-.7,1.19,1.19,0,0,0,.3-.78,1,1,0,0,0-.34-.78,1.33,1.33,0,0,0-.95-.31,1.7,1.7,0,0,0-.53.07,1.35,1.35,0,0,0-.42.19q-.18.14-.36.3l-.35.38,0,0c-.08.08-.17.08-.28,0l-.76-.74a.2.2,0,0,1,0-.27,5.15,5.15,0,0,1,1.17-1,2.94,2.94,0,0,1,1.55-.37,2.87,2.87,0,0,1,2,.65,2.32,2.32,0,0,1,.76,1.86,2.39,2.39,0,0,1-.25,1.08,3.87,3.87,0,0,1-.63.87,5.34,5.34,0,0,1-.85.71l-.89.62c-.29.2-.55.39-.78.58a1.7,1.7,0,0,0-.5.59h3.72a.17.17,0,0,1,.12,0,.18.18,0,0,1,.06.13V97.6a.16.16,0,0,1-.06.13.17.17,0,0,1-.12,0h-5.17a.16.16,0,0,1-.18-.18Z"/><path class="cls-3" d="M269.79,94.48v-.86a.14.14,0,0,1,.16-.15h2.94a.13.13,0,0,1,.1,0,.12.12,0,0,1,0,.11v.86a.14.14,0,0,1-.14.14H270C269.85,94.62,269.79,94.58,269.79,94.48Z"/><path class="cls-3" d="M299.11,91.76H300c.09,0,.14,0,.14.15v1.27h1.27a.14.14,0,0,1,.14.14v.86a.15.15,0,0,1,0,.11.13.13,0,0,1-.1,0h-1.27v1.25c0,.11-.05.16-.14.16h-.87c-.1,0-.15,0-.15-.16V94.33H297.7c-.11,0-.16,0-.16-.15v-.86c0-.09,0-.14.16-.14H299V91.91A.13.13,0,0,1,299.11,91.76Z"/><path class="cls-7" d="M297,58.45A9.91,9.91,0,0,0,294.23,55a4.46,4.46,0,0,0-2.74-.94H277.56a4.46,4.46,0,0,0-2.74.94,9.77,9.77,0,0,0-2.8,3.45,9.87,9.87,0,0,0-1,4.34v2.7a.52.52,0,0,0,.52.52h4.16V80.56a.52.52,0,0,0,.52.52h16.63a.52.52,0,0,0,.52-.52V66h4.16a.52.52,0,0,0,.52-.52v-2.7A10,10,0,0,0,297,58.45Zm-9.46-3.35a2.08,2.08,0,0,1-2,1.55h-2.08a2.09,2.09,0,0,1-2-1.55ZM297,65h-3.64v-2.6a.52.52,0,0,0-.52-.52.53.53,0,0,0-.52.52V80.05H276.73V79h1.56a.52.52,0,0,0,.52-.52.52.52,0,0,0-.52-.52h-1.56V62.37a.52.52,0,0,0-1,0V65h-3.64V62.79a8.75,8.75,0,0,1,3.41-7,3.4,3.4,0,0,1,2.1-.72h2.85a3.12,3.12,0,0,0,3.08,2.59h2.08a3.12,3.12,0,0,0,3.07-2.59h2.85a3.4,3.4,0,0,1,2.1.72,8.75,8.75,0,0,1,3.41,7V65Z"/><path class="cls-7" d="M292.84,81.38H276.21a.82.82,0,0,1-.82-.82V66.31h-3.86a.82.82,0,0,1-.82-.82v-2.7a10.21,10.21,0,0,1,1-4.47,10.4,10.4,0,0,1,2.89-3.56,4.76,4.76,0,0,1,2.92-1h13.93a4.76,4.76,0,0,1,2.92,1,10.17,10.17,0,0,1,2.89,3.56h0a10.21,10.21,0,0,1,1,4.47v2.7a.82.82,0,0,1-.82.82h-3.86V80.56A.82.82,0,0,1,292.84,81.38Zm-15.28-27a4.18,4.18,0,0,0-2.56.88,9.56,9.56,0,0,0-3.69,7.56v2.7a.22.22,0,0,0,.22.22H276V80.56a.22.22,0,0,0,.22.23h16.63a.23.23,0,0,0,.23-.23V65.71h4.45a.22.22,0,0,0,.22-.22v-2.7a9.62,9.62,0,0,0-1-4.21,9.72,9.72,0,0,0-2.72-3.35,4.18,4.18,0,0,0-2.56-.88Zm15.06,26H276.43V78.71h1.86a.22.22,0,0,0,.22-.22.22.22,0,0,0-.22-.23h-1.86V62.37a.22.22,0,0,0-.44,0v2.9h-4.24V62.79a9.08,9.08,0,0,1,3.53-7.21,3.76,3.76,0,0,1,2.28-.78h3.1l0,.25a2.82,2.82,0,0,0,2.79,2.35h2.08a2.81,2.81,0,0,0,2.78-2.35l0-.25h3.1a3.76,3.76,0,0,1,2.28.78,9.08,9.08,0,0,1,3.53,7.21v2.48h-4.23v-2.9a.22.22,0,0,0-.23-.22.22.22,0,0,0-.22.22ZM277,79.75h15V62.37a.81.81,0,0,1,.81-.81.82.82,0,0,1,.82.81v2.31h3V62.79a8.5,8.5,0,0,0-3.29-6.74,3.19,3.19,0,0,0-1.92-.66h-2.61a3.4,3.4,0,0,1-3.31,2.6h-2.08a3.41,3.41,0,0,1-3.32-2.6h-2.61a3.19,3.19,0,0,0-1.92.66,8.5,8.5,0,0,0-3.29,6.74v1.89h3V62.37a.82.82,0,0,1,1.64,0v15.3h1.26a.82.82,0,0,1,.82.82.82.82,0,0,1-.82.81H277ZM285.57,57h-2.08a2.37,2.37,0,0,1-2.3-1.78l-.1-.37H288l-.09.37A2.37,2.37,0,0,1,285.57,57Zm-3.67-1.56a1.78,1.78,0,0,0,1.59,1h2.08a1.78,1.78,0,0,0,1.58-1Z"/><path class="cls-2" d="M415,102H336a3.79,3.79,0,0,1-3.79-3.79V35.86a3,3,0,0,1,3-3L415,32.67a3.79,3.79,0,0,1,3.79,3.79V98.2A3.79,3.79,0,0,1,415,102Z"/><rect class="cls-3" x="331.59" y="50.38" width="87.4" height="34.38"/><g class="cls-4"><path class="cls-3" d="M379.08,38.1H337.62a.36.36,0,0,1-.37-.37.37.37,0,0,1,.37-.38h41.46a.38.38,0,0,1,.38.38A.37.37,0,0,1,379.08,38.1Z"/><g class="cls-5"><path class="cls-3" d="M363.41,42.15H337.62a.38.38,0,0,1,0-.75h25.79a.38.38,0,0,1,0,.75Z"/></g><g class="cls-5"><path class="cls-3" d="M363.41,45.72H337.62a.38.38,0,0,1,0-.75h25.79a.38.38,0,0,1,0,.75Z"/></g></g><path class="cls-3" d="M362.4,99.49a5.91,5.91,0,1,1,5.9-5.9A5.91,5.91,0,0,1,362.4,99.49Zm0-11.25a5.35,5.35,0,1,0,5.34,5.35A5.36,5.36,0,0,0,362.4,88.24Z"/><path class="cls-3" d="M390.52,99.49a5.91,5.91,0,1,1,5.91-5.9A5.91,5.91,0,0,1,390.52,99.49Zm0-11.25a5.35,5.35,0,1,0,5.35,5.35A5.35,5.35,0,0,0,390.52,88.24Z"/><path class="cls-3" d="M373,93.59a5.8,5.8,0,0,1,.23-1.64,4.11,4.11,0,0,1,.64-1.33,3.17,3.17,0,0,1,1-.89,2.85,2.85,0,0,1,2.66,0,3.24,3.24,0,0,1,1,.89,4.36,4.36,0,0,1,.66,1.33,6,6,0,0,1,0,3.29,4.47,4.47,0,0,1-.66,1.33,3.27,3.27,0,0,1-1,.9,2.85,2.85,0,0,1-2.66,0,3.2,3.2,0,0,1-1-.9,4.21,4.21,0,0,1-.64-1.33A5.82,5.82,0,0,1,373,93.59Zm1.44,0a5.34,5.34,0,0,0,.11,1.08,2.92,2.92,0,0,0,.34.86,1.71,1.71,0,0,0,.55.58,1.41,1.41,0,0,0,.77.21,1.44,1.44,0,0,0,.77-.21,1.86,1.86,0,0,0,.57-.58,2.92,2.92,0,0,0,.35-.86,4.88,4.88,0,0,0,0-2.15,3.11,3.11,0,0,0-.35-.87,1.9,1.9,0,0,0-.57-.59,1.36,1.36,0,0,0-.77-.22,1.34,1.34,0,0,0-.77.22,1.74,1.74,0,0,0-.55.59,3.1,3.1,0,0,0-.34.87A5.32,5.32,0,0,0,374.47,93.6Z"/><path class="cls-3" d="M360.78,94.48v-.86c0-.1.05-.15.16-.15h2.93a.15.15,0,0,1,.11,0,.12.12,0,0,1,0,.11v.86a.13.13,0,0,1,0,.1.15.15,0,0,1-.11,0h-2.93C360.83,94.62,360.78,94.58,360.78,94.48Z"/><path class="cls-3" d="M390.1,91.76H391c.09,0,.14,0,.14.15v1.27h1.27a.14.14,0,0,1,.14.14v.86a.15.15,0,0,1,0,.11.13.13,0,0,1-.1,0h-1.27v1.25c0,.11-.05.16-.14.16h-.87c-.1,0-.15,0-.15-.16V94.33h-1.26c-.11,0-.16,0-.16-.15v-.86c0-.09.05-.14.16-.14H390V91.91A.13.13,0,0,1,390.1,91.76Z"/><path class="cls-7" d="M389.77,62.75a5.23,5.23,0,0,0-3.69-2,13.71,13.71,0,0,0-.71-3.5c-.08-.17-.3-.67-.8-.67H367.64c-.49,0-.72.51-.79.67-.89,2-2.58,14,4.39,21.84a4,4,0,0,0,3,1.38H378a4.05,4.05,0,0,0,3-1.38,19,19,0,0,0,2-2.67,4.73,4.73,0,0,0,.53,0c2.85,0,5.21-2.66,6.4-7.3C390.66,66.13,390.63,64.08,389.77,62.75Zm-9.66,15.62a2.92,2.92,0,0,1-2.16,1h-3.69a2.9,2.9,0,0,1-2.15-1c-6.64-7.49-4.9-19-4.21-20.58h16.42C385,59.36,386.74,70.88,380.11,78.37Zm8.63-9.45c-.8,3.13-2.56,6.3-5.16,6.41A26.46,26.46,0,0,0,386.17,62a3.79,3.79,0,0,1,2.62,1.39C389.45,64.41,389.43,66.22,388.74,68.92Z"/><path class="cls-7" d="M378,80.85h-3.69A4.37,4.37,0,0,1,371,79.36c-7.08-8-5.35-20.18-4.45-22.19a1.22,1.22,0,0,1,1.1-.87h16.93a1.22,1.22,0,0,1,1.1.87,12.34,12.34,0,0,1,.71,3.35,5.35,5.35,0,0,1,3.67,2c.91,1.41.95,3.55.14,6.72-1.28,5-3.87,7.77-7.08,7.53a19,19,0,0,1-1.88,2.54A4.38,4.38,0,0,1,378,80.85ZM367.64,57c-.24,0-.4.27-.49.48-.87,1.94-2.53,13.73,4.34,21.48a3.72,3.72,0,0,0,2.77,1.26H378a3.72,3.72,0,0,0,2.78-1.26,18.05,18.05,0,0,0,1.92-2.62l.11-.18.21,0c2.94.31,5.36-2.27,6.58-7,.76-3,.74-4.94-.06-6.19h0a4.92,4.92,0,0,0-3.47-1.8l-.25-.05,0-.25a13.39,13.39,0,0,0-.67-3.39c-.1-.21-.25-.48-.5-.48ZM378,79.68h-3.69a3.2,3.2,0,0,1-2.4-1.09c-6.67-7.53-5.1-19-4.26-20.93l.08-.2h16.85l.09.2c.84,1.89,2.4,13.4-4.26,20.93h0A3.22,3.22,0,0,1,378,79.68Zm-9.82-21.56c-.79,2.28-1.93,13.08,4.23,20a2.55,2.55,0,0,0,1.9.87H378a2.58,2.58,0,0,0,1.91-.87h0c6.15-6.94,5-17.75,4.23-20ZM383,75.68l.27-.51A26.28,26.28,0,0,0,385.84,62l0-.43.43.09a4.09,4.09,0,0,1,2.83,1.53c.71,1.1.71,3,0,5.79h0c-.39,1.52-1.94,6.51-5.47,6.66Zm3.5-13.26a26.92,26.92,0,0,1-2.36,12.49c2.12-.54,3.57-3.41,4.26-6.08h0c.66-2.57.69-4.34.09-5.26A3,3,0,0,0,386.52,62.42Z"/><path class="cls-7" d="M371.05,66.26a.58.58,0,0,0-1.16.13,23.25,23.25,0,0,0,4.3,11,.58.58,0,0,0,.48.24.52.52,0,0,0,.33-.11.57.57,0,0,0,.14-.81A22,22,0,0,1,371.05,66.26Z"/><path class="cls-7" d="M374.67,77.92a.91.91,0,0,1-.75-.38,23.53,23.53,0,0,1-4.36-11.12.91.91,0,0,1,.81-1,.86.86,0,0,1,.67.19,1,1,0,0,1,.34.62,21.71,21.71,0,0,0,4,10.25.91.91,0,0,1-.21,1.27A.93.93,0,0,1,374.67,77.92Zm-4.2-11.85h0a.25.25,0,0,0-.22.27,22.86,22.86,0,0,0,4.24,10.8.25.25,0,1,0,.41-.29,22.3,22.3,0,0,1-4.15-10.56.23.23,0,0,0-.1-.17A.22.22,0,0,0,370.47,66.07Z"/><path class="cls-7" d="M370.42,63.71h.08a.58.58,0,0,0,.58-.5,5.21,5.21,0,0,1,.75-2.39.59.59,0,0,0-.94-.7,6.33,6.33,0,0,0-1,2.93A.6.6,0,0,0,370.42,63.71Z"/><path class="cls-7" d="M370.5,64.05h-.12a.91.91,0,0,1-.61-.36.89.89,0,0,1-.17-.67,6.49,6.49,0,0,1,1-3.09A.92.92,0,0,1,372.1,61a4.91,4.91,0,0,0-.69,2.24A.92.92,0,0,1,370.5,64.05Zm.86-3.83a.25.25,0,0,0-.2.1,6.07,6.07,0,0,0-.91,2.78.24.24,0,0,0,.05.18.23.23,0,0,0,.17.1l-.05.33.08-.33a.25.25,0,0,0,.25-.22,5.4,5.4,0,0,1,.81-2.54.25.25,0,0,0-.05-.35A.27.27,0,0,0,371.36,60.22Z"/><path class="cls-2" d="M324,177.67H245a3.79,3.79,0,0,1-3.79-3.79V111.54a3,3,0,0,1,3-3l79.73-.16a3.79,3.79,0,0,1,3.79,3.79v61.74A3.79,3.79,0,0,1,324,177.67Z"/><rect class="cls-3" x="241.25" y="126.06" width="86.56" height="34.38"/><g class="cls-4"><path class="cls-3" d="M288.1,113.78H246.63a.36.36,0,0,1-.37-.37.37.37,0,0,1,.37-.38H288.1a.38.38,0,0,1,.37.38A.37.37,0,0,1,288.1,113.78Z"/><g class="cls-5"><path class="cls-3" d="M272.42,117.83H246.63a.38.38,0,0,1,0-.75h25.79a.38.38,0,0,1,0,.75Z"/></g><g class="cls-5"><path class="cls-3" d="M272.42,121.4H246.63a.38.38,0,0,1,0-.75h25.79a.38.38,0,0,1,0,.75Z"/></g></g><path class="cls-3" d="M271.41,175.17a5.91,5.91,0,1,1,5.91-5.9A5.91,5.91,0,0,1,271.41,175.17Zm0-11.25a5.35,5.35,0,1,0,5.34,5.35A5.36,5.36,0,0,0,271.41,163.92Z"/><path class="cls-3" d="M299.54,175.17a5.91,5.91,0,1,1,5.9-5.9A5.91,5.91,0,0,1,299.54,175.17Zm0-11.25a5.35,5.35,0,1,0,5.34,5.35A5.36,5.36,0,0,0,299.54,163.92Z"/><path class="cls-3" d="M282,169.26a5.78,5.78,0,0,1,.23-1.63,4,4,0,0,1,.64-1.34,3.18,3.18,0,0,1,1-.89,2.67,2.67,0,0,1,1.32-.33,2.74,2.74,0,0,1,1.34.33,3.22,3.22,0,0,1,1,.89,4,4,0,0,1,.66,1.34,6,6,0,0,1,0,3.28,4,4,0,0,1-.66,1.33,3.13,3.13,0,0,1-1,.9,2.74,2.74,0,0,1-1.34.33,2.67,2.67,0,0,1-1.32-.33,3.1,3.1,0,0,1-1-.9,3.92,3.92,0,0,1-.64-1.33A5.82,5.82,0,0,1,282,169.26Zm1.44,0a5.17,5.17,0,0,0,.11,1.07,3.1,3.1,0,0,0,.34.87,1.8,1.8,0,0,0,.55.58,1.49,1.49,0,0,0,.76.21,1.57,1.57,0,0,0,.78-.21,2,2,0,0,0,.57-.58,3.11,3.11,0,0,0,.35-.87,4.83,4.83,0,0,0,0-2.14,3.05,3.05,0,0,0-.35-.88,2,2,0,0,0-.57-.59,1.48,1.48,0,0,0-.78-.22,1.41,1.41,0,0,0-.76.22,1.84,1.84,0,0,0-.55.59,3,3,0,0,0-.34.88A5.17,5.17,0,0,0,283.48,169.28Z"/><path class="cls-3" d="M269.79,170.15v-.86c0-.1.06-.14.16-.14h2.94a.17.17,0,0,1,.1,0,.14.14,0,0,1,0,.11v.86a.15.15,0,0,1,0,.11.18.18,0,0,1-.1,0H270A.14.14,0,0,1,269.79,170.15Z"/><path class="cls-3" d="M299.11,167.43H300c.09,0,.14,0,.14.15v1.27h1.27a.14.14,0,0,1,.1.05.13.13,0,0,1,0,.1v.85a.16.16,0,0,1,0,.12.18.18,0,0,1-.1,0h-1.27v1.25c0,.1-.05.16-.14.16h-.87a.14.14,0,0,1-.15-.16V170H297.7a.14.14,0,0,1-.16-.16V169c0-.1,0-.15.16-.15H299v-1.27A.13.13,0,0,1,299.11,167.43Z"/><path class="cls-7" d="M299.75,139.19a5.82,5.82,0,0,0-4.12-1.55h-3.92v-1.9a.89.89,0,0,0-.93-.84H272.1a.89.89,0,0,0-.93.84v2.92h-3.64a.85.85,0,1,0,0,1.68h4.58a.9.9,0,0,0,.94-.84v-2.92h16.8v13.16h-8.92a3.28,3.28,0,0,0-5.83,0,.75.75,0,0,0-.21,0h-1.84v-2.93a.89.89,0,0,0-.94-.84h-4.58a.84.84,0,1,0,0,1.67h3.64v2.93a.89.89,0,0,0,.93.84H275a3.23,3.23,0,0,0,6.12,0h11.21a3.24,3.24,0,0,0,6.13,0h2.08a.9.9,0,0,0,.94-.84v-7A6,6,0,0,0,299.75,139.19ZM278,151.93a1.15,1.15,0,1,1,1.27-1.14A1.21,1.21,0,0,1,278,151.93Zm17.33,0a1.15,1.15,0,1,1,1.27-1.14A1.21,1.21,0,0,1,295.34,151.93Zm4.22-2.19h-1.31a3.18,3.18,0,0,0-2.91-1.77,3.14,3.14,0,0,0-2.9,1.77h-.72V139.32h3.92c2.45,0,3.92,1.6,3.92,4.28Z"/><path class="cls-7" d="M279.4,144.73a.78.78,0,0,0,0,1.19,1,1,0,0,0,1.32,0l2.41-2.16h0l.05-.06,0,0s0,0,0,0l0,0,0,0,0-.05a0,0,0,0,0,0,0s0,0,0,0a.08.08,0,0,0,0,0,.06.06,0,0,0,0,0v0s0,0,0-.05,0,0,0,0v-.16a.06.06,0,0,0,0,0,.43.43,0,0,1,0-.05v0s0,0,0,0,0,0,0,0,0,0,0,0v0l0-.05,0,0,0,0,0,0,0,0-.05-.06h0l-2.29-2.05a1,1,0,0,0-1.33,0,.79.79,0,0,0,0,1.19l.7.62H264.27a.84.84,0,1,0,0,1.68H280.2Z"/><path class="cls-8" d="M451.9,3.49a15,15,0,0,1,15,15v244a15,15,0,0,1-15,15h-244a15,15,0,0,1-15-15v-244a15,15,0,0,1,15-15h244m0-1h-244a16,16,0,0,0-16,16v244a16,16,0,0,0,16,16h244a16,16,0,0,0,16-16v-244a16,16,0,0,0-16-16Z"/><path class="cls-2" d="M161.71,132.09l-.79-2.39h0a2.11,2.11,0,0,1-1.31-4h0l-.79-2.4h0a2.11,2.11,0,0,1-1.31-4h0l-.78-2.4h0a2.11,2.11,0,0,1-1.31-4h0l-.79-2.4h0a2.11,2.11,0,0,1-1.31-4h0l-.79-2.4h0a2.11,2.11,0,0,1-1.31-4h0l-.79-2.4h0a2.1,2.1,0,0,1-1.31-4h0l-.79-2.4L128.17,98h0L31.71,129.69l.78,2.4h0a2.11,2.11,0,0,1,1.31,4h0l.78,2.4,0,0a2.11,2.11,0,0,1,1.31,4h0l.79,2.4,0,0a2.11,2.11,0,0,1,1.31,4h0l.79,2.39h0a2.11,2.11,0,0,1,1.31,4h0l.79,2.4h0a2.1,2.1,0,0,1,1.31,4h0L43,164h0a2.1,2.1,0,0,1,1.31,4h0l.79,2.4,102.52-33.68h0Z"/><path class="cls-3" d="M54.2,134.74l2.28-.74,6.28,19.23-2.28.75Z"/><path class="cls-3" d="M61,137.82l2.07-.68.55,1.7h.06a3.3,3.3,0,0,1,.86-2,4.15,4.15,0,0,1,1.83-1.21,4.3,4.3,0,0,1,2.2-.23,2.82,2.82,0,0,1,1.47.77,4.52,4.52,0,0,1,.87,1.26,17,17,0,0,1,.6,1.59l3.35,10.23-2.18.71-3.25-10c-.13-.38-.26-.71-.39-1a3,3,0,0,0-.54-.81,1.79,1.79,0,0,0-.85-.51,2.11,2.11,0,0,0-1.22.09,3,3,0,0,0-1.65,1.34,2.84,2.84,0,0,0-.15,2.46l3.26,10-2.18.71Z"/><path class="cls-3" d="M86.63,144.43q1,3.09.22,4.88a4.64,4.64,0,0,1-3,2.53c-.39.12-.8.22-1.24.31a5.22,5.22,0,0,1-1.49,0,3.64,3.64,0,0,1-1.65-.67,4.15,4.15,0,0,1-1.36-1.79l2.17-.72a1.91,1.91,0,0,0,1.14,1.17,2.74,2.74,0,0,0,1.69-.06,3.36,3.36,0,0,0,1.39-.78,1.94,1.94,0,0,0,.56-1.05,2.91,2.91,0,0,0,0-1.1,9.92,9.92,0,0,0-.31-1.18l-.62-1.89-.05,0a2.91,2.91,0,0,1-.74,1.8,3.86,3.86,0,0,1-1.76,1.16A3.49,3.49,0,0,1,79,147a5,5,0,0,1-2-1.53,10.62,10.62,0,0,1-1.3-2.12,18.49,18.49,0,0,1-.84-2.11,19.53,19.53,0,0,1-.73-3,8.82,8.82,0,0,1,0-2.66,4.51,4.51,0,0,1,.86-2.13,3.92,3.92,0,0,1,2-1.31,3.15,3.15,0,0,1,2.14,0,3.05,3.05,0,0,1,1.58,1.2l0,0-.6-1.83,2.08-.68Zm-10.26-8.31a12.89,12.89,0,0,0,.82,4.41,17.61,17.61,0,0,0,.72,1.88,7,7,0,0,0,.9,1.54,3.21,3.21,0,0,0,1.18,1,1.93,1.93,0,0,0,1.44.05,2.52,2.52,0,0,0,1.28-.85,2.66,2.66,0,0,0,.51-1.39,6.13,6.13,0,0,0-.11-1.78,18,18,0,0,0-.58-2.18,20.44,20.44,0,0,0-.82-2.12,7.63,7.63,0,0,0-1-1.64,3.23,3.23,0,0,0-1.28-1,2.14,2.14,0,0,0-1.54,0A2.09,2.09,0,0,0,76.37,136.12Z"/><path class="cls-3" d="M85.12,130l2.17-.71L88,131.4l0,0a6.43,6.43,0,0,1,.64-2.26,2.56,2.56,0,0,1,1.54-1.25,2.29,2.29,0,0,1,1-.15l.72,2.21-.16,0a6.25,6.25,0,0,0-1,.25,2.64,2.64,0,0,0-.87.51,3.12,3.12,0,0,0-.72.93,3.48,3.48,0,0,0-.36,1.33,4.05,4.05,0,0,0,.22,1.58l3,9.13-2.18.71Z"/><path class="cls-3" d="M97.1,134.33c.26.79.49,1.46.71,2a7.26,7.26,0,0,0,.85,1.57A3.21,3.21,0,0,0,99.92,139a2.24,2.24,0,0,0,1.66,0,2.14,2.14,0,0,0,1.09-.75,2.36,2.36,0,0,0,.44-1.09,4.24,4.24,0,0,0,0-1.18,7,7,0,0,0-.26-1.09l2.18-.71a6.39,6.39,0,0,1,.28,1.61,6.09,6.09,0,0,1-.19,1.92,4.44,4.44,0,0,1-1,1.83,4.71,4.71,0,0,1-2.09,1.28,4.24,4.24,0,0,1-4.26-.62q-1.76-1.44-3-5.22a21.19,21.19,0,0,1-.75-2.94,9.63,9.63,0,0,1-.08-2.67,4.51,4.51,0,0,1,.93-2.29,5.41,5.41,0,0,1,5-1.69,4,4,0,0,1,2,1.15,7.53,7.53,0,0,1,1.32,2,23.59,23.59,0,0,1,1,2.53l.3.92Zm4.44-3.42-.25-.78a7.47,7.47,0,0,0-.54-1.25,3.83,3.83,0,0,0-.76-1,2.22,2.22,0,0,0-1-.57,2.16,2.16,0,0,0-1.25.07,2.11,2.11,0,0,0-1.19.86,2.9,2.9,0,0,0-.43,1.31,5.4,5.4,0,0,0,0,1.34,7.63,7.63,0,0,0,.26,1.09l.17.54Z"/><path class="cls-3" d="M111.73,126a4.24,4.24,0,0,0-1.15-2,1.86,1.86,0,0,0-1.82-.16,4.33,4.33,0,0,0-.68.29,2.54,2.54,0,0,0-.63.53,1.89,1.89,0,0,0-.37.89,2.66,2.66,0,0,0,.15,1.23,1.76,1.76,0,0,0,1.15,1.25,8.85,8.85,0,0,0,2.43.24c.3,0,.53,0,.69,0a14.91,14.91,0,0,1,1.55.1,4.51,4.51,0,0,1,1.23.34,3,3,0,0,1,1.11.88,5,5,0,0,1,.83,1.64,4.63,4.63,0,0,1-.13,3.77,4.83,4.83,0,0,1-2.87,2.21,5.7,5.7,0,0,1-2.82.31,3.62,3.62,0,0,1-1.9-.88,5,5,0,0,1-1.08-1.41,11.84,11.84,0,0,1-.64-1.58l2.18-.71a4.7,4.7,0,0,0,1.36,2.25,2.33,2.33,0,0,0,2.32.25,3.84,3.84,0,0,0,.68-.33,2.2,2.2,0,0,0,.62-.6,2.45,2.45,0,0,0,.37-.95,2.69,2.69,0,0,0-.15-1.27,2.52,2.52,0,0,0-.59-1,2.43,2.43,0,0,0-.92-.55,7.81,7.81,0,0,0-2.36-.27h-.66c-.6,0-1.09-.06-1.49-.1a3.35,3.35,0,0,1-2.25-1.23,5.08,5.08,0,0,1-.84-1.65,3.8,3.8,0,0,1,.29-3.37,5.12,5.12,0,0,1,2.84-2.06,5.43,5.43,0,0,1,2.44-.31,3.21,3.21,0,0,1,1.65.73,4.34,4.34,0,0,1,1,1.25,10.32,10.32,0,0,1,.64,1.56Z"/><path class="cls-3" d="M122.33,122.49a4.24,4.24,0,0,0-1.16-2,1.84,1.84,0,0,0-1.81-.16,3.66,3.66,0,0,0-.68.29,2.11,2.11,0,0,0-.63.54,1.72,1.72,0,0,0-.37.88,2.64,2.64,0,0,0,.14,1.23,1.75,1.75,0,0,0,1.16,1.25,8.44,8.44,0,0,0,2.42.24h.7c.61,0,1.13,0,1.55.1a4.51,4.51,0,0,1,1.23.34,3,3,0,0,1,1.1.88,5,5,0,0,1,.84,1.64,4.67,4.67,0,0,1-.13,3.77,4.82,4.82,0,0,1-2.88,2.21A5.7,5.7,0,0,1,121,134a3.59,3.59,0,0,1-1.89-.88,5,5,0,0,1-1.08-1.41,11.86,11.86,0,0,1-.65-1.58l2.18-.71a4.71,4.71,0,0,0,1.37,2.25,2.31,2.31,0,0,0,2.31.25,3,3,0,0,0,.68-.33,2.21,2.21,0,0,0,1-1.54,2.71,2.71,0,0,0-.15-1.28,2.51,2.51,0,0,0-.58-1,2.47,2.47,0,0,0-.93-.55,8.07,8.07,0,0,0-2.35-.27h-.66c-.6,0-1.1-.06-1.49-.1a3.26,3.26,0,0,1-1.18-.35,3.33,3.33,0,0,1-1.07-.88,5.08,5.08,0,0,1-.84-1.65,3.74,3.74,0,0,1,.29-3.37,5.1,5.1,0,0,1,2.83-2.06,5.28,5.28,0,0,1,2.44-.3,3.12,3.12,0,0,1,1.66.72,4.34,4.34,0,0,1,1,1.25,11.5,11.5,0,0,1,.63,1.56Z"/><path class="cls-3" d="M126.52,121.12a7.81,7.81,0,0,1,0-2.65,4.4,4.4,0,0,1,1-2.13,4.79,4.79,0,0,1,2.22-1.39,5,5,0,0,1,2.63-.2,4.39,4.39,0,0,1,2.08,1.13,8.53,8.53,0,0,1,1.57,2.12,18.63,18.63,0,0,1,1.2,2.92A18.34,18.34,0,0,1,138,124a7.81,7.81,0,0,1,0,2.65,4.44,4.44,0,0,1-1,2.13,4.73,4.73,0,0,1-2.23,1.38,4.83,4.83,0,0,1-2.62.21,4.39,4.39,0,0,1-2.08-1.13,8.29,8.29,0,0,1-1.57-2.12,20.3,20.3,0,0,1-2-6Zm8.83,6.37a2.87,2.87,0,0,0,.45-1.52,7.69,7.69,0,0,0-.18-2,19.21,19.21,0,0,0-.64-2.35,22,22,0,0,0-.87-2.28,8.4,8.4,0,0,0-1-1.68,2.93,2.93,0,0,0-1.24-1,2.23,2.23,0,0,0-1.55,0,2,2,0,0,0-1.18.89,3,3,0,0,0-.41,1.51,8.46,8.46,0,0,0,.18,1.93,23.07,23.07,0,0,0,.64,2.36,23.42,23.42,0,0,0,.87,2.26,8.57,8.57,0,0,0,1,1.69,3.07,3.07,0,0,0,1.22,1,2,2,0,0,0,1.48,0A2.28,2.28,0,0,0,135.35,127.49Z"/><circle class="cls-9" cx="105.97" cy="156.47" r="19.44"/><path class="cls-3" d="M98,155.21h6.75v-8.59h2.74v8.59h6.75V158h-6.75v8.59h-2.74V158H98Z"/></svg>