<svg id="Camada_1" data-name="Camada 1" xmlns="http://www.w3.org/2000/svg" viewBox="0 0 280 280"><defs><style>.cls-1{fill:#606060;}.cls-2{fill:#cacaca;}.cls-3{fill:#3a418e;}.cls-4{fill:#459b64;}.cls-5{fill:#605f5f;}.cls-6{fill:#295ea3;}.cls-7{opacity:0.5;}.cls-8{fill:#fff;}.cls-9{opacity:0.75;}</style></defs><title>03</title><path class="cls-1" d="M74.19,222.53a.53.53,0,0,1-.44-.14.65.65,0,0,1-.24-.42.6.6,0,0,1,.13-.46.59.59,0,0,1,.41-.24c.74-.09,1.49-.15,2.22-.21s1.47-.08,2.19-.08c.5,0,1,0,1.58.06a11.92,11.92,0,0,1,1.62.24,8.29,8.29,0,0,1,1.51.47,4,4,0,0,1,1.24.78,3.64,3.64,0,0,1,.85,1.18,3.89,3.89,0,0,1,.31,1.63,7.39,7.39,0,0,1-.35,2.37,5.9,5.9,0,0,1-.94,1.78,5.58,5.58,0,0,1-1.34,1.23,8.26,8.26,0,0,1-1.54.78,7.53,7.53,0,0,1-1.54.42,10.31,10.31,0,0,1-1.38.11c-.24,0-.46,0-.65,0l-.49,0a.63.63,0,0,1-.43-.21.55.55,0,0,1-.16-.44.66.66,0,0,1,.23-.44.55.55,0,0,1,.45-.15l.4,0h.52a8,8,0,0,0,1.12-.09,7.09,7.09,0,0,0,1.29-.31,6.67,6.67,0,0,0,1.3-.61,4.6,4.6,0,0,0,1.13-1,4.86,4.86,0,0,0,.8-1.42,5.61,5.61,0,0,0,.3-1.92,2.56,2.56,0,0,0-.56-1.74,3.45,3.45,0,0,0-1.44-1,6.9,6.9,0,0,0-1.87-.41c-.67,0-1.29-.08-1.87-.08s-1.41,0-2.15.08S74.93,222.44,74.19,222.53Zm1.84.72a.63.63,0,0,1,.23-.42.56.56,0,0,1,.45-.14.74.74,0,0,1,.43.24.56.56,0,0,1,.13.46l-1.56,14.1a.69.69,0,0,1-.25.42A.55.55,0,0,1,75,238a.65.65,0,0,1-.42-.24.56.56,0,0,1-.13-.46Z"/><path class="cls-1" d="M94.52,227.19a2.53,2.53,0,0,1,1,1.24,3.26,3.26,0,0,0,.06-.38,1.91,1.91,0,0,1,.07-.28,1.29,1.29,0,0,0,0-.24.41.41,0,0,1,.2-.29.65.65,0,0,1,.36-.1.83.83,0,0,1,.5.16.41.41,0,0,1,.18.43c-.2,1.65-.41,3.27-.62,4.88s-.43,3.23-.63,4.88a.66.66,0,0,1-.25.41.6.6,0,0,1-.46.13.66.66,0,0,1-.41-.25.59.59,0,0,1-.13-.46l.36-2.8A14.56,14.56,0,0,1,93.9,236a8,8,0,0,1-1,1.2,4.68,4.68,0,0,1-1.17.84,3.3,3.3,0,0,1-1.35.35,3.81,3.81,0,0,1-1.64-.33,3.29,3.29,0,0,1-1.19-.93,4.52,4.52,0,0,1-.75-1.41,6.77,6.77,0,0,1-.29-1.79,8.8,8.8,0,0,1,.31-2.69,7.86,7.86,0,0,1,1.1-2.38,5.87,5.87,0,0,1,1.83-1.71,4.74,4.74,0,0,1,2.5-.66,4.08,4.08,0,0,1,1.21.19A3.56,3.56,0,0,1,94.52,227.19Zm.64,2.52a.61.61,0,0,1-.28,0,.64.64,0,0,1-.43-.22.6.6,0,0,1-.17-.46,1,1,0,0,0-.2-.61,1.66,1.66,0,0,0-.52-.42,2.46,2.46,0,0,0-.65-.26,3.29,3.29,0,0,0-.66-.08,3.63,3.63,0,0,0-2,.56,4.68,4.68,0,0,0-1.43,1.44,6.53,6.53,0,0,0-.83,2,7.94,7.94,0,0,0-.22,2.15,5.81,5.81,0,0,0,.19,1.3,3.07,3.07,0,0,0,.45,1,2.19,2.19,0,0,0,1.91.94,2.42,2.42,0,0,0,1.21-.4,4.31,4.31,0,0,0,1-.94,8.4,8.4,0,0,0,.88-1.34c.26-.51.5-1,.72-1.57s.4-1.08.57-1.62S95,230.18,95.16,229.71Z"/><path class="cls-1" d="M108.29,230.29a.59.59,0,0,1-.26.4.55.55,0,0,1-.46.1.58.58,0,0,1-.41-.25.67.67,0,0,1-.12-.47.73.73,0,0,0,0-.25v-.25a2.21,2.21,0,0,0-.2-1,1.68,1.68,0,0,0-.55-.66,2.31,2.31,0,0,0-.82-.39,4.24,4.24,0,0,0-2.8.28,4.07,4.07,0,0,0-1.39,1.12,5.82,5.82,0,0,0-.92,1.71,8,8,0,0,0-.41,2.15,5.8,5.8,0,0,0,.07,1.44,3.93,3.93,0,0,0,.45,1.3,3.14,3.14,0,0,0,.86,1,2.56,2.56,0,0,0,1.3.5,4.54,4.54,0,0,0,1.15-.09,5.36,5.36,0,0,0,1.13-.38,5.18,5.18,0,0,0,1-.6,3.07,3.07,0,0,0,.67-.75.57.57,0,0,1,.37-.29.6.6,0,0,1,.47,0,.69.69,0,0,1,.31.39.59.59,0,0,1-.07.48,4,4,0,0,1-.87,1,5.93,5.93,0,0,1-1.25.8,6.62,6.62,0,0,1-1.46.5,5.52,5.52,0,0,1-1.5.14,3.94,3.94,0,0,1-1.8-.62,4.45,4.45,0,0,1-1.23-1.29,5.54,5.54,0,0,1-.69-1.72,7,7,0,0,1-.13-1.94,9.44,9.44,0,0,1,.53-2.64,6.34,6.34,0,0,1,1.2-2.08,5.23,5.23,0,0,1,4.05-1.85,4.81,4.81,0,0,1,1.5.23,3.54,3.54,0,0,1,1.21.66,2.82,2.82,0,0,1,.82,1.07,3.36,3.36,0,0,1,.3,1.45A6.39,6.39,0,0,1,108.29,230.29Z"/><path class="cls-1" d="M112.05,229.4a5.22,5.22,0,0,1,.27-.87,3,3,0,0,1,.62-.95,3.38,3.38,0,0,1,1.12-.78,4.42,4.42,0,0,1,1.79-.31,3.58,3.58,0,0,1,1.87.46,3.87,3.87,0,0,1,1.26,1.19,5.12,5.12,0,0,1,.71,1.65,7.88,7.88,0,0,1,.22,1.86,9.17,9.17,0,0,1-.36,2.62,6,6,0,0,1-1.07,2.11,5.06,5.06,0,0,1-1.74,1.4,5.22,5.22,0,0,1-2.39.52,4.18,4.18,0,0,1-1.77-.36,3.93,3.93,0,0,1-1.32-1,4.48,4.48,0,0,1-.83-1.44,5.12,5.12,0,0,1-.29-1.71,7.64,7.64,0,0,1,.17-1.61,10.66,10.66,0,0,1,.38-1.35,8.75,8.75,0,0,1,.39-.94l.21-.38a.47.47,0,0,1,.36-.2A.72.72,0,0,1,112.05,229.4Zm.14,1s-.08,0-.16.2a4.45,4.45,0,0,0-.26.69,9.79,9.79,0,0,0-.24,1.1,7.76,7.76,0,0,0-.11,1.41,3.88,3.88,0,0,0,.19,1.24,3,3,0,0,0,.55,1,2.81,2.81,0,0,0,.92.71,3,3,0,0,0,1.27.26,4.05,4.05,0,0,0,1.89-.42,3.67,3.67,0,0,0,1.34-1.13,5,5,0,0,0,.8-1.7,8.09,8.09,0,0,0,.27-2.14,7.14,7.14,0,0,0-.13-1.37,4,4,0,0,0-.46-1.26,2.62,2.62,0,0,0-.86-.92,2.46,2.46,0,0,0-1.35-.35,2.73,2.73,0,0,0-1.5.34,2.29,2.29,0,0,0-.76.76,2.75,2.75,0,0,0-.34,1.11.69.69,0,0,1-.18.46.55.55,0,0,1-.45.19A.49.49,0,0,1,112.19,230.41Z"/><path class="cls-1" d="M122.36,228a.62.62,0,0,1-.44-.18.73.73,0,0,1-.21-.45.6.6,0,0,1,.18-.44.58.58,0,0,1,.44-.19l1.54,0c.06-.27.12-.54.16-.79s.08-.51.13-.78.1-.55.16-.85.11-.61.17-1a.57.57,0,0,1,.25-.41.6.6,0,0,1,.87.16.64.64,0,0,1,.12.46c-.07.42-.16.92-.26,1.48l-.3,1.67,4.48-.1a.63.63,0,0,1,.46.18.56.56,0,0,1,.19.43.65.65,0,0,1-.18.46.59.59,0,0,1-.43.19l-4.75.1c-.26,1.41-.47,2.71-.64,3.9a21,21,0,0,0-.26,3.07,5.66,5.66,0,0,0,.13,1.4c.09.34.24.51.46.51a3.08,3.08,0,0,0,1.52-.33,3.31,3.31,0,0,0,.92-.7,3.26,3.26,0,0,0,.58-1,.59.59,0,0,1,.28-.39.58.58,0,0,1,.48-.06.66.66,0,0,1,.39.28.56.56,0,0,1,.06.47,5.4,5.4,0,0,1-.32.79,5.78,5.78,0,0,1-.49.72,4.14,4.14,0,0,1-.77.72,4.57,4.57,0,0,1-1.13.55,4.67,4.67,0,0,1-1.52.23,1.48,1.48,0,0,1-1.44-.84,5.29,5.29,0,0,1-.41-2.33,21.93,21.93,0,0,1,.25-3.07c.17-1.18.37-2.47.61-3.86Z"/><path class="cls-1" d="M134.22,232.86a.59.59,0,0,1-.44-.22.62.62,0,0,1-.15-.45.68.68,0,0,1,.23-.44.65.65,0,0,1,.45-.15c.9.07,1.79.11,2.65.11.49,0,1,0,1.41-.05a9.07,9.07,0,0,0,1.19-.14,3.73,3.73,0,0,0,.85-.26.71.71,0,0,0,.4-.4,3.36,3.36,0,0,0,.09-.72,2.61,2.61,0,0,0-.23-1.1,2.37,2.37,0,0,0-.65-.82,2.89,2.89,0,0,0-1-.53,4.06,4.06,0,0,0-1.23-.18,3.57,3.57,0,0,0-2,.54,4.45,4.45,0,0,0-1.38,1.35,5.91,5.91,0,0,0-.8,1.81,7.37,7.37,0,0,0-.26,1.92,6.9,6.9,0,0,0,.14,1.32,4.56,4.56,0,0,0,.46,1.27,2.83,2.83,0,0,0,.83.95,2.14,2.14,0,0,0,1.27.37,5,5,0,0,0,1.64-.24,5.63,5.63,0,0,0,1.15-.52,3.42,3.42,0,0,0,.88-.74.63.63,0,0,1,.42-.23.63.63,0,0,1,.48.12.59.59,0,0,1,.22.43.6.6,0,0,1-.13.46,6,6,0,0,1-1.15,1,7.31,7.31,0,0,1-1.45.67,6.33,6.33,0,0,1-2.06.31,3.24,3.24,0,0,1-1.77-.47,4,4,0,0,1-1.25-1.22,5.41,5.41,0,0,1-.73-1.66,7.63,7.63,0,0,1-.23-1.82,8.36,8.36,0,0,1,.36-2.36,7.6,7.6,0,0,1,1.07-2.22,5.85,5.85,0,0,1,1.78-1.65,4.78,4.78,0,0,1,2.5-.65,5.2,5.2,0,0,1,1.76.29,4.08,4.08,0,0,1,1.36.8,3.59,3.59,0,0,1,.88,1.25,3.93,3.93,0,0,1,.32,1.59,3.55,3.55,0,0,1,0,.46l-.06.47a1.53,1.53,0,0,1-.56.88,3.52,3.52,0,0,1-1.15.56,8.3,8.3,0,0,1-1.55.32,15.14,15.14,0,0,1-1.82.1l-1.38,0C135.11,232.92,134.66,232.9,134.22,232.86Z"/><path class="cls-1" d="M151.92,230.21a.57.57,0,0,1-.36-.32.6.6,0,0,1,0-.49,1,1,0,0,0-.12-.66,1.47,1.47,0,0,0-.48-.48,2.64,2.64,0,0,0-.73-.28,4,4,0,0,0-.85-.09,7.24,7.24,0,0,0-1.09.1,5.09,5.09,0,0,0-1.11.33,2.67,2.67,0,0,0-.9.62,1.57,1.57,0,0,0-.45.93,1.18,1.18,0,0,0,.3.83,2.2,2.2,0,0,0,.74.52,4.71,4.71,0,0,0,.94.31l.89.16a9.42,9.42,0,0,1,1.36.35,6.13,6.13,0,0,1,1.34.64,3.59,3.59,0,0,1,1,.95,1.75,1.75,0,0,1,.28,1.26,2.48,2.48,0,0,1-.45,1.3,4.05,4.05,0,0,1-1,1,5.15,5.15,0,0,1-2.84.86,4.49,4.49,0,0,1-1.66-.3,7.29,7.29,0,0,1-1.34-.69,6.87,6.87,0,0,1-1.21-1,.57.57,0,0,1-.2-.43.65.65,0,0,1,.62-.65.62.62,0,0,1,.45.17,7.88,7.88,0,0,0,1,.82,6,6,0,0,0,1.07.56,3.25,3.25,0,0,0,1.28.25,3.7,3.7,0,0,0,1-.14,3.88,3.88,0,0,0,1-.4,2.87,2.87,0,0,0,.74-.64,1.57,1.57,0,0,0,.36-.85.79.79,0,0,0-.28-.68,2.75,2.75,0,0,0-.79-.54,6,6,0,0,0-1-.39c-.34-.1-.63-.18-.87-.23q-.62-.1-1.35-.3a4.88,4.88,0,0,1-1.34-.57,3.12,3.12,0,0,1-1-.93,2.1,2.1,0,0,1-.26-1.42,2.63,2.63,0,0,1,.6-1.38,3.91,3.91,0,0,1,1.17-1,5.58,5.58,0,0,1,1.48-.55,7.83,7.83,0,0,1,1.56-.17,4.71,4.71,0,0,1,1.31.18,3.83,3.83,0,0,1,1.1.51,2.48,2.48,0,0,1,.78.8,2,2,0,0,1,.28,1.07,1.6,1.6,0,0,1-.14.66.6.6,0,0,1-.32.36A.64.64,0,0,1,151.92,230.21Z"/><path class="cls-1" d="M164.28,228.52a.61.61,0,0,1-.44-.19.62.62,0,0,1,0-.89.64.64,0,0,1,.44-.18h1.23c.13-.85.29-1.64.48-2.38a10.38,10.38,0,0,1,.69-1.92,4,4,0,0,1,.92-1.28,1.9,1.9,0,0,1,1.24-.48,4.49,4.49,0,0,1,1.36.13,3.9,3.9,0,0,1,1.19.52,3,3,0,0,1,.85.89,2.36,2.36,0,0,1,.32,1.26,2.59,2.59,0,0,1-.1.74.65.65,0,0,1-.3.39.58.58,0,0,1-.48.06.64.64,0,0,1-.39-.29.62.62,0,0,1-.06-.48,1.39,1.39,0,0,0,0-.93,1.47,1.47,0,0,0-.54-.62,2.42,2.42,0,0,0-.84-.33,3.5,3.5,0,0,0-1-.08,1.06,1.06,0,0,0-.73.37,3.34,3.34,0,0,0-.58,1,10.32,10.32,0,0,0-.45,1.52c-.13.59-.25,1.23-.36,1.91h2.9a.63.63,0,0,1,.63.63.61.61,0,0,1-.19.44.59.59,0,0,1-.44.19h-3.06c-.18,1.48-.32,2.95-.43,4.43s-.23,3-.38,4.54a.67.67,0,0,1-.24.42.53.53,0,0,1-.45.13.68.68,0,0,1-.42-.23.53.53,0,0,1-.13-.45q.09-1,.18-2.13t.18-2.28c.06-.77.12-1.53.19-2.29s.15-1.47.24-2.14Z"/><path class="cls-1" d="M172.76,227.43A.69.69,0,0,1,173,227a.54.54,0,0,1,.46-.13.65.65,0,0,1,.43.24.56.56,0,0,1,.13.46l-1.11,9.92a.72.72,0,0,1-.24.42.53.53,0,0,1-.45.13.63.63,0,0,1-.42-.23.57.57,0,0,1-.14-.47Zm.47-4.81a.61.61,0,0,1,.24-.42.59.59,0,0,1,.46-.12.61.61,0,0,1,.43.23.56.56,0,0,1,.13.45l-.09.63a.63.63,0,0,1-1.12.32.59.59,0,0,1-.12-.46Z"/><path class="cls-1" d="M177.51,237.54a.52.52,0,0,1-.33.32.69.69,0,0,1-.49,0,.57.57,0,0,1-.33-.35.64.64,0,0,1,0-.47,6.22,6.22,0,0,1,.48-.85c.22-.34.48-.71.77-1.12s.62-.86,1-1.33l1.1-1.42c-.3-.48-.6-1-.89-1.44s-.56-.94-.81-1.39-.46-.85-.66-1.24a8.4,8.4,0,0,1-.43-1,.59.59,0,0,1,0-.47.6.6,0,0,1,.36-.32.64.64,0,0,1,.49,0,.6.6,0,0,1,.32.36,7,7,0,0,0,.37.87c.16.33.35.69.57,1.07s.45.79.7,1.22.51.85.79,1.29c.37-.47.73-.92,1.06-1.36s.64-.84.9-1.2.48-.67.65-.93a2.1,2.1,0,0,0,.29-.55.54.54,0,0,1,.26-.41.59.59,0,0,1,.48-.09.64.64,0,0,1,.39.27.56.56,0,0,1,.09.47,2.35,2.35,0,0,1-.36.77c-.2.34-.46.73-.77,1.16s-.67.92-1.06,1.43-.79,1-1.21,1.55c.38.6.76,1.18,1.12,1.72s.7,1,1,1.44.6.88,1,1.38a.54.54,0,0,1,.12.46.58.58,0,0,1-.26.4.63.63,0,0,1-.48.1.62.62,0,0,1-.41-.24l-.86-1.26-.91-1.34-1.07-1.61c-.34.43-.66.85-1,1.27s-.61.8-.87,1.16-.49.68-.68,1a3.73,3.73,0,0,0-.39.69Z"/><path class="cls-1" d="M188.12,229.4a3.84,3.84,0,0,1,.27-.87,2.88,2.88,0,0,1,.62-.95,3.28,3.28,0,0,1,1.12-.78,4.37,4.37,0,0,1,1.78-.31,3.59,3.59,0,0,1,1.88.46,3.87,3.87,0,0,1,1.26,1.19,5.12,5.12,0,0,1,.71,1.65,7.88,7.88,0,0,1,.22,1.86,9.17,9.17,0,0,1-.36,2.62,6.18,6.18,0,0,1-1.07,2.11,5.1,5.1,0,0,1-1.75,1.4,5.18,5.18,0,0,1-2.38.52,4.18,4.18,0,0,1-1.77-.36,3.87,3.87,0,0,1-1.33-1,4.46,4.46,0,0,1-.82-1.44,4.88,4.88,0,0,1-.29-1.71,7,7,0,0,1,.17-1.61,10.66,10.66,0,0,1,.38-1.35,7.09,7.09,0,0,1,.39-.94l.21-.38a.44.44,0,0,1,.36-.2A.74.74,0,0,1,188.12,229.4Zm.14,1s-.08,0-.16.2a3.62,3.62,0,0,0-.26.69c-.09.31-.17.68-.25,1.1a8.82,8.82,0,0,0-.1,1.41,4.18,4.18,0,0,0,.18,1.24,3.15,3.15,0,0,0,.56,1,2.71,2.71,0,0,0,.92.71,3,3,0,0,0,1.27.26,4.05,4.05,0,0,0,1.89-.42,3.67,3.67,0,0,0,1.34-1.13,5.24,5.24,0,0,0,.8-1.7,8.09,8.09,0,0,0,.27-2.14,7.14,7.14,0,0,0-.13-1.37,4.3,4.3,0,0,0-.46-1.26,2.65,2.65,0,0,0-.87-.92,2.46,2.46,0,0,0-1.35-.35,2.72,2.72,0,0,0-1.49.34,2.43,2.43,0,0,0-.77.76,2.92,2.92,0,0,0-.33,1.11.65.65,0,0,1-.19.46.52.52,0,0,1-.44.19A.49.49,0,0,1,188.26,230.41Z"/><path class="cls-1" d="M205.77,230.21a.63.63,0,0,1-.36-.32.6.6,0,0,1,0-.49,1,1,0,0,0-.11-.66,1.5,1.5,0,0,0-.49-.48,2.52,2.52,0,0,0-.73-.28,3.93,3.93,0,0,0-.84-.09,7.24,7.24,0,0,0-1.09.1,5.18,5.18,0,0,0-1.12.33,2.89,2.89,0,0,0-.9.62,1.56,1.56,0,0,0-.44.93,1.18,1.18,0,0,0,.3.83,2.06,2.06,0,0,0,.73.52,4.81,4.81,0,0,0,.95.31l.88.16a9.42,9.42,0,0,1,1.36.35,5.92,5.92,0,0,1,1.34.64,3.33,3.33,0,0,1,1,.95,1.75,1.75,0,0,1,.29,1.26,2.58,2.58,0,0,1-.46,1.3,3.9,3.9,0,0,1-1,1,4.93,4.93,0,0,1-1.35.64,5.11,5.11,0,0,1-1.48.22,4.55,4.55,0,0,1-1.67-.3,7.62,7.62,0,0,1-1.34-.69,7.18,7.18,0,0,1-1.2-1,.61.61,0,0,1-.21-.43.59.59,0,0,1,.19-.45.57.57,0,0,1,.43-.2.59.59,0,0,1,.45.17,7.26,7.26,0,0,0,1,.82,6.19,6.19,0,0,0,1.06.56,3.3,3.3,0,0,0,1.29.25,3.7,3.7,0,0,0,1-.14,4.24,4.24,0,0,0,.95-.4,3.05,3.05,0,0,0,.74-.64,1.73,1.73,0,0,0,.36-.85.82.82,0,0,0-.28-.68,2.9,2.9,0,0,0-.79-.54,6,6,0,0,0-1-.39c-.35-.1-.64-.18-.88-.23q-.6-.1-1.35-.3a4.88,4.88,0,0,1-1.34-.57,3.08,3.08,0,0,1-1-.93,2,2,0,0,1-.26-1.42,2.62,2.62,0,0,1,.59-1.38,4.18,4.18,0,0,1,1.17-1,5.65,5.65,0,0,1,1.49-.55,7.68,7.68,0,0,1,1.56-.17,4.64,4.64,0,0,1,1.3.18,3.89,3.89,0,0,1,1.11.51,2.45,2.45,0,0,1,.77.8,2,2,0,0,1,.29,1.07,1.78,1.78,0,0,1-.14.66.59.59,0,0,1-.33.36A.64.64,0,0,1,205.77,230.21Z"/><path class="cls-2" d="M262,3a15,15,0,0,1,15,15V262a15,15,0,0,1-15,15H18A15,15,0,0,1,3,262V18A15,15,0,0,1,18,3H262m0-1H18A16,16,0,0,0,2,18V262a16,16,0,0,0,16,16H262a16,16,0,0,0,16-16V18A16,16,0,0,0,262,2Z"/><path class="cls-3" d="M156.84,158.57H65.19a3.71,3.71,0,0,1-3.71-3.71V86l12.84,21.45h82.52a3.7,3.7,0,0,1,3.7,3.7v43.74A3.7,3.7,0,0,1,156.84,158.57Z"/><path class="cls-4" d="M106.61,62.53a1.3,1.3,0,0,0-.12-.55,1.21,1.21,0,0,0-.84-.66L84.56,51.09a1.21,1.21,0,0,0-1.08,0L62.19,61.41a1.24,1.24,0,0,0-.71,1.08h0V88.44a1.22,1.22,0,0,0,.71,1.11L83.48,99.87h0l.09.05h0l.1,0h0l.1,0h.33l.11,0h0l.09,0h0a.2.2,0,0,0,.09-.05h0l21.36-10.35a1.24,1.24,0,0,0,.7-1.11V62.56S106.61,62.54,106.61,62.53ZM84,53.58l18.46,9-6.8,3.3-18.46-9Zm0,17.91L65.55,62.54l8.82-4.28,18.47,9ZM64,64.54l18.8,9.11V96.77L64,87.65ZM85.26,96.77V73.65l8.83-4.28v6a1.24,1.24,0,1,0,2.48,0V68.16l7.56-3.67V87.61Z"/><path class="cls-5" d="M162,62.53a1.3,1.3,0,0,0-.12-.55,1.21,1.21,0,0,0-.84-.66L140,51.09a1.23,1.23,0,0,0-1.09,0L117.58,61.41a1.24,1.24,0,0,0-.71,1.08h0V88.44a1.22,1.22,0,0,0,.71,1.11l21.29,10.32h0l.09.05H139l.09,0h0l.1,0h.33l.11,0h0l.09,0h0a.24.24,0,0,0,.1-.05h0l21.35-10.35a1.24,1.24,0,0,0,.71-1.11V62.56S162,62.54,162,62.53Zm-22.59-9,18.46,9-6.8,3.3-18.46-9Zm0,17.91-18.47-8.95,8.82-4.28,18.47,9Zm-20-6.95,18.81,9.11V96.77l-18.81-9.12Zm21.29,32.23V73.65l8.83-4.28v6a1.24,1.24,0,1,0,2.48,0V68.16l7.56-3.67V87.61Z"/><path class="cls-5" d="M220,62.53a1.3,1.3,0,0,0-.12-.55,1.21,1.21,0,0,0-.84-.66L197.93,51.09a1.23,1.23,0,0,0-1.09,0L175.55,61.41a1.25,1.25,0,0,0-.7,1.08h0V88.44a1.23,1.23,0,0,0,.7,1.11l21.29,10.32h0l.09.05h0l.09,0h0l.11,0h.33l.1,0h0l.1,0h0a.2.2,0,0,0,.09-.05h0L219.3,89.52a1.24,1.24,0,0,0,.7-1.11V62.56S220,62.54,220,62.53Zm-22.6-9,18.47,9-6.8,3.3-18.47-9Zm0,17.91-18.46-8.95,8.82-4.28,18.46,9Zm-20-6.95,18.81,9.11V96.77l-18.81-9.12Zm21.29,32.23V73.65l8.83-4.28v6a1.25,1.25,0,1,0,2.49,0V68.16l7.56-3.67V87.61Z"/><path class="cls-6" d="M156.84,161H65.19a3.7,3.7,0,0,1-3.71-3.7V88.44l12.84,21.45h82.52a3.69,3.69,0,0,1,3.7,3.7v43.74A3.69,3.69,0,0,1,156.84,161Z"/><g class="cls-7"><rect class="cls-8" x="60" y="126.89" width="100.54" height="0.59"/></g><g class="cls-7"><rect class="cls-8" x="60" y="144.18" width="100.54" height="0.59"/></g><g class="cls-9"><path class="cls-8" d="M108.18,115.2H67.68a.38.38,0,0,1,0-.75h40.5a.38.38,0,0,1,0,.75Z"/><g class="cls-7"><path class="cls-8" d="M92.87,119.15H67.68a.38.38,0,0,1,0-.75H92.87a.38.38,0,0,1,0,.75Z"/></g><g class="cls-7"><path class="cls-8" d="M92.87,122.64H67.68a.38.38,0,0,1,0-.75H92.87a.38.38,0,0,1,0,.75Z"/></g></g><g class="cls-9"><path class="cls-8" d="M108.18,132.49H67.68a.38.38,0,0,1-.37-.38.37.37,0,0,1,.37-.37h40.5a.36.36,0,0,1,.37.37A.37.37,0,0,1,108.18,132.49Z"/><g class="cls-7"><path class="cls-8" d="M92.87,136.44H67.68a.38.38,0,0,1-.37-.38.37.37,0,0,1,.37-.37H92.87a.36.36,0,0,1,.37.37A.37.37,0,0,1,92.87,136.44Z"/></g><g class="cls-7"><path class="cls-8" d="M92.87,139.93H67.68a.38.38,0,0,1-.37-.38.37.37,0,0,1,.37-.37H92.87a.36.36,0,0,1,.37.37A.37.37,0,0,1,92.87,139.93Z"/></g></g><g class="cls-9"><path class="cls-8" d="M108.18,149.28H67.68a.38.38,0,0,1-.37-.38.37.37,0,0,1,.37-.37h40.5a.36.36,0,0,1,.37.37A.37.37,0,0,1,108.18,149.28Z"/><g class="cls-7"><path class="cls-8" d="M92.87,153.23H67.68a.38.38,0,0,1,0-.75H92.87a.38.38,0,0,1,0,.75Z"/></g><g class="cls-7"><path class="cls-8" d="M92.87,156.72H67.68a.38.38,0,0,1,0-.75H92.87a.38.38,0,0,1,0,.75Z"/></g></g><path class="cls-4" d="M138.43,110h17.91a4.2,4.2,0,0,1,4.2,4.2V127a0,0,0,0,1,0,0H138.43a0,0,0,0,1,0,0V110A0,0,0,0,1,138.43,110Z"/><path class="cls-8" d="M143.05,119.35a.6.6,0,0,1-.18-.4.58.58,0,0,1,.18-.4l.79-.81a.55.55,0,0,1,.8,0l.06.06,3.13,3.39a.27.27,0,0,0,.4,0l7.63-8h0a.55.55,0,0,1,.8,0l.8.81a.57.57,0,0,1,0,.8h0l-9.11,9.56a.51.51,0,0,1-.4.17.5.5,0,0,1-.4-.17l-4.44-4.84Z"/></svg>