<svg id="Camada_1" data-name="Camada 1" xmlns="http://www.w3.org/2000/svg" viewBox="0 0 280 280"><defs><style>.cls-1{fill:#606060;}.cls-2{fill:#cacaca;}.cls-3{fill:#3a418e;}.cls-4{fill:#459b64;}.cls-5{fill:#605f5f;}.cls-6{fill:#295ea3;}.cls-7{fill:#57585a;}.cls-8{opacity:0.5;}.cls-9{fill:#fff;}.cls-10{opacity:0.75;}</style></defs><title>04</title><path class="cls-1" d="M101.12,211a.53.53,0,0,1-.45-.13.68.68,0,0,1-.23-.42.59.59,0,0,1,.12-.46.66.66,0,0,1,.42-.25c.74-.08,1.48-.15,2.22-.2s1.47-.08,2.19-.08c.5,0,1,0,1.58.06a12.39,12.39,0,0,1,1.62.23,8.75,8.75,0,0,1,1.5.47,4.41,4.41,0,0,1,1.25.78,3.73,3.73,0,0,1,.84,1.18,3.92,3.92,0,0,1,.32,1.63,7.5,7.5,0,0,1-.35,2.38,6.21,6.21,0,0,1-.94,1.77,5.37,5.37,0,0,1-1.34,1.23,8,8,0,0,1-1.54.79,8.27,8.27,0,0,1-1.55.41,9,9,0,0,1-1.37.12l-.65,0-.49,0a.64.64,0,0,1-.43-.2.54.54,0,0,1-.16-.44.69.69,0,0,1,.22-.44.59.59,0,0,1,.46-.16l.4,0h.52a8.09,8.09,0,0,0,1.12-.09,7.15,7.15,0,0,0,1.29-.32,6.14,6.14,0,0,0,1.3-.61,4.51,4.51,0,0,0,1.12-1,4.77,4.77,0,0,0,.8-1.42,5.43,5.43,0,0,0,.31-1.93,2.49,2.49,0,0,0-.57-1.73,3.53,3.53,0,0,0-1.43-1,6.9,6.9,0,0,0-1.87-.4c-.67-.06-1.3-.08-1.87-.08s-1.42,0-2.15.08S101.85,210.93,101.12,211Zm1.84.72a.68.68,0,0,1,.23-.42.53.53,0,0,1,.45-.13.61.61,0,0,1,.42.24.57.57,0,0,1,.14.46L102.63,226a.61.61,0,0,1-.24.42.57.57,0,0,1-.46.14.61.61,0,0,1-.42-.24.57.57,0,0,1-.14-.46Z"/><path class="cls-1" d="M121.44,215.68a2.51,2.51,0,0,1,1,1.24c0-.15,0-.27.06-.38s0-.2.06-.29a.74.74,0,0,0,0-.23.42.42,0,0,1,.2-.3.75.75,0,0,1,.36-.1.87.87,0,0,1,.49.16.43.43,0,0,1,.19.44c-.2,1.64-.41,3.27-.63,4.87s-.42,3.24-.63,4.88a.61.61,0,0,1-.24.42.59.59,0,0,1-.46.12.57.57,0,0,1-.41-.24.6.6,0,0,1-.13-.46l.36-2.81a11.3,11.3,0,0,1-.84,1.44,7.08,7.08,0,0,1-1,1.21,4.63,4.63,0,0,1-1.17.83,3.47,3.47,0,0,1-1.35.36,3.76,3.76,0,0,1-1.63-.34,3.38,3.38,0,0,1-1.19-.92,4.1,4.1,0,0,1-.75-1.42,7,7,0,0,1-.3-1.79,8.75,8.75,0,0,1,.32-2.68,7.69,7.69,0,0,1,1.1-2.39,5.83,5.83,0,0,1,1.82-1.71,4.89,4.89,0,0,1,2.51-.65,3.78,3.78,0,0,1,1.21.19A3.29,3.29,0,0,1,121.44,215.68Zm.65,2.52a.84.84,0,0,1-.29.05.71.71,0,0,1-.43-.23.56.56,0,0,1-.16-.45A1,1,0,0,0,121,217a1.91,1.91,0,0,0-.51-.42,2.37,2.37,0,0,0-.66-.25,2.56,2.56,0,0,0-.65-.08,3.52,3.52,0,0,0-2,.56,4.57,4.57,0,0,0-1.43,1.44,6.1,6.1,0,0,0-.83,2,7.92,7.92,0,0,0-.23,2.15,7,7,0,0,0,.19,1.29,3.14,3.14,0,0,0,.46,1,2.13,2.13,0,0,0,.78.68,2.33,2.33,0,0,0,1.13.26,2.56,2.56,0,0,0,1.21-.4,4.34,4.34,0,0,0,1-1,7.37,7.37,0,0,0,.87-1.34,13.83,13.83,0,0,0,.72-1.56c.22-.54.41-1.08.58-1.62S122,218.66,122.09,218.2Z"/><path class="cls-1" d="M135.21,218.77a.55.55,0,0,1-.25.41.6.6,0,0,1-.47.1.59.59,0,0,1-.4-.26.64.64,0,0,1-.12-.46.78.78,0,0,0,0-.26v-.25a2.19,2.19,0,0,0-.2-1,1.89,1.89,0,0,0-.55-.67,2.38,2.38,0,0,0-.82-.38,3.63,3.63,0,0,0-1-.13,4.1,4.1,0,0,0-1.8.4,4.19,4.19,0,0,0-1.38,1.13,5.66,5.66,0,0,0-.92,1.7,8,8,0,0,0-.42,2.15,5.81,5.81,0,0,0,.08,1.44,4,4,0,0,0,.45,1.31,3.11,3.11,0,0,0,.85,1,2.62,2.62,0,0,0,1.31.49,3.8,3.8,0,0,0,1.15-.09,4.62,4.62,0,0,0,1.12-.38,4.52,4.52,0,0,0,1-.6,2.7,2.7,0,0,0,.66-.75.61.61,0,0,1,.37-.28.62.62,0,0,1,.48.05.7.7,0,0,1,.31.39.57.57,0,0,1-.08.47,3.65,3.65,0,0,1-.86,1,5.93,5.93,0,0,1-1.25.8,7.21,7.21,0,0,1-1.46.51,5.51,5.51,0,0,1-1.5.13,3.82,3.82,0,0,1-1.8-.62,4.13,4.13,0,0,1-1.24-1.29,5.57,5.57,0,0,1-.68-1.72,6.55,6.55,0,0,1-.13-1.93,8.91,8.91,0,0,1,.53-2.65,6.56,6.56,0,0,1,1.19-2.07,5.32,5.32,0,0,1,1.78-1.36,5.2,5.2,0,0,1,2.27-.49,4.64,4.64,0,0,1,1.51.23,3.45,3.45,0,0,1,1.21.65,3.09,3.09,0,0,1,.82,1.07,3.39,3.39,0,0,1,.3,1.45A4.56,4.56,0,0,1,135.21,218.77Z"/><path class="cls-1" d="M139,217.89a4.53,4.53,0,0,1,.28-.87,3,3,0,0,1,.62-1,3.41,3.41,0,0,1,1.12-.77,4.36,4.36,0,0,1,1.78-.32,3.65,3.65,0,0,1,1.87.46,4,4,0,0,1,1.27,1.19,5.27,5.27,0,0,1,.71,1.66,7.82,7.82,0,0,1,.22,1.86,9.17,9.17,0,0,1-.36,2.62,6.13,6.13,0,0,1-1.07,2.1,5,5,0,0,1-1.75,1.41,5.31,5.31,0,0,1-2.38.51,4.18,4.18,0,0,1-1.77-.36,3.87,3.87,0,0,1-1.33-1,4.31,4.31,0,0,1-.82-1.43,4.88,4.88,0,0,1-.29-1.71,7,7,0,0,1,.17-1.61,10.66,10.66,0,0,1,.38-1.35,7.3,7.3,0,0,1,.39-1c.13-.24.2-.36.21-.37a.44.44,0,0,1,.36-.2A.68.68,0,0,1,139,217.89Zm.15,1s-.08,0-.16.2a3.15,3.15,0,0,0-.26.69,10.93,10.93,0,0,0-.25,1.1,8.59,8.59,0,0,0-.11,1.41,4.16,4.16,0,0,0,.19,1.23,3.31,3.31,0,0,0,.56,1,2.68,2.68,0,0,0,.92.7,3,3,0,0,0,1.27.26,4.18,4.18,0,0,0,1.89-.41,3.8,3.8,0,0,0,1.34-1.14,5.14,5.14,0,0,0,.8-1.7,8,8,0,0,0,.27-2.13,7.16,7.16,0,0,0-.13-1.38,4.3,4.3,0,0,0-.46-1.26,2.71,2.71,0,0,0-.87-.91,2.38,2.38,0,0,0-1.35-.36,2.69,2.69,0,0,0-1.49.35,2.41,2.41,0,0,0-.77.75,3,3,0,0,0-.33,1.12.65.65,0,0,1-.19.46.52.52,0,0,1-.44.19A.5.5,0,0,1,139.12,218.9Z"/><path class="cls-1" d="M149.29,216.5a.6.6,0,0,1-.44-.18.61.61,0,0,1,0-.89.59.59,0,0,1,.43-.19l1.55,0c.06-.28.11-.54.15-.79s.09-.52.14-.79l.15-.84c.06-.3.11-.62.17-1a.62.62,0,0,1,.25-.4.67.67,0,0,1,.47-.12.68.68,0,0,1,.41.27.67.67,0,0,1,.12.47c-.08.42-.16.91-.27,1.48s-.2,1.12-.29,1.67l4.48-.11a.65.65,0,0,1,.46.18.61.61,0,0,1,.19.43.63.63,0,0,1-.18.46.57.57,0,0,1-.43.19l-4.76.11c-.25,1.4-.46,2.7-.64,3.9a22.23,22.23,0,0,0-.26,3.07,5.64,5.64,0,0,0,.14,1.4c.09.34.24.5.46.5a3.09,3.09,0,0,0,1.52-.32,3.69,3.69,0,0,0,.92-.7,3.53,3.53,0,0,0,.58-1,.55.55,0,0,1,.28-.38.58.58,0,0,1,.48-.07.69.69,0,0,1,.38.29.59.59,0,0,1,.07.47,4.81,4.81,0,0,1-.33.78,5.61,5.61,0,0,1-.48.72,3.88,3.88,0,0,1-.78.72,4.34,4.34,0,0,1-1.12.56,4.72,4.72,0,0,1-1.52.22,1.47,1.47,0,0,1-1.44-.83,5.3,5.3,0,0,1-.42-2.33,22,22,0,0,1,.26-3.07c.16-1.18.37-2.47.61-3.86Z"/><path class="cls-1" d="M161.15,221.35a.65.65,0,0,1-.44-.22.58.58,0,0,1-.15-.45.66.66,0,0,1,.23-.44.58.58,0,0,1,.45-.15c.9.07,1.78.1,2.65.1.49,0,1,0,1.41,0a11.18,11.18,0,0,0,1.19-.14,3.46,3.46,0,0,0,.84-.27.69.69,0,0,0,.41-.39,3.52,3.52,0,0,0,.09-.72,2.44,2.44,0,0,0-.24-1.1,2.47,2.47,0,0,0-.64-.83,3,3,0,0,0-1-.52,4.08,4.08,0,0,0-1.24-.18,3.67,3.67,0,0,0-2,.53,4.76,4.76,0,0,0-1.37,1.35,6,6,0,0,0-.8,1.82,7.28,7.28,0,0,0-.27,1.92,6.22,6.22,0,0,0,.15,1.32,4.47,4.47,0,0,0,.46,1.27,2.69,2.69,0,0,0,.83.94,2.07,2.07,0,0,0,1.26.37,5.23,5.23,0,0,0,1.64-.23,5.94,5.94,0,0,0,1.15-.52,3.51,3.51,0,0,0,.89-.74.69.69,0,0,1,.42-.24.65.65,0,0,1,.48.13.62.62,0,0,1,.22.42.57.57,0,0,1-.13.46,6.08,6.08,0,0,1-1.16,1,6.94,6.94,0,0,1-1.44.68,6.41,6.41,0,0,1-2.07.3,3.21,3.21,0,0,1-1.77-.47A4,4,0,0,1,160,225.1a5.47,5.47,0,0,1-.73-1.67,7.08,7.08,0,0,1-.23-1.81,8.31,8.31,0,0,1,.36-2.36,7.14,7.14,0,0,1,1.07-2.22,5.85,5.85,0,0,1,1.78-1.65,4.74,4.74,0,0,1,2.49-.65,5.21,5.21,0,0,1,1.77.29,4.18,4.18,0,0,1,1.36.8,3.68,3.68,0,0,1,.88,1.24,4,4,0,0,1,.31,1.59c0,.16,0,.31,0,.46s0,.31-.07.48a1.41,1.41,0,0,1-.55.87,3.54,3.54,0,0,1-1.15.57,8.33,8.33,0,0,1-1.55.31,15.25,15.25,0,0,1-1.82.1l-1.38,0Z"/><path class="cls-1" d="M178.84,218.7a.61.61,0,0,1-.35-.32.53.53,0,0,1,0-.49,1.08,1.08,0,0,0-.12-.67,1.38,1.38,0,0,0-.49-.47,2.27,2.27,0,0,0-.73-.28,3.93,3.93,0,0,0-.84-.09,6.13,6.13,0,0,0-1.09.1,4.37,4.37,0,0,0-1.12.33,3,3,0,0,0-.9.61,1.65,1.65,0,0,0-.44.94,1.19,1.19,0,0,0,.3.83,2.24,2.24,0,0,0,.74.52,4.69,4.69,0,0,0,.94.3c.34.08.63.13.88.17a8,8,0,0,1,1.36.35,5.52,5.52,0,0,1,1.34.64,3.43,3.43,0,0,1,1,.94,1.74,1.74,0,0,1,.29,1.27,2.52,2.52,0,0,1-.46,1.3,4,4,0,0,1-1,1,5.44,5.44,0,0,1-1.36.63,5.12,5.12,0,0,1-1.48.23,4.3,4.3,0,0,1-1.66-.31,7.28,7.28,0,0,1-1.34-.68,7.89,7.89,0,0,1-1.21-1,.64.64,0,0,1,.41-1.09.63.63,0,0,1,.45.17,7.27,7.27,0,0,0,1,.83A7,7,0,0,0,174,225a3.33,3.33,0,0,0,1.29.25,4.12,4.12,0,0,0,1-.14,4.07,4.07,0,0,0,.95-.41,2.85,2.85,0,0,0,.74-.64,1.66,1.66,0,0,0,.36-.84.84.84,0,0,0-.28-.69,3.22,3.22,0,0,0-.79-.54,7,7,0,0,0-1-.38,8.35,8.35,0,0,0-.88-.23,13.13,13.13,0,0,1-1.34-.31,5.26,5.26,0,0,1-1.35-.56,3.11,3.11,0,0,1-1-.94,2.09,2.09,0,0,1-.26-1.41,2.69,2.69,0,0,1,.59-1.39,4.32,4.32,0,0,1,1.17-.95,5.43,5.43,0,0,1,1.49-.55,7.68,7.68,0,0,1,1.56-.17,4.64,4.64,0,0,1,1.3.18,4,4,0,0,1,1.11.5,2.66,2.66,0,0,1,.77.8,2.07,2.07,0,0,1,.29,1.07,1.83,1.83,0,0,1-.14.67.55.55,0,0,1-.33.35A.59.59,0,0,1,178.84,218.7Z"/><path class="cls-1" d="M69.08,253.61c0,.16-.07.31-.1.46s0,.3-.08.44L68,262a.46.46,0,0,1-.21.34.7.7,0,0,1-.38.11.85.85,0,0,1-.47-.13.39.39,0,0,1-.2-.39c0-.73.1-1.4.16-2s.14-1.32.24-2.13.22-1.66.37-2.55l1-8.92a.68.68,0,0,1,.23-.43.53.53,0,0,1,.45-.13.59.59,0,0,1,.43.24.6.6,0,0,1,.13.46l-.16,1.42a7.6,7.6,0,0,1,1.48-2.1,2.72,2.72,0,0,1,1.92-.8,3.47,3.47,0,0,1,1.94.54,4.41,4.41,0,0,1,1.37,1.35,6.14,6.14,0,0,1,.8,1.83,7.48,7.48,0,0,1,.26,1.95,7.7,7.7,0,0,1-.29,2.1,6.17,6.17,0,0,1-.88,1.95,4.84,4.84,0,0,1-1.48,1.44,3.86,3.86,0,0,1-2.12.56,3.21,3.21,0,0,1-1.58-.36,3.83,3.83,0,0,1-1.07-.85,3.76,3.76,0,0,1-.64-1A8.78,8.78,0,0,1,69.08,253.61Zm.2-1a1,1,0,0,1,.24-.09.61.61,0,0,1,.45.12.68.68,0,0,1,.27.41,3.22,3.22,0,0,0,.45,1.18,2.85,2.85,0,0,0,.74.82,2,2,0,0,0,1.25.37,2.73,2.73,0,0,0,1.59-.46,3.78,3.78,0,0,0,1.09-1.16,5.61,5.61,0,0,0,.63-1.55,7.17,7.17,0,0,0,.2-1.62,6.34,6.34,0,0,0-.17-1.45,4.57,4.57,0,0,0-.55-1.43,3.37,3.37,0,0,0-1-1.09,2.34,2.34,0,0,0-1.43-.44,1.83,1.83,0,0,0-1.26.53,5,5,0,0,0-1,1.39,11,11,0,0,0-.84,2C69.69,251,69.47,251.77,69.28,252.62Z"/><path class="cls-1" d="M81.38,251.35a.65.65,0,0,1-.44-.22.58.58,0,0,1-.16-.45.71.71,0,0,1,.24-.44.58.58,0,0,1,.45-.15c.9.07,1.78.1,2.64.1.5,0,1,0,1.42,0a11,11,0,0,0,1.18-.14,3.41,3.41,0,0,0,.85-.27.72.72,0,0,0,.41-.39,3.52,3.52,0,0,0,.09-.72,2.44,2.44,0,0,0-.24-1.1,2.5,2.5,0,0,0-.65-.83,2.78,2.78,0,0,0-1-.52A4.06,4.06,0,0,0,85,246a3.67,3.67,0,0,0-2,.53,4.68,4.68,0,0,0-1.38,1.35,6.22,6.22,0,0,0-.8,1.82,7.7,7.7,0,0,0-.26,1.92,6.22,6.22,0,0,0,.15,1.32,4.46,4.46,0,0,0,.45,1.27,2.79,2.79,0,0,0,.83.94,2.1,2.1,0,0,0,1.27.37,5.27,5.27,0,0,0,1.64-.23,5.94,5.94,0,0,0,1.15-.52,3.45,3.45,0,0,0,.88-.74.69.69,0,0,1,.43-.24.62.62,0,0,1,.47.13.6.6,0,0,1,.23.42.58.58,0,0,1-.14.46,6,6,0,0,1-1.15,1,7,7,0,0,1-1.45.68,6.35,6.35,0,0,1-2.06.3,3.21,3.21,0,0,1-1.77-.47,4,4,0,0,1-1.24-1.21,5.24,5.24,0,0,1-.73-1.67,7.09,7.09,0,0,1-.24-1.81,8.31,8.31,0,0,1,.36-2.36A7.37,7.37,0,0,1,80.68,247a5.89,5.89,0,0,1,1.79-1.65,4.71,4.71,0,0,1,2.49-.65,5.11,5.11,0,0,1,1.76.29,4.08,4.08,0,0,1,1.36.8,3.55,3.55,0,0,1,.88,1.24,4,4,0,0,1,.32,1.59,3.44,3.44,0,0,1,0,.46q0,.23-.06.48a1.43,1.43,0,0,1-.56.87,3.38,3.38,0,0,1-1.14.57,8.28,8.28,0,0,1-1.56.31,15,15,0,0,1-1.82.1l-1.37,0Z"/><path class="cls-1" d="M92.9,249.13a12.09,12.09,0,0,1,.72-1.44,6.41,6.41,0,0,1,.87-1.19,3.92,3.92,0,0,1,1-.82,2.47,2.47,0,0,1,1.17-.29,4.41,4.41,0,0,1,1.55.23,2.45,2.45,0,0,1,.92.6,1.75,1.75,0,0,1,.43.77,3.26,3.26,0,0,1,.11.79,3.9,3.9,0,0,1,0,.67,2.68,2.68,0,0,0-.07.27.65.65,0,0,1-.31.38.6.6,0,0,1-.49,0,.57.57,0,0,1-.37-.29.66.66,0,0,1,0-.48,1.8,1.8,0,0,0,0-.87,1.17,1.17,0,0,0-.48-.58,2.13,2.13,0,0,0-1.2-.26,1.6,1.6,0,0,0-1,.37,4,4,0,0,0-.88,1,9,9,0,0,0-.72,1.39c-.23.53-.43,1.08-.61,1.63s-.33,1.12-.47,1.67-.24,1.06-.33,1.52-.16.85-.21,1.18-.09.54-.1.65a.49.49,0,0,1-.23.38.68.68,0,0,1-.38.12.8.8,0,0,1-.47-.15.39.39,0,0,1-.18-.41c.15-1.69.3-3.37.43-5s.25-3.35.36-5a.6.6,0,0,1,.21-.44.65.65,0,0,1,.45-.15.74.74,0,0,1,.45.22.63.63,0,0,1,.15.46L93,247.56C93,248.08,92.94,248.6,92.9,249.13Z"/><path class="cls-1" d="M109.49,248.7a.59.59,0,0,1-.36-.81,1,1,0,0,0-.11-.67,1.38,1.38,0,0,0-.49-.47,2.27,2.27,0,0,0-.73-.28,4,4,0,0,0-.85-.09,6.11,6.11,0,0,0-1.08.1,4.26,4.26,0,0,0-1.12.33,3,3,0,0,0-.9.61,1.59,1.59,0,0,0-.44.94,1.19,1.19,0,0,0,.3.83,2.2,2.2,0,0,0,.73.52,4.79,4.79,0,0,0,1,.3c.33.08.63.13.88.17a8.27,8.27,0,0,1,1.36.35,5.52,5.52,0,0,1,1.34.64,3.43,3.43,0,0,1,1,.94,1.79,1.79,0,0,1,.29,1.27,2.61,2.61,0,0,1-.46,1.3,3.9,3.9,0,0,1-1,1,5.13,5.13,0,0,1-1.36.63,5,5,0,0,1-1.47.23,4.35,4.35,0,0,1-1.67-.31,7.62,7.62,0,0,1-1.34-.68,8.32,8.32,0,0,1-1.2-1,.58.58,0,0,1,0-.88.61.61,0,0,1,.43-.21.63.63,0,0,1,.45.17,6.72,6.72,0,0,0,1,.83,7,7,0,0,0,1.06.56,3.26,3.26,0,0,0,1.29.25,4,4,0,0,0,1-.14,4.15,4.15,0,0,0,1-.41,2.85,2.85,0,0,0,.74-.64,1.66,1.66,0,0,0,.36-.84.84.84,0,0,0-.28-.69,3.42,3.42,0,0,0-.79-.54,7,7,0,0,0-1-.38,9,9,0,0,0-.88-.23,12.69,12.69,0,0,1-1.35-.31,5.19,5.19,0,0,1-1.34-.56,3.11,3.11,0,0,1-1-.94,2,2,0,0,1-.26-1.41,2.69,2.69,0,0,1,.59-1.39,4.32,4.32,0,0,1,1.17-.95,5.32,5.32,0,0,1,1.49-.55,7.66,7.66,0,0,1,1.55-.17,4.66,4.66,0,0,1,1.31.18,4.32,4.32,0,0,1,1.11.5,2.66,2.66,0,0,1,.77.8,2.07,2.07,0,0,1,.29,1.07,1.66,1.66,0,0,1-.15.67.53.53,0,0,1-.32.35A.59.59,0,0,1,109.49,248.7Z"/><path class="cls-1" d="M114.14,247.89a4.42,4.42,0,0,1,.27-.87,3.2,3.2,0,0,1,.62-1,3.52,3.52,0,0,1,1.12-.77,4.38,4.38,0,0,1,1.79-.32,3.67,3.67,0,0,1,1.87.46,4.1,4.1,0,0,1,1.26,1.19,5.27,5.27,0,0,1,.71,1.66,7.82,7.82,0,0,1,.22,1.86,9.17,9.17,0,0,1-.36,2.62,6,6,0,0,1-1.07,2.1,5,5,0,0,1-1.74,1.41,5.35,5.35,0,0,1-2.39.51,4.18,4.18,0,0,1-1.77-.36,4.07,4.07,0,0,1-1.33-1,4.49,4.49,0,0,1-.82-1.43,5.12,5.12,0,0,1-.29-1.71,7.64,7.64,0,0,1,.17-1.61,10.66,10.66,0,0,1,.38-1.35,9,9,0,0,1,.39-1c.13-.24.2-.36.21-.37a.44.44,0,0,1,.36-.2A.72.72,0,0,1,114.14,247.89Zm.14,1s-.08,0-.16.2a3.77,3.77,0,0,0-.26.69,8.89,8.89,0,0,0-.24,1.1,7.61,7.61,0,0,0-.11,1.41,3.86,3.86,0,0,0,.19,1.23,3.09,3.09,0,0,0,.55,1,2.78,2.78,0,0,0,.92.7,3,3,0,0,0,1.27.26,4.18,4.18,0,0,0,1.89-.41,3.8,3.8,0,0,0,1.34-1.14,5,5,0,0,0,.8-1.7,8,8,0,0,0,.27-2.13,7.16,7.16,0,0,0-.13-1.38,4,4,0,0,0-.46-1.26,2.68,2.68,0,0,0-.86-.91,2.41,2.41,0,0,0-1.35-.36,2.73,2.73,0,0,0-1.5.35,2.27,2.27,0,0,0-.76.75,2.85,2.85,0,0,0-.34,1.12.65.65,0,0,1-.19.46.52.52,0,0,1-.44.19A.51.51,0,0,1,114.28,248.9Z"/><path class="cls-1" d="M125,245.66a.61.61,0,0,1,.23-.43.6.6,0,0,1,.47-.13.62.62,0,0,1,.54.68c-.1.86-.19,1.7-.29,2.54s-.19,1.69-.29,2.54c.33-.71.69-1.4,1.08-2.09a12.13,12.13,0,0,1,1.26-1.84,6.87,6.87,0,0,1,1.45-1.33,2.93,2.93,0,0,1,1.61-.5,2.08,2.08,0,0,1,1.34.42,2.74,2.74,0,0,1,.84,1.14,5.79,5.79,0,0,1,.43,1.63,12.94,12.94,0,0,1,.13,1.89c0,.72,0,1.43-.11,2.15s-.15,1.35-.24,1.92-.21,1.21-.37,1.92a.66.66,0,0,1-.27.4.64.64,0,0,1-.47.09.68.68,0,0,1-.39-.29.57.57,0,0,1-.09-.47c.16-.77.3-1.45.39-2s.19-1.25.26-2a18.7,18.7,0,0,0,.12-2.09,11.25,11.25,0,0,0-.07-1.33,4.61,4.61,0,0,0-.25-1.09,1.88,1.88,0,0,0-.49-.75,1.1,1.1,0,0,0-.76-.27,2.06,2.06,0,0,0-1.2.42,5.46,5.46,0,0,0-1.14,1.12,11.79,11.79,0,0,0-1,1.57c-.32.59-.62,1.19-.89,1.8s-.53,1.22-.74,1.8-.4,1.12-.55,1.58-.31,1-.48,1.56a.38.38,0,0,1-.2.27,1,1,0,0,1-.36.07.8.8,0,0,1-.49-.16.41.41,0,0,1-.19-.42Z"/><path class="cls-1" d="M143.64,245.68a2.49,2.49,0,0,1,1,1.24c0-.15,0-.27.07-.38a1.24,1.24,0,0,1,.06-.29,1.11,1.11,0,0,0,0-.23.45.45,0,0,1,.2-.3.75.75,0,0,1,.36-.1.9.9,0,0,1,.5.16.45.45,0,0,1,.19.44c-.21,1.64-.42,3.27-.63,4.87s-.43,3.24-.63,4.88a.66.66,0,0,1-.25.42.59.59,0,0,1-.46.12.61.61,0,0,1-.41-.24.6.6,0,0,1-.13-.46l.36-2.81a12.58,12.58,0,0,1-.83,1.44,7.58,7.58,0,0,1-1,1.21,4.63,4.63,0,0,1-1.17.83,3.47,3.47,0,0,1-1.35.36,3.81,3.81,0,0,1-1.64-.34,3.47,3.47,0,0,1-1.19-.92,4.47,4.47,0,0,1-.75-1.42,6.64,6.64,0,0,1-.29-1.79,8.74,8.74,0,0,1,.31-2.68,7.92,7.92,0,0,1,1.1-2.39,6,6,0,0,1,1.83-1.71,4.83,4.83,0,0,1,2.5-.65,3.74,3.74,0,0,1,1.21.19A3.34,3.34,0,0,1,143.64,245.68Zm.65,2.52a.88.88,0,0,1-.29.05.68.68,0,0,1-.43-.23.57.57,0,0,1-.17-.45,1,1,0,0,0-.2-.62,1.81,1.81,0,0,0-.52-.42,2.43,2.43,0,0,0-.65-.25,2.69,2.69,0,0,0-.66-.08,3.54,3.54,0,0,0-2,.56,4.79,4.79,0,0,0-1.43,1.44,6.32,6.32,0,0,0-.83,2,7.9,7.9,0,0,0-.22,2.15,5.64,5.64,0,0,0,.19,1.29,2.94,2.94,0,0,0,.46,1,2.1,2.1,0,0,0,.77.68,2.33,2.33,0,0,0,1.13.26,2.49,2.49,0,0,0,1.21-.4,4.16,4.16,0,0,0,1-1,8,8,0,0,0,.88-1.34q.39-.75.72-1.56c.21-.54.41-1.08.57-1.62S144.17,248.66,144.29,248.2Z"/><path class="cls-1" d="M149.74,240.62a.69.69,0,0,1,.24-.43.6.6,0,0,1,.46-.13.65.65,0,0,1,.42.24.59.59,0,0,1,.12.46L149.09,256a.61.61,0,0,1-.24.42.59.59,0,0,1-.46.12.57.57,0,0,1-.41-.24.6.6,0,0,1-.13-.46Z"/><path class="cls-1" d="M153.92,245.91a.63.63,0,0,1,.23-.42.57.57,0,0,1,.47-.14.69.69,0,0,1,.42.24.58.58,0,0,1,.14.46L154.06,256a.63.63,0,0,1-.23.42.56.56,0,0,1-.45.14.68.68,0,0,1-.43-.23.57.57,0,0,1-.13-.47Zm.46-4.81a.66.66,0,0,1,.25-.41.6.6,0,0,1,.46-.13.69.69,0,0,1,.43.24.52.52,0,0,1,.12.45l-.09.63a.63.63,0,0,1-.23.43.6.6,0,0,1-.47.13.64.64,0,0,1-.41-.25.6.6,0,0,1-.13-.46Z"/><path class="cls-1" d="M158.69,246.81a.64.64,0,0,1-.45-.18.58.58,0,0,1-.18-.43.63.63,0,0,1,.18-.46.61.61,0,0,1,.45-.19l7.09-.07a.51.51,0,0,1,.34.11.64.64,0,0,1,.22.27.78.78,0,0,1,0,.35.57.57,0,0,1-.16.33q-.63.65-1.14,1.2L163.93,249l-1.34,1.46c-.45.5-.91,1-1.36,1.51s-.85,1-1.21,1.41-.66.82-.9,1.15a2.82,2.82,0,0,0-.43.73c-.07.17,0,.29.22.36a2.71,2.71,0,0,0,.84.11,11.67,11.67,0,0,0,1.46-.1c.56-.07,1.09-.13,1.6-.21s1.1-.17,1.8-.3a.53.53,0,0,1,.47.07.6.6,0,0,1,.28.4.58.58,0,0,1-.08.46.65.65,0,0,1-.38.29c-.56.12-1.05.22-1.48.28s-.92.13-1.45.19a14,14,0,0,1-1.57.09h-1a4.08,4.08,0,0,1-1-.12,1.72,1.72,0,0,1-.73-.35.88.88,0,0,1-.29-.71,2.35,2.35,0,0,1,.36-1.06,12.1,12.1,0,0,1,.95-1.42c.4-.52.85-1.06,1.34-1.64s1-1.15,1.52-1.73,1-1.13,1.49-1.65.91-1,1.27-1.44Z"/><path class="cls-1" d="M176.24,245.68a2.54,2.54,0,0,1,.95,1.24c0-.15,0-.27.06-.38a2.06,2.06,0,0,1,.07-.29,1.11,1.11,0,0,0,0-.23.45.45,0,0,1,.2-.3.75.75,0,0,1,.36-.1.87.87,0,0,1,.49.16.43.43,0,0,1,.19.44c-.2,1.64-.41,3.27-.63,4.87s-.42,3.24-.63,4.88a.61.61,0,0,1-.24.42.62.62,0,0,1-.87-.12.6.6,0,0,1-.13-.46l.36-2.81a11.3,11.3,0,0,1-.84,1.44,7,7,0,0,1-1,1.21,4.63,4.63,0,0,1-1.17.83,3.47,3.47,0,0,1-1.35.36,3.81,3.81,0,0,1-1.64-.34,3.38,3.38,0,0,1-1.19-.92,4.47,4.47,0,0,1-.75-1.42,6.64,6.64,0,0,1-.29-1.79,8.44,8.44,0,0,1,.31-2.68,7.92,7.92,0,0,1,1.1-2.39,5.76,5.76,0,0,1,1.83-1.71,4.83,4.83,0,0,1,2.5-.65,3.78,3.78,0,0,1,1.21.19A3.45,3.45,0,0,1,176.24,245.68Zm.64,2.52a.82.82,0,0,1-.28.05.7.7,0,0,1-.44-.23.56.56,0,0,1-.16-.45,1,1,0,0,0-.21-.62,1.64,1.64,0,0,0-.51-.42,2.37,2.37,0,0,0-.66-.25,2.56,2.56,0,0,0-.65-.08,3.54,3.54,0,0,0-2,.56,4.68,4.68,0,0,0-1.43,1.44,6.1,6.1,0,0,0-.83,2,7.9,7.9,0,0,0-.22,2.15,6.27,6.27,0,0,0,.18,1.29,3.36,3.36,0,0,0,.46,1,2.21,2.21,0,0,0,.78.68,2.33,2.33,0,0,0,1.13.26,2.52,2.52,0,0,0,1.21-.4,4.34,4.34,0,0,0,1-1,8,8,0,0,0,.88-1.34q.39-.75.72-1.56t.57-1.62C176.62,249.17,176.76,248.66,176.88,248.2Z"/><path class="cls-1" d="M189.14,246.9c.12-1.08.24-2.15.36-3.2l.36-3.21a.4.4,0,0,1,.21-.34.8.8,0,0,1,.39-.09.84.84,0,0,1,.46.13.4.4,0,0,1,.2.39c0,.73-.08,1.4-.13,2s-.13,1.3-.23,2.1-.22,1.63-.38,2.49l-1,9a.63.63,0,0,1-.23.42.54.54,0,0,1-.45.14.65.65,0,0,1-.42-.24.57.57,0,0,1-.14-.46l.24-2.11a7.21,7.21,0,0,1-1.55,2,2.86,2.86,0,0,1-2,.77,4.56,4.56,0,0,1-1.81-.34,3.88,3.88,0,0,1-1.38-1,4.11,4.11,0,0,1-.87-1.48,5.51,5.51,0,0,1-.31-1.89,8.47,8.47,0,0,1,.39-2.51,8.13,8.13,0,0,1,1.09-2.3,6.14,6.14,0,0,1,1.66-1.67,3.73,3.73,0,0,1,2.12-.65,4,4,0,0,1,2.15.54A3.53,3.53,0,0,1,189.14,246.9Zm-.23,1.62a.66.66,0,0,1-.43-.12.58.58,0,0,1-.26-.37,2.32,2.32,0,0,0-.82-1.37,2.7,2.7,0,0,0-1.71-.5,2.63,2.63,0,0,0-1.62.56,4.81,4.81,0,0,0-1.26,1.42A7.53,7.53,0,0,0,182,250a7.12,7.12,0,0,0-.3,2,3.69,3.69,0,0,0,.8,2.48,2.87,2.87,0,0,0,2.33.94,2,2,0,0,0,1.43-.57,5.64,5.64,0,0,0,1.15-1.55,13.3,13.3,0,0,0,.87-2.23C188.51,250.27,188.73,249.41,188.91,248.52Z"/><path class="cls-1" d="M194.85,247.89a4.42,4.42,0,0,1,.27-.87,3.2,3.2,0,0,1,.62-1,3.52,3.52,0,0,1,1.12-.77,4.38,4.38,0,0,1,1.79-.32,3.67,3.67,0,0,1,1.87.46,4.1,4.1,0,0,1,1.26,1.19,5.27,5.27,0,0,1,.71,1.66,7.82,7.82,0,0,1,.22,1.86,9.17,9.17,0,0,1-.36,2.62,6,6,0,0,1-1.07,2.1,5,5,0,0,1-1.74,1.41,5.35,5.35,0,0,1-2.39.51,4.18,4.18,0,0,1-1.77-.36,4,4,0,0,1-1.33-1,4.49,4.49,0,0,1-.82-1.43,5.12,5.12,0,0,1-.29-1.71,7.64,7.64,0,0,1,.17-1.61,10.66,10.66,0,0,1,.38-1.35,9,9,0,0,1,.39-1c.13-.24.2-.36.21-.37a.44.44,0,0,1,.36-.2A.72.72,0,0,1,194.85,247.89Zm.14,1s-.08,0-.16.2a3.77,3.77,0,0,0-.26.69,8.89,8.89,0,0,0-.24,1.1,7.61,7.61,0,0,0-.11,1.41,3.86,3.86,0,0,0,.19,1.23,3.09,3.09,0,0,0,.55,1,2.78,2.78,0,0,0,.92.7,3,3,0,0,0,1.27.26,4.18,4.18,0,0,0,1.89-.41,3.8,3.8,0,0,0,1.34-1.14,5,5,0,0,0,.8-1.7,8,8,0,0,0,.27-2.13,7.16,7.16,0,0,0-.13-1.38,4,4,0,0,0-.46-1.26,2.68,2.68,0,0,0-.86-.91,2.41,2.41,0,0,0-1.35-.36,2.73,2.73,0,0,0-1.5.35,2.27,2.27,0,0,0-.76.75,2.85,2.85,0,0,0-.34,1.12.65.65,0,0,1-.19.46.52.52,0,0,1-.44.19A.51.51,0,0,1,195,248.9Z"/><path class="cls-1" d="M212.5,248.7a.61.61,0,0,1-.35-.32.53.53,0,0,1,0-.49,1.08,1.08,0,0,0-.12-.67,1.38,1.38,0,0,0-.49-.47,2.27,2.27,0,0,0-.73-.28,3.93,3.93,0,0,0-.84-.09,6.13,6.13,0,0,0-1.09.1,4.37,4.37,0,0,0-1.12.33,3,3,0,0,0-.9.61,1.65,1.65,0,0,0-.44.94,1.19,1.19,0,0,0,.3.83,2.24,2.24,0,0,0,.74.52,4.69,4.69,0,0,0,.94.3c.34.08.63.13.88.17a8,8,0,0,1,1.36.35,5.35,5.35,0,0,1,1.34.64,3.43,3.43,0,0,1,1,.94,1.74,1.74,0,0,1,.29,1.27,2.52,2.52,0,0,1-.46,1.3,4,4,0,0,1-1,1,5.44,5.44,0,0,1-1.36.63,5.12,5.12,0,0,1-1.48.23,4.3,4.3,0,0,1-1.66-.31,7.28,7.28,0,0,1-1.34-.68,7.89,7.89,0,0,1-1.21-1,.64.64,0,0,1,.41-1.09.63.63,0,0,1,.45.17,7.27,7.27,0,0,0,1,.83,7,7,0,0,0,1.06.56,3.33,3.33,0,0,0,1.29.25,4.12,4.12,0,0,0,1-.14,4.07,4.07,0,0,0,.95-.41,2.69,2.69,0,0,0,.74-.64,1.66,1.66,0,0,0,.36-.84.84.84,0,0,0-.28-.69A3.22,3.22,0,0,0,211,252a7,7,0,0,0-1-.38,7.77,7.77,0,0,0-.88-.23,13.13,13.13,0,0,1-1.34-.31,5.26,5.26,0,0,1-1.35-.56,3.11,3.11,0,0,1-1-.94,2.09,2.09,0,0,1-.26-1.41,2.69,2.69,0,0,1,.59-1.39,4.32,4.32,0,0,1,1.17-.95,5.43,5.43,0,0,1,1.49-.55,7.68,7.68,0,0,1,1.56-.17,4.64,4.64,0,0,1,1.3.18,4,4,0,0,1,1.11.5,2.66,2.66,0,0,1,.77.8,2.07,2.07,0,0,1,.29,1.07,1.83,1.83,0,0,1-.14.67.55.55,0,0,1-.33.35A.59.59,0,0,1,212.5,248.7Z"/><path class="cls-2" d="M262,3a15,15,0,0,1,15,15V262a15,15,0,0,1-15,15H18A15,15,0,0,1,3,262V18A15,15,0,0,1,18,3H262m0-1H18A16,16,0,0,0,2,18V262a16,16,0,0,0,16,16H262a16,16,0,0,0,16-16V18A16,16,0,0,0,262,2Z"/><path class="cls-3" d="M156.25,150.47H63.74A3.74,3.74,0,0,1,60,146.73V77.19L73,98.84h83.29a3.74,3.74,0,0,1,3.74,3.74v44.15A3.75,3.75,0,0,1,156.25,150.47Z"/><path class="cls-4" d="M105.55,53.53a1.3,1.3,0,0,0-.12-.55,1.19,1.19,0,0,0-.85-.67L83.3,42a1.25,1.25,0,0,0-1.1,0L60.71,52.4A1.26,1.26,0,0,0,60,53.49h0V79.68a1.25,1.25,0,0,0,.71,1.13L82.2,91.23h0l.1,0h0l.09,0h0l.11,0h.33l.11,0h0l.09,0h0l.1,0h0l21.55-10.45a1.26,1.26,0,0,0,.71-1.13V53.56S105.55,53.54,105.55,53.53Zm-22.8-9,18.63,9-6.86,3.33-18.64-9Zm0,18.08-18.64-9L73,49.23l18.64,9Zm-20.24-7,19,9.2V88.09l-19-9.2ZM84,88.09V64.76l8.91-4.32v6.1a1.26,1.26,0,0,0,2.51,0V59.21l7.63-3.69V78.85Z"/><path class="cls-5" d="M161.46,53.53a1.3,1.3,0,0,0-.12-.55,1.19,1.19,0,0,0-.85-.67L139.21,42a1.25,1.25,0,0,0-1.1,0L116.62,52.4a1.26,1.26,0,0,0-.71,1.09h0V79.68a1.25,1.25,0,0,0,.71,1.13l21.49,10.42h0l.1,0h0l.09,0h0l.11,0h.33l.11,0h0l.09,0h0l.1,0h0l21.55-10.45a1.26,1.26,0,0,0,.71-1.13V53.56S161.46,53.54,161.46,53.53Zm-22.81-9,18.64,9-6.86,3.33-18.64-9Zm0,18.08-18.63-9,8.9-4.31,18.64,9Zm-20.23-7,19,9.2V88.09l-19-9.2Zm21.49,32.53V64.76l8.91-4.32v6.1a1.26,1.26,0,0,0,2.51,0V59.21L159,55.52V78.85Z"/><path class="cls-5" d="M220,53.53a1.26,1.26,0,0,0-1-1.22L197.73,42a1.25,1.25,0,0,0-1.1,0L175.14,52.4a1.26,1.26,0,0,0-.71,1.09h0V79.68a1.25,1.25,0,0,0,.71,1.13l21.49,10.42h0l.09,0h0l.1,0h0l.1,0h.34l.1,0h0l.1,0h0l.09,0h0l21.55-10.45a1.26,1.26,0,0,0,.71-1.13V53.56S220,53.54,220,53.53Zm-22.81-9,18.64,9L209,56.87l-18.64-9Zm0,18.08-18.64-9,8.9-4.31,18.64,9Zm-20.24-7,19,9.2V88.09l-19-9.2Zm21.5,32.53V64.76l8.91-4.32v6.1a1.25,1.25,0,0,0,2.5,0V59.21l7.63-3.69V78.85Z"/><path class="cls-6" d="M156.25,169.67H63.74A3.73,3.73,0,0,1,60,165.93V79.68l13,21.65h83.29a3.75,3.75,0,0,1,3.74,3.74v60.86A3.74,3.74,0,0,1,156.25,169.67Z"/><rect class="cls-7" x="60" y="118.79" width="99.99" height="17.46"/><path class="cls-7" d="M60,152.68H160a0,0,0,0,1,0,0v12.64a4.81,4.81,0,0,1-4.81,4.81H64.81A4.81,4.81,0,0,1,60,165.33V152.68a0,0,0,0,1,0,0Z"/><g class="cls-8"><rect class="cls-9" x="60" y="118.57" width="99.99" height="0.45"/></g><g class="cls-8"><rect class="cls-9" x="60" y="136.03" width="99.99" height="0.45"/></g><g class="cls-8"><rect class="cls-9" x="60" y="152.74" width="99.99" height="0.45"/></g><g class="cls-10"><path class="cls-9" d="M107.13,106.69H66.26a.38.38,0,1,1,0-.75h40.87a.38.38,0,1,1,0,.75Z"/><g class="cls-8"><path class="cls-9" d="M91.68,110.68H66.26a.38.38,0,1,1,0-.75H91.68a.38.38,0,1,1,0,.75Z"/></g><g class="cls-8"><path class="cls-9" d="M91.68,114.2H66.26a.38.38,0,1,1,0-.75H91.68a.38.38,0,1,1,0,.75Z"/></g></g><g class="cls-10"><path class="cls-9" d="M107.13,124.14H66.26a.38.38,0,1,1,0-.75h40.87a.38.38,0,1,1,0,.75Z"/><g class="cls-8"><path class="cls-9" d="M91.68,128.13H66.26a.38.38,0,1,1,0-.75H91.68a.38.38,0,1,1,0,.75Z"/></g><g class="cls-8"><path class="cls-9" d="M91.68,131.65H66.26a.38.38,0,1,1,0-.75H91.68a.38.38,0,1,1,0,.75Z"/></g></g><g class="cls-10"><path class="cls-9" d="M107.13,141.09H66.26a.38.38,0,1,1,0-.75h40.87a.38.38,0,1,1,0,.75Z"/><g class="cls-8"><path class="cls-9" d="M91.68,145.08H66.26a.38.38,0,0,1-.38-.38.37.37,0,0,1,.38-.37H91.68a.37.37,0,0,1,.38.37A.38.38,0,0,1,91.68,145.08Z"/></g><g class="cls-8"><path class="cls-9" d="M91.68,148.6H66.26a.38.38,0,1,1,0-.75H91.68a.38.38,0,1,1,0,.75Z"/></g></g><g class="cls-10"><path class="cls-9" d="M107.13,157.8H66.26a.38.38,0,1,1,0-.75h40.87a.38.38,0,1,1,0,.75Z"/><g class="cls-8"><path class="cls-9" d="M91.68,161.79H66.26a.38.38,0,0,1-.38-.38.37.37,0,0,1,.38-.37H91.68a.37.37,0,0,1,.38.37A.38.38,0,0,1,91.68,161.79Z"/></g><g class="cls-8"><path class="cls-9" d="M91.68,165.31H66.26a.38.38,0,1,1,0-.75H91.68a.38.38,0,1,1,0,.75Z"/></g></g><path class="cls-4" d="M137.67,101.49h18.12a4.2,4.2,0,0,1,4.2,4.2v12.94a0,0,0,0,1,0,0H137.67a0,0,0,0,1,0,0V101.49A0,0,0,0,1,137.67,101.49Z"/><path class="cls-9" d="M142.33,110.89a.56.56,0,0,1,0-.82l.8-.81a.56.56,0,0,1,.81,0l.05.06,3.16,3.43a.3.3,0,0,0,.41,0l7.7-8.08h.05a.56.56,0,0,1,.81,0l.8.81a.56.56,0,0,1,0,.81h0l-9.19,9.65a.52.52,0,0,1-.4.18.52.52,0,0,1-.41-.18l-4.48-4.88Z"/></svg>