<svg id="Camada_1" data-name="Camada 1" xmlns="http://www.w3.org/2000/svg" viewBox="0 0 300 380"><defs><style>.cls-1{fill:#fff;}</style></defs><title>atividades</title><path class="cls-1" d="M87.58,97.36h5.87a5.71,5.71,0,0,1,2.39.43,3.06,3.06,0,0,1,1.79,3,3.41,3.41,0,0,1-.48,1.9,3.53,3.53,0,0,1-1.34,1.19,2.61,2.61,0,0,1,1.14.81,2.92,2.92,0,0,1,.42,1.62l.06,1.73a5.05,5.05,0,0,0,.13,1.1,1,1,0,0,0,.56.79v.29H96a1.36,1.36,0,0,1-.14-.43,6.6,6.6,0,0,1-.09-1l-.11-2.15a1.83,1.83,0,0,0-.91-1.7,3.71,3.71,0,0,0-1.53-.23H89.33v5.53H87.58Zm5.68,5.92a3.24,3.24,0,0,0,1.9-.5,2,2,0,0,0,.69-1.77,1.91,1.91,0,0,0-1-1.88,3,3,0,0,0-1.39-.27H89.33v4.42Z"/><path class="cls-1" d="M106,101.12a3.53,3.53,0,0,1,1.43,1.22A4.29,4.29,0,0,1,108,104a11.12,11.12,0,0,1,.14,2.07h-6.85a4.08,4.08,0,0,0,.67,2.31,2.27,2.27,0,0,0,2,.86,2.5,2.5,0,0,0,2-.82,2.84,2.84,0,0,0,.58-1.1H108a3.27,3.27,0,0,1-.4,1.16,4.35,4.35,0,0,1-.78,1,3.72,3.72,0,0,1-1.77,1,5.58,5.58,0,0,1-1.28.14,3.93,3.93,0,0,1-3-1.28,5,5,0,0,1-1.22-3.58,5.43,5.43,0,0,1,1.23-3.69,4,4,0,0,1,3.19-1.41A4.26,4.26,0,0,1,106,101.12Zm.57,3.69a4.11,4.11,0,0,0-.44-1.64,2.28,2.28,0,0,0-2.16-1.14,2.38,2.38,0,0,0-1.81.78,3,3,0,0,0-.78,2Z"/><path class="cls-1" d="M115.4,101.24a4.19,4.19,0,0,1,.91.89V101h1.46v8.56a6.35,6.35,0,0,1-.52,2.83,3.77,3.77,0,0,1-3.71,1.91,4.49,4.49,0,0,1-2.55-.68,2.63,2.63,0,0,1-1.15-2.13h1.6a1.84,1.84,0,0,0,.46,1,2.89,2.89,0,0,0,4-.76,7.25,7.25,0,0,0,.3-2.7,3.09,3.09,0,0,1-1.14,1.08,3.82,3.82,0,0,1-1.76.35,3.76,3.76,0,0,1-2.66-1.09,4.79,4.79,0,0,1-1.14-3.59A5.42,5.42,0,0,1,110.7,102a3.52,3.52,0,0,1,2.78-1.33A3.35,3.35,0,0,1,115.4,101.24Zm.2,1.69a2.3,2.3,0,0,0-1.83-.84,2.24,2.24,0,0,0-2.27,1.56,6.08,6.08,0,0,0-.33,2.19,3.94,3.94,0,0,0,.64,2.42,2.07,2.07,0,0,0,1.73.83,2.43,2.43,0,0,0,2.39-1.53,4.94,4.94,0,0,0,.38-2A4,4,0,0,0,115.6,102.93Z"/><path class="cls-1" d="M120.18,97.36h1.61v1.79h-1.61Zm0,3.54h1.61v9.37h-1.61Z"/><path class="cls-1" d="M125.12,107.32a2.28,2.28,0,0,0,.4,1.21,2.58,2.58,0,0,0,2.12.77,3.14,3.14,0,0,0,1.58-.39,1.26,1.26,0,0,0,.68-1.18,1,1,0,0,0-.54-.92,6.58,6.58,0,0,0-1.38-.45L126.7,106a6.3,6.3,0,0,1-1.8-.66,2,2,0,0,1-1-1.78,2.7,2.7,0,0,1,1-2.16,3.92,3.92,0,0,1,2.62-.83,3.68,3.68,0,0,1,3.11,1.25,2.7,2.7,0,0,1,.58,1.71h-1.49a1.76,1.76,0,0,0-.39-1,2.5,2.5,0,0,0-1.94-.62,2.36,2.36,0,0,0-1.39.34,1.06,1.06,0,0,0-.47.9,1.12,1.12,0,0,0,.62,1,3.9,3.9,0,0,0,1.06.39l1.06.25a8.36,8.36,0,0,1,2.33.8,2.11,2.11,0,0,1,.93,1.91,2.9,2.9,0,0,1-1,2.17,4.13,4.13,0,0,1-2.94.91,4,4,0,0,1-3-.95,3.58,3.58,0,0,1-1-2.36Z"/><path class="cls-1" d="M133.5,98.23h1.6v2.63h1.5v1.29h-1.5v6.14a.67.67,0,0,0,.33.66,1.34,1.34,0,0,0,.62.1h.24l.31,0v1.25a3.38,3.38,0,0,1-.57.12,6.25,6.25,0,0,1-.64,0,1.72,1.72,0,0,1-1.5-.57,2.51,2.51,0,0,1-.39-1.47v-6.23h-1.28v-1.29h1.28Z"/><path class="cls-1" d="M138.22,100.86h1.51v1.63a3.45,3.45,0,0,1,.9-1.16,2.37,2.37,0,0,1,1.66-.68h.15l.36,0v1.67l-.26,0h-.25a2.24,2.24,0,0,0-1.84.77,2.66,2.66,0,0,0-.64,1.77v5.41h-1.59Z"/><path class="cls-1" d="M150,101.12a3.5,3.5,0,0,1,1.42,1.22A4,4,0,0,1,152,104a11.12,11.12,0,0,1,.14,2.07h-6.84a4,4,0,0,0,.67,2.31,2.23,2.23,0,0,0,1.94.86,2.49,2.49,0,0,0,2-.82,2.59,2.59,0,0,0,.58-1.1h1.56a3.31,3.31,0,0,1-.41,1.16,4.32,4.32,0,0,1-.77,1,3.72,3.72,0,0,1-1.77,1,5.6,5.6,0,0,1-1.29.14,3.94,3.94,0,0,1-3-1.28,5,5,0,0,1-1.21-3.58,5.47,5.47,0,0,1,1.22-3.69,4,4,0,0,1,3.2-1.41A4.29,4.29,0,0,1,150,101.12Zm.57,3.69a4.27,4.27,0,0,0-.45-1.64A2.28,2.28,0,0,0,148,102a2.37,2.37,0,0,0-1.81.78,3,3,0,0,0-.78,2Z"/><path class="cls-1" d="M165,101.12a3.5,3.5,0,0,1,1.42,1.22,4,4,0,0,1,.63,1.66,10.3,10.3,0,0,1,.14,2.07h-6.84a4.08,4.08,0,0,0,.67,2.31,2.26,2.26,0,0,0,1.94.86,2.47,2.47,0,0,0,2-.82,2.73,2.73,0,0,0,.59-1.1h1.55a3.31,3.31,0,0,1-.41,1.16,4.32,4.32,0,0,1-.77,1,3.72,3.72,0,0,1-1.77,1,5.58,5.58,0,0,1-1.28.14,4,4,0,0,1-3-1.28,5,5,0,0,1-1.21-3.58,5.47,5.47,0,0,1,1.22-3.69,4,4,0,0,1,3.2-1.41A4.29,4.29,0,0,1,165,101.12Zm.57,3.69a4.1,4.1,0,0,0-.45-1.64A2.27,2.27,0,0,0,163,102a2.38,2.38,0,0,0-1.81.78,3,3,0,0,0-.78,2Z"/><path class="cls-1" d="M169.2,100.86h1.5v1.34a4.16,4.16,0,0,1,1.42-1.19,3.74,3.74,0,0,1,1.66-.36,2.72,2.72,0,0,1,2.7,1.4,4.91,4.91,0,0,1,.39,2.18v6h-1.61v-5.93A3.23,3.23,0,0,0,175,103a1.55,1.55,0,0,0-1.53-.88,3,3,0,0,0-.93.12,2.55,2.55,0,0,0-1.65,1.73,6.44,6.44,0,0,0-.12,1.42v4.93H169.2Z"/><path class="cls-1" d="M179.52,98.23h1.6v2.63h1.51v1.29h-1.51v6.14a.67.67,0,0,0,.34.66,1.32,1.32,0,0,0,.61.1h.25l.31,0v1.25a3.38,3.38,0,0,1-.57.12,6.4,6.4,0,0,1-.64,0,1.7,1.7,0,0,1-1.5-.57,2.51,2.51,0,0,1-.4-1.47v-6.23h-1.27v-1.29h1.27Z"/><path class="cls-1" d="M184.25,100.86h1.51v1.63a3.45,3.45,0,0,1,.9-1.16,2.37,2.37,0,0,1,1.66-.68h.15l.36,0v1.67l-.26,0h-.26a2.22,2.22,0,0,0-1.83.77,2.66,2.66,0,0,0-.64,1.77v5.41h-1.59Z"/><path class="cls-1" d="M195.25,104.58a.88.88,0,0,0,.73-.46,1.4,1.4,0,0,0,.1-.61,1.31,1.31,0,0,0-.57-1.18,3.11,3.11,0,0,0-1.65-.36,2.07,2.07,0,0,0-1.75.67,2.25,2.25,0,0,0-.38,1.1h-1.47a2.75,2.75,0,0,1,1.12-2.43,4.71,4.71,0,0,1,2.52-.68,5.13,5.13,0,0,1,2.69.63,2.15,2.15,0,0,1,1,2v5.43a.67.67,0,0,0,.1.39.49.49,0,0,0,.43.15h.24l.28,0v1.17a5,5,0,0,1-.57.13,3.72,3.72,0,0,1-.52,0,1.3,1.3,0,0,1-1.19-.58,2.12,2.12,0,0,1-.27-.87,4,4,0,0,1-1.39,1.1,4.3,4.3,0,0,1-2,.47,3,3,0,0,1-2.14-.8,2.64,2.64,0,0,1-.83-2,2.57,2.57,0,0,1,.82-2,3.9,3.9,0,0,1,2.15-.89Zm-3.33,4.27a1.86,1.86,0,0,0,1.18.39,3.57,3.57,0,0,0,1.62-.38,2.18,2.18,0,0,0,1.32-2.1v-1.27a3,3,0,0,1-.75.31,5.8,5.8,0,0,1-.89.17l-1,.13a3.45,3.45,0,0,0-1.29.36,1.38,1.38,0,0,0-.73,1.31A1.28,1.28,0,0,0,191.92,108.85Z"/><path class="cls-1" d="M205.39,101.15a4.39,4.39,0,0,1,1,.92V97.32h1.52v13h-1.42V109a3.48,3.48,0,0,1-1.31,1.26,3.69,3.69,0,0,1-1.72.39,3.48,3.48,0,0,1-2.72-1.33,5.19,5.19,0,0,1-1.14-3.52,6.05,6.05,0,0,1,1-3.56,3.42,3.42,0,0,1,3-1.51A3.31,3.31,0,0,1,205.39,101.15Zm-3.54,7.06a2.24,2.24,0,0,0,2.05,1,2.16,2.16,0,0,0,1.8-1,4.47,4.47,0,0,0,.7-2.71,4,4,0,0,0-.72-2.64,2.29,2.29,0,0,0-1.8-.86A2.35,2.35,0,0,0,202,103a4.15,4.15,0,0,0-.74,2.69A4.75,4.75,0,0,0,201.85,108.21Z"/><path class="cls-1" d="M215.27,104.58a.86.86,0,0,0,.73-.46,1.4,1.4,0,0,0,.1-.61,1.31,1.31,0,0,0-.57-1.18,3.09,3.09,0,0,0-1.64-.36,2.09,2.09,0,0,0-1.76.67,2.25,2.25,0,0,0-.38,1.1h-1.47a2.73,2.73,0,0,1,1.13-2.43,4.65,4.65,0,0,1,2.51-.68,5.16,5.16,0,0,1,2.7.63,2.16,2.16,0,0,1,1,2v5.43a.75.75,0,0,0,.1.39.49.49,0,0,0,.43.15h.24l.28,0v1.17a5.52,5.52,0,0,1-.56.13,4,4,0,0,1-.53,0,1.3,1.3,0,0,1-1.19-.58,2.12,2.12,0,0,1-.27-.87,4,4,0,0,1-1.39,1.1,4.29,4.29,0,0,1-2,.47,3,3,0,0,1-2.14-.8,2.61,2.61,0,0,1-.83-2,2.56,2.56,0,0,1,.81-2,3.9,3.9,0,0,1,2.15-.89Zm-3.33,4.27a1.87,1.87,0,0,0,1.19.39,3.56,3.56,0,0,0,1.61-.38,2.18,2.18,0,0,0,1.32-2.1v-1.27a3,3,0,0,1-.74.31,6.16,6.16,0,0,1-.9.17l-1,.13a3.45,3.45,0,0,0-1.29.36,1.38,1.38,0,0,0-.73,1.31A1.28,1.28,0,0,0,211.94,108.85Z"/><path class="cls-1" d="M221.18,107.32a2.19,2.19,0,0,0,.4,1.21,2.57,2.57,0,0,0,2.12.77,3.16,3.16,0,0,0,1.58-.39,1.26,1.26,0,0,0,.68-1.18,1,1,0,0,0-.55-.92,6.43,6.43,0,0,0-1.37-.45l-1.28-.32a6.07,6.07,0,0,1-1.8-.66,2,2,0,0,1-1-1.78,2.69,2.69,0,0,1,1-2.16,4,4,0,0,1,2.63-.83,3.69,3.69,0,0,1,3.11,1.25,2.76,2.76,0,0,1,.58,1.71h-1.5a1.76,1.76,0,0,0-.39-1,2.47,2.47,0,0,0-1.93-.62,2.34,2.34,0,0,0-1.39.34,1,1,0,0,0-.47.9,1.1,1.1,0,0,0,.62,1,3.9,3.9,0,0,0,1.06.39l1.06.25a8.49,8.49,0,0,1,2.33.8,2.12,2.12,0,0,1,.92,1.91,2.89,2.89,0,0,1-1,2.17,4.16,4.16,0,0,1-2.94.91,4,4,0,0,1-3-.95,3.57,3.57,0,0,1-.94-2.36Z"/><path class="cls-1" d="M93,122.12a3.53,3.53,0,0,1,1.43,1.22A4.29,4.29,0,0,1,95,125a11.12,11.12,0,0,1,.14,2.07H88.32a4.08,4.08,0,0,0,.67,2.31,2.27,2.27,0,0,0,2,.86,2.49,2.49,0,0,0,2-.82,2.71,2.71,0,0,0,.58-1.1H95a3.53,3.53,0,0,1-.41,1.16,4.35,4.35,0,0,1-.78,1,3.63,3.63,0,0,1-1.77.95,5.51,5.51,0,0,1-1.28.14,3.93,3.93,0,0,1-3-1.28,5,5,0,0,1-1.22-3.58,5.43,5.43,0,0,1,1.23-3.69A4,4,0,0,1,91,121.65,4.26,4.26,0,0,1,93,122.12Zm.57,3.69a4.11,4.11,0,0,0-.44-1.64A2.28,2.28,0,0,0,90.94,123a2.38,2.38,0,0,0-1.81.78,3,3,0,0,0-.77,2Z"/><path class="cls-1" d="M103.11,128.32a2.28,2.28,0,0,0,.41,1.21,2.55,2.55,0,0,0,2.11.77,3.11,3.11,0,0,0,1.58-.39,1.24,1.24,0,0,0,.68-1.18,1,1,0,0,0-.54-.92,6.37,6.37,0,0,0-1.38-.45L104.7,127a6.26,6.26,0,0,1-1.81-.66,2,2,0,0,1-1-1.78,2.69,2.69,0,0,1,1-2.16,3.94,3.94,0,0,1,2.62-.83,3.66,3.66,0,0,1,3.11,1.25,2.7,2.7,0,0,1,.58,1.71h-1.49a1.76,1.76,0,0,0-.39-1,2.49,2.49,0,0,0-1.93-.62,2.32,2.32,0,0,0-1.39.34,1,1,0,0,0-.48.9,1.11,1.11,0,0,0,.63,1,3.81,3.81,0,0,0,1,.39l1.07.25a8.49,8.49,0,0,1,2.33.8,2.12,2.12,0,0,1,.92,1.91,2.87,2.87,0,0,1-1,2.17,4.13,4.13,0,0,1-2.94.91,4,4,0,0,1-3-.95,3.58,3.58,0,0,1-1-2.36Z"/><path class="cls-1" d="M116.22,125.58a.88.88,0,0,0,.73-.46,1.4,1.4,0,0,0,.1-.61,1.31,1.31,0,0,0-.57-1.18,3.13,3.13,0,0,0-1.65-.36,2.07,2.07,0,0,0-1.75.67,2.25,2.25,0,0,0-.38,1.1h-1.48a2.75,2.75,0,0,1,1.13-2.43,4.68,4.68,0,0,1,2.52-.68,5.13,5.13,0,0,1,2.69.63,2.15,2.15,0,0,1,1,2v5.43a.67.67,0,0,0,.1.39.49.49,0,0,0,.43.15h.23l.29,0v1.17a5,5,0,0,1-.57.13,3.79,3.79,0,0,1-.52,0,1.3,1.3,0,0,1-1.19-.58,2.12,2.12,0,0,1-.27-.87,4,4,0,0,1-1.39,1.1,4.33,4.33,0,0,1-2,.47,3,3,0,0,1-2.14-.8,2.64,2.64,0,0,1-.83-2,2.54,2.54,0,0,1,.82-2,3.87,3.87,0,0,1,2.14-.89Zm-3.33,4.27a1.86,1.86,0,0,0,1.18.39,3.57,3.57,0,0,0,1.62-.38,2.18,2.18,0,0,0,1.32-2.1v-1.27a3.14,3.14,0,0,1-.75.31,5.8,5.8,0,0,1-.89.17l-1,.13a3.45,3.45,0,0,0-1.29.36,1.39,1.39,0,0,0-.74,1.31A1.28,1.28,0,0,0,112.89,129.85Z"/><path class="cls-1" d="M124.49,118.07l-2.35,2.54h-1.21l1.61-2.54Zm-2.81,3.83h1.61v9.37h-1.61Z"/><path class="cls-1" d="M131.36,122.15a4.39,4.39,0,0,1,.95.92v-4.75h1.52v13h-1.42V130a3.48,3.48,0,0,1-1.31,1.26,3.69,3.69,0,0,1-1.72.39,3.48,3.48,0,0,1-2.72-1.33,5.19,5.19,0,0,1-1.14-3.52,6.05,6.05,0,0,1,1-3.56,3.42,3.42,0,0,1,3-1.51A3.31,3.31,0,0,1,131.36,122.15Zm-3.54,7.06a2.24,2.24,0,0,0,2.05,1,2.16,2.16,0,0,0,1.8-.95,4.47,4.47,0,0,0,.7-2.71,4,4,0,0,0-.72-2.64,2.29,2.29,0,0,0-1.8-.86,2.38,2.38,0,0,0-1.93.92,4.21,4.21,0,0,0-.73,2.69A4.75,4.75,0,0,0,127.82,129.21Z"/><path class="cls-1" d="M141.24,125.58a.86.86,0,0,0,.73-.46,1.4,1.4,0,0,0,.1-.61,1.31,1.31,0,0,0-.57-1.18,3.09,3.09,0,0,0-1.64-.36,2.09,2.09,0,0,0-1.76.67,2.25,2.25,0,0,0-.38,1.1h-1.47a2.73,2.73,0,0,1,1.13-2.43,4.65,4.65,0,0,1,2.51-.68,5.16,5.16,0,0,1,2.7.63,2.16,2.16,0,0,1,1,2v5.43a.75.75,0,0,0,.1.39.49.49,0,0,0,.43.15h.24l.28,0v1.17a5.52,5.52,0,0,1-.56.13,4,4,0,0,1-.53,0,1.3,1.3,0,0,1-1.19-.58,2.12,2.12,0,0,1-.27-.87,4,4,0,0,1-1.39,1.1,4.29,4.29,0,0,1-2,.47,3,3,0,0,1-2.14-.8,2.61,2.61,0,0,1-.84-2,2.57,2.57,0,0,1,.82-2,3.9,3.9,0,0,1,2.15-.89Zm-3.33,4.27a1.86,1.86,0,0,0,1.18.39,3.57,3.57,0,0,0,1.62-.38,2.18,2.18,0,0,0,1.32-2.1v-1.27a3,3,0,0,1-.74.31,6.16,6.16,0,0,1-.9.17l-1,.13a3.45,3.45,0,0,0-1.29.36,1.38,1.38,0,0,0-.73,1.31A1.28,1.28,0,0,0,137.91,129.85Z"/><path class="cls-1" d="M147.15,128.32a2.19,2.19,0,0,0,.4,1.21,2.57,2.57,0,0,0,2.12.77,3.16,3.16,0,0,0,1.58-.39,1.26,1.26,0,0,0,.68-1.18,1,1,0,0,0-.55-.92,6.43,6.43,0,0,0-1.37-.45l-1.28-.32a6.26,6.26,0,0,1-1.81-.66,2,2,0,0,1-1-1.78,2.69,2.69,0,0,1,1-2.16,4,4,0,0,1,2.63-.83,3.69,3.69,0,0,1,3.11,1.25,2.69,2.69,0,0,1,.57,1.71h-1.49a1.76,1.76,0,0,0-.39-1,2.47,2.47,0,0,0-1.93-.62,2.34,2.34,0,0,0-1.39.34,1,1,0,0,0-.47.9,1.1,1.1,0,0,0,.62,1,4,4,0,0,0,1,.39l1.07.25a8.49,8.49,0,0,1,2.33.8,2.12,2.12,0,0,1,.92,1.91,2.89,2.89,0,0,1-1,2.17,4.16,4.16,0,0,1-2.94.91,4,4,0,0,1-3-.95,3.57,3.57,0,0,1-.94-2.36Z"/><path class="cls-1" d="M96,173.4a4.6,4.6,0,0,1,2.32,3.54H96.56a3.17,3.17,0,0,0-1.29-2.06,4.31,4.31,0,0,0-2.45-.65,3.81,3.81,0,0,0-3,1.35,5.86,5.86,0,0,0-1.2,4,6.53,6.53,0,0,0,1,3.75,3.64,3.64,0,0,0,3.23,1.44,4.1,4.1,0,0,0,2.84-1,4.32,4.32,0,0,0,1.15-3.29h-4V179H98.5v6.91H97.37L97,184.28a6.44,6.44,0,0,1-1.55,1.35,5.63,5.63,0,0,1-2.88.65,5.57,5.57,0,0,1-3.88-1.48,7.13,7.13,0,0,1-1.77-5.12,7.43,7.43,0,0,1,1.73-5.16,5.5,5.5,0,0,1,4.26-1.82A6.49,6.49,0,0,1,96,173.4Z"/><path class="cls-1" d="M107,176.79A3.56,3.56,0,0,1,108.4,178a4.29,4.29,0,0,1,.63,1.66,11.12,11.12,0,0,1,.14,2.07h-6.85a4.08,4.08,0,0,0,.67,2.31,2.27,2.27,0,0,0,2,.86,2.49,2.49,0,0,0,2-.82,2.77,2.77,0,0,0,.58-1.1H109a3.27,3.27,0,0,1-.41,1.15,4,4,0,0,1-.78,1.05,3.71,3.71,0,0,1-1.77.95,5.51,5.51,0,0,1-1.28.14,3.94,3.94,0,0,1-3-1.28,5,5,0,0,1-1.21-3.58,5.42,5.42,0,0,1,1.22-3.69,4,4,0,0,1,3.2-1.41A4.19,4.19,0,0,1,107,176.79Zm.56,3.69a4.11,4.11,0,0,0-.44-1.64,2.28,2.28,0,0,0-2.16-1.14,2.38,2.38,0,0,0-1.81.78,3,3,0,0,0-.77,2Z"/><path class="cls-1" d="M111.22,176.53h1.5v1.62a3.54,3.54,0,0,1,.9-1.15,2.34,2.34,0,0,1,1.67-.68h.14l.37,0V178l-.26,0h-.26a2.24,2.24,0,0,0-1.84.77,2.66,2.66,0,0,0-.64,1.77v5.41h-1.58Z"/><path class="cls-1" d="M122.21,180.25a.86.86,0,0,0,.73-.46,1.41,1.41,0,0,0,.11-.61,1.31,1.31,0,0,0-.58-1.18,3.09,3.09,0,0,0-1.64-.36,2.09,2.09,0,0,0-1.76.67,2.16,2.16,0,0,0-.37,1.1h-1.48a2.73,2.73,0,0,1,1.13-2.43,4.65,4.65,0,0,1,2.51-.68,5.14,5.14,0,0,1,2.7.63,2.15,2.15,0,0,1,1,2v5.43a.67.67,0,0,0,.11.39q.09.15.42.15h.24l.28,0V186a5,5,0,0,1-.56.13,4,4,0,0,1-.53,0,1.31,1.31,0,0,1-1.19-.58,2.12,2.12,0,0,1-.27-.87,3.86,3.86,0,0,1-1.39,1.1,4.29,4.29,0,0,1-2,.47,3,3,0,0,1-2.14-.8,2.61,2.61,0,0,1-.83-2,2.56,2.56,0,0,1,.81-2,3.9,3.9,0,0,1,2.15-.89Zm-3.33,4.27a1.87,1.87,0,0,0,1.19.39,3.69,3.69,0,0,0,1.61-.38,2.18,2.18,0,0,0,1.32-2.1v-1.27a3,3,0,0,1-.74.31,6.16,6.16,0,0,1-.9.17l-1,.13a3.68,3.68,0,0,0-1.3.35,1.41,1.41,0,0,0-.73,1.32A1.3,1.3,0,0,0,118.88,184.52Z"/><path class="cls-1" d="M133.4,177a3.7,3.7,0,0,1,1.19,2.66h-1.53a2.89,2.89,0,0,0-.64-1.44,2,2,0,0,0-1.61-.58,2.23,2.23,0,0,0-2.17,1.48,5.83,5.83,0,0,0-.42,2.36,4.45,4.45,0,0,0,.6,2.38,2.32,2.32,0,0,0,3.44.36,3.33,3.33,0,0,0,.8-1.64h1.53a4.12,4.12,0,0,1-1.31,2.74,3.74,3.74,0,0,1-2.45.86l-.62.86a2,2,0,0,1,.66-.08,1.49,1.49,0,0,1,1,.35,1.32,1.32,0,0,1,.39,1,1.51,1.51,0,0,1-.52,1.15,2.34,2.34,0,0,1-1.62.48,3.76,3.76,0,0,1-1-.13c-.18-.05-.44-.13-.75-.24l.31-.72c.22.09.39.14.52.18a2.71,2.71,0,0,0,.65.1,1.52,1.52,0,0,0,.56-.1.67.67,0,0,0,.46-.67.65.65,0,0,0-.23-.49.94.94,0,0,0-.62-.2,1.83,1.83,0,0,0-.35,0,3.09,3.09,0,0,0-.37.12l-.31-.36,1-1.3a2.89,2.89,0,0,1-2.19-1,5.41,5.41,0,0,1-1.26-3.72,5.67,5.67,0,0,1,1.2-3.85,3.88,3.88,0,0,1,3.07-1.38A4.09,4.09,0,0,1,133.4,177Z"/><path class="cls-1" d="M141.22,180.25a.85.85,0,0,0,.73-.46,1.41,1.41,0,0,0,.11-.61,1.29,1.29,0,0,0-.58-1.18,3.09,3.09,0,0,0-1.64-.36,2.09,2.09,0,0,0-1.76.67,2.16,2.16,0,0,0-.37,1.1h-1.48a2.73,2.73,0,0,1,1.13-2.43,4.65,4.65,0,0,1,2.51-.68,5.14,5.14,0,0,1,2.7.63,2.15,2.15,0,0,1,1,2v5.43a.67.67,0,0,0,.11.39c.06.1.21.15.42.15h.24l.28,0V186a5,5,0,0,1-.56.13,4,4,0,0,1-.53,0,1.31,1.31,0,0,1-1.19-.58,2.29,2.29,0,0,1-.27-.87,3.86,3.86,0,0,1-1.39,1.1,4.29,4.29,0,0,1-2,.47,3,3,0,0,1-2.14-.8,2.61,2.61,0,0,1-.83-2,2.56,2.56,0,0,1,.81-2,3.9,3.9,0,0,1,2.15-.89Zm-.64-6.64a3.67,3.67,0,0,0,.45.17,1.4,1.4,0,0,0,.41.06.77.77,0,0,0,.7-.31,1.13,1.13,0,0,0,.16-.5h.93a2.47,2.47,0,0,1-.71,1.54,1.79,1.79,0,0,1-1.15.42,2,2,0,0,1-.49-.07,4.24,4.24,0,0,1-.53-.16l-.46-.16c-.28-.1-.5-.18-.68-.23a1.77,1.77,0,0,0-.5-.07.67.67,0,0,0-.51.2,1.15,1.15,0,0,0-.27.61h-.86a3.4,3.4,0,0,1,.38-1.13,1.65,1.65,0,0,1,1.49-.81,2.74,2.74,0,0,1,.66.09A7.63,7.63,0,0,1,140.58,173.61Zm-2.69,10.91a1.87,1.87,0,0,0,1.19.39,3.69,3.69,0,0,0,1.61-.38,2.18,2.18,0,0,0,1.32-2.1v-1.27a3,3,0,0,1-.74.31,5.92,5.92,0,0,1-.9.17l-1,.13a3.68,3.68,0,0,0-1.3.35,1.41,1.41,0,0,0-.73,1.32A1.3,1.3,0,0,0,137.89,184.52Z"/><path class="cls-1" d="M153,177.47a4.75,4.75,0,0,1,1.25,3.56,6.16,6.16,0,0,1-1.1,3.76,4,4,0,0,1-3.42,1.49,3.84,3.84,0,0,1-3.06-1.32,5.17,5.17,0,0,1-1.13-3.52,5.63,5.63,0,0,1,1.19-3.78,4,4,0,0,1,3.21-1.4A4.21,4.21,0,0,1,153,177.47Zm-1,6.25a6,6,0,0,0,.57-2.64,4.86,4.86,0,0,0-.41-2.14,2.34,2.34,0,0,0-2.28-1.3,2.24,2.24,0,0,0-2.09,1.1,5.23,5.23,0,0,0-.65,2.67,4.51,4.51,0,0,0,.65,2.5,2.3,2.3,0,0,0,2.07,1A2.15,2.15,0,0,0,152,183.72Z"/><path class="cls-1" d="M166.37,176.82a4.17,4.17,0,0,1,1,.92V173h1.52v12.95h-1.43v-1.31a3.46,3.46,0,0,1-1.3,1.26,3.71,3.71,0,0,1-1.73.39,3.49,3.49,0,0,1-2.71-1.33,5.15,5.15,0,0,1-1.15-3.52,6.06,6.06,0,0,1,1.05-3.56,3.41,3.41,0,0,1,3-1.51A3.25,3.25,0,0,1,166.37,176.82Zm-3.53,7.06a2.23,2.23,0,0,0,2,1,2.16,2.16,0,0,0,1.79-1,4.46,4.46,0,0,0,.71-2.71,4,4,0,0,0-.73-2.64,2.26,2.26,0,0,0-1.79-.86,2.37,2.37,0,0,0-1.93.92,4.21,4.21,0,0,0-.74,2.69A4.66,4.66,0,0,0,162.84,183.88Z"/><path class="cls-1" d="M177,176.79a3.53,3.53,0,0,1,1.43,1.22,4.29,4.29,0,0,1,.63,1.66,11.12,11.12,0,0,1,.14,2.07h-6.85a4.08,4.08,0,0,0,.67,2.31,2.27,2.27,0,0,0,2,.86,2.49,2.49,0,0,0,2-.82,2.77,2.77,0,0,0,.58-1.1h1.56a3.49,3.49,0,0,1-.41,1.15,4.22,4.22,0,0,1-.78,1.05,3.76,3.76,0,0,1-1.77.95,5.51,5.51,0,0,1-1.28.14,3.93,3.93,0,0,1-3-1.28,5,5,0,0,1-1.22-3.58,5.43,5.43,0,0,1,1.23-3.69,4,4,0,0,1,3.19-1.41A4.14,4.14,0,0,1,177,176.79Zm.57,3.69a4.11,4.11,0,0,0-.44-1.64A2.28,2.28,0,0,0,175,177.7a2.38,2.38,0,0,0-1.81.78,3,3,0,0,0-.77,2Z"/><path class="cls-1" d="M192.44,177a3.75,3.75,0,0,1,1.2,2.66H192.1a2.81,2.81,0,0,0-.64-1.44,2,2,0,0,0-1.61-.58,2.21,2.21,0,0,0-2.16,1.48,5.83,5.83,0,0,0-.42,2.36,4.45,4.45,0,0,0,.6,2.38,2,2,0,0,0,1.88,1,2.08,2.08,0,0,0,1.56-.6,3.24,3.24,0,0,0,.79-1.64h1.54a4.17,4.17,0,0,1-1.32,2.74,4.09,4.09,0,0,1-2.7.86,3.61,3.61,0,0,1-2.94-1.34,5.2,5.2,0,0,1-1.1-3.38,5.67,5.67,0,0,1,1.2-3.85,3.91,3.91,0,0,1,3.07-1.38A4.09,4.09,0,0,1,192.44,177Z"/><path class="cls-1" d="M202,177.47a4.75,4.75,0,0,1,1.25,3.56,6.16,6.16,0,0,1-1.1,3.76,4,4,0,0,1-3.41,1.49,3.84,3.84,0,0,1-3.07-1.32,5.22,5.22,0,0,1-1.13-3.52,5.64,5.64,0,0,1,1.2-3.78,4,4,0,0,1,3.21-1.4A4.2,4.2,0,0,1,202,177.47Zm-1,6.25a5.88,5.88,0,0,0,.58-2.64,4.71,4.71,0,0,0-.42-2.14,2.34,2.34,0,0,0-2.28-1.3,2.22,2.22,0,0,0-2.08,1.1,5.13,5.13,0,0,0-.65,2.67,4.43,4.43,0,0,0,.65,2.5,2.27,2.27,0,0,0,2.07,1A2.15,2.15,0,0,0,201.06,183.72Z"/><path class="cls-1" d="M205.23,176.53h1.51v1.33a4.12,4.12,0,0,1,1.41-1.18,3.78,3.78,0,0,1,1.66-.36,2.73,2.73,0,0,1,2.71,1.4,4.88,4.88,0,0,1,.39,2.18v6H211.3V180a3.22,3.22,0,0,0-.26-1.39,1.54,1.54,0,0,0-1.53-.88,3,3,0,0,0-.92.12,2.3,2.3,0,0,0-1.14.77,2.28,2.28,0,0,0-.52,1,6.44,6.44,0,0,0-.12,1.42v4.93h-1.58Z"/><path class="cls-1" d="M215.56,173.9h1.6v2.63h1.5v1.29h-1.5V184a.67.67,0,0,0,.33.66,1.37,1.37,0,0,0,.62.1h.24l.31,0v1.25a4.78,4.78,0,0,1-.57.12,6.05,6.05,0,0,1-.63,0,1.7,1.7,0,0,1-1.5-.57,2.44,2.44,0,0,1-.4-1.47v-6.23h-1.27v-1.29h1.27Z"/><path class="cls-1" d="M220.29,176.53h1.5v1.62a3.6,3.6,0,0,1,.91-1.15,2.31,2.31,0,0,1,1.66-.68h.15l.36,0V178l-.26,0h-.26a2.24,2.24,0,0,0-1.84.77,2.66,2.66,0,0,0-.64,1.77v5.41h-1.58Z"/><path class="cls-1" d="M231.28,180.25a.85.85,0,0,0,.73-.46,1.41,1.41,0,0,0,.11-.61,1.29,1.29,0,0,0-.58-1.18,3.09,3.09,0,0,0-1.64-.36,2.09,2.09,0,0,0-1.76.67,2.25,2.25,0,0,0-.37,1.1h-1.48a2.75,2.75,0,0,1,1.13-2.43,4.65,4.65,0,0,1,2.51-.68,5.14,5.14,0,0,1,2.7.63,2.16,2.16,0,0,1,1,2v5.43a.67.67,0,0,0,.1.39c.06.1.21.15.42.15h.24l.28,0V186a4.52,4.52,0,0,1-.56.13,3.87,3.87,0,0,1-.53,0,1.28,1.28,0,0,1-1.18-.58,2.28,2.28,0,0,1-.28-.87,3.86,3.86,0,0,1-1.39,1.1,4.26,4.26,0,0,1-2,.47,3,3,0,0,1-2.14-.8,2.64,2.64,0,0,1-.83-2,2.54,2.54,0,0,1,.82-2,3.87,3.87,0,0,1,2.14-.89ZM228,184.52a1.89,1.89,0,0,0,1.19.39,3.73,3.73,0,0,0,1.62-.38,2.19,2.19,0,0,0,1.31-2.1v-1.27a3,3,0,0,1-.74.31,5.92,5.92,0,0,1-.9.17l-1,.13a3.61,3.61,0,0,0-1.29.35,1.42,1.42,0,0,0-.74,1.32A1.3,1.3,0,0,0,228,184.52Z"/><path class="cls-1" d="M236.57,173.9h1.6v2.63h1.5v1.29h-1.5V184a.67.67,0,0,0,.33.66,1.32,1.32,0,0,0,.61.1h.25l.31,0v1.25a4.78,4.78,0,0,1-.57.12,6.4,6.4,0,0,1-.64,0,1.71,1.71,0,0,1-1.5-.57,2.51,2.51,0,0,1-.39-1.47v-6.23h-1.28v-1.29h1.28Z"/><path class="cls-1" d="M248.07,177.47a4.75,4.75,0,0,1,1.25,3.56,6.16,6.16,0,0,1-1.1,3.76,4,4,0,0,1-3.41,1.49,3.84,3.84,0,0,1-3.07-1.32,5.22,5.22,0,0,1-1.13-3.52,5.69,5.69,0,0,1,1.19-3.78,4,4,0,0,1,3.22-1.4A4.2,4.2,0,0,1,248.07,177.47Zm-1,6.25a6,6,0,0,0,.58-2.64,4.71,4.71,0,0,0-.42-2.14,2.34,2.34,0,0,0-2.28-1.3,2.22,2.22,0,0,0-2.08,1.1,5.13,5.13,0,0,0-.66,2.67,4.43,4.43,0,0,0,.66,2.5,2.27,2.27,0,0,0,2.07,1A2.15,2.15,0,0,0,247.09,183.72Z"/><path class="cls-1" d="M261.43,176.82a4.17,4.17,0,0,1,1,.92V173h1.52v12.95h-1.43v-1.31a3.39,3.39,0,0,1-1.3,1.26,3.69,3.69,0,0,1-1.72.39,3.51,3.51,0,0,1-2.72-1.33,5.2,5.2,0,0,1-1.15-3.52,6.06,6.06,0,0,1,1-3.56,3.41,3.41,0,0,1,3-1.51A3.25,3.25,0,0,1,261.43,176.82Zm-3.53,7.06a2.24,2.24,0,0,0,2.05,1,2.16,2.16,0,0,0,1.8-1,4.54,4.54,0,0,0,.7-2.71,4,4,0,0,0-.73-2.64,2.26,2.26,0,0,0-1.79-.86,2.38,2.38,0,0,0-1.93.92,4.21,4.21,0,0,0-.74,2.69A4.75,4.75,0,0,0,257.9,183.88Z"/><path class="cls-1" d="M272.09,176.79a3.56,3.56,0,0,1,1.42,1.22,4.14,4.14,0,0,1,.63,1.66,11.12,11.12,0,0,1,.14,2.07h-6.85a4.16,4.16,0,0,0,.67,2.31,2.27,2.27,0,0,0,1.95.86,2.49,2.49,0,0,0,2-.82,2.77,2.77,0,0,0,.58-1.1h1.56a3.27,3.27,0,0,1-.41,1.15,4,4,0,0,1-.78,1.05,3.71,3.71,0,0,1-1.77.95,5.45,5.45,0,0,1-1.28.14,3.94,3.94,0,0,1-3-1.28,5,5,0,0,1-1.21-3.58,5.42,5.42,0,0,1,1.22-3.69,4,4,0,0,1,3.2-1.41A4.19,4.19,0,0,1,272.09,176.79Zm.56,3.69a4.11,4.11,0,0,0-.44-1.64,2.28,2.28,0,0,0-2.15-1.14,2.41,2.41,0,0,0-1.82.78,3,3,0,0,0-.77,2Z"/><path class="cls-1" d="M87.48,194.9h1.6v2.63h1.5v1.29h-1.5V205a.67.67,0,0,0,.33.66,1.34,1.34,0,0,0,.62.1h.24l.31,0v1.25a4.78,4.78,0,0,1-.57.12,6.19,6.19,0,0,1-.63,0,1.73,1.73,0,0,1-1.51-.57,2.51,2.51,0,0,1-.39-1.47v-6.23H86.2v-1.29h1.28Z"/><path class="cls-1" d="M98,197.79A3.56,3.56,0,0,1,99.4,199a4.29,4.29,0,0,1,.63,1.66,11.12,11.12,0,0,1,.14,2.07H93.32a4.08,4.08,0,0,0,.67,2.31,2.27,2.27,0,0,0,2,.86,2.49,2.49,0,0,0,2-.82,2.77,2.77,0,0,0,.58-1.1H100a3.27,3.27,0,0,1-.41,1.15,4,4,0,0,1-.78,1.05,3.71,3.71,0,0,1-1.77.95,5.51,5.51,0,0,1-1.28.14,3.94,3.94,0,0,1-3-1.28,5,5,0,0,1-1.21-3.58,5.42,5.42,0,0,1,1.22-3.69,4,4,0,0,1,3.2-1.41A4.19,4.19,0,0,1,98,197.79Zm.56,3.69a4.11,4.11,0,0,0-.44-1.64,2.28,2.28,0,0,0-2.16-1.14,2.38,2.38,0,0,0-1.81.78,3,3,0,0,0-.77,2Z"/><path class="cls-1" d="M102.22,197.53h1.5v1.62a3.54,3.54,0,0,1,.9-1.15,2.34,2.34,0,0,1,1.67-.68h.14l.37,0V199l-.26,0h-.26a2.24,2.24,0,0,0-1.84.77,2.66,2.66,0,0,0-.64,1.77v5.41h-1.58Z"/><path class="cls-1" d="M108.17,197.53h1.56v1.33a5.6,5.6,0,0,1,1-1,3.11,3.11,0,0,1,1.78-.53,2.79,2.79,0,0,1,1.81.55,3,3,0,0,1,.7.93,3.26,3.26,0,0,1,2.84-1.48,2.61,2.61,0,0,1,2.58,1.37,4.41,4.41,0,0,1,.37,2v6.26h-1.64V200.4a1.55,1.55,0,0,0-.47-1.29,1.91,1.91,0,0,0-1.15-.35,2.28,2.28,0,0,0-1.6.62,2.75,2.75,0,0,0-.68,2.09v5.47h-1.6V200.8a3.22,3.22,0,0,0-.23-1.4,1.4,1.4,0,0,0-1.35-.66,2.29,2.29,0,0,0-1.63.7,3.39,3.39,0,0,0-.73,2.51v5h-1.58Z"/><path class="cls-1" d="M130,198.47a4.75,4.75,0,0,1,1.25,3.56,6.16,6.16,0,0,1-1.1,3.76,4,4,0,0,1-3.41,1.49,3.84,3.84,0,0,1-3.07-1.32,5.22,5.22,0,0,1-1.13-3.52,5.69,5.69,0,0,1,1.19-3.78,4,4,0,0,1,3.22-1.4A4.2,4.2,0,0,1,130,198.47Zm-1,6.25a6,6,0,0,0,.58-2.64,4.71,4.71,0,0,0-.42-2.14,2.34,2.34,0,0,0-2.28-1.3,2.22,2.22,0,0,0-2.08,1.1,5.13,5.13,0,0,0-.66,2.67,4.43,4.43,0,0,0,.66,2.5,2.27,2.27,0,0,0,2.07,1A2.15,2.15,0,0,0,129,204.72Z"/><path class="cls-1" d="M134.11,204a2.28,2.28,0,0,0,.4,1.21,2.58,2.58,0,0,0,2.12.77,3.11,3.11,0,0,0,1.58-.39,1.24,1.24,0,0,0,.68-1.18,1,1,0,0,0-.54-.92A6.37,6.37,0,0,0,137,203l-1.27-.32a6.26,6.26,0,0,1-1.81-.66,2,2,0,0,1-1-1.78,2.7,2.7,0,0,1,1-2.16,3.92,3.92,0,0,1,2.62-.83,3.66,3.66,0,0,1,3.11,1.25,2.7,2.7,0,0,1,.58,1.71h-1.49a1.76,1.76,0,0,0-.39-1,2.49,2.49,0,0,0-1.93-.62,2.32,2.32,0,0,0-1.39.34,1,1,0,0,0-.48.9,1.12,1.12,0,0,0,.62,1,3.9,3.9,0,0,0,1.06.39l1.07.25a8.39,8.39,0,0,1,2.32.8,2.11,2.11,0,0,1,.93,1.91,2.9,2.9,0,0,1-1,2.17,4.13,4.13,0,0,1-2.94.91,4,4,0,0,1-3-1,3.58,3.58,0,0,1-.95-2.36Z"/><path class="cls-1" d="M153,197.79a3.56,3.56,0,0,1,1.42,1.22,4.29,4.29,0,0,1,.63,1.66,11.12,11.12,0,0,1,.14,2.07h-6.85a4.16,4.16,0,0,0,.67,2.31,2.27,2.27,0,0,0,1.95.86,2.49,2.49,0,0,0,2-.82,2.77,2.77,0,0,0,.58-1.1h1.56a3.27,3.27,0,0,1-.41,1.15,4,4,0,0,1-.78,1.05,3.71,3.71,0,0,1-1.77.95,5.51,5.51,0,0,1-1.28.14,3.94,3.94,0,0,1-3-1.28,5,5,0,0,1-1.21-3.58,5.42,5.42,0,0,1,1.22-3.69,4,4,0,0,1,3.2-1.41A4.19,4.19,0,0,1,153,197.79Zm.56,3.69a4.11,4.11,0,0,0-.44-1.64A2.28,2.28,0,0,0,151,198.7a2.41,2.41,0,0,0-1.82.78,3,3,0,0,0-.77,2Z"/><path class="cls-1" d="M168.4,198a3.67,3.67,0,0,1,1.2,2.66h-1.54a2.73,2.73,0,0,0-.64-1.44,2,2,0,0,0-1.61-.58,2.23,2.23,0,0,0-2.16,1.48,5.83,5.83,0,0,0-.42,2.36,4.45,4.45,0,0,0,.6,2.38,2,2,0,0,0,1.88,1,2.08,2.08,0,0,0,1.56-.6,3.24,3.24,0,0,0,.79-1.64h1.54a3.71,3.71,0,0,1-4,3.6,3.62,3.62,0,0,1-3-1.34,5.2,5.2,0,0,1-1.1-3.38,5.62,5.62,0,0,1,1.21-3.85,3.88,3.88,0,0,1,3.06-1.38A4.07,4.07,0,0,1,168.4,198Z"/><path class="cls-1" d="M178,198.47a4.71,4.71,0,0,1,1.25,3.56,6.1,6.1,0,0,1-1.1,3.76,4,4,0,0,1-3.41,1.49,3.81,3.81,0,0,1-3.06-1.32,5.17,5.17,0,0,1-1.14-3.52,5.64,5.64,0,0,1,1.2-3.78,4,4,0,0,1,3.21-1.4A4.2,4.2,0,0,1,178,198.47Zm-1,6.25a5.88,5.88,0,0,0,.58-2.64,4.71,4.71,0,0,0-.42-2.14,2.33,2.33,0,0,0-2.27-1.3,2.23,2.23,0,0,0-2.09,1.1,5.13,5.13,0,0,0-.65,2.67,4.43,4.43,0,0,0,.65,2.5,2.27,2.27,0,0,0,2.07,1A2.14,2.14,0,0,0,177,204.72Z"/><path class="cls-1" d="M181.19,197.53h1.51v1.33a4.12,4.12,0,0,1,1.41-1.18,3.78,3.78,0,0,1,1.66-.36,2.73,2.73,0,0,1,2.71,1.4,4.88,4.88,0,0,1,.39,2.18v6h-1.61V201a3.22,3.22,0,0,0-.26-1.39,1.54,1.54,0,0,0-1.53-.88,3,3,0,0,0-.92.12,2.3,2.3,0,0,0-1.14.77,2.25,2.25,0,0,0-.51,1,6.44,6.44,0,0,0-.12,1.42v4.93h-1.59Z"/><path class="cls-1" d="M196.38,197.82a4.16,4.16,0,0,1,1,.92V194h1.52v12.95h-1.42v-1.31a3.41,3.41,0,0,1-1.31,1.26,3.66,3.66,0,0,1-1.72.39,3.51,3.51,0,0,1-2.72-1.33,5.19,5.19,0,0,1-1.14-3.52,6.12,6.12,0,0,1,1-3.56,3.42,3.42,0,0,1,3-1.51A3.31,3.31,0,0,1,196.38,197.82Zm-3.53,7.06a2.22,2.22,0,0,0,2,1,2.16,2.16,0,0,0,1.8-1,4.47,4.47,0,0,0,.7-2.71,4,4,0,0,0-.72-2.64,2.28,2.28,0,0,0-1.8-.86,2.35,2.35,0,0,0-1.92.92,4.15,4.15,0,0,0-.74,2.69A4.66,4.66,0,0,0,192.85,204.88Z"/><path class="cls-1" d="M201.22,194h1.6v1.79h-1.6Zm0,3.54h1.6v9.37h-1.6Z"/><path class="cls-1" d="M211.43,198a3.67,3.67,0,0,1,1.2,2.66h-1.54a2.73,2.73,0,0,0-.64-1.44,2,2,0,0,0-1.61-.58,2.23,2.23,0,0,0-2.16,1.48,5.83,5.83,0,0,0-.42,2.36,4.45,4.45,0,0,0,.6,2.38,2.32,2.32,0,0,0,3.44.36,3.24,3.24,0,0,0,.79-1.64h1.54a4.08,4.08,0,0,1-1.32,2.74,3.7,3.7,0,0,1-2.44.86l-.62.86a2,2,0,0,1,.66-.08,1.51,1.51,0,0,1,1,.35,1.32,1.32,0,0,1,.39,1,1.51,1.51,0,0,1-.52,1.15,2.38,2.38,0,0,1-1.62.48,3.76,3.76,0,0,1-1-.13q-.28-.08-.75-.24l.3-.72c.23.09.4.14.52.18a2.86,2.86,0,0,0,.66.1,1.6,1.6,0,0,0,.56-.1.67.67,0,0,0,.46-.67.65.65,0,0,0-.23-.49,1,1,0,0,0-.63-.2,1.72,1.72,0,0,0-.34,0,2.61,2.61,0,0,0-.37.12l-.31-.36,1-1.3a2.88,2.88,0,0,1-2.18-1,5.41,5.41,0,0,1-1.27-3.72,5.62,5.62,0,0,1,1.21-3.85,3.88,3.88,0,0,1,3.06-1.38A4.05,4.05,0,0,1,211.43,198Z"/><path class="cls-1" d="M221,198.47a4.74,4.74,0,0,1,1.24,3.56,6.1,6.1,0,0,1-1.1,3.76,4,4,0,0,1-3.41,1.49,3.82,3.82,0,0,1-3.06-1.32,5.17,5.17,0,0,1-1.14-3.52,5.64,5.64,0,0,1,1.2-3.78,4,4,0,0,1,3.21-1.4A4.24,4.24,0,0,1,221,198.47Zm-2.5-3.86a3.67,3.67,0,0,0,.45.17,1.4,1.4,0,0,0,.41.06.77.77,0,0,0,.7-.31,1.13,1.13,0,0,0,.16-.5h.92a2.42,2.42,0,0,1-.7,1.54,1.79,1.79,0,0,1-1.15.42,2,2,0,0,1-.49-.07,4.24,4.24,0,0,1-.53-.16l-.47-.16-.67-.23a1.77,1.77,0,0,0-.5-.07.66.66,0,0,0-.51.2,1.15,1.15,0,0,0-.27.61H215a3.19,3.19,0,0,1,.38-1.13,1.64,1.64,0,0,1,1.49-.81,2.8,2.8,0,0,1,.66.09A7.63,7.63,0,0,1,218.54,194.61Zm1.51,10.11a5.88,5.88,0,0,0,.58-2.64,4.71,4.71,0,0,0-.42-2.14,2.33,2.33,0,0,0-2.27-1.3,2.24,2.24,0,0,0-2.09,1.1,5.23,5.23,0,0,0-.65,2.67,4.51,4.51,0,0,0,.65,2.5,2.28,2.28,0,0,0,2.07,1A2.13,2.13,0,0,0,220.05,204.72Z"/><path class="cls-1" d="M230,197.79a3.5,3.5,0,0,1,1.42,1.22,4,4,0,0,1,.63,1.66,10.3,10.3,0,0,1,.14,2.07h-6.84a4.08,4.08,0,0,0,.67,2.31,2.25,2.25,0,0,0,1.94.86,2.47,2.47,0,0,0,2-.82,2.79,2.79,0,0,0,.59-1.1h1.55a3.27,3.27,0,0,1-.41,1.15,4.2,4.2,0,0,1-.77,1.05,3.81,3.81,0,0,1-1.77.95,5.6,5.6,0,0,1-1.29.14,3.94,3.94,0,0,1-3-1.28,5,5,0,0,1-1.21-3.58,5.47,5.47,0,0,1,1.22-3.69,4,4,0,0,1,3.2-1.41A4.16,4.16,0,0,1,230,197.79Zm.57,3.69a4.27,4.27,0,0,0-.45-1.64A2.28,2.28,0,0,0,228,198.7a2.37,2.37,0,0,0-1.81.78,3,3,0,0,0-.78,2Z"/><path class="cls-1" d="M235.18,204a2.19,2.19,0,0,0,.4,1.21,2.57,2.57,0,0,0,2.12.77,3.14,3.14,0,0,0,1.58-.39,1.26,1.26,0,0,0,.68-1.18,1,1,0,0,0-.55-.92A6.43,6.43,0,0,0,238,203l-1.28-.32a6.07,6.07,0,0,1-1.8-.66,2,2,0,0,1-1-1.78,2.7,2.7,0,0,1,1-2.16,3.92,3.92,0,0,1,2.62-.83,3.68,3.68,0,0,1,3.11,1.25,2.76,2.76,0,0,1,.58,1.71h-1.5a1.82,1.82,0,0,0-.38-1,2.51,2.51,0,0,0-1.94-.62A2.36,2.36,0,0,0,236,199a1.06,1.06,0,0,0-.47.9,1.12,1.12,0,0,0,.62,1,3.9,3.9,0,0,0,1.06.39l1.06.25a8.36,8.36,0,0,1,2.33.8,2.12,2.12,0,0,1,.92,1.91,2.89,2.89,0,0,1-1,2.17,4.16,4.16,0,0,1-2.94.91,4,4,0,0,1-3-1,3.57,3.57,0,0,1-.94-2.36Z"/><path class="cls-1" d="M246,194v2l1.92-.66.35,1-1.92.63,1.19,1.65-.87.63-1.15-1.72-1.16,1.72-.9-.63,1.21-1.65-1.94-.63.35-1,1.9.68v-2Z"/><path class="cls-1" d="M96.76,323.78v1.53H92.41v11.38H90.64V325.31H86.29v-1.53Z"/><path class="cls-1" d="M102,327.53a3.61,3.61,0,0,1,1.43,1.22,4.35,4.35,0,0,1,.63,1.66,11.25,11.25,0,0,1,.14,2.08H97.32a4.07,4.07,0,0,0,.67,2.3,2.25,2.25,0,0,0,2,.87,2.52,2.52,0,0,0,2-.82,2.81,2.81,0,0,0,.58-1.11H104a3.53,3.53,0,0,1-.41,1.16,4.35,4.35,0,0,1-.78,1,3.55,3.55,0,0,1-1.77.95,5.51,5.51,0,0,1-1.28.14,3.93,3.93,0,0,1-3-1.28,5,5,0,0,1-1.22-3.58,5.4,5.4,0,0,1,1.23-3.68,4,4,0,0,1,3.19-1.42A4.26,4.26,0,0,1,102,327.53Zm.57,3.7a4.16,4.16,0,0,0-.44-1.65,2.28,2.28,0,0,0-2.16-1.14,2.36,2.36,0,0,0-1.81.79,2.92,2.92,0,0,0-.77,2Z"/><path class="cls-1" d="M106.17,327.27h1.5v1.34a4.28,4.28,0,0,1,1.42-1.19,3.78,3.78,0,0,1,1.66-.36,2.75,2.75,0,0,1,2.71,1.4,5.1,5.1,0,0,1,.38,2.19v6h-1.6v-5.94a3.17,3.17,0,0,0-.26-1.38,1.54,1.54,0,0,0-1.53-.88,3,3,0,0,0-.92.11,2.35,2.35,0,0,0-1.14.77,2.31,2.31,0,0,0-.52,1,6.38,6.38,0,0,0-.12,1.42v4.93h-1.58Z"/><path class="cls-1" d="M116.18,323.73h1.58v4.82a4.65,4.65,0,0,1,1-1,3.38,3.38,0,0,1,1.91-.51,2.82,2.82,0,0,1,2.78,1.44,4.92,4.92,0,0,1,.39,2.17v6h-1.62v-5.94a3.27,3.27,0,0,0-.27-1.52,1.68,1.68,0,0,0-1.61-.77,2.72,2.72,0,0,0-1.79.68,3.25,3.25,0,0,0-.8,2.55v5h-1.58Z"/><path class="cls-1" d="M131.24,331a.88.88,0,0,0,.73-.46,1.4,1.4,0,0,0,.1-.61,1.28,1.28,0,0,0-.57-1.17,3,3,0,0,0-1.65-.37,2.07,2.07,0,0,0-1.75.67,2.29,2.29,0,0,0-.38,1.11h-1.47a2.7,2.7,0,0,1,1.12-2.43,4.6,4.6,0,0,1,2.52-.69,5.12,5.12,0,0,1,2.69.64,2.14,2.14,0,0,1,1,2v5.42a.7.7,0,0,0,.1.4.52.52,0,0,0,.43.14h.24l.28,0v1.17a5,5,0,0,1-.57.13,3.54,3.54,0,0,1-.52,0,1.3,1.3,0,0,1-1.19-.58,2.23,2.23,0,0,1-.27-.87,4.06,4.06,0,0,1-1.39,1.1,4.3,4.3,0,0,1-2,.46,3,3,0,0,1-2.14-.79,2.65,2.65,0,0,1-.83-2,2.58,2.58,0,0,1,.82-2,3.89,3.89,0,0,1,2.14-.88Zm-3.33,4.27a1.81,1.81,0,0,0,1.18.4,3.58,3.58,0,0,0,1.62-.39,2.16,2.16,0,0,0,1.32-2.1V331.9a2.39,2.39,0,0,1-.75.31,7.39,7.39,0,0,1-.89.18l-1,.12a3.88,3.88,0,0,0-1.29.36,1.39,1.39,0,0,0-.73,1.32A1.27,1.27,0,0,0,127.91,335.26Z"/><path class="cls-1" d="M142.79,327.27v6.25a2.67,2.67,0,0,0,.22,1.18,1.54,1.54,0,0,0,1.53.84,2.17,2.17,0,0,0,2.19-1.47,6,6,0,0,0,.32-2.17v-4.63h1.58v9.42h-1.49V335.3a3,3,0,0,1-.75.9,3.21,3.21,0,0,1-2.15.74,2.76,2.76,0,0,1-2.69-1.34,4.08,4.08,0,0,1-.39-1.93v-6.4Z"/><path class="cls-1" d="M151.21,327.27h1.57v1.34a5,5,0,0,1,1-1,3,3,0,0,1,1.77-.54,2.78,2.78,0,0,1,1.81.56,2.84,2.84,0,0,1,.71.93,3.29,3.29,0,0,1,1.24-1.12,3.37,3.37,0,0,1,1.6-.37,2.62,2.62,0,0,1,2.58,1.37,4.47,4.47,0,0,1,.37,2v6.27h-1.64v-6.54a1.52,1.52,0,0,0-.47-1.29,1.86,1.86,0,0,0-1.15-.36,2.24,2.24,0,0,0-1.6.63,2.72,2.72,0,0,0-.68,2.08v5.48h-1.61v-6.15a3.2,3.2,0,0,0-.22-1.39,1.4,1.4,0,0,0-1.35-.66,2.32,2.32,0,0,0-1.63.69,3.39,3.39,0,0,0-.73,2.51v5h-1.59Z"/><path class="cls-1" d="M171.08,323.73h1.54v4.69a3.42,3.42,0,0,1,1.24-1,3.61,3.61,0,0,1,1.57-.35,3.66,3.66,0,0,1,2.86,1.21,5.08,5.08,0,0,1,1.1,3.56,6.13,6.13,0,0,1-1.08,3.71,3.55,3.55,0,0,1-3,1.48,3.15,3.15,0,0,1-1.82-.52,4.53,4.53,0,0,1-.94-1v1.21h-1.46Zm6,10.84a5.07,5.07,0,0,0,.64-2.69,4.45,4.45,0,0,0-.64-2.46,2.13,2.13,0,0,0-1.89-1,2.66,2.66,0,0,0-1.9.8,3.61,3.61,0,0,0-.81,2.64,5.89,5.89,0,0,0,.33,2.15,2.32,2.32,0,0,0,2.34,1.56A2.13,2.13,0,0,0,177.13,334.57Z"/><path class="cls-1" d="M186.27,331a.88.88,0,0,0,.73-.46,1.4,1.4,0,0,0,.1-.61,1.28,1.28,0,0,0-.57-1.17,3.06,3.06,0,0,0-1.65-.37,2.07,2.07,0,0,0-1.75.67,2.19,2.19,0,0,0-.38,1.11h-1.48a2.73,2.73,0,0,1,1.13-2.43,4.58,4.58,0,0,1,2.52-.69,5.12,5.12,0,0,1,2.69.64,2.14,2.14,0,0,1,1,2v5.42a.7.7,0,0,0,.1.4.52.52,0,0,0,.43.14h.23l.28,0v1.17a4.52,4.52,0,0,1-.56.13,3.6,3.6,0,0,1-.53,0,1.28,1.28,0,0,1-1.18-.58,2.23,2.23,0,0,1-.27-.87,4.16,4.16,0,0,1-1.39,1.1,4.33,4.33,0,0,1-2,.46,3,3,0,0,1-2.14-.79,2.65,2.65,0,0,1-.83-2,2.55,2.55,0,0,1,.82-2,3.86,3.86,0,0,1,2.14-.88Zm-3.34,4.27a1.84,1.84,0,0,0,1.19.4,3.58,3.58,0,0,0,1.62-.39,2.16,2.16,0,0,0,1.32-2.1V331.9a2.49,2.49,0,0,1-.75.31,7.39,7.39,0,0,1-.89.18l-1,.12a3.88,3.88,0,0,0-1.29.36,1.4,1.4,0,0,0-.74,1.32A1.3,1.3,0,0,0,182.93,335.26Z"/><path class="cls-1" d="M191.23,327.27h1.5v1.34a4.28,4.28,0,0,1,1.42-1.19,3.78,3.78,0,0,1,1.66-.36,2.75,2.75,0,0,1,2.71,1.4,5,5,0,0,1,.38,2.19v6h-1.6v-5.94a3.17,3.17,0,0,0-.26-1.38,1.54,1.54,0,0,0-1.53-.88,3,3,0,0,0-.92.11,2.4,2.4,0,0,0-1.14.77,2.31,2.31,0,0,0-.52,1,6.38,6.38,0,0,0-.12,1.42v4.93h-1.58Z"/><path class="cls-1" d="M207.46,327.77a3.69,3.69,0,0,1,1.2,2.67h-1.54a2.88,2.88,0,0,0-.64-1.45,2,2,0,0,0-1.61-.57,2.21,2.21,0,0,0-2.16,1.47,5.9,5.9,0,0,0-.42,2.36,4.43,4.43,0,0,0,.6,2.38,2,2,0,0,0,1.88,1,2.08,2.08,0,0,0,1.56-.6,3.28,3.28,0,0,0,.79-1.64h1.54a3.73,3.73,0,0,1-4,3.6,3.59,3.59,0,0,1-2.94-1.35,5.17,5.17,0,0,1-1.1-3.37,5.7,5.7,0,0,1,1.2-3.86,3.91,3.91,0,0,1,3.07-1.38A4.13,4.13,0,0,1,207.46,327.77Z"/><path class="cls-1" d="M217.06,328.21a4.77,4.77,0,0,1,1.25,3.57,6.18,6.18,0,0,1-1.1,3.76A4,4,0,0,1,213.8,337a3.83,3.83,0,0,1-3.06-1.31,5.2,5.2,0,0,1-1.14-3.53,5.59,5.59,0,0,1,1.2-3.77A4,4,0,0,1,214,327,4.2,4.2,0,0,1,217.06,328.21Zm-1,6.26a5.92,5.92,0,0,0,.58-2.65,4.71,4.71,0,0,0-.42-2.14,2.34,2.34,0,0,0-2.28-1.3,2.23,2.23,0,0,0-2.08,1.11,5.08,5.08,0,0,0-.65,2.67,4.45,4.45,0,0,0,.65,2.5,2.29,2.29,0,0,0,2.07,1A2.15,2.15,0,0,0,216.08,334.47Z"/><path class="cls-1" d="M230.43,327.56a4.48,4.48,0,0,1,.95.93v-4.76h1.52v13h-1.42v-1.31a3.38,3.38,0,0,1-1.31,1.25,3.69,3.69,0,0,1-1.72.39,3.5,3.5,0,0,1-2.72-1.32,5.21,5.21,0,0,1-1.14-3.52,6.1,6.1,0,0,1,1-3.57,3.44,3.44,0,0,1,3-1.5A3.4,3.4,0,0,1,230.43,327.56Zm-3.54,7.06a2.24,2.24,0,0,0,2.05,1,2.15,2.15,0,0,0,1.8-.94,4.5,4.5,0,0,0,.7-2.72,4,4,0,0,0-.72-2.64,2.28,2.28,0,0,0-1.8-.85,2.34,2.34,0,0,0-1.92.91,4.17,4.17,0,0,0-.74,2.69A4.72,4.72,0,0,0,226.89,334.62Z"/><path class="cls-1" d="M241.08,327.53a3.57,3.57,0,0,1,1.42,1.22,4,4,0,0,1,.63,1.66,11.25,11.25,0,0,1,.14,2.08h-6.85a4.07,4.07,0,0,0,.68,2.3,2.22,2.22,0,0,0,1.94.87,2.52,2.52,0,0,0,2-.82,2.69,2.69,0,0,0,.58-1.11h1.56a3.31,3.31,0,0,1-.41,1.16,4.32,4.32,0,0,1-.77,1,3.64,3.64,0,0,1-1.77.95,5.6,5.6,0,0,1-1.29.14,3.94,3.94,0,0,1-3-1.28,5,5,0,0,1-1.21-3.58,5.45,5.45,0,0,1,1.22-3.68,4,4,0,0,1,3.2-1.42A4.29,4.29,0,0,1,241.08,327.53Zm.57,3.7a4.33,4.33,0,0,0-.45-1.65,2.28,2.28,0,0,0-2.15-1.14,2.34,2.34,0,0,0-1.81.79,3,3,0,0,0-.78,2Z"/><path class="cls-1" d="M87,348.32h1.55v1.25a3.77,3.77,0,0,1,1-1A3.34,3.34,0,0,1,91.5,348a3.53,3.53,0,0,1,2.72,1.23,5,5,0,0,1,1.12,3.5c0,2.05-.54,3.52-1.61,4.4a3.69,3.69,0,0,1-2.38.83,3.28,3.28,0,0,1-1.8-.46,4.31,4.31,0,0,1-.94-.91v4.81H87Zm6,7.38a4.43,4.43,0,0,0,.74-2.78,5.09,5.09,0,0,0-.33-1.93,2.39,2.39,0,0,0-4.51.09,6.4,6.4,0,0,0-.33,2.23,4.64,4.64,0,0,0,.33,1.85,2.23,2.23,0,0,0,2.25,1.46A2.29,2.29,0,0,0,93,355.7Z"/><path class="cls-1" d="M97.21,348.27h1.51v1.63a3.55,3.55,0,0,1,.9-1.16,2.37,2.37,0,0,1,1.66-.68h.15l.36,0v1.67l-.26,0h-.25a2.27,2.27,0,0,0-1.84.77,2.66,2.66,0,0,0-.64,1.77v5.42H97.21Z"/><path class="cls-1" d="M109,348.53a3.57,3.57,0,0,1,1.42,1.22,4,4,0,0,1,.63,1.66,10.42,10.42,0,0,1,.14,2.08h-6.84a4,4,0,0,0,.67,2.3,2.23,2.23,0,0,0,1.94.87,2.51,2.51,0,0,0,2-.82,2.69,2.69,0,0,0,.58-1.11H111a3.31,3.31,0,0,1-.41,1.16,4.32,4.32,0,0,1-.77,1,3.64,3.64,0,0,1-1.77.95,5.6,5.6,0,0,1-1.29.14,3.94,3.94,0,0,1-3-1.28,5,5,0,0,1-1.21-3.58,5.45,5.45,0,0,1,1.22-3.68,4,4,0,0,1,3.2-1.42A4.29,4.29,0,0,1,109,348.53Zm.57,3.7a4.33,4.33,0,0,0-.45-1.65,2.28,2.28,0,0,0-2.15-1.14,2.34,2.34,0,0,0-1.81.79,3,3,0,0,0-.78,2Z"/><path class="cls-1" d="M114.12,354.73a2.23,2.23,0,0,0,.4,1.22,2.57,2.57,0,0,0,2.12.76,3.27,3.27,0,0,0,1.58-.38,1.28,1.28,0,0,0,.68-1.18,1,1,0,0,0-.55-.93,6.59,6.59,0,0,0-1.37-.44l-1.28-.32a6,6,0,0,1-1.8-.67,2,2,0,0,1-1-1.77,2.67,2.67,0,0,1,1-2.17,3.9,3.9,0,0,1,2.62-.82,3.66,3.66,0,0,1,3.11,1.25,2.71,2.71,0,0,1,.58,1.7h-1.5a1.76,1.76,0,0,0-.39-1,2.51,2.51,0,0,0-1.93-.62,2.34,2.34,0,0,0-1.39.34,1.08,1.08,0,0,0-.47.9,1.09,1.09,0,0,0,.62,1,3.59,3.59,0,0,0,1.06.39l1.06.25a8.85,8.85,0,0,1,2.33.8,2.14,2.14,0,0,1,.92,1.91,2.89,2.89,0,0,1-1,2.17,4.16,4.16,0,0,1-2.94.92,4,4,0,0,1-3-1,3.55,3.55,0,0,1-.94-2.36Z"/><path class="cls-1" d="M122.49,345.65h1.6v2.62h1.5v1.3h-1.5v6.14a.66.66,0,0,0,.34.66,1.47,1.47,0,0,0,.61.09h.25l.3,0v1.26a3.47,3.47,0,0,1-.56.11,6.28,6.28,0,0,1-.64,0,1.7,1.7,0,0,1-1.5-.57,2.48,2.48,0,0,1-.4-1.47v-6.23h-1.27v-1.3h1.27Z"/><path class="cls-1" d="M132.22,352a.85.85,0,0,0,.73-.46,1.38,1.38,0,0,0,.11-.61,1.27,1.27,0,0,0-.58-1.17,3,3,0,0,0-1.64-.37,2.09,2.09,0,0,0-1.76.67,2.2,2.2,0,0,0-.37,1.11h-1.48a2.7,2.7,0,0,1,1.13-2.43,4.57,4.57,0,0,1,2.51-.69,5.14,5.14,0,0,1,2.7.64,2.15,2.15,0,0,1,1,2v5.42a.7.7,0,0,0,.11.4.5.5,0,0,0,.42.14h.24l.28,0v1.17a5,5,0,0,1-.56.13,3.7,3.7,0,0,1-.53,0,1.31,1.31,0,0,1-1.19-.58,2.41,2.41,0,0,1-.27-.87,4,4,0,0,1-1.39,1.1,4.29,4.29,0,0,1-2,.46,3,3,0,0,1-2.14-.79,2.61,2.61,0,0,1-.83-2,2.58,2.58,0,0,1,.81-2,3.89,3.89,0,0,1,2.15-.88Zm-3.33,4.27a1.82,1.82,0,0,0,1.19.4,3.57,3.57,0,0,0,1.61-.39,2.16,2.16,0,0,0,1.32-2.1V352.9a2.42,2.42,0,0,1-.74.31,7.54,7.54,0,0,1-.9.18l-1,.12a3.88,3.88,0,0,0-1.3.36,1.39,1.39,0,0,0-.73,1.32A1.3,1.3,0,0,0,128.89,356.26Z"/><path class="cls-1" d="M142.36,348.56a4.26,4.26,0,0,1,.95.93v-4.76h1.52v13h-1.42v-1.31a3.36,3.36,0,0,1-1.3,1.25,3.74,3.74,0,0,1-1.73.39,3.48,3.48,0,0,1-2.71-1.32,5.16,5.16,0,0,1-1.15-3.52,6.11,6.11,0,0,1,1-3.57,3.41,3.41,0,0,1,3-1.5A3.36,3.36,0,0,1,142.36,348.56Zm-3.53,7.06a2.23,2.23,0,0,0,2,1,2.15,2.15,0,0,0,1.8-.94,4.5,4.5,0,0,0,.71-2.72,4,4,0,0,0-.73-2.64,2.25,2.25,0,0,0-1.79-.85,2.35,2.35,0,0,0-1.93.91,4.23,4.23,0,0,0-.74,2.69A4.64,4.64,0,0,0,138.83,355.62Z"/><path class="cls-1" d="M154,349.21a4.77,4.77,0,0,1,1.25,3.57,6.18,6.18,0,0,1-1.1,3.76,4,4,0,0,1-3.42,1.48,3.86,3.86,0,0,1-3.06-1.31,5.2,5.2,0,0,1-1.13-3.53,5.64,5.64,0,0,1,1.19-3.77A4,4,0,0,1,151,348,4.21,4.21,0,0,1,154,349.21Zm-1,6.26a6.06,6.06,0,0,0,.57-2.65,4.72,4.72,0,0,0-.41-2.14,2.34,2.34,0,0,0-2.28-1.3,2.25,2.25,0,0,0-2.09,1.11,5.18,5.18,0,0,0-.65,2.67,4.53,4.53,0,0,0,.65,2.5,2.32,2.32,0,0,0,2.07,1A2.17,2.17,0,0,0,153,355.47Z"/><path class="cls-1" d="M157.25,348.27h1.51v1.63a3.55,3.55,0,0,1,.9-1.16,2.37,2.37,0,0,1,1.66-.68h.15l.36,0v1.67l-.26,0h-.26a2.25,2.25,0,0,0-1.83.77,2.66,2.66,0,0,0-.64,1.77v5.42h-1.59Z"/><path class="cls-1" d="M169,348.53a3.57,3.57,0,0,1,1.42,1.22,4.2,4.2,0,0,1,.63,1.66,11.25,11.25,0,0,1,.14,2.08h-6.85a4.07,4.07,0,0,0,.68,2.3,2.22,2.22,0,0,0,1.94.87,2.52,2.52,0,0,0,2-.82,2.81,2.81,0,0,0,.58-1.11h1.56a3.31,3.31,0,0,1-.41,1.16,4.1,4.1,0,0,1-.78,1,3.55,3.55,0,0,1-1.77.95,5.45,5.45,0,0,1-1.28.14,3.94,3.94,0,0,1-3-1.28,5,5,0,0,1-1.21-3.58,5.4,5.4,0,0,1,1.22-3.68,4,4,0,0,1,3.2-1.42A4.32,4.32,0,0,1,169,348.53Zm.56,3.7a4.16,4.16,0,0,0-.44-1.65,2.28,2.28,0,0,0-2.15-1.14,2.38,2.38,0,0,0-1.82.79,3,3,0,0,0-.77,2Z"/><path class="cls-1" d="M174.15,354.73a2.31,2.31,0,0,0,.41,1.22,2.54,2.54,0,0,0,2.11.76,3.21,3.21,0,0,0,1.58-.38,1.27,1.27,0,0,0,.69-1.18,1,1,0,0,0-.55-.93,6.53,6.53,0,0,0-1.38-.44l-1.27-.32a6.23,6.23,0,0,1-1.81-.67,2,2,0,0,1-1-1.77,2.7,2.7,0,0,1,1-2.17,3.94,3.94,0,0,1,2.63-.82,3.63,3.63,0,0,1,3.1,1.25,2.6,2.6,0,0,1,.58,1.7h-1.49a1.76,1.76,0,0,0-.39-1,2.51,2.51,0,0,0-1.93-.62,2.34,2.34,0,0,0-1.39.34,1.05,1.05,0,0,0-.47.9,1.09,1.09,0,0,0,.62,1,3.63,3.63,0,0,0,1.05.39l1.07.25a8.85,8.85,0,0,1,2.33.8,2.14,2.14,0,0,1,.92,1.91,2.87,2.87,0,0,1-1,2.17,4.13,4.13,0,0,1-2.94.92,4,4,0,0,1-3-1,3.56,3.56,0,0,1-1-2.36Z"/><path class="cls-1" d="M192.39,348.56a4.48,4.48,0,0,1,1,.93v-4.76h1.52v13h-1.42v-1.31a3.38,3.38,0,0,1-1.31,1.25,3.66,3.66,0,0,1-1.72.39,3.5,3.5,0,0,1-2.72-1.32,5.21,5.21,0,0,1-1.14-3.52,6.18,6.18,0,0,1,1-3.57,3.44,3.44,0,0,1,3-1.5A3.4,3.4,0,0,1,192.39,348.56Zm-3.53,7.06a2.22,2.22,0,0,0,2,1,2.15,2.15,0,0,0,1.8-.94,4.5,4.5,0,0,0,.7-2.72,4,4,0,0,0-.72-2.64,2.28,2.28,0,0,0-1.8-.85,2.34,2.34,0,0,0-1.92.91,4.17,4.17,0,0,0-.74,2.69A4.64,4.64,0,0,0,188.86,355.62Z"/><path class="cls-1" d="M203,348.53a3.57,3.57,0,0,1,1.42,1.22,4,4,0,0,1,.63,1.66,10.42,10.42,0,0,1,.14,2.08h-6.84a4.07,4.07,0,0,0,.67,2.3,2.23,2.23,0,0,0,1.94.87,2.51,2.51,0,0,0,2-.82,2.83,2.83,0,0,0,.59-1.11h1.55a3.31,3.31,0,0,1-.41,1.16,4.32,4.32,0,0,1-.77,1,3.64,3.64,0,0,1-1.77.95,5.6,5.6,0,0,1-1.29.14,3.94,3.94,0,0,1-3-1.28,5,5,0,0,1-1.21-3.58,5.45,5.45,0,0,1,1.22-3.68,4,4,0,0,1,3.2-1.42A4.29,4.29,0,0,1,203,348.53Zm.57,3.7a4.33,4.33,0,0,0-.45-1.65,2.28,2.28,0,0,0-2.15-1.14,2.34,2.34,0,0,0-1.81.79,3,3,0,0,0-.78,2Z"/><path class="cls-1" d="M213.18,354.73a2.31,2.31,0,0,0,.4,1.22,2.57,2.57,0,0,0,2.12.76,3.24,3.24,0,0,0,1.58-.38,1.28,1.28,0,0,0,.68-1.18,1,1,0,0,0-.55-.93,6.59,6.59,0,0,0-1.37-.44l-1.28-.32a6.14,6.14,0,0,1-1.8-.67,2,2,0,0,1-1-1.77,2.7,2.7,0,0,1,1-2.17,3.92,3.92,0,0,1,2.62-.82,3.65,3.65,0,0,1,3.11,1.25,2.66,2.66,0,0,1,.58,1.7h-1.5a1.82,1.82,0,0,0-.38-1,2.55,2.55,0,0,0-1.94-.62,2.36,2.36,0,0,0-1.39.34,1.08,1.08,0,0,0-.47.9,1.1,1.1,0,0,0,.62,1,3.59,3.59,0,0,0,1.06.39l1.06.25a8.71,8.71,0,0,1,2.33.8,2.11,2.11,0,0,1,.92,1.91,2.89,2.89,0,0,1-1,2.17,4.16,4.16,0,0,1-2.94.92,4,4,0,0,1-3-1,3.55,3.55,0,0,1-.94-2.36Z"/><path class="cls-1" d="M227.05,348.53a3.68,3.68,0,0,1,1.43,1.22,4.18,4.18,0,0,1,.62,1.66,10.42,10.42,0,0,1,.14,2.08H222.4a4.07,4.07,0,0,0,.67,2.3,2.24,2.24,0,0,0,1.94.87,2.54,2.54,0,0,0,2-.82,3,3,0,0,0,.58-1.11h1.55a3.31,3.31,0,0,1-.41,1.16,4.32,4.32,0,0,1-.77,1,3.64,3.64,0,0,1-1.77.95,5.58,5.58,0,0,1-1.28.14,3.91,3.91,0,0,1-3-1.28,5,5,0,0,1-1.22-3.58,5.45,5.45,0,0,1,1.22-3.68,4,4,0,0,1,3.2-1.42A4.26,4.26,0,0,1,227.05,348.53Zm.57,3.7a4.16,4.16,0,0,0-.45-1.65,2.27,2.27,0,0,0-2.15-1.14,2.36,2.36,0,0,0-1.81.79,3,3,0,0,0-.78,2Z"/><path class="cls-1" d="M231.29,348.27h1.51v1.63a3.55,3.55,0,0,1,.9-1.16,2.35,2.35,0,0,1,1.66-.68h.15l.36,0v1.67l-.26,0h-.26a2.25,2.25,0,0,0-1.83.77,2.67,2.67,0,0,0-.65,1.77v5.42h-1.58Z"/><path class="cls-1" d="M238,348.27l2.51,7.67,2.62-7.67h1.73l-3.54,9.42h-1.69l-3.47-9.42Z"/><path class="cls-1" d="M246.24,344.78h1.61v1.79h-1.61Zm0,3.54h1.61v9.37h-1.61Z"/><path class="cls-1" d="M256.46,348.77a3.77,3.77,0,0,1,1.2,2.67h-1.54a2.88,2.88,0,0,0-.64-1.45,2,2,0,0,0-1.61-.57,2.21,2.21,0,0,0-2.16,1.47,5.9,5.9,0,0,0-.42,2.36,4.52,4.52,0,0,0,.59,2.38,2.33,2.33,0,0,0,3.45.37,3.36,3.36,0,0,0,.79-1.64h1.54a4.14,4.14,0,0,1-1.32,2.73,3.72,3.72,0,0,1-2.44.87l-.63.85a2.37,2.37,0,0,1,.66-.08,1.44,1.44,0,0,1,1,.36,1.27,1.27,0,0,1,.4,1,1.51,1.51,0,0,1-.53,1.15,2.29,2.29,0,0,1-1.62.49,4.1,4.1,0,0,1-1-.13c-.19-.05-.44-.13-.76-.25l.31-.71.52.17a2.34,2.34,0,0,0,.65.1,1.42,1.42,0,0,0,.57-.1.67.67,0,0,0,.46-.66.63.63,0,0,0-.24-.49.88.88,0,0,0-.62-.21,1.29,1.29,0,0,0-.35,0,2.76,2.76,0,0,0-.36.11l-.31-.36,1-1.29a2.9,2.9,0,0,1-2.18-1,5.4,5.4,0,0,1-1.27-3.72,5.7,5.7,0,0,1,1.2-3.86,3.91,3.91,0,0,1,3.07-1.38A4.15,4.15,0,0,1,256.46,348.77Z"/><path class="cls-1" d="M266.06,349.21a4.77,4.77,0,0,1,1.25,3.57,6.18,6.18,0,0,1-1.1,3.76A4,4,0,0,1,262.8,358a3.87,3.87,0,0,1-3.07-1.31,5.25,5.25,0,0,1-1.13-3.53,5.59,5.59,0,0,1,1.2-3.77A4,4,0,0,1,263,348,4.2,4.2,0,0,1,266.06,349.21Zm-1,6.26a6.06,6.06,0,0,0,.58-2.65,4.71,4.71,0,0,0-.42-2.14,2.34,2.34,0,0,0-2.28-1.3,2.23,2.23,0,0,0-2.08,1.11,5.08,5.08,0,0,0-.65,2.67,4.45,4.45,0,0,0,.65,2.5,2.29,2.29,0,0,0,2.07,1A2.16,2.16,0,0,0,265.08,355.47Z"/><path class="cls-1" d="M270.19,354.73a2.31,2.31,0,0,0,.41,1.22,2.54,2.54,0,0,0,2.11.76,3.21,3.21,0,0,0,1.58-.38,1.26,1.26,0,0,0,.68-1.18,1,1,0,0,0-.54-.93,6.53,6.53,0,0,0-1.38-.44l-1.27-.32a6.23,6.23,0,0,1-1.81-.67,2,2,0,0,1-1-1.77,2.7,2.7,0,0,1,1-2.17,3.93,3.93,0,0,1,2.62-.82,3.64,3.64,0,0,1,3.11,1.25,2.66,2.66,0,0,1,.58,1.7h-1.49a1.76,1.76,0,0,0-.39-1,2.52,2.52,0,0,0-1.93-.62,2.34,2.34,0,0,0-1.39.34,1.06,1.06,0,0,0-.48.9,1.1,1.1,0,0,0,.63,1,3.51,3.51,0,0,0,1.05.39l1.07.25a8.85,8.85,0,0,1,2.33.8,2.14,2.14,0,0,1,.92,1.91,2.87,2.87,0,0,1-1,2.17,4.13,4.13,0,0,1-2.94.92,4,4,0,0,1-3-1,3.56,3.56,0,0,1-.95-2.36Z"/><path class="cls-1" d="M281.05,344.78v2l1.91-.66.35,1-1.91.62,1.19,1.66-.88.62-1.14-1.72-1.17,1.72-.89-.62,1.2-1.66-1.93-.62.35-1,1.9.69v-2Z"/><path class="cls-1" d="M37.1,94.78H22.5v14.6H37.1ZM34.67,107H24.93V97.21h9.74Z"/><path class="cls-1" d="M27.37,99.65h4.86v4.86H27.37Z"/><path class="cls-1" d="M22.5,133.71H37.1v-14.6H22.5Zm2.43-12.17h9.74v9.74H24.93Z"/><path class="cls-1" d="M27.37,124h4.86v4.86H27.37Z"/><path class="cls-1" d="M46.83,94.78v14.6h14.6V94.78ZM59,107H49.26V97.21H59Z"/><path class="cls-1" d="M51.7,99.65h4.86v4.86H51.7Z"/><path class="cls-1" d="M27.37,111.81H22.5v4.87h7.3v-2.44H27.37Z"/><path class="cls-1" d="M39.53,116.68H44.4v4.86H39.53Z"/><path class="cls-1" d="M29.8,111.81h4.87v2.43H29.8Z"/><path class="cls-1" d="M44.4,124H39.53v2.43H42v2.43H44.4V124Z"/><path class="cls-1" d="M37.1,111.81v2.43H34.67v2.44h4.86v-4.87Z"/><path class="cls-1" d="M42,104.51H44.4v4.87H42Z"/><path class="cls-1" d="M44.4,114.24v2.44h4.86v-4.87H42v2.43Z"/><path class="cls-1" d="M39.53,109.38H42v2.43H39.53Z"/><path class="cls-1" d="M44.4,128.84h4.86v4.87H44.4Z"/><path class="cls-1" d="M39.53,128.84H42v4.87H39.53Z"/><path class="cls-1" d="M44.4,121.54h2.43V124H44.4Z"/><path class="cls-1" d="M44.4,102.08V97.21H42V94.78H39.53v9.73H42v-2.43Z"/><path class="cls-1" d="M51.7,128.84h2.43v4.87H51.7Z"/><path class="cls-1" d="M51.7,124h4.86v2.43H51.7Z"/><path class="cls-1" d="M49.26,126.41H51.7v2.43H49.26Z"/><path class="cls-1" d="M46.83,124h2.43v2.43H46.83Z"/><path class="cls-1" d="M56.56,119.11v2.43H59V124h2.43v-4.87H56.56Z"/><path class="cls-1" d="M59,126.41H56.56v7.3h4.87v-4.87H59Z"/><path class="cls-1" d="M46.83,119.11v2.43h7.3v-4.86H49.26v2.43Z"/><path class="cls-1" d="M51.7,111.81v2.43h4.86v2.44h4.87v-4.87H51.7Z"/><polygon class="cls-1" points="24.86 139.28 17 139.28 17 131.42 19.29 131.42 19.29 136.99 24.86 136.99 24.86 139.28"/><polygon class="cls-1" points="19.29 97.14 17 97.14 17 89.28 24.86 89.28 24.86 91.57 19.29 91.57 19.29 97.14"/><polygon class="cls-1" points="67 97.14 64.71 97.14 64.71 91.57 59.14 91.57 59.14 89.28 67 89.28 67 97.14"/><polygon class="cls-1" points="67 139.28 59.14 139.28 59.14 136.99 64.71 136.99 64.71 131.42 67 131.42 67 139.28"/><path class="cls-1" d="M65.14,173.13A18.38,18.38,0,0,0,60,166.74,8.3,8.3,0,0,0,54.88,165H29.12a8.3,8.3,0,0,0-5.07,1.74,18.28,18.28,0,0,0-7,14.41v5a1,1,0,0,0,1,1h7.69V214a1,1,0,0,0,1,1H57.38a1,1,0,0,0,1-1V187.12H66a1,1,0,0,0,1-1v-5A18.28,18.28,0,0,0,65.14,173.13Zm-17.49-6.21a3.86,3.86,0,0,1-3.73,2.89H40.08a3.86,3.86,0,0,1-3.73-2.89Zm17.43,18.27H58.35v-4.81a1,1,0,0,0-1.93,0v32.7H27.58v-1.93h2.88a1,1,0,0,0,0-1.92H27.58V180.38a1,1,0,0,0-1.93,0v4.81H18.92v-4a16.22,16.22,0,0,1,6.31-12.89,6.39,6.39,0,0,1,3.89-1.34h5.27a5.77,5.77,0,0,0,5.69,4.81h3.84a5.77,5.77,0,0,0,5.69-4.81h5.27a6.39,6.39,0,0,1,3.89,1.34,16.22,16.22,0,0,1,6.31,12.89v4Z"/><path class="cls-1" d="M57.38,215.5H26.62A1.47,1.47,0,0,1,25.15,214V187.62H18a1.47,1.47,0,0,1-1.46-1.47v-5a18.8,18.8,0,0,1,7.24-14.81,8.8,8.8,0,0,1,5.38-1.84H54.88a8.8,8.8,0,0,1,5.38,1.84,19,19,0,0,1,5.33,6.57h0a18.83,18.83,0,0,1,1.91,8.24v5A1.47,1.47,0,0,1,66,187.62H58.85V214A1.47,1.47,0,0,1,57.38,215.5Zm-28.26-50a7.79,7.79,0,0,0-4.76,1.63,17.8,17.8,0,0,0-6.86,14v5a.47.47,0,0,0,.46.47h8.19V214a.47.47,0,0,0,.47.46H57.38a.47.47,0,0,0,.47-.46V186.62H66a.47.47,0,0,0,.46-.47v-5a17.74,17.74,0,0,0-1.81-7.8h0a17.84,17.84,0,0,0-5-6.22,7.79,7.79,0,0,0-4.76-1.63Zm27.8,48.08H27.08v-2.93h3.38a.45.45,0,0,0,.46-.46.46.46,0,0,0-.46-.46H27.08V180.38a.47.47,0,0,0-.93,0v5.31H18.42v-4.54a16.75,16.75,0,0,1,6.5-13.29,6.89,6.89,0,0,1,4.2-1.44h5.69l.07.42a5.26,5.26,0,0,0,5.2,4.39h3.84a5.26,5.26,0,0,0,5.2-4.39l.07-.42h5.69a6.89,6.89,0,0,1,4.2,1.44,16.75,16.75,0,0,1,6.5,13.29v4.54H57.85v-5.31a.47.47,0,0,0-.93,0Zm-28.84-1H55.92v-32.2a1.47,1.47,0,0,1,2.93,0v4.31h5.73v-3.54a15.73,15.73,0,0,0-6.12-12.5,5.88,5.88,0,0,0-3.58-1.23H50a6.25,6.25,0,0,1-6.1,4.81H40.08a6.25,6.25,0,0,1-6.1-4.81H29.12a5.88,5.88,0,0,0-3.58,1.23,15.73,15.73,0,0,0-6.12,12.5v3.54h5.73v-4.31a1.47,1.47,0,0,1,2.93,0v28.35h2.38a1.46,1.46,0,0,1,0,2.92H28.08Zm15.84-42.27H40.08a4.34,4.34,0,0,1-4.21-3.26l-.16-.63H48.29l-.16.63A4.34,4.34,0,0,1,43.92,170.31Zm-6.85-2.89a3.34,3.34,0,0,0,3,1.89h3.84a3.34,3.34,0,0,0,3-1.89Z"/><path class="cls-1" d="M87.58,246.83h5.87a5.71,5.71,0,0,1,2.39.43,3.05,3.05,0,0,1,1.79,3.05,3.46,3.46,0,0,1-.48,1.9,3.51,3.51,0,0,1-1.34,1.18,2.78,2.78,0,0,1,1.14.81,3,3,0,0,1,.42,1.63l.06,1.73a5.05,5.05,0,0,0,.13,1.1,1.07,1.07,0,0,0,.56.79v.29H96a1.45,1.45,0,0,1-.14-.43,6.89,6.89,0,0,1-.09-1l-.11-2.16a1.81,1.81,0,0,0-.91-1.69,3.68,3.68,0,0,0-1.53-.24H89.33v5.54H87.58Zm5.68,5.91a3.24,3.24,0,0,0,1.9-.49,2,2,0,0,0,.69-1.78,1.92,1.92,0,0,0-1-1.88,3.19,3.19,0,0,0-1.39-.26H89.33v4.41Z"/><path class="cls-1" d="M107,251.26a4.77,4.77,0,0,1,1.25,3.57,6.16,6.16,0,0,1-1.1,3.76,4,4,0,0,1-3.41,1.48,3.87,3.87,0,0,1-3.07-1.31,5.25,5.25,0,0,1-1.13-3.53,5.64,5.64,0,0,1,1.19-3.77,4,4,0,0,1,3.21-1.41A4.25,4.25,0,0,1,107,251.26Zm-1,6.26a6.06,6.06,0,0,0,.58-2.65,4.74,4.74,0,0,0-.42-2.14,2.35,2.35,0,0,0-2.28-1.3,2.22,2.22,0,0,0-2.08,1.11,5.13,5.13,0,0,0-.66,2.67,4.45,4.45,0,0,0,.66,2.5,2.27,2.27,0,0,0,2.06,1A2.17,2.17,0,0,0,106,257.52Z"/><path class="cls-1" d="M110.49,247.7h1.6v2.62h1.5v1.3h-1.5v6.14a.67.67,0,0,0,.33.66,1.49,1.49,0,0,0,.62.1h.24l.31,0v1.26a3.38,3.38,0,0,1-.57.11,4.22,4.22,0,0,1-.64,0,1.72,1.72,0,0,1-1.5-.57,2.55,2.55,0,0,1-.39-1.47v-6.23h-1.28v-1.3h1.28Z"/><path class="cls-1" d="M121,250.58a3.64,3.64,0,0,1,1.42,1.22,4.42,4.42,0,0,1,.63,1.66,11.32,11.32,0,0,1,.14,2.08h-6.85a4.07,4.07,0,0,0,.67,2.3,2.25,2.25,0,0,0,2,.87,2.49,2.49,0,0,0,2-.82,2.81,2.81,0,0,0,.58-1.11h1.56a3.45,3.45,0,0,1-.41,1.16,3.93,3.93,0,0,1-.78,1,3.55,3.55,0,0,1-1.77.95,5.51,5.51,0,0,1-1.28.14,3.91,3.91,0,0,1-3-1.28,5,5,0,0,1-1.22-3.58,5.4,5.4,0,0,1,1.23-3.68,4,4,0,0,1,3.19-1.42A4.33,4.33,0,0,1,121,250.58Zm.56,3.7a4.06,4.06,0,0,0-.44-1.64,2.27,2.27,0,0,0-2.16-1.15,2.39,2.39,0,0,0-1.81.79,3,3,0,0,0-.77,2Z"/><path class="cls-1" d="M125.18,246.83h1.61v1.79h-1.61Zm0,3.54h1.61v9.37h-1.61Z"/><path class="cls-1" d="M129.22,250.32h1.51V252a3.55,3.55,0,0,1,.9-1.16,2.37,2.37,0,0,1,1.66-.68h.15l.36,0v1.67l-.26,0h-.25a2.27,2.27,0,0,0-1.84.77,2.7,2.7,0,0,0-.64,1.77v5.42h-1.59Z"/><path class="cls-1" d="M142,251.26a4.77,4.77,0,0,1,1.24,3.57,6.1,6.1,0,0,1-1.1,3.76,4,4,0,0,1-3.41,1.48,3.85,3.85,0,0,1-3.06-1.31,5.2,5.2,0,0,1-1.14-3.53,5.59,5.59,0,0,1,1.2-3.77,4,4,0,0,1,3.21-1.41A4.28,4.28,0,0,1,142,251.26Zm-1,6.26a5.92,5.92,0,0,0,.58-2.65,4.74,4.74,0,0,0-.42-2.14,2.35,2.35,0,0,0-2.27-1.3,2.25,2.25,0,0,0-2.09,1.11,5.23,5.23,0,0,0-.65,2.67,4.53,4.53,0,0,0,.65,2.5,2.28,2.28,0,0,0,2.07,1A2.15,2.15,0,0,0,141,257.52Z"/><path class="cls-1" d="M156,250.58a3.57,3.57,0,0,1,1.42,1.22,4.1,4.1,0,0,1,.63,1.66,10.48,10.48,0,0,1,.14,2.08h-6.84a4.07,4.07,0,0,0,.67,2.3,2.24,2.24,0,0,0,1.94.87,2.47,2.47,0,0,0,2-.82,2.83,2.83,0,0,0,.59-1.11h1.55a3.25,3.25,0,0,1-.41,1.16,4.13,4.13,0,0,1-.77,1,3.64,3.64,0,0,1-1.77.95,5.58,5.58,0,0,1-1.28.14,3.91,3.91,0,0,1-3-1.28,5,5,0,0,1-1.21-3.58,5.45,5.45,0,0,1,1.22-3.68,4,4,0,0,1,3.2-1.42A4.29,4.29,0,0,1,156,250.58Zm.57,3.7a4.06,4.06,0,0,0-.45-1.64,2.26,2.26,0,0,0-2.15-1.15,2.39,2.39,0,0,0-1.81.79,3,3,0,0,0-.78,2Z"/><path class="cls-1" d="M171.42,250.83a3.73,3.73,0,0,1,1.2,2.66h-1.54a3,3,0,0,0-.64-1.45,2,2,0,0,0-1.61-.57,2.21,2.21,0,0,0-2.16,1.47,5.72,5.72,0,0,0-.43,2.36,4.4,4.4,0,0,0,.6,2.38,2.32,2.32,0,0,0,3.44.37,3.29,3.29,0,0,0,.8-1.64h1.54a3.73,3.73,0,0,1-4,3.6,3.59,3.59,0,0,1-2.94-1.35,5.12,5.12,0,0,1-1.1-3.37,5.7,5.7,0,0,1,1.2-3.86,3.9,3.9,0,0,1,3.07-1.38A4.1,4.1,0,0,1,171.42,250.83Z"/><path class="cls-1" d="M174.2,246.78h1.58v4.82a4.44,4.44,0,0,1,1-1,3.38,3.38,0,0,1,1.91-.5,2.82,2.82,0,0,1,2.78,1.43,4.92,4.92,0,0,1,.39,2.17v6h-1.62v-5.93a3.29,3.29,0,0,0-.27-1.53,1.69,1.69,0,0,0-1.62-.77,2.7,2.7,0,0,0-1.78.68,3.26,3.26,0,0,0-.8,2.56v5H174.2Z"/><path class="cls-1" d="M190,250.58a3.61,3.61,0,0,1,1.43,1.22,4.42,4.42,0,0,1,.63,1.66,11.32,11.32,0,0,1,.14,2.08h-6.85a4.07,4.07,0,0,0,.67,2.3,2.25,2.25,0,0,0,2,.87,2.5,2.5,0,0,0,2-.82,3,3,0,0,0,.58-1.11h1.55a3.21,3.21,0,0,1-.4,1.16,4.15,4.15,0,0,1-.78,1,3.64,3.64,0,0,1-1.77.95,5.58,5.58,0,0,1-1.28.14,3.89,3.89,0,0,1-3-1.28,5,5,0,0,1-1.22-3.58,5.4,5.4,0,0,1,1.23-3.68,4,4,0,0,1,3.19-1.42A4.26,4.26,0,0,1,190,250.58Zm.57,3.7a4.06,4.06,0,0,0-.44-1.64,2.28,2.28,0,0,0-2.16-1.15,2.39,2.39,0,0,0-1.81.79,3,3,0,0,0-.78,2Z"/><path class="cls-1" d="M200.44,250.83a3.73,3.73,0,0,1,1.2,2.66H200.1a2.88,2.88,0,0,0-.64-1.45,2,2,0,0,0-1.61-.57,2.21,2.21,0,0,0-2.16,1.47,5.9,5.9,0,0,0-.42,2.36,4.4,4.4,0,0,0,.59,2.38,2.32,2.32,0,0,0,3.44.37,3.29,3.29,0,0,0,.8-1.64h1.54a4.14,4.14,0,0,1-1.32,2.73,4.09,4.09,0,0,1-2.7.87,3.59,3.59,0,0,1-2.94-1.35,5.12,5.12,0,0,1-1.1-3.37,5.7,5.7,0,0,1,1.2-3.86,3.91,3.91,0,0,1,3.07-1.38A4.1,4.1,0,0,1,200.44,250.83Z"/><path class="cls-1" d="M203.18,246.83h1.53v7.49l4-4h2l-3.61,3.5,3.82,5.92h-2L206,255l-1.29,1.25v3.54h-1.53Z"/><path class="cls-1" d="M212.26,246.83h1.59v12.91h-1.59Z"/><path class="cls-1" d="M216.22,246.83h1.61v1.79h-1.61Zm0,3.54h1.61v9.37h-1.61Z"/><path class="cls-1" d="M221.16,256.78a2.31,2.31,0,0,0,.4,1.22,2.57,2.57,0,0,0,2.12.76,3.24,3.24,0,0,0,1.58-.38,1.28,1.28,0,0,0,.68-1.18,1,1,0,0,0-.55-.93,7.28,7.28,0,0,0-1.37-.44l-1.28-.32a6.14,6.14,0,0,1-1.8-.67,2,2,0,0,1-1-1.77,2.73,2.73,0,0,1,1-2.17,3.92,3.92,0,0,1,2.62-.82,3.65,3.65,0,0,1,3.11,1.25,2.66,2.66,0,0,1,.58,1.7h-1.5a1.86,1.86,0,0,0-.38-1,2.55,2.55,0,0,0-1.94-.62,2.36,2.36,0,0,0-1.39.34,1.08,1.08,0,0,0-.47.9,1.13,1.13,0,0,0,.62,1,3.94,3.94,0,0,0,1.06.38l1.06.26a8,8,0,0,1,2.33.8,2.1,2.1,0,0,1,.92,1.9,2.89,2.89,0,0,1-1,2.17,4.16,4.16,0,0,1-2.94.92,4,4,0,0,1-3-1,3.56,3.56,0,0,1-1-2.36Z"/><path class="cls-1" d="M229.53,247.7h1.6v2.62h1.51v1.3h-1.51v6.14a.67.67,0,0,0,.34.66,1.47,1.47,0,0,0,.61.1h.25l.31,0v1.26a3.38,3.38,0,0,1-.57.11,4.31,4.31,0,0,1-.64,0,1.7,1.7,0,0,1-1.5-.57,2.55,2.55,0,0,1-.4-1.47v-6.23h-1.27v-1.3h1.27Z"/><path class="cls-1" d="M92.33,271.61a4.49,4.49,0,0,1,1,.93v-4.76h1.52v13H93.38v-1.31a3.46,3.46,0,0,1-1.3,1.26,3.83,3.83,0,0,1-1.73.38,3.48,3.48,0,0,1-2.71-1.32,5.21,5.21,0,0,1-1.15-3.52,6.06,6.06,0,0,1,1.05-3.56,3.41,3.41,0,0,1,3-1.51A3.34,3.34,0,0,1,92.33,271.61Zm-3.53,7.06a2.24,2.24,0,0,0,2,1,2.13,2.13,0,0,0,1.79-.94,4.48,4.48,0,0,0,.71-2.71,4,4,0,0,0-.73-2.65,2.25,2.25,0,0,0-1.79-.85,2.36,2.36,0,0,0-1.93.91,4.23,4.23,0,0,0-.74,2.69A4.73,4.73,0,0,0,88.8,278.67Z"/><path class="cls-1" d="M104,272.26a4.77,4.77,0,0,1,1.25,3.57,6.16,6.16,0,0,1-1.1,3.76,4,4,0,0,1-3.41,1.48,3.87,3.87,0,0,1-3.07-1.31,5.25,5.25,0,0,1-1.13-3.53,5.64,5.64,0,0,1,1.19-3.77,4,4,0,0,1,3.22-1.41A4.24,4.24,0,0,1,104,272.26Zm-1,6.26a6.06,6.06,0,0,0,.58-2.65,4.74,4.74,0,0,0-.42-2.14,2.35,2.35,0,0,0-2.28-1.3,2.23,2.23,0,0,0-2.08,1.11,5.13,5.13,0,0,0-.65,2.67,4.45,4.45,0,0,0,.65,2.5,2.27,2.27,0,0,0,2.07,1A2.16,2.16,0,0,0,103,278.52Z"/><path class="cls-1" d="M112.05,271.37h1.55v1.25a3.91,3.91,0,0,1,1-1,3.34,3.34,0,0,1,1.88-.52,3.55,3.55,0,0,1,2.73,1.22,5.06,5.06,0,0,1,1.12,3.5c0,2.06-.54,3.52-1.62,4.4a3.64,3.64,0,0,1-2.38.83,3.24,3.24,0,0,1-1.79-.46,4.32,4.32,0,0,1-1-.91v4.81h-1.58Zm6,7.38a4.43,4.43,0,0,0,.74-2.78,5.09,5.09,0,0,0-.33-1.93,2.39,2.39,0,0,0-4.51.09,6.4,6.4,0,0,0-.33,2.23,4.69,4.69,0,0,0,.33,1.86,2.41,2.41,0,0,0,4.1.53Z"/><path class="cls-1" d="M127.24,275a.88.88,0,0,0,.73-.46,1.38,1.38,0,0,0,.1-.6,1.3,1.3,0,0,0-.57-1.18,3,3,0,0,0-1.65-.37,2.09,2.09,0,0,0-1.75.67,2.29,2.29,0,0,0-.38,1.11h-1.47a2.72,2.72,0,0,1,1.12-2.43,4.62,4.62,0,0,1,2.52-.68,5.1,5.1,0,0,1,2.69.63,2.14,2.14,0,0,1,1,2v5.42a.68.68,0,0,0,.1.4.49.49,0,0,0,.43.15l.24,0,.28,0v1.17a3.49,3.49,0,0,1-.57.13,3.45,3.45,0,0,1-.52,0,1.3,1.3,0,0,1-1.19-.58,2.23,2.23,0,0,1-.27-.87,4.06,4.06,0,0,1-1.39,1.1,4.3,4.3,0,0,1-2,.46,3,3,0,0,1-2.14-.79,2.65,2.65,0,0,1-.83-2,2.58,2.58,0,0,1,.82-2,3.89,3.89,0,0,1,2.15-.88Zm-3.33,4.27a1.81,1.81,0,0,0,1.18.4,3.58,3.58,0,0,0,1.62-.39,2.16,2.16,0,0,0,1.32-2.09V276a2.39,2.39,0,0,1-.75.31,7.39,7.39,0,0,1-.89.18l-1,.12a3.88,3.88,0,0,0-1.29.36,1.4,1.4,0,0,0-.73,1.32A1.27,1.27,0,0,0,123.91,279.31Z"/><path class="cls-1" d="M132.25,271.32h1.5V273a3.61,3.61,0,0,1,.91-1.16,2.35,2.35,0,0,1,1.66-.68h.15l.36,0v1.67l-.26,0h-.26a2.27,2.27,0,0,0-1.84.77,2.7,2.7,0,0,0-.64,1.77v5.42h-1.58Z"/><path class="cls-1" d="M138.51,268.7h1.6v2.62h1.51v1.3h-1.51v6.14a.67.67,0,0,0,.34.66,1.47,1.47,0,0,0,.61.1h.25l.31,0v1.26a3.38,3.38,0,0,1-.57.11,4.31,4.31,0,0,1-.64,0,1.7,1.7,0,0,1-1.5-.57,2.55,2.55,0,0,1-.4-1.47v-6.23h-1.27v-1.3h1.27Z"/><path class="cls-1" d="M143.2,267.83h1.61v1.79H143.2Zm0,3.54h1.61v9.37H143.2Z"/><path class="cls-1" d="M153.42,271.83a3.73,3.73,0,0,1,1.2,2.66h-1.54a3,3,0,0,0-.64-1.45,2,2,0,0,0-1.61-.57,2.21,2.21,0,0,0-2.16,1.47,5.72,5.72,0,0,0-.43,2.36,4.4,4.4,0,0,0,.6,2.38,2.32,2.32,0,0,0,3.44.37,3.29,3.29,0,0,0,.8-1.64h1.54a3.73,3.73,0,0,1-4,3.6,3.59,3.59,0,0,1-2.94-1.35,5.12,5.12,0,0,1-1.1-3.37,5.7,5.7,0,0,1,1.2-3.86,3.9,3.9,0,0,1,3.07-1.38A4.1,4.1,0,0,1,153.42,271.83Z"/><path class="cls-1" d="M156.2,267.83h1.61v1.79H156.2Zm0,3.54h1.61v9.37H156.2Z"/><path class="cls-1" d="M160.07,271.37h1.54v1.25a4.07,4.07,0,0,1,1-1,3.39,3.39,0,0,1,1.89-.52,3.53,3.53,0,0,1,2.72,1.22,5,5,0,0,1,1.12,3.5c0,2.06-.54,3.52-1.61,4.4a3.66,3.66,0,0,1-2.39.83,3.24,3.24,0,0,1-1.79-.46,4.1,4.1,0,0,1-.94-.91v4.81h-1.58Zm6,7.38a4.44,4.44,0,0,0,.73-2.78,5.1,5.1,0,0,0-.32-1.93,2.39,2.39,0,0,0-4.52.09,6.42,6.42,0,0,0-.32,2.23,4.7,4.7,0,0,0,.32,1.86,2.41,2.41,0,0,0,4.11.53Z"/><path class="cls-1" d="M175.25,275a.85.85,0,0,0,.73-.46,1.37,1.37,0,0,0,.11-.6,1.28,1.28,0,0,0-.58-1.18,3,3,0,0,0-1.64-.37,2.12,2.12,0,0,0-1.76.67,2.3,2.3,0,0,0-.37,1.11h-1.48a2.73,2.73,0,0,1,1.13-2.43,4.56,4.56,0,0,1,2.51-.68,5.14,5.14,0,0,1,2.7.63,2.16,2.16,0,0,1,1,2v5.42a.68.68,0,0,0,.1.4c.06.1.21.15.42.15l.24,0,.28,0v1.17a3.21,3.21,0,0,1-.56.13,3.7,3.7,0,0,1-.53,0,1.28,1.28,0,0,1-1.18-.58,2.4,2.4,0,0,1-.28-.87,4,4,0,0,1-1.39,1.1,4.26,4.26,0,0,1-2,.46,3,3,0,0,1-2.14-.79,2.65,2.65,0,0,1-.83-2,2.55,2.55,0,0,1,.82-2,3.86,3.86,0,0,1,2.14-.88Zm-3.33,4.27a1.84,1.84,0,0,0,1.19.4,3.61,3.61,0,0,0,1.62-.39,2.16,2.16,0,0,0,1.31-2.09V276a2.42,2.42,0,0,1-.74.31,7.54,7.54,0,0,1-.9.18l-1,.12a3.81,3.81,0,0,0-1.29.36,1.41,1.41,0,0,0-.74,1.32A1.3,1.3,0,0,0,171.92,279.31Z"/><path class="cls-1" d="M180.22,271.32h1.5v1.34a4.28,4.28,0,0,1,1.42-1.19,3.74,3.74,0,0,1,1.66-.36,2.73,2.73,0,0,1,2.7,1.4,4.93,4.93,0,0,1,.39,2.19v6h-1.61v-5.93a3.2,3.2,0,0,0-.25-1.39,1.54,1.54,0,0,0-1.53-.88,3.3,3.3,0,0,0-.92.11,2.57,2.57,0,0,0-1.66,1.74,6.38,6.38,0,0,0-.12,1.42v4.93h-1.58Z"/><path class="cls-1" d="M190.55,268.7h1.6v2.62h1.5v1.3h-1.5v6.14a.67.67,0,0,0,.33.66,1.47,1.47,0,0,0,.61.1h.25l.31,0v1.26a3.38,3.38,0,0,1-.57.11,4.31,4.31,0,0,1-.64,0,1.72,1.72,0,0,1-1.5-.57,2.55,2.55,0,0,1-.39-1.47v-6.23h-1.28v-1.3h1.28Z"/><path class="cls-1" d="M201.05,271.58a3.64,3.64,0,0,1,1.42,1.22,4.42,4.42,0,0,1,.63,1.66,11.32,11.32,0,0,1,.14,2.08h-6.85a4.07,4.07,0,0,0,.67,2.3,2.25,2.25,0,0,0,1.95.87,2.49,2.49,0,0,0,2-.82,2.81,2.81,0,0,0,.58-1.11h1.56a3.45,3.45,0,0,1-.41,1.16,4.15,4.15,0,0,1-.78,1,3.55,3.55,0,0,1-1.77.95,5.51,5.51,0,0,1-1.28.14,3.91,3.91,0,0,1-3-1.28,5,5,0,0,1-1.22-3.58,5.4,5.4,0,0,1,1.23-3.68,4,4,0,0,1,3.19-1.42A4.33,4.33,0,0,1,201.05,271.58Zm.56,3.7a4.06,4.06,0,0,0-.44-1.64,2.27,2.27,0,0,0-2.16-1.15,2.39,2.39,0,0,0-1.81.79,3,3,0,0,0-.77,2Z"/><path class="cls-1" d="M206.18,277.78a2.23,2.23,0,0,0,.41,1.22,2.54,2.54,0,0,0,2.11.76,3.21,3.21,0,0,0,1.58-.38,1.26,1.26,0,0,0,.68-1.18,1,1,0,0,0-.54-.93,7.19,7.19,0,0,0-1.38-.44l-1.27-.32a6.23,6.23,0,0,1-1.81-.67,2,2,0,0,1-1-1.77,2.73,2.73,0,0,1,1-2.17,3.92,3.92,0,0,1,2.62-.82,3.64,3.64,0,0,1,3.11,1.25,2.66,2.66,0,0,1,.58,1.7h-1.49a1.79,1.79,0,0,0-.39-1,2.52,2.52,0,0,0-1.93-.62,2.32,2.32,0,0,0-1.39.34,1.06,1.06,0,0,0-.48.9,1.13,1.13,0,0,0,.62,1,4.07,4.07,0,0,0,1.06.38l1.07.26a8.06,8.06,0,0,1,2.32.8,2.1,2.1,0,0,1,.93,1.9,2.87,2.87,0,0,1-1,2.17,4.13,4.13,0,0,1-2.94.92,4,4,0,0,1-3-1,3.56,3.56,0,0,1-1-2.36Z"/><path class="cls-1" d="M217,267.83v1.95l1.91-.66.35,1-1.91.62,1.18,1.66-.87.62-1.14-1.72L215.39,273l-.89-.62,1.2-1.66-1.93-.62.35-1,1.9.68v-2Z"/><path class="cls-1" d="M67.33,241a1.28,1.28,0,0,0-1.27,0l-15.52,8.22L35,241,35,241l-.2-.07-.08,0a.86.86,0,0,0-.23,0h-.09l-.22,0h-.07L16.93,246.6a1.28,1.28,0,0,0-.88,1.22V288.6a1.28,1.28,0,0,0,.54,1,1.3,1.3,0,0,0,1.16.18l16.61-5.54L50,290.74l.09,0a1.26,1.26,0,0,0,.41.07,1.4,1.4,0,0,0,.34,0l.08,0-.09-.33.14.31.13-.05,16.12-8.53A1.29,1.29,0,0,0,68,281V242.13A1.29,1.29,0,0,0,67.33,241ZM31.26,270.55a1.3,1.3,0,0,0,1.58.92l.28-.06V282l-14.49,4.83V248.75l14.49-4.83v24.84c-.35.07-.66.14-.94.22A1.29,1.29,0,0,0,31.26,270.55Zm20.57,2.77a1.27,1.27,0,0,0,0-2.1V251.44l13.54-7.17v36l-13.54,7.17ZM35.7,271.05a5.46,5.46,0,0,1,.58,0,1.29,1.29,0,1,0-.06-2.58l-.52,0V244.27l13.55,7.17V271a14.11,14.11,0,0,1-1.68-.23,1.32,1.32,0,0,0-1,.2,1.27,1.27,0,0,0-.55.82,1.32,1.32,0,0,0,.2,1,1.3,1.3,0,0,0,.82.55,16.46,16.46,0,0,0,2.18.26v14.08L35.7,282.05ZM34.6,241.2Zm-.22,0Z"/><path class="cls-1" d="M26.83,248.43a5.08,5.08,0,0,0-1.29,10v1.72a1.29,1.29,0,0,0,2.58,0v-1.72a5.08,5.08,0,0,0-1.29-10Zm0,2.58a2.5,2.5,0,1,1-2.51,2.5A2.5,2.5,0,0,1,26.83,251Z"/><path class="cls-1" d="M60.73,260.68a1.29,1.29,0,0,0-1.5,1,18.22,18.22,0,0,1-.95,3.42A1.29,1.29,0,0,0,59,266.8h0a1.31,1.31,0,0,0,1.67-.74,21.06,21.06,0,0,0,1.09-3.87A1.29,1.29,0,0,0,60.73,260.68Z"/><path class="cls-1" d="M29.33,270.45a1.27,1.27,0,0,0-1,.17,13.25,13.25,0,0,0-3.15,2.74,1.3,1.3,0,0,0,.15,1.82,1.34,1.34,0,0,0,.83.3,1.28,1.28,0,0,0,1-.46,11,11,0,0,1,2.55-2.22,1.3,1.3,0,0,0-.4-2.35Z"/><path class="cls-1" d="M24.72,276.22h0a1.29,1.29,0,0,0-1.71.64,15.88,15.88,0,0,0-1.26,4,1.33,1.33,0,0,0,.25,1,1.28,1.28,0,0,0,.85.5H23a1.29,1.29,0,0,0,1.28-1.11,12.72,12.72,0,0,1,1-3.25A1.3,1.3,0,0,0,24.72,276.22Z"/><path class="cls-1" d="M58.44,267.88a1.29,1.29,0,0,0-1.82.2,7.82,7.82,0,0,1-2.48,2.05,1.26,1.26,0,0,0-.64.75,1.28,1.28,0,0,0,.08,1,1.27,1.27,0,0,0,1.15.7,1.22,1.22,0,0,0,.59-.14,10.42,10.42,0,0,0,3.32-2.73,1.3,1.3,0,0,0,.27-.95A1.22,1.22,0,0,0,58.44,267.88Z"/><path class="cls-1" d="M44.19,269.73c-.42-.18-.65-.29-.66-.3l-.26-.1c-1-.26-2.06-.47-3-.62a1.27,1.27,0,0,0-1,.23,1.25,1.25,0,0,0-.51.85,1.29,1.29,0,0,0,1.08,1.47c.86.13,1.75.31,2.66.54.14.07.37.18.69.31a1.24,1.24,0,0,0,.5.1,1.29,1.29,0,0,0,1.19-.79,1.28,1.28,0,0,0-.69-1.69Z"/><path class="cls-1" d="M61,253.11a1.29,1.29,0,0,0-1.27,1.31c0,.33,0,.65,0,1,0,.94,0,1.85-.08,2.72a1.29,1.29,0,0,0,1.2,1.37H61a1.29,1.29,0,0,0,1.28-1.21c.06-.91.09-1.88.09-2.88,0-.34,0-.67,0-1A1.31,1.31,0,0,0,61,253.11Z"/><path class="cls-1" d="M23.64,266.79a1.25,1.25,0,0,0,.38.91,1.31,1.31,0,0,0,1.82,0l1-1,1,1a1.3,1.3,0,0,0,.91.38,1.28,1.28,0,0,0,.91-.38,1.25,1.25,0,0,0,.38-.91,1.24,1.24,0,0,0-.38-.91l-1-1,1-1a1.29,1.29,0,0,0,0-1.83,1.33,1.33,0,0,0-1.82,0l-1,1-1-1a1.33,1.33,0,0,0-1.82,0,1.29,1.29,0,0,0,0,1.83l1,1-1,1A1.24,1.24,0,0,0,23.64,266.79Z"/><path class="cls-1" d="M87.77,32h1.76V44.93H87.77Z"/><path class="cls-1" d="M92.16,35.51h1.5v1.34a4.28,4.28,0,0,1,1.42-1.19,3.78,3.78,0,0,1,1.66-.36,2.75,2.75,0,0,1,2.71,1.4,5,5,0,0,1,.38,2.19v6h-1.6V39A3.25,3.25,0,0,0,98,37.6a1.55,1.55,0,0,0-1.53-.87,3,3,0,0,0-.92.11,2.4,2.4,0,0,0-1.14.77,2.31,2.31,0,0,0-.52,1A6.38,6.38,0,0,0,93.74,40v4.93H92.16Z"/><path class="cls-1" d="M107.41,35.89a4.78,4.78,0,0,1,.91.9V35.6h1.45v8.56a6.33,6.33,0,0,1-.52,2.83,3.78,3.78,0,0,1-3.71,1.92,4.57,4.57,0,0,1-2.55-.68,2.69,2.69,0,0,1-1.15-2.13h1.61a1.73,1.73,0,0,0,.45,1,2.33,2.33,0,0,0,1.68.53A2.3,2.3,0,0,0,108,46.31a7.22,7.22,0,0,0,.3-2.69,3.11,3.11,0,0,1-1.13,1.07,3.85,3.85,0,0,1-1.76.35A3.76,3.76,0,0,1,102.69,44a4.83,4.83,0,0,1-1.14-3.6,5.45,5.45,0,0,1,1.15-3.69,3.56,3.56,0,0,1,2.78-1.32A3.46,3.46,0,0,1,107.41,35.89Zm.19,1.7a2.28,2.28,0,0,0-1.83-.85,2.26,2.26,0,0,0-2.27,1.57,6,6,0,0,0-.33,2.19,3.9,3.9,0,0,0,.65,2.42,2.07,2.07,0,0,0,1.72.83,2.42,2.42,0,0,0,2.39-1.54,4.93,4.93,0,0,0,.39-2A3.91,3.91,0,0,0,107.6,37.59Z"/><path class="cls-1" d="M112.23,35.51h1.5v1.63a3.55,3.55,0,0,1,.9-1.16,2.4,2.4,0,0,1,1.67-.68h.15l.36,0V37l-.26,0h-.26a2.27,2.27,0,0,0-1.84.77,2.66,2.66,0,0,0-.64,1.77v5.42h-1.58Z"/><path class="cls-1" d="M124,35.77A3.68,3.68,0,0,1,125.42,37a4.18,4.18,0,0,1,.62,1.66,10.42,10.42,0,0,1,.14,2.08h-6.84A4.07,4.07,0,0,0,120,43a2.24,2.24,0,0,0,1.94.87,2.54,2.54,0,0,0,2-.82A3,3,0,0,0,124.5,42h1.55a3.31,3.31,0,0,1-.41,1.16,4.32,4.32,0,0,1-.77,1,3.64,3.64,0,0,1-1.77.95,5.58,5.58,0,0,1-1.28.14,4,4,0,0,1-3-1.28,5,5,0,0,1-1.21-3.58,5.45,5.45,0,0,1,1.22-3.68,4,4,0,0,1,3.2-1.42A4.29,4.29,0,0,1,124,35.77Zm.57,3.7a4.11,4.11,0,0,0-.45-1.65A2.27,2.27,0,0,0,122,36.68a2.36,2.36,0,0,0-1.81.79,3,3,0,0,0-.78,2Z"/><path class="cls-1" d="M129.13,42a2.35,2.35,0,0,0,.4,1.22,2.57,2.57,0,0,0,2.12.76,3.24,3.24,0,0,0,1.58-.38,1.28,1.28,0,0,0,.68-1.18,1,1,0,0,0-.55-.93A6.59,6.59,0,0,0,132,41l-1.28-.32a6.14,6.14,0,0,1-1.8-.67,2,2,0,0,1-1-1.77,2.7,2.7,0,0,1,1-2.17,3.92,3.92,0,0,1,2.62-.82,3.65,3.65,0,0,1,3.11,1.25,2.66,2.66,0,0,1,.58,1.7h-1.5a1.82,1.82,0,0,0-.38-1,2.55,2.55,0,0,0-1.94-.62A2.36,2.36,0,0,0,130,37a1.08,1.08,0,0,0-.47.9,1.1,1.1,0,0,0,.62,1,3.59,3.59,0,0,0,1.06.39l1.06.25a8.71,8.71,0,0,1,2.33.8,2.11,2.11,0,0,1,.92,1.91,2.89,2.89,0,0,1-1,2.17,4.16,4.16,0,0,1-2.94.92,4,4,0,0,1-3-1,3.55,3.55,0,0,1-.94-2.36Z"/><path class="cls-1" d="M138.13,42a2.35,2.35,0,0,0,.4,1.22,2.57,2.57,0,0,0,2.12.76,3.24,3.24,0,0,0,1.58-.38,1.28,1.28,0,0,0,.68-1.18,1,1,0,0,0-.55-.93A6.59,6.59,0,0,0,141,41l-1.28-.32a6.14,6.14,0,0,1-1.8-.67,2,2,0,0,1-1-1.77,2.7,2.7,0,0,1,1-2.17,3.92,3.92,0,0,1,2.62-.82,3.65,3.65,0,0,1,3.11,1.25,2.66,2.66,0,0,1,.58,1.7h-1.5a1.82,1.82,0,0,0-.38-1,2.55,2.55,0,0,0-1.94-.62A2.36,2.36,0,0,0,139,37a1.08,1.08,0,0,0-.47.9,1.1,1.1,0,0,0,.62,1,3.59,3.59,0,0,0,1.06.39l1.06.25a8.71,8.71,0,0,1,2.33.8,2.11,2.11,0,0,1,.92,1.91,2.89,2.89,0,0,1-1,2.17,4.16,4.16,0,0,1-2.94.92,4,4,0,0,1-3-1,3.55,3.55,0,0,1-.94-2.36Z"/><path class="cls-1" d="M153,36.45A4.77,4.77,0,0,1,154.26,40a6.18,6.18,0,0,1-1.1,3.76,4,4,0,0,1-3.42,1.48A3.86,3.86,0,0,1,146.68,44a5.2,5.2,0,0,1-1.13-3.53,5.59,5.59,0,0,1,1.19-3.77A4,4,0,0,1,150,35.24,4.21,4.21,0,0,1,153,36.45Zm-1,6.26a6.06,6.06,0,0,0,.57-2.65,4.86,4.86,0,0,0-.41-2.14,2.34,2.34,0,0,0-2.28-1.3,2.25,2.25,0,0,0-2.09,1.11,5.18,5.18,0,0,0-.65,2.67,4.53,4.53,0,0,0,.65,2.5,2.32,2.32,0,0,0,2.07,1A2.17,2.17,0,0,0,152,42.71Z"/><path class="cls-1" d="M161.2,32h1.61v1.79H161.2Zm0,3.54h1.61v9.37H161.2Z"/><path class="cls-1" d="M165.2,35.51h1.5v1.34a4.28,4.28,0,0,1,1.42-1.19,3.74,3.74,0,0,1,1.66-.36,2.73,2.73,0,0,1,2.7,1.4,4.93,4.93,0,0,1,.39,2.19v6h-1.61V39A3.26,3.26,0,0,0,171,37.6a1.55,1.55,0,0,0-1.53-.87,3,3,0,0,0-.92.11,2.52,2.52,0,0,0-1.66,1.74,6.38,6.38,0,0,0-.12,1.42v4.93H165.2Z"/><path class="cls-1" d="M180.38,35.8a4.49,4.49,0,0,1,1,.93V32h1.52v13h-1.43V43.62a3.36,3.36,0,0,1-1.3,1.25,3.71,3.71,0,0,1-1.73.39,3.48,3.48,0,0,1-2.71-1.32,5.16,5.16,0,0,1-1.15-3.52,6.11,6.11,0,0,1,1.05-3.57,3.42,3.42,0,0,1,3-1.5A3.34,3.34,0,0,1,180.38,35.8Zm-3.53,7.06a2.23,2.23,0,0,0,2.05,1,2.15,2.15,0,0,0,1.79-.94,4.5,4.5,0,0,0,.71-2.72,4,4,0,0,0-.73-2.64,2.25,2.25,0,0,0-1.79-.85,2.36,2.36,0,0,0-1.93.91,4.23,4.23,0,0,0-.74,2.69A4.64,4.64,0,0,0,176.85,42.86Z"/><path class="cls-1" d="M185.22,32h1.61v1.79h-1.61Zm0,3.54h1.61v9.37h-1.61Z"/><path class="cls-1" d="M190,35.51l2.51,7.67,2.62-7.67h1.73l-3.54,9.42h-1.69l-3.47-9.42Z"/><path class="cls-1" d="M198.22,32h1.61v1.79h-1.61Zm0,3.54h1.61v9.37h-1.61Z"/><path class="cls-1" d="M207.39,35.8a4.26,4.26,0,0,1,1,.93V32h1.52v13h-1.42V43.62a3.36,3.36,0,0,1-1.3,1.25,3.74,3.74,0,0,1-1.73.39,3.48,3.48,0,0,1-2.71-1.32,5.16,5.16,0,0,1-1.15-3.52,6.11,6.11,0,0,1,1-3.57,3.41,3.41,0,0,1,3-1.5A3.36,3.36,0,0,1,207.39,35.8Zm-3.53,7.06a2.23,2.23,0,0,0,2,1,2.15,2.15,0,0,0,1.8-.94,4.5,4.5,0,0,0,.71-2.72,4,4,0,0,0-.73-2.64,2.25,2.25,0,0,0-1.79-.85,2.35,2.35,0,0,0-1.93.91,4.23,4.23,0,0,0-.74,2.69A4.64,4.64,0,0,0,203.86,42.86Z"/><path class="cls-1" d="M213.81,35.51v6.25a2.67,2.67,0,0,0,.22,1.18,1.56,1.56,0,0,0,1.54.84,2.17,2.17,0,0,0,2.19-1.47,6,6,0,0,0,.31-2.17V35.51h1.59v9.42h-1.5l0-1.39a3,3,0,0,1-.75.9,3.22,3.22,0,0,1-2.16.74,2.78,2.78,0,0,1-2.69-1.34,4.08,4.08,0,0,1-.39-1.93v-6.4Z"/><path class="cls-1" d="M227.28,39.23a.85.85,0,0,0,.73-.46,1.38,1.38,0,0,0,.11-.61,1.28,1.28,0,0,0-.57-1.17,3.06,3.06,0,0,0-1.65-.37,2.07,2.07,0,0,0-1.75.67,2.19,2.19,0,0,0-.38,1.11h-1.48A2.73,2.73,0,0,1,223.42,36a4.57,4.57,0,0,1,2.51-.69,5.14,5.14,0,0,1,2.7.64,2.16,2.16,0,0,1,1,2v5.42a.7.7,0,0,0,.1.4.51.51,0,0,0,.42.14h.24l.28,0V45a4.52,4.52,0,0,1-.56.13,3.6,3.6,0,0,1-.53,0,1.28,1.28,0,0,1-1.18-.58,2.4,2.4,0,0,1-.28-.87,4,4,0,0,1-1.38,1.1,4.33,4.33,0,0,1-2,.46,3,3,0,0,1-2.14-.79,2.65,2.65,0,0,1-.83-2,2.55,2.55,0,0,1,.82-2,3.86,3.86,0,0,1,2.14-.88ZM224,43.5a1.84,1.84,0,0,0,1.19.4,3.58,3.58,0,0,0,1.62-.39,2.17,2.17,0,0,0,1.32-2.1V40.14a2.6,2.6,0,0,1-.75.31,7.17,7.17,0,0,1-.9.18l-1,.12a3.81,3.81,0,0,0-1.29.36,1.39,1.39,0,0,0-.74,1.31A1.3,1.3,0,0,0,224,43.5Z"/><path class="cls-1" d="M232.29,32h1.59V44.93h-1.59Z"/><path class="cls-1" d="M63.43,355.83a1,1,0,0,0,0,1.37,1,1,0,0,0,.69.28,1,1,0,0,0,.68-.28,1.06,1.06,0,0,0,.28-.69,1,1,0,0,0-.28-.68A1,1,0,0,0,63.43,355.83Z"/><path class="cls-1" d="M35.88,353.88l-3.5-1.78v-.38a7,7,0,0,0,3.29-4.19A2.87,2.87,0,0,0,37.19,345v-1a2.87,2.87,0,0,0-1.1-2.26c-.6-3.63-3.14-5.48-7.55-5.48a6.08,6.08,0,0,0-.61,0,4.9,4.9,0,0,1-3.1-.71,3.91,3.91,0,0,1-.88-.77,1.16,1.16,0,0,0-2.06.85,12.4,12.4,0,0,0,.2,1.23c.18.94.18.94-.08,1.5-.1.21-.22.47-.36.82a10.65,10.65,0,0,0-.68,2.54A2.9,2.9,0,0,0,19.88,344v1a2.88,2.88,0,0,0,1.53,2.54,7,7,0,0,0,3.28,4.19v.37l-3.62,1.78a4.11,4.11,0,0,0-2.15,3.62v1.27c0,.77,0,2.58,9.62,2.58s9.61-1.81,9.61-2.58v-1.2A4.11,4.11,0,0,0,35.88,353.88Zm.35,4.66c-.6.37-3,.87-7.69.87s-7.09-.5-7.69-.87v-1.05a2.16,2.16,0,0,1,1.1-1.91l3.71-1.83a1.71,1.71,0,0,0,1-1.53v-1.73l-.59-.25a5.11,5.11,0,0,1-2.89-3.67l-.14-.51-.51-.16a1,1,0,0,1-.68-.91v-1a1,1,0,0,1,.52-.84l.45-.24,0-.51a9.31,9.31,0,0,1,.6-2.47l.32-.74a2.82,2.82,0,0,0,.37-1.8,6.91,6.91,0,0,0,4,.81,3.46,3.46,0,0,1,.46,0c3.6,0,5.36,1.3,5.7,4.23l.06.5.45.24a1,1,0,0,1,.52.84v1a1,1,0,0,1-.69.91l-.5.16-.14.51a5.1,5.1,0,0,1-2.9,3.67l-.58.25v1.74a1.72,1.72,0,0,0,.93,1.52L35,355.6h0a2.18,2.18,0,0,1,1.21,2Z"/><path class="cls-1" d="M43,341.15h9.62a1,1,0,0,0,0-1.93H43a1,1,0,0,0,0,1.93Z"/><path class="cls-1" d="M43.92,355.57H43a1,1,0,0,0,0,1.92h1a1,1,0,1,0,0-1.92Z"/><path class="cls-1" d="M49.69,355.57H47.77a1,1,0,0,0,0,1.92h1.92a1,1,0,1,0,0-1.92Z"/><path class="cls-1" d="M54.5,355.57h-1a1,1,0,0,0,0,1.92h1a1,1,0,1,0,0-1.92Z"/><path class="cls-1" d="M60.27,355.57H58.35a1,1,0,1,0,0,1.92h1.92a1,1,0,1,0,0-1.92Z"/><path class="cls-1" d="M64.12,345H43a1,1,0,0,0,0,1.93H64.12a1,1,0,0,0,0-1.93Z"/><path class="cls-1" d="M64.12,350.76H43a1,1,0,0,0,0,1.93H64.12a1,1,0,0,0,0-1.93Z"/><path class="cls-1" d="M66.35,326.71H48.73v-7.4a2.23,2.23,0,0,0-2.22-2.22h-9a2.23,2.23,0,0,0-2.22,2.22v7.4H17.65a4.5,4.5,0,0,0-4.5,4.49v31.39a4.51,4.51,0,0,0,4.5,4.5h48.7a4.51,4.51,0,0,0,4.5-4.5V331.2A4.5,4.5,0,0,0,66.35,326.71Zm-29.16-7.4a.31.31,0,0,1,.3-.3h9a.31.31,0,0,1,.3.3v12.87a.31.31,0,0,1-.3.3h-9a.31.31,0,0,1-.3-.3V319.31Zm31.73,43.28a2.58,2.58,0,0,1-2.57,2.58H17.65a2.58,2.58,0,0,1-2.57-2.58V331.2a2.57,2.57,0,0,1,2.57-2.57H35.27v3.55a2.23,2.23,0,0,0,2.22,2.22h9a2.23,2.23,0,0,0,2.22-2.22v-3.55H66.35a2.57,2.57,0,0,1,2.57,2.57Z"/><path class="cls-1" d="M42,327.67a3.85,3.85,0,1,0-3.85-3.85A3.86,3.86,0,0,0,42,327.67Zm0-5.77a1.92,1.92,0,1,1-1.92,1.92A1.92,1.92,0,0,1,42,321.9Z"/><path class="cls-1" d="M66.89,28.75H68v-3a2.16,2.16,0,0,0-2.09-2.21H16.09A2.16,2.16,0,0,0,14,25.69v3h1a1.66,1.66,0,0,1,1.63,1.46,1.63,1.63,0,0,1-1.57,1.87H14s0,0,0,0v4.68l0,0h1a1.66,1.66,0,0,1,1.63,1.46,1.63,1.63,0,0,1-1.57,1.87H14s0,0,0,0v4.68l0,0h1a1.66,1.66,0,0,1,1.63,1.46,1.63,1.63,0,0,1-1.57,1.87H14s0,0,0,0v3a2.15,2.15,0,0,0,2.09,2.2H65.86A2.15,2.15,0,0,0,68,51.22v-3s0,0,0,0H67a1.67,1.67,0,0,1-.07-3.33h1l0,0V40.13s0,0,0,0H67a1.67,1.67,0,0,1-.07-3.33h1l0,0V32.09s0,0,0,0H67a1.67,1.67,0,0,1-.07-3.33Zm-3.68,1.66a3.85,3.85,0,0,0,2.62,3.72s0,0,0,0v.57s0,0,0,0a3.94,3.94,0,0,0,0,7.43s0,0,0,0v.57s0,0,0,0a3.94,3.94,0,0,0,0,7.43h0v1s0,0,0,0H16.12s0,0,0,0v-1h0a3.94,3.94,0,0,0,0-7.43s0,0,0,0v-.57s0,0,0,0a3.94,3.94,0,0,0,0-7.43s0,0,0,0v-.57s0,0,0,0a3.94,3.94,0,0,0,0-7.43s0,0,0,0v-1s0,0,0,0H65.83s0,0,0,0v1s0,0,0,0A3.85,3.85,0,0,0,63.21,30.41Z"/></svg>