<svg id="Camada_1" data-name="Camada 1" xmlns="http://www.w3.org/2000/svg" viewBox="0 0 300 380"><defs><style>.cls-1{fill:#fff;}</style></defs><title>casamentos</title><path class="cls-1" d="M98.5,96.6A4.6,4.6,0,0,1,100,99.54H98.28a3.24,3.24,0,0,0-3.52-2.71,3.78,3.78,0,0,0-3,1.34,6.17,6.17,0,0,0-1.16,4.11,6.08,6.08,0,0,0,1,3.68,3.63,3.63,0,0,0,3.11,1.42,3.27,3.27,0,0,0,2.89-1.49,5.87,5.87,0,0,0,.79-2.06h1.7a5.89,5.89,0,0,1-1.49,3.42,5.28,5.28,0,0,1-4.1,1.66,5.37,5.37,0,0,1-3.74-1.36q-2-1.8-2-5.57a7.12,7.12,0,0,1,1.5-4.68,5.4,5.4,0,0,1,4.45-2A5.18,5.18,0,0,1,98.5,96.6Z"/><path class="cls-1" d="M109,100.1a4.75,4.75,0,0,1,1.25,3.56,6.16,6.16,0,0,1-1.1,3.76,4,4,0,0,1-3.41,1.48,3.84,3.84,0,0,1-3.07-1.31,5.22,5.22,0,0,1-1.13-3.52,5.69,5.69,0,0,1,1.19-3.78,4,4,0,0,1,3.21-1.41A4.22,4.22,0,0,1,109,100.1Zm-1,6.25a6,6,0,0,0,.58-2.64,4.76,4.76,0,0,0-.42-2.15,2.35,2.35,0,0,0-2.28-1.3,2.22,2.22,0,0,0-2.08,1.11,5.13,5.13,0,0,0-.66,2.67,4.45,4.45,0,0,0,.66,2.5,2.27,2.27,0,0,0,2.06,1A2.15,2.15,0,0,0,108,106.35Z"/><path class="cls-1" d="M112.17,99.16h1.5v1.33a4.24,4.24,0,0,1,1.42-1.18,3.78,3.78,0,0,1,1.66-.36,2.74,2.74,0,0,1,2.71,1.39,5.1,5.1,0,0,1,.38,2.19v6h-1.61v-5.93a3.2,3.2,0,0,0-.25-1.39,1.54,1.54,0,0,0-1.53-.88,3.35,3.35,0,0,0-.92.11,2.57,2.57,0,0,0-1.66,1.74,6.38,6.38,0,0,0-.12,1.42v4.93h-1.58Z"/><path class="cls-1" d="M122.92,96.28a2.42,2.42,0,0,1,2.13-.81h.31l.36,0V97l-.36,0h-.21c-.48,0-.77.13-.87.38a7.56,7.56,0,0,0-.14,1.9h1.58v1.25h-1.58v8.12h-1.56v-8.12h-1.31V99.2h1.31V97.72A2.77,2.77,0,0,1,122.92,96.28Z"/><path class="cls-1" d="M127.18,95.66h1.61v1.79h-1.61Zm0,3.54h1.61v9.37h-1.61Z"/><path class="cls-1" d="M131.22,99.16h1.51v1.62a3.54,3.54,0,0,1,.9-1.15,2.33,2.33,0,0,1,1.66-.68h.15l.36,0v1.67l-.26,0h-.25a2.24,2.24,0,0,0-1.84.77,2.66,2.66,0,0,0-.64,1.77v5.41h-1.59Z"/><path class="cls-1" d="M137.17,99.16h1.57v1.33a5,5,0,0,1,1-1,3,3,0,0,1,1.77-.53,2.77,2.77,0,0,1,1.81.55,2.84,2.84,0,0,1,.71.93,3.37,3.37,0,0,1,1.24-1.12,3.49,3.49,0,0,1,1.6-.36,2.61,2.61,0,0,1,2.58,1.37,4.4,4.4,0,0,1,.37,2v6.27H148.2V102a1.52,1.52,0,0,0-.47-1.29,1.85,1.85,0,0,0-1.15-.35,2.28,2.28,0,0,0-1.6.62,2.74,2.74,0,0,0-.68,2.08v5.48h-1.61v-6.14a3.25,3.25,0,0,0-.22-1.4,1.4,1.4,0,0,0-1.35-.66,2.32,2.32,0,0,0-1.63.69,3.43,3.43,0,0,0-.73,2.52v5h-1.59Z"/><path class="cls-1" d="M158,99.42a3.59,3.59,0,0,1,1.43,1.21,4.42,4.42,0,0,1,.63,1.66,11.32,11.32,0,0,1,.14,2.08h-6.85a4,4,0,0,0,.67,2.3,2.25,2.25,0,0,0,1.95.87,2.5,2.5,0,0,0,2-.82,2.91,2.91,0,0,0,.58-1.1H160a3.23,3.23,0,0,1-.4,1.15,4.15,4.15,0,0,1-.78,1,3.64,3.64,0,0,1-1.77,1,5.07,5.07,0,0,1-1.28.14,3.92,3.92,0,0,1-3-1.27,5,5,0,0,1-1.22-3.59,5.4,5.4,0,0,1,1.23-3.68A4,4,0,0,1,156.05,99,4.14,4.14,0,0,1,158,99.42Zm.57,3.69a4.11,4.11,0,0,0-.44-1.64,2.29,2.29,0,0,0-2.16-1.14,2.38,2.38,0,0,0-1.81.78,3,3,0,0,0-.78,2Z"/><path class="cls-1" d="M167.05,99.2h1.55v1.25a3.59,3.59,0,0,1,1-1,3.27,3.27,0,0,1,1.88-.53,3.53,3.53,0,0,1,2.72,1.23,5,5,0,0,1,1.12,3.5c0,2-.53,3.51-1.61,4.39a3.64,3.64,0,0,1-2.38.84,3.22,3.22,0,0,1-1.79-.47,4,4,0,0,1-1-.9v4.8h-1.58Zm5.95,7.38a4.4,4.4,0,0,0,.74-2.77,5.15,5.15,0,0,0-.33-1.94,2.39,2.39,0,0,0-4.51.09,6.44,6.44,0,0,0-.33,2.23,4.69,4.69,0,0,0,.33,1.86,2.39,2.39,0,0,0,4.1.53Z"/><path class="cls-1" d="M177.24,99.16h1.5v1.62a3.54,3.54,0,0,1,.9-1.15A2.33,2.33,0,0,1,181.3,99h.15l.36,0v1.67l-.26,0h-.25a2.24,2.24,0,0,0-1.84.77,2.66,2.66,0,0,0-.64,1.77v5.41h-1.58Z"/><path class="cls-1" d="M189,99.42a3.55,3.55,0,0,1,1.42,1.21,4.1,4.1,0,0,1,.63,1.66,10.48,10.48,0,0,1,.14,2.08h-6.84a4,4,0,0,0,.67,2.3,2.23,2.23,0,0,0,1.94.87,2.47,2.47,0,0,0,2-.82,2.65,2.65,0,0,0,.58-1.1h1.56a3.27,3.27,0,0,1-.41,1.15,4.13,4.13,0,0,1-.77,1,3.64,3.64,0,0,1-1.77,1,5.1,5.1,0,0,1-1.29.14,3.93,3.93,0,0,1-3-1.27,5,5,0,0,1-1.21-3.59,5.45,5.45,0,0,1,1.22-3.68,4,4,0,0,1,3.2-1.41A4.16,4.16,0,0,1,189,99.42Zm.57,3.69a4.27,4.27,0,0,0-.45-1.64,2.28,2.28,0,0,0-2.15-1.14,2.37,2.37,0,0,0-1.81.78,3,3,0,0,0-.78,2Z"/><path class="cls-1" d="M194.14,105.62a2.22,2.22,0,0,0,.4,1.21,2.57,2.57,0,0,0,2.12.76,3.16,3.16,0,0,0,1.58-.38,1.27,1.27,0,0,0,.68-1.18,1,1,0,0,0-.55-.92,6.43,6.43,0,0,0-1.37-.45l-1.28-.32a6,6,0,0,1-1.8-.67,2,2,0,0,1-1-1.77,2.7,2.7,0,0,1,1-2.16,3.9,3.9,0,0,1,2.62-.83,3.68,3.68,0,0,1,3.11,1.25,2.73,2.73,0,0,1,.58,1.7h-1.5a1.89,1.89,0,0,0-.38-1,2.55,2.55,0,0,0-1.94-.62,2.35,2.35,0,0,0-1.39.35,1.05,1.05,0,0,0-.47.9,1.12,1.12,0,0,0,.62,1,3.94,3.94,0,0,0,1.06.38l1.06.26a8,8,0,0,1,2.33.8,2.12,2.12,0,0,1,.92,1.91,2.91,2.91,0,0,1-1,2.17,4.16,4.16,0,0,1-2.94.91,4,4,0,0,1-3-1,3.59,3.59,0,0,1-.94-2.36Z"/><path class="cls-1" d="M208,99.42a3.55,3.55,0,0,1,1.42,1.21,4.1,4.1,0,0,1,.63,1.66,10.48,10.48,0,0,1,.14,2.08h-6.84a4,4,0,0,0,.67,2.3,2.23,2.23,0,0,0,1.94.87,2.47,2.47,0,0,0,2-.82,2.79,2.79,0,0,0,.59-1.1h1.55a3.27,3.27,0,0,1-.41,1.15,4.13,4.13,0,0,1-.77,1,3.64,3.64,0,0,1-1.77,1,5.07,5.07,0,0,1-1.28.14,3.94,3.94,0,0,1-3-1.27,5,5,0,0,1-1.21-3.59,5.45,5.45,0,0,1,1.22-3.68,4,4,0,0,1,3.2-1.41A4.16,4.16,0,0,1,208,99.42Zm.57,3.69a4.1,4.1,0,0,0-.45-1.64,2.27,2.27,0,0,0-2.15-1.14,2.38,2.38,0,0,0-1.81.78,3,3,0,0,0-.78,2Z"/><path class="cls-1" d="M212.21,99.16h1.5v1.33a4.24,4.24,0,0,1,1.42-1.18,3.74,3.74,0,0,1,1.66-.36,2.73,2.73,0,0,1,2.7,1.39,4.93,4.93,0,0,1,.39,2.19v6h-1.61v-5.93a3.2,3.2,0,0,0-.25-1.39,1.54,1.54,0,0,0-1.53-.88,3.38,3.38,0,0,0-.93.11,2.39,2.39,0,0,0-1.14.78,2.37,2.37,0,0,0-.51,1,6.38,6.38,0,0,0-.12,1.42v4.93h-1.58Z"/><path class="cls-1" d="M228.44,99.66a3.73,3.73,0,0,1,1.2,2.66H228.1a2.89,2.89,0,0,0-.64-1.44,2,2,0,0,0-1.61-.58,2.21,2.21,0,0,0-2.16,1.47,5.74,5.74,0,0,0-.43,2.37,4.45,4.45,0,0,0,.6,2.38,2.32,2.32,0,0,0,3.44.36,3.29,3.29,0,0,0,.8-1.64h1.54a4.17,4.17,0,0,1-1.32,2.74,3.79,3.79,0,0,1-2.45.86l-.62.86a2,2,0,0,1,.66-.08,1.49,1.49,0,0,1,1,.35,1.32,1.32,0,0,1,.4,1,1.52,1.52,0,0,1-.53,1.15,2.34,2.34,0,0,1-1.62.48,3.76,3.76,0,0,1-1-.13c-.18,0-.44-.13-.75-.25l.31-.71.52.18a2.73,2.73,0,0,0,.65.09,1.53,1.53,0,0,0,.56-.09A.67.67,0,0,0,226,111a.62.62,0,0,0-.23-.49.94.94,0,0,0-.62-.2,1.83,1.83,0,0,0-.35,0,2,2,0,0,0-.37.12l-.31-.37,1-1.29a2.89,2.89,0,0,1-2.19-1,5.41,5.41,0,0,1-1.26-3.72,5.7,5.7,0,0,1,1.2-3.86,3.9,3.9,0,0,1,3.07-1.38A4.1,4.1,0,0,1,228.44,99.66Z"/><path class="cls-1" d="M236.26,102.87a.84.84,0,0,0,.73-.45,1.41,1.41,0,0,0,.11-.61,1.29,1.29,0,0,0-.58-1.18,3.09,3.09,0,0,0-1.64-.37,2.09,2.09,0,0,0-1.76.68,2.22,2.22,0,0,0-.37,1.1h-1.48a2.75,2.75,0,0,1,1.13-2.43,4.65,4.65,0,0,1,2.51-.68,5.14,5.14,0,0,1,2.7.63,2.16,2.16,0,0,1,1,2V107a.68.68,0,0,0,.1.4c.06.1.21.15.42.15h.24l.28,0v1.16a5,5,0,0,1-.56.14l-.53,0a1.28,1.28,0,0,1-1.18-.58,2.28,2.28,0,0,1-.28-.87,3.86,3.86,0,0,1-1.39,1.1,4.26,4.26,0,0,1-2,.47,3,3,0,0,1-2.14-.8,2.65,2.65,0,0,1-.83-2,2.53,2.53,0,0,1,.82-2,3.87,3.87,0,0,1,2.14-.89Zm-3.33,4.28a1.89,1.89,0,0,0,1.19.39,3.77,3.77,0,0,0,1.62-.38,2.19,2.19,0,0,0,1.31-2.1v-1.27a2.71,2.71,0,0,1-.74.3,5,5,0,0,1-.9.18l-.95.12a3.74,3.74,0,0,0-1.29.36,1.4,1.4,0,0,0-.74,1.32A1.32,1.32,0,0,0,232.93,107.15Z"/><path class="cls-1" d="M242.17,105.62a2.31,2.31,0,0,0,.4,1.21,2.57,2.57,0,0,0,2.12.76,3.13,3.13,0,0,0,1.58-.38A1.27,1.27,0,0,0,247,106a1,1,0,0,0-.54-.92,6.81,6.81,0,0,0-1.38-.45l-1.28-.32a6.26,6.26,0,0,1-1.8-.67,2,2,0,0,1-1-1.77,2.7,2.7,0,0,1,1-2.16,3.92,3.92,0,0,1,2.62-.83,3.68,3.68,0,0,1,3.11,1.25,2.67,2.67,0,0,1,.58,1.7h-1.5a1.81,1.81,0,0,0-.38-1,2.53,2.53,0,0,0-1.94-.62,2.35,2.35,0,0,0-1.39.35,1.05,1.05,0,0,0-.47.9,1.12,1.12,0,0,0,.62,1,3.94,3.94,0,0,0,1.06.38l1.06.26a8,8,0,0,1,2.33.8,2.1,2.1,0,0,1,.92,1.91,2.91,2.91,0,0,1-1,2.17,4.14,4.14,0,0,1-2.94.91,4,4,0,0,1-3-1,3.6,3.6,0,0,1-.95-2.36Z"/><path class="cls-1" d="M261,99.42a3.59,3.59,0,0,1,1.43,1.21,4.42,4.42,0,0,1,.63,1.66,11.32,11.32,0,0,1,.14,2.08h-6.85a4,4,0,0,0,.67,2.3,2.25,2.25,0,0,0,1.95.87,2.49,2.49,0,0,0,2-.82,2.91,2.91,0,0,0,.58-1.1h1.55a3.23,3.23,0,0,1-.4,1.15,4.15,4.15,0,0,1-.78,1,3.64,3.64,0,0,1-1.77,1,5.07,5.07,0,0,1-1.28.14,3.92,3.92,0,0,1-3-1.27,5,5,0,0,1-1.22-3.59,5.4,5.4,0,0,1,1.23-3.68A4,4,0,0,1,259.11,99,4.14,4.14,0,0,1,261,99.42Zm.57,3.69a4.11,4.11,0,0,0-.44-1.64,2.28,2.28,0,0,0-2.16-1.14,2.38,2.38,0,0,0-1.81.78,3,3,0,0,0-.78,2Z"/><path class="cls-1" d="M89.2,116.66h1.59v12.91H89.2Z"/><path class="cls-1" d="M93.16,116.66h1.61v1.79H93.16Zm0,3.54h1.61v9.37H93.16Z"/><path class="cls-1" d="M98.1,126.62a2.31,2.31,0,0,0,.4,1.21,2.57,2.57,0,0,0,2.12.76,3.13,3.13,0,0,0,1.58-.38,1.27,1.27,0,0,0,.68-1.18,1,1,0,0,0-.54-.92,6.81,6.81,0,0,0-1.38-.45l-1.28-.32a6.14,6.14,0,0,1-1.8-.67,2,2,0,0,1-1-1.77,2.7,2.7,0,0,1,1-2.16,3.92,3.92,0,0,1,2.62-.83,3.68,3.68,0,0,1,3.11,1.25,2.67,2.67,0,0,1,.58,1.7h-1.5a1.89,1.89,0,0,0-.38-1,2.53,2.53,0,0,0-1.94-.62,2.35,2.35,0,0,0-1.39.35,1.05,1.05,0,0,0-.47.9,1.12,1.12,0,0,0,.62,1,3.94,3.94,0,0,0,1.06.38l1.06.26a8,8,0,0,1,2.33.8,2.1,2.1,0,0,1,.92,1.91,2.91,2.91,0,0,1-1,2.17,4.14,4.14,0,0,1-2.94.91,4,4,0,0,1-3-1,3.6,3.6,0,0,1-1-2.36Z"/><path class="cls-1" d="M106.47,117.53h1.6v2.63h1.51v1.29h-1.51v6.14a.67.67,0,0,0,.34.66,1.32,1.32,0,0,0,.61.1h.25l.31,0v1.26a3.38,3.38,0,0,1-.57.11,4.31,4.31,0,0,1-.64,0,1.7,1.7,0,0,1-1.5-.57,2.53,2.53,0,0,1-.4-1.47v-6.23H105.2v-1.29h1.27Z"/><path class="cls-1" d="M116.2,123.87a.84.84,0,0,0,.73-.45,1.41,1.41,0,0,0,.11-.61,1.29,1.29,0,0,0-.58-1.18,3.09,3.09,0,0,0-1.64-.37,2.07,2.07,0,0,0-1.75.68,2.12,2.12,0,0,0-.38,1.1h-1.48a2.75,2.75,0,0,1,1.13-2.43,4.65,4.65,0,0,1,2.51-.68,5.14,5.14,0,0,1,2.7.63,2.16,2.16,0,0,1,1,2V128a.68.68,0,0,0,.1.4.48.48,0,0,0,.42.15h.24l.28,0v1.16a5,5,0,0,1-.56.14l-.53,0a1.28,1.28,0,0,1-1.18-.58,2.28,2.28,0,0,1-.28-.87,3.9,3.9,0,0,1-1.38,1.1,4.33,4.33,0,0,1-2,.47,3,3,0,0,1-2.14-.8,2.65,2.65,0,0,1-.83-2,2.53,2.53,0,0,1,.82-2,3.87,3.87,0,0,1,2.14-.89Zm-3.33,4.28a1.89,1.89,0,0,0,1.19.39,3.7,3.7,0,0,0,1.62-.38,2.18,2.18,0,0,0,1.32-2.1v-1.27a2.93,2.93,0,0,1-.75.3,4.78,4.78,0,0,1-.9.18l-.95.12a3.81,3.81,0,0,0-1.29.36,1.42,1.42,0,0,0-.74,1.32A1.32,1.32,0,0,0,112.87,128.15Z"/><path class="cls-1" d="M122.11,126.62a2.31,2.31,0,0,0,.4,1.21,2.58,2.58,0,0,0,2.12.76,3.13,3.13,0,0,0,1.58-.38,1.27,1.27,0,0,0,.68-1.18,1,1,0,0,0-.54-.92,6.58,6.58,0,0,0-1.38-.45l-1.28-.32a6.26,6.26,0,0,1-1.8-.67,2,2,0,0,1-1-1.77,2.7,2.7,0,0,1,1-2.16,3.92,3.92,0,0,1,2.62-.83,3.68,3.68,0,0,1,3.11,1.25,2.67,2.67,0,0,1,.58,1.7h-1.49a1.82,1.82,0,0,0-.39-1,2.53,2.53,0,0,0-1.94-.62,2.35,2.35,0,0,0-1.39.35,1.05,1.05,0,0,0-.47.9,1.12,1.12,0,0,0,.62,1,3.94,3.94,0,0,0,1.06.38l1.07.26a8.06,8.06,0,0,1,2.32.8,2.11,2.11,0,0,1,.93,1.91,2.92,2.92,0,0,1-1,2.17,4.13,4.13,0,0,1-2.94.91,4,4,0,0,1-3-1,3.6,3.6,0,0,1-1-2.36Z"/><path class="cls-1" d="M140.34,120.45a4.17,4.17,0,0,1,1,.92v-4.75h1.52v12.95h-1.43v-1.31a3.39,3.39,0,0,1-1.3,1.26,3.7,3.7,0,0,1-1.73.38,3.5,3.5,0,0,1-2.71-1.32,5.2,5.2,0,0,1-1.15-3.52,6.06,6.06,0,0,1,1.05-3.56,3.41,3.41,0,0,1,3-1.51A3.25,3.25,0,0,1,140.34,120.45Zm-3.53,7a2.24,2.24,0,0,0,2.05,1,2.13,2.13,0,0,0,1.79-.94,4.46,4.46,0,0,0,.71-2.71,4,4,0,0,0-.73-2.64,2.26,2.26,0,0,0-1.79-.86,2.36,2.36,0,0,0-1.93.91,4.23,4.23,0,0,0-.74,2.69A4.7,4.7,0,0,0,136.81,127.5Z"/><path class="cls-1" d="M151,120.42a3.62,3.62,0,0,1,1.42,1.21,4.42,4.42,0,0,1,.63,1.66,11.32,11.32,0,0,1,.14,2.08h-6.85a4,4,0,0,0,.67,2.3,2.25,2.25,0,0,0,2,.87,2.49,2.49,0,0,0,2-.82,2.77,2.77,0,0,0,.58-1.1h1.56a3.27,3.27,0,0,1-.41,1.15,3.93,3.93,0,0,1-.78,1,3.55,3.55,0,0,1-1.77.95,5,5,0,0,1-1.28.14,3.93,3.93,0,0,1-3-1.27,5,5,0,0,1-1.21-3.59,5.4,5.4,0,0,1,1.22-3.68,4,4,0,0,1,3.2-1.41A4.19,4.19,0,0,1,151,120.42Zm.56,3.69a4.11,4.11,0,0,0-.44-1.64,2.28,2.28,0,0,0-2.16-1.14,2.4,2.4,0,0,0-1.81.78,3,3,0,0,0-.77,2Z"/><path class="cls-1" d="M166.41,120.66a3.65,3.65,0,0,1,1.2,2.66h-1.54a2.73,2.73,0,0,0-.64-1.44,2,2,0,0,0-1.61-.58,2.22,2.22,0,0,0-2.16,1.47,5.91,5.91,0,0,0-.42,2.37,4.45,4.45,0,0,0,.6,2.38,2,2,0,0,0,1.88,1,2.08,2.08,0,0,0,1.56-.6,3.28,3.28,0,0,0,.79-1.64h1.54a4.08,4.08,0,0,1-1.32,2.74,4.14,4.14,0,0,1-2.7.86,3.59,3.59,0,0,1-2.94-1.35,5.17,5.17,0,0,1-1.1-3.37,5.65,5.65,0,0,1,1.21-3.86,3.88,3.88,0,0,1,3.06-1.38A4.08,4.08,0,0,1,166.41,120.66Z"/><path class="cls-1" d="M176,121.1a4.71,4.71,0,0,1,1.25,3.56,6.1,6.1,0,0,1-1.1,3.76,4,4,0,0,1-3.41,1.48,3.8,3.8,0,0,1-3.06-1.31,5.17,5.17,0,0,1-1.14-3.52,5.64,5.64,0,0,1,1.2-3.78,4,4,0,0,1,3.21-1.41A4.21,4.21,0,0,1,176,121.1Zm-1,6.25a5.88,5.88,0,0,0,.58-2.64,4.76,4.76,0,0,0-.42-2.15,2.35,2.35,0,0,0-2.27-1.3,2.24,2.24,0,0,0-2.09,1.11,5.13,5.13,0,0,0-.65,2.67,4.45,4.45,0,0,0,.65,2.5,2.27,2.27,0,0,0,2.07,1A2.14,2.14,0,0,0,175,127.35Z"/><path class="cls-1" d="M179.2,120.16h1.51v1.33a4.12,4.12,0,0,1,1.41-1.18,3.78,3.78,0,0,1,1.66-.36,2.74,2.74,0,0,1,2.71,1.39,4.93,4.93,0,0,1,.39,2.19v6h-1.61v-5.93a3.19,3.19,0,0,0-.26-1.39,1.54,1.54,0,0,0-1.53-.88,3.35,3.35,0,0,0-.92.11,2.39,2.39,0,0,0-1.14.78,2.25,2.25,0,0,0-.51,1,6.38,6.38,0,0,0-.12,1.42v4.93H179.2Z"/><path class="cls-1" d="M190,120.16l2.52,7.66,2.62-7.66h1.73l-3.55,9.41h-1.68l-3.47-9.41Z"/><path class="cls-1" d="M198.21,116.66h1.61v1.79h-1.61Zm0,3.54h1.61v9.37h-1.61Z"/><path class="cls-1" d="M207.39,120.45a4.16,4.16,0,0,1,1,.92v-4.75h1.52v12.95h-1.42v-1.31a3.48,3.48,0,0,1-1.31,1.26,3.69,3.69,0,0,1-1.72.38,3.5,3.5,0,0,1-2.72-1.32,5.19,5.19,0,0,1-1.14-3.52,6.05,6.05,0,0,1,1-3.56,3.42,3.42,0,0,1,3-1.51A3.31,3.31,0,0,1,207.39,120.45Zm-3.54,7a2.24,2.24,0,0,0,2.05,1,2.15,2.15,0,0,0,1.8-.94,4.47,4.47,0,0,0,.7-2.71,4,4,0,0,0-.72-2.64,2.29,2.29,0,0,0-1.8-.86,2.34,2.34,0,0,0-1.92.91,4.17,4.17,0,0,0-.74,2.69A4.7,4.7,0,0,0,203.85,127.5Z"/><path class="cls-1" d="M217.27,123.87a.86.86,0,0,0,.73-.45,1.43,1.43,0,0,0,.1-.61,1.31,1.31,0,0,0-.57-1.18,3.09,3.09,0,0,0-1.64-.37,2.09,2.09,0,0,0-1.76.68,2.21,2.21,0,0,0-.38,1.1h-1.47a2.73,2.73,0,0,1,1.13-2.43,4.65,4.65,0,0,1,2.51-.68,5.16,5.16,0,0,1,2.7.63,2.15,2.15,0,0,1,1,2V128a.76.76,0,0,0,.1.4.49.49,0,0,0,.43.15h.24l.28,0v1.16l-.56.14-.53,0a1.3,1.3,0,0,1-1.19-.58,2.12,2.12,0,0,1-.27-.87,4,4,0,0,1-1.39,1.1,4.29,4.29,0,0,1-2,.47,3,3,0,0,1-2.14-.8,2.61,2.61,0,0,1-.83-2,2.56,2.56,0,0,1,.81-2,3.9,3.9,0,0,1,2.15-.89Zm-3.33,4.28a1.87,1.87,0,0,0,1.19.39,3.69,3.69,0,0,0,1.61-.38,2.18,2.18,0,0,0,1.32-2.1v-1.27a2.71,2.71,0,0,1-.74.3,5.12,5.12,0,0,1-.9.18l-1,.12a3.88,3.88,0,0,0-1.29.36,1.41,1.41,0,0,0-.73,1.32A1.29,1.29,0,0,0,213.94,128.15Z"/><path class="cls-1" d="M227.41,120.45a4.16,4.16,0,0,1,1,.92v-4.75h1.52v12.95h-1.42v-1.31a3.41,3.41,0,0,1-1.31,1.26,3.66,3.66,0,0,1-1.72.38,3.5,3.5,0,0,1-2.72-1.32,5.19,5.19,0,0,1-1.14-3.52,6.12,6.12,0,0,1,1-3.56,3.42,3.42,0,0,1,3-1.51A3.31,3.31,0,0,1,227.41,120.45Zm-3.53,7a2.22,2.22,0,0,0,2,1,2.15,2.15,0,0,0,1.8-.94,4.47,4.47,0,0,0,.7-2.71,4,4,0,0,0-.72-2.64,2.28,2.28,0,0,0-1.8-.86,2.34,2.34,0,0,0-1.92.91,4.17,4.17,0,0,0-.74,2.69A4.61,4.61,0,0,0,223.88,127.5Z"/><path class="cls-1" d="M239.07,121.1a4.74,4.74,0,0,1,1.24,3.56,6.1,6.1,0,0,1-1.1,3.76,4,4,0,0,1-3.41,1.48,3.83,3.83,0,0,1-3.06-1.31,5.17,5.17,0,0,1-1.14-3.52,5.64,5.64,0,0,1,1.2-3.78,4,4,0,0,1,3.21-1.41A4.23,4.23,0,0,1,239.07,121.1Zm-1,6.25a5.88,5.88,0,0,0,.58-2.64,4.9,4.9,0,0,0-.41-2.15,2.36,2.36,0,0,0-2.28-1.3,2.25,2.25,0,0,0-2.09,1.11,5.23,5.23,0,0,0-.65,2.67,4.53,4.53,0,0,0,.65,2.5,2.3,2.3,0,0,0,2.07,1A2.13,2.13,0,0,0,238.08,127.35Z"/><path class="cls-1" d="M243.2,126.62a2.31,2.31,0,0,0,.4,1.21,2.57,2.57,0,0,0,2.12.76,3.13,3.13,0,0,0,1.58-.38A1.27,1.27,0,0,0,248,127a1,1,0,0,0-.55-.92,6.43,6.43,0,0,0-1.37-.45l-1.28-.32a6,6,0,0,1-1.8-.67,2,2,0,0,1-1-1.77,2.7,2.7,0,0,1,1-2.16,3.92,3.92,0,0,1,2.62-.83,3.68,3.68,0,0,1,3.11,1.25,2.67,2.67,0,0,1,.58,1.7h-1.5a1.89,1.89,0,0,0-.38-1,2.55,2.55,0,0,0-1.94-.62,2.35,2.35,0,0,0-1.39.35,1.05,1.05,0,0,0-.47.9,1.12,1.12,0,0,0,.62,1,3.94,3.94,0,0,0,1.06.38l1.06.26a8,8,0,0,1,2.33.8,2.1,2.1,0,0,1,.92,1.91,2.91,2.91,0,0,1-1,2.17,4.16,4.16,0,0,1-2.94.91,4,4,0,0,1-3-1,3.59,3.59,0,0,1-.94-2.36Z"/><path class="cls-1" d="M89.58,249.62h5.87a5.71,5.71,0,0,1,2.39.43,3.06,3.06,0,0,1,1.79,3,3.46,3.46,0,0,1-.48,1.9,3.51,3.51,0,0,1-1.34,1.18A2.78,2.78,0,0,1,99,257a3,3,0,0,1,.42,1.63l.06,1.73a5.05,5.05,0,0,0,.13,1.1,1.07,1.07,0,0,0,.56.79v.29H98a1.45,1.45,0,0,1-.14-.43,6.89,6.89,0,0,1-.09-1l-.11-2.15a1.82,1.82,0,0,0-.91-1.7A3.68,3.68,0,0,0,95.2,257H91.33v5.54H89.58Zm5.68,5.91a3.24,3.24,0,0,0,1.9-.49,2,2,0,0,0,.69-1.77,1.93,1.93,0,0,0-1-1.89,3.19,3.19,0,0,0-1.39-.26H91.33v4.41Z"/><path class="cls-1" d="M108,253.38a3.51,3.51,0,0,1,1.43,1.21,4.42,4.42,0,0,1,.63,1.66,11.32,11.32,0,0,1,.14,2.08h-6.85a4,4,0,0,0,.67,2.3,2.25,2.25,0,0,0,2,.87,2.5,2.5,0,0,0,2-.82,3,3,0,0,0,.58-1.1H110a3.23,3.23,0,0,1-.4,1.15,4.15,4.15,0,0,1-.78,1,3.64,3.64,0,0,1-1.77,1,5.07,5.07,0,0,1-1.28.14,3.89,3.89,0,0,1-3-1.28,5,5,0,0,1-1.22-3.58,5.4,5.4,0,0,1,1.23-3.68,4,4,0,0,1,3.19-1.41A4.14,4.14,0,0,1,108,253.38Zm.57,3.69a4.11,4.11,0,0,0-.44-1.64,2.28,2.28,0,0,0-2.16-1.14,2.38,2.38,0,0,0-1.81.78,3,3,0,0,0-.78,2Z"/><path class="cls-1" d="M118.39,253.62a3.73,3.73,0,0,1,1.2,2.66h-1.54a2.88,2.88,0,0,0-.64-1.45,2,2,0,0,0-1.61-.57,2.21,2.21,0,0,0-2.16,1.47,5.9,5.9,0,0,0-.42,2.36,4.49,4.49,0,0,0,.59,2.38,2.32,2.32,0,0,0,3.44.37,3.29,3.29,0,0,0,.8-1.64h1.54a3.71,3.71,0,0,1-4,3.6,3.59,3.59,0,0,1-2.94-1.35,5.12,5.12,0,0,1-1.1-3.37,5.7,5.7,0,0,1,1.2-3.86,3.91,3.91,0,0,1,3.07-1.38A4.1,4.1,0,0,1,118.39,253.62Z"/><path class="cls-1" d="M127,253.38a3.51,3.51,0,0,1,1.43,1.21,4.42,4.42,0,0,1,.63,1.66,11.32,11.32,0,0,1,.14,2.08h-6.85a4,4,0,0,0,.67,2.3,2.25,2.25,0,0,0,2,.87,2.49,2.49,0,0,0,2-.82,2.84,2.84,0,0,0,.58-1.1h1.56a3.49,3.49,0,0,1-.41,1.15,4.15,4.15,0,0,1-.78,1,3.59,3.59,0,0,1-1.77,1,5,5,0,0,1-1.28.14,3.89,3.89,0,0,1-3-1.28,5,5,0,0,1-1.22-3.58,5.4,5.4,0,0,1,1.23-3.68,4,4,0,0,1,3.19-1.41A4.14,4.14,0,0,1,127,253.38Zm.57,3.69a4.11,4.11,0,0,0-.44-1.64,2.28,2.28,0,0,0-2.16-1.14,2.38,2.38,0,0,0-1.81.78,2.94,2.94,0,0,0-.77,2Z"/><path class="cls-1" d="M131.05,249.57h1.54v4.69a3.4,3.4,0,0,1,1.24-1,3.48,3.48,0,0,1,1.57-.36,3.66,3.66,0,0,1,2.86,1.21,5.08,5.08,0,0,1,1.1,3.56,6.11,6.11,0,0,1-1.08,3.71,3.53,3.53,0,0,1-3,1.48,3.08,3.08,0,0,1-1.82-.52,4.45,4.45,0,0,1-.94-1v1.2h-1.46Zm6,10.84a5.07,5.07,0,0,0,.64-2.69,4.45,4.45,0,0,0-.64-2.46,2.12,2.12,0,0,0-1.89-1,2.65,2.65,0,0,0-1.9.79,3.63,3.63,0,0,0-.81,2.64,5.94,5.94,0,0,0,.33,2.16,2.33,2.33,0,0,0,2.34,1.55A2.13,2.13,0,0,0,137.1,260.41Z"/><path class="cls-1" d="M146.24,256.83a.87.87,0,0,0,.73-.45,1.43,1.43,0,0,0,.1-.61,1.3,1.3,0,0,0-.57-1.18,3.13,3.13,0,0,0-1.65-.37,2.07,2.07,0,0,0-1.75.68,2.21,2.21,0,0,0-.38,1.1h-1.48a2.75,2.75,0,0,1,1.13-2.43,4.66,4.66,0,0,1,2.52-.68,5.13,5.13,0,0,1,2.69.63,2.14,2.14,0,0,1,1,2v5.42a.68.68,0,0,0,.1.4.49.49,0,0,0,.43.15l.23,0a1.55,1.55,0,0,0,.29,0v1.17a5.61,5.61,0,0,1-.57.14l-.52,0a1.3,1.3,0,0,1-1.19-.58,2.12,2.12,0,0,1-.27-.87,4.16,4.16,0,0,1-1.39,1.1,4.33,4.33,0,0,1-2,.47,3,3,0,0,1-2.14-.8,2.65,2.65,0,0,1-.83-2,2.53,2.53,0,0,1,.82-2,3.87,3.87,0,0,1,2.14-.89Zm-3.33,4.28a1.84,1.84,0,0,0,1.18.39,3.58,3.58,0,0,0,1.62-.39A2.16,2.16,0,0,0,147,259v-1.27a2.79,2.79,0,0,1-.75.3,5.85,5.85,0,0,1-.89.18l-1,.12a3.88,3.88,0,0,0-1.29.36,1.42,1.42,0,0,0-.74,1.32A1.31,1.31,0,0,0,142.91,261.11Z"/><path class="cls-1" d="M156.2,253.12h1.57v1.33a5,5,0,0,1,1-1,3,3,0,0,1,1.77-.53,2.77,2.77,0,0,1,1.81.55,2.84,2.84,0,0,1,.71.93,3.37,3.37,0,0,1,1.24-1.12,3.46,3.46,0,0,1,1.6-.36,2.61,2.61,0,0,1,2.58,1.37,4.4,4.4,0,0,1,.37,2v6.27h-1.65V256a1.49,1.49,0,0,0-.47-1.29,1.8,1.8,0,0,0-1.14-.35A2.27,2.27,0,0,0,164,255a2.74,2.74,0,0,0-.67,2.08v5.48h-1.61v-6.14a3.08,3.08,0,0,0-.23-1.4,1.38,1.38,0,0,0-1.34-.66,2.32,2.32,0,0,0-1.63.69,3.42,3.42,0,0,0-.73,2.52v5H156.2Z"/><path class="cls-1" d="M177,253.38a3.58,3.58,0,0,1,1.43,1.21,4.24,4.24,0,0,1,.62,1.66,10.48,10.48,0,0,1,.14,2.08h-6.84a4,4,0,0,0,.67,2.3,2.24,2.24,0,0,0,1.94.87,2.51,2.51,0,0,0,2-.82,3,3,0,0,0,.58-1.1h1.55a3.27,3.27,0,0,1-.41,1.15,4.13,4.13,0,0,1-.77,1,3.64,3.64,0,0,1-1.77,1,5.07,5.07,0,0,1-1.28.14,3.88,3.88,0,0,1-3-1.28,5,5,0,0,1-1.22-3.58,5.45,5.45,0,0,1,1.22-3.68,4,4,0,0,1,3.2-1.41A4.14,4.14,0,0,1,177,253.38Zm.57,3.69a4.1,4.1,0,0,0-.45-1.64,2.27,2.27,0,0,0-2.15-1.14,2.38,2.38,0,0,0-1.81.78,3,3,0,0,0-.78,2Z"/><path class="cls-1" d="M181.21,253.12h1.5v1.33a4.24,4.24,0,0,1,1.42-1.18,3.74,3.74,0,0,1,1.66-.36,2.72,2.72,0,0,1,2.7,1.39,4.93,4.93,0,0,1,.39,2.19v6h-1.61V256.6a3.2,3.2,0,0,0-.25-1.39,1.54,1.54,0,0,0-1.53-.88,3.3,3.3,0,0,0-.92.11,2.57,2.57,0,0,0-1.66,1.74,6.38,6.38,0,0,0-.12,1.42v4.93h-1.58Z"/><path class="cls-1" d="M192.16,259.58a2.31,2.31,0,0,0,.4,1.21,2.57,2.57,0,0,0,2.12.76,3.13,3.13,0,0,0,1.58-.38,1.27,1.27,0,0,0,.68-1.18,1,1,0,0,0-.54-.92,6.58,6.58,0,0,0-1.38-.45l-1.28-.32a6.26,6.26,0,0,1-1.8-.67,2,2,0,0,1-1-1.77,2.7,2.7,0,0,1,1-2.16,3.92,3.92,0,0,1,2.62-.83,3.68,3.68,0,0,1,3.11,1.25,2.67,2.67,0,0,1,.58,1.7h-1.5a1.78,1.78,0,0,0-.38-1,2.53,2.53,0,0,0-1.94-.62,2.43,2.43,0,0,0-1.39.34,1.08,1.08,0,0,0-.47.91,1.13,1.13,0,0,0,.62,1,3.94,3.94,0,0,0,1.06.38l1.06.26a8,8,0,0,1,2.33.8,2.1,2.1,0,0,1,.92,1.9,2.91,2.91,0,0,1-1,2.18,4.17,4.17,0,0,1-2.94.91,4,4,0,0,1-3-.95,3.6,3.6,0,0,1-1-2.36Z"/><path class="cls-1" d="M205.26,256.83a.84.84,0,0,0,.73-.45,1.41,1.41,0,0,0,.11-.61,1.28,1.28,0,0,0-.58-1.18,3.09,3.09,0,0,0-1.64-.37,2.06,2.06,0,0,0-1.75.68,2.12,2.12,0,0,0-.38,1.1h-1.48a2.75,2.75,0,0,1,1.13-2.43,4.65,4.65,0,0,1,2.51-.68,5.14,5.14,0,0,1,2.7.63,2.16,2.16,0,0,1,1,2v5.42a.68.68,0,0,0,.1.4c.06.1.21.15.42.15l.24,0a1.45,1.45,0,0,0,.28,0v1.17a5,5,0,0,1-.56.14l-.53,0a1.28,1.28,0,0,1-1.18-.58,2.28,2.28,0,0,1-.28-.87,4,4,0,0,1-1.38,1.1,4.33,4.33,0,0,1-2,.47,3,3,0,0,1-2.14-.8,2.65,2.65,0,0,1-.83-2,2.53,2.53,0,0,1,.82-2,3.87,3.87,0,0,1,2.14-.89Zm-3.33,4.28a1.89,1.89,0,0,0,1.19.39,3.61,3.61,0,0,0,1.62-.39,2.15,2.15,0,0,0,1.31-2.09v-1.27a2.71,2.71,0,0,1-.74.3,6,6,0,0,1-.9.18l-.95.12a3.81,3.81,0,0,0-1.29.36,1.42,1.42,0,0,0-.74,1.32A1.33,1.33,0,0,0,201.93,261.11Z"/><path class="cls-1" d="M215.46,253.49a4.51,4.51,0,0,1,.91.9V253.2h1.46v8.56a6.33,6.33,0,0,1-.52,2.83,3.78,3.78,0,0,1-3.71,1.92,4.57,4.57,0,0,1-2.55-.68,2.63,2.63,0,0,1-1.15-2.13h1.6a1.77,1.77,0,0,0,.46,1,2.26,2.26,0,0,0,1.68.53,2.33,2.33,0,0,0,2.37-1.28,7.32,7.32,0,0,0,.3-2.7,3,3,0,0,1-1.14,1.07,3.7,3.7,0,0,1-1.76.35,3.75,3.75,0,0,1-2.66-1.08,4.8,4.8,0,0,1-1.14-3.59,5.42,5.42,0,0,1,1.15-3.69,3.52,3.52,0,0,1,2.78-1.33A3.43,3.43,0,0,1,215.46,253.49Zm.2,1.7a2.3,2.3,0,0,0-1.83-.84,2.26,2.26,0,0,0-2.28,1.56,6.34,6.34,0,0,0-.32,2.19,3.94,3.94,0,0,0,.64,2.42,2.09,2.09,0,0,0,1.73.83,2.42,2.42,0,0,0,2.39-1.54,4.9,4.9,0,0,0,.38-2A4,4,0,0,0,215.66,255.19Z"/><path class="cls-1" d="M226.05,253.38a3.51,3.51,0,0,1,1.43,1.21,4.42,4.42,0,0,1,.63,1.66,11.32,11.32,0,0,1,.14,2.08H221.4a4,4,0,0,0,.67,2.3,2.25,2.25,0,0,0,2,.87,2.49,2.49,0,0,0,2-.82,2.84,2.84,0,0,0,.58-1.1h1.56a3.49,3.49,0,0,1-.41,1.15,4.15,4.15,0,0,1-.78,1,3.55,3.55,0,0,1-1.77,1,5,5,0,0,1-1.28.14,3.89,3.89,0,0,1-3-1.28A5,5,0,0,1,219.7,258a5.4,5.4,0,0,1,1.23-3.68,4,4,0,0,1,3.19-1.41A4.14,4.14,0,0,1,226.05,253.38Zm.57,3.69a4.11,4.11,0,0,0-.44-1.64,2.28,2.28,0,0,0-2.16-1.14,2.38,2.38,0,0,0-1.81.78,2.94,2.94,0,0,0-.77,2Z"/><path class="cls-1" d="M230.25,253.12h1.5v1.33a4.24,4.24,0,0,1,1.42-1.18,3.78,3.78,0,0,1,1.66-.36,2.74,2.74,0,0,1,2.71,1.39,5,5,0,0,1,.38,2.19v6h-1.6V256.6a3.19,3.19,0,0,0-.26-1.39,1.54,1.54,0,0,0-1.53-.88,3.35,3.35,0,0,0-.92.11,2.3,2.3,0,0,0-1.14.78,2.28,2.28,0,0,0-.52,1,6.38,6.38,0,0,0-.12,1.42v4.93h-1.58Z"/><path class="cls-1" d="M241.2,259.58a2.22,2.22,0,0,0,.41,1.21,2.54,2.54,0,0,0,2.11.76,3.11,3.11,0,0,0,1.58-.38A1.25,1.25,0,0,0,246,260a1,1,0,0,0-.54-.92,6.37,6.37,0,0,0-1.38-.45l-1.27-.32a6.23,6.23,0,0,1-1.81-.67,2,2,0,0,1-1-1.77,2.69,2.69,0,0,1,1-2.16,3.94,3.94,0,0,1,2.62-.83,3.66,3.66,0,0,1,3.11,1.25,2.67,2.67,0,0,1,.58,1.7h-1.49a1.79,1.79,0,0,0-.39-1,2.52,2.52,0,0,0-1.93-.62,2.39,2.39,0,0,0-1.39.34,1.07,1.07,0,0,0-.48.91,1.13,1.13,0,0,0,.62,1,4.07,4.07,0,0,0,1.06.38l1.07.26a8.16,8.16,0,0,1,2.33.8,2.12,2.12,0,0,1,.92,1.9,2.89,2.89,0,0,1-1,2.18,4.17,4.17,0,0,1-2.94.91,4,4,0,0,1-3-.95,3.6,3.6,0,0,1-.95-2.36Z"/><path class="cls-1" d="M94.33,274.41a4.17,4.17,0,0,1,1,.92v-4.76h1.52v13H95.38v-1.31a3.46,3.46,0,0,1-1.3,1.26,3.83,3.83,0,0,1-1.73.38,3.48,3.48,0,0,1-2.71-1.32A5.2,5.2,0,0,1,88.49,279a6.06,6.06,0,0,1,1.05-3.56,3.41,3.41,0,0,1,3-1.51A3.25,3.25,0,0,1,94.33,274.41Zm-3.53,7a2.24,2.24,0,0,0,2,1,2.13,2.13,0,0,0,1.79-.94,4.48,4.48,0,0,0,.71-2.71,4,4,0,0,0-.73-2.64,2.23,2.23,0,0,0-1.79-.86,2.36,2.36,0,0,0-1.93.91,4.23,4.23,0,0,0-.74,2.69A4.73,4.73,0,0,0,90.8,281.46Z"/><path class="cls-1" d="M106,275.06a4.73,4.73,0,0,1,1.25,3.56,6.16,6.16,0,0,1-1.1,3.76,4,4,0,0,1-3.41,1.48,3.84,3.84,0,0,1-3.07-1.31A5.23,5.23,0,0,1,98.53,279a5.66,5.66,0,0,1,1.19-3.77,4,4,0,0,1,3.22-1.41A4.21,4.21,0,0,1,106,275.06Zm-1,6.25a6,6,0,0,0,.58-2.64,4.76,4.76,0,0,0-.42-2.15,2.35,2.35,0,0,0-2.28-1.3,2.23,2.23,0,0,0-2.08,1.11,5.13,5.13,0,0,0-.65,2.67,4.45,4.45,0,0,0,.65,2.5,2.27,2.27,0,0,0,2.07,1A2.16,2.16,0,0,0,105,281.31Z"/><path class="cls-1" d="M110.12,280.58a2.22,2.22,0,0,0,.41,1.21,2.54,2.54,0,0,0,2.11.76,3.11,3.11,0,0,0,1.58-.38,1.25,1.25,0,0,0,.68-1.18,1,1,0,0,0-.54-.92,6.37,6.37,0,0,0-1.38-.45l-1.27-.32a6.23,6.23,0,0,1-1.81-.67,2,2,0,0,1-1-1.77,2.69,2.69,0,0,1,1-2.16,3.94,3.94,0,0,1,2.62-.83,3.66,3.66,0,0,1,3.11,1.25,2.67,2.67,0,0,1,.58,1.7h-1.49a1.79,1.79,0,0,0-.39-1,2.52,2.52,0,0,0-1.93-.62,2.39,2.39,0,0,0-1.39.34,1.07,1.07,0,0,0-.48.91,1.13,1.13,0,0,0,.62,1,4.07,4.07,0,0,0,1.06.38l1.07.26a8.16,8.16,0,0,1,2.33.8,2.12,2.12,0,0,1,.92,1.9,2.89,2.89,0,0,1-1,2.18,4.17,4.17,0,0,1-2.94.91,4,4,0,0,1-3-.95,3.6,3.6,0,0,1-1-2.36Z"/><path class="cls-1" d="M124.12,280.58a2.31,2.31,0,0,0,.41,1.21,2.54,2.54,0,0,0,2.11.76,3.11,3.11,0,0,0,1.58-.38,1.25,1.25,0,0,0,.68-1.18,1,1,0,0,0-.54-.92,6.37,6.37,0,0,0-1.38-.45l-1.27-.32a6.23,6.23,0,0,1-1.81-.67,2,2,0,0,1-1-1.77,2.69,2.69,0,0,1,1-2.16,3.94,3.94,0,0,1,2.62-.83,3.66,3.66,0,0,1,3.11,1.25,2.67,2.67,0,0,1,.58,1.7h-1.49a1.79,1.79,0,0,0-.39-1,2.52,2.52,0,0,0-1.93-.62,2.41,2.41,0,0,0-1.39.34,1.07,1.07,0,0,0-.48.91,1.12,1.12,0,0,0,.63,1,3.85,3.85,0,0,0,1.05.38l1.07.26a8.16,8.16,0,0,1,2.33.8,2.12,2.12,0,0,1,.92,1.9,2.89,2.89,0,0,1-1,2.18,4.17,4.17,0,0,1-2.94.91,4,4,0,0,1-3-.95,3.6,3.6,0,0,1-1-2.36Z"/><path class="cls-1" d="M138,274.38a3.54,3.54,0,0,1,1.42,1.21,4.25,4.25,0,0,1,.63,1.66,11.32,11.32,0,0,1,.14,2.08h-6.85a4.12,4.12,0,0,0,.67,2.3,2.25,2.25,0,0,0,2,.87,2.49,2.49,0,0,0,2-.82,2.84,2.84,0,0,0,.58-1.1h1.56a3.27,3.27,0,0,1-.41,1.15,3.93,3.93,0,0,1-.78,1,3.55,3.55,0,0,1-1.77,1,5,5,0,0,1-1.28.14,3.91,3.91,0,0,1-3-1.28,5,5,0,0,1-1.21-3.58,5.4,5.4,0,0,1,1.22-3.68,4,4,0,0,1,3.2-1.41A4.19,4.19,0,0,1,138,274.38Zm.56,3.69a4.11,4.11,0,0,0-.44-1.64,2.28,2.28,0,0,0-2.15-1.14,2.41,2.41,0,0,0-1.82.78,3,3,0,0,0-.77,2Z"/><path class="cls-1" d="M143.78,274.12v6.25a2.63,2.63,0,0,0,.22,1.17,1.53,1.53,0,0,0,1.53.85,2.18,2.18,0,0,0,2.19-1.48,6,6,0,0,0,.32-2.17v-4.62h1.58v9.41h-1.49v-1.39a3.18,3.18,0,0,1-.75.91,3.26,3.26,0,0,1-2.15.73,2.75,2.75,0,0,1-2.69-1.34,4.05,4.05,0,0,1-.39-1.93v-6.39Z"/><path class="cls-1" d="M153.14,280.58a2.31,2.31,0,0,0,.41,1.21,2.57,2.57,0,0,0,2.12.76,3.1,3.1,0,0,0,1.57-.38,1.26,1.26,0,0,0,.69-1.18,1,1,0,0,0-.55-.92,6.37,6.37,0,0,0-1.38-.45l-1.27-.32a6.23,6.23,0,0,1-1.81-.67,2,2,0,0,1-1-1.77,2.69,2.69,0,0,1,1-2.16,4,4,0,0,1,2.63-.83,3.66,3.66,0,0,1,3.1,1.25,2.62,2.62,0,0,1,.58,1.7h-1.49a1.79,1.79,0,0,0-.39-1,2.51,2.51,0,0,0-1.93-.62,2.41,2.41,0,0,0-1.39.34,1.06,1.06,0,0,0-.47.91,1.11,1.11,0,0,0,.62,1,4,4,0,0,0,1,.38l1.07.26a8.16,8.16,0,0,1,2.33.8,2.12,2.12,0,0,1,.92,1.9,2.89,2.89,0,0,1-1,2.18,4.17,4.17,0,0,1-2.94.91,4,4,0,0,1-3-.95,3.65,3.65,0,0,1-.95-2.36Z"/><path class="cls-1" d="M172.42,274.62a3.65,3.65,0,0,1,1.2,2.66h-1.53a2.89,2.89,0,0,0-.65-1.45,2,2,0,0,0-1.6-.57,2.24,2.24,0,0,0-2.17,1.47,5.9,5.9,0,0,0-.42,2.36,4.4,4.4,0,0,0,.6,2.38,2.32,2.32,0,0,0,3.44.37,3.37,3.37,0,0,0,.8-1.64h1.53a4.08,4.08,0,0,1-1.32,2.74,4.13,4.13,0,0,1-2.69.86,3.61,3.61,0,0,1-3-1.35,5.17,5.17,0,0,1-1.1-3.37,5.65,5.65,0,0,1,1.21-3.86,3.88,3.88,0,0,1,3.07-1.38A4,4,0,0,1,172.42,274.62Z"/><path class="cls-1" d="M182,275.06a4.73,4.73,0,0,1,1.24,3.56,6.1,6.1,0,0,1-1.1,3.76,4,4,0,0,1-3.41,1.48,3.82,3.82,0,0,1-3.06-1.31,5.18,5.18,0,0,1-1.14-3.53,5.61,5.61,0,0,1,1.2-3.77,4,4,0,0,1,3.21-1.41A4.25,4.25,0,0,1,182,275.06Zm-1,6.25a5.88,5.88,0,0,0,.58-2.64,4.76,4.76,0,0,0-.42-2.15,2.35,2.35,0,0,0-2.27-1.3,2.25,2.25,0,0,0-2.09,1.11,5.23,5.23,0,0,0-.65,2.67,4.53,4.53,0,0,0,.65,2.5,2.28,2.28,0,0,0,2.07,1A2.15,2.15,0,0,0,181,281.31Z"/><path class="cls-1" d="M185.22,274.12h1.5v1.33a4.21,4.21,0,0,1,1.41-1.18,3.82,3.82,0,0,1,1.67-.36,2.73,2.73,0,0,1,2.7,1.39,4.93,4.93,0,0,1,.39,2.19v6h-1.61V277.6a3.2,3.2,0,0,0-.25-1.39,1.56,1.56,0,0,0-1.53-.88,3.38,3.38,0,0,0-.93.11,2.39,2.39,0,0,0-1.14.78,2.37,2.37,0,0,0-.51,1,6.38,6.38,0,0,0-.12,1.42v4.93h-1.58Z"/><path class="cls-1" d="M196,274.12l2.52,7.66,2.62-7.66h1.73l-3.54,9.41h-1.69l-3.47-9.41Z"/><path class="cls-1" d="M204.23,270.62h1.61v1.79h-1.61Zm0,3.54h1.61v9.37h-1.61Z"/><path class="cls-1" d="M213.4,274.41a4,4,0,0,1,.95.92v-4.76h1.52v13h-1.42v-1.31a3.41,3.41,0,0,1-1.31,1.26,3.79,3.79,0,0,1-1.72.38,3.5,3.5,0,0,1-2.72-1.32,5.19,5.19,0,0,1-1.14-3.52,6.12,6.12,0,0,1,1-3.56,3.42,3.42,0,0,1,3-1.51A3.31,3.31,0,0,1,213.4,274.41Zm-3.53,7a2.22,2.22,0,0,0,2,1,2.15,2.15,0,0,0,1.8-.94,4.49,4.49,0,0,0,.7-2.71,4,4,0,0,0-.72-2.64,2.25,2.25,0,0,0-1.8-.86,2.34,2.34,0,0,0-1.92.91,4.17,4.17,0,0,0-.74,2.69A4.64,4.64,0,0,0,209.87,281.46Z"/><path class="cls-1" d="M223.28,277.83a.86.86,0,0,0,.73-.45,1.41,1.41,0,0,0,.11-.61,1.3,1.3,0,0,0-.58-1.18,3.09,3.09,0,0,0-1.64-.37,2.09,2.09,0,0,0-1.76.68,2.12,2.12,0,0,0-.37,1.1h-1.48a2.73,2.73,0,0,1,1.13-2.43,4.65,4.65,0,0,1,2.51-.68,5.14,5.14,0,0,1,2.7.63,2.15,2.15,0,0,1,1,2v5.42a.68.68,0,0,0,.11.4q.09.15.42.15l.24,0a1.45,1.45,0,0,0,.28,0v1.17a5.57,5.57,0,0,1-.56.14l-.53,0a1.31,1.31,0,0,1-1.19-.58,2.29,2.29,0,0,1-.27-.87,4,4,0,0,1-1.39,1.1,4.29,4.29,0,0,1-2,.47,3,3,0,0,1-2.14-.8,2.61,2.61,0,0,1-.83-2,2.56,2.56,0,0,1,.81-2,3.9,3.9,0,0,1,2.15-.89ZM220,282.11a1.87,1.87,0,0,0,1.19.39,3.57,3.57,0,0,0,1.61-.39,2.16,2.16,0,0,0,1.32-2.09v-1.27a2.71,2.71,0,0,1-.74.3,6.23,6.23,0,0,1-.9.18l-1,.12a3.88,3.88,0,0,0-1.3.36,1.41,1.41,0,0,0-.73,1.32A1.33,1.33,0,0,0,220,282.11Z"/><path class="cls-1" d="M233.42,274.41a4,4,0,0,1,1,.92v-4.76h1.52v13h-1.42v-1.31a3.46,3.46,0,0,1-1.3,1.26,3.86,3.86,0,0,1-1.73.38,3.48,3.48,0,0,1-2.71-1.32,5.15,5.15,0,0,1-1.15-3.52,6.06,6.06,0,0,1,1-3.56,3.4,3.4,0,0,1,3-1.51A3.3,3.3,0,0,1,233.42,274.41Zm-3.53,7a2.23,2.23,0,0,0,2,1,2.15,2.15,0,0,0,1.8-.94,4.49,4.49,0,0,0,.7-2.71,4,4,0,0,0-.72-2.64,2.24,2.24,0,0,0-1.79-.86,2.35,2.35,0,0,0-1.93.91,4.23,4.23,0,0,0-.74,2.69A4.64,4.64,0,0,0,229.89,281.46Z"/><path class="cls-1" d="M245.08,275.06a4.73,4.73,0,0,1,1.25,3.56,6.16,6.16,0,0,1-1.1,3.76,4,4,0,0,1-3.42,1.48,3.83,3.83,0,0,1-3.06-1.31,5.18,5.18,0,0,1-1.13-3.53,5.61,5.61,0,0,1,1.19-3.77,4,4,0,0,1,3.21-1.41A4.22,4.22,0,0,1,245.08,275.06Zm-1,6.25a6,6,0,0,0,.57-2.64,4.76,4.76,0,0,0-.41-2.15,2.35,2.35,0,0,0-2.28-1.3,2.25,2.25,0,0,0-2.09,1.11,5.23,5.23,0,0,0-.65,2.67,4.53,4.53,0,0,0,.65,2.5,2.3,2.3,0,0,0,2.07,1A2.17,2.17,0,0,0,244.1,281.31Z"/><path class="cls-1" d="M249.21,280.58a2.31,2.31,0,0,0,.4,1.21,2.57,2.57,0,0,0,2.12.76,3.13,3.13,0,0,0,1.58-.38A1.27,1.27,0,0,0,254,281a1,1,0,0,0-.54-.92,6.81,6.81,0,0,0-1.38-.45l-1.28-.32a6.26,6.26,0,0,1-1.8-.67,2,2,0,0,1-1-1.77,2.7,2.7,0,0,1,1-2.16,3.92,3.92,0,0,1,2.62-.83,3.68,3.68,0,0,1,3.11,1.25,2.67,2.67,0,0,1,.58,1.7h-1.5a1.78,1.78,0,0,0-.38-1,2.53,2.53,0,0,0-1.94-.62,2.43,2.43,0,0,0-1.39.34,1.08,1.08,0,0,0-.47.91,1.13,1.13,0,0,0,.62,1,3.94,3.94,0,0,0,1.06.38l1.06.26a8,8,0,0,1,2.33.8,2.1,2.1,0,0,1,.92,1.9,2.91,2.91,0,0,1-1,2.18,4.19,4.19,0,0,1-2.94.91,4,4,0,0,1-3-.95,3.6,3.6,0,0,1-.95-2.36Z"/><path class="cls-1" d="M98.76,322.08v1.54H94.41V335H92.64V323.62H88.29v-1.54Z"/><path class="cls-1" d="M104,325.84a3.61,3.61,0,0,1,1.43,1.22,4.35,4.35,0,0,1,.63,1.66,11.2,11.2,0,0,1,.14,2.07H99.32a4.08,4.08,0,0,0,.67,2.31,2.25,2.25,0,0,0,2,.87,2.52,2.52,0,0,0,2-.82,2.81,2.81,0,0,0,.58-1.11H106a3.53,3.53,0,0,1-.41,1.16,4.35,4.35,0,0,1-.78,1,3.55,3.55,0,0,1-1.77.95,5.51,5.51,0,0,1-1.28.14,3.93,3.93,0,0,1-3-1.28,5,5,0,0,1-1.22-3.58,5.4,5.4,0,0,1,1.23-3.68,4,4,0,0,1,3.19-1.42A4.26,4.26,0,0,1,104,325.84Zm.57,3.7a4.12,4.12,0,0,0-.44-1.65,2.28,2.28,0,0,0-2.16-1.14,2.36,2.36,0,0,0-1.81.79,2.92,2.92,0,0,0-.77,2Z"/><path class="cls-1" d="M108.17,325.58h1.5v1.34a4.28,4.28,0,0,1,1.42-1.19,3.78,3.78,0,0,1,1.66-.36,2.75,2.75,0,0,1,2.71,1.4,5.1,5.1,0,0,1,.38,2.19v6h-1.6v-5.94a3.25,3.25,0,0,0-.26-1.39,1.55,1.55,0,0,0-1.53-.87,3,3,0,0,0-.92.11,2.35,2.35,0,0,0-1.14.77,2.25,2.25,0,0,0-.52,1,6.38,6.38,0,0,0-.12,1.42V335h-1.58Z"/><path class="cls-1" d="M118.18,322h1.58v4.82a4.65,4.65,0,0,1,1-1,3.38,3.38,0,0,1,1.91-.51,2.82,2.82,0,0,1,2.78,1.44,4.92,4.92,0,0,1,.39,2.17v6h-1.62v-5.94a3.27,3.27,0,0,0-.27-1.52,1.68,1.68,0,0,0-1.61-.77,2.72,2.72,0,0,0-1.79.68,3.25,3.25,0,0,0-.8,2.55v5h-1.58Z"/><path class="cls-1" d="M133.24,329.3a.88.88,0,0,0,.73-.46,1.4,1.4,0,0,0,.1-.61,1.28,1.28,0,0,0-.57-1.17,3,3,0,0,0-1.65-.37,2.07,2.07,0,0,0-1.75.67,2.29,2.29,0,0,0-.38,1.11h-1.47a2.7,2.7,0,0,1,1.12-2.43,4.6,4.6,0,0,1,2.52-.69,5.12,5.12,0,0,1,2.69.64,2.14,2.14,0,0,1,1,2v5.42a.67.67,0,0,0,.1.39.49.49,0,0,0,.43.15h.24l.28,0V335a5,5,0,0,1-.57.13,3.54,3.54,0,0,1-.52,0,1.32,1.32,0,0,1-1.19-.58,2.23,2.23,0,0,1-.27-.87,4.06,4.06,0,0,1-1.39,1.1,4.3,4.3,0,0,1-2,.46,3,3,0,0,1-2.14-.79,2.65,2.65,0,0,1-.83-2,2.58,2.58,0,0,1,.82-2,3.89,3.89,0,0,1,2.14-.88Zm-3.33,4.27a1.81,1.81,0,0,0,1.18.4,3.58,3.58,0,0,0,1.62-.39,2.17,2.17,0,0,0,1.32-2.1v-1.27a2.65,2.65,0,0,1-.75.31,7.39,7.39,0,0,1-.89.18l-1,.12a3.88,3.88,0,0,0-1.29.36,1.38,1.38,0,0,0-.73,1.31A1.28,1.28,0,0,0,129.91,333.57Z"/><path class="cls-1" d="M144.79,325.58v6.25A2.67,2.67,0,0,0,145,333a1.54,1.54,0,0,0,1.53.84,2.17,2.17,0,0,0,2.19-1.47,6,6,0,0,0,.32-2.17v-4.63h1.58V335h-1.49v-1.39a3.13,3.13,0,0,1-.75.9,3.26,3.26,0,0,1-2.15.74,2.76,2.76,0,0,1-2.69-1.34,4.08,4.08,0,0,1-.39-1.93v-6.4Z"/><path class="cls-1" d="M153.21,325.58h1.57v1.34a5,5,0,0,1,1-1,3,3,0,0,1,1.77-.54,2.78,2.78,0,0,1,1.81.56,2.84,2.84,0,0,1,.71.93,3.29,3.29,0,0,1,1.24-1.12,3.37,3.37,0,0,1,1.6-.37,2.62,2.62,0,0,1,2.58,1.37,4.47,4.47,0,0,1,.37,2V335h-1.64v-6.54a1.52,1.52,0,0,0-.47-1.29,1.86,1.86,0,0,0-1.15-.36,2.24,2.24,0,0,0-1.6.63,2.72,2.72,0,0,0-.68,2.08V335h-1.61v-6.15a3.2,3.2,0,0,0-.22-1.39,1.4,1.4,0,0,0-1.35-.66,2.32,2.32,0,0,0-1.63.69,3.39,3.39,0,0,0-.73,2.51v5h-1.59Z"/><path class="cls-1" d="M173.25,329.3a.85.85,0,0,0,.73-.46,1.38,1.38,0,0,0,.11-.61,1.27,1.27,0,0,0-.58-1.17,3,3,0,0,0-1.64-.37,2.07,2.07,0,0,0-1.75.67,2.19,2.19,0,0,0-.38,1.11h-1.48a2.73,2.73,0,0,1,1.13-2.43,4.57,4.57,0,0,1,2.51-.69,5.14,5.14,0,0,1,2.7.64,2.16,2.16,0,0,1,1,2v5.42a.67.67,0,0,0,.1.39.48.48,0,0,0,.42.15h.24l.28,0V335a4.52,4.52,0,0,1-.56.13,3.6,3.6,0,0,1-.53,0,1.3,1.3,0,0,1-1.18-.58,2.4,2.4,0,0,1-.28-.87,4,4,0,0,1-1.38,1.1,4.33,4.33,0,0,1-2,.46,3,3,0,0,1-2.14-.79,2.65,2.65,0,0,1-.83-2,2.55,2.55,0,0,1,.82-2,3.86,3.86,0,0,1,2.14-.88Zm-3.33,4.27a1.84,1.84,0,0,0,1.19.4,3.58,3.58,0,0,0,1.62-.39,2.17,2.17,0,0,0,1.32-2.1v-1.27a2.92,2.92,0,0,1-.75.31,7.17,7.17,0,0,1-.9.18l-1,.12a3.81,3.81,0,0,0-1.29.36,1.39,1.39,0,0,0-.74,1.31A1.3,1.3,0,0,0,169.92,333.57Z"/><path class="cls-1" d="M183.09,325.63h1.55v1.25a3.77,3.77,0,0,1,1-1,3.34,3.34,0,0,1,1.88-.53,3.53,3.53,0,0,1,2.72,1.23,5,5,0,0,1,1.12,3.5c0,2.05-.53,3.52-1.61,4.4a3.69,3.69,0,0,1-2.38.83,3.22,3.22,0,0,1-1.79-.46,4.11,4.11,0,0,1-1-.91v4.81h-1.58ZM189,333a4.38,4.38,0,0,0,.74-2.77,5.09,5.09,0,0,0-.33-1.93,2.39,2.39,0,0,0-4.51.09,6.4,6.4,0,0,0-.33,2.23,4.64,4.64,0,0,0,.33,1.85,2.23,2.23,0,0,0,2.25,1.46A2.27,2.27,0,0,0,189,333Z"/><path class="cls-1" d="M198.28,329.3a.88.88,0,0,0,.73-.46,1.4,1.4,0,0,0,.1-.61,1.28,1.28,0,0,0-.57-1.17,3,3,0,0,0-1.65-.37,2.07,2.07,0,0,0-1.75.67,2.29,2.29,0,0,0-.38,1.11h-1.48a2.73,2.73,0,0,1,1.13-2.43,4.58,4.58,0,0,1,2.52-.69,5.12,5.12,0,0,1,2.69.64,2.14,2.14,0,0,1,1,2v5.42a.67.67,0,0,0,.1.39.49.49,0,0,0,.43.15h.23l.29,0V335a5,5,0,0,1-.57.13,3.54,3.54,0,0,1-.52,0,1.32,1.32,0,0,1-1.19-.58,2.23,2.23,0,0,1-.27-.87,4.16,4.16,0,0,1-1.39,1.1,4.33,4.33,0,0,1-2,.46,3,3,0,0,1-2.14-.79,2.65,2.65,0,0,1-.83-2,2.55,2.55,0,0,1,.82-2,3.86,3.86,0,0,1,2.14-.88ZM195,333.57a1.79,1.79,0,0,0,1.18.4,3.58,3.58,0,0,0,1.62-.39,2.17,2.17,0,0,0,1.32-2.1v-1.27a2.78,2.78,0,0,1-.75.31,7.39,7.39,0,0,1-.89.18l-1,.12a3.88,3.88,0,0,0-1.29.36,1.39,1.39,0,0,0-.74,1.31A1.28,1.28,0,0,0,195,333.57Zm4-11.78-2.34,2.54h-1.22l1.61-2.54Z"/><path class="cls-1" d="M208.48,326a4.5,4.5,0,0,1,.91.9v-1.19h1.45v8.56a6.33,6.33,0,0,1-.52,2.83,3.77,3.77,0,0,1-3.71,1.92,4.57,4.57,0,0,1-2.55-.68,2.69,2.69,0,0,1-1.15-2.13h1.61a1.73,1.73,0,0,0,.45,1,2.33,2.33,0,0,0,1.68.53,2.3,2.3,0,0,0,2.37-1.29,7.22,7.22,0,0,0,.3-2.69,3.11,3.11,0,0,1-1.13,1.07,3.85,3.85,0,0,1-1.76.35,3.73,3.73,0,0,1-2.67-1.09,4.79,4.79,0,0,1-1.14-3.59,5.45,5.45,0,0,1,1.15-3.69,3.56,3.56,0,0,1,2.78-1.32A3.46,3.46,0,0,1,208.48,326Zm.19,1.7a2.28,2.28,0,0,0-1.83-.85,2.25,2.25,0,0,0-2.27,1.57,6,6,0,0,0-.33,2.19,3.9,3.9,0,0,0,.65,2.42,2.07,2.07,0,0,0,1.72.83,2.41,2.41,0,0,0,2.39-1.54,4.93,4.93,0,0,0,.39-2A3.91,3.91,0,0,0,208.67,327.66Z"/><path class="cls-1" d="M213.25,322.08h1.61v1.8h-1.61Zm0,3.55h1.61V335h-1.61Z"/><path class="cls-1" d="M217.25,325.58h1.5v1.34a4.28,4.28,0,0,1,1.42-1.19,3.78,3.78,0,0,1,1.66-.36,2.75,2.75,0,0,1,2.71,1.4,5,5,0,0,1,.38,2.19v6h-1.6v-5.94a3.25,3.25,0,0,0-.26-1.39,1.55,1.55,0,0,0-1.53-.87,3,3,0,0,0-.92.11,2.44,2.44,0,0,0-1.14.77,2.25,2.25,0,0,0-.52,1,6.38,6.38,0,0,0-.12,1.42V335h-1.58Z"/><path class="cls-1" d="M232.31,329.3a.88.88,0,0,0,.73-.46,1.4,1.4,0,0,0,.1-.61,1.28,1.28,0,0,0-.57-1.17,3,3,0,0,0-1.65-.37,2.07,2.07,0,0,0-1.75.67,2.29,2.29,0,0,0-.38,1.11h-1.47a2.7,2.7,0,0,1,1.12-2.43,4.6,4.6,0,0,1,2.52-.69,5.12,5.12,0,0,1,2.69.64,2.14,2.14,0,0,1,1,2v5.42a.67.67,0,0,0,.1.39.49.49,0,0,0,.43.15h.24l.28,0V335a5,5,0,0,1-.57.13,3.45,3.45,0,0,1-.52,0,1.32,1.32,0,0,1-1.19-.58,2.23,2.23,0,0,1-.27-.87,4.06,4.06,0,0,1-1.39,1.1,4.3,4.3,0,0,1-2,.46,3,3,0,0,1-2.14-.79,2.65,2.65,0,0,1-.83-2,2.58,2.58,0,0,1,.82-2,3.89,3.89,0,0,1,2.15-.88ZM229,333.57a1.81,1.81,0,0,0,1.18.4,3.58,3.58,0,0,0,1.62-.39,2.17,2.17,0,0,0,1.32-2.1v-1.27a2.65,2.65,0,0,1-.75.31,7.39,7.39,0,0,1-.89.18l-1,.12a3.88,3.88,0,0,0-1.29.36,1.38,1.38,0,0,0-.73,1.31A1.28,1.28,0,0,0,229,333.57Z"/><path class="cls-1" d="M243,325.58l1.81,7.42,1.84-7.42h1.77l1.85,7.38,1.92-7.38h1.58L251.05,335h-1.64l-1.92-7.29L245.64,335H244l-2.71-9.42Z"/><path class="cls-1" d="M261.09,325.84a3.57,3.57,0,0,1,1.42,1.22,4,4,0,0,1,.63,1.66,11.2,11.2,0,0,1,.14,2.07h-6.85a4.08,4.08,0,0,0,.68,2.31,2.22,2.22,0,0,0,1.94.87,2.52,2.52,0,0,0,2-.82,2.69,2.69,0,0,0,.58-1.11h1.56a3.31,3.31,0,0,1-.41,1.16,4.1,4.1,0,0,1-.78,1,3.55,3.55,0,0,1-1.77.95,5.45,5.45,0,0,1-1.28.14,3.94,3.94,0,0,1-3-1.28,5,5,0,0,1-1.21-3.58,5.4,5.4,0,0,1,1.22-3.68,4,4,0,0,1,3.2-1.42A4.32,4.32,0,0,1,261.09,325.84Zm.56,3.7a4.12,4.12,0,0,0-.44-1.65,2.28,2.28,0,0,0-2.15-1.14,2.38,2.38,0,0,0-1.82.79,3,3,0,0,0-.77,2Z"/><path class="cls-1" d="M265.15,322h1.54v4.69a3.51,3.51,0,0,1,1.24-1,3.64,3.64,0,0,1,1.57-.35,3.71,3.71,0,0,1,2.87,1.2,5.17,5.17,0,0,1,1.1,3.57,6.13,6.13,0,0,1-1.09,3.71,3.52,3.52,0,0,1-3,1.47,3.11,3.11,0,0,1-1.81-.51,4.54,4.54,0,0,1-.95-1V335h-1.46Zm6.05,10.84a5,5,0,0,0,.64-2.69,4.37,4.37,0,0,0-.64-2.46,2.1,2.1,0,0,0-1.88-1,2.64,2.64,0,0,0-1.9.8,3.55,3.55,0,0,0-.82,2.64,5.66,5.66,0,0,0,.34,2.15,2.3,2.3,0,0,0,2.33,1.56A2.12,2.12,0,0,0,271.2,332.88Z"/><path class="cls-1" d="M89,346.63h1.55v1.25a3.77,3.77,0,0,1,1-1,3.34,3.34,0,0,1,1.88-.53,3.53,3.53,0,0,1,2.72,1.23,5,5,0,0,1,1.12,3.5c0,2.05-.54,3.52-1.61,4.4a3.69,3.69,0,0,1-2.38.83,3.28,3.28,0,0,1-1.8-.46,4.31,4.31,0,0,1-.94-.91v4.81H89ZM95,354a4.38,4.38,0,0,0,.74-2.77,5.09,5.09,0,0,0-.33-1.93,2.39,2.39,0,0,0-4.51.09,6.4,6.4,0,0,0-.33,2.23,4.64,4.64,0,0,0,.33,1.85,2.23,2.23,0,0,0,2.25,1.46A2.27,2.27,0,0,0,95,354Z"/><path class="cls-1" d="M104.22,350.3a.88.88,0,0,0,.73-.46,1.4,1.4,0,0,0,.1-.61,1.28,1.28,0,0,0-.57-1.17,3,3,0,0,0-1.65-.37,2.07,2.07,0,0,0-1.75.67,2.19,2.19,0,0,0-.38,1.11H99.22a2.73,2.73,0,0,1,1.13-2.43,4.58,4.58,0,0,1,2.52-.69,5.12,5.12,0,0,1,2.69.64,2.14,2.14,0,0,1,1,2v5.42a.67.67,0,0,0,.1.39.49.49,0,0,0,.43.15h.23l.28,0V356a4.52,4.52,0,0,1-.56.13,3.54,3.54,0,0,1-.52,0,1.31,1.31,0,0,1-1.19-.58,2.23,2.23,0,0,1-.27-.87,4.16,4.16,0,0,1-1.39,1.1,4.33,4.33,0,0,1-2,.46,3,3,0,0,1-2.14-.79,2.65,2.65,0,0,1-.83-2,2.55,2.55,0,0,1,.82-2,3.86,3.86,0,0,1,2.14-.88Zm-3.34,4.27a1.84,1.84,0,0,0,1.19.4,3.58,3.58,0,0,0,1.62-.39,2.17,2.17,0,0,0,1.32-2.1v-1.27a2.78,2.78,0,0,1-.75.31,7.39,7.39,0,0,1-.89.18l-1,.12a3.88,3.88,0,0,0-1.29.36,1.39,1.39,0,0,0-.74,1.31A1.3,1.3,0,0,0,100.88,354.57Z"/><path class="cls-1" d="M109.23,346.58h1.5v1.63a3.55,3.55,0,0,1,.9-1.16,2.38,2.38,0,0,1,1.67-.68h.14l.36,0v1.67l-.25,0h-.26a2.27,2.27,0,0,0-1.84.77,2.66,2.66,0,0,0-.64,1.77V356h-1.58Z"/><path class="cls-1" d="M120.22,350.3a.86.86,0,0,0,.73-.46,1.38,1.38,0,0,0,.11-.61,1.29,1.29,0,0,0-.58-1.17,3,3,0,0,0-1.64-.37,2.09,2.09,0,0,0-1.76.67,2.2,2.2,0,0,0-.37,1.11h-1.48a2.7,2.7,0,0,1,1.13-2.43,4.57,4.57,0,0,1,2.51-.69,5.14,5.14,0,0,1,2.7.64,2.15,2.15,0,0,1,1,2v5.42a.67.67,0,0,0,.11.39q.09.15.42.15h.24l.28,0V356a5,5,0,0,1-.56.13,3.7,3.7,0,0,1-.53,0,1.32,1.32,0,0,1-1.19-.58,2.23,2.23,0,0,1-.27-.87,4,4,0,0,1-1.39,1.1,4.29,4.29,0,0,1-2,.46,3,3,0,0,1-2.14-.79,2.61,2.61,0,0,1-.83-2,2.58,2.58,0,0,1,.81-2,3.89,3.89,0,0,1,2.15-.88Zm-3.33,4.27a1.82,1.82,0,0,0,1.19.4,3.57,3.57,0,0,0,1.61-.39,2.17,2.17,0,0,0,1.32-2.1v-1.27a2.7,2.7,0,0,1-.74.31,8,8,0,0,1-.9.18l-1,.12a3.88,3.88,0,0,0-1.3.36,1.38,1.38,0,0,0-.73,1.31A1.3,1.3,0,0,0,116.89,354.57Z"/><path class="cls-1" d="M137,347.52a4.77,4.77,0,0,1,1.25,3.57,6.18,6.18,0,0,1-1.1,3.76,4,4,0,0,1-3.42,1.48,3.86,3.86,0,0,1-3.06-1.31,5.2,5.2,0,0,1-1.13-3.53,5.63,5.63,0,0,1,1.19-3.78,4,4,0,0,1,3.21-1.4A4.21,4.21,0,0,1,137,347.52Zm-1,6.26a6.06,6.06,0,0,0,.57-2.65,4.86,4.86,0,0,0-.41-2.14,2.34,2.34,0,0,0-2.28-1.3,2.25,2.25,0,0,0-2.09,1.11,5.16,5.16,0,0,0-.65,2.66,4.54,4.54,0,0,0,.65,2.51,2.32,2.32,0,0,0,2.07,1A2.17,2.17,0,0,0,136,353.78Z"/><path class="cls-1" d="M146.14,353a2.35,2.35,0,0,0,.4,1.22,2.58,2.58,0,0,0,2.12.76,3.24,3.24,0,0,0,1.58-.38,1.28,1.28,0,0,0,.68-1.18,1,1,0,0,0-.54-.93,6.58,6.58,0,0,0-1.38-.45l-1.28-.31a6.26,6.26,0,0,1-1.8-.67,2,2,0,0,1-1-1.77,2.7,2.7,0,0,1,1-2.17,3.92,3.92,0,0,1,2.62-.82,3.67,3.67,0,0,1,3.11,1.24,2.7,2.7,0,0,1,.58,1.71h-1.5a1.75,1.75,0,0,0-.38-1,2.53,2.53,0,0,0-1.94-.62A2.36,2.36,0,0,0,147,348a1.08,1.08,0,0,0-.47.9,1.1,1.1,0,0,0,.62,1,3.59,3.59,0,0,0,1.06.39l1.06.25a8.71,8.71,0,0,1,2.33.8,2.12,2.12,0,0,1,.93,1.91,2.9,2.9,0,0,1-1,2.17,4.13,4.13,0,0,1-2.94.92,4,4,0,0,1-3-1,3.56,3.56,0,0,1-.95-2.36Z"/><path class="cls-1" d="M160,346.84a3.61,3.61,0,0,1,1.43,1.22,4.35,4.35,0,0,1,.63,1.66,11.2,11.2,0,0,1,.14,2.07h-6.85a4.08,4.08,0,0,0,.67,2.31A2.25,2.25,0,0,0,158,355a2.52,2.52,0,0,0,2-.82,3,3,0,0,0,.58-1.11h1.55a3.27,3.27,0,0,1-.4,1.16,4.35,4.35,0,0,1-.78,1,3.64,3.64,0,0,1-1.77.95,5.58,5.58,0,0,1-1.28.14,3.93,3.93,0,0,1-3-1.28,5,5,0,0,1-1.22-3.58,5.4,5.4,0,0,1,1.23-3.68,4,4,0,0,1,3.19-1.42A4.26,4.26,0,0,1,160,346.84Zm.57,3.7a4.12,4.12,0,0,0-.44-1.65,2.28,2.28,0,0,0-2.16-1.14,2.36,2.36,0,0,0-1.81.79,3,3,0,0,0-.78,2Z"/><path class="cls-1" d="M165.79,346.58v6.25A2.82,2.82,0,0,0,166,354a1.56,1.56,0,0,0,1.54.84,2.17,2.17,0,0,0,2.19-1.47,6,6,0,0,0,.31-2.17v-4.63h1.59V356h-1.5l0-1.39a3.13,3.13,0,0,1-.75.9,3.27,3.27,0,0,1-2.16.74,2.78,2.78,0,0,1-2.69-1.34,4.08,4.08,0,0,1-.39-1.93v-6.4Z"/><path class="cls-1" d="M185,346.84a3.64,3.64,0,0,1,1.42,1.22,4.35,4.35,0,0,1,.63,1.66,11.2,11.2,0,0,1,.14,2.07h-6.85a4.08,4.08,0,0,0,.67,2.31A2.25,2.25,0,0,0,183,355a2.52,2.52,0,0,0,2-.82,2.81,2.81,0,0,0,.58-1.11h1.56a3.31,3.31,0,0,1-.41,1.16,4.1,4.1,0,0,1-.78,1,3.55,3.55,0,0,1-1.77.95,5.51,5.51,0,0,1-1.28.14,3.94,3.94,0,0,1-3-1.28,5,5,0,0,1-1.21-3.58,5.4,5.4,0,0,1,1.22-3.68,4,4,0,0,1,3.2-1.42A4.32,4.32,0,0,1,185,346.84Zm.56,3.7a4.12,4.12,0,0,0-.44-1.65,2.28,2.28,0,0,0-2.16-1.14,2.37,2.37,0,0,0-1.81.79,3,3,0,0,0-.77,2Z"/><path class="cls-1" d="M189.23,346.58h1.51v1.34a4.15,4.15,0,0,1,1.41-1.19,3.78,3.78,0,0,1,1.66-.36,2.75,2.75,0,0,1,2.71,1.4,4.93,4.93,0,0,1,.39,2.19v6H195.3v-5.94a3.25,3.25,0,0,0-.26-1.39,1.55,1.55,0,0,0-1.53-.87,3,3,0,0,0-.92.11,2.44,2.44,0,0,0-1.14.77,2.25,2.25,0,0,0-.52,1,6.38,6.38,0,0,0-.12,1.42V356h-1.58Z"/><path class="cls-1" d="M205.46,347.08a3.69,3.69,0,0,1,1.2,2.67h-1.54a2.76,2.76,0,0,0-.64-1.45,2,2,0,0,0-1.61-.57,2.22,2.22,0,0,0-2.16,1.47,5.86,5.86,0,0,0-.42,2.36,4.43,4.43,0,0,0,.6,2.38,2.06,2.06,0,0,0,1.88,1,2.08,2.08,0,0,0,1.56-.6,3.28,3.28,0,0,0,.79-1.64h1.54a3.73,3.73,0,0,1-4,3.6,3.59,3.59,0,0,1-2.94-1.35,5.17,5.17,0,0,1-1.1-3.37,5.65,5.65,0,0,1,1.21-3.86,3.88,3.88,0,0,1,3.06-1.38A4.13,4.13,0,0,1,205.46,347.08Z"/><path class="cls-1" d="M215.06,347.52a4.73,4.73,0,0,1,1.25,3.57,6.12,6.12,0,0,1-1.1,3.76,4,4,0,0,1-3.41,1.48,3.83,3.83,0,0,1-3.06-1.31,5.2,5.2,0,0,1-1.14-3.53,5.64,5.64,0,0,1,1.2-3.78,4,4,0,0,1,3.21-1.4A4.2,4.2,0,0,1,215.06,347.52Zm-1,6.26a5.92,5.92,0,0,0,.58-2.65,4.71,4.71,0,0,0-.42-2.14,2.34,2.34,0,0,0-2.28-1.3,2.23,2.23,0,0,0-2.08,1.11,5.07,5.07,0,0,0-.65,2.66,4.46,4.46,0,0,0,.65,2.51,2.29,2.29,0,0,0,2.07,1A2.15,2.15,0,0,0,214.08,353.78Z"/><path class="cls-1" d="M218.25,346.58h1.51v1.34a4.15,4.15,0,0,1,1.41-1.19,3.78,3.78,0,0,1,1.66-.36,2.75,2.75,0,0,1,2.71,1.4,4.93,4.93,0,0,1,.39,2.19v6h-1.61v-5.94a3.25,3.25,0,0,0-.26-1.39,1.55,1.55,0,0,0-1.53-.87,3,3,0,0,0-.92.11,2.44,2.44,0,0,0-1.14.77,2.23,2.23,0,0,0-.51,1,6.38,6.38,0,0,0-.12,1.42V356h-1.59Z"/><path class="cls-1" d="M228.58,344h1.6v2.62h1.5v1.3h-1.5V354a.67.67,0,0,0,.33.66,1.55,1.55,0,0,0,.62.09h.25l.3,0V356a3.47,3.47,0,0,1-.56.11,6.28,6.28,0,0,1-.64,0,1.7,1.7,0,0,1-1.5-.57,2.48,2.48,0,0,1-.4-1.47v-6.23h-1.27v-1.3h1.27Z"/><path class="cls-1" d="M233.31,346.58h1.5v1.63a3.77,3.77,0,0,1,.91-1.16,2.35,2.35,0,0,1,1.66-.68h.15l.36,0v1.67l-.26,0h-.26a2.27,2.27,0,0,0-1.84.77,2.71,2.71,0,0,0-.64,1.77V356h-1.58Z"/><path class="cls-1" d="M246.08,347.52a4.77,4.77,0,0,1,1.25,3.57,6.18,6.18,0,0,1-1.1,3.76,4,4,0,0,1-3.41,1.48,3.87,3.87,0,0,1-3.07-1.31,5.25,5.25,0,0,1-1.13-3.53,5.69,5.69,0,0,1,1.19-3.78,4,4,0,0,1,3.22-1.4A4.2,4.2,0,0,1,246.08,347.52Zm-1,6.26a6.06,6.06,0,0,0,.58-2.65,4.71,4.71,0,0,0-.42-2.14,2.34,2.34,0,0,0-2.28-1.3,2.23,2.23,0,0,0-2.08,1.11,5.07,5.07,0,0,0-.66,2.66,4.46,4.46,0,0,0,.66,2.51,2.29,2.29,0,0,0,2.06,1A2.17,2.17,0,0,0,245.1,353.78Z"/><path class="cls-1" d="M89.37,162.68h1.75v11.37H97.6v1.54H89.37Z"/><path class="cls-1" d="M99.17,162.68h1.61v1.79H99.17Zm0,3.54h1.61v9.37H99.17Z"/><path class="cls-1" d="M104.11,172.64a2.31,2.31,0,0,0,.4,1.21,2.58,2.58,0,0,0,2.12.76,3.13,3.13,0,0,0,1.58-.38,1.27,1.27,0,0,0,.68-1.18,1,1,0,0,0-.54-.92,6.58,6.58,0,0,0-1.38-.45l-1.28-.32a6.26,6.26,0,0,1-1.8-.67,2,2,0,0,1-1-1.77,2.7,2.7,0,0,1,1-2.16,3.92,3.92,0,0,1,2.62-.83,3.68,3.68,0,0,1,3.11,1.25,2.67,2.67,0,0,1,.58,1.7h-1.49a1.82,1.82,0,0,0-.39-1,2.53,2.53,0,0,0-1.94-.62,2.43,2.43,0,0,0-1.39.34,1.08,1.08,0,0,0-.47.91,1.12,1.12,0,0,0,.62,1,3.94,3.94,0,0,0,1.06.38l1.07.26a8.06,8.06,0,0,1,2.32.8,2.11,2.11,0,0,1,.93,1.91,2.92,2.92,0,0,1-1,2.17,4.13,4.13,0,0,1-2.94.91,4,4,0,0,1-3-.95,3.6,3.6,0,0,1-1-2.36Z"/><path class="cls-1" d="M112.49,163.55h1.6v2.63h1.5v1.29h-1.5v6.14a.67.67,0,0,0,.33.66,1.34,1.34,0,0,0,.62.1h.24l.31,0v1.26a3.38,3.38,0,0,1-.57.11,4.22,4.22,0,0,1-.64,0,1.72,1.72,0,0,1-1.5-.57,2.55,2.55,0,0,1-.39-1.47v-6.23h-1.28v-1.29h1.28Z"/><path class="cls-1" d="M122.22,169.89a.87.87,0,0,0,.73-.45,1.43,1.43,0,0,0,.1-.61,1.31,1.31,0,0,0-.57-1.18,3.13,3.13,0,0,0-1.65-.37,2.07,2.07,0,0,0-1.75.68,2.12,2.12,0,0,0-.38,1.1h-1.48a2.75,2.75,0,0,1,1.13-2.43,4.66,4.66,0,0,1,2.52-.68,5.13,5.13,0,0,1,2.69.63,2.14,2.14,0,0,1,1,2V174a.68.68,0,0,0,.1.4.49.49,0,0,0,.43.15l.23,0,.28,0v1.16a5,5,0,0,1-.56.14l-.52,0a1.29,1.29,0,0,1-1.19-.58,2.12,2.12,0,0,1-.27-.87,4.16,4.16,0,0,1-1.39,1.1,4.33,4.33,0,0,1-2,.47,3,3,0,0,1-2.14-.8,2.65,2.65,0,0,1-.83-2,2.53,2.53,0,0,1,.82-2,3.87,3.87,0,0,1,2.14-.89Zm-3.34,4.28a1.89,1.89,0,0,0,1.19.39,3.7,3.7,0,0,0,1.62-.38,2.18,2.18,0,0,0,1.32-2.1v-1.27a2.79,2.79,0,0,1-.75.3,4.85,4.85,0,0,1-.89.18l-1,.12a3.88,3.88,0,0,0-1.29.36,1.42,1.42,0,0,0-.74,1.32A1.33,1.33,0,0,0,118.88,174.17Z"/><path class="cls-1" d="M137.35,166.47a4.17,4.17,0,0,1,1,.92v-4.75h1.52v13h-1.42v-1.31a3.48,3.48,0,0,1-1.31,1.26,3.69,3.69,0,0,1-1.72.38,3.5,3.5,0,0,1-2.72-1.32,5.2,5.2,0,0,1-1.15-3.52,6.06,6.06,0,0,1,1.05-3.56,3.41,3.41,0,0,1,3-1.51A3.25,3.25,0,0,1,137.35,166.47Zm-3.53,7.05a2.24,2.24,0,0,0,2.05,1,2.15,2.15,0,0,0,1.8-.94,4.47,4.47,0,0,0,.7-2.71,4,4,0,0,0-.73-2.64,2.26,2.26,0,0,0-1.79-.86,2.37,2.37,0,0,0-1.93.91,4.23,4.23,0,0,0-.74,2.69A4.7,4.7,0,0,0,133.82,173.52Z"/><path class="cls-1" d="M148,166.44a3.55,3.55,0,0,1,1.42,1.21,4.1,4.1,0,0,1,.63,1.66,11.32,11.32,0,0,1,.14,2.08h-6.85a4,4,0,0,0,.68,2.3,2.22,2.22,0,0,0,1.94.87,2.49,2.49,0,0,0,2-.82,2.65,2.65,0,0,0,.58-1.1h1.56a3.27,3.27,0,0,1-.41,1.15,3.93,3.93,0,0,1-.78,1,3.55,3.55,0,0,1-1.77.95,5,5,0,0,1-1.28.14,3.93,3.93,0,0,1-3-1.27,5,5,0,0,1-1.21-3.59,5.4,5.4,0,0,1,1.22-3.68,4,4,0,0,1,3.2-1.41A4.19,4.19,0,0,1,148,166.44Zm.56,3.69a4.11,4.11,0,0,0-.44-1.64,2.28,2.28,0,0,0-2.15-1.14,2.41,2.41,0,0,0-1.82.78,3,3,0,0,0-.77,2Z"/><path class="cls-1" d="M157.07,166.22h1.55v1.25a3.72,3.72,0,0,1,1-1,3.28,3.28,0,0,1,1.89-.53,3.57,3.57,0,0,1,2.72,1.22,5.07,5.07,0,0,1,1.12,3.51q0,3.07-1.62,4.39a3.62,3.62,0,0,1-2.38.84,3.24,3.24,0,0,1-1.79-.47,4,4,0,0,1-.94-.9v4.8h-1.59Zm6,7.38a4.4,4.4,0,0,0,.73-2.77,5.36,5.36,0,0,0-.32-1.94,2.4,2.4,0,0,0-4.52.09,6.44,6.44,0,0,0-.33,2.23,4.69,4.69,0,0,0,.33,1.86,2.25,2.25,0,0,0,2.26,1.46A2.28,2.28,0,0,0,163,173.6Z"/><path class="cls-1" d="M167.26,166.18h1.5v1.62a3.75,3.75,0,0,1,.91-1.15,2.31,2.31,0,0,1,1.66-.68h.15l.36,0v1.67l-.26,0h-.26a2.24,2.24,0,0,0-1.84.77,2.71,2.71,0,0,0-.64,1.77v5.41h-1.58Z"/><path class="cls-1" d="M179,166.44a3.59,3.59,0,0,1,1.43,1.21,4.42,4.42,0,0,1,.63,1.66,11.32,11.32,0,0,1,.14,2.08h-6.85a4,4,0,0,0,.67,2.3,2.25,2.25,0,0,0,2,.87,2.49,2.49,0,0,0,2-.82,2.77,2.77,0,0,0,.58-1.1h1.56a3.49,3.49,0,0,1-.41,1.15,4.15,4.15,0,0,1-.78,1,3.59,3.59,0,0,1-1.77.95,5,5,0,0,1-1.28.14,3.92,3.92,0,0,1-3-1.27,5,5,0,0,1-1.22-3.59,5.4,5.4,0,0,1,1.23-3.68,4,4,0,0,1,3.19-1.41A4.14,4.14,0,0,1,179,166.44Zm.57,3.69a4.11,4.11,0,0,0-.44-1.64,2.28,2.28,0,0,0-2.16-1.14,2.38,2.38,0,0,0-1.81.78,2.94,2.94,0,0,0-.77,2Z"/><path class="cls-1" d="M184.16,172.64a2.31,2.31,0,0,0,.4,1.21,2.58,2.58,0,0,0,2.12.76,3.11,3.11,0,0,0,1.58-.38,1.27,1.27,0,0,0,.68-1.18,1,1,0,0,0-.54-.92,6.37,6.37,0,0,0-1.38-.45l-1.27-.32a6.23,6.23,0,0,1-1.81-.67,2,2,0,0,1-1-1.77,2.7,2.7,0,0,1,1-2.16,3.92,3.92,0,0,1,2.62-.83,3.66,3.66,0,0,1,3.11,1.25,2.67,2.67,0,0,1,.58,1.7H188.7a1.82,1.82,0,0,0-.39-1,2.52,2.52,0,0,0-1.93-.62,2.39,2.39,0,0,0-1.39.34,1.07,1.07,0,0,0-.48.91,1.12,1.12,0,0,0,.62,1,3.94,3.94,0,0,0,1.06.38l1.07.26a8.06,8.06,0,0,1,2.32.8,2.11,2.11,0,0,1,.93,1.91,2.92,2.92,0,0,1-1,2.17,4.13,4.13,0,0,1-2.94.91,4,4,0,0,1-3-.95,3.6,3.6,0,0,1-1-2.36Z"/><path class="cls-1" d="M198,166.44a3.62,3.62,0,0,1,1.42,1.21,4.42,4.42,0,0,1,.63,1.66,11.32,11.32,0,0,1,.14,2.08h-6.85a4,4,0,0,0,.67,2.3,2.25,2.25,0,0,0,1.95.87,2.49,2.49,0,0,0,2-.82,2.77,2.77,0,0,0,.58-1.1h1.56a3.49,3.49,0,0,1-.41,1.15,3.93,3.93,0,0,1-.78,1,3.55,3.55,0,0,1-1.77.95,5,5,0,0,1-1.28.14,3.93,3.93,0,0,1-3-1.27,5,5,0,0,1-1.22-3.59,5.4,5.4,0,0,1,1.23-3.68A4,4,0,0,1,196.1,166,4.2,4.2,0,0,1,198,166.44Zm.56,3.69a4.11,4.11,0,0,0-.44-1.64,2.28,2.28,0,0,0-2.16-1.14,2.38,2.38,0,0,0-1.81.78,3,3,0,0,0-.77,2Z"/><path class="cls-1" d="M202.23,166.18h1.5v1.33a4.24,4.24,0,0,1,1.42-1.18,3.78,3.78,0,0,1,1.66-.36,2.74,2.74,0,0,1,2.71,1.39,5,5,0,0,1,.38,2.19v6h-1.6v-5.93a3.19,3.19,0,0,0-.26-1.39,1.54,1.54,0,0,0-1.53-.88,3.35,3.35,0,0,0-.92.11,2.35,2.35,0,0,0-1.14.78,2.28,2.28,0,0,0-.52,1,6.38,6.38,0,0,0-.12,1.42v4.93h-1.58Z"/><path class="cls-1" d="M212.56,163.55h1.6v2.63h1.5v1.29h-1.5v6.14a.67.67,0,0,0,.33.66,1.37,1.37,0,0,0,.62.1h.24l.31,0v1.26a3.38,3.38,0,0,1-.57.11,4.09,4.09,0,0,1-.63,0,1.73,1.73,0,0,1-1.51-.57,2.55,2.55,0,0,1-.39-1.47v-6.23h-1.28v-1.29h1.28Z"/><path class="cls-1" d="M223.06,166.44a3.55,3.55,0,0,1,1.42,1.21,4.25,4.25,0,0,1,.63,1.66,11.32,11.32,0,0,1,.14,2.08H218.4a4,4,0,0,0,.68,2.3,2.22,2.22,0,0,0,1.94.87,2.49,2.49,0,0,0,2-.82,2.77,2.77,0,0,0,.58-1.1h1.56a3.27,3.27,0,0,1-.41,1.15,3.93,3.93,0,0,1-.78,1,3.55,3.55,0,0,1-1.77.95,5,5,0,0,1-1.28.14,3.93,3.93,0,0,1-3-1.27,5,5,0,0,1-1.21-3.59,5.4,5.4,0,0,1,1.22-3.68,4,4,0,0,1,3.2-1.41A4.19,4.19,0,0,1,223.06,166.44Zm.56,3.69a4.11,4.11,0,0,0-.44-1.64,2.28,2.28,0,0,0-2.15-1.14,2.41,2.41,0,0,0-1.82.78,3,3,0,0,0-.77,2Z"/><path class="cls-1" d="M228.19,172.64a2.31,2.31,0,0,0,.41,1.21,2.54,2.54,0,0,0,2.11.76,3.11,3.11,0,0,0,1.58-.38,1.26,1.26,0,0,0,.69-1.18,1,1,0,0,0-.55-.92,6.37,6.37,0,0,0-1.38-.45l-1.27-.32a6.23,6.23,0,0,1-1.81-.67,2,2,0,0,1-1-1.77,2.69,2.69,0,0,1,1-2.16,4,4,0,0,1,2.63-.83,3.66,3.66,0,0,1,3.1,1.25,2.62,2.62,0,0,1,.58,1.7h-1.49a1.82,1.82,0,0,0-.39-1,2.51,2.51,0,0,0-1.93-.62,2.41,2.41,0,0,0-1.39.34,1.06,1.06,0,0,0-.47.91,1.1,1.1,0,0,0,.62,1,4,4,0,0,0,1.05.38l1.07.26a8.16,8.16,0,0,1,2.33.8,2.12,2.12,0,0,1,.92,1.91,2.88,2.88,0,0,1-1,2.17,4.13,4.13,0,0,1-2.94.91,4,4,0,0,1-3-.95,3.6,3.6,0,0,1-1-2.36Z"/><path class="cls-1" d="M237.09,166.3h1.84v1.92h-1.84Zm0,7.37h1.84v1.92h-1.84Z"/><path class="cls-1" d="M89.58,183.68h5.87a5.71,5.71,0,0,1,2.39.43,3.06,3.06,0,0,1,1.79,3,3.16,3.16,0,0,1-1.82,3.08,2.78,2.78,0,0,1,1.14.81,3,3,0,0,1,.42,1.63l.06,1.73a5.05,5.05,0,0,0,.13,1.1,1.07,1.07,0,0,0,.56.79v.29H98a1.36,1.36,0,0,1-.14-.43,6.89,6.89,0,0,1-.09-1L97.64,193a1.82,1.82,0,0,0-.91-1.7,3.68,3.68,0,0,0-1.53-.24H91.33v5.54H89.58Zm5.68,5.91a3.24,3.24,0,0,0,1.9-.49,2,2,0,0,0,.69-1.77,1.91,1.91,0,0,0-1-1.88,3,3,0,0,0-1.39-.27H91.33v4.41Z"/><path class="cls-1" d="M108,187.44a3.59,3.59,0,0,1,1.43,1.21,4.42,4.42,0,0,1,.63,1.66,11.32,11.32,0,0,1,.14,2.08h-6.85a4,4,0,0,0,.67,2.3,2.25,2.25,0,0,0,2,.87,2.5,2.5,0,0,0,2-.82,2.91,2.91,0,0,0,.58-1.1H110a3.23,3.23,0,0,1-.4,1.15,4.15,4.15,0,0,1-.78,1,3.64,3.64,0,0,1-1.77.95,5.07,5.07,0,0,1-1.28.14,3.92,3.92,0,0,1-3-1.27,5,5,0,0,1-1.22-3.59,5.4,5.4,0,0,1,1.23-3.68A4,4,0,0,1,106,187,4.14,4.14,0,0,1,108,187.44Zm.57,3.69a4.11,4.11,0,0,0-.44-1.64,2.28,2.28,0,0,0-2.16-1.14,2.38,2.38,0,0,0-1.81.78,3,3,0,0,0-.78,2Z"/><path class="cls-1" d="M118.39,187.68a3.73,3.73,0,0,1,1.2,2.66h-1.54a2.81,2.81,0,0,0-.64-1.44,2,2,0,0,0-1.61-.58,2.21,2.21,0,0,0-2.16,1.47,5.91,5.91,0,0,0-.42,2.37,4.54,4.54,0,0,0,.59,2.38,2.32,2.32,0,0,0,3.44.36,3.29,3.29,0,0,0,.8-1.64h1.54a3.71,3.71,0,0,1-4,3.6,3.59,3.59,0,0,1-2.94-1.35,5.12,5.12,0,0,1-1.1-3.37,5.7,5.7,0,0,1,1.2-3.86,3.91,3.91,0,0,1,3.07-1.38A4.1,4.1,0,0,1,118.39,187.68Z"/><path class="cls-1" d="M127,187.44a3.59,3.59,0,0,1,1.43,1.21,4.42,4.42,0,0,1,.63,1.66,11.32,11.32,0,0,1,.14,2.08h-6.85a4,4,0,0,0,.67,2.3,2.25,2.25,0,0,0,2,.87,2.49,2.49,0,0,0,2-.82,2.77,2.77,0,0,0,.58-1.1h1.56a3.49,3.49,0,0,1-.41,1.15,4.15,4.15,0,0,1-.78,1,3.59,3.59,0,0,1-1.77.95,5,5,0,0,1-1.28.14,3.92,3.92,0,0,1-3-1.27,5,5,0,0,1-1.22-3.59,5.4,5.4,0,0,1,1.23-3.68,4,4,0,0,1,3.19-1.41A4.14,4.14,0,0,1,127,187.44Zm.57,3.69a4.11,4.11,0,0,0-.44-1.64,2.28,2.28,0,0,0-2.16-1.14,2.38,2.38,0,0,0-1.81.78,2.94,2.94,0,0,0-.77,2Z"/><path class="cls-1" d="M131.05,183.64h1.54v4.68a3.4,3.4,0,0,1,1.24-1,3.48,3.48,0,0,1,1.57-.36,3.66,3.66,0,0,1,2.86,1.21,5.1,5.1,0,0,1,1.1,3.56,6.11,6.11,0,0,1-1.08,3.71,3.53,3.53,0,0,1-3,1.48,3.08,3.08,0,0,1-1.82-.52,4.23,4.23,0,0,1-.94-1v1.2h-1.46Zm6,10.83a5,5,0,0,0,.64-2.69,4.45,4.45,0,0,0-.64-2.46,2.12,2.12,0,0,0-1.89-1,2.62,2.62,0,0,0-1.9.8,3.58,3.58,0,0,0-.81,2.63,5.91,5.91,0,0,0,.33,2.16,2.33,2.33,0,0,0,2.34,1.55A2.13,2.13,0,0,0,137.1,194.47Z"/><path class="cls-1" d="M146.24,190.89a.87.87,0,0,0,.73-.45,1.43,1.43,0,0,0,.1-.61,1.31,1.31,0,0,0-.57-1.18,3.13,3.13,0,0,0-1.65-.37,2.07,2.07,0,0,0-1.75.68,2.21,2.21,0,0,0-.38,1.1h-1.48a2.75,2.75,0,0,1,1.13-2.43,4.66,4.66,0,0,1,2.52-.68,5.13,5.13,0,0,1,2.69.63,2.14,2.14,0,0,1,1,2V195a.68.68,0,0,0,.1.4.49.49,0,0,0,.43.15l.23,0,.29,0v1.16a5.61,5.61,0,0,1-.57.14l-.52,0a1.3,1.3,0,0,1-1.19-.58,2.12,2.12,0,0,1-.27-.87,4.16,4.16,0,0,1-1.39,1.1,4.33,4.33,0,0,1-2,.47,3,3,0,0,1-2.14-.8,2.65,2.65,0,0,1-.83-2,2.53,2.53,0,0,1,.82-2,3.87,3.87,0,0,1,2.14-.89Zm-3.33,4.28a1.84,1.84,0,0,0,1.18.39,3.7,3.7,0,0,0,1.62-.38,2.18,2.18,0,0,0,1.32-2.1v-1.27a2.79,2.79,0,0,1-.75.3,4.85,4.85,0,0,1-.89.18l-1,.12a3.88,3.88,0,0,0-1.29.36,1.42,1.42,0,0,0-.74,1.32A1.31,1.31,0,0,0,142.91,195.17Z"/><path class="cls-1" d="M157,187.18l2.51,7.66,2.62-7.66h1.74l-3.55,9.41h-1.68l-3.48-9.41Z"/><path class="cls-1" d="M170.25,190.89a.87.87,0,0,0,.73-.45,1.43,1.43,0,0,0,.1-.61,1.31,1.31,0,0,0-.57-1.18,3.1,3.1,0,0,0-1.65-.37,2.07,2.07,0,0,0-1.75.68,2.21,2.21,0,0,0-.38,1.1h-1.47a2.75,2.75,0,0,1,1.12-2.43,4.71,4.71,0,0,1,2.52-.68,5.13,5.13,0,0,1,2.69.63,2.14,2.14,0,0,1,1,2V195a.68.68,0,0,0,.1.4.49.49,0,0,0,.43.15l.24,0,.28,0v1.16a5.61,5.61,0,0,1-.57.14l-.52,0a1.3,1.3,0,0,1-1.19-.58,2.12,2.12,0,0,1-.27-.87,4.06,4.06,0,0,1-1.39,1.1,4.3,4.3,0,0,1-2,.47,3,3,0,0,1-2.14-.8,2.65,2.65,0,0,1-.83-2,2.56,2.56,0,0,1,.82-2,3.9,3.9,0,0,1,2.15-.89Zm-3.33,4.28a1.86,1.86,0,0,0,1.18.39,3.7,3.7,0,0,0,1.62-.38,2.18,2.18,0,0,0,1.32-2.1v-1.27a2.66,2.66,0,0,1-.75.3,4.85,4.85,0,0,1-.89.18l-1,.12a3.88,3.88,0,0,0-1.29.36,1.41,1.41,0,0,0-.73,1.32A1.3,1.3,0,0,0,166.92,195.17Z"/><path class="cls-1" d="M175.26,183.68h1.58v12.91h-1.58Z"/><path class="cls-1" d="M186,188.12a4.69,4.69,0,0,1,1.25,3.56,6.1,6.1,0,0,1-1.1,3.76,4,4,0,0,1-3.41,1.48,3.8,3.8,0,0,1-3.06-1.31,5.17,5.17,0,0,1-1.14-3.52,5.64,5.64,0,0,1,1.2-3.78A4,4,0,0,1,183,186.9,4.21,4.21,0,0,1,186,188.12Zm-1,6.25a5.88,5.88,0,0,0,.58-2.64,4.76,4.76,0,0,0-.42-2.15,2.35,2.35,0,0,0-2.28-1.3,2.23,2.23,0,0,0-2.08,1.11,5.13,5.13,0,0,0-.65,2.67,4.45,4.45,0,0,0,.65,2.5,2.27,2.27,0,0,0,2.07,1A2.14,2.14,0,0,0,185.05,194.37Z"/><path class="cls-1" d="M189.27,187.18h1.5v1.62a3.6,3.6,0,0,1,.91-1.15,2.31,2.31,0,0,1,1.66-.68h.15l.36,0v1.67l-.26,0h-.26a2.24,2.24,0,0,0-1.84.77,2.66,2.66,0,0,0-.64,1.77v5.41h-1.58Z"/><path class="cls-1" d="M201,187.44a3.59,3.59,0,0,1,1.43,1.21,4.42,4.42,0,0,1,.63,1.66,11.54,11.54,0,0,1,.13,2.08h-6.84a4,4,0,0,0,.67,2.3,2.24,2.24,0,0,0,1.94.87,2.51,2.51,0,0,0,2-.82,2.91,2.91,0,0,0,.58-1.1h1.55a3.08,3.08,0,0,1-.41,1.15,4.13,4.13,0,0,1-.77,1,3.64,3.64,0,0,1-1.77.95,5.07,5.07,0,0,1-1.28.14,3.92,3.92,0,0,1-3-1.27,5,5,0,0,1-1.22-3.59,5.45,5.45,0,0,1,1.22-3.68,4.05,4.05,0,0,1,3.2-1.41A4.14,4.14,0,0,1,201,187.44Zm.57,3.69a4.1,4.1,0,0,0-.45-1.64,2.27,2.27,0,0,0-2.15-1.14,2.38,2.38,0,0,0-1.81.78,3,3,0,0,0-.78,2Z"/><path class="cls-1" d="M206.17,193.64a2.31,2.31,0,0,0,.4,1.21,2.57,2.57,0,0,0,2.12.76,3.13,3.13,0,0,0,1.58-.38,1.27,1.27,0,0,0,.68-1.18,1,1,0,0,0-.54-.92,6.81,6.81,0,0,0-1.38-.45l-1.28-.32a6.26,6.26,0,0,1-1.8-.67,2,2,0,0,1-1-1.77,2.7,2.7,0,0,1,1-2.16,3.92,3.92,0,0,1,2.62-.83,3.68,3.68,0,0,1,3.11,1.25,2.67,2.67,0,0,1,.58,1.7h-1.5a1.81,1.81,0,0,0-.38-1,2.53,2.53,0,0,0-1.94-.62,2.43,2.43,0,0,0-1.39.34,1.08,1.08,0,0,0-.47.91,1.12,1.12,0,0,0,.62,1,3.94,3.94,0,0,0,1.06.38l1.06.26a8,8,0,0,1,2.33.8,2.1,2.1,0,0,1,.92,1.91,2.91,2.91,0,0,1-1,2.17,4.14,4.14,0,0,1-2.94.91,4,4,0,0,1-3-.95,3.6,3.6,0,0,1-.95-2.36Z"/><path class="cls-1" d="M90.1,214.64a2.31,2.31,0,0,0,.4,1.21,2.58,2.58,0,0,0,2.12.76,3.11,3.11,0,0,0,1.58-.38,1.27,1.27,0,0,0,.68-1.18,1,1,0,0,0-.54-.92,6.58,6.58,0,0,0-1.38-.45l-1.28-.32a6.26,6.26,0,0,1-1.8-.67,2,2,0,0,1-1-1.77,2.7,2.7,0,0,1,1-2.16,3.92,3.92,0,0,1,2.62-.83,3.66,3.66,0,0,1,3.11,1.25,2.67,2.67,0,0,1,.58,1.7H94.64a1.82,1.82,0,0,0-.39-1,2.53,2.53,0,0,0-1.94-.62,2.43,2.43,0,0,0-1.39.34,1.08,1.08,0,0,0-.47.91,1.12,1.12,0,0,0,.62,1,3.94,3.94,0,0,0,1.06.38l1.07.26a8.06,8.06,0,0,1,2.32.8,2.11,2.11,0,0,1,.93,1.91,2.92,2.92,0,0,1-1,2.17,4.13,4.13,0,0,1-2.94.91,4,4,0,0,1-3-.95,3.6,3.6,0,0,1-1-2.36Z"/><path class="cls-1" d="M98.16,204.68h1.61v1.79H98.16Zm0,3.54h1.61v9.37H98.16Z"/><path class="cls-1" d="M102.16,208.18h1.56v1.33a5.6,5.6,0,0,1,1-1,3.13,3.13,0,0,1,1.78-.53,2.79,2.79,0,0,1,1.81.55,2.83,2.83,0,0,1,.7.93,3.45,3.45,0,0,1,1.24-1.12,3.52,3.52,0,0,1,1.6-.36,2.61,2.61,0,0,1,2.59,1.37,4.55,4.55,0,0,1,.36,2v6.27h-1.64v-6.54a1.52,1.52,0,0,0-.47-1.29,1.83,1.83,0,0,0-1.15-.35,2.3,2.3,0,0,0-1.6.62,2.74,2.74,0,0,0-.67,2.08v5.48h-1.61v-6.14a3.22,3.22,0,0,0-.23-1.4,1.39,1.39,0,0,0-1.34-.66,2.31,2.31,0,0,0-1.63.69,3.43,3.43,0,0,0-.74,2.52v5h-1.58Z"/><path class="cls-1" d="M117,204.64h1.54v4.68a3.48,3.48,0,0,1,2.81-1.39,3.7,3.7,0,0,1,2.87,1.21,5.14,5.14,0,0,1,1.1,3.56,6.11,6.11,0,0,1-1.09,3.71,3.51,3.51,0,0,1-3,1.48,3.08,3.08,0,0,1-1.82-.52,4.45,4.45,0,0,1-.94-1v1.2H117Zm6,10.83a5,5,0,0,0,.64-2.69,4.37,4.37,0,0,0-.64-2.46,2.1,2.1,0,0,0-1.88-1,2.59,2.59,0,0,0-1.9.8,3.54,3.54,0,0,0-.82,2.63,5.68,5.68,0,0,0,.34,2.16,2.31,2.31,0,0,0,2.33,1.55A2.13,2.13,0,0,0,123.07,215.47Z"/><path class="cls-1" d="M134,209.12a4.69,4.69,0,0,1,1.25,3.56,6.1,6.1,0,0,1-1.1,3.76,4,4,0,0,1-3.41,1.48,3.8,3.8,0,0,1-3.06-1.31,5.17,5.17,0,0,1-1.14-3.52,5.64,5.64,0,0,1,1.2-3.78,4,4,0,0,1,3.21-1.41A4.21,4.21,0,0,1,134,209.12Zm-1,6.25a5.88,5.88,0,0,0,.58-2.64,4.76,4.76,0,0,0-.42-2.15,2.35,2.35,0,0,0-2.27-1.3,2.24,2.24,0,0,0-2.09,1.11,5.23,5.23,0,0,0-.65,2.67,4.53,4.53,0,0,0,.65,2.5,2.27,2.27,0,0,0,2.07,1A2.13,2.13,0,0,0,133,215.37Zm-.2-11-2.35,2.54h-1.21l1.61-2.54Z"/><path class="cls-1" d="M137.22,204.68h1.58v12.91h-1.58Z"/><path class="cls-1" d="M141.17,204.68h1.61v1.79h-1.61Zm0,3.54h1.61v9.37h-1.61Z"/><path class="cls-1" d="M151.39,208.68a3.65,3.65,0,0,1,1.2,2.66h-1.54a2.73,2.73,0,0,0-.64-1.44,2,2,0,0,0-1.61-.58,2.22,2.22,0,0,0-2.16,1.47,5.91,5.91,0,0,0-.42,2.37,4.45,4.45,0,0,0,.6,2.38,2,2,0,0,0,1.88,1,2.08,2.08,0,0,0,1.56-.6,3.28,3.28,0,0,0,.79-1.64h1.54a4.08,4.08,0,0,1-1.32,2.74,4.14,4.14,0,0,1-2.7.86,3.59,3.59,0,0,1-2.94-1.35,5.17,5.17,0,0,1-1.1-3.37,5.65,5.65,0,0,1,1.21-3.86,3.88,3.88,0,0,1,3.06-1.38A4.08,4.08,0,0,1,151.39,208.68Z"/><path class="cls-1" d="M161,209.12a4.69,4.69,0,0,1,1.25,3.56,6.1,6.1,0,0,1-1.1,3.76,4,4,0,0,1-3.41,1.48,3.8,3.8,0,0,1-3.06-1.31,5.17,5.17,0,0,1-1.14-3.52,5.64,5.64,0,0,1,1.2-3.78,4,4,0,0,1,3.21-1.41A4.21,4.21,0,0,1,161,209.12Zm-1,6.25a5.88,5.88,0,0,0,.58-2.64,4.76,4.76,0,0,0-.42-2.15,2.35,2.35,0,0,0-2.28-1.3,2.23,2.23,0,0,0-2.08,1.11,5.13,5.13,0,0,0-.65,2.67,4.45,4.45,0,0,0,.65,2.5,2.27,2.27,0,0,0,2.07,1A2.14,2.14,0,0,0,160,215.37Z"/><path class="cls-1" d="M165.12,214.64a2.31,2.31,0,0,0,.41,1.21,2.54,2.54,0,0,0,2.11.76,3.11,3.11,0,0,0,1.58-.38,1.26,1.26,0,0,0,.69-1.18,1,1,0,0,0-.55-.92,6.37,6.37,0,0,0-1.38-.45l-1.27-.32a6.23,6.23,0,0,1-1.81-.67,2,2,0,0,1-1-1.77,2.69,2.69,0,0,1,1-2.16,4,4,0,0,1,2.63-.83,3.66,3.66,0,0,1,3.1,1.25,2.62,2.62,0,0,1,.58,1.7h-1.49a1.82,1.82,0,0,0-.39-1,2.51,2.51,0,0,0-1.93-.62,2.41,2.41,0,0,0-1.39.34,1.06,1.06,0,0,0-.47.91,1.1,1.1,0,0,0,.62,1,4,4,0,0,0,1.05.38l1.07.26a8.16,8.16,0,0,1,2.33.8,2.12,2.12,0,0,1,.92,1.91,2.88,2.88,0,0,1-1,2.17,4.13,4.13,0,0,1-2.94.91,4,4,0,0,1-3-.95,3.6,3.6,0,0,1-1-2.36Z"/><path class="cls-1" d="M89.77,32h1.76V44.93H89.77Z"/><path class="cls-1" d="M94.16,35.51h1.5v1.34a4.28,4.28,0,0,1,1.42-1.19,3.78,3.78,0,0,1,1.66-.36,2.75,2.75,0,0,1,2.71,1.4,5,5,0,0,1,.38,2.19v6h-1.6V39A3.25,3.25,0,0,0,100,37.6a1.55,1.55,0,0,0-1.53-.87,3,3,0,0,0-.92.11,2.44,2.44,0,0,0-1.14.77,2.31,2.31,0,0,0-.52,1A6.38,6.38,0,0,0,95.74,40v4.93H94.16Z"/><path class="cls-1" d="M109.41,35.89a4.78,4.78,0,0,1,.91.9V35.6h1.46v8.56a6.31,6.31,0,0,1-.53,2.83,3.76,3.76,0,0,1-3.7,1.92,4.58,4.58,0,0,1-2.56-.68,2.69,2.69,0,0,1-1.15-2.13h1.61a1.73,1.73,0,0,0,.45,1,2.33,2.33,0,0,0,1.68.53A2.3,2.3,0,0,0,110,46.31a7.22,7.22,0,0,0,.3-2.69,3.11,3.11,0,0,1-1.13,1.07,3.85,3.85,0,0,1-1.76.35A3.76,3.76,0,0,1,104.69,44a4.83,4.83,0,0,1-1.14-3.6,5.45,5.45,0,0,1,1.15-3.69,3.56,3.56,0,0,1,2.78-1.32A3.46,3.46,0,0,1,109.41,35.89Zm.19,1.7a2.28,2.28,0,0,0-1.83-.85,2.26,2.26,0,0,0-2.27,1.57,6,6,0,0,0-.33,2.19,3.9,3.9,0,0,0,.65,2.42,2.08,2.08,0,0,0,1.73.83,2.41,2.41,0,0,0,2.38-1.54,4.93,4.93,0,0,0,.39-2A3.91,3.91,0,0,0,109.6,37.59Z"/><path class="cls-1" d="M114.23,35.51h1.5v1.63a3.55,3.55,0,0,1,.9-1.16,2.4,2.4,0,0,1,1.67-.68h.15l.36,0V37l-.26,0h-.26a2.27,2.27,0,0,0-1.84.77,2.66,2.66,0,0,0-.64,1.77v5.42h-1.58Z"/><path class="cls-1" d="M126,35.77A3.61,3.61,0,0,1,127.42,37a4.35,4.35,0,0,1,.63,1.66,11.46,11.46,0,0,1,.13,2.08h-6.84A4.07,4.07,0,0,0,122,43a2.24,2.24,0,0,0,1.94.87,2.54,2.54,0,0,0,2-.82A3,3,0,0,0,126.5,42h1.55a3.12,3.12,0,0,1-.41,1.16,4.32,4.32,0,0,1-.77,1,3.64,3.64,0,0,1-1.77.95,5.58,5.58,0,0,1-1.28.14,3.91,3.91,0,0,1-3-1.28,5,5,0,0,1-1.22-3.58,5.45,5.45,0,0,1,1.22-3.68,4,4,0,0,1,3.2-1.42A4.29,4.29,0,0,1,126,35.77Zm.57,3.7a4.11,4.11,0,0,0-.45-1.65A2.27,2.27,0,0,0,124,36.68a2.36,2.36,0,0,0-1.81.79,3,3,0,0,0-.78,2Z"/><path class="cls-1" d="M131.13,42a2.35,2.35,0,0,0,.4,1.22,2.57,2.57,0,0,0,2.12.76,3.24,3.24,0,0,0,1.58-.38,1.28,1.28,0,0,0,.68-1.18,1,1,0,0,0-.54-.93A7,7,0,0,0,134,41l-1.28-.32a6.26,6.26,0,0,1-1.8-.67,2,2,0,0,1-1-1.77,2.7,2.7,0,0,1,1-2.17,3.92,3.92,0,0,1,2.62-.82,3.65,3.65,0,0,1,3.11,1.25,2.66,2.66,0,0,1,.58,1.7h-1.5a1.82,1.82,0,0,0-.38-1,2.55,2.55,0,0,0-1.94-.62A2.36,2.36,0,0,0,132,37a1.08,1.08,0,0,0-.47.9,1.1,1.1,0,0,0,.62,1,3.59,3.59,0,0,0,1.06.39l1.06.25a8.71,8.71,0,0,1,2.33.8,2.11,2.11,0,0,1,.92,1.91,2.89,2.89,0,0,1-1,2.17,4.14,4.14,0,0,1-2.94.92,4,4,0,0,1-3-1,3.55,3.55,0,0,1-.94-2.36Z"/><path class="cls-1" d="M140.13,42a2.35,2.35,0,0,0,.4,1.22,2.57,2.57,0,0,0,2.12.76,3.24,3.24,0,0,0,1.58-.38,1.28,1.28,0,0,0,.68-1.18,1,1,0,0,0-.54-.93A7,7,0,0,0,143,41l-1.28-.32a6.26,6.26,0,0,1-1.8-.67,2,2,0,0,1-1-1.77,2.7,2.7,0,0,1,1-2.17,3.92,3.92,0,0,1,2.62-.82,3.65,3.65,0,0,1,3.11,1.25,2.66,2.66,0,0,1,.58,1.7h-1.5a1.82,1.82,0,0,0-.38-1,2.55,2.55,0,0,0-1.94-.62A2.36,2.36,0,0,0,141,37a1.08,1.08,0,0,0-.47.9,1.1,1.1,0,0,0,.62,1,3.59,3.59,0,0,0,1.06.39l1.06.25a8.71,8.71,0,0,1,2.33.8,2.11,2.11,0,0,1,.92,1.91,2.89,2.89,0,0,1-1,2.17,4.14,4.14,0,0,1-2.94.92,4,4,0,0,1-3-1,3.55,3.55,0,0,1-.94-2.36Z"/><path class="cls-1" d="M155,36.45A4.77,4.77,0,0,1,156.26,40a6.18,6.18,0,0,1-1.1,3.76,4,4,0,0,1-3.42,1.48A3.86,3.86,0,0,1,148.68,44a5.2,5.2,0,0,1-1.13-3.53,5.64,5.64,0,0,1,1.19-3.77A4,4,0,0,1,152,35.24,4.21,4.21,0,0,1,155,36.45Zm-1,6.26a6.06,6.06,0,0,0,.57-2.65,4.86,4.86,0,0,0-.41-2.14,2.34,2.34,0,0,0-2.28-1.3,2.25,2.25,0,0,0-2.09,1.11,5.18,5.18,0,0,0-.65,2.67,4.53,4.53,0,0,0,.65,2.5,2.32,2.32,0,0,0,2.07,1A2.17,2.17,0,0,0,154,42.71Z"/><path class="cls-1" d="M163.2,35.51h1.56v1.34a5.6,5.6,0,0,1,1-1,3.07,3.07,0,0,1,1.78-.54,2.8,2.8,0,0,1,1.81.56,2.83,2.83,0,0,1,.7.93,3.36,3.36,0,0,1,1.24-1.12,3.4,3.4,0,0,1,1.6-.37,2.63,2.63,0,0,1,2.59,1.37,4.62,4.62,0,0,1,.37,2v6.27h-1.65V38.39a1.52,1.52,0,0,0-.47-1.29,1.84,1.84,0,0,0-1.15-.36,2.26,2.26,0,0,0-1.6.63,2.72,2.72,0,0,0-.67,2.08v5.48h-1.61V38.78a3.17,3.17,0,0,0-.23-1.39,1.39,1.39,0,0,0-1.34-.66,2.31,2.31,0,0,0-1.63.69,3.39,3.39,0,0,0-.74,2.51v5H163.2Z"/><path class="cls-1" d="M179.78,35.51v6.25a2.67,2.67,0,0,0,.22,1.18,1.54,1.54,0,0,0,1.53.84,2.17,2.17,0,0,0,2.19-1.47,6,6,0,0,0,.32-2.17V35.51h1.58v9.42h-1.49V43.54a3,3,0,0,1-.75.9,3.21,3.21,0,0,1-2.15.74,2.76,2.76,0,0,1-2.69-1.34,4.08,4.08,0,0,1-.39-1.93v-6.4Zm4.06-3.78-2.35,2.54h-1.21l1.6-2.54Z"/><path class="cls-1" d="M188.25,32h1.58V44.93h-1.58Z"/><path class="cls-1" d="M192.52,32.89h1.6v2.62h1.5v1.3h-1.5V43a.67.67,0,0,0,.33.66,1.55,1.55,0,0,0,.62.09h.24l.31,0v1.26a3.38,3.38,0,0,1-.57.11,5.9,5.9,0,0,1-.63,0,1.7,1.7,0,0,1-1.5-.57,2.48,2.48,0,0,1-.4-1.47V36.81h-1.27v-1.3h1.27Z"/><path class="cls-1" d="M197.21,32h1.6v1.79h-1.6Zm0,3.54h1.6v9.37h-1.6Z"/><path class="cls-1" d="M201.07,35.56h1.55v1.25a3.91,3.91,0,0,1,1-1,3.35,3.35,0,0,1,1.89-.53,3.56,3.56,0,0,1,2.72,1.23,5.06,5.06,0,0,1,1.12,3.5q0,3.08-1.62,4.4a3.67,3.67,0,0,1-2.38.83,3.24,3.24,0,0,1-1.79-.46,4.32,4.32,0,0,1-.95-.91v4.81h-1.58Zm6,7.38a4.37,4.37,0,0,0,.74-2.78,5.09,5.09,0,0,0-.33-1.93,2.39,2.39,0,0,0-4.51.09,6.4,6.4,0,0,0-.33,2.23,4.64,4.64,0,0,0,.33,1.85,2.24,2.24,0,0,0,2.26,1.46A2.27,2.27,0,0,0,207,42.94Z"/><path class="cls-1" d="M211.26,32h1.58V44.93h-1.58Z"/><path class="cls-1" d="M222,36.45A4.73,4.73,0,0,1,223.28,40a6.12,6.12,0,0,1-1.1,3.76,4,4,0,0,1-3.41,1.48A3.83,3.83,0,0,1,215.71,44a5.2,5.2,0,0,1-1.14-3.53,5.59,5.59,0,0,1,1.2-3.77A4,4,0,0,1,219,35.24,4.2,4.2,0,0,1,222,36.45Zm-1,6.26a5.92,5.92,0,0,0,.58-2.65,4.71,4.71,0,0,0-.42-2.14,2.33,2.33,0,0,0-2.27-1.3,2.24,2.24,0,0,0-2.09,1.11,5.08,5.08,0,0,0-.65,2.67,4.45,4.45,0,0,0,.65,2.5,2.29,2.29,0,0,0,2.07,1A2.15,2.15,0,0,0,221.05,42.71Z"/><path class="cls-1" d="M11.5,32V28.9a2.15,2.15,0,0,1,2.09-2.2H63.36a2.15,2.15,0,0,1,2.09,2.2V32s0,0,0,0h-1a1.67,1.67,0,0,0,.07,3.33h1V40H64.39a1.67,1.67,0,0,0,.07,3.33h1V48H64.39a1.67,1.67,0,0,0,.07,3.33h1v3a2.16,2.16,0,0,1-2.09,2.21H13.59a2.16,2.16,0,0,1-2.09-2.21v-3h1.05a1.63,1.63,0,0,0,1.57-1.87A1.66,1.66,0,0,0,12.49,48h-1V43.34h1.05a1.63,1.63,0,0,0,1.57-1.87A1.66,1.66,0,0,0,12.49,40h-1V35.3h1.05a1.63,1.63,0,0,0,1.57-1.87A1.66,1.66,0,0,0,12.49,32h-1A0,0,0,0,1,11.5,32Zm51.83-2s0,0,0,0v-1s0,0,0,0H13.62s0,0,0,0v1s0,0,0,0a3.94,3.94,0,0,1,0,7.43s0,0,0,0v.57s0,0,0,0a3.94,3.94,0,0,1,0,7.43s0,0,0,0V46s0,0,0,0a3.94,3.94,0,0,1,0,7.43s0,0,0,0v1s0,0,0,0H63.33s0,0,0,0v-1s0,0,0,0a3.94,3.94,0,0,1,0-7.43s0,0,0,0V45.4s0,0,0,0a3.94,3.94,0,0,1,0-7.43s0,0,0,0v-.57s0,0,0,0a3.94,3.94,0,0,1,0-7.43Zm7.18-3.49h1a0,0,0,0,0,0,0v-3a2.15,2.15,0,0,0-2.09-2.2H19.64a2.15,2.15,0,0,0-2.09,2.2h0a0,0,0,0,0,0,0H69.39v1h0a4,4,0,0,0,0,7.44h0v.58h0a4,4,0,0,0,0,7.44h0v.58h0a4,4,0,0,0,0,7.44h0v3.19h0a2.15,2.15,0,0,0,2.09-2.2v-3a0,0,0,0,0,0,0h-1a1.66,1.66,0,0,1-1.63-1.45,1.63,1.63,0,0,1,1.57-1.87h1a0,0,0,0,0,0,0v-4.7h-1a1.66,1.66,0,0,1-1.63-1.45,1.63,1.63,0,0,1,1.57-1.87h1a0,0,0,0,0,0,0V29.76a0,0,0,0,0,0,0h-1a1.63,1.63,0,0,1-1.57-1.86A1.66,1.66,0,0,1,70.51,26.42Z"/><path class="cls-1" d="M36.6,94.78H22v14.6H36.6ZM34.17,107H24.43V97.21h9.74Z"/><path class="cls-1" d="M26.87,99.65h4.86v4.86H26.87Z"/><path class="cls-1" d="M22,133.71H36.6v-14.6H22Zm2.43-12.17h9.74v9.74H24.43Z"/><path class="cls-1" d="M26.87,124h4.86v4.86H26.87Z"/><path class="cls-1" d="M46.33,94.78v14.6h14.6V94.78ZM58.5,107H48.76V97.21H58.5Z"/><path class="cls-1" d="M51.2,99.65h4.86v4.86H51.2Z"/><path class="cls-1" d="M26.87,111.81H22v4.87h7.3v-2.44H26.87Z"/><path class="cls-1" d="M39,116.68H43.9v4.86H39Z"/><path class="cls-1" d="M29.3,111.81h4.87v2.43H29.3Z"/><path class="cls-1" d="M43.9,124H39v2.43h2.43v2.43H43.9V124Z"/><path class="cls-1" d="M36.6,111.81v2.43H34.17v2.44H39v-4.87Z"/><path class="cls-1" d="M41.46,104.51H43.9v4.87H41.46Z"/><path class="cls-1" d="M43.9,114.24v2.44h4.86v-4.87h-7.3v2.43Z"/><path class="cls-1" d="M39,109.38h2.43v2.43H39Z"/><path class="cls-1" d="M43.9,128.84h4.86v4.87H43.9Z"/><path class="cls-1" d="M39,128.84h2.43v4.87H39Z"/><path class="cls-1" d="M43.9,121.54h2.43V124H43.9Z"/><path class="cls-1" d="M43.9,102.08V97.21H41.46V94.78H39v9.73h2.43v-2.43Z"/><path class="cls-1" d="M51.2,128.84h2.43v4.87H51.2Z"/><path class="cls-1" d="M51.2,124h4.86v2.43H51.2Z"/><path class="cls-1" d="M48.76,126.41H51.2v2.43H48.76Z"/><path class="cls-1" d="M46.33,124h2.43v2.43H46.33Z"/><path class="cls-1" d="M56.06,119.11v2.43H58.5V124h2.43v-4.87H56.06Z"/><path class="cls-1" d="M58.5,126.41H56.06v7.3h4.87v-4.87H58.5Z"/><path class="cls-1" d="M46.33,119.11v2.43h7.3v-4.86H48.76v2.43Z"/><path class="cls-1" d="M51.2,111.81v2.43h4.86v2.44h4.87v-4.87H51.2Z"/><polygon class="cls-1" points="24.36 139.28 16.5 139.28 16.5 131.42 18.79 131.42 18.79 136.99 24.36 136.99 24.36 139.28"/><polygon class="cls-1" points="18.79 97.14 16.5 97.14 16.5 89.28 24.36 89.28 24.36 91.57 18.79 91.57 18.79 97.14"/><polygon class="cls-1" points="66.5 97.14 64.21 97.14 64.21 91.57 58.64 91.57 58.64 89.28 66.5 89.28 66.5 97.14"/><polygon class="cls-1" points="66.5 139.28 58.64 139.28 58.64 136.99 64.21 136.99 64.21 131.42 66.5 131.42 66.5 139.28"/><path class="cls-1" d="M56.68,165.12H26.33a5.51,5.51,0,0,0-5.51,5.51v25.12l-3.48-3.48a1.32,1.32,0,1,0-1.86,1.86l5.74,5.75a1.31,1.31,0,0,0,.94.39,1.33,1.33,0,0,0,.94-.39l5.74-5.75A1.32,1.32,0,1,0,27,192.27l-3.5,3.49V170.63a2.87,2.87,0,0,1,2.87-2.87H56.69a2.86,2.86,0,0,1,2.87,2.87v3.66a1.33,1.33,0,1,0,2.65,0v-3.66A5.56,5.56,0,0,0,56.68,165.12Z"/><path class="cls-1" d="M59.93,180.13l-5.75,5.75a1.32,1.32,0,0,0,.94,2.25,1.33,1.33,0,0,0,.94-.39l3.49-3.49v25.12a2.86,2.86,0,0,1-2.87,2.87H26.33a2.86,2.86,0,0,1-2.87-2.87v-3.66a1.33,1.33,0,1,0-2.65,0v3.66a5.51,5.51,0,0,0,5.51,5.51H56.66a5.51,5.51,0,0,0,5.51-5.51V184.25l3.49,3.49a1.32,1.32,0,1,0,1.86-1.86l-5.74-5.75A1.35,1.35,0,0,0,59.93,180.13Z"/><path class="cls-1" d="M41.51,178.32a1.32,1.32,0,0,0-1.33,1.33v2H40a4.83,4.83,0,0,0,0,9.64h3a2.19,2.19,0,0,1,0,4.35H37.64a1.33,1.33,0,0,0,0,2.66h2.54v2.05a1.33,1.33,0,1,0,2.65,0V198.3h.23a4.82,4.82,0,0,0-.07-9.63H40a2.19,2.19,0,0,1,0-4.36h5.25a1.33,1.33,0,0,0,0-2.65H42.83v-2A1.33,1.33,0,0,0,41.51,178.32Z"/><path class="cls-1" d="M14.43,265.85c0,13.23,12.15,24,27.08,24a29.56,29.56,0,0,0,14-3.44,15.63,15.63,0,0,0,7.44,1.76,18.4,18.4,0,0,0,2.57-.18,2.06,2.06,0,0,0,.83-3.78,9.08,9.08,0,0,1-3.24-3.87,22.32,22.32,0,0,0,5.5-14.49c0-13.23-12.15-24-27.08-24S14.43,252.62,14.43,265.85Zm2.71,0c0-11.73,10.94-21.28,24.37-21.28s24.36,9.55,24.36,21.28a19.5,19.5,0,0,1-5.36,13.31,1.34,1.34,0,0,0-.28,1.39,12.06,12.06,0,0,0,3.24,4.89,13,13,0,0,1-7.3-1.76,1.3,1.3,0,0,0-.69-.18,1.37,1.37,0,0,0-.68.17,26.78,26.78,0,0,1-13.29,3.47C28.08,287.13,17.14,277.58,17.14,265.85Zm24.38-1.74a1.74,1.74,0,1,1-1.74,1.74A1.73,1.73,0,0,1,41.52,264.11Zm7.47,0a1.74,1.74,0,1,1-1.74,1.74A1.73,1.73,0,0,1,49,264.11Zm-15,0a1.74,1.74,0,1,1-1.73,1.74A1.74,1.74,0,0,1,34,264.11Z"/><path class="cls-1" d="M65.3,320.66H17.7a1.26,1.26,0,0,0-1.26,1.26v33.71a1.25,1.25,0,0,0,1.26,1.26H40.24v6.26H31.32a1.26,1.26,0,1,0,0,2.51H51.68a1.26,1.26,0,1,0,0-2.51H42.76v-6.26H65.3a1.25,1.25,0,0,0,1.26-1.26V321.92A1.25,1.25,0,0,0,65.3,320.66Zm-1.24,33.72H19v-31.2H64.06Z"/><path class="cls-1" d="M66.36,335.65H16.64V321H66.36Zm-48.72-1H65.36V322H17.64Z"/><path class="cls-1" d="M51.58,356.5H31.42V334.65H51.58Zm-19.16-1H50.58V335.65H32.42Z"/></svg>