<svg id="Camada_1" data-name="Camada 1" xmlns="http://www.w3.org/2000/svg" viewBox="0 0 300 380"><defs><style>.cls-1{fill:#fff;}</style></defs><title>compet</title><path class="cls-1" d="M89.77,32h1.76V44.93H89.77Z"/><path class="cls-1" d="M94.16,35.51h1.5v1.34a4.28,4.28,0,0,1,1.42-1.19,3.78,3.78,0,0,1,1.66-.36,2.75,2.75,0,0,1,2.71,1.4,5,5,0,0,1,.38,2.19v6h-1.6V39A3.25,3.25,0,0,0,100,37.6a1.55,1.55,0,0,0-1.53-.87,3,3,0,0,0-.92.11,2.35,2.35,0,0,0-1.14.77,2.31,2.31,0,0,0-.52,1A6.38,6.38,0,0,0,95.74,40v4.93H94.16Z"/><path class="cls-1" d="M109.41,35.89a4.78,4.78,0,0,1,.91.9V35.6h1.45v8.56a6.33,6.33,0,0,1-.52,2.83,3.78,3.78,0,0,1-3.71,1.92,4.57,4.57,0,0,1-2.55-.68,2.69,2.69,0,0,1-1.15-2.13h1.61a1.73,1.73,0,0,0,.45,1,2.33,2.33,0,0,0,1.68.53A2.3,2.3,0,0,0,110,46.31a7.22,7.22,0,0,0,.3-2.69,3.11,3.11,0,0,1-1.13,1.07,3.85,3.85,0,0,1-1.76.35A3.76,3.76,0,0,1,104.69,44a4.83,4.83,0,0,1-1.14-3.6,5.45,5.45,0,0,1,1.15-3.69,3.56,3.56,0,0,1,2.78-1.32A3.46,3.46,0,0,1,109.41,35.89Zm.19,1.7a2.28,2.28,0,0,0-1.83-.85,2.26,2.26,0,0,0-2.27,1.57,6,6,0,0,0-.33,2.19,3.9,3.9,0,0,0,.65,2.42,2.07,2.07,0,0,0,1.72.83,2.42,2.42,0,0,0,2.39-1.54,4.93,4.93,0,0,0,.39-2A3.91,3.91,0,0,0,109.6,37.59Z"/><path class="cls-1" d="M114.23,35.51h1.5v1.63a3.55,3.55,0,0,1,.9-1.16,2.4,2.4,0,0,1,1.67-.68h.15l.36,0V37l-.26,0h-.26a2.27,2.27,0,0,0-1.84.77,2.66,2.66,0,0,0-.64,1.77v5.42h-1.58Z"/><path class="cls-1" d="M126,35.77A3.68,3.68,0,0,1,127.42,37a4.18,4.18,0,0,1,.62,1.66,10.42,10.42,0,0,1,.14,2.08h-6.84A4.07,4.07,0,0,0,122,43a2.24,2.24,0,0,0,1.94.87,2.54,2.54,0,0,0,2-.82A3,3,0,0,0,126.5,42h1.55a3.31,3.31,0,0,1-.41,1.16,4.32,4.32,0,0,1-.77,1,3.64,3.64,0,0,1-1.77.95,5.58,5.58,0,0,1-1.28.14,4,4,0,0,1-3-1.28,5,5,0,0,1-1.21-3.58,5.45,5.45,0,0,1,1.22-3.68,4,4,0,0,1,3.2-1.42A4.29,4.29,0,0,1,126,35.77Zm.57,3.7a4.11,4.11,0,0,0-.45-1.65A2.27,2.27,0,0,0,124,36.68a2.36,2.36,0,0,0-1.81.79,3,3,0,0,0-.78,2Z"/><path class="cls-1" d="M131.13,42a2.35,2.35,0,0,0,.4,1.22,2.57,2.57,0,0,0,2.12.76,3.24,3.24,0,0,0,1.58-.38,1.28,1.28,0,0,0,.68-1.18,1,1,0,0,0-.55-.93A6.59,6.59,0,0,0,134,41l-1.28-.32a6.14,6.14,0,0,1-1.8-.67,2,2,0,0,1-1-1.77,2.7,2.7,0,0,1,1-2.17,3.92,3.92,0,0,1,2.62-.82,3.65,3.65,0,0,1,3.11,1.25,2.66,2.66,0,0,1,.58,1.7h-1.5a1.82,1.82,0,0,0-.38-1,2.55,2.55,0,0,0-1.94-.62A2.36,2.36,0,0,0,132,37a1.08,1.08,0,0,0-.47.9,1.1,1.1,0,0,0,.62,1,3.59,3.59,0,0,0,1.06.39l1.06.25a8.71,8.71,0,0,1,2.33.8,2.11,2.11,0,0,1,.92,1.91,2.89,2.89,0,0,1-1,2.17,4.16,4.16,0,0,1-2.94.92,4,4,0,0,1-3-1,3.55,3.55,0,0,1-.94-2.36Z"/><path class="cls-1" d="M140.13,42a2.35,2.35,0,0,0,.4,1.22,2.57,2.57,0,0,0,2.12.76,3.24,3.24,0,0,0,1.58-.38,1.28,1.28,0,0,0,.68-1.18,1,1,0,0,0-.55-.93A6.59,6.59,0,0,0,143,41l-1.28-.32a6.14,6.14,0,0,1-1.8-.67,2,2,0,0,1-1-1.77,2.7,2.7,0,0,1,1-2.17,3.92,3.92,0,0,1,2.62-.82,3.65,3.65,0,0,1,3.11,1.25,2.66,2.66,0,0,1,.58,1.7h-1.5a1.82,1.82,0,0,0-.38-1,2.55,2.55,0,0,0-1.94-.62A2.36,2.36,0,0,0,141,37a1.08,1.08,0,0,0-.47.9,1.1,1.1,0,0,0,.62,1,3.59,3.59,0,0,0,1.06.39l1.06.25a8.71,8.71,0,0,1,2.33.8,2.11,2.11,0,0,1,.92,1.91,2.89,2.89,0,0,1-1,2.17,4.16,4.16,0,0,1-2.94.92,4,4,0,0,1-3-1,3.55,3.55,0,0,1-.94-2.36Z"/><path class="cls-1" d="M155,36.45A4.77,4.77,0,0,1,156.26,40a6.18,6.18,0,0,1-1.1,3.76,4,4,0,0,1-3.42,1.48A3.86,3.86,0,0,1,148.68,44a5.2,5.2,0,0,1-1.13-3.53,5.59,5.59,0,0,1,1.19-3.77A4,4,0,0,1,152,35.24,4.21,4.21,0,0,1,155,36.45Zm-1,6.26a6.06,6.06,0,0,0,.57-2.65,4.86,4.86,0,0,0-.41-2.14,2.34,2.34,0,0,0-2.28-1.3,2.25,2.25,0,0,0-2.09,1.11,5.18,5.18,0,0,0-.65,2.67,4.53,4.53,0,0,0,.65,2.5,2.32,2.32,0,0,0,2.07,1A2.17,2.17,0,0,0,154,42.71Z"/><path class="cls-1" d="M163.2,32h1.61v1.79H163.2Zm0,3.54h1.61v9.37H163.2Z"/><path class="cls-1" d="M167.2,35.51h1.5v1.34a4.28,4.28,0,0,1,1.42-1.19,3.74,3.74,0,0,1,1.66-.36,2.73,2.73,0,0,1,2.7,1.4,4.93,4.93,0,0,1,.39,2.19v6h-1.61V39A3.26,3.26,0,0,0,173,37.6a1.55,1.55,0,0,0-1.53-.87,3,3,0,0,0-.92.11,2.52,2.52,0,0,0-1.66,1.74,6.38,6.38,0,0,0-.12,1.42v4.93H167.2Z"/><path class="cls-1" d="M182.38,35.8a4.26,4.26,0,0,1,1,.93V32h1.53v13h-1.43V43.62a3.36,3.36,0,0,1-1.3,1.25,3.74,3.74,0,0,1-1.73.39,3.48,3.48,0,0,1-2.71-1.32,5.16,5.16,0,0,1-1.15-3.52,6.11,6.11,0,0,1,1.05-3.57,3.42,3.42,0,0,1,3-1.5A3.36,3.36,0,0,1,182.38,35.8Zm-3.53,7.06a2.23,2.23,0,0,0,2.05,1,2.15,2.15,0,0,0,1.79-.94,4.5,4.5,0,0,0,.71-2.72,4,4,0,0,0-.73-2.64,2.25,2.25,0,0,0-1.79-.85,2.35,2.35,0,0,0-1.93.91,4.23,4.23,0,0,0-.74,2.69A4.64,4.64,0,0,0,178.85,42.86Z"/><path class="cls-1" d="M187.22,32h1.61v1.79h-1.61Zm0,3.54h1.61v9.37h-1.61Z"/><path class="cls-1" d="M192,35.51l2.51,7.67,2.62-7.67h1.73l-3.54,9.42h-1.69l-3.47-9.42Z"/><path class="cls-1" d="M200.22,32h1.61v1.79h-1.61Zm0,3.54h1.61v9.37h-1.61Z"/><path class="cls-1" d="M209.39,35.8a4.26,4.26,0,0,1,1,.93V32h1.52v13h-1.42V43.62a3.36,3.36,0,0,1-1.3,1.25,3.74,3.74,0,0,1-1.73.39,3.48,3.48,0,0,1-2.71-1.32,5.16,5.16,0,0,1-1.15-3.52,6.11,6.11,0,0,1,1-3.57,3.41,3.41,0,0,1,3-1.5A3.36,3.36,0,0,1,209.39,35.8Zm-3.53,7.06a2.23,2.23,0,0,0,2,1,2.15,2.15,0,0,0,1.8-.94,4.5,4.5,0,0,0,.71-2.72,4,4,0,0,0-.73-2.64,2.25,2.25,0,0,0-1.79-.85,2.35,2.35,0,0,0-1.93.91,4.23,4.23,0,0,0-.74,2.69A4.64,4.64,0,0,0,205.86,42.86Z"/><path class="cls-1" d="M215.81,35.51v6.25a2.67,2.67,0,0,0,.22,1.18,1.56,1.56,0,0,0,1.54.84,2.17,2.17,0,0,0,2.19-1.47,6,6,0,0,0,.31-2.17V35.51h1.59v9.42h-1.5l0-1.39a3,3,0,0,1-.75.9,3.22,3.22,0,0,1-2.16.74,2.78,2.78,0,0,1-2.69-1.34,4.08,4.08,0,0,1-.39-1.93v-6.4Z"/><path class="cls-1" d="M229.28,39.23a.85.85,0,0,0,.73-.46,1.38,1.38,0,0,0,.11-.61,1.27,1.27,0,0,0-.58-1.17,3,3,0,0,0-1.64-.37,2.07,2.07,0,0,0-1.75.67,2.19,2.19,0,0,0-.38,1.11h-1.48A2.73,2.73,0,0,1,225.42,36a4.57,4.57,0,0,1,2.51-.69,5.14,5.14,0,0,1,2.7.64,2.16,2.16,0,0,1,1,2v5.42a.7.7,0,0,0,.1.4.51.51,0,0,0,.42.14h.24l.28,0V45a4.52,4.52,0,0,1-.56.13,3.6,3.6,0,0,1-.53,0,1.28,1.28,0,0,1-1.18-.58,2.4,2.4,0,0,1-.28-.87,4,4,0,0,1-1.38,1.1,4.33,4.33,0,0,1-2,.46,3,3,0,0,1-2.14-.79,2.65,2.65,0,0,1-.83-2,2.55,2.55,0,0,1,.82-2,3.86,3.86,0,0,1,2.14-.88ZM226,43.5a1.84,1.84,0,0,0,1.19.4,3.58,3.58,0,0,0,1.62-.39,2.17,2.17,0,0,0,1.32-2.1V40.14a2.6,2.6,0,0,1-.75.31,7.17,7.17,0,0,1-.9.18l-1,.12a3.81,3.81,0,0,0-1.29.36,1.39,1.39,0,0,0-.74,1.31A1.3,1.3,0,0,0,226,43.5Z"/><path class="cls-1" d="M234.29,32h1.59V44.93h-1.59Z"/><path class="cls-1" d="M98,96.73a4.6,4.6,0,0,1,2.32,3.54H98.56a3.17,3.17,0,0,0-1.29-2.06,4.33,4.33,0,0,0-2.45-.64,3.8,3.8,0,0,0-3,1.34,5.86,5.86,0,0,0-1.2,4,6.53,6.53,0,0,0,1,3.75,3.64,3.64,0,0,0,3.23,1.44,4.1,4.1,0,0,0,2.84-1,4.32,4.32,0,0,0,1.15-3.29h-4v-1.45h5.67v6.91H99.37L99,107.61A6.44,6.44,0,0,1,97.4,109a6.1,6.1,0,0,1-6.76-.83A7.13,7.13,0,0,1,88.87,103a7.39,7.39,0,0,1,1.73-5.15A5.47,5.47,0,0,1,94.86,96,6.49,6.49,0,0,1,98,96.73Z"/><path class="cls-1" d="M109,100.12a3.56,3.56,0,0,1,1.42,1.22A4.29,4.29,0,0,1,111,103a11.12,11.12,0,0,1,.14,2.07h-6.85a4.08,4.08,0,0,0,.67,2.31,2.27,2.27,0,0,0,2,.86,2.49,2.49,0,0,0,2-.82,2.71,2.71,0,0,0,.58-1.1H111a3.31,3.31,0,0,1-.41,1.16,4.1,4.1,0,0,1-.78,1,3.63,3.63,0,0,1-1.77,1,5.51,5.51,0,0,1-1.28.14,3.94,3.94,0,0,1-3-1.28,5,5,0,0,1-1.22-3.58,5.43,5.43,0,0,1,1.23-3.69A4,4,0,0,1,107,99.65,4.33,4.33,0,0,1,109,100.12Zm.56,3.69a4.11,4.11,0,0,0-.44-1.64,2.28,2.28,0,0,0-2.16-1.14,2.38,2.38,0,0,0-1.81.78,3,3,0,0,0-.77,2Z"/><path class="cls-1" d="M113.22,99.86h1.5v1.63a3.45,3.45,0,0,1,.9-1.16,2.38,2.38,0,0,1,1.67-.68h.14l.36,0v1.67l-.25,0h-.26a2.24,2.24,0,0,0-1.84.77,2.66,2.66,0,0,0-.64,1.77v5.41h-1.58Z"/><path class="cls-1" d="M125,100.12a3.5,3.5,0,0,1,1.42,1.22A4,4,0,0,1,127,103a10.3,10.3,0,0,1,.14,2.07h-6.84a4.08,4.08,0,0,0,.67,2.31,2.25,2.25,0,0,0,1.94.86,2.47,2.47,0,0,0,2-.82,2.73,2.73,0,0,0,.59-1.1H127a3.31,3.31,0,0,1-.41,1.16,4.32,4.32,0,0,1-.77,1,3.72,3.72,0,0,1-1.77,1,5.6,5.6,0,0,1-1.29.14,3.94,3.94,0,0,1-3-1.28,5,5,0,0,1-1.21-3.58,5.47,5.47,0,0,1,1.22-3.69,4,4,0,0,1,3.2-1.41A4.29,4.29,0,0,1,125,100.12Zm.57,3.69a4.27,4.27,0,0,0-.45-1.64A2.27,2.27,0,0,0,123,101a2.37,2.37,0,0,0-1.81.78,3,3,0,0,0-.78,2Z"/><path class="cls-1" d="M140.4,100.36a3.75,3.75,0,0,1,1.2,2.66h-1.54a2.89,2.89,0,0,0-.64-1.44,2,2,0,0,0-1.61-.58,2.21,2.21,0,0,0-2.16,1.48,5.66,5.66,0,0,0-.43,2.36,4.45,4.45,0,0,0,.6,2.38,2.32,2.32,0,0,0,3.44.36,3.25,3.25,0,0,0,.8-1.64h1.54a4.17,4.17,0,0,1-1.32,2.74,4.12,4.12,0,0,1-2.7.86,3.61,3.61,0,0,1-3-1.34,5.19,5.19,0,0,1-1.09-3.37,5.68,5.68,0,0,1,1.2-3.86,3.9,3.9,0,0,1,3.07-1.38A4.09,4.09,0,0,1,140.4,100.36Z"/><path class="cls-1" d="M150,100.8a4.75,4.75,0,0,1,1.25,3.56,6.16,6.16,0,0,1-1.1,3.76,4,4,0,0,1-3.42,1.49,3.84,3.84,0,0,1-3.06-1.32,5.17,5.17,0,0,1-1.13-3.52,5.63,5.63,0,0,1,1.19-3.78,4,4,0,0,1,3.21-1.4A4.21,4.21,0,0,1,150,100.8Zm-1,6.25a6,6,0,0,0,.57-2.64,4.72,4.72,0,0,0-.41-2.14,2.34,2.34,0,0,0-2.28-1.3,2.26,2.26,0,0,0-2.09,1.1,5.23,5.23,0,0,0-.65,2.67,4.51,4.51,0,0,0,.65,2.5,2.3,2.3,0,0,0,2.07,1A2.15,2.15,0,0,0,149,107.05Z"/><path class="cls-1" d="M153.19,99.86h1.5v1.34a4.16,4.16,0,0,1,1.42-1.19,3.74,3.74,0,0,1,1.66-.36,2.71,2.71,0,0,1,2.7,1.4,4.91,4.91,0,0,1,.39,2.18v6h-1.61v-5.93A3.23,3.23,0,0,0,159,102a1.55,1.55,0,0,0-1.53-.88,2.93,2.93,0,0,0-.92.12,2.54,2.54,0,0,0-1.66,1.73,6.44,6.44,0,0,0-.12,1.42v4.93h-1.58Z"/><path class="cls-1" d="M163.52,97.23h1.6v2.63h1.5v1.29h-1.5v6.14a.67.67,0,0,0,.33.66,1.32,1.32,0,0,0,.61.1h.25l.31,0v1.25a3.38,3.38,0,0,1-.57.12,6.4,6.4,0,0,1-.64,0,1.71,1.71,0,0,1-1.5-.57,2.51,2.51,0,0,1-.39-1.47v-6.23h-1.28V99.86h1.28Z"/><path class="cls-1" d="M168.24,99.86h1.51v1.63a3.45,3.45,0,0,1,.9-1.16,2.37,2.37,0,0,1,1.66-.68h.15l.36,0v1.67l-.26,0h-.26a2.23,2.23,0,0,0-1.83.77,2.66,2.66,0,0,0-.64,1.77v5.41h-1.59Z"/><path class="cls-1" d="M179.24,103.58a.86.86,0,0,0,.73-.46,1.4,1.4,0,0,0,.1-.61,1.31,1.31,0,0,0-.57-1.18,3.09,3.09,0,0,0-1.64-.36,2.09,2.09,0,0,0-1.76.67,2.25,2.25,0,0,0-.38,1.1h-1.47a2.73,2.73,0,0,1,1.13-2.43,4.65,4.65,0,0,1,2.51-.68,5.1,5.1,0,0,1,2.69.63,2.15,2.15,0,0,1,1,2v5.43a.75.75,0,0,0,.1.39.49.49,0,0,0,.43.15h.24l.28,0v1.17a5.52,5.52,0,0,1-.56.13,4,4,0,0,1-.53,0,1.3,1.3,0,0,1-1.19-.58,2.12,2.12,0,0,1-.27-.87,4,4,0,0,1-1.39,1.1,4.29,4.29,0,0,1-2,.47,3,3,0,0,1-2.15-.8,2.64,2.64,0,0,1-.83-2,2.57,2.57,0,0,1,.82-2,3.9,3.9,0,0,1,2.15-.89Zm-3.33,4.27a1.86,1.86,0,0,0,1.18.39,3.57,3.57,0,0,0,1.62-.38,2.18,2.18,0,0,0,1.32-2.1v-1.27a3,3,0,0,1-.74.31,6.16,6.16,0,0,1-.9.17l-1,.13a3.45,3.45,0,0,0-1.29.36,1.38,1.38,0,0,0-.73,1.31A1.28,1.28,0,0,0,175.91,107.85Z"/><path class="cls-1" d="M184.52,97.23h1.6v2.63h1.5v1.29h-1.5v6.14a.66.66,0,0,0,.34.66,1.29,1.29,0,0,0,.61.1h.25l.3,0v1.25a3.48,3.48,0,0,1-.56.12,6.4,6.4,0,0,1-.64,0,1.7,1.7,0,0,1-1.5-.57,2.44,2.44,0,0,1-.4-1.47v-6.23h-1.27V99.86h1.27Z"/><path class="cls-1" d="M196,100.8a4.74,4.74,0,0,1,1.24,3.56,6.1,6.1,0,0,1-1.1,3.76,4,4,0,0,1-3.41,1.49,3.84,3.84,0,0,1-3.06-1.32,5.17,5.17,0,0,1-1.14-3.52,5.64,5.64,0,0,1,1.2-3.78,4,4,0,0,1,3.21-1.4A4.22,4.22,0,0,1,196,100.8Zm-1,6.25a5.88,5.88,0,0,0,.58-2.64,4.86,4.86,0,0,0-.41-2.14,2.35,2.35,0,0,0-2.28-1.3,2.26,2.26,0,0,0-2.09,1.1,5.23,5.23,0,0,0-.65,2.67,4.51,4.51,0,0,0,.65,2.5,2.3,2.3,0,0,0,2.07,1A2.13,2.13,0,0,0,195,107.05Z"/><path class="cls-1" d="M199.55,111.12a1.1,1.1,0,0,0,.85-.86,2.37,2.37,0,0,0,.14-.77s0-.07,0-.11a.52.52,0,0,0,0-.11h-1v-1.91h1.88v1.77A3.87,3.87,0,0,1,201,111a1.9,1.9,0,0,1-1.46,1Z"/><path class="cls-1" d="M209.54,97.23h1.59v2.63h1.51v1.29h-1.51v6.14a.67.67,0,0,0,.34.66,1.32,1.32,0,0,0,.61.1h.25l.31,0v1.25a3.38,3.38,0,0,1-.57.12,6.4,6.4,0,0,1-.64,0,1.71,1.71,0,0,1-1.5-.57,2.51,2.51,0,0,1-.39-1.47v-6.23h-1.28V99.86h1.28Z"/><path class="cls-1" d="M220,100.12a3.53,3.53,0,0,1,1.43,1.22,4.29,4.29,0,0,1,.63,1.66,11.12,11.12,0,0,1,.14,2.07h-6.85a4.08,4.08,0,0,0,.67,2.31,2.27,2.27,0,0,0,1.95.86,2.49,2.49,0,0,0,2-.82,2.84,2.84,0,0,0,.58-1.1h1.55a3.27,3.27,0,0,1-.4,1.16,4.35,4.35,0,0,1-.78,1,3.72,3.72,0,0,1-1.77,1,5.58,5.58,0,0,1-1.28.14,3.93,3.93,0,0,1-3-1.28,5,5,0,0,1-1.22-3.58,5.43,5.43,0,0,1,1.23-3.69,4,4,0,0,1,3.19-1.41A4.26,4.26,0,0,1,220,100.12Zm.57,3.69a4.11,4.11,0,0,0-.44-1.64A2.28,2.28,0,0,0,218,101a2.38,2.38,0,0,0-1.81.78,3,3,0,0,0-.77,2Z"/><path class="cls-1" d="M224.27,99.86h1.51v1.63a3.45,3.45,0,0,1,.9-1.16,2.37,2.37,0,0,1,1.66-.68h.15l.36,0v1.67l-.26,0h-.26a2.23,2.23,0,0,0-1.83.77,2.66,2.66,0,0,0-.64,1.77v5.41h-1.59Z"/><path class="cls-1" d="M230.22,99.86h1.57v1.34a5.12,5.12,0,0,1,1-1,3.1,3.1,0,0,1,1.77-.53,2.77,2.77,0,0,1,1.81.55,2.84,2.84,0,0,1,.71.93,3.26,3.26,0,0,1,2.84-1.48,2.62,2.62,0,0,1,2.58,1.37,4.41,4.41,0,0,1,.37,2v6.26h-1.64v-6.54a1.55,1.55,0,0,0-.47-1.29,1.91,1.91,0,0,0-1.15-.35,2.28,2.28,0,0,0-1.6.62,2.75,2.75,0,0,0-.68,2.09v5.47h-1.61v-6.14a3.25,3.25,0,0,0-.22-1.4,1.4,1.4,0,0,0-1.35-.66,2.29,2.29,0,0,0-1.63.7,3.39,3.39,0,0,0-.73,2.51v5h-1.59Z"/><path class="cls-1" d="M252,100.8a4.75,4.75,0,0,1,1.25,3.56,6.16,6.16,0,0,1-1.1,3.76,4,4,0,0,1-3.41,1.49,3.84,3.84,0,0,1-3.07-1.32,5.22,5.22,0,0,1-1.13-3.52,5.69,5.69,0,0,1,1.19-3.78,4,4,0,0,1,3.21-1.4A4.21,4.21,0,0,1,252,100.8Zm-1,6.25a6,6,0,0,0,.57-2.64,4.72,4.72,0,0,0-.41-2.14,2.34,2.34,0,0,0-2.28-1.3,2.26,2.26,0,0,0-2.09,1.1,5.23,5.23,0,0,0-.65,2.67,4.51,4.51,0,0,0,.65,2.5,2.3,2.3,0,0,0,2.07,1A2.15,2.15,0,0,0,251.06,107.05Z"/><path class="cls-1" d="M256.17,106.32a2.28,2.28,0,0,0,.4,1.21,2.58,2.58,0,0,0,2.12.77,3.14,3.14,0,0,0,1.58-.39,1.26,1.26,0,0,0,.68-1.18,1,1,0,0,0-.54-.92,6.58,6.58,0,0,0-1.38-.45l-1.28-.32a6.3,6.3,0,0,1-1.8-.66,2,2,0,0,1-1-1.78,2.7,2.7,0,0,1,1-2.16,3.92,3.92,0,0,1,2.62-.83,3.68,3.68,0,0,1,3.11,1.25,2.7,2.7,0,0,1,.58,1.71h-1.49a1.84,1.84,0,0,0-.39-1,2.5,2.5,0,0,0-1.94-.62,2.36,2.36,0,0,0-1.39.34,1.06,1.06,0,0,0-.47.9,1.12,1.12,0,0,0,.62,1,3.9,3.9,0,0,0,1.06.39l1.06.25a8.36,8.36,0,0,1,2.33.8,2.11,2.11,0,0,1,.93,1.91,2.9,2.9,0,0,1-1,2.17,4.13,4.13,0,0,1-2.94.91,4,4,0,0,1-3-.95,3.58,3.58,0,0,1-.95-2.36Z"/><path class="cls-1" d="M95,121.12a3.53,3.53,0,0,1,1.43,1.22A4.29,4.29,0,0,1,97,124a11.12,11.12,0,0,1,.14,2.07H90.32a4.08,4.08,0,0,0,.67,2.31,2.27,2.27,0,0,0,2,.86,2.49,2.49,0,0,0,2-.82,2.71,2.71,0,0,0,.58-1.1H97a3.53,3.53,0,0,1-.41,1.16,4.35,4.35,0,0,1-.78,1,3.63,3.63,0,0,1-1.77.95,5.51,5.51,0,0,1-1.28.14,3.93,3.93,0,0,1-3-1.28,5,5,0,0,1-1.22-3.58,5.43,5.43,0,0,1,1.23-3.69A4,4,0,0,1,93,120.65,4.26,4.26,0,0,1,95,121.12Zm.57,3.69a4.11,4.11,0,0,0-.44-1.64A2.28,2.28,0,0,0,92.94,122a2.38,2.38,0,0,0-1.81.78,3,3,0,0,0-.77,2Z"/><path class="cls-1" d="M110.39,121.36a3.71,3.71,0,0,1,1.2,2.66h-1.54a2.81,2.81,0,0,0-.64-1.44,2,2,0,0,0-1.61-.58,2.21,2.21,0,0,0-2.16,1.48,5.83,5.83,0,0,0-.42,2.36,4.45,4.45,0,0,0,.6,2.38,2,2,0,0,0,1.88,1,2.08,2.08,0,0,0,1.56-.6,3.24,3.24,0,0,0,.79-1.64h1.54a4.17,4.17,0,0,1-1.32,2.74,4.09,4.09,0,0,1-2.7.86,3.58,3.58,0,0,1-2.94-1.34,5.19,5.19,0,0,1-1.1-3.37,5.68,5.68,0,0,1,1.2-3.86,3.91,3.91,0,0,1,3.07-1.38A4.09,4.09,0,0,1,110.39,121.36Z"/><path class="cls-1" d="M120,121.8a4.75,4.75,0,0,1,1.25,3.56,6.16,6.16,0,0,1-1.1,3.76,4,4,0,0,1-3.41,1.49,3.81,3.81,0,0,1-3.06-1.32,5.17,5.17,0,0,1-1.14-3.52,5.64,5.64,0,0,1,1.2-3.78,4,4,0,0,1,3.21-1.4A4.2,4.2,0,0,1,120,121.8Zm-1,6.25a5.88,5.88,0,0,0,.58-2.64,4.71,4.71,0,0,0-.42-2.14,2.34,2.34,0,0,0-2.28-1.3,2.24,2.24,0,0,0-2.08,1.1,5.13,5.13,0,0,0-.65,2.67,4.43,4.43,0,0,0,.65,2.5,2.27,2.27,0,0,0,2.07,1A2.15,2.15,0,0,0,119,128.05Z"/><path class="cls-1" d="M123.18,120.86h1.51v1.34A4,4,0,0,1,126.1,121a3.78,3.78,0,0,1,1.66-.36,2.73,2.73,0,0,1,2.71,1.4,4.91,4.91,0,0,1,.39,2.18v6h-1.61v-5.93A3.22,3.22,0,0,0,129,123a1.55,1.55,0,0,0-1.53-.88,3,3,0,0,0-.92.12,2.37,2.37,0,0,0-1.14.77,2.28,2.28,0,0,0-.52,1,6.44,6.44,0,0,0-.12,1.42v4.93h-1.58Z"/><path class="cls-1" d="M138.37,121.15a4.39,4.39,0,0,1,.95.92v-4.75h1.52v13h-1.42V129a3.48,3.48,0,0,1-1.31,1.26,3.69,3.69,0,0,1-1.72.39,3.48,3.48,0,0,1-2.72-1.33,5.19,5.19,0,0,1-1.14-3.52,6.05,6.05,0,0,1,1-3.56,3.42,3.42,0,0,1,3-1.51A3.31,3.31,0,0,1,138.37,121.15Zm-3.54,7.06a2.24,2.24,0,0,0,2,1,2.16,2.16,0,0,0,1.8-.95,4.47,4.47,0,0,0,.7-2.71,4,4,0,0,0-.72-2.64,2.29,2.29,0,0,0-1.8-.86,2.38,2.38,0,0,0-1.93.92,4.21,4.21,0,0,0-.73,2.69A4.75,4.75,0,0,0,134.83,128.21Z"/><path class="cls-1" d="M143.2,117.36h1.61v1.79H143.2Zm0,3.54h1.61v9.37H143.2Z"/><path class="cls-1" d="M153.42,121.36a3.67,3.67,0,0,1,1.2,2.66h-1.54a2.73,2.73,0,0,0-.64-1.44,2,2,0,0,0-1.61-.58,2.22,2.22,0,0,0-2.16,1.48,5.83,5.83,0,0,0-.42,2.36,4.45,4.45,0,0,0,.6,2.38,2,2,0,0,0,1.88,1,2.08,2.08,0,0,0,1.56-.6,3.24,3.24,0,0,0,.79-1.64h1.54a4.08,4.08,0,0,1-1.32,2.74,3.7,3.7,0,0,1-2.44.86l-.62.86a2,2,0,0,1,.65-.08,1.48,1.48,0,0,1,1,.35,1.29,1.29,0,0,1,.4,1,1.52,1.52,0,0,1-.53,1.15,2.33,2.33,0,0,1-1.61.48,3.7,3.7,0,0,1-1-.13,7.53,7.53,0,0,1-.76-.24l.31-.72a4.74,4.74,0,0,0,.52.18,2.79,2.79,0,0,0,.66.1,1.6,1.6,0,0,0,.56-.1.67.67,0,0,0,.46-.67.65.65,0,0,0-.23-.49,1,1,0,0,0-.63-.2,1.9,1.9,0,0,0-.35,0,3,3,0,0,0-.36.12l-.31-.36.95-1.3a2.88,2.88,0,0,1-2.18-1,5.36,5.36,0,0,1-1.27-3.71,5.63,5.63,0,0,1,1.21-3.86,3.88,3.88,0,0,1,3.06-1.38A4.07,4.07,0,0,1,153.42,121.36Z"/><path class="cls-1" d="M163,121.8a4.71,4.71,0,0,1,1.25,3.56,6.1,6.1,0,0,1-1.1,3.76,4,4,0,0,1-3.41,1.49,3.81,3.81,0,0,1-3.06-1.32,5.17,5.17,0,0,1-1.14-3.52,5.64,5.64,0,0,1,1.2-3.78,4,4,0,0,1,3.21-1.4A4.2,4.2,0,0,1,163,121.8Zm-2.49-3.86a3.67,3.67,0,0,0,.45.17,1.4,1.4,0,0,0,.41.06.77.77,0,0,0,.7-.31,1.13,1.13,0,0,0,.16-.5h.92a2.39,2.39,0,0,1-.71,1.54,1.77,1.77,0,0,1-1.14.42,2,2,0,0,1-.49-.07,4.24,4.24,0,0,1-.53-.16l-.47-.16-.67-.23a1.77,1.77,0,0,0-.5-.07.66.66,0,0,0-.51.2,1.15,1.15,0,0,0-.27.61H157a3.19,3.19,0,0,1,.38-1.13,1.63,1.63,0,0,1,1.48-.81,2.88,2.88,0,0,1,.67.09A7.63,7.63,0,0,1,160.53,117.94ZM162,128.05a5.88,5.88,0,0,0,.58-2.64,4.71,4.71,0,0,0-.42-2.14,2.34,2.34,0,0,0-2.28-1.3,2.24,2.24,0,0,0-2.08,1.1,5.13,5.13,0,0,0-.65,2.67,4.43,4.43,0,0,0,.65,2.5,2.27,2.27,0,0,0,2.07,1A2.14,2.14,0,0,0,162,128.05Z"/><path class="cls-1" d="M172,121.12a3.5,3.5,0,0,1,1.42,1.22,4,4,0,0,1,.63,1.66,11.12,11.12,0,0,1,.14,2.07h-6.85a4.08,4.08,0,0,0,.68,2.31,2.23,2.23,0,0,0,1.94.86,2.49,2.49,0,0,0,2-.82,2.59,2.59,0,0,0,.58-1.1h1.56a3.31,3.31,0,0,1-.41,1.16,4.32,4.32,0,0,1-.77,1,3.71,3.71,0,0,1-1.78.95,5.45,5.45,0,0,1-1.28.14,3.94,3.94,0,0,1-3-1.28,5,5,0,0,1-1.21-3.58,5.42,5.42,0,0,1,1.22-3.69,4,4,0,0,1,3.2-1.41A4.29,4.29,0,0,1,172,121.12Zm.56,3.69a4.11,4.11,0,0,0-.44-1.64A2.28,2.28,0,0,0,170,122a2.41,2.41,0,0,0-1.82.78,3.06,3.06,0,0,0-.77,2Z"/><path class="cls-1" d="M177.17,127.32a2.19,2.19,0,0,0,.4,1.21,2.57,2.57,0,0,0,2.12.77,3.1,3.1,0,0,0,1.57-.39,1.25,1.25,0,0,0,.69-1.18,1,1,0,0,0-.55-.92,6.43,6.43,0,0,0-1.37-.45l-1.28-.32a6.26,6.26,0,0,1-1.81-.66,2,2,0,0,1-1-1.78,2.69,2.69,0,0,1,1-2.16,4,4,0,0,1,2.63-.83,3.69,3.69,0,0,1,3.11,1.25,2.69,2.69,0,0,1,.57,1.71H181.7a1.76,1.76,0,0,0-.39-1,2.47,2.47,0,0,0-1.93-.62,2.34,2.34,0,0,0-1.39.34,1,1,0,0,0-.47.9,1.1,1.1,0,0,0,.62,1,4,4,0,0,0,1.05.39l1.07.25a8.49,8.49,0,0,1,2.33.8,2.12,2.12,0,0,1,.92,1.91,2.87,2.87,0,0,1-1,2.17,4.13,4.13,0,0,1-2.94.91,4,4,0,0,1-3-.95,3.63,3.63,0,0,1-1-2.36Z"/><path class="cls-1" d="M188,117.36v2l1.92-.66.35,1-1.92.62,1.19,1.66-.87.62-1.15-1.72-1.16,1.72-.9-.62,1.2-1.66-1.93-.62.35-1,1.9.69v-2Z"/><path class="cls-1" d="M98.5,250a4.6,4.6,0,0,1,1.49,2.94H98.28a3.62,3.62,0,0,0-1.13-2,3.54,3.54,0,0,0-2.39-.73,3.78,3.78,0,0,0-3,1.34,6.2,6.2,0,0,0-1.16,4.11,6.11,6.11,0,0,0,1,3.69,3.62,3.62,0,0,0,3.11,1.41,3.27,3.27,0,0,0,2.89-1.49,5.81,5.81,0,0,0,.79-2.05h1.7a5.89,5.89,0,0,1-1.49,3.41,5.29,5.29,0,0,1-4.1,1.67,5.37,5.37,0,0,1-3.74-1.37c-1.33-1.2-2-3.06-2-5.56a7.15,7.15,0,0,1,1.5-4.69,5.4,5.4,0,0,1,4.45-2A5.18,5.18,0,0,1,98.5,250Z"/><path class="cls-1" d="M102.2,252.51h1.51v1.63a3.45,3.45,0,0,1,.9-1.16,2.37,2.37,0,0,1,1.66-.68h.15l.36,0V254l-.26,0h-.26a2.25,2.25,0,0,0-1.83.77,2.66,2.66,0,0,0-.64,1.77v5.41H102.2Z"/><path class="cls-1" d="M108.15,249h1.61v1.79h-1.61Zm0,3.54h1.61v9.37h-1.61Z"/><path class="cls-1" d="M118,252.77a3.56,3.56,0,0,1,1.42,1.22,4.14,4.14,0,0,1,.63,1.66,11.12,11.12,0,0,1,.14,2.07h-6.85A4.16,4.16,0,0,0,114,260a2.27,2.27,0,0,0,2,.86,2.49,2.49,0,0,0,2-.82,2.71,2.71,0,0,0,.58-1.1H120a3.31,3.31,0,0,1-.41,1.16,4.1,4.1,0,0,1-.78,1,3.63,3.63,0,0,1-1.77.95,5.45,5.45,0,0,1-1.28.14,3.94,3.94,0,0,1-3-1.28,5,5,0,0,1-1.21-3.58,5.42,5.42,0,0,1,1.22-3.69,4,4,0,0,1,3.2-1.41A4.32,4.32,0,0,1,118,252.77Zm.56,3.69a4.11,4.11,0,0,0-.44-1.64,2.28,2.28,0,0,0-2.15-1.14,2.38,2.38,0,0,0-1.82.79,3,3,0,0,0-.77,2Z"/><path class="cls-1" d="M127,252.55h1.55v1.25a3.72,3.72,0,0,1,1-1,3.34,3.34,0,0,1,1.88-.53,3.56,3.56,0,0,1,2.73,1.23,5,5,0,0,1,1.12,3.5c0,2.05-.54,3.52-1.62,4.39a3.62,3.62,0,0,1-2.38.84,3.24,3.24,0,0,1-1.79-.47,4,4,0,0,1-.95-.9v4.81H127Zm5.95,7.38a4.34,4.34,0,0,0,.74-2.77,5.06,5.06,0,0,0-.33-1.93,2.39,2.39,0,0,0-4.51.08,6.46,6.46,0,0,0-.33,2.24,4.67,4.67,0,0,0,.33,1.85,2.39,2.39,0,0,0,4.1.53Z"/><path class="cls-1" d="M137.22,252.51h1.5v1.63a3.51,3.51,0,0,1,.91-1.16,2.35,2.35,0,0,1,1.66-.68h.15l.36,0V254l-.26,0h-.26a2.27,2.27,0,0,0-1.84.77,2.66,2.66,0,0,0-.64,1.77v5.41h-1.58Z"/><path class="cls-1" d="M150,253.45a4.76,4.76,0,0,1,1.25,3.56,6.16,6.16,0,0,1-1.1,3.76,4,4,0,0,1-3.41,1.49,3.84,3.84,0,0,1-3.07-1.32,5.22,5.22,0,0,1-1.13-3.52,5.69,5.69,0,0,1,1.19-3.78,4,4,0,0,1,3.21-1.4A4.21,4.21,0,0,1,150,253.45Zm-1,6.26a6.09,6.09,0,0,0,.57-2.65,4.72,4.72,0,0,0-.41-2.14,2.34,2.34,0,0,0-2.28-1.3,2.26,2.26,0,0,0-2.09,1.1,5.23,5.23,0,0,0-.65,2.67,4.51,4.51,0,0,0,.65,2.5,2.3,2.3,0,0,0,2.07,1A2.16,2.16,0,0,0,149,259.71Z"/><path class="cls-1" d="M158.41,252.89a4.19,4.19,0,0,1,.91.89V252.6h1.46v8.56a6.35,6.35,0,0,1-.52,2.83,3.77,3.77,0,0,1-3.71,1.91,4.49,4.49,0,0,1-2.55-.68,2.63,2.63,0,0,1-1.15-2.13h1.6a1.84,1.84,0,0,0,.46,1,2.89,2.89,0,0,0,4.05-.76,7.25,7.25,0,0,0,.3-2.7,3.09,3.09,0,0,1-1.14,1.08,3.82,3.82,0,0,1-1.76.35A3.72,3.72,0,0,1,153.7,261a4.79,4.79,0,0,1-1.14-3.59,5.44,5.44,0,0,1,1.15-3.69,3.56,3.56,0,0,1,2.78-1.33A3.35,3.35,0,0,1,158.41,252.89Zm.2,1.69a2.3,2.3,0,0,0-1.83-.84,2.26,2.26,0,0,0-2.28,1.56,6.34,6.34,0,0,0-.32,2.19,3.94,3.94,0,0,0,.64,2.42,2.07,2.07,0,0,0,1.73.84,2.44,2.44,0,0,0,2.39-1.54,4.94,4.94,0,0,0,.38-2A4,4,0,0,0,158.61,254.58Z"/><path class="cls-1" d="M163.23,252.51h1.51v1.63a3.45,3.45,0,0,1,.9-1.16,2.37,2.37,0,0,1,1.66-.68h.15l.36,0V254l-.26,0h-.26a2.26,2.26,0,0,0-1.83.77,2.66,2.66,0,0,0-.64,1.77v5.41h-1.59Z"/><path class="cls-1" d="M174.23,256.23a.86.86,0,0,0,.73-.46,1.4,1.4,0,0,0,.1-.61,1.31,1.31,0,0,0-.57-1.18,3.09,3.09,0,0,0-1.64-.36,2.09,2.09,0,0,0-1.76.67,2.25,2.25,0,0,0-.38,1.1h-1.47a2.73,2.73,0,0,1,1.13-2.43,4.65,4.65,0,0,1,2.51-.68,5.16,5.16,0,0,1,2.7.63,2.16,2.16,0,0,1,1,2v5.43a.75.75,0,0,0,.1.39.49.49,0,0,0,.43.15h.24l.28,0V262a5.52,5.52,0,0,1-.56.13,4,4,0,0,1-.53,0,1.3,1.3,0,0,1-1.19-.58,2.12,2.12,0,0,1-.27-.86,4,4,0,0,1-1.39,1.09,4.29,4.29,0,0,1-2,.47,3,3,0,0,1-2.14-.8,2.59,2.59,0,0,1-.83-2,2.56,2.56,0,0,1,.81-2,3.9,3.9,0,0,1,2.15-.89Zm-3.33,4.27a1.86,1.86,0,0,0,1.18.39,3.57,3.57,0,0,0,1.62-.38,2.18,2.18,0,0,0,1.32-2.1v-1.27a2.7,2.7,0,0,1-.74.31,6.16,6.16,0,0,1-.9.17l-1,.13a3.45,3.45,0,0,0-1.29.36,1.38,1.38,0,0,0-.73,1.31A1.28,1.28,0,0,0,170.9,260.5Z"/><path class="cls-1" d="M179.2,252.51h1.56v1.34a5.12,5.12,0,0,1,1-1,3.1,3.1,0,0,1,1.77-.53,2.82,2.82,0,0,1,1.82.55,3,3,0,0,1,.7.93,3.26,3.26,0,0,1,2.84-1.48,2.62,2.62,0,0,1,2.58,1.37,4.41,4.41,0,0,1,.37,2v6.26h-1.64v-6.54a1.55,1.55,0,0,0-.47-1.29,1.91,1.91,0,0,0-1.15-.35,2.28,2.28,0,0,0-1.6.62,2.75,2.75,0,0,0-.68,2.09v5.47h-1.61v-6.14a3.25,3.25,0,0,0-.22-1.4,1.4,1.4,0,0,0-1.35-.66,2.29,2.29,0,0,0-1.63.7,3.39,3.39,0,0,0-.73,2.51v5H179.2Z"/><path class="cls-1" d="M199.23,256.23a.85.85,0,0,0,.73-.46,1.38,1.38,0,0,0,.11-.61,1.31,1.31,0,0,0-.57-1.18,3.16,3.16,0,0,0-1.65-.36,2.07,2.07,0,0,0-1.75.67,2.15,2.15,0,0,0-.38,1.1h-1.48a2.75,2.75,0,0,1,1.13-2.43,4.65,4.65,0,0,1,2.51-.68,5.14,5.14,0,0,1,2.7.63,2.17,2.17,0,0,1,1,2v5.43a.67.67,0,0,0,.1.39.48.48,0,0,0,.42.15h.24l.28,0V262a4.52,4.52,0,0,1-.56.13,3.87,3.87,0,0,1-.53,0,1.28,1.28,0,0,1-1.18-.58,2.28,2.28,0,0,1-.28-.86,4,4,0,0,1-1.38,1.09,4.33,4.33,0,0,1-2,.47,3,3,0,0,1-2.14-.8,2.63,2.63,0,0,1-.83-2,2.54,2.54,0,0,1,.82-2,3.87,3.87,0,0,1,2.14-.89Zm-3.33,4.27a1.89,1.89,0,0,0,1.19.39,3.57,3.57,0,0,0,1.62-.38,2.18,2.18,0,0,0,1.32-2.1v-1.27a2.92,2.92,0,0,1-.75.31,5.7,5.7,0,0,1-.9.17l-.95.13a3.4,3.4,0,0,0-1.29.36,1.39,1.39,0,0,0-.74,1.31A1.3,1.3,0,0,0,195.9,260.5Z"/><path class="cls-1" d="M210.42,253a3.75,3.75,0,0,1,1.2,2.66h-1.54a2.81,2.81,0,0,0-.64-1.44,2,2,0,0,0-1.61-.58,2.21,2.21,0,0,0-2.16,1.48,5.86,5.86,0,0,0-.42,2.36,4.54,4.54,0,0,0,.59,2.38,2.32,2.32,0,0,0,3.44.36,3.25,3.25,0,0,0,.8-1.64h1.54a4.17,4.17,0,0,1-1.32,2.74,3.72,3.72,0,0,1-2.44.87l-.63.85a2.37,2.37,0,0,1,.66-.08,1.49,1.49,0,0,1,1,.35,1.29,1.29,0,0,1,.4,1,1.51,1.51,0,0,1-.53,1.15,2.34,2.34,0,0,1-1.62.48,3.63,3.63,0,0,1-1-.13,7.53,7.53,0,0,1-.76-.24l.31-.72a4.11,4.11,0,0,0,.52.18,2.79,2.79,0,0,0,.65.1,1.61,1.61,0,0,0,.57-.1.68.68,0,0,0,.46-.67.64.64,0,0,0-.24-.49.92.92,0,0,0-.62-.2,1.83,1.83,0,0,0-.35,0,3,3,0,0,0-.36.12l-.31-.36.95-1.29a2.91,2.91,0,0,1-2.19-1,5.4,5.4,0,0,1-1.26-3.71,5.68,5.68,0,0,1,1.2-3.86,3.91,3.91,0,0,1,3.07-1.38A4.15,4.15,0,0,1,210.42,253Z"/><path class="cls-1" d="M220,253.45a4.76,4.76,0,0,1,1.25,3.56,6.16,6.16,0,0,1-1.1,3.76,4,4,0,0,1-3.41,1.49,3.84,3.84,0,0,1-3.07-1.32,5.22,5.22,0,0,1-1.13-3.52,5.69,5.69,0,0,1,1.19-3.78,4,4,0,0,1,3.22-1.4A4.2,4.2,0,0,1,220,253.45Zm-2.5-3.86.45.17a1.52,1.52,0,0,0,.42.06.78.78,0,0,0,.7-.31,1.13,1.13,0,0,0,.16-.5h.92a2.39,2.39,0,0,1-.71,1.54,1.79,1.79,0,0,1-1.14.42,2.11,2.11,0,0,1-.5-.07,4.06,4.06,0,0,1-.52-.16l-.47-.16-.67-.23a1.84,1.84,0,0,0-.51-.07.65.65,0,0,0-.5.2,1.08,1.08,0,0,0-.27.61H214a3,3,0,0,1,.38-1.13,1.62,1.62,0,0,1,1.48-.81,2.74,2.74,0,0,1,.66.09A7.13,7.13,0,0,1,217.52,249.59ZM219,259.71a6.09,6.09,0,0,0,.58-2.65,4.71,4.71,0,0,0-.42-2.14,2.34,2.34,0,0,0-2.28-1.3,2.24,2.24,0,0,0-2.08,1.1,5.13,5.13,0,0,0-.66,2.67,4.43,4.43,0,0,0,.66,2.5,2.27,2.27,0,0,0,2.07,1A2.16,2.16,0,0,0,219,259.71Z"/><path class="cls-1" d="M229,252.77a3.56,3.56,0,0,1,1.42,1.22,4.29,4.29,0,0,1,.63,1.66,11.12,11.12,0,0,1,.14,2.07h-6.85A4.08,4.08,0,0,0,225,260a2.27,2.27,0,0,0,2,.86,2.49,2.49,0,0,0,2-.82,2.71,2.71,0,0,0,.58-1.1h1.56a3.53,3.53,0,0,1-.41,1.16,4.1,4.1,0,0,1-.78,1,3.63,3.63,0,0,1-1.77.95,5.51,5.51,0,0,1-1.28.14,3.94,3.94,0,0,1-3-1.28,5,5,0,0,1-1.22-3.58,5.43,5.43,0,0,1,1.23-3.69,4,4,0,0,1,3.19-1.41A4.33,4.33,0,0,1,229,252.77Zm.56,3.69a4.11,4.11,0,0,0-.44-1.64,2.28,2.28,0,0,0-2.16-1.14,2.36,2.36,0,0,0-1.81.79,3,3,0,0,0-.77,2Z"/><path class="cls-1" d="M234.16,259a2.19,2.19,0,0,0,.41,1.21,2.55,2.55,0,0,0,2.11.77,3.11,3.11,0,0,0,1.58-.39,1.24,1.24,0,0,0,.68-1.18,1,1,0,0,0-.54-.92A6.37,6.37,0,0,0,237,258l-1.27-.31a6.53,6.53,0,0,1-1.81-.67,2,2,0,0,1-1-1.78,2.69,2.69,0,0,1,1-2.16,3.94,3.94,0,0,1,2.62-.83,3.66,3.66,0,0,1,3.11,1.25,2.7,2.7,0,0,1,.58,1.71H238.7a1.76,1.76,0,0,0-.39-1,2.49,2.49,0,0,0-1.93-.62A2.32,2.32,0,0,0,235,254a1.06,1.06,0,0,0-.48.9,1.12,1.12,0,0,0,.62,1,4,4,0,0,0,1.06.39l1.07.25a8.26,8.26,0,0,1,2.32.8,2.12,2.12,0,0,1,.93,1.91,2.87,2.87,0,0,1-1,2.17,4.13,4.13,0,0,1-2.94.91,4,4,0,0,1-3-.95,3.58,3.58,0,0,1-1-2.36Z"/><path class="cls-1" d="M242.56,263.77a1.13,1.13,0,0,0,.85-.86,2.35,2.35,0,0,0,.13-.77V262a.61.61,0,0,0,0-.11h-.95V260h1.88v1.77a3.76,3.76,0,0,1-.43,1.84,1.89,1.89,0,0,1-1.45,1Z"/><path class="cls-1" d="M89.9,270.64a2.42,2.42,0,0,1,2.13-.81h.31l.36,0v1.44l-.36,0h-.21c-.48,0-.77.12-.87.37a7.56,7.56,0,0,0-.14,1.9H92.7v1.25H91.12v8.12H89.56V274.8H88.25v-1.25h1.31v-1.47A2.71,2.71,0,0,1,89.9,270.64Z"/><path class="cls-1" d="M99.21,277.23a.88.88,0,0,0,.73-.46,1.4,1.4,0,0,0,.1-.61,1.31,1.31,0,0,0-.57-1.18,3.13,3.13,0,0,0-1.65-.36,2.07,2.07,0,0,0-1.75.67,2.25,2.25,0,0,0-.38,1.1H94.21A2.75,2.75,0,0,1,95.34,274a4.66,4.66,0,0,1,2.52-.68,5.13,5.13,0,0,1,2.69.63,2.15,2.15,0,0,1,1,2v5.43a.67.67,0,0,0,.1.39.49.49,0,0,0,.43.15h.23l.28,0V283a4.52,4.52,0,0,1-.56.13,3.79,3.79,0,0,1-.52,0,1.29,1.29,0,0,1-1.19-.58,2.12,2.12,0,0,1-.27-.86,4.14,4.14,0,0,1-1.39,1.09,4.33,4.33,0,0,1-2,.47,3,3,0,0,1-2.14-.8,2.63,2.63,0,0,1-.83-2,2.54,2.54,0,0,1,.82-2,3.87,3.87,0,0,1,2.14-.89Zm-3.33,4.27a1.84,1.84,0,0,0,1.18.39,3.57,3.57,0,0,0,1.62-.38,2.18,2.18,0,0,0,1.32-2.1v-1.27a2.78,2.78,0,0,1-.75.31,5.8,5.8,0,0,1-.89.17l-1,.13a3.45,3.45,0,0,0-1.29.36,1.39,1.39,0,0,0-.74,1.31A1.28,1.28,0,0,0,95.88,281.5Z"/><path class="cls-1" d="M105.11,280a2.19,2.19,0,0,0,.41,1.21,2.55,2.55,0,0,0,2.11.77,3.11,3.11,0,0,0,1.58-.39,1.24,1.24,0,0,0,.68-1.18,1,1,0,0,0-.54-.92A6.37,6.37,0,0,0,108,279l-1.27-.31a6.53,6.53,0,0,1-1.81-.67,2,2,0,0,1-1-1.78,2.69,2.69,0,0,1,1-2.16,3.94,3.94,0,0,1,2.62-.83,3.66,3.66,0,0,1,3.11,1.25,2.7,2.7,0,0,1,.58,1.71h-1.49a1.76,1.76,0,0,0-.39-1,2.49,2.49,0,0,0-1.93-.62,2.32,2.32,0,0,0-1.39.34,1.06,1.06,0,0,0-.48.9,1.12,1.12,0,0,0,.62,1,4,4,0,0,0,1.06.39l1.07.25a8.49,8.49,0,0,1,2.33.8,2.14,2.14,0,0,1,.92,1.91,2.87,2.87,0,0,1-1,2.17,4.13,4.13,0,0,1-2.94.91,4,4,0,0,1-3-.95,3.58,3.58,0,0,1-1-2.36Z"/><path class="cls-1" d="M119,273.77a3.56,3.56,0,0,1,1.42,1.22,4.29,4.29,0,0,1,.63,1.66,11.12,11.12,0,0,1,.14,2.07h-6.85A4.08,4.08,0,0,0,115,281a2.27,2.27,0,0,0,2,.86,2.49,2.49,0,0,0,2-.82,2.71,2.71,0,0,0,.58-1.1h1.56a3.31,3.31,0,0,1-.41,1.16,4.1,4.1,0,0,1-.78,1,3.63,3.63,0,0,1-1.77.95,5.51,5.51,0,0,1-1.28.14,3.94,3.94,0,0,1-3-1.28,5,5,0,0,1-1.21-3.58,5.42,5.42,0,0,1,1.22-3.69,4,4,0,0,1,3.2-1.41A4.32,4.32,0,0,1,119,273.77Zm.56,3.69a4.11,4.11,0,0,0-.44-1.64,2.28,2.28,0,0,0-2.15-1.14,2.38,2.38,0,0,0-1.82.79,3,3,0,0,0-.77,2Z"/><path class="cls-1" d="M124.12,280a2.28,2.28,0,0,0,.41,1.21,2.55,2.55,0,0,0,2.11.77,3.11,3.11,0,0,0,1.58-.39,1.24,1.24,0,0,0,.68-1.18,1,1,0,0,0-.54-.92A6.37,6.37,0,0,0,127,279l-1.27-.31a6.53,6.53,0,0,1-1.81-.67,2,2,0,0,1-1-1.78,2.69,2.69,0,0,1,1-2.16,3.94,3.94,0,0,1,2.62-.83,3.66,3.66,0,0,1,3.11,1.25,2.7,2.7,0,0,1,.58,1.71h-1.49a1.76,1.76,0,0,0-.39-1,2.49,2.49,0,0,0-1.93-.62A2.34,2.34,0,0,0,125,275a1.06,1.06,0,0,0-.48.9,1.11,1.11,0,0,0,.63,1,3.81,3.81,0,0,0,1.05.39l1.07.25a8.49,8.49,0,0,1,2.33.8,2.14,2.14,0,0,1,.92,1.91,2.87,2.87,0,0,1-1,2.17,4.13,4.13,0,0,1-2.94.91,4,4,0,0,1-3-.95,3.58,3.58,0,0,1-1-2.36Z"/><path class="cls-1" d="M143,273.77a3.5,3.5,0,0,1,1.42,1.22,4,4,0,0,1,.63,1.66,11.12,11.12,0,0,1,.14,2.07h-6.85A4.08,4.08,0,0,0,139,281a2.23,2.23,0,0,0,1.94.86,2.49,2.49,0,0,0,2-.82,2.59,2.59,0,0,0,.58-1.1h1.56a3.31,3.31,0,0,1-.41,1.16,4.32,4.32,0,0,1-.77,1,3.71,3.71,0,0,1-1.78.95,5.45,5.45,0,0,1-1.28.14,3.94,3.94,0,0,1-3-1.28,5,5,0,0,1-1.21-3.58,5.42,5.42,0,0,1,1.22-3.69,4,4,0,0,1,3.2-1.41A4.29,4.29,0,0,1,143,273.77Zm.56,3.69a4.11,4.11,0,0,0-.44-1.64,2.28,2.28,0,0,0-2.15-1.14,2.38,2.38,0,0,0-1.82.79,3,3,0,0,0-.77,2Z"/><path class="cls-1" d="M158,273.77a3.5,3.5,0,0,1,1.42,1.22,4,4,0,0,1,.63,1.66,10.3,10.3,0,0,1,.14,2.07h-6.84A4,4,0,0,0,154,281a2.25,2.25,0,0,0,1.94.86,2.47,2.47,0,0,0,2-.82,2.59,2.59,0,0,0,.58-1.1h1.56a3.31,3.31,0,0,1-.41,1.16,4.32,4.32,0,0,1-.77,1,3.72,3.72,0,0,1-1.77.95,5.6,5.6,0,0,1-1.29.14,3.94,3.94,0,0,1-3-1.28,5,5,0,0,1-1.21-3.58,5.47,5.47,0,0,1,1.22-3.69,4,4,0,0,1,3.2-1.41A4.29,4.29,0,0,1,158,273.77Zm.57,3.69a4.27,4.27,0,0,0-.45-1.64,2.28,2.28,0,0,0-2.15-1.14,2.34,2.34,0,0,0-1.81.79,3,3,0,0,0-.78,2Z"/><path class="cls-1" d="M162.52,270.88h1.6v2.63h1.5v1.29h-1.5V281a.65.65,0,0,0,.34.65,1.29,1.29,0,0,0,.61.1h.25l.3,0v1.25a3.48,3.48,0,0,1-.56.12,6.4,6.4,0,0,1-.64,0,1.72,1.72,0,0,1-1.5-.56,2.49,2.49,0,0,1-.4-1.48V274.8h-1.27v-1.29h1.27Z"/><path class="cls-1" d="M172.25,277.23a.85.85,0,0,0,.73-.46,1.38,1.38,0,0,0,.11-.61,1.29,1.29,0,0,0-.58-1.18,3.09,3.09,0,0,0-1.64-.36,2.09,2.09,0,0,0-1.76.67,2.16,2.16,0,0,0-.37,1.1h-1.48a2.75,2.75,0,0,1,1.13-2.43,4.65,4.65,0,0,1,2.51-.68,5.14,5.14,0,0,1,2.7.63,2.16,2.16,0,0,1,1,2v5.43a.67.67,0,0,0,.11.39c.06.1.21.15.42.15h.24l.28,0V283a5,5,0,0,1-.56.13,4,4,0,0,1-.53,0,1.31,1.31,0,0,1-1.19-.58,2.29,2.29,0,0,1-.27-.86,4,4,0,0,1-1.39,1.09,4.29,4.29,0,0,1-2,.47,3,3,0,0,1-2.14-.8,2.59,2.59,0,0,1-.83-2,2.56,2.56,0,0,1,.81-2,3.9,3.9,0,0,1,2.15-.89Zm-3.33,4.27a1.87,1.87,0,0,0,1.19.39,3.56,3.56,0,0,0,1.61-.38,2.18,2.18,0,0,0,1.32-2.1v-1.27a2.7,2.7,0,0,1-.74.31,5.92,5.92,0,0,1-.9.17l-1,.13a3.46,3.46,0,0,0-1.3.36,1.38,1.38,0,0,0-.73,1.31A1.3,1.3,0,0,0,168.92,281.5Z"/><path class="cls-1" d="M177.09,273.55h1.54v1.25a3.86,3.86,0,0,1,1-1,3.4,3.4,0,0,1,1.89-.53,3.53,3.53,0,0,1,2.72,1.23,5,5,0,0,1,1.12,3.5c0,2.05-.54,3.52-1.61,4.39a3.67,3.67,0,0,1-2.39.84,3.24,3.24,0,0,1-1.79-.47,3.82,3.82,0,0,1-.94-.9v4.81h-1.58Zm5.95,7.38a4.4,4.4,0,0,0,.73-2.77,5.07,5.07,0,0,0-.32-1.93,2.4,2.4,0,0,0-4.52.08,6.48,6.48,0,0,0-.32,2.24,4.68,4.68,0,0,0,.32,1.85,2.4,2.4,0,0,0,4.11.53Z"/><path class="cls-1" d="M192.27,277.23a.85.85,0,0,0,.73-.46,1.38,1.38,0,0,0,.11-.61,1.29,1.29,0,0,0-.58-1.18,3.09,3.09,0,0,0-1.64-.36,2.09,2.09,0,0,0-1.76.67,2.25,2.25,0,0,0-.37,1.1h-1.48a2.75,2.75,0,0,1,1.13-2.43,4.65,4.65,0,0,1,2.51-.68,5.14,5.14,0,0,1,2.7.63,2.17,2.17,0,0,1,1,2v5.43a.67.67,0,0,0,.1.39c.06.1.21.15.42.15h.24l.28,0V283a4.52,4.52,0,0,1-.56.13,3.87,3.87,0,0,1-.53,0,1.28,1.28,0,0,1-1.18-.58,2.28,2.28,0,0,1-.28-.86,4,4,0,0,1-1.39,1.09,4.26,4.26,0,0,1-2,.47,3,3,0,0,1-2.14-.8,2.63,2.63,0,0,1-.83-2,2.54,2.54,0,0,1,.82-2,3.87,3.87,0,0,1,2.14-.89Zm-3.33,4.27a1.89,1.89,0,0,0,1.19.39,3.6,3.6,0,0,0,1.62-.38,2.19,2.19,0,0,0,1.31-2.1v-1.27a2.7,2.7,0,0,1-.74.31,5.92,5.92,0,0,1-.9.17l-.95.13a3.4,3.4,0,0,0-1.29.36,1.39,1.39,0,0,0-.74,1.31A1.3,1.3,0,0,0,188.94,281.5Z"/><path class="cls-1" d="M198.18,280a2.28,2.28,0,0,0,.4,1.21,2.58,2.58,0,0,0,2.12.77,3.14,3.14,0,0,0,1.58-.39,1.26,1.26,0,0,0,.68-1.18,1,1,0,0,0-.54-.92A6.58,6.58,0,0,0,201,279l-1.28-.31A6.57,6.57,0,0,1,198,278a2,2,0,0,1-1-1.78,2.7,2.7,0,0,1,1-2.16,3.92,3.92,0,0,1,2.62-.83,3.68,3.68,0,0,1,3.11,1.25,2.7,2.7,0,0,1,.58,1.71h-1.5a1.75,1.75,0,0,0-.38-1,2.5,2.5,0,0,0-1.94-.62A2.36,2.36,0,0,0,199,275a1.08,1.08,0,0,0-.47.9,1.12,1.12,0,0,0,.62,1,3.9,3.9,0,0,0,1.06.39l1.06.25a8.36,8.36,0,0,1,2.33.8,2.12,2.12,0,0,1,.93,1.91,2.9,2.9,0,0,1-1,2.17,4.13,4.13,0,0,1-2.94.91,4,4,0,0,1-3-.95,3.58,3.58,0,0,1-1-2.36Z"/><path class="cls-1" d="M89.54,324.57h9.37v1.59H91.24v3.92h7.09v1.49H91.24V336H99v1.54h-9.5Z"/><path class="cls-1" d="M101.17,328.07h1.56v1.34a5.6,5.6,0,0,1,1-1,3,3,0,0,1,1.78-.54,2.8,2.8,0,0,1,1.81.56,3,3,0,0,1,.7.93,3.29,3.29,0,0,1,1.24-1.12,3.37,3.37,0,0,1,1.6-.37,2.62,2.62,0,0,1,2.58,1.37,4.44,4.44,0,0,1,.37,2v6.27h-1.64V331a1.55,1.55,0,0,0-.47-1.3,1.91,1.91,0,0,0-1.15-.35,2.24,2.24,0,0,0-1.6.63,2.72,2.72,0,0,0-.68,2.08v5.48h-1.6v-6.15a3.25,3.25,0,0,0-.23-1.4,1.39,1.39,0,0,0-1.35-.65,2.32,2.32,0,0,0-1.63.69,3.39,3.39,0,0,0-.73,2.51v5h-1.58Z"/><path class="cls-1" d="M116.16,324.57h1.61v1.8h-1.61Zm0,3.55h1.61v9.37h-1.61Z"/><path class="cls-1" d="M120.48,325.44h1.6v2.63h1.5v1.29h-1.5v6.15a.67.67,0,0,0,.33.66,1.5,1.5,0,0,0,.61.09h.25l.31,0v1.26a3.38,3.38,0,0,1-.57.11,6.4,6.4,0,0,1-.64,0,1.71,1.71,0,0,1-1.5-.56,2.55,2.55,0,0,1-.39-1.47v-6.24H119.2v-1.29h1.28Z"/><path class="cls-1" d="M130.21,331.79a.85.85,0,0,0,.72-.46,1.38,1.38,0,0,0,.11-.61,1.28,1.28,0,0,0-.57-1.17,3.06,3.06,0,0,0-1.65-.37,2.07,2.07,0,0,0-1.75.67,2.19,2.19,0,0,0-.38,1.11h-1.48a2.73,2.73,0,0,1,1.13-2.43,4.58,4.58,0,0,1,2.52-.69,5,5,0,0,1,2.69.64,2.13,2.13,0,0,1,1,2v5.42a.67.67,0,0,0,.1.39.49.49,0,0,0,.43.15h.23l.28,0v1.17a4.52,4.52,0,0,1-.56.13,3.6,3.6,0,0,1-.53,0,1.3,1.3,0,0,1-1.18-.58,2.23,2.23,0,0,1-.27-.87,4.16,4.16,0,0,1-1.39,1.1,4.33,4.33,0,0,1-2,.46,3,3,0,0,1-2.14-.79,2.66,2.66,0,0,1-.83-2,2.55,2.55,0,0,1,.82-2,3.94,3.94,0,0,1,2.14-.89Zm-3.34,4.27a1.84,1.84,0,0,0,1.19.4,3.58,3.58,0,0,0,1.62-.39A2.18,2.18,0,0,0,131,334V332.7a2.92,2.92,0,0,1-.75.31,7.39,7.39,0,0,1-.89.18l-1,.12a3.45,3.45,0,0,0-1.29.36,1.39,1.39,0,0,0-.74,1.31A1.3,1.3,0,0,0,126.87,336.06Z"/><path class="cls-1" d="M146.39,328.57a3.73,3.73,0,0,1,1.2,2.67h-1.54a2.84,2.84,0,0,0-.64-1.45,2,2,0,0,0-1.61-.58,2.22,2.22,0,0,0-2.16,1.48,5.86,5.86,0,0,0-.42,2.36,4.43,4.43,0,0,0,.6,2.38,2,2,0,0,0,1.88,1,2.08,2.08,0,0,0,1.56-.6,3.27,3.27,0,0,0,.79-1.65h1.54a4.17,4.17,0,0,1-1.32,2.74,4.09,4.09,0,0,1-2.7.87,3.59,3.59,0,0,1-2.94-1.35,5.17,5.17,0,0,1-1.1-3.37,5.7,5.7,0,0,1,1.2-3.86,3.91,3.91,0,0,1,3.07-1.38A4.15,4.15,0,0,1,146.39,328.57Z"/><path class="cls-1" d="M155,328.33a3.64,3.64,0,0,1,1.42,1.22,4.35,4.35,0,0,1,.63,1.66,11.12,11.12,0,0,1,.14,2.07h-6.85a4.08,4.08,0,0,0,.67,2.31,2.25,2.25,0,0,0,1.95.87,2.52,2.52,0,0,0,2-.82,2.81,2.81,0,0,0,.58-1.11h1.56a3.31,3.31,0,0,1-.41,1.16,4.1,4.1,0,0,1-.78,1,3.63,3.63,0,0,1-1.77.95,5.51,5.51,0,0,1-1.28.14,3.94,3.94,0,0,1-3-1.28,5,5,0,0,1-1.21-3.58,5.4,5.4,0,0,1,1.22-3.68,4,4,0,0,1,3.2-1.42A4.32,4.32,0,0,1,155,328.33Zm.56,3.7a4.12,4.12,0,0,0-.44-1.65,2.28,2.28,0,0,0-2.15-1.14,2.38,2.38,0,0,0-1.82.79,3,3,0,0,0-.77,2Z"/><path class="cls-1" d="M159.23,328.07h1.5v1.63a3.55,3.55,0,0,1,.9-1.16,2.4,2.4,0,0,1,1.67-.68h.15l.36,0v1.67l-.26,0h-.26a2.27,2.27,0,0,0-1.84.77,2.66,2.66,0,0,0-.64,1.77v5.42h-1.58Z"/><path class="cls-1" d="M165.49,325.44h1.6v2.63h1.51v1.29h-1.51v6.15a.66.66,0,0,0,.34.66,1.47,1.47,0,0,0,.61.09h.25l.31,0v1.26a3.82,3.82,0,0,1-.57.11,6.4,6.4,0,0,1-.64,0,1.7,1.7,0,0,1-1.5-.56,2.48,2.48,0,0,1-.4-1.47v-6.24h-1.27v-1.29h1.27Z"/><path class="cls-1" d="M170.18,324.57h1.61v1.8h-1.61Zm0,3.55h1.61v9.37h-1.61Z"/><path class="cls-1" d="M174.92,325.2a2.4,2.4,0,0,1,2.13-.81h.31l.36,0v1.45l-.36,0h-.21c-.49,0-.78.12-.87.37a7.18,7.18,0,0,0-.14,1.91h1.58v1.24h-1.58v8.13h-1.57v-8.13h-1.31v-1.24h1.31v-1.48A2.8,2.8,0,0,1,174.92,325.2Z"/><path class="cls-1" d="M179.18,324.57h1.61v1.8h-1.61Zm0,3.55h1.61v9.37h-1.61Z"/><path class="cls-1" d="M189.4,328.57a3.73,3.73,0,0,1,1.19,2.67h-1.53a2.93,2.93,0,0,0-.64-1.45,2.07,2.07,0,0,0-1.61-.58,2.24,2.24,0,0,0-2.17,1.48,5.86,5.86,0,0,0-.42,2.36,4.43,4.43,0,0,0,.6,2.38,2.32,2.32,0,0,0,3.44.37,3.37,3.37,0,0,0,.8-1.65h1.53a3.71,3.71,0,0,1-4,3.61,3.62,3.62,0,0,1-3-1.35,5.17,5.17,0,0,1-1.09-3.37,5.7,5.7,0,0,1,1.2-3.86,3.88,3.88,0,0,1,3.07-1.38A4.15,4.15,0,0,1,189.4,328.57Z"/><path class="cls-1" d="M197.22,331.79a.86.86,0,0,0,.73-.46,1.38,1.38,0,0,0,.11-.61,1.27,1.27,0,0,0-.58-1.17,3,3,0,0,0-1.64-.37,2.09,2.09,0,0,0-1.76.67,2.2,2.2,0,0,0-.37,1.11h-1.48a2.7,2.7,0,0,1,1.13-2.43,4.57,4.57,0,0,1,2.51-.69,5,5,0,0,1,2.7.64,2.14,2.14,0,0,1,1,2v5.42a.67.67,0,0,0,.11.39c.06.1.21.15.42.15h.24l.28,0v1.17a5,5,0,0,1-.56.13,3.7,3.7,0,0,1-.53,0,1.33,1.33,0,0,1-1.19-.58,2.41,2.41,0,0,1-.27-.87,4,4,0,0,1-1.39,1.1,4.29,4.29,0,0,1-2,.46,3,3,0,0,1-2.14-.79,2.63,2.63,0,0,1-.83-2,2.58,2.58,0,0,1,.81-2,4,4,0,0,1,2.15-.89Zm-3.33,4.27a1.82,1.82,0,0,0,1.19.4,3.57,3.57,0,0,0,1.61-.39A2.18,2.18,0,0,0,198,334V332.7a2.7,2.7,0,0,1-.74.31,7.54,7.54,0,0,1-.9.18l-1,.12a3.46,3.46,0,0,0-1.3.36,1.38,1.38,0,0,0-.73,1.31A1.3,1.3,0,0,0,193.89,336.06Z"/><path class="cls-1" d="M207.36,328.36a4.26,4.26,0,0,1,.95.93v-4.76h1.52v13h-1.42v-1.31a3.43,3.43,0,0,1-1.3,1.25,3.74,3.74,0,0,1-1.73.39,3.48,3.48,0,0,1-2.71-1.32,5.18,5.18,0,0,1-1.15-3.52,6.11,6.11,0,0,1,1-3.57,3.41,3.41,0,0,1,3-1.5A3.36,3.36,0,0,1,207.36,328.36Zm-3.53,7.06a2.23,2.23,0,0,0,2,1,2.16,2.16,0,0,0,1.8-.95,4.46,4.46,0,0,0,.71-2.71,4,4,0,0,0-.73-2.64,2.25,2.25,0,0,0-1.79-.85,2.35,2.35,0,0,0-1.93.91,4.23,4.23,0,0,0-.74,2.69A4.64,4.64,0,0,0,203.83,335.42Z"/><path class="cls-1" d="M219,329a4.77,4.77,0,0,1,1.25,3.57,6.18,6.18,0,0,1-1.1,3.76,4,4,0,0,1-3.42,1.48,3.86,3.86,0,0,1-3.06-1.31,5.2,5.2,0,0,1-1.13-3.53,5.69,5.69,0,0,1,1.19-3.78,4,4,0,0,1,3.21-1.4A4.21,4.21,0,0,1,219,329Zm-1,6.26a6.09,6.09,0,0,0,.57-2.65,4.72,4.72,0,0,0-.41-2.14,2.34,2.34,0,0,0-2.28-1.3,2.25,2.25,0,0,0-2.09,1.11,5.16,5.16,0,0,0-.65,2.66,4.54,4.54,0,0,0,.65,2.51,2.32,2.32,0,0,0,2.07,1A2.17,2.17,0,0,0,218,335.27Z"/><path class="cls-1" d="M223.15,334.53a2.35,2.35,0,0,0,.4,1.22,2.61,2.61,0,0,0,2.12.76,3.24,3.24,0,0,0,1.58-.38,1.28,1.28,0,0,0,.68-1.18,1,1,0,0,0-.54-.93,6.58,6.58,0,0,0-1.38-.45l-1.28-.31a6.26,6.26,0,0,1-1.8-.67,2,2,0,0,1-1-1.78,2.7,2.7,0,0,1,1-2.16,3.92,3.92,0,0,1,2.62-.82,3.67,3.67,0,0,1,3.11,1.24,2.7,2.7,0,0,1,.58,1.71h-1.5a1.75,1.75,0,0,0-.38-1,2.53,2.53,0,0,0-1.94-.62,2.36,2.36,0,0,0-1.39.34,1.08,1.08,0,0,0-.47.9,1.1,1.1,0,0,0,.62,1,3.59,3.59,0,0,0,1.06.39l1.06.25a8.71,8.71,0,0,1,2.33.8,2.12,2.12,0,0,1,.93,1.91,2.9,2.9,0,0,1-1,2.17,4.13,4.13,0,0,1-2.94.92,4,4,0,0,1-3-1,3.56,3.56,0,0,1-1-2.36Z"/><path class="cls-1" d="M242,328.33a3.61,3.61,0,0,1,1.43,1.22,4.35,4.35,0,0,1,.63,1.66,11.12,11.12,0,0,1,.14,2.07h-6.85a4.08,4.08,0,0,0,.67,2.31,2.25,2.25,0,0,0,2,.87,2.52,2.52,0,0,0,2-.82,2.81,2.81,0,0,0,.58-1.11h1.55a3.27,3.27,0,0,1-.4,1.16,4.35,4.35,0,0,1-.78,1,3.72,3.72,0,0,1-1.77.95,5.51,5.51,0,0,1-1.28.14,3.93,3.93,0,0,1-3-1.28,5,5,0,0,1-1.22-3.58,5.4,5.4,0,0,1,1.23-3.68,4,4,0,0,1,3.19-1.42A4.26,4.26,0,0,1,242,328.33Zm.57,3.7a4.12,4.12,0,0,0-.44-1.65,2.28,2.28,0,0,0-2.16-1.14,2.36,2.36,0,0,0-1.81.79,2.92,2.92,0,0,0-.77,2Z"/><path class="cls-1" d="M94.33,349.36a4.49,4.49,0,0,1,1,.93v-4.76h1.52v13H95.38v-1.31a3.43,3.43,0,0,1-1.3,1.25,3.71,3.71,0,0,1-1.73.39,3.48,3.48,0,0,1-2.71-1.32A5.23,5.23,0,0,1,88.49,354a6.11,6.11,0,0,1,1.05-3.57,3.42,3.42,0,0,1,3-1.5A3.34,3.34,0,0,1,94.33,349.36Zm-3.53,7.06a2.24,2.24,0,0,0,2,1,2.14,2.14,0,0,0,1.79-.95,4.46,4.46,0,0,0,.71-2.71,4,4,0,0,0-.73-2.64,2.25,2.25,0,0,0-1.79-.85,2.36,2.36,0,0,0-1.93.91,4.23,4.23,0,0,0-.74,2.69A4.73,4.73,0,0,0,90.8,356.42Z"/><path class="cls-1" d="M105,349.33a3.64,3.64,0,0,1,1.42,1.22,4.35,4.35,0,0,1,.63,1.66,11.12,11.12,0,0,1,.14,2.07h-6.85a4.08,4.08,0,0,0,.67,2.31,2.25,2.25,0,0,0,2,.87,2.52,2.52,0,0,0,2-.82,2.81,2.81,0,0,0,.58-1.11h1.56a3.53,3.53,0,0,1-.41,1.16,4.1,4.1,0,0,1-.78,1,3.63,3.63,0,0,1-1.77.95,5.51,5.51,0,0,1-1.28.14,3.94,3.94,0,0,1-3-1.28A5,5,0,0,1,98.63,354a5.4,5.4,0,0,1,1.23-3.68,4,4,0,0,1,3.19-1.42A4.33,4.33,0,0,1,105,349.33Zm.56,3.7a4.12,4.12,0,0,0-.44-1.65,2.28,2.28,0,0,0-2.16-1.14,2.36,2.36,0,0,0-1.81.79,3,3,0,0,0-.77,2Z"/><path class="cls-1" d="M115.4,349.57a3.77,3.77,0,0,1,1.2,2.67h-1.54a2.84,2.84,0,0,0-.64-1.45,2,2,0,0,0-1.61-.58,2.22,2.22,0,0,0-2.16,1.48,5.86,5.86,0,0,0-.42,2.36,4.43,4.43,0,0,0,.6,2.38,2,2,0,0,0,1.88,1,2.08,2.08,0,0,0,1.56-.6,3.27,3.27,0,0,0,.79-1.65h1.54a4.17,4.17,0,0,1-1.32,2.74,4.09,4.09,0,0,1-2.7.87,3.59,3.59,0,0,1-2.94-1.35,5.17,5.17,0,0,1-1.1-3.37,5.7,5.7,0,0,1,1.2-3.86,3.91,3.91,0,0,1,3.07-1.38A4.15,4.15,0,0,1,115.4,349.57Z"/><path class="cls-1" d="M118.23,345.57h1.58v12.92h-1.58Z"/><path class="cls-1" d="M127.23,352.79a.88.88,0,0,0,.73-.46,1.4,1.4,0,0,0,.1-.61,1.28,1.28,0,0,0-.57-1.17,3.06,3.06,0,0,0-1.65-.37,2.07,2.07,0,0,0-1.75.67,2.19,2.19,0,0,0-.38,1.11h-1.48a2.73,2.73,0,0,1,1.13-2.43,4.58,4.58,0,0,1,2.52-.69,5,5,0,0,1,2.69.64,2.13,2.13,0,0,1,1,2v5.42a.67.67,0,0,0,.1.39.49.49,0,0,0,.43.15h.23l.28,0v1.17a4.52,4.52,0,0,1-.56.13,3.6,3.6,0,0,1-.53,0,1.3,1.3,0,0,1-1.18-.58,2.23,2.23,0,0,1-.27-.87,4.16,4.16,0,0,1-1.39,1.1,4.33,4.33,0,0,1-2,.46,3,3,0,0,1-2.14-.79,2.66,2.66,0,0,1-.83-2,2.55,2.55,0,0,1,.82-2,3.94,3.94,0,0,1,2.14-.89Zm-3.34,4.27a1.84,1.84,0,0,0,1.19.4,3.58,3.58,0,0,0,1.62-.39A2.18,2.18,0,0,0,128,355V353.7a2.78,2.78,0,0,1-.75.31,7.39,7.39,0,0,1-.89.18l-1,.12a3.45,3.45,0,0,0-1.29.36,1.39,1.39,0,0,0-.74,1.31A1.3,1.3,0,0,0,123.89,357.06Z"/><path class="cls-1" d="M132.24,349.07h1.5v1.63a3.55,3.55,0,0,1,.9-1.16,2.37,2.37,0,0,1,1.66-.68h.15l.36,0v1.67l-.26,0h-.25a2.27,2.27,0,0,0-1.84.77,2.66,2.66,0,0,0-.64,1.77v5.42h-1.58Z"/><path class="cls-1" d="M143.23,352.79a.86.86,0,0,0,.73-.46,1.38,1.38,0,0,0,.11-.61,1.29,1.29,0,0,0-.58-1.17,3,3,0,0,0-1.64-.37,2.09,2.09,0,0,0-1.76.67,2.29,2.29,0,0,0-.38,1.11h-1.47a2.7,2.7,0,0,1,1.13-2.43,4.57,4.57,0,0,1,2.51-.69,5,5,0,0,1,2.7.64,2.14,2.14,0,0,1,1,2v5.42a.67.67,0,0,0,.11.39q.09.15.42.15h.24l.28,0v1.17a5,5,0,0,1-.56.13,3.7,3.7,0,0,1-.53,0,1.32,1.32,0,0,1-1.19-.58,2.23,2.23,0,0,1-.27-.87,4,4,0,0,1-1.39,1.1,4.29,4.29,0,0,1-2,.46,3,3,0,0,1-2.14-.79,2.63,2.63,0,0,1-.83-2,2.58,2.58,0,0,1,.81-2,4,4,0,0,1,2.15-.89Zm-3.33,4.27a1.82,1.82,0,0,0,1.19.4,3.57,3.57,0,0,0,1.61-.39A2.18,2.18,0,0,0,144,355V353.7a2.7,2.7,0,0,1-.74.31,8,8,0,0,1-.9.18l-1,.12a3.45,3.45,0,0,0-1.29.36,1.38,1.38,0,0,0-.73,1.31A1.3,1.3,0,0,0,139.9,357.06Z"/><path class="cls-1" d="M154.42,349.57a3.73,3.73,0,0,1,1.19,2.67h-1.53a2.85,2.85,0,0,0-.65-1.45,2,2,0,0,0-1.6-.58,2.24,2.24,0,0,0-2.17,1.48,5.86,5.86,0,0,0-.42,2.36,4.43,4.43,0,0,0,.6,2.38,2.32,2.32,0,0,0,3.44.37,3.37,3.37,0,0,0,.8-1.65h1.53a4.12,4.12,0,0,1-1.31,2.74,3.75,3.75,0,0,1-2.45.87l-.62.85a2.37,2.37,0,0,1,.66-.08,1.47,1.47,0,0,1,1,.36,1.28,1.28,0,0,1,.39,1,1.5,1.5,0,0,1-.52,1.15,2.29,2.29,0,0,1-1.62.49,4.25,4.25,0,0,1-1-.13c-.18-.05-.44-.13-.75-.25l.31-.71a5,5,0,0,0,.52.17,2.29,2.29,0,0,0,.65.1,1.37,1.37,0,0,0,.56-.1.65.65,0,0,0,.46-.66.64.64,0,0,0-.23-.49.91.91,0,0,0-.62-.21,1.25,1.25,0,0,0-.35,0,2.45,2.45,0,0,0-.37.11l-.31-.36,1-1.29a2.92,2.92,0,0,1-2.19-1,5.45,5.45,0,0,1-1.27-3.72,5.7,5.7,0,0,1,1.21-3.86,3.88,3.88,0,0,1,3.07-1.38A4.15,4.15,0,0,1,154.42,349.57Z"/><path class="cls-1" d="M164,350a4.77,4.77,0,0,1,1.24,3.57,6.18,6.18,0,0,1-1.09,3.76,4,4,0,0,1-3.42,1.48,3.86,3.86,0,0,1-3.06-1.31,5.2,5.2,0,0,1-1.14-3.53,5.64,5.64,0,0,1,1.2-3.78,4,4,0,0,1,3.21-1.4A4.22,4.22,0,0,1,164,350Zm-2.5-3.86a3.67,3.67,0,0,0,.45.17,1.4,1.4,0,0,0,.41.06.79.79,0,0,0,.7-.3,1.18,1.18,0,0,0,.16-.51h.93a2.44,2.44,0,0,1-.71,1.54,1.79,1.79,0,0,1-1.15.42,2,2,0,0,1-.49-.07,4.34,4.34,0,0,1-.53-.15l-.46-.17c-.28-.1-.5-.18-.68-.23a1.77,1.77,0,0,0-.5-.07.69.69,0,0,0-.51.2,1.11,1.11,0,0,0-.26.62H158a3.46,3.46,0,0,1,.38-1.14,1.65,1.65,0,0,1,1.49-.81,2.74,2.74,0,0,1,.66.09A7.63,7.63,0,0,1,161.52,346.15ZM163,356.27a6,6,0,0,0,.58-2.65,4.86,4.86,0,0,0-.41-2.14,2.35,2.35,0,0,0-2.28-1.3,2.25,2.25,0,0,0-2.09,1.11,5.16,5.16,0,0,0-.65,2.66,4.54,4.54,0,0,0,.65,2.51,2.32,2.32,0,0,0,2.07,1A2.15,2.15,0,0,0,163,356.27Z"/><path class="cls-1" d="M173,349.33a3.68,3.68,0,0,1,1.43,1.22,4.18,4.18,0,0,1,.62,1.66,10.3,10.3,0,0,1,.14,2.07h-6.84a4.08,4.08,0,0,0,.67,2.31,2.24,2.24,0,0,0,1.94.87,2.54,2.54,0,0,0,2-.82,3,3,0,0,0,.58-1.11h1.55a3.31,3.31,0,0,1-.41,1.16,4.32,4.32,0,0,1-.77,1,3.72,3.72,0,0,1-1.77.95,5.58,5.58,0,0,1-1.28.14,4,4,0,0,1-3-1.28,5,5,0,0,1-1.21-3.58,5.45,5.45,0,0,1,1.22-3.68,4,4,0,0,1,3.2-1.42A4.29,4.29,0,0,1,173,349.33Zm.57,3.7a4.11,4.11,0,0,0-.45-1.65,2.27,2.27,0,0,0-2.15-1.14,2.36,2.36,0,0,0-1.81.79,3,3,0,0,0-.78,2Z"/><path class="cls-1" d="M178.16,355.53a2.35,2.35,0,0,0,.4,1.22,2.6,2.6,0,0,0,2.12.76,3.24,3.24,0,0,0,1.58-.38,1.28,1.28,0,0,0,.68-1.18,1,1,0,0,0-.55-.93,6.43,6.43,0,0,0-1.37-.45l-1.28-.31a6.14,6.14,0,0,1-1.8-.67,2,2,0,0,1-1-1.78,2.7,2.7,0,0,1,1-2.16,3.92,3.92,0,0,1,2.62-.82,3.67,3.67,0,0,1,3.11,1.24,2.7,2.7,0,0,1,.58,1.71h-1.5a1.82,1.82,0,0,0-.38-1,2.55,2.55,0,0,0-1.94-.62,2.36,2.36,0,0,0-1.39.34,1.08,1.08,0,0,0-.47.9,1.1,1.1,0,0,0,.62,1,3.59,3.59,0,0,0,1.06.39l1.06.25a8.71,8.71,0,0,1,2.33.8,2.11,2.11,0,0,1,.92,1.91,2.89,2.89,0,0,1-1,2.17,4.16,4.16,0,0,1-2.94.92,4,4,0,0,1-3-1,3.6,3.6,0,0,1-.94-2.36Z"/><path class="cls-1" d="M196.39,349.36a4.26,4.26,0,0,1,1,.93v-4.76h1.53v13h-1.43v-1.31a3.43,3.43,0,0,1-1.3,1.25,3.74,3.74,0,0,1-1.73.39,3.48,3.48,0,0,1-2.71-1.32,5.18,5.18,0,0,1-1.15-3.52,6.11,6.11,0,0,1,1-3.57,3.41,3.41,0,0,1,3-1.5A3.36,3.36,0,0,1,196.39,349.36Zm-3.53,7.06a2.23,2.23,0,0,0,2,1,2.16,2.16,0,0,0,1.79-.95,4.46,4.46,0,0,0,.71-2.71,4,4,0,0,0-.73-2.64,2.25,2.25,0,0,0-1.79-.85,2.35,2.35,0,0,0-1.93.91,4.23,4.23,0,0,0-.74,2.69A4.64,4.64,0,0,0,192.86,356.42Z"/><path class="cls-1" d="M201.23,345.57h1.61v1.8h-1.61Zm0,3.55h1.61v9.37h-1.61Z"/><path class="cls-1" d="M210.46,349.45a4.26,4.26,0,0,1,.91.9v-1.19h1.46v8.56a6.33,6.33,0,0,1-.52,2.83,3.78,3.78,0,0,1-3.71,1.92,4.57,4.57,0,0,1-2.55-.68,2.7,2.7,0,0,1-1.16-2.14h1.61a1.8,1.8,0,0,0,.46,1,2.85,2.85,0,0,0,4-.76,7,7,0,0,0,.31-2.69,3.06,3.06,0,0,1-1.14,1.07,3.82,3.82,0,0,1-1.76.35,3.72,3.72,0,0,1-2.66-1.09,4.79,4.79,0,0,1-1.15-3.59,5.46,5.46,0,0,1,1.16-3.69,3.55,3.55,0,0,1,2.78-1.32A3.43,3.43,0,0,1,210.46,349.45Zm.2,1.7a2.28,2.28,0,0,0-1.83-.85,2.26,2.26,0,0,0-2.28,1.57,6.26,6.26,0,0,0-.32,2.19,3.9,3.9,0,0,0,.64,2.42,2.09,2.09,0,0,0,1.73.83,2.44,2.44,0,0,0,2.39-1.54,5.1,5.1,0,0,0,.38-2A4,4,0,0,0,210.66,351.15Z"/><path class="cls-1" d="M215.24,345.57h1.61v1.8h-1.61Zm0,3.55h1.61v9.37h-1.61Z"/><path class="cls-1" d="M219.55,346.44h1.6v2.63h1.51v1.29h-1.51v6.15a.67.67,0,0,0,.34.66,1.5,1.5,0,0,0,.61.09h.25l.31,0v1.26a3.38,3.38,0,0,1-.57.11,6.4,6.4,0,0,1-.64,0,1.7,1.7,0,0,1-1.5-.56,2.55,2.55,0,0,1-.4-1.47v-6.24h-1.27v-1.29h1.27Z"/><path class="cls-1" d="M229.28,352.79a.85.85,0,0,0,.73-.46,1.38,1.38,0,0,0,.11-.61,1.27,1.27,0,0,0-.58-1.17,3,3,0,0,0-1.64-.37,2.07,2.07,0,0,0-1.75.67,2.19,2.19,0,0,0-.38,1.11h-1.48a2.73,2.73,0,0,1,1.13-2.43,4.57,4.57,0,0,1,2.51-.69,5,5,0,0,1,2.7.64,2.15,2.15,0,0,1,1,2v5.42a.67.67,0,0,0,.1.39.48.48,0,0,0,.42.15h.24l.28,0v1.17a4.52,4.52,0,0,1-.56.13,3.6,3.6,0,0,1-.53,0,1.3,1.3,0,0,1-1.18-.58,2.4,2.4,0,0,1-.28-.87,4,4,0,0,1-1.38,1.1,4.33,4.33,0,0,1-2,.46,3,3,0,0,1-2.14-.79,2.66,2.66,0,0,1-.83-2,2.55,2.55,0,0,1,.82-2,3.94,3.94,0,0,1,2.14-.89ZM226,357.06a1.84,1.84,0,0,0,1.19.4,3.58,3.58,0,0,0,1.62-.39,2.18,2.18,0,0,0,1.32-2.1V353.7a2.92,2.92,0,0,1-.75.31,7.17,7.17,0,0,1-.9.18l-1,.12a3.4,3.4,0,0,0-1.29.36,1.39,1.39,0,0,0-.74,1.31A1.3,1.3,0,0,0,226,357.06Z"/><path class="cls-1" d="M234.25,345.57h1.61v1.8h-1.61Zm0,3.55h1.61v9.37h-1.61Z"/><path class="cls-1" d="M239.19,355.53a2.35,2.35,0,0,0,.4,1.22,2.61,2.61,0,0,0,2.12.76,3.24,3.24,0,0,0,1.58-.38A1.28,1.28,0,0,0,244,356a1,1,0,0,0-.54-.93,6.58,6.58,0,0,0-1.38-.45l-1.28-.31a6.26,6.26,0,0,1-1.8-.67,2,2,0,0,1-1-1.78,2.7,2.7,0,0,1,1-2.16,3.92,3.92,0,0,1,2.62-.82,3.67,3.67,0,0,1,3.11,1.24,2.7,2.7,0,0,1,.58,1.71h-1.5a1.75,1.75,0,0,0-.38-1,2.53,2.53,0,0,0-1.94-.62,2.36,2.36,0,0,0-1.39.34,1.08,1.08,0,0,0-.47.9,1.1,1.1,0,0,0,.62,1,3.59,3.59,0,0,0,1.06.39l1.06.25a8.71,8.71,0,0,1,2.33.8,2.12,2.12,0,0,1,.93,1.91,2.9,2.9,0,0,1-1,2.17,4.13,4.13,0,0,1-2.94.92,4,4,0,0,1-3-1,3.56,3.56,0,0,1-1-2.36Z"/><path class="cls-1" d="M89.45,172.53h5.16a4.85,4.85,0,0,1,4.08,1.89,7,7,0,0,1,1.29,4.37,9,9,0,0,1-.76,3.72,4.72,4.72,0,0,1-4.63,2.93H89.45ZM94.27,184a4.35,4.35,0,0,0,1.42-.19,3.11,3.11,0,0,0,1.64-1.31,5.51,5.51,0,0,0,.73-2,8.41,8.41,0,0,0,.13-1.35,6.37,6.37,0,0,0-.94-3.73,3.42,3.42,0,0,0-3-1.33h-3V184Z"/><path class="cls-1" d="M102.16,172.53h1.61v1.79h-1.61Zm0,3.54h1.61v9.37h-1.61Z"/><path class="cls-1" d="M107.1,182.49a2.28,2.28,0,0,0,.4,1.21,2.57,2.57,0,0,0,2.12.77,3.14,3.14,0,0,0,1.58-.39,1.26,1.26,0,0,0,.68-1.18,1,1,0,0,0-.55-.92,6.43,6.43,0,0,0-1.37-.45l-1.28-.32a6.18,6.18,0,0,1-1.8-.66,2,2,0,0,1-1-1.78,2.7,2.7,0,0,1,1-2.16,3.92,3.92,0,0,1,2.62-.83,3.68,3.68,0,0,1,3.11,1.25,2.7,2.7,0,0,1,.58,1.71h-1.5a1.82,1.82,0,0,0-.38-1,2.5,2.5,0,0,0-1.94-.62,2.36,2.36,0,0,0-1.39.34,1.06,1.06,0,0,0-.47.9,1.12,1.12,0,0,0,.62,1,3.9,3.9,0,0,0,1.06.39l1.06.25a8.36,8.36,0,0,1,2.33.8,2.1,2.1,0,0,1,.92,1.91,2.89,2.89,0,0,1-1,2.17,4.16,4.16,0,0,1-2.94.91,4,4,0,0,1-3-1,3.58,3.58,0,0,1-1-2.36Z"/><path class="cls-1" d="M115,176.07h1.54v1.25a3.86,3.86,0,0,1,1-1,3.4,3.4,0,0,1,1.89-.53,3.53,3.53,0,0,1,2.72,1.23,5,5,0,0,1,1.12,3.5c0,2.05-.54,3.51-1.61,4.39a3.67,3.67,0,0,1-2.39.84,3.27,3.27,0,0,1-1.79-.47,4,4,0,0,1-.94-.9v4.81H115Zm6,7.38a4.4,4.4,0,0,0,.73-2.77,5.07,5.07,0,0,0-.32-1.93,2.4,2.4,0,0,0-4.52.08,6.73,6.73,0,0,0-.32,2.24,4.86,4.86,0,0,0,.32,1.85,2.4,2.4,0,0,0,4.11.53Z"/><path class="cls-1" d="M132,177a4.75,4.75,0,0,1,1.25,3.56,6.16,6.16,0,0,1-1.1,3.76,4,4,0,0,1-3.41,1.49,3.84,3.84,0,0,1-3.07-1.32,5.22,5.22,0,0,1-1.13-3.52,5.69,5.69,0,0,1,1.19-3.78,4,4,0,0,1,3.21-1.4A4.21,4.21,0,0,1,132,177Zm-1,6.25a6,6,0,0,0,.57-2.64,4.72,4.72,0,0,0-.41-2.14,2.34,2.34,0,0,0-2.28-1.3,2.26,2.26,0,0,0-2.09,1.1,5.23,5.23,0,0,0-.65,2.67,4.51,4.51,0,0,0,.65,2.5,2.3,2.3,0,0,0,2.07,1A2.15,2.15,0,0,0,131,183.22Z"/><path class="cls-1" d="M135.18,176h1.5v1.34a4.16,4.16,0,0,1,1.42-1.19,3.78,3.78,0,0,1,1.66-.36,2.74,2.74,0,0,1,2.71,1.4,5.08,5.08,0,0,1,.38,2.18v6h-1.61v-5.93a3.23,3.23,0,0,0-.25-1.39,1.55,1.55,0,0,0-1.53-.88,2.93,2.93,0,0,0-.92.12,2.54,2.54,0,0,0-1.66,1.73,6.44,6.44,0,0,0-.12,1.42v4.93h-1.58Z"/><path class="cls-1" d="M145.19,172.53h1.61v1.79h-1.61Zm0,3.54h1.61v9.37h-1.61Z"/><path class="cls-1" d="M149.06,172.49h1.54v4.68a3.48,3.48,0,0,1,2.81-1.39,3.69,3.69,0,0,1,2.86,1.21,5.12,5.12,0,0,1,1.1,3.57,6.1,6.1,0,0,1-1.08,3.7,3.53,3.53,0,0,1-3,1.48,3.08,3.08,0,0,1-1.82-.52,4.23,4.23,0,0,1-.94-1v1.2h-1.46Zm6.05,10.83a5,5,0,0,0,.64-2.69,4.45,4.45,0,0,0-.64-2.46,2.12,2.12,0,0,0-1.89-1,2.62,2.62,0,0,0-1.9.8,3.58,3.58,0,0,0-.81,2.63,5.91,5.91,0,0,0,.33,2.16,2.31,2.31,0,0,0,2.34,1.55A2.13,2.13,0,0,0,155.11,183.32Z"/><path class="cls-1" d="M159.2,172.53h1.61v1.79H159.2Zm0,3.54h1.61v9.37H159.2Z"/><path class="cls-1" d="M163.24,172.53h1.59v12.91h-1.59Z"/><path class="cls-1" d="M167.2,172.53h1.61v1.79H167.2Zm0,3.54h1.61v9.37H167.2Z"/><path class="cls-1" d="M170.49,184.19l5.59-6.75h-5.17V176h7.3v1.29L172.66,184h5.72v1.41h-7.89Z"/><path class="cls-1" d="M186,176.29a3.6,3.6,0,0,1,1.43,1.22,4.13,4.13,0,0,1,.62,1.66,10.3,10.3,0,0,1,.14,2.07h-6.84a4.08,4.08,0,0,0,.67,2.31,2.26,2.26,0,0,0,1.94.86,2.51,2.51,0,0,0,2-.82,2.84,2.84,0,0,0,.58-1.1h1.55a3.38,3.38,0,0,1-.41,1.16,4.32,4.32,0,0,1-.77,1,3.72,3.72,0,0,1-1.77.95,5.58,5.58,0,0,1-1.28.14,3.91,3.91,0,0,1-3-1.28,5,5,0,0,1-1.22-3.58,5.47,5.47,0,0,1,1.22-3.69,4,4,0,0,1,3.2-1.41A4.26,4.26,0,0,1,186,176.29Zm.57,3.69a4.1,4.1,0,0,0-.45-1.64A2.27,2.27,0,0,0,184,177.2a2.38,2.38,0,0,0-1.81.78,3,3,0,0,0-.78,2Z"/><path class="cls-1" d="M200.38,176.32a4.18,4.18,0,0,1,1,.92v-4.75h1.53v12.95h-1.43v-1.31a3.46,3.46,0,0,1-1.3,1.26,3.74,3.74,0,0,1-1.73.39,3.46,3.46,0,0,1-2.71-1.33,5.15,5.15,0,0,1-1.15-3.52,6.06,6.06,0,0,1,1.05-3.56,3.41,3.41,0,0,1,3-1.51A3.28,3.28,0,0,1,200.38,176.32Zm-3.53,7.06a2.23,2.23,0,0,0,2.05,1,2.16,2.16,0,0,0,1.79-1,4.46,4.46,0,0,0,.71-2.71,4,4,0,0,0-.73-2.64,2.26,2.26,0,0,0-1.79-.86,2.36,2.36,0,0,0-1.93.92,4.21,4.21,0,0,0-.74,2.69A4.66,4.66,0,0,0,196.85,183.38Z"/><path class="cls-1" d="M212,177a4.75,4.75,0,0,1,1.25,3.56,6.16,6.16,0,0,1-1.1,3.76,4,4,0,0,1-3.41,1.49,3.84,3.84,0,0,1-3.07-1.32,5.22,5.22,0,0,1-1.13-3.52,5.69,5.69,0,0,1,1.19-3.78,4,4,0,0,1,3.22-1.4A4.2,4.2,0,0,1,212,177Zm-1,6.25a6,6,0,0,0,.58-2.64,4.71,4.71,0,0,0-.42-2.14,2.34,2.34,0,0,0-2.28-1.3,2.24,2.24,0,0,0-2.08,1.1,5.13,5.13,0,0,0-.66,2.67,4.43,4.43,0,0,0,.66,2.5,2.27,2.27,0,0,0,2.06,1A2.15,2.15,0,0,0,211.06,183.22Z"/><path class="cls-1" d="M216,176l1.82,7.42,1.83-7.42h1.78l1.84,7.37,1.93-7.37h1.58L224,185.44h-1.65l-1.91-7.28-1.86,7.28H217L214.23,176Z"/><path class="cls-1" d="M228.23,176h1.5v1.34a4.16,4.16,0,0,1,1.42-1.19,3.78,3.78,0,0,1,1.66-.36,2.74,2.74,0,0,1,2.71,1.4,5.08,5.08,0,0,1,.38,2.18v6h-1.61v-5.93a3.23,3.23,0,0,0-.25-1.39,1.55,1.55,0,0,0-1.53-.88,2.93,2.93,0,0,0-.92.12,2.54,2.54,0,0,0-1.66,1.73,6.44,6.44,0,0,0-.12,1.42v4.93h-1.58Z"/><path class="cls-1" d="M238.28,172.53h1.59v12.91h-1.59Z"/><path class="cls-1" d="M249.06,177a4.75,4.75,0,0,1,1.25,3.56,6.16,6.16,0,0,1-1.1,3.76,4,4,0,0,1-3.41,1.49,3.84,3.84,0,0,1-3.07-1.32,5.22,5.22,0,0,1-1.13-3.52,5.69,5.69,0,0,1,1.19-3.78,4,4,0,0,1,3.21-1.4A4.21,4.21,0,0,1,249.06,177Zm-1,6.25a6,6,0,0,0,.58-2.64,4.71,4.71,0,0,0-.42-2.14,2.34,2.34,0,0,0-2.28-1.3,2.23,2.23,0,0,0-2.08,1.1,5.13,5.13,0,0,0-.66,2.67,4.43,4.43,0,0,0,.66,2.5,2.27,2.27,0,0,0,2.06,1A2.15,2.15,0,0,0,248.08,183.22Z"/><path class="cls-1" d="M257.29,179.75a.85.85,0,0,0,.73-.46,1.38,1.38,0,0,0,.11-.61,1.31,1.31,0,0,0-.57-1.18,3.16,3.16,0,0,0-1.65-.36,2.07,2.07,0,0,0-1.75.67,2.15,2.15,0,0,0-.38,1.1H252.3a2.75,2.75,0,0,1,1.13-2.43,4.66,4.66,0,0,1,2.52-.68,5.13,5.13,0,0,1,2.69.63,2.15,2.15,0,0,1,1,2v5.43a.67.67,0,0,0,.1.39.49.49,0,0,0,.43.15h.23l.28,0v1.17a4.52,4.52,0,0,1-.56.13,3.87,3.87,0,0,1-.53,0,1.28,1.28,0,0,1-1.18-.58,2.12,2.12,0,0,1-.27-.87,4,4,0,0,1-1.39,1.1,4.33,4.33,0,0,1-2,.47,3,3,0,0,1-2.14-.8,2.64,2.64,0,0,1-.83-2,2.54,2.54,0,0,1,.82-2,3.87,3.87,0,0,1,2.14-.89ZM254,184a1.89,1.89,0,0,0,1.19.39,3.57,3.57,0,0,0,1.62-.38,2.18,2.18,0,0,0,1.32-2.1v-1.27a3.32,3.32,0,0,1-.75.31,5.8,5.8,0,0,1-.89.17l-1,.13a3.45,3.45,0,0,0-1.29.36,1.39,1.39,0,0,0-.74,1.31A1.3,1.3,0,0,0,254,184Z"/><path class="cls-1" d="M267.43,176.32a4.4,4.4,0,0,1,1,.92v-4.75h1.52v12.95h-1.43v-1.31a3.39,3.39,0,0,1-1.3,1.26,3.71,3.71,0,0,1-1.73.39,3.46,3.46,0,0,1-2.71-1.33,5.2,5.2,0,0,1-1.15-3.52,6.06,6.06,0,0,1,1.05-3.56,3.41,3.41,0,0,1,3-1.51A3.25,3.25,0,0,1,267.43,176.32Zm-3.53,7.06a2.24,2.24,0,0,0,2.05,1,2.14,2.14,0,0,0,1.79-1,4.46,4.46,0,0,0,.71-2.71,4,4,0,0,0-.73-2.64,2.26,2.26,0,0,0-1.79-.86,2.37,2.37,0,0,0-1.93.92,4.21,4.21,0,0,0-.74,2.69A4.75,4.75,0,0,0,263.9,183.38Z"/><path class="cls-1" d="M94.33,197.32a4.4,4.4,0,0,1,1,.92v-4.75h1.52v12.95H95.38v-1.31a3.46,3.46,0,0,1-1.3,1.26,3.71,3.71,0,0,1-1.73.39,3.46,3.46,0,0,1-2.71-1.33,5.2,5.2,0,0,1-1.15-3.52,6.06,6.06,0,0,1,1.05-3.56,3.41,3.41,0,0,1,3-1.51A3.25,3.25,0,0,1,94.33,197.32Zm-3.53,7.06a2.24,2.24,0,0,0,2,1,2.14,2.14,0,0,0,1.79-1,4.46,4.46,0,0,0,.71-2.71,4,4,0,0,0-.73-2.64,2.26,2.26,0,0,0-1.79-.86,2.37,2.37,0,0,0-1.93.92,4.21,4.21,0,0,0-.74,2.69A4.75,4.75,0,0,0,90.8,204.38Z"/><path class="cls-1" d="M105,197.29a3.56,3.56,0,0,1,1.42,1.22,4.29,4.29,0,0,1,.63,1.66,11.12,11.12,0,0,1,.14,2.07h-6.85a4.08,4.08,0,0,0,.67,2.31,2.27,2.27,0,0,0,2,.86,2.49,2.49,0,0,0,2-.82,2.71,2.71,0,0,0,.58-1.1h1.56a3.61,3.61,0,0,1-.41,1.16,4.1,4.1,0,0,1-.78,1,3.63,3.63,0,0,1-1.77.95,5.51,5.51,0,0,1-1.28.14,3.94,3.94,0,0,1-3-1.28,5,5,0,0,1-1.22-3.58,5.43,5.43,0,0,1,1.23-3.69,4,4,0,0,1,3.19-1.41A4.33,4.33,0,0,1,105,197.29Zm.56,3.69a4.11,4.11,0,0,0-.44-1.64A2.28,2.28,0,0,0,103,198.2a2.38,2.38,0,0,0-1.81.78,3,3,0,0,0-.77,2Z"/><path class="cls-1" d="M114.18,197h1.57v1.34a5.12,5.12,0,0,1,1-1,3.1,3.1,0,0,1,1.77-.53,2.77,2.77,0,0,1,1.81.55,3,3,0,0,1,.71.93,3.23,3.23,0,0,1,2.83-1.48,2.63,2.63,0,0,1,2.59,1.37,4.55,4.55,0,0,1,.37,2v6.26H125.2V199.9a1.52,1.52,0,0,0-.47-1.29,1.86,1.86,0,0,0-1.14-.35,2.32,2.32,0,0,0-1.61.62,2.75,2.75,0,0,0-.67,2.09v5.47H119.7V200.3a3.08,3.08,0,0,0-.23-1.4,1.38,1.38,0,0,0-1.34-.66,2.29,2.29,0,0,0-1.63.7,3.39,3.39,0,0,0-.74,2.51v5h-1.58Z"/><path class="cls-1" d="M134.22,200.75a.86.86,0,0,0,.73-.46,1.38,1.38,0,0,0,.11-.61,1.29,1.29,0,0,0-.58-1.18,3.09,3.09,0,0,0-1.64-.36,2.09,2.09,0,0,0-1.76.67,2.16,2.16,0,0,0-.37,1.1h-1.48a2.73,2.73,0,0,1,1.13-2.43,4.65,4.65,0,0,1,2.51-.68,5.14,5.14,0,0,1,2.7.63,2.16,2.16,0,0,1,1,2v5.43a.67.67,0,0,0,.11.39c.06.1.21.15.42.15h.24l.28,0v1.17a5,5,0,0,1-.56.13,4,4,0,0,1-.53,0,1.31,1.31,0,0,1-1.19-.58,2.29,2.29,0,0,1-.27-.87,3.86,3.86,0,0,1-1.39,1.1,4.29,4.29,0,0,1-2,.47,3,3,0,0,1-2.14-.8,2.61,2.61,0,0,1-.83-2,2.56,2.56,0,0,1,.81-2,3.9,3.9,0,0,1,2.15-.89ZM130.89,205a1.87,1.87,0,0,0,1.19.39,3.56,3.56,0,0,0,1.61-.38,2.18,2.18,0,0,0,1.32-2.1v-1.27a3,3,0,0,1-.74.31,5.92,5.92,0,0,1-.9.17l-1,.13a3.46,3.46,0,0,0-1.3.36,1.38,1.38,0,0,0-.73,1.31A1.3,1.3,0,0,0,130.89,205Z"/><path class="cls-1" d="M139.5,194.4h1.6V197h1.51v1.29H141.1v6.14a.66.66,0,0,0,.34.66,1.32,1.32,0,0,0,.61.1h.25l.31,0v1.25a3.61,3.61,0,0,1-.57.12,6.4,6.4,0,0,1-.64,0,1.7,1.7,0,0,1-1.5-.57,2.51,2.51,0,0,1-.4-1.47v-6.23h-1.27V197h1.27Z"/><path class="cls-1" d="M150,197.29a3.53,3.53,0,0,1,1.43,1.22,4.29,4.29,0,0,1,.63,1.66,11.12,11.12,0,0,1,.14,2.07h-6.85a4.08,4.08,0,0,0,.67,2.31,2.26,2.26,0,0,0,1.94.86,2.51,2.51,0,0,0,2-.82,2.84,2.84,0,0,0,.58-1.1h1.55a3.34,3.34,0,0,1-.4,1.16,4.35,4.35,0,0,1-.78,1,3.72,3.72,0,0,1-1.77.95,5.58,5.58,0,0,1-1.28.14,3.93,3.93,0,0,1-3-1.28,5,5,0,0,1-1.22-3.58,5.43,5.43,0,0,1,1.23-3.69,4,4,0,0,1,3.19-1.41A4.26,4.26,0,0,1,150,197.29Zm.57,3.69a4.1,4.1,0,0,0-.45-1.64A2.27,2.27,0,0,0,148,198.2a2.38,2.38,0,0,0-1.81.78,3,3,0,0,0-.78,2Z"/><path class="cls-1" d="M154.24,197h1.51v1.63a3.45,3.45,0,0,1,.9-1.16,2.37,2.37,0,0,1,1.66-.68h.15l.36,0v1.67l-.26,0h-.26a2.22,2.22,0,0,0-1.83.77,2.66,2.66,0,0,0-.64,1.77v5.41h-1.59Z"/><path class="cls-1" d="M160.19,193.53h1.61v1.79h-1.61Zm0,3.54h1.61v9.37h-1.61Z"/><path class="cls-1" d="M169.24,200.75a.88.88,0,0,0,.73-.46,1.4,1.4,0,0,0,.1-.61,1.31,1.31,0,0,0-.57-1.18,3.13,3.13,0,0,0-1.65-.36,2.07,2.07,0,0,0-1.75.67,2.25,2.25,0,0,0-.38,1.1h-1.47a2.72,2.72,0,0,1,1.12-2.43,4.68,4.68,0,0,1,2.52-.68,5.13,5.13,0,0,1,2.69.63,2.15,2.15,0,0,1,1,2v5.43a.67.67,0,0,0,.1.39.49.49,0,0,0,.43.15h.24l.28,0v1.17a5,5,0,0,1-.57.13,3.79,3.79,0,0,1-.52,0,1.3,1.3,0,0,1-1.19-.58,2.12,2.12,0,0,1-.27-.87,4,4,0,0,1-1.39,1.1,4.3,4.3,0,0,1-2,.47,3,3,0,0,1-2.14-.8,2.64,2.64,0,0,1-.83-2,2.57,2.57,0,0,1,.82-2,3.9,3.9,0,0,1,2.14-.89ZM165.91,205a1.86,1.86,0,0,0,1.18.39,3.57,3.57,0,0,0,1.62-.38,2.18,2.18,0,0,0,1.32-2.1v-1.27a3.14,3.14,0,0,1-.75.31,5.8,5.8,0,0,1-.89.17l-1,.13a3.45,3.45,0,0,0-1.29.36,1.38,1.38,0,0,0-.73,1.31A1.28,1.28,0,0,0,165.91,205Z"/><path class="cls-1" d="M174.2,193.53h1.61v1.79H174.2Zm0,3.54h1.61v9.37H174.2Z"/><path class="cls-1" d="M179.14,203.49a2.28,2.28,0,0,0,.41,1.21,2.55,2.55,0,0,0,2.11.77,3.11,3.11,0,0,0,1.58-.39,1.24,1.24,0,0,0,.68-1.18,1,1,0,0,0-.54-.92,6.37,6.37,0,0,0-1.38-.45l-1.27-.32a6.26,6.26,0,0,1-1.81-.66,2,2,0,0,1-1-1.78,2.69,2.69,0,0,1,1-2.16,3.94,3.94,0,0,1,2.62-.83,3.66,3.66,0,0,1,3.11,1.25,2.7,2.7,0,0,1,.58,1.71h-1.49a1.76,1.76,0,0,0-.39-1,2.49,2.49,0,0,0-1.93-.62,2.34,2.34,0,0,0-1.39.34,1,1,0,0,0-.48.9,1.11,1.11,0,0,0,.63,1,3.81,3.81,0,0,0,1,.39l1.07.25a8.49,8.49,0,0,1,2.33.8,2.12,2.12,0,0,1,.92,1.91,2.87,2.87,0,0,1-1,2.17,4.13,4.13,0,0,1-2.94.91,4,4,0,0,1-3-1,3.58,3.58,0,0,1-.95-2.36Z"/><path class="cls-1" d="M198,197.29a3.5,3.5,0,0,1,1.42,1.22,4.14,4.14,0,0,1,.63,1.66,11.12,11.12,0,0,1,.14,2.07h-6.85a4.08,4.08,0,0,0,.68,2.31,2.23,2.23,0,0,0,1.94.86,2.49,2.49,0,0,0,2-.82,2.71,2.71,0,0,0,.58-1.1h1.56a3.38,3.38,0,0,1-.41,1.16,4.1,4.1,0,0,1-.78,1,3.63,3.63,0,0,1-1.77.95,5.45,5.45,0,0,1-1.28.14,3.94,3.94,0,0,1-3-1.28,5,5,0,0,1-1.21-3.58,5.42,5.42,0,0,1,1.22-3.69,4,4,0,0,1,3.2-1.41A4.32,4.32,0,0,1,198,197.29Zm.56,3.69a4.11,4.11,0,0,0-.44-1.64A2.28,2.28,0,0,0,196,198.2a2.41,2.41,0,0,0-1.82.78,3.06,3.06,0,0,0-.77,2Z"/><path class="cls-1" d="M213,197.29a3.5,3.5,0,0,1,1.42,1.22,4,4,0,0,1,.63,1.66,11.12,11.12,0,0,1,.14,2.07h-6.84a4,4,0,0,0,.67,2.31,2.23,2.23,0,0,0,1.94.86,2.49,2.49,0,0,0,2-.82,2.59,2.59,0,0,0,.58-1.1h1.56a3.38,3.38,0,0,1-.41,1.16,4.32,4.32,0,0,1-.77,1,3.72,3.72,0,0,1-1.77.95,5.6,5.6,0,0,1-1.29.14,3.94,3.94,0,0,1-3-1.28,5,5,0,0,1-1.21-3.58,5.47,5.47,0,0,1,1.22-3.69,4,4,0,0,1,3.2-1.41A4.29,4.29,0,0,1,213,197.29Zm.57,3.69a4.27,4.27,0,0,0-.45-1.64A2.28,2.28,0,0,0,211,198.2a2.37,2.37,0,0,0-1.81.78,3,3,0,0,0-.78,2Z"/><path class="cls-1" d="M222.4,197.32a4.18,4.18,0,0,1,.95.92v-4.75h1.52v12.95h-1.42v-1.31a3.41,3.41,0,0,1-1.31,1.26,3.66,3.66,0,0,1-1.72.39,3.48,3.48,0,0,1-2.72-1.33,5.19,5.19,0,0,1-1.14-3.52,6.12,6.12,0,0,1,1-3.56,3.42,3.42,0,0,1,3-1.51A3.31,3.31,0,0,1,222.4,197.32Zm-3.53,7.06a2.22,2.22,0,0,0,2,1,2.16,2.16,0,0,0,1.8-1,4.47,4.47,0,0,0,.7-2.71,4,4,0,0,0-.72-2.64,2.28,2.28,0,0,0-1.8-.86,2.35,2.35,0,0,0-1.92.92,4.15,4.15,0,0,0-.74,2.69A4.66,4.66,0,0,0,218.87,204.38Z"/><path class="cls-1" d="M227.24,193.53h1.6v1.79h-1.6Zm0,3.54h1.6v9.37h-1.6Z"/><path class="cls-1" d="M231.55,194.4h1.6V197h1.5v1.29h-1.5v6.14a.66.66,0,0,0,.34.66,1.29,1.29,0,0,0,.61.1h.25l.3,0v1.25a3.48,3.48,0,0,1-.56.12,6.4,6.4,0,0,1-.64,0A1.7,1.7,0,0,1,232,206a2.44,2.44,0,0,1-.4-1.47v-6.23h-1.27V197h1.27Z"/><path class="cls-1" d="M241.28,200.75a.86.86,0,0,0,.73-.46,1.38,1.38,0,0,0,.11-.61,1.31,1.31,0,0,0-.58-1.18,3.09,3.09,0,0,0-1.64-.36,2.09,2.09,0,0,0-1.76.67,2.16,2.16,0,0,0-.37,1.1h-1.48a2.73,2.73,0,0,1,1.13-2.43,4.65,4.65,0,0,1,2.51-.68,5.14,5.14,0,0,1,2.7.63,2.16,2.16,0,0,1,1,2v5.43a.67.67,0,0,0,.11.39q.09.15.42.15h.24l.28,0v1.17a5,5,0,0,1-.56.13,4,4,0,0,1-.53,0,1.31,1.31,0,0,1-1.19-.58,2.12,2.12,0,0,1-.27-.87,3.86,3.86,0,0,1-1.39,1.1,4.29,4.29,0,0,1-2,.47,3,3,0,0,1-2.14-.8,2.61,2.61,0,0,1-.83-2,2.56,2.56,0,0,1,.81-2,3.9,3.9,0,0,1,2.15-.89ZM238,205a1.87,1.87,0,0,0,1.19.39,3.56,3.56,0,0,0,1.61-.38,2.18,2.18,0,0,0,1.32-2.1v-1.27a3,3,0,0,1-.74.31,6.16,6.16,0,0,1-.9.17l-1,.13a3.46,3.46,0,0,0-1.3.36,1.38,1.38,0,0,0-.73,1.31A1.3,1.3,0,0,0,238,205Z"/><path class="cls-1" d="M246.25,193.53h1.61v1.79h-1.61Zm0,3.54h1.61v9.37h-1.61Z"/><path class="cls-1" d="M251.19,203.49a2.19,2.19,0,0,0,.4,1.21,2.57,2.57,0,0,0,2.12.77,3.16,3.16,0,0,0,1.58-.39,1.26,1.26,0,0,0,.68-1.18,1,1,0,0,0-.55-.92,6.43,6.43,0,0,0-1.37-.45l-1.28-.32a6.07,6.07,0,0,1-1.8-.66,2,2,0,0,1-1-1.78,2.67,2.67,0,0,1,1-2.16,3.9,3.9,0,0,1,2.62-.83,3.69,3.69,0,0,1,3.11,1.25,2.76,2.76,0,0,1,.58,1.71h-1.5a1.76,1.76,0,0,0-.39-1,2.47,2.47,0,0,0-1.93-.62,2.36,2.36,0,0,0-1.39.34,1.06,1.06,0,0,0-.47.9,1.12,1.12,0,0,0,.62,1,3.9,3.9,0,0,0,1.06.39l1.06.25a8.49,8.49,0,0,1,2.33.8,2.12,2.12,0,0,1,.92,1.91,2.89,2.89,0,0,1-1,2.17,4.16,4.16,0,0,1-2.94.91,4,4,0,0,1-3-1,3.57,3.57,0,0,1-.94-2.36Z"/><path class="cls-1" d="M66.89,28.75H68v-3a2.16,2.16,0,0,0-2.09-2.21H16.09A2.16,2.16,0,0,0,14,25.69v3h1a1.66,1.66,0,0,1,1.63,1.46,1.63,1.63,0,0,1-1.57,1.87H14s0,0,0,0v4.68l0,0h1a1.66,1.66,0,0,1,1.63,1.46,1.63,1.63,0,0,1-1.57,1.87H14s0,0,0,0v4.68l0,0h1a1.66,1.66,0,0,1,1.63,1.46,1.63,1.63,0,0,1-1.57,1.87H14s0,0,0,0v3a2.15,2.15,0,0,0,2.09,2.2H65.86A2.15,2.15,0,0,0,68,51.22v-3s0,0,0,0H67a1.67,1.67,0,0,1-.07-3.33h1l0,0V40.13s0,0,0,0H67a1.67,1.67,0,0,1-.07-3.33h1l0,0V32.09s0,0,0,0H67a1.67,1.67,0,0,1-.07-3.33Zm-3.68,1.66a3.85,3.85,0,0,0,2.62,3.72s0,0,0,0v.57s0,0,0,0a3.94,3.94,0,0,0,0,7.43s0,0,0,0v.57s0,0,0,0a3.94,3.94,0,0,0,0,7.43h0v1s0,0,0,0H16.12s0,0,0,0v-1h0a3.94,3.94,0,0,0,0-7.43s0,0,0,0v-.57s0,0,0,0a3.94,3.94,0,0,0,0-7.43s0,0,0,0v-.57s0,0,0,0a3.94,3.94,0,0,0,0-7.43s0,0,0,0v-1s0,0,0,0H65.83s0,0,0,0v1s0,0,0,0A3.85,3.85,0,0,0,63.21,30.41Z"/><path class="cls-1" d="M51.37,193.25a1.58,1.58,0,0,1,0,2.24l-6.24,6.25-.14.12a1.57,1.57,0,0,1-.65.31h0a1.72,1.72,0,0,1-.64,0l-.06,0-.24-.07s0,0,0,0a1.55,1.55,0,0,1-.48-.32l-6.26-6.26a1.57,1.57,0,0,1-.46-1.12,1.56,1.56,0,0,1,.46-1.12,1.59,1.59,0,0,1,2.25,0l3.54,3.54V184.27a1.59,1.59,0,0,1,3.18,0v12.52l3.54-3.54A1.58,1.58,0,0,1,51.37,193.25Zm13-15.2v32a4.5,4.5,0,0,1-4.49,4.49H28.15a4.5,4.5,0,0,1-4.49-4.49V169a4.49,4.49,0,0,1,4.49-4.48h23a1.51,1.51,0,0,1,.63.13h0l.26.14s0,0,0,.05a.84.84,0,0,1,.18.15h0L63.87,176.9h0L64,177a.79.79,0,0,1,.12.15.55.55,0,0,1,.08.15.75.75,0,0,1,.07.12,1.21,1.21,0,0,1,0,.18l0,.12c0,.07,0,.14,0,.21s0,.06,0,.1h0v0Zm-3.18,1.57h-10A1.6,1.6,0,0,1,49.58,178V167.72H28.15A1.31,1.31,0,0,0,26.84,169v41a1.31,1.31,0,0,0,1.31,1.31h31.7a1.31,1.31,0,0,0,1.31-1.31ZM59,176.44,52.76,170v6.4Z"/><path class="cls-1" d="M64.34,101.1v32a4.5,4.5,0,0,1-4.49,4.49H28.15a4.49,4.49,0,0,1-4.49-4.49v-41a4.49,4.49,0,0,1,4.49-4.49h23a1.6,1.6,0,0,1,.62.13h0a1.23,1.23,0,0,1,.25.14l0,0,.19.16h0L63.87,100h0l0,0,.06.08a.88.88,0,0,1,.12.15,1.09,1.09,0,0,1,.08.15.67.67,0,0,1,.06.12,1.27,1.27,0,0,1,.06.18.42.42,0,0,1,0,.12,1.2,1.2,0,0,1,0,.2s0,.07,0,.1h0v0Zm-3.18,1.56h-10a1.59,1.59,0,0,1-1.59-1.59V90.77H28.15a1.31,1.31,0,0,0-1.32,1.31v41a1.31,1.31,0,0,0,1.32,1.31h31.7a1.31,1.31,0,0,0,1.31-1.31ZM59,99.48l-6.22-6.39v6.39Zm-1.49,9.58h-27A1.49,1.49,0,0,1,29,107.57h0a1.49,1.49,0,0,1,1.49-1.49h27A1.49,1.49,0,0,1,59,107.57h0A1.49,1.49,0,0,1,57.49,109.06Zm0,6.51h-27A1.49,1.49,0,0,1,29,114.08h0a1.49,1.49,0,0,1,1.49-1.49h27A1.49,1.49,0,0,1,59,114.08h0A1.49,1.49,0,0,1,57.49,115.57Zm0,6h-27A1.49,1.49,0,0,1,29,120.08h0a1.49,1.49,0,0,1,1.49-1.49h27A1.49,1.49,0,0,1,59,120.08h0A1.49,1.49,0,0,1,57.49,121.57Zm-15.55,9.25H33.41a.42.42,0,0,1-.42-.42v-.65a.42.42,0,0,1,.42-.42h8.53a.42.42,0,0,1,.42.42v.65A.42.42,0,0,1,41.94,130.82Zm12.65,0H46.05a.41.41,0,0,1-.41-.42v-.65a.41.41,0,0,1,.41-.42h8.54a.41.41,0,0,1,.41.42v.65A.41.41,0,0,1,54.59,130.82Z"/><path class="cls-1" d="M36.49,335.44l15.25-.11v1.6l-15.25.12ZM57,331.67l-25.79.2,0,1.6L57,333.28Zm-7.71,13.72a5.43,5.43,0,1,0-5.38,5.45A5.43,5.43,0,0,0,49.27,345.39Zm2.53,1.86-7.89,6.33,4.44,5.53,2-5.53,5.83-.8Zm-21.87,2.67L35.45,352l.81,5.84,5.52-4.44-6.33-7.88Zm41.29-28.6-54.72.41L16.78,359,33,358.82h.29L33,355.87,19.71,356l-.24-31.38,48.83-.37.24,31.38-15.41.19L52,358.81l19.25-.22h.27Z"/><path class="cls-1" d="M18.63,255.07l13,.07.06-13-13-.07ZM21,244.33l8.48,0,0,8.49-8.48-.05Z"/><path class="cls-1" d="M18.63,273.63l13,.07.06-13-13-.07ZM21,262.89l8.48.05,0,8.48-8.48-.05Z"/><rect class="cls-1" x="51" y="229.03" width="2.55" height="34.17" transform="translate(-194.11 297.12) rotate(-89.7)"/><rect class="cls-1" x="46.18" y="238.37" width="2.55" height="24.53" transform="translate(-203.41 296.79) rotate(-89.7)"/><rect class="cls-1" x="51" y="246.81" width="2.55" height="34.17" transform="translate(-211.89 314.81) rotate(-89.7)"/><rect class="cls-1" x="46.18" y="256.15" width="2.55" height="24.53" transform="translate(-221.19 314.48) rotate(-89.7)"/><path class="cls-1" d="M18.63,291.75l13,.06.06-13-13-.07ZM21,281l8.48,0,0,8.48-8.48,0Z"/><rect class="cls-1" x="51" y="264.93" width="2.55" height="34.17" transform="translate(-230 332.83) rotate(-89.7)"/><rect class="cls-1" x="46.18" y="274.26" width="2.55" height="24.53" transform="translate(-239.31 332.5) rotate(-89.7)"/></svg>