<svg id="Camada_1" data-name="Camada 1" xmlns="http://www.w3.org/2000/svg" viewBox="0 0 1308.37 32.33"><defs><style>.cls-1{fill:#fff;}</style></defs><title>det branco</title><path class="cls-1" d="M654.12,31.91h654.24s0-17.74,0-31.49c-33,0-32.49,27.49-65.47,27.49S1210.41.42,1177.42.42s-32.49,28-65,28-33-28-65.47-28-32.49,27.49-65.48,27.49S949,.42,916,.42s-32.49,27.49-65,27.49S818.06.42,785.57.42c-33,.5-33,27.49-65.48,27.49C687.15,27.91,686.61.5,654.25.43h-.13c-32.86.07-32.41,27.48-65.35,27.48S556.28.42,523.3.42s-32.49,28-65,28-33-28-65.48-28-32.48,27.49-65.47,27.49S294.88.42,261.89.42s-32.48,27.49-65,27.49S163.93.42,131.44.42c-33,.5-33,27.49-65.47,27.49C33,27.91,32.48.42,0,.42V31.91Z"/></svg>