<svg id="Camada_1" data-name="Camada 1" xmlns="http://www.w3.org/2000/svg" viewBox="0 0 1308.37 32.33"><defs><style>.cls-1{fill:#666;}</style></defs><title>det cinza</title><path class="cls-1" d="M654.5,32.33s-.25-17.74-.25-31.48c-33,0-32.49,27.49-65.47,27.49S556.29.85,523.3.85s-32.49,28-65,28-33-28-65.47-28-32.49,27.49-65.48,27.49S294.89.85,261.9.85s-32.49,27.49-65,27.49S163.94.85,131.45.85c-33,.5-33,27.49-65.48,27.49C33,28.34,32.49.85,0,.85V32.33Z"/><path class="cls-1" d="M1308.37,32.33s0-17.74,0-31.48c-33,0-32.49,27.49-65.48,27.49S1210.41.85,1177.43.85s-32.49,28-65,28-33-28-65.48-28-32.48,27.49-65.47,27.49S949,.85,916,.85s-32.48,27.49-65,27.49S818.06.85,785.57.85c-33,.5-33,27.49-65.47,27.49-33,0-33.49-27.49-66-27.49V32.33Z"/></svg>