<svg id="Camada_1" data-name="Camada 1" xmlns="http://www.w3.org/2000/svg" viewBox="0 0 1308.37 32.33"><defs><style>.cls-1{fill:#fff;}</style></defs><title>det branco</title><path class="cls-1" d="M653.88.85s.24,17.74.24,31.48c33,0,32.49-27.49,65.48-27.49s32.49,27.49,65.47,27.49,32.49-28,65-28,33,28,65.48,28S948,4.84,981,4.84s32.49,27.49,65.48,27.49,32.48-27.49,65-27.49,33,27.49,65.48,27.49c33-.5,33-27.49,65.47-27.49,33,0,33.49,27.49,66,27.49V.85Z"/><path class="cls-1" d="M0,.85S0,18.59,0,32.33c33,0,32.49-27.49,65.47-27.49S98,32.33,131,32.33s32.49-28,65-28,33,28,65.47,28S293.89,4.84,326.88,4.84s32.48,27.49,65.47,27.49,32.49-27.49,65-27.49,33,27.49,65.47,27.49c33-.5,33-27.49,65.48-27.49,33,0,33.48,27.49,66,27.49V.85Z"/></svg>