<svg id="Camada_1" data-name="Camada 1" xmlns="http://www.w3.org/2000/svg" viewBox="0 0 300 380"><defs><style>.cls-1{fill:#fff;}</style></defs><title>eventos</title><path class="cls-1" d="M90.39,95.66l3.71,11,3.67-11h2L95,108.57H93.16l-4.7-12.91Z"/><path class="cls-1" d="M106,99.42a3.62,3.62,0,0,1,1.42,1.21,4.42,4.42,0,0,1,.63,1.66,11.32,11.32,0,0,1,.14,2.08h-6.85a4,4,0,0,0,.67,2.3,2.25,2.25,0,0,0,1.95.87,2.49,2.49,0,0,0,2-.82,2.77,2.77,0,0,0,.58-1.1h1.56a3.27,3.27,0,0,1-.41,1.15,3.93,3.93,0,0,1-.78,1,3.55,3.55,0,0,1-1.77,1,5,5,0,0,1-1.28.14,3.93,3.93,0,0,1-3-1.27A5,5,0,0,1,99.65,104a5.4,5.4,0,0,1,1.22-3.68,4,4,0,0,1,3.2-1.41A4.19,4.19,0,0,1,106,99.42Zm.56,3.69a4.11,4.11,0,0,0-.44-1.64,2.28,2.28,0,0,0-2.16-1.14,2.4,2.4,0,0,0-1.81.78,3,3,0,0,0-.77,2Z"/><path class="cls-1" d="M110.19,99.16h1.51v1.33a4.12,4.12,0,0,1,1.41-1.18,3.78,3.78,0,0,1,1.66-.36,2.74,2.74,0,0,1,2.71,1.39,4.93,4.93,0,0,1,.39,2.19v6h-1.61v-5.93a3.19,3.19,0,0,0-.26-1.39,1.54,1.54,0,0,0-1.53-.88,3.35,3.35,0,0,0-.92.11,2.39,2.39,0,0,0-1.14.78,2.28,2.28,0,0,0-.52,1,6.38,6.38,0,0,0-.12,1.42v4.93h-1.58Z"/><path class="cls-1" d="M125.38,99.45a4.16,4.16,0,0,1,1,.92V95.62h1.52v12.95h-1.42v-1.31a3.48,3.48,0,0,1-1.31,1.26,3.69,3.69,0,0,1-1.72.38,3.5,3.5,0,0,1-2.72-1.32,5.19,5.19,0,0,1-1.14-3.52,6.05,6.05,0,0,1,1-3.56,3.42,3.42,0,0,1,3-1.51A3.31,3.31,0,0,1,125.38,99.45Zm-3.54,7a2.24,2.24,0,0,0,2,1,2.15,2.15,0,0,0,1.8-.94,4.47,4.47,0,0,0,.7-2.71,4,4,0,0,0-.72-2.64,2.29,2.29,0,0,0-1.8-.86,2.37,2.37,0,0,0-1.93.91,4.23,4.23,0,0,0-.73,2.69A4.7,4.7,0,0,0,121.84,106.5Z"/><path class="cls-1" d="M135.26,102.87a.86.86,0,0,0,.73-.45,1.43,1.43,0,0,0,.1-.61,1.31,1.31,0,0,0-.57-1.18,3.09,3.09,0,0,0-1.64-.37,2.08,2.08,0,0,0-1.76.68,2.21,2.21,0,0,0-.38,1.1h-1.47a2.75,2.75,0,0,1,1.12-2.43,4.71,4.71,0,0,1,2.52-.68,5.1,5.1,0,0,1,2.69.63,2.14,2.14,0,0,1,1,2V107a.76.76,0,0,0,.1.4.49.49,0,0,0,.43.15h.24l.28,0v1.16c-.25.07-.44.12-.56.14l-.53,0a1.3,1.3,0,0,1-1.19-.58,2.12,2.12,0,0,1-.27-.87,4,4,0,0,1-1.39,1.1,4.29,4.29,0,0,1-2,.47,3,3,0,0,1-2.15-.8,2.65,2.65,0,0,1-.83-2,2.56,2.56,0,0,1,.82-2,3.9,3.9,0,0,1,2.15-.89Zm-3.33,4.28a1.86,1.86,0,0,0,1.18.39,3.7,3.7,0,0,0,1.62-.38,2.18,2.18,0,0,0,1.32-2.1v-1.27a2.66,2.66,0,0,1-.75.3,4.85,4.85,0,0,1-.89.18l-1,.12a3.88,3.88,0,0,0-1.29.36,1.41,1.41,0,0,0-.73,1.32A1.29,1.29,0,0,0,131.93,107.15Z"/><path class="cls-1" d="M145.09,99.2h1.55v1.25a3.72,3.72,0,0,1,1-1,3.28,3.28,0,0,1,1.89-.53,3.54,3.54,0,0,1,2.72,1.23,5,5,0,0,1,1.12,3.5q0,3.07-1.62,4.39a3.62,3.62,0,0,1-2.38.84,3.24,3.24,0,0,1-1.79-.47,4,4,0,0,1-.94-.9v4.8h-1.59Zm6,7.38a4.4,4.4,0,0,0,.73-2.77,5.36,5.36,0,0,0-.32-1.94,2.4,2.4,0,0,0-4.52.09,6.44,6.44,0,0,0-.33,2.23,4.69,4.69,0,0,0,.33,1.86,2.25,2.25,0,0,0,2.26,1.46A2.28,2.28,0,0,0,151.05,106.58Z"/><path class="cls-1" d="M155.28,99.16h1.5v1.62a3.75,3.75,0,0,1,.91-1.15,2.31,2.31,0,0,1,1.66-.68h.15l.36,0v1.67l-.26,0h-.26a2.24,2.24,0,0,0-1.84.77,2.71,2.71,0,0,0-.64,1.77v5.41h-1.58Z"/><path class="cls-1" d="M168.05,100.1a4.75,4.75,0,0,1,1.25,3.56,6.16,6.16,0,0,1-1.1,3.76,4,4,0,0,1-3.41,1.48,3.84,3.84,0,0,1-3.07-1.31,5.22,5.22,0,0,1-1.13-3.52,5.69,5.69,0,0,1,1.19-3.78A4,4,0,0,1,165,98.88,4.21,4.21,0,0,1,168.05,100.1Zm-1,6.25a6,6,0,0,0,.58-2.64,4.76,4.76,0,0,0-.42-2.15,2.35,2.35,0,0,0-2.28-1.3,2.23,2.23,0,0,0-2.08,1.11,5.13,5.13,0,0,0-.66,2.67,4.45,4.45,0,0,0,.66,2.5,2.27,2.27,0,0,0,2.07,1A2.15,2.15,0,0,0,167.07,106.35Z"/><path class="cls-1" d="M176.41,99.45a4.17,4.17,0,0,1,1,.92V95.62h1.52v12.95h-1.43v-1.31a3.39,3.39,0,0,1-1.3,1.26,3.7,3.7,0,0,1-1.73.38,3.5,3.5,0,0,1-2.71-1.32,5.2,5.2,0,0,1-1.15-3.52,6.06,6.06,0,0,1,1.05-3.56,3.41,3.41,0,0,1,3-1.51A3.25,3.25,0,0,1,176.41,99.45Zm-3.53,7a2.24,2.24,0,0,0,2.05,1,2.13,2.13,0,0,0,1.79-.94,4.46,4.46,0,0,0,.71-2.71,4,4,0,0,0-.73-2.64,2.26,2.26,0,0,0-1.79-.86,2.36,2.36,0,0,0-1.93.91,4.23,4.23,0,0,0-.74,2.69A4.7,4.7,0,0,0,172.88,106.5Z"/><path class="cls-1" d="M182.83,99.16v6.25a2.62,2.62,0,0,0,.23,1.17,1.53,1.53,0,0,0,1.53.85,2.16,2.16,0,0,0,2.19-1.48,6,6,0,0,0,.32-2.17V99.16h1.58v9.41h-1.5l0-1.39a3.18,3.18,0,0,1-.75.91,3.26,3.26,0,0,1-2.15.74,2.78,2.78,0,0,1-2.7-1.35,4.17,4.17,0,0,1-.38-1.92v-6.4Z"/><path class="cls-1" d="M191.58,96.53h1.6v2.63h1.5v1.29h-1.5v6.14a.67.67,0,0,0,.33.66,1.37,1.37,0,0,0,.62.1h.24l.31,0v1.26a3.38,3.38,0,0,1-.57.11,4.09,4.09,0,0,1-.63,0,1.73,1.73,0,0,1-1.51-.57,2.53,2.53,0,0,1-.39-1.47v-6.23H190.3V99.16h1.28Z"/><path class="cls-1" d="M203.08,100.1a4.71,4.71,0,0,1,1.25,3.56,6.1,6.1,0,0,1-1.1,3.76,4,4,0,0,1-3.41,1.48,3.8,3.8,0,0,1-3.06-1.31,5.17,5.17,0,0,1-1.14-3.52,5.64,5.64,0,0,1,1.2-3.78A4,4,0,0,1,200,98.88,4.21,4.21,0,0,1,203.08,100.1Zm-1,6.25a5.88,5.88,0,0,0,.58-2.64,4.76,4.76,0,0,0-.42-2.15,2.35,2.35,0,0,0-2.27-1.3,2.24,2.24,0,0,0-2.09,1.11,5.13,5.13,0,0,0-.65,2.67,4.45,4.45,0,0,0,.65,2.5,2.27,2.27,0,0,0,2.07,1A2.14,2.14,0,0,0,202.1,106.35Z"/><path class="cls-1" d="M207.21,105.62a2.31,2.31,0,0,0,.41,1.21,2.57,2.57,0,0,0,2.12.76,3.1,3.1,0,0,0,1.57-.38A1.26,1.26,0,0,0,212,106a1,1,0,0,0-.55-.92,6.43,6.43,0,0,0-1.37-.45l-1.28-.32a6.23,6.23,0,0,1-1.81-.67,2,2,0,0,1-1-1.77,2.69,2.69,0,0,1,1-2.16,4,4,0,0,1,2.63-.83,3.69,3.69,0,0,1,3.11,1.25,2.66,2.66,0,0,1,.57,1.7h-1.49a1.82,1.82,0,0,0-.39-1,2.51,2.51,0,0,0-1.93-.62,2.33,2.33,0,0,0-1.39.35,1,1,0,0,0-.47.9,1.1,1.1,0,0,0,.62,1,4,4,0,0,0,1.05.38l1.07.26a8.16,8.16,0,0,1,2.33.8,2.12,2.12,0,0,1,.92,1.91,2.88,2.88,0,0,1-1,2.17,4.13,4.13,0,0,1-2.94.91,4,4,0,0,1-3-1,3.65,3.65,0,0,1-.95-2.36Z"/><path class="cls-1" d="M95,120.42a3.59,3.59,0,0,1,1.43,1.21,4.42,4.42,0,0,1,.63,1.66,11.32,11.32,0,0,1,.14,2.08H90.32a4,4,0,0,0,.67,2.3,2.25,2.25,0,0,0,2,.87,2.49,2.49,0,0,0,2-.82,2.77,2.77,0,0,0,.58-1.1H97a3.49,3.49,0,0,1-.41,1.15,4.15,4.15,0,0,1-.78,1,3.55,3.55,0,0,1-1.77.95,5,5,0,0,1-1.28.14,3.92,3.92,0,0,1-3-1.27A5,5,0,0,1,88.62,125a5.4,5.4,0,0,1,1.23-3.68A4,4,0,0,1,93,120,4.14,4.14,0,0,1,95,120.42Zm.57,3.69a4.11,4.11,0,0,0-.44-1.64,2.28,2.28,0,0,0-2.16-1.14,2.38,2.38,0,0,0-1.81.78,2.94,2.94,0,0,0-.77,2Z"/><path class="cls-1" d="M105.11,126.62a2.31,2.31,0,0,0,.41,1.21,2.54,2.54,0,0,0,2.11.76,3.11,3.11,0,0,0,1.58-.38,1.25,1.25,0,0,0,.68-1.18,1,1,0,0,0-.54-.92,6.37,6.37,0,0,0-1.38-.45l-1.27-.32a6.23,6.23,0,0,1-1.81-.67,2,2,0,0,1-1-1.77,2.69,2.69,0,0,1,1-2.16,3.94,3.94,0,0,1,2.62-.83,3.66,3.66,0,0,1,3.11,1.25,2.67,2.67,0,0,1,.58,1.7h-1.49a1.82,1.82,0,0,0-.39-1,2.52,2.52,0,0,0-1.93-.62,2.31,2.31,0,0,0-1.39.35,1,1,0,0,0-.48.9,1.11,1.11,0,0,0,.63,1,3.85,3.85,0,0,0,1,.38l1.07.26a8.16,8.16,0,0,1,2.33.8,2.12,2.12,0,0,1,.92,1.91,2.88,2.88,0,0,1-1,2.17,4.13,4.13,0,0,1-2.94.91,4,4,0,0,1-3-1,3.6,3.6,0,0,1-1-2.36Z"/><path class="cls-1" d="M119,120.42a3.62,3.62,0,0,1,1.42,1.21,4.42,4.42,0,0,1,.63,1.66,11.32,11.32,0,0,1,.14,2.08h-6.85a4.1,4.1,0,0,0,.67,2.3,2.25,2.25,0,0,0,2,.87,2.49,2.49,0,0,0,2-.82,2.77,2.77,0,0,0,.58-1.1h1.56a3.27,3.27,0,0,1-.41,1.15,3.93,3.93,0,0,1-.78,1,3.55,3.55,0,0,1-1.77.95,5,5,0,0,1-1.28.14,3.93,3.93,0,0,1-3-1.27,5,5,0,0,1-1.21-3.59,5.4,5.4,0,0,1,1.22-3.68,4,4,0,0,1,3.2-1.41A4.19,4.19,0,0,1,119,120.42Zm.56,3.69a4.11,4.11,0,0,0-.44-1.64,2.28,2.28,0,0,0-2.15-1.14,2.41,2.41,0,0,0-1.82.78,3,3,0,0,0-.77,2Z"/><path class="cls-1" d="M123.23,120.16h1.5v1.62a3.54,3.54,0,0,1,.9-1.15,2.35,2.35,0,0,1,1.67-.68h.15l.36,0v1.67l-.26,0h-.26a2.24,2.24,0,0,0-1.84.77,2.66,2.66,0,0,0-.64,1.77v5.41h-1.58Z"/><path class="cls-1" d="M130,120.16l2.52,7.66,2.62-7.66h1.73l-3.54,9.41h-1.69l-3.47-9.41Z"/><path class="cls-1" d="M138.18,116.66h1.61v1.79h-1.61Zm0,3.54h1.61v9.37h-1.61Z"/><path class="cls-1" d="M148.39,120.66a3.65,3.65,0,0,1,1.2,2.66h-1.53a2.82,2.82,0,0,0-.65-1.44,2,2,0,0,0-1.6-.58,2.24,2.24,0,0,0-2.17,1.47,5.91,5.91,0,0,0-.42,2.37,4.45,4.45,0,0,0,.6,2.38,2.32,2.32,0,0,0,3.44.36,3.37,3.37,0,0,0,.8-1.64h1.53a4.12,4.12,0,0,1-1.31,2.74,3.79,3.79,0,0,1-2.45.86l-.62.86a2,2,0,0,1,.66-.08,1.51,1.51,0,0,1,1,.35,1.32,1.32,0,0,1,.39,1,1.51,1.51,0,0,1-.52,1.15,2.36,2.36,0,0,1-1.62.48,3.76,3.76,0,0,1-1-.13,7.2,7.2,0,0,1-.75-.25l.3-.71.53.18a2.66,2.66,0,0,0,.65.09,1.57,1.57,0,0,0,.56-.09.67.67,0,0,0,.46-.67.65.65,0,0,0-.23-.49,1,1,0,0,0-.62-.2,1.83,1.83,0,0,0-.35,0,1.75,1.75,0,0,0-.37.12l-.31-.37,1-1.29a2.89,2.89,0,0,1-2.19-1,5.41,5.41,0,0,1-1.27-3.72,5.7,5.7,0,0,1,1.21-3.86,3.88,3.88,0,0,1,3.07-1.38A4,4,0,0,1,148.39,120.66Z"/><path class="cls-1" d="M158,121.1a4.74,4.74,0,0,1,1.24,3.56,6.1,6.1,0,0,1-1.1,3.76,4,4,0,0,1-3.41,1.48,3.82,3.82,0,0,1-3.06-1.31,5.17,5.17,0,0,1-1.14-3.52,5.64,5.64,0,0,1,1.2-3.78,4,4,0,0,1,3.21-1.41A4.23,4.23,0,0,1,158,121.1Zm-1,6.25a5.88,5.88,0,0,0,.58-2.64,4.76,4.76,0,0,0-.42-2.15,2.34,2.34,0,0,0-2.27-1.3,2.25,2.25,0,0,0-2.09,1.11,5.23,5.23,0,0,0-.65,2.67,4.53,4.53,0,0,0,.65,2.5,2.3,2.3,0,0,0,2.07,1A2.13,2.13,0,0,0,157,127.35Z"/><path class="cls-1" d="M162.13,126.62a2.22,2.22,0,0,0,.4,1.21,2.57,2.57,0,0,0,2.12.76,3.13,3.13,0,0,0,1.58-.38,1.27,1.27,0,0,0,.68-1.18,1,1,0,0,0-.55-.92,6.43,6.43,0,0,0-1.37-.45l-1.28-.32a6,6,0,0,1-1.8-.67,2,2,0,0,1-1-1.77,2.7,2.7,0,0,1,1-2.16,3.92,3.92,0,0,1,2.62-.83,3.68,3.68,0,0,1,3.11,1.25,2.73,2.73,0,0,1,.58,1.7h-1.5a1.89,1.89,0,0,0-.38-1,2.55,2.55,0,0,0-1.94-.62,2.35,2.35,0,0,0-1.39.35,1.05,1.05,0,0,0-.47.9,1.12,1.12,0,0,0,.62,1,3.94,3.94,0,0,0,1.06.38l1.06.26a8,8,0,0,1,2.33.8,2.1,2.1,0,0,1,.92,1.91,2.91,2.91,0,0,1-1,2.17,4.16,4.16,0,0,1-2.94.91,4,4,0,0,1-3-1,3.59,3.59,0,0,1-.94-2.36Z"/><path class="cls-1" d="M98,239.24a4.64,4.64,0,0,1,2.32,3.55H98.56a3.14,3.14,0,0,0-1.29-2.06,4.24,4.24,0,0,0-2.45-.65,3.83,3.83,0,0,0-3,1.34,5.88,5.88,0,0,0-1.2,4,6.49,6.49,0,0,0,1,3.75,3.65,3.65,0,0,0,3.23,1.45,4.06,4.06,0,0,0,2.84-1,4.31,4.31,0,0,0,1.15-3.28h-4v-1.45h5.67v6.91H99.37L99,250.12a6.3,6.3,0,0,1-1.55,1.36,5.74,5.74,0,0,1-2.88.65,5.58,5.58,0,0,1-3.88-1.49,7.1,7.1,0,0,1-1.77-5.11,7.43,7.43,0,0,1,1.73-5.16,5.47,5.47,0,0,1,4.26-1.83A6.61,6.61,0,0,1,98,239.24Z"/><path class="cls-1" d="M109,242.63a3.64,3.64,0,0,1,1.42,1.22,4.35,4.35,0,0,1,.63,1.66,11.2,11.2,0,0,1,.14,2.07h-6.85a4.08,4.08,0,0,0,.67,2.31,2.25,2.25,0,0,0,2,.87,2.52,2.52,0,0,0,2-.82,2.81,2.81,0,0,0,.58-1.11H111a3.31,3.31,0,0,1-.41,1.16,4.1,4.1,0,0,1-.78,1,3.55,3.55,0,0,1-1.77.95,5.51,5.51,0,0,1-1.28.14,3.94,3.94,0,0,1-3-1.28,5,5,0,0,1-1.21-3.58,5.4,5.4,0,0,1,1.22-3.68,4,4,0,0,1,3.2-1.42A4.32,4.32,0,0,1,109,242.63Zm.56,3.7a4.12,4.12,0,0,0-.44-1.65,2.28,2.28,0,0,0-2.16-1.14,2.36,2.36,0,0,0-1.81.79,3,3,0,0,0-.77,2Z"/><path class="cls-1" d="M113.22,242.37h1.5V244a3.55,3.55,0,0,1,.9-1.16,2.38,2.38,0,0,1,1.67-.68h.14l.37,0v1.67l-.26,0h-.26a2.27,2.27,0,0,0-1.84.77,2.66,2.66,0,0,0-.64,1.77v5.42h-1.58Z"/><path class="cls-1" d="M125,242.63a3.57,3.57,0,0,1,1.42,1.22,4,4,0,0,1,.63,1.66,10.37,10.37,0,0,1,.14,2.07h-6.84a4.08,4.08,0,0,0,.67,2.31,2.23,2.23,0,0,0,1.94.87,2.51,2.51,0,0,0,2-.82,2.83,2.83,0,0,0,.59-1.11H127a3.31,3.31,0,0,1-.41,1.16,4.32,4.32,0,0,1-.77,1,3.64,3.64,0,0,1-1.77.95,5.6,5.6,0,0,1-1.29.14,3.94,3.94,0,0,1-3-1.28,5,5,0,0,1-1.21-3.58,5.45,5.45,0,0,1,1.22-3.68,4,4,0,0,1,3.2-1.42A4.29,4.29,0,0,1,125,242.63Zm.57,3.7a4.11,4.11,0,0,0-.45-1.65,2.27,2.27,0,0,0-2.15-1.14,2.36,2.36,0,0,0-1.81.79,3,3,0,0,0-.78,2Z"/><path class="cls-1" d="M129.18,242.37h1.5v1.34a4.35,4.35,0,0,1,1.41-1.19,3.82,3.82,0,0,1,1.67-.36,2.74,2.74,0,0,1,2.7,1.4,4.93,4.93,0,0,1,.39,2.19v6h-1.61v-5.94a3.26,3.26,0,0,0-.25-1.39,1.55,1.55,0,0,0-1.53-.87,3,3,0,0,0-.93.11,2.44,2.44,0,0,0-1.14.77,2.34,2.34,0,0,0-.51,1,6.38,6.38,0,0,0-.12,1.42v4.93h-1.58Z"/><path class="cls-1" d="M145.41,242.87a3.77,3.77,0,0,1,1.2,2.67h-1.54a3,3,0,0,0-.64-1.45,2,2,0,0,0-1.61-.57,2.21,2.21,0,0,0-2.16,1.47,5.72,5.72,0,0,0-.43,2.36,4.43,4.43,0,0,0,.6,2.38,2.32,2.32,0,0,0,3.44.37,3.29,3.29,0,0,0,.8-1.64h1.54a3.73,3.73,0,0,1-4,3.6,3.62,3.62,0,0,1-3-1.35,5.17,5.17,0,0,1-1.09-3.37,5.7,5.7,0,0,1,1.2-3.86,3.9,3.9,0,0,1,3.07-1.38A4.15,4.15,0,0,1,145.41,242.87Z"/><path class="cls-1" d="M148.19,238.88h1.61v1.79h-1.61Zm0,3.54h1.61v9.37h-1.61Z"/><path class="cls-1" d="M158,242.63a3.57,3.57,0,0,1,1.42,1.22,4,4,0,0,1,.63,1.66,10.37,10.37,0,0,1,.14,2.07h-6.84a4.08,4.08,0,0,0,.67,2.31,2.24,2.24,0,0,0,1.94.87,2.51,2.51,0,0,0,2-.82,2.83,2.83,0,0,0,.59-1.11h1.55a3.31,3.31,0,0,1-.41,1.16,4.32,4.32,0,0,1-.77,1,3.64,3.64,0,0,1-1.77.95,5.58,5.58,0,0,1-1.28.14,4,4,0,0,1-3-1.28,5,5,0,0,1-1.21-3.58,5.45,5.45,0,0,1,1.22-3.68,4,4,0,0,1,3.2-1.42A4.29,4.29,0,0,1,158,242.63Zm.57,3.7a4.11,4.11,0,0,0-.45-1.65,2.27,2.27,0,0,0-2.15-1.14,2.36,2.36,0,0,0-1.81.79,3,3,0,0,0-.78,2Z"/><path class="cls-1" d="M167.51,239.75h1.6v2.62h1.51v1.3h-1.51v6.14a.67.67,0,0,0,.34.66,1.5,1.5,0,0,0,.61.09h.25l.31,0v1.26a3.38,3.38,0,0,1-.57.11,6.28,6.28,0,0,1-.64,0,1.7,1.7,0,0,1-1.5-.57,2.55,2.55,0,0,1-.4-1.47v-6.23h-1.27v-1.3h1.27Z"/><path class="cls-1" d="M179,243.31a4.77,4.77,0,0,1,1.25,3.57,6.18,6.18,0,0,1-1.1,3.76,4,4,0,0,1-3.41,1.48,3.87,3.87,0,0,1-3.07-1.31,5.25,5.25,0,0,1-1.13-3.53,5.64,5.64,0,0,1,1.19-3.77A4,4,0,0,1,176,242.1,4.21,4.21,0,0,1,179,243.31Zm-1,6.26a6.06,6.06,0,0,0,.58-2.65,4.71,4.71,0,0,0-.42-2.14,2.34,2.34,0,0,0-2.28-1.3,2.22,2.22,0,0,0-2.08,1.11,5.08,5.08,0,0,0-.66,2.67,4.45,4.45,0,0,0,.66,2.5,2.29,2.29,0,0,0,2.06,1A2.17,2.17,0,0,0,178,249.57Z"/><path class="cls-1" d="M187.38,242.66a4.49,4.49,0,0,1,1,.93v-4.76h1.52v13h-1.43v-1.31a3.36,3.36,0,0,1-1.3,1.25,3.71,3.71,0,0,1-1.73.39,3.48,3.48,0,0,1-2.71-1.32,5.16,5.16,0,0,1-1.15-3.52,6.11,6.11,0,0,1,1.05-3.57,3.42,3.42,0,0,1,3-1.5A3.34,3.34,0,0,1,187.38,242.66Zm-3.53,7.06a2.24,2.24,0,0,0,2.05,1,2.13,2.13,0,0,0,1.79-.94,4.5,4.5,0,0,0,.71-2.72,4,4,0,0,0-.73-2.64,2.25,2.25,0,0,0-1.79-.85,2.36,2.36,0,0,0-1.93.91,4.23,4.23,0,0,0-.74,2.69A4.64,4.64,0,0,0,183.85,249.72Z"/><path class="cls-1" d="M197.27,246.09a.88.88,0,0,0,.73-.46,1.4,1.4,0,0,0,.1-.61,1.28,1.28,0,0,0-.57-1.17,3.06,3.06,0,0,0-1.65-.37,2.07,2.07,0,0,0-1.75.67,2.19,2.19,0,0,0-.38,1.11h-1.48a2.73,2.73,0,0,1,1.13-2.43,4.58,4.58,0,0,1,2.52-.69,5.12,5.12,0,0,1,2.69.64,2.14,2.14,0,0,1,1,2v5.42a.64.64,0,0,0,.1.39.49.49,0,0,0,.43.15h.23l.28,0v1.17a4.52,4.52,0,0,1-.56.13,3.6,3.6,0,0,1-.53,0,1.3,1.3,0,0,1-1.18-.58,2.23,2.23,0,0,1-.27-.87,4.16,4.16,0,0,1-1.39,1.1,4.33,4.33,0,0,1-2,.46,3,3,0,0,1-2.14-.79,2.65,2.65,0,0,1-.83-2,2.55,2.55,0,0,1,.82-2,3.86,3.86,0,0,1,2.14-.88Zm-3.34,4.27a1.84,1.84,0,0,0,1.19.4,3.58,3.58,0,0,0,1.62-.39,2.17,2.17,0,0,0,1.32-2.1V247a2.49,2.49,0,0,1-.75.31,7.39,7.39,0,0,1-.89.18l-1,.12a3.88,3.88,0,0,0-1.29.36,1.39,1.39,0,0,0-.74,1.31A1.3,1.3,0,0,0,193.93,250.36Z"/><path class="cls-1" d="M203.17,248.83a2.26,2.26,0,0,0,.41,1.22,2.54,2.54,0,0,0,2.11.76,3.21,3.21,0,0,0,1.58-.38,1.26,1.26,0,0,0,.68-1.18,1,1,0,0,0-.54-.93,6,6,0,0,0-1.38-.44l-1.27-.32a6.23,6.23,0,0,1-1.81-.67,2,2,0,0,1-1-1.77,2.7,2.7,0,0,1,1-2.17,3.93,3.93,0,0,1,2.62-.82,3.64,3.64,0,0,1,3.11,1.25,2.66,2.66,0,0,1,.58,1.7h-1.49a1.76,1.76,0,0,0-.39-1,2.52,2.52,0,0,0-1.93-.62,2.32,2.32,0,0,0-1.39.34,1.06,1.06,0,0,0-.48.9,1.1,1.1,0,0,0,.62,1,3.71,3.71,0,0,0,1.06.39l1.07.25a8.74,8.74,0,0,1,2.32.8,2.12,2.12,0,0,1,.93,1.91,2.87,2.87,0,0,1-1,2.17,4.13,4.13,0,0,1-2.94.92,4,4,0,0,1-3-1,3.56,3.56,0,0,1-.95-2.36Z"/><path class="cls-1" d="M221.28,246.09a.88.88,0,0,0,.73-.46,1.4,1.4,0,0,0,.1-.61,1.28,1.28,0,0,0-.57-1.17,3,3,0,0,0-1.65-.37,2.07,2.07,0,0,0-1.75.67,2.29,2.29,0,0,0-.38,1.11h-1.47a2.7,2.7,0,0,1,1.12-2.43,4.6,4.6,0,0,1,2.52-.69,5.12,5.12,0,0,1,2.69.64,2.14,2.14,0,0,1,1,2v5.42a.64.64,0,0,0,.1.39.49.49,0,0,0,.43.15h.24l.28,0v1.17a5,5,0,0,1-.57.13,3.54,3.54,0,0,1-.52,0,1.32,1.32,0,0,1-1.19-.58,2.23,2.23,0,0,1-.27-.87,4.06,4.06,0,0,1-1.39,1.1,4.3,4.3,0,0,1-2,.46,3,3,0,0,1-2.14-.79,2.65,2.65,0,0,1-.83-2,2.58,2.58,0,0,1,.82-2,3.89,3.89,0,0,1,2.14-.88ZM218,250.36a1.81,1.81,0,0,0,1.18.4,3.58,3.58,0,0,0,1.62-.39,2.17,2.17,0,0,0,1.32-2.1V247a2.39,2.39,0,0,1-.75.31,7.39,7.39,0,0,1-.89.18l-1,.12a3.88,3.88,0,0,0-1.29.36,1.38,1.38,0,0,0-.73,1.31A1.28,1.28,0,0,0,218,250.36Z"/><path class="cls-1" d="M227.18,248.83a2.35,2.35,0,0,0,.41,1.22,2.54,2.54,0,0,0,2.11.76,3.21,3.21,0,0,0,1.58-.38,1.26,1.26,0,0,0,.68-1.18,1,1,0,0,0-.54-.93,6,6,0,0,0-1.38-.44l-1.27-.32a6.23,6.23,0,0,1-1.81-.67,2,2,0,0,1-1-1.77,2.7,2.7,0,0,1,1-2.17,3.94,3.94,0,0,1,2.63-.82,3.63,3.63,0,0,1,3.1,1.25,2.66,2.66,0,0,1,.58,1.7h-1.49a1.76,1.76,0,0,0-.39-1,2.51,2.51,0,0,0-1.93-.62,2.34,2.34,0,0,0-1.39.34,1.05,1.05,0,0,0-.47.9,1.09,1.09,0,0,0,.62,1,3.51,3.51,0,0,0,1.05.39l1.07.25a8.85,8.85,0,0,1,2.33.8,2.14,2.14,0,0,1,.92,1.91,2.87,2.87,0,0,1-1,2.17,4.13,4.13,0,0,1-2.94.92,4,4,0,0,1-3-1,3.56,3.56,0,0,1-1-2.36Z"/><path class="cls-1" d="M89.16,263.37h1.56v1.34a5.6,5.6,0,0,1,1-1,3.09,3.09,0,0,1,1.78-.54,2.8,2.8,0,0,1,1.81.56,2.83,2.83,0,0,1,.7.93,3.36,3.36,0,0,1,1.24-1.12,3.4,3.4,0,0,1,1.6-.37,2.63,2.63,0,0,1,2.59,1.37,4.62,4.62,0,0,1,.37,2v6.27h-1.65v-6.54a1.52,1.52,0,0,0-.47-1.29,1.82,1.82,0,0,0-1.15-.36,2.26,2.26,0,0,0-1.6.63,2.72,2.72,0,0,0-.67,2.08v5.48H94.68v-6.15a3.17,3.17,0,0,0-.23-1.39,1.39,1.39,0,0,0-1.34-.66,2.31,2.31,0,0,0-1.63.69,3.39,3.39,0,0,0-.74,2.51v5H89.16Z"/><path class="cls-1" d="M111,264.31a4.73,4.73,0,0,1,1.25,3.57,6.12,6.12,0,0,1-1.1,3.76,4,4,0,0,1-3.41,1.48,3.83,3.83,0,0,1-3.06-1.31,5.2,5.2,0,0,1-1.14-3.53,5.59,5.59,0,0,1,1.2-3.77,4,4,0,0,1,3.21-1.41A4.2,4.2,0,0,1,111,264.31Zm-1,6.26a5.92,5.92,0,0,0,.58-2.65,4.71,4.71,0,0,0-.42-2.14,2.33,2.33,0,0,0-2.27-1.3,2.24,2.24,0,0,0-2.09,1.11,5.18,5.18,0,0,0-.65,2.67,4.53,4.53,0,0,0,.65,2.5,2.29,2.29,0,0,0,2.07,1A2.15,2.15,0,0,0,110,270.57Z"/><path class="cls-1" d="M114.94,263.37l2.52,7.67,2.62-7.67h1.73l-3.55,9.42h-1.68l-3.47-9.42Z"/><path class="cls-1" d="M123.17,259.88h1.6v1.79h-1.6Zm0,3.54h1.6v9.37h-1.6Z"/><path class="cls-1" d="M127.16,263.37h1.57v1.34a5,5,0,0,1,1-1,3,3,0,0,1,1.77-.54,2.78,2.78,0,0,1,1.81.56,2.84,2.84,0,0,1,.71.93,3.29,3.29,0,0,1,1.24-1.12,3.34,3.34,0,0,1,1.6-.37,2.62,2.62,0,0,1,2.58,1.37,4.47,4.47,0,0,1,.37,2v6.27h-1.64v-6.54a1.49,1.49,0,0,0-.48-1.29,1.81,1.81,0,0,0-1.14-.36,2.28,2.28,0,0,0-1.61.63,2.76,2.76,0,0,0-.67,2.08v5.48h-1.61v-6.15a3.2,3.2,0,0,0-.22-1.39,1.41,1.41,0,0,0-1.35-.66,2.32,2.32,0,0,0-1.63.69,3.39,3.39,0,0,0-.73,2.51v5h-1.59Z"/><path class="cls-1" d="M148,263.63a3.61,3.61,0,0,1,1.43,1.22,4.35,4.35,0,0,1,.63,1.66,11.2,11.2,0,0,1,.14,2.07h-6.85a4.08,4.08,0,0,0,.67,2.31,2.24,2.24,0,0,0,1.94.87,2.54,2.54,0,0,0,2-.82,3,3,0,0,0,.58-1.11H150a3.27,3.27,0,0,1-.4,1.16,4.63,4.63,0,0,1-.78,1,3.64,3.64,0,0,1-1.77,1,5.58,5.58,0,0,1-1.28.14,3.93,3.93,0,0,1-3-1.28,5,5,0,0,1-1.22-3.58,5.45,5.45,0,0,1,1.22-3.68,4,4,0,0,1,3.2-1.42A4.26,4.26,0,0,1,148,263.63Zm.57,3.7a4.11,4.11,0,0,0-.45-1.65,2.27,2.27,0,0,0-2.15-1.14,2.36,2.36,0,0,0-1.81.79,3,3,0,0,0-.78,2Z"/><path class="cls-1" d="M152.17,263.37h1.5v1.34a4.28,4.28,0,0,1,1.42-1.19,3.78,3.78,0,0,1,1.66-.36,2.75,2.75,0,0,1,2.71,1.4,5.1,5.1,0,0,1,.38,2.19v6h-1.61v-5.94a3.26,3.26,0,0,0-.25-1.39,1.55,1.55,0,0,0-1.53-.87,3,3,0,0,0-.92.11,2.42,2.42,0,0,0-1.15.77,2.34,2.34,0,0,0-.51,1,6.38,6.38,0,0,0-.12,1.42v4.93h-1.58Z"/><path class="cls-1" d="M162.5,260.75h1.6v2.62h1.5v1.3h-1.5v6.14a.67.67,0,0,0,.33.66,1.52,1.52,0,0,0,.62.09h.24l.31,0v1.26a3.38,3.38,0,0,1-.57.11,6.1,6.1,0,0,1-.64,0,1.72,1.72,0,0,1-1.5-.57,2.55,2.55,0,0,1-.39-1.47v-6.23h-1.28v-1.3h1.28Z"/><path class="cls-1" d="M172.23,267.09a.88.88,0,0,0,.73-.46,1.4,1.4,0,0,0,.1-.61,1.28,1.28,0,0,0-.57-1.17,3.06,3.06,0,0,0-1.65-.37,2.07,2.07,0,0,0-1.75.67,2.19,2.19,0,0,0-.38,1.11h-1.48a2.73,2.73,0,0,1,1.13-2.43,4.58,4.58,0,0,1,2.52-.69,5.12,5.12,0,0,1,2.69.64,2.14,2.14,0,0,1,1,2v5.42a.64.64,0,0,0,.1.39.49.49,0,0,0,.43.15h.23l.28,0v1.17a4.52,4.52,0,0,1-.56.13,3.6,3.6,0,0,1-.53,0,1.3,1.3,0,0,1-1.18-.58,2.23,2.23,0,0,1-.27-.87,4.16,4.16,0,0,1-1.39,1.1,4.33,4.33,0,0,1-2,.46,3,3,0,0,1-2.14-.79,2.65,2.65,0,0,1-.83-2,2.55,2.55,0,0,1,.82-2,3.86,3.86,0,0,1,2.14-.88Zm-3.34,4.27a1.84,1.84,0,0,0,1.19.4,3.58,3.58,0,0,0,1.62-.39,2.17,2.17,0,0,0,1.32-2.1V268a2.49,2.49,0,0,1-.75.31,7.39,7.39,0,0,1-.89.18l-1,.12a3.88,3.88,0,0,0-1.29.36,1.39,1.39,0,0,0-.74,1.31A1.3,1.3,0,0,0,168.89,271.36Z"/><path class="cls-1" d="M183.41,263.87a3.77,3.77,0,0,1,1.2,2.67h-1.54a2.88,2.88,0,0,0-.64-1.45,2,2,0,0,0-1.61-.57,2.21,2.21,0,0,0-2.16,1.47,5.9,5.9,0,0,0-.42,2.36,4.43,4.43,0,0,0,.6,2.38,2,2,0,0,0,1.88,1,2.08,2.08,0,0,0,1.56-.6,3.36,3.36,0,0,0,.79-1.64h1.54a4.14,4.14,0,0,1-1.32,2.73,3.72,3.72,0,0,1-2.44.87l-.63.85a2.37,2.37,0,0,1,.66-.08,1.44,1.44,0,0,1,1,.36,1.27,1.27,0,0,1,.4,1,1.51,1.51,0,0,1-.53,1.15,2.29,2.29,0,0,1-1.62.49,4.1,4.1,0,0,1-1-.13c-.19,0-.44-.13-.76-.25l.31-.71.52.17a2.34,2.34,0,0,0,.65.1,1.42,1.42,0,0,0,.57-.1.67.67,0,0,0,.46-.66.63.63,0,0,0-.24-.49.88.88,0,0,0-.62-.21,1.29,1.29,0,0,0-.35,0,2.76,2.76,0,0,0-.36.11l-.31-.36.95-1.29a2.92,2.92,0,0,1-2.18-1,5.4,5.4,0,0,1-1.27-3.72,5.7,5.7,0,0,1,1.2-3.86,3.91,3.91,0,0,1,3.07-1.38A4.15,4.15,0,0,1,183.41,263.87Z"/><path class="cls-1" d="M193,264.31a4.77,4.77,0,0,1,1.25,3.57,6.18,6.18,0,0,1-1.1,3.76,4,4,0,0,1-3.41,1.48,3.87,3.87,0,0,1-3.07-1.31,5.25,5.25,0,0,1-1.13-3.53,5.59,5.59,0,0,1,1.2-3.77A4,4,0,0,1,190,263.1,4.2,4.2,0,0,1,193,264.31Zm-2.49-3.85a4.06,4.06,0,0,0,.44.16,1.52,1.52,0,0,0,.42.06.79.79,0,0,0,.7-.3,1.18,1.18,0,0,0,.16-.5h.92a2.39,2.39,0,0,1-.71,1.53,1.79,1.79,0,0,1-1.14.42,2.11,2.11,0,0,1-.5-.07,3.22,3.22,0,0,1-.52-.15l-.47-.17c-.27-.1-.5-.17-.67-.22a1.81,1.81,0,0,0-.51-.08.69.69,0,0,0-.5.2,1.19,1.19,0,0,0-.27.62H187a3.32,3.32,0,0,1,.38-1.14,1.64,1.64,0,0,1,1.48-.8,2.83,2.83,0,0,1,.67.08A6.6,6.6,0,0,1,190.52,260.46ZM192,270.57a5.92,5.92,0,0,0,.58-2.65,4.71,4.71,0,0,0-.42-2.14,2.34,2.34,0,0,0-2.28-1.3,2.23,2.23,0,0,0-2.08,1.11,5.08,5.08,0,0,0-.65,2.67,4.45,4.45,0,0,0,.65,2.5,2.29,2.29,0,0,0,2.07,1A2.16,2.16,0,0,0,192,270.57Z"/><path class="cls-1" d="M202,263.63a3.64,3.64,0,0,1,1.42,1.22,4.35,4.35,0,0,1,.63,1.66,11.2,11.2,0,0,1,.14,2.07h-6.85a4.16,4.16,0,0,0,.67,2.31,2.25,2.25,0,0,0,1.95.87,2.52,2.52,0,0,0,2-.82,2.81,2.81,0,0,0,.58-1.11h1.56a3.31,3.31,0,0,1-.41,1.16,4.1,4.1,0,0,1-.78,1,3.55,3.55,0,0,1-1.77,1,5.45,5.45,0,0,1-1.28.14,3.94,3.94,0,0,1-3-1.28,5,5,0,0,1-1.21-3.58,5.4,5.4,0,0,1,1.22-3.68,4,4,0,0,1,3.2-1.42A4.32,4.32,0,0,1,202,263.63Zm.56,3.7a4.12,4.12,0,0,0-.44-1.65,2.28,2.28,0,0,0-2.15-1.14,2.38,2.38,0,0,0-1.82.79,3,3,0,0,0-.77,2Z"/><path class="cls-1" d="M207.15,269.83a2.35,2.35,0,0,0,.41,1.22,2.54,2.54,0,0,0,2.11.76,3.21,3.21,0,0,0,1.58-.38,1.26,1.26,0,0,0,.68-1.18,1,1,0,0,0-.54-.93,6,6,0,0,0-1.38-.44l-1.27-.32a6.23,6.23,0,0,1-1.81-.67,2,2,0,0,1-1-1.77,2.7,2.7,0,0,1,1-2.17,3.94,3.94,0,0,1,2.63-.82,3.63,3.63,0,0,1,3.1,1.25,2.66,2.66,0,0,1,.58,1.7h-1.49a1.76,1.76,0,0,0-.39-1,2.51,2.51,0,0,0-1.93-.62,2.34,2.34,0,0,0-1.39.34,1.06,1.06,0,0,0-.48.9,1.1,1.1,0,0,0,.63,1,3.51,3.51,0,0,0,1.05.39l1.07.25a8.85,8.85,0,0,1,2.33.8,2.14,2.14,0,0,1,.92,1.91,2.87,2.87,0,0,1-1,2.17,4.13,4.13,0,0,1-2.94.92,4,4,0,0,1-3-1,3.56,3.56,0,0,1-1-2.36Z"/><path class="cls-1" d="M225.39,263.66a4.48,4.48,0,0,1,1,.93v-4.76h1.52v13h-1.42v-1.31a3.38,3.38,0,0,1-1.31,1.25,3.69,3.69,0,0,1-1.72.39,3.5,3.5,0,0,1-2.72-1.32,5.21,5.21,0,0,1-1.14-3.52,6.1,6.1,0,0,1,1-3.57,3.44,3.44,0,0,1,3-1.5A3.4,3.4,0,0,1,225.39,263.66Zm-3.54,7.06a2.24,2.24,0,0,0,2.05,1,2.15,2.15,0,0,0,1.8-.94,4.5,4.5,0,0,0,.7-2.72,4,4,0,0,0-.72-2.64,2.28,2.28,0,0,0-1.8-.85,2.34,2.34,0,0,0-1.92.91,4.17,4.17,0,0,0-.74,2.69A4.72,4.72,0,0,0,221.85,270.72Z"/><path class="cls-1" d="M237.05,264.31a4.77,4.77,0,0,1,1.24,3.57,6.12,6.12,0,0,1-1.1,3.76,4,4,0,0,1-3.41,1.48,3.85,3.85,0,0,1-3.06-1.31,5.2,5.2,0,0,1-1.14-3.53,5.59,5.59,0,0,1,1.2-3.77A4,4,0,0,1,234,263.1,4.24,4.24,0,0,1,237.05,264.31Zm-1,6.26a5.92,5.92,0,0,0,.58-2.65,4.71,4.71,0,0,0-.42-2.14,2.33,2.33,0,0,0-2.27-1.3,2.25,2.25,0,0,0-2.09,1.11,5.18,5.18,0,0,0-.65,2.67,4.53,4.53,0,0,0,.65,2.5,2.31,2.31,0,0,0,2.07,1A2.15,2.15,0,0,0,236.06,270.57Z"/><path class="cls-1" d="M90.1,290.83a2.35,2.35,0,0,0,.4,1.22,2.58,2.58,0,0,0,2.12.76,3.21,3.21,0,0,0,1.58-.38,1.28,1.28,0,0,0,.68-1.18,1,1,0,0,0-.54-.93,6.16,6.16,0,0,0-1.38-.44l-1.28-.32a6.26,6.26,0,0,1-1.8-.67,2,2,0,0,1-1-1.77,2.7,2.7,0,0,1,1-2.17,3.92,3.92,0,0,1,2.62-.82,3.64,3.64,0,0,1,3.11,1.25,2.66,2.66,0,0,1,.58,1.7H94.64a1.76,1.76,0,0,0-.39-1,2.53,2.53,0,0,0-1.94-.62,2.36,2.36,0,0,0-1.39.34,1.08,1.08,0,0,0-.47.9,1.1,1.1,0,0,0,.62,1,3.59,3.59,0,0,0,1.06.39l1.07.25a8.74,8.74,0,0,1,2.32.8,2.12,2.12,0,0,1,.93,1.91,2.9,2.9,0,0,1-1,2.17,4.13,4.13,0,0,1-2.94.92,4,4,0,0,1-3-1,3.56,3.56,0,0,1-1-2.36Z"/><path class="cls-1" d="M104,284.63a3.61,3.61,0,0,1,1.43,1.22,4.35,4.35,0,0,1,.63,1.66,11.2,11.2,0,0,1,.14,2.07H99.32a4.08,4.08,0,0,0,.67,2.31,2.25,2.25,0,0,0,2,.87,2.52,2.52,0,0,0,2-.82,2.81,2.81,0,0,0,.58-1.11H106a3.53,3.53,0,0,1-.41,1.16,4.35,4.35,0,0,1-.78,1,3.55,3.55,0,0,1-1.77,1,5.51,5.51,0,0,1-1.28.14,3.93,3.93,0,0,1-3-1.28,5,5,0,0,1-1.22-3.58,5.4,5.4,0,0,1,1.23-3.68,4,4,0,0,1,3.19-1.42A4.26,4.26,0,0,1,104,284.63Zm.57,3.7a4.12,4.12,0,0,0-.44-1.65,2.28,2.28,0,0,0-2.16-1.14,2.36,2.36,0,0,0-1.81.79,2.92,2.92,0,0,0-.77,2Z"/><path class="cls-1" d="M109.75,284.37v6.25a2.66,2.66,0,0,0,.23,1.18,1.54,1.54,0,0,0,1.53.84,2.17,2.17,0,0,0,2.19-1.47A6,6,0,0,0,114,289v-4.63h1.58v9.42h-1.5l0-1.39a3.13,3.13,0,0,1-.75.9,3.27,3.27,0,0,1-2.16.74,2.78,2.78,0,0,1-2.69-1.34,4.09,4.09,0,0,1-.38-1.93v-6.4Z"/><path class="cls-1" d="M129,284.63a3.64,3.64,0,0,1,1.42,1.22,4.2,4.2,0,0,1,.63,1.66,11.2,11.2,0,0,1,.14,2.07h-6.85a4.16,4.16,0,0,0,.67,2.31,2.25,2.25,0,0,0,1.95.87,2.52,2.52,0,0,0,2-.82,2.81,2.81,0,0,0,.58-1.11h1.56a3.31,3.31,0,0,1-.41,1.16,4.1,4.1,0,0,1-.78,1,3.55,3.55,0,0,1-1.77,1,5.45,5.45,0,0,1-1.28.14,3.94,3.94,0,0,1-3-1.28,5,5,0,0,1-1.21-3.58,5.4,5.4,0,0,1,1.22-3.68,4,4,0,0,1,3.2-1.42A4.32,4.32,0,0,1,129,284.63Zm.56,3.7a4.12,4.12,0,0,0-.44-1.65,2.28,2.28,0,0,0-2.15-1.14,2.38,2.38,0,0,0-1.82.79,3,3,0,0,0-.77,2Z"/><path class="cls-1" d="M134,284.37l2.51,7.67,2.62-7.67h1.74l-3.55,9.42h-1.68l-3.48-9.42Z"/><path class="cls-1" d="M148,284.63a3.57,3.57,0,0,1,1.42,1.22,4,4,0,0,1,.63,1.66,11.2,11.2,0,0,1,.14,2.07h-6.85a4.08,4.08,0,0,0,.68,2.31,2.22,2.22,0,0,0,1.94.87,2.52,2.52,0,0,0,2-.82,2.69,2.69,0,0,0,.58-1.11h1.56a3.31,3.31,0,0,1-.41,1.16,4.1,4.1,0,0,1-.78,1,3.55,3.55,0,0,1-1.77,1,5.45,5.45,0,0,1-1.28.14,3.94,3.94,0,0,1-3-1.28,5,5,0,0,1-1.21-3.58,5.4,5.4,0,0,1,1.22-3.68,4,4,0,0,1,3.2-1.42A4.32,4.32,0,0,1,148,284.63Zm.56,3.7a4.12,4.12,0,0,0-.44-1.65,2.28,2.28,0,0,0-2.15-1.14,2.38,2.38,0,0,0-1.82.79,3,3,0,0,0-.77,2Z"/><path class="cls-1" d="M152.2,284.37h1.51v1.34a4.15,4.15,0,0,1,1.41-1.19,3.78,3.78,0,0,1,1.66-.36,2.75,2.75,0,0,1,2.71,1.4,4.93,4.93,0,0,1,.39,2.19v6h-1.61v-5.94a3.25,3.25,0,0,0-.26-1.39,1.55,1.55,0,0,0-1.53-.87,3,3,0,0,0-.92.11,2.44,2.44,0,0,0-1.14.77,2.23,2.23,0,0,0-.51,1,6.38,6.38,0,0,0-.12,1.42v4.93H152.2Z"/><path class="cls-1" d="M162.53,281.75h1.6v2.62h1.5v1.3h-1.5v6.14a.67.67,0,0,0,.33.66,1.55,1.55,0,0,0,.62.09h.25l.3,0v1.26a3.47,3.47,0,0,1-.56.11,6.28,6.28,0,0,1-.64,0,1.7,1.7,0,0,1-1.5-.57,2.48,2.48,0,0,1-.4-1.47v-6.23h-1.27v-1.3h1.27Z"/><path class="cls-1" d="M174,285.31a4.77,4.77,0,0,1,1.24,3.57,6.12,6.12,0,0,1-1.1,3.76,4,4,0,0,1-3.41,1.48,3.85,3.85,0,0,1-3.06-1.31,5.2,5.2,0,0,1-1.14-3.53,5.59,5.59,0,0,1,1.2-3.77A4,4,0,0,1,171,284.1,4.22,4.22,0,0,1,174,285.31Zm-1,6.26a5.92,5.92,0,0,0,.58-2.65,4.71,4.71,0,0,0-.42-2.14,2.32,2.32,0,0,0-2.27-1.3,2.25,2.25,0,0,0-2.09,1.11,5.18,5.18,0,0,0-.65,2.67,4.53,4.53,0,0,0,.65,2.5,2.32,2.32,0,0,0,2.07,1A2.15,2.15,0,0,0,173.05,291.57Z"/><path class="cls-1" d="M89.58,324.08h5.87a5.7,5.7,0,0,1,2.39.44,3.05,3.05,0,0,1,1.79,3.05,3.4,3.4,0,0,1-.48,1.89,3.45,3.45,0,0,1-1.34,1.19,2.7,2.7,0,0,1,1.14.81,2.92,2.92,0,0,1,.42,1.62l.06,1.74a5.14,5.14,0,0,0,.13,1.1,1.07,1.07,0,0,0,.56.79V337H98a1.55,1.55,0,0,1-.14-.43,6.89,6.89,0,0,1-.09-1l-.11-2.16a1.8,1.8,0,0,0-.91-1.69,3.68,3.68,0,0,0-1.53-.24H91.33V337H89.58ZM95.26,330a3.24,3.24,0,0,0,1.9-.49,2,2,0,0,0,.69-1.78,1.92,1.92,0,0,0-1-1.88,3.19,3.19,0,0,0-1.39-.26H91.33V330Z"/><path class="cls-1" d="M108,327.84a3.61,3.61,0,0,1,1.43,1.22,4.35,4.35,0,0,1,.63,1.66,11.2,11.2,0,0,1,.14,2.07h-6.85a4.08,4.08,0,0,0,.67,2.31,2.25,2.25,0,0,0,2,.87,2.53,2.53,0,0,0,2-.82,3,3,0,0,0,.58-1.11H110a3.27,3.27,0,0,1-.4,1.16,4.35,4.35,0,0,1-.78,1,3.64,3.64,0,0,1-1.77.95,5.58,5.58,0,0,1-1.28.14,3.93,3.93,0,0,1-3-1.28,5,5,0,0,1-1.22-3.58,5.4,5.4,0,0,1,1.23-3.68,4,4,0,0,1,3.19-1.42A4.26,4.26,0,0,1,108,327.84Zm.57,3.7a4.12,4.12,0,0,0-.44-1.65,2.28,2.28,0,0,0-2.16-1.14,2.36,2.36,0,0,0-1.81.79,3,3,0,0,0-.78,2Z"/><path class="cls-1" d="M117.21,331.3a.85.85,0,0,0,.73-.46,1.38,1.38,0,0,0,.11-.61,1.28,1.28,0,0,0-.57-1.17,3.06,3.06,0,0,0-1.65-.37,2.07,2.07,0,0,0-1.75.67,2.19,2.19,0,0,0-.38,1.11h-1.48a2.73,2.73,0,0,1,1.13-2.43,4.58,4.58,0,0,1,2.52-.69,5.12,5.12,0,0,1,2.69.64,2.14,2.14,0,0,1,1,2v5.42a.67.67,0,0,0,.1.39.49.49,0,0,0,.43.15h.23l.28,0V337a4.52,4.52,0,0,1-.56.13,3.6,3.6,0,0,1-.53,0,1.3,1.3,0,0,1-1.18-.58,2.23,2.23,0,0,1-.27-.87,4.16,4.16,0,0,1-1.39,1.1,4.33,4.33,0,0,1-2,.46,3,3,0,0,1-2.14-.79,2.65,2.65,0,0,1-.83-2,2.55,2.55,0,0,1,.82-2,3.86,3.86,0,0,1,2.14-.88Zm-3.33,4.27a1.84,1.84,0,0,0,1.19.4,3.58,3.58,0,0,0,1.62-.39,2.17,2.17,0,0,0,1.32-2.1v-1.27a2.92,2.92,0,0,1-.75.31,7.39,7.39,0,0,1-.89.18l-1,.12a3.88,3.88,0,0,0-1.29.36,1.39,1.39,0,0,0-.74,1.31A1.3,1.3,0,0,0,113.88,335.57Z"/><path class="cls-1" d="M122.22,324.08h1.59V337h-1.59Z"/><path class="cls-1" d="M126.18,324.08h1.61v1.8h-1.61Zm0,3.55h1.61V337h-1.61Z"/><path class="cls-1" d="M129.48,335.75l5.59-6.75h-5.18v-1.42h7.3v1.3l-5.55,6.7h5.72V337h-7.88Z"/><path class="cls-1" d="M145,327.84a3.61,3.61,0,0,1,1.43,1.22,4.35,4.35,0,0,1,.63,1.66,11.2,11.2,0,0,1,.14,2.07h-6.85a4.08,4.08,0,0,0,.67,2.31,2.25,2.25,0,0,0,2,.87,2.53,2.53,0,0,0,2-.82,3,3,0,0,0,.58-1.11h1.55a3.27,3.27,0,0,1-.4,1.16,4.35,4.35,0,0,1-.78,1,3.64,3.64,0,0,1-1.77.95,5.58,5.58,0,0,1-1.28.14,3.93,3.93,0,0,1-3-1.28,5,5,0,0,1-1.22-3.58,5.4,5.4,0,0,1,1.23-3.68,4,4,0,0,1,3.19-1.42A4.26,4.26,0,0,1,145,327.84Zm.57,3.7a4.12,4.12,0,0,0-.44-1.65,2.29,2.29,0,0,0-2.16-1.14,2.36,2.36,0,0,0-1.81.79,3,3,0,0,0-.78,2Z"/><path class="cls-1" d="M155.13,334a2.35,2.35,0,0,0,.4,1.22,2.58,2.58,0,0,0,2.12.76,3.21,3.21,0,0,0,1.58-.38,1.28,1.28,0,0,0,.68-1.18,1,1,0,0,0-.54-.93,6.58,6.58,0,0,0-1.38-.45l-1.28-.31a6.26,6.26,0,0,1-1.8-.67,2,2,0,0,1-1-1.77,2.7,2.7,0,0,1,1-2.17,3.92,3.92,0,0,1,2.62-.82,3.66,3.66,0,0,1,3.11,1.24,2.7,2.7,0,0,1,.58,1.71h-1.49a1.76,1.76,0,0,0-.39-1,2.53,2.53,0,0,0-1.94-.62A2.3,2.3,0,0,0,156,329a1.06,1.06,0,0,0-.48.9,1.1,1.1,0,0,0,.62,1,3.59,3.59,0,0,0,1.06.39l1.07.25a8.74,8.74,0,0,1,2.32.8,2.12,2.12,0,0,1,.93,1.91,2.9,2.9,0,0,1-1,2.17,4.13,4.13,0,0,1-2.94.92,4,4,0,0,1-3-1,3.56,3.56,0,0,1-.95-2.36Z"/><path class="cls-1" d="M170,328.52a4.77,4.77,0,0,1,1.25,3.57,6.18,6.18,0,0,1-1.1,3.76,4,4,0,0,1-3.41,1.48,3.87,3.87,0,0,1-3.07-1.31,5.25,5.25,0,0,1-1.13-3.53,5.69,5.69,0,0,1,1.19-3.78,4,4,0,0,1,3.22-1.4A4.2,4.2,0,0,1,170,328.52Zm-1,6.26a6.06,6.06,0,0,0,.58-2.65,4.71,4.71,0,0,0-.42-2.14,2.34,2.34,0,0,0-2.28-1.3,2.23,2.23,0,0,0-2.08,1.11,5.07,5.07,0,0,0-.66,2.66,4.46,4.46,0,0,0,.66,2.51,2.29,2.29,0,0,0,2.07,1A2.16,2.16,0,0,0,169,334.78Z"/><path class="cls-1" d="M173.25,327.58h1.5v1.63a3.55,3.55,0,0,1,.9-1.16,2.37,2.37,0,0,1,1.66-.68h.15l.36,0v1.67l-.26,0h-.25a2.27,2.27,0,0,0-1.84.77,2.66,2.66,0,0,0-.64,1.77V337h-1.58Z"/><path class="cls-1" d="M179.51,325h1.6v2.62h1.5v1.3h-1.5V335a.66.66,0,0,0,.34.66,1.47,1.47,0,0,0,.61.09h.25l.3,0V337a3.47,3.47,0,0,1-.56.11,6.28,6.28,0,0,1-.64,0,1.7,1.7,0,0,1-1.5-.57,2.48,2.48,0,0,1-.4-1.47v-6.23h-1.27v-1.3h1.27Z"/><path class="cls-1" d="M190,327.84a3.57,3.57,0,0,1,1.42,1.22,4,4,0,0,1,.63,1.66,10.37,10.37,0,0,1,.14,2.07h-6.84a4.08,4.08,0,0,0,.67,2.31A2.23,2.23,0,0,0,188,336a2.51,2.51,0,0,0,2-.82,2.83,2.83,0,0,0,.59-1.11h1.55a3.31,3.31,0,0,1-.41,1.16,4.32,4.32,0,0,1-.77,1,3.64,3.64,0,0,1-1.77.95,5.58,5.58,0,0,1-1.28.14,4,4,0,0,1-3-1.28,5,5,0,0,1-1.21-3.58,5.45,5.45,0,0,1,1.22-3.68,4,4,0,0,1,3.2-1.42A4.29,4.29,0,0,1,190,327.84Zm.57,3.7a4.11,4.11,0,0,0-.45-1.65,2.27,2.27,0,0,0-2.15-1.14,2.36,2.36,0,0,0-1.81.79,3,3,0,0,0-.78,2Z"/><path class="cls-1" d="M194.21,324.08h1.61v1.8h-1.61Zm0,3.55h1.61V337h-1.61Z"/><path class="cls-1" d="M205,328.52a4.77,4.77,0,0,1,1.24,3.57,6.12,6.12,0,0,1-1.1,3.76,4,4,0,0,1-3.41,1.48A3.86,3.86,0,0,1,198.7,336a5.2,5.2,0,0,1-1.14-3.53,5.64,5.64,0,0,1,1.2-3.78,4,4,0,0,1,3.21-1.4A4.22,4.22,0,0,1,205,328.52Zm-1,6.26a5.92,5.92,0,0,0,.58-2.65,4.86,4.86,0,0,0-.41-2.14,2.35,2.35,0,0,0-2.28-1.3,2.25,2.25,0,0,0-2.09,1.11,5.16,5.16,0,0,0-.65,2.66,4.54,4.54,0,0,0,.65,2.51,2.32,2.32,0,0,0,2.07,1A2.15,2.15,0,0,0,204,334.78Z"/><path class="cls-1" d="M209.16,334a2.35,2.35,0,0,0,.4,1.22,2.57,2.57,0,0,0,2.12.76,3.24,3.24,0,0,0,1.58-.38,1.28,1.28,0,0,0,.68-1.18,1,1,0,0,0-.55-.93,6.43,6.43,0,0,0-1.37-.45l-1.28-.31a6,6,0,0,1-1.8-.67,2,2,0,0,1-1-1.77,2.7,2.7,0,0,1,1-2.17,3.92,3.92,0,0,1,2.62-.82,3.67,3.67,0,0,1,3.11,1.24,2.76,2.76,0,0,1,.58,1.71h-1.5a1.82,1.82,0,0,0-.38-1,2.55,2.55,0,0,0-1.94-.62A2.36,2.36,0,0,0,210,329a1.08,1.08,0,0,0-.47.9,1.1,1.1,0,0,0,.62,1,3.59,3.59,0,0,0,1.06.39l1.06.25a8.71,8.71,0,0,1,2.33.8,2.11,2.11,0,0,1,.92,1.91,2.89,2.89,0,0,1-1,2.17,4.16,4.16,0,0,1-2.94.92,4,4,0,0,1-3-1,3.55,3.55,0,0,1-.94-2.36Z"/><path class="cls-1" d="M95,348.84a3.61,3.61,0,0,1,1.43,1.22,4.35,4.35,0,0,1,.63,1.66,11.2,11.2,0,0,1,.14,2.07H90.32A4.08,4.08,0,0,0,91,356.1a2.25,2.25,0,0,0,2,.87,2.52,2.52,0,0,0,2-.82,2.81,2.81,0,0,0,.58-1.11H97a3.53,3.53,0,0,1-.41,1.16,4.35,4.35,0,0,1-.78,1,3.55,3.55,0,0,1-1.77.95,5.51,5.51,0,0,1-1.28.14,3.93,3.93,0,0,1-3-1.28,5,5,0,0,1-1.22-3.58,5.4,5.4,0,0,1,1.23-3.68A4,4,0,0,1,93,348.37,4.26,4.26,0,0,1,95,348.84Zm.57,3.7a4.12,4.12,0,0,0-.44-1.65,2.28,2.28,0,0,0-2.16-1.14,2.36,2.36,0,0,0-1.81.79,2.92,2.92,0,0,0-.77,2Z"/><path class="cls-1" d="M104,348.63h1.55v1.25a3.77,3.77,0,0,1,1-1,3.34,3.34,0,0,1,1.88-.53,3.56,3.56,0,0,1,2.73,1.23,5.05,5.05,0,0,1,1.11,3.5c0,2.05-.53,3.52-1.61,4.4a3.69,3.69,0,0,1-2.38.83,3.24,3.24,0,0,1-1.79-.46,4.11,4.11,0,0,1-.95-.91v4.81H104ZM110,356a4.38,4.38,0,0,0,.74-2.77,5.09,5.09,0,0,0-.33-1.93,2.39,2.39,0,0,0-4.51.09,6.4,6.4,0,0,0-.33,2.23,4.64,4.64,0,0,0,.33,1.85,2.39,2.39,0,0,0,4.1.53Z"/><path class="cls-1" d="M120,348.84a3.64,3.64,0,0,1,1.42,1.22,4.2,4.2,0,0,1,.63,1.66,11.2,11.2,0,0,1,.14,2.07h-6.85a4.16,4.16,0,0,0,.67,2.31A2.25,2.25,0,0,0,118,357a2.52,2.52,0,0,0,2-.82,2.81,2.81,0,0,0,.58-1.11h1.56a3.31,3.31,0,0,1-.41,1.16,4.1,4.1,0,0,1-.78,1,3.55,3.55,0,0,1-1.77.95,5.45,5.45,0,0,1-1.28.14,3.94,3.94,0,0,1-3-1.28,5,5,0,0,1-1.21-3.58,5.4,5.4,0,0,1,1.22-3.68,4,4,0,0,1,3.2-1.42A4.32,4.32,0,0,1,120,348.84Zm.56,3.7a4.12,4.12,0,0,0-.44-1.65,2.28,2.28,0,0,0-2.15-1.14,2.38,2.38,0,0,0-1.82.79,3,3,0,0,0-.77,2Z"/><path class="cls-1" d="M125.13,355a2.35,2.35,0,0,0,.41,1.22,2.54,2.54,0,0,0,2.11.76,3.21,3.21,0,0,0,1.58-.38,1.27,1.27,0,0,0,.69-1.18,1,1,0,0,0-.55-.93,6.37,6.37,0,0,0-1.38-.45l-1.27-.31a6.23,6.23,0,0,1-1.81-.67,2,2,0,0,1-1-1.77,2.7,2.7,0,0,1,1-2.17,3.94,3.94,0,0,1,2.63-.82,3.65,3.65,0,0,1,3.1,1.24,2.7,2.7,0,0,1,.58,1.71h-1.49a1.76,1.76,0,0,0-.39-1,2.51,2.51,0,0,0-1.93-.62A2.34,2.34,0,0,0,126,350a1.05,1.05,0,0,0-.47.9,1.09,1.09,0,0,0,.62,1,3.51,3.51,0,0,0,1,.39l1.07.25a8.85,8.85,0,0,1,2.33.8,2.14,2.14,0,0,1,.92,1.91,2.87,2.87,0,0,1-1,2.17,4.13,4.13,0,0,1-2.94.92,4,4,0,0,1-3-1,3.56,3.56,0,0,1-1-2.36Z"/><path class="cls-1" d="M138.5,349a3.38,3.38,0,0,1,.85.93v-1.31h1.49v13.17h-1.58v-4.83a2.92,2.92,0,0,1-1.09,1,3.87,3.87,0,0,1-4.43-.8,4.87,4.87,0,0,1-1.19-3.59,6,6,0,0,1,1.11-3.71,3.48,3.48,0,0,1,2.88-1.45A3.21,3.21,0,0,1,138.5,349Zm-3.95,6.5a2.16,2.16,0,0,0,2.16,1.47,2.28,2.28,0,0,0,2.28-1.54,6.12,6.12,0,0,0,.34-2.18,4.86,4.86,0,0,0-.38-2,2.29,2.29,0,0,0-2.25-1.4,2.2,2.2,0,0,0-1.76.89,4.29,4.29,0,0,0-.74,2.76A5.29,5.29,0,0,0,134.55,355.46Z"/><path class="cls-1" d="M144.79,348.58v6.25A2.67,2.67,0,0,0,145,356a1.54,1.54,0,0,0,1.53.84,2.17,2.17,0,0,0,2.19-1.47,6,6,0,0,0,.32-2.17v-4.63h1.58V358h-1.49v-1.39a3.13,3.13,0,0,1-.75.9,3.26,3.26,0,0,1-2.15.74,2.76,2.76,0,0,1-2.69-1.34,4.08,4.08,0,0,1-.39-1.93v-6.4Z"/><path class="cls-1" d="M153.21,345.08h1.61v1.8h-1.61Zm0,3.55h1.61V358h-1.61Z"/><path class="cls-1" d="M158.15,355a2.35,2.35,0,0,0,.41,1.22,2.54,2.54,0,0,0,2.11.76,3.21,3.21,0,0,0,1.58-.38,1.27,1.27,0,0,0,.69-1.18,1,1,0,0,0-.55-.93,6.37,6.37,0,0,0-1.38-.45l-1.27-.31a6.23,6.23,0,0,1-1.81-.67,2,2,0,0,1-1-1.77,2.7,2.7,0,0,1,1-2.17,3.94,3.94,0,0,1,2.63-.82,3.65,3.65,0,0,1,3.1,1.24,2.64,2.64,0,0,1,.58,1.71h-1.49a1.76,1.76,0,0,0-.39-1,2.51,2.51,0,0,0-1.93-.62A2.34,2.34,0,0,0,159,350a1.05,1.05,0,0,0-.47.9,1.09,1.09,0,0,0,.62,1,3.63,3.63,0,0,0,1.05.39l1.07.25a8.85,8.85,0,0,1,2.33.8,2.14,2.14,0,0,1,.92,1.91,2.87,2.87,0,0,1-1,2.17,4.13,4.13,0,0,1-2.94.92,4,4,0,0,1-3-1,3.56,3.56,0,0,1-1-2.36Z"/><path class="cls-1" d="M171.26,352.3a.86.86,0,0,0,.73-.46,1.4,1.4,0,0,0,.1-.61,1.28,1.28,0,0,0-.57-1.17,3,3,0,0,0-1.64-.37,2.07,2.07,0,0,0-1.76.67,2.29,2.29,0,0,0-.38,1.11h-1.47a2.72,2.72,0,0,1,1.12-2.43,4.63,4.63,0,0,1,2.52-.69,5.1,5.1,0,0,1,2.69.64,2.14,2.14,0,0,1,1,2v5.42a.75.75,0,0,0,.1.39.49.49,0,0,0,.43.15h.24l.28,0V358a5.52,5.52,0,0,1-.56.13,3.7,3.7,0,0,1-.53,0,1.32,1.32,0,0,1-1.19-.58,2.23,2.23,0,0,1-.27-.87,4.06,4.06,0,0,1-1.39,1.1,4.29,4.29,0,0,1-2,.46,3,3,0,0,1-2.15-.79,2.65,2.65,0,0,1-.83-2,2.58,2.58,0,0,1,.82-2,3.89,3.89,0,0,1,2.15-.88Zm-3.33,4.27a1.81,1.81,0,0,0,1.18.4,3.58,3.58,0,0,0,1.62-.39,2.17,2.17,0,0,0,1.32-2.1v-1.27a2.65,2.65,0,0,1-.75.31,7.39,7.39,0,0,1-.89.18l-1,.12a3.88,3.88,0,0,0-1.29.36,1.38,1.38,0,0,0-.73,1.31A1.28,1.28,0,0,0,167.93,356.57Z"/><path class="cls-1" d="M177.17,355a2.26,2.26,0,0,0,.4,1.22,2.57,2.57,0,0,0,2.12.76,3.2,3.2,0,0,0,1.57-.38,1.27,1.27,0,0,0,.69-1.18,1,1,0,0,0-.55-.93,6.43,6.43,0,0,0-1.37-.45l-1.28-.31a6.23,6.23,0,0,1-1.81-.67,2,2,0,0,1-1-1.77,2.7,2.7,0,0,1,1-2.17,3.94,3.94,0,0,1,2.63-.82,3.68,3.68,0,0,1,3.11,1.24,2.69,2.69,0,0,1,.57,1.71H181.7a1.76,1.76,0,0,0-.39-1,2.51,2.51,0,0,0-1.93-.62A2.34,2.34,0,0,0,178,350a1.05,1.05,0,0,0-.47.9,1.09,1.09,0,0,0,.62,1,3.63,3.63,0,0,0,1.05.39l1.07.25a8.85,8.85,0,0,1,2.33.8,2.14,2.14,0,0,1,.92,1.91,2.89,2.89,0,0,1-1,2.17,4.17,4.17,0,0,1-3,.92,4,4,0,0,1-3-1,3.61,3.61,0,0,1-1-2.36Z"/><path class="cls-1" d="M89.58,172h5.87a5.71,5.71,0,0,1,2.39.43,3.06,3.06,0,0,1,1.79,3,3.43,3.43,0,0,1-.48,1.9,3.53,3.53,0,0,1-1.34,1.19,2.68,2.68,0,0,1,1.14.8,3,3,0,0,1,.42,1.63l.06,1.73a5.05,5.05,0,0,0,.13,1.1,1.07,1.07,0,0,0,.56.79v.29H98a1.36,1.36,0,0,1-.14-.43,6.6,6.6,0,0,1-.09-1l-.11-2.15a1.82,1.82,0,0,0-.91-1.7,3.68,3.68,0,0,0-1.53-.24H91.33v5.54H89.58ZM95.26,178a3.24,3.24,0,0,0,1.9-.5,2,2,0,0,0,.69-1.77,1.91,1.91,0,0,0-1-1.88,3,3,0,0,0-1.39-.27H91.33V178Z"/><path class="cls-1" d="M108,175.79A3.53,3.53,0,0,1,109.4,177a4.29,4.29,0,0,1,.63,1.66,11.12,11.12,0,0,1,.14,2.07h-6.85a4.08,4.08,0,0,0,.67,2.31,2.27,2.27,0,0,0,2,.86,2.5,2.5,0,0,0,2-.82,2.91,2.91,0,0,0,.58-1.1H110a3.23,3.23,0,0,1-.4,1.15,4.22,4.22,0,0,1-.78,1.05,3.81,3.81,0,0,1-1.77.95,5.58,5.58,0,0,1-1.28.14,3.93,3.93,0,0,1-3-1.28,5,5,0,0,1-1.22-3.58,5.43,5.43,0,0,1,1.23-3.69,4,4,0,0,1,3.19-1.41A4.14,4.14,0,0,1,108,175.79Zm.57,3.69a4.11,4.11,0,0,0-.44-1.64,2.28,2.28,0,0,0-2.16-1.14,2.38,2.38,0,0,0-1.81.78,3,3,0,0,0-.78,2Z"/><path class="cls-1" d="M118.39,176a3.75,3.75,0,0,1,1.2,2.66h-1.54a2.81,2.81,0,0,0-.64-1.44,2,2,0,0,0-1.61-.58,2.21,2.21,0,0,0-2.16,1.48,5.83,5.83,0,0,0-.42,2.36,4.54,4.54,0,0,0,.59,2.38,2.32,2.32,0,0,0,3.44.36,3.25,3.25,0,0,0,.8-1.64h1.54a4.17,4.17,0,0,1-1.32,2.74,4.09,4.09,0,0,1-2.7.86,3.61,3.61,0,0,1-2.94-1.34,5.15,5.15,0,0,1-1.1-3.38,5.67,5.67,0,0,1,1.2-3.85,3.91,3.91,0,0,1,3.07-1.38A4.09,4.09,0,0,1,118.39,176Z"/><path class="cls-1" d="M127,175.79a3.53,3.53,0,0,1,1.43,1.22,4.29,4.29,0,0,1,.63,1.66,11.12,11.12,0,0,1,.14,2.07h-6.85a4.08,4.08,0,0,0,.67,2.31,2.27,2.27,0,0,0,2,.86,2.49,2.49,0,0,0,2-.82,2.77,2.77,0,0,0,.58-1.1h1.56a3.49,3.49,0,0,1-.41,1.15,4.22,4.22,0,0,1-.78,1.05,3.76,3.76,0,0,1-1.77.95,5.51,5.51,0,0,1-1.28.14,3.93,3.93,0,0,1-3-1.28,5,5,0,0,1-1.22-3.58,5.43,5.43,0,0,1,1.23-3.69,4,4,0,0,1,3.19-1.41A4.14,4.14,0,0,1,127,175.79Zm.57,3.69a4.11,4.11,0,0,0-.44-1.64A2.28,2.28,0,0,0,125,176.7a2.38,2.38,0,0,0-1.81.78,3,3,0,0,0-.77,2Z"/><path class="cls-1" d="M131.05,172h1.54v4.68a3.48,3.48,0,0,1,2.81-1.39,3.69,3.69,0,0,1,2.86,1.21,5.11,5.11,0,0,1,1.1,3.57,6.1,6.1,0,0,1-1.08,3.7,3.53,3.53,0,0,1-3,1.48,3.08,3.08,0,0,1-1.82-.52,4.23,4.23,0,0,1-.94-1v1.2h-1.46Zm6,10.83a5,5,0,0,0,.64-2.69,4.45,4.45,0,0,0-.64-2.46,2.12,2.12,0,0,0-1.89-1,2.62,2.62,0,0,0-1.9.8,3.58,3.58,0,0,0-.81,2.63,5.91,5.91,0,0,0,.33,2.16,2.33,2.33,0,0,0,2.34,1.55A2.13,2.13,0,0,0,137.1,182.82Z"/><path class="cls-1" d="M146.24,179.25a.88.88,0,0,0,.73-.46,1.43,1.43,0,0,0,.1-.61,1.31,1.31,0,0,0-.57-1.18,3.13,3.13,0,0,0-1.65-.36,2.07,2.07,0,0,0-1.75.67,2.25,2.25,0,0,0-.38,1.1h-1.48a2.75,2.75,0,0,1,1.13-2.43,4.66,4.66,0,0,1,2.52-.68,5.13,5.13,0,0,1,2.69.63,2.14,2.14,0,0,1,1,2v5.43a.67.67,0,0,0,.1.39.49.49,0,0,0,.43.15h.23l.29,0V185a5,5,0,0,1-.57.13,3.79,3.79,0,0,1-.52,0,1.3,1.3,0,0,1-1.19-.58,2.12,2.12,0,0,1-.27-.87,4,4,0,0,1-1.39,1.1,4.33,4.33,0,0,1-2,.47,3,3,0,0,1-2.14-.8,2.64,2.64,0,0,1-.83-2,2.54,2.54,0,0,1,.82-2,3.87,3.87,0,0,1,2.14-.89Zm-3.33,4.27a1.84,1.84,0,0,0,1.18.39,3.7,3.7,0,0,0,1.62-.38,2.18,2.18,0,0,0,1.32-2.1v-1.27a3.14,3.14,0,0,1-.75.31,5.8,5.8,0,0,1-.89.17l-1,.13a3.68,3.68,0,0,0-1.29.35,1.42,1.42,0,0,0-.74,1.32A1.28,1.28,0,0,0,142.91,183.52Z"/><path class="cls-1" d="M161.38,175.82a4.16,4.16,0,0,1,1,.92V172h1.52v12.95h-1.42v-1.31a3.48,3.48,0,0,1-1.31,1.26,3.69,3.69,0,0,1-1.72.39,3.51,3.51,0,0,1-2.72-1.33,5.19,5.19,0,0,1-1.14-3.52,6.05,6.05,0,0,1,1-3.56,3.42,3.42,0,0,1,3-1.51A3.31,3.31,0,0,1,161.38,175.82Zm-3.54,7.06a2.24,2.24,0,0,0,2,1,2.16,2.16,0,0,0,1.8-1,4.47,4.47,0,0,0,.7-2.71,4,4,0,0,0-.72-2.64,2.29,2.29,0,0,0-1.8-.86,2.38,2.38,0,0,0-1.93.92,4.21,4.21,0,0,0-.73,2.69A4.75,4.75,0,0,0,157.84,182.88Z"/><path class="cls-1" d="M173,176.47a4.71,4.71,0,0,1,1.25,3.56,6.1,6.1,0,0,1-1.1,3.76,4,4,0,0,1-3.41,1.49,3.81,3.81,0,0,1-3.06-1.32,5.17,5.17,0,0,1-1.14-3.52,5.64,5.64,0,0,1,1.2-3.78,4,4,0,0,1,3.21-1.4A4.2,4.2,0,0,1,173,176.47Zm-1,6.25a5.88,5.88,0,0,0,.58-2.64,4.71,4.71,0,0,0-.42-2.14,2.33,2.33,0,0,0-2.27-1.3,2.23,2.23,0,0,0-2.09,1.1,5.23,5.23,0,0,0-.65,2.67,4.51,4.51,0,0,0,.65,2.5,2.27,2.27,0,0,0,2.07,1A2.13,2.13,0,0,0,172.05,182.72Z"/><path class="cls-1" d="M181.27,179.25a.86.86,0,0,0,.73-.46,1.43,1.43,0,0,0,.1-.61,1.31,1.31,0,0,0-.57-1.18,3.09,3.09,0,0,0-1.64-.36,2.09,2.09,0,0,0-1.76.67,2.25,2.25,0,0,0-.38,1.1h-1.47a2.73,2.73,0,0,1,1.13-2.43,4.65,4.65,0,0,1,2.51-.68,5.16,5.16,0,0,1,2.7.63,2.15,2.15,0,0,1,1,2v5.43a.75.75,0,0,0,.1.39.49.49,0,0,0,.43.15h.24l.28,0V185a5.52,5.52,0,0,1-.56.13,4,4,0,0,1-.53,0,1.3,1.3,0,0,1-1.19-.58,2.12,2.12,0,0,1-.27-.87,4,4,0,0,1-1.39,1.1,4.29,4.29,0,0,1-2,.47,3,3,0,0,1-2.14-.8,2.61,2.61,0,0,1-.83-2,2.56,2.56,0,0,1,.81-2,3.9,3.9,0,0,1,2.15-.89Zm-3.33,4.27a1.87,1.87,0,0,0,1.19.39,3.69,3.69,0,0,0,1.61-.38,2.18,2.18,0,0,0,1.32-2.1v-1.27a3,3,0,0,1-.74.31,6.16,6.16,0,0,1-.9.17l-1,.13a3.68,3.68,0,0,0-1.29.35,1.41,1.41,0,0,0-.73,1.32A1.28,1.28,0,0,0,177.94,183.52Z"/><path class="cls-1" d="M192.45,176a3.67,3.67,0,0,1,1.2,2.66h-1.53a2.82,2.82,0,0,0-.65-1.44,2,2,0,0,0-1.6-.58,2.23,2.23,0,0,0-2.17,1.48,5.83,5.83,0,0,0-.42,2.36,4.45,4.45,0,0,0,.6,2.38,2.32,2.32,0,0,0,3.44.36,3.33,3.33,0,0,0,.8-1.64h1.53a4.12,4.12,0,0,1-1.31,2.74,3.74,3.74,0,0,1-2.45.86l-.62.86a2,2,0,0,1,.66-.08,1.51,1.51,0,0,1,1,.35,1.32,1.32,0,0,1,.39,1,1.51,1.51,0,0,1-.52,1.15,2.36,2.36,0,0,1-1.62.48,3.76,3.76,0,0,1-1-.13q-.28-.08-.75-.24l.3-.72c.23.09.4.14.53.18a2.71,2.71,0,0,0,.65.1,1.56,1.56,0,0,0,.56-.1.67.67,0,0,0,.46-.67.65.65,0,0,0-.23-.49,1,1,0,0,0-.62-.2,1.83,1.83,0,0,0-.35,0,2.61,2.61,0,0,0-.37.12l-.31-.36,1-1.3a2.89,2.89,0,0,1-2.19-1,5.41,5.41,0,0,1-1.27-3.72,5.67,5.67,0,0,1,1.21-3.85,3.88,3.88,0,0,1,3.07-1.38A4,4,0,0,1,192.45,176Z"/><path class="cls-1" d="M202.06,176.47A4.74,4.74,0,0,1,203.3,180a6.1,6.1,0,0,1-1.1,3.76,4,4,0,0,1-3.41,1.49,3.82,3.82,0,0,1-3.06-1.32,5.17,5.17,0,0,1-1.14-3.52,5.64,5.64,0,0,1,1.2-3.78,4,4,0,0,1,3.21-1.4A4.22,4.22,0,0,1,202.06,176.47Zm-2.5-3.86a3.67,3.67,0,0,0,.45.17,1.4,1.4,0,0,0,.41.06.77.77,0,0,0,.7-.31,1.13,1.13,0,0,0,.16-.5h.93a2.47,2.47,0,0,1-.71,1.54,1.79,1.79,0,0,1-1.15.42,2,2,0,0,1-.49-.07,4.24,4.24,0,0,1-.53-.16l-.46-.16c-.28-.1-.5-.18-.68-.23a1.77,1.77,0,0,0-.5-.07.66.66,0,0,0-.51.2,1.15,1.15,0,0,0-.27.61h-.86a3.19,3.19,0,0,1,.38-1.13,1.64,1.64,0,0,1,1.49-.81,2.74,2.74,0,0,1,.66.09A7.63,7.63,0,0,1,199.56,172.61Zm1.51,10.11a5.88,5.88,0,0,0,.58-2.64,4.71,4.71,0,0,0-.42-2.14,2.32,2.32,0,0,0-2.27-1.3,2.24,2.24,0,0,0-2.09,1.1,5.23,5.23,0,0,0-.65,2.67,4.51,4.51,0,0,0,.65,2.5,2.3,2.3,0,0,0,2.07,1A2.13,2.13,0,0,0,201.07,182.72Z"/><path class="cls-1" d="M211.06,175.79a3.5,3.5,0,0,1,1.42,1.22,4,4,0,0,1,.63,1.66,10.3,10.3,0,0,1,.14,2.07h-6.84a4.08,4.08,0,0,0,.67,2.31,2.25,2.25,0,0,0,1.94.86,2.47,2.47,0,0,0,2-.82,2.79,2.79,0,0,0,.59-1.1h1.55a3.27,3.27,0,0,1-.41,1.15,4.2,4.2,0,0,1-.77,1.05,3.81,3.81,0,0,1-1.77.95,5.6,5.6,0,0,1-1.29.14,3.94,3.94,0,0,1-3-1.28,5,5,0,0,1-1.21-3.58,5.47,5.47,0,0,1,1.22-3.69,4,4,0,0,1,3.2-1.41A4.16,4.16,0,0,1,211.06,175.79Zm.57,3.69a4.1,4.1,0,0,0-.45-1.64A2.27,2.27,0,0,0,209,176.7a2.38,2.38,0,0,0-1.81.78,3,3,0,0,0-.78,2Z"/><path class="cls-1" d="M216.2,182a2.28,2.28,0,0,0,.4,1.21,2.57,2.57,0,0,0,2.12.77,3.14,3.14,0,0,0,1.58-.39,1.26,1.26,0,0,0,.68-1.18,1,1,0,0,0-.55-.92,6.43,6.43,0,0,0-1.37-.45l-1.28-.32a6.07,6.07,0,0,1-1.8-.66,2,2,0,0,1-1-1.78,2.7,2.7,0,0,1,1-2.16,3.92,3.92,0,0,1,2.62-.83,3.68,3.68,0,0,1,3.11,1.25,2.7,2.7,0,0,1,.58,1.71h-1.5a1.82,1.82,0,0,0-.38-1,2.51,2.51,0,0,0-1.94-.62A2.36,2.36,0,0,0,217,177a1.06,1.06,0,0,0-.47.9,1.12,1.12,0,0,0,.62,1,3.9,3.9,0,0,0,1.06.39l1.06.25a8.36,8.36,0,0,1,2.33.8,2.1,2.1,0,0,1,.92,1.91,2.89,2.89,0,0,1-1,2.17,4.16,4.16,0,0,1-2.94.91,4,4,0,0,1-3-1,3.57,3.57,0,0,1-.94-2.36Z"/><path class="cls-1" d="M95,196.79A3.53,3.53,0,0,1,96.4,198a4.29,4.29,0,0,1,.63,1.66,11.12,11.12,0,0,1,.14,2.07H90.32a4.08,4.08,0,0,0,.67,2.31,2.27,2.27,0,0,0,2,.86,2.49,2.49,0,0,0,2-.82,2.77,2.77,0,0,0,.58-1.1H97a3.49,3.49,0,0,1-.41,1.15,4.22,4.22,0,0,1-.78,1.05,3.71,3.71,0,0,1-1.77.95,5.51,5.51,0,0,1-1.28.14,3.93,3.93,0,0,1-3-1.28,5,5,0,0,1-1.22-3.58,5.43,5.43,0,0,1,1.23-3.69A4,4,0,0,1,93,196.32,4.14,4.14,0,0,1,95,196.79Zm.57,3.69a4.11,4.11,0,0,0-.44-1.64,2.28,2.28,0,0,0-2.16-1.14,2.38,2.38,0,0,0-1.81.78,3,3,0,0,0-.77,2Z"/><path class="cls-1" d="M99.17,196.53h1.57v1.33a5.29,5.29,0,0,1,1-1,3.16,3.16,0,0,1,1.78-.53,2.79,2.79,0,0,1,1.81.55,2.83,2.83,0,0,1,.7.93,3.63,3.63,0,0,1,1.24-1.12,3.52,3.52,0,0,1,1.6-.36,2.61,2.61,0,0,1,2.59,1.37,4.55,4.55,0,0,1,.37,2v6.26h-1.65V199.4a1.52,1.52,0,0,0-.47-1.29,1.86,1.86,0,0,0-1.14-.35,2.3,2.3,0,0,0-1.61.62,2.75,2.75,0,0,0-.67,2.09v5.47h-1.61V199.8a3.22,3.22,0,0,0-.23-1.4,1.39,1.39,0,0,0-1.34-.66,2.29,2.29,0,0,0-1.63.7,3.39,3.39,0,0,0-.74,2.51v5H99.17Z"/><path class="cls-1" d="M124.34,196.82a4,4,0,0,1,1,.92V193h1.52v12.95h-1.42v-1.31a3.41,3.41,0,0,1-1.31,1.26,3.66,3.66,0,0,1-1.72.39,3.51,3.51,0,0,1-2.72-1.33,5.19,5.19,0,0,1-1.14-3.52,6.12,6.12,0,0,1,1-3.56,3.42,3.42,0,0,1,3-1.51A3.31,3.31,0,0,1,124.34,196.82Zm-3.53,7.06a2.22,2.22,0,0,0,2,1,2.16,2.16,0,0,0,1.8-1,4.47,4.47,0,0,0,.7-2.71,4,4,0,0,0-.72-2.64,2.27,2.27,0,0,0-1.79-.86,2.36,2.36,0,0,0-1.93.92,4.15,4.15,0,0,0-.74,2.69A4.66,4.66,0,0,0,120.81,203.88Z"/><path class="cls-1" d="M129.18,193h1.61v1.79h-1.61Zm0,3.54h1.61v9.37h-1.61Z"/><path class="cls-1" d="M133.18,196.53h1.5v1.33a4.21,4.21,0,0,1,1.41-1.18,3.81,3.81,0,0,1,1.66-.36,2.73,2.73,0,0,1,2.71,1.4,4.88,4.88,0,0,1,.39,2.18v6h-1.61V200a3.23,3.23,0,0,0-.25-1.39,1.56,1.56,0,0,0-1.53-.88,3,3,0,0,0-.93.12,2.3,2.3,0,0,0-1.14.77,2.37,2.37,0,0,0-.51,1,6.44,6.44,0,0,0-.12,1.42v4.93h-1.58Z"/><path class="cls-1" d="M143.19,193h1.58v4.81a4.45,4.45,0,0,1,1-1,3.43,3.43,0,0,1,1.91-.5,2.81,2.81,0,0,1,2.77,1.43,4.8,4.8,0,0,1,.4,2.17v6h-1.63V200a3.27,3.27,0,0,0-.26-1.52,1.68,1.68,0,0,0-1.62-.77,2.69,2.69,0,0,0-1.78.67,3.28,3.28,0,0,0-.8,2.56v5h-1.58Z"/><path class="cls-1" d="M159,196.79a3.6,3.6,0,0,1,1.43,1.22,4.13,4.13,0,0,1,.62,1.66,10.3,10.3,0,0,1,.14,2.07h-6.84a4.08,4.08,0,0,0,.67,2.31,2.26,2.26,0,0,0,1.94.86,2.51,2.51,0,0,0,2-.82,2.91,2.91,0,0,0,.58-1.1h1.55a3.27,3.27,0,0,1-.41,1.15,4.2,4.2,0,0,1-.77,1.05,3.81,3.81,0,0,1-1.77.95,5.58,5.58,0,0,1-1.28.14,3.91,3.91,0,0,1-3-1.28,5,5,0,0,1-1.22-3.58,5.47,5.47,0,0,1,1.22-3.69,4,4,0,0,1,3.2-1.41A4.14,4.14,0,0,1,159,196.79Zm.57,3.69a4.1,4.1,0,0,0-.45-1.64A2.27,2.27,0,0,0,157,197.7a2.38,2.38,0,0,0-1.81.78,3,3,0,0,0-.78,2Z"/><path class="cls-1" d="M163.21,193h1.61v1.79h-1.61Zm0,3.54h1.61v9.37h-1.61Z"/><path class="cls-1" d="M167.25,196.53h1.5v1.62a3.75,3.75,0,0,1,.91-1.15,2.31,2.31,0,0,1,1.66-.68h.15l.36,0V198l-.26,0h-.26a2.24,2.24,0,0,0-1.84.77,2.71,2.71,0,0,0-.64,1.77v5.41h-1.58Z"/><path class="cls-1" d="M180,197.47a4.75,4.75,0,0,1,1.25,3.56,6.16,6.16,0,0,1-1.1,3.76,4,4,0,0,1-3.41,1.49,3.84,3.84,0,0,1-3.07-1.32,5.22,5.22,0,0,1-1.13-3.52,5.69,5.69,0,0,1,1.19-3.78,4,4,0,0,1,3.22-1.4A4.2,4.2,0,0,1,180,197.47Zm-1,6.25a6,6,0,0,0,.58-2.64,4.71,4.71,0,0,0-.42-2.14,2.34,2.34,0,0,0-2.28-1.3,2.22,2.22,0,0,0-2.08,1.1,5.13,5.13,0,0,0-.65,2.67,4.43,4.43,0,0,0,.65,2.5,2.27,2.27,0,0,0,2.07,1A2.15,2.15,0,0,0,179,203.72Z"/><path class="cls-1" d="M89.77,32h1.76V44.93H89.77Z"/><path class="cls-1" d="M94.16,35.51h1.5v1.34a4.28,4.28,0,0,1,1.42-1.19,3.78,3.78,0,0,1,1.66-.36,2.75,2.75,0,0,1,2.71,1.4,5,5,0,0,1,.38,2.19v6h-1.6V39A3.25,3.25,0,0,0,100,37.6a1.55,1.55,0,0,0-1.53-.87,3,3,0,0,0-.92.11,2.44,2.44,0,0,0-1.14.77,2.31,2.31,0,0,0-.52,1A6.38,6.38,0,0,0,95.74,40v4.93H94.16Z"/><path class="cls-1" d="M109.41,35.89a4.78,4.78,0,0,1,.91.9V35.6h1.46v8.56a6.31,6.31,0,0,1-.53,2.83,3.76,3.76,0,0,1-3.7,1.92,4.58,4.58,0,0,1-2.56-.68,2.69,2.69,0,0,1-1.15-2.13h1.61a1.73,1.73,0,0,0,.45,1,2.33,2.33,0,0,0,1.68.53A2.3,2.3,0,0,0,110,46.31a7.22,7.22,0,0,0,.3-2.69,3.11,3.11,0,0,1-1.13,1.07,3.85,3.85,0,0,1-1.76.35A3.76,3.76,0,0,1,104.69,44a4.83,4.83,0,0,1-1.14-3.6,5.45,5.45,0,0,1,1.15-3.69,3.56,3.56,0,0,1,2.78-1.32A3.46,3.46,0,0,1,109.41,35.89Zm.19,1.7a2.28,2.28,0,0,0-1.83-.85,2.26,2.26,0,0,0-2.27,1.57,6,6,0,0,0-.33,2.19,3.9,3.9,0,0,0,.65,2.42,2.08,2.08,0,0,0,1.73.83,2.41,2.41,0,0,0,2.38-1.54,4.93,4.93,0,0,0,.39-2A3.91,3.91,0,0,0,109.6,37.59Z"/><path class="cls-1" d="M114.23,35.51h1.5v1.63a3.55,3.55,0,0,1,.9-1.16,2.4,2.4,0,0,1,1.67-.68h.15l.36,0V37l-.26,0h-.26a2.27,2.27,0,0,0-1.84.77,2.66,2.66,0,0,0-.64,1.77v5.42h-1.58Z"/><path class="cls-1" d="M126,35.77A3.61,3.61,0,0,1,127.42,37a4.35,4.35,0,0,1,.63,1.66,11.46,11.46,0,0,1,.13,2.08h-6.84A4.07,4.07,0,0,0,122,43a2.24,2.24,0,0,0,1.94.87,2.54,2.54,0,0,0,2-.82A3,3,0,0,0,126.5,42h1.55a3.12,3.12,0,0,1-.41,1.16,4.32,4.32,0,0,1-.77,1,3.64,3.64,0,0,1-1.77.95,5.58,5.58,0,0,1-1.28.14,3.91,3.91,0,0,1-3-1.28,5,5,0,0,1-1.22-3.58,5.45,5.45,0,0,1,1.22-3.68,4,4,0,0,1,3.2-1.42A4.29,4.29,0,0,1,126,35.77Zm.57,3.7a4.11,4.11,0,0,0-.45-1.65A2.27,2.27,0,0,0,124,36.68a2.36,2.36,0,0,0-1.81.79,3,3,0,0,0-.78,2Z"/><path class="cls-1" d="M131.13,42a2.35,2.35,0,0,0,.4,1.22,2.57,2.57,0,0,0,2.12.76,3.24,3.24,0,0,0,1.58-.38,1.28,1.28,0,0,0,.68-1.18,1,1,0,0,0-.54-.93A7,7,0,0,0,134,41l-1.28-.32a6.26,6.26,0,0,1-1.8-.67,2,2,0,0,1-1-1.77,2.7,2.7,0,0,1,1-2.17,3.92,3.92,0,0,1,2.62-.82,3.65,3.65,0,0,1,3.11,1.25,2.66,2.66,0,0,1,.58,1.7h-1.5a1.82,1.82,0,0,0-.38-1,2.55,2.55,0,0,0-1.94-.62A2.36,2.36,0,0,0,132,37a1.08,1.08,0,0,0-.47.9,1.1,1.1,0,0,0,.62,1,3.59,3.59,0,0,0,1.06.39l1.06.25a8.71,8.71,0,0,1,2.33.8,2.11,2.11,0,0,1,.92,1.91,2.89,2.89,0,0,1-1,2.17,4.14,4.14,0,0,1-2.94.92,4,4,0,0,1-3-1,3.55,3.55,0,0,1-.94-2.36Z"/><path class="cls-1" d="M140.13,42a2.35,2.35,0,0,0,.4,1.22,2.57,2.57,0,0,0,2.12.76,3.24,3.24,0,0,0,1.58-.38,1.28,1.28,0,0,0,.68-1.18,1,1,0,0,0-.54-.93A7,7,0,0,0,143,41l-1.28-.32a6.26,6.26,0,0,1-1.8-.67,2,2,0,0,1-1-1.77,2.7,2.7,0,0,1,1-2.17,3.92,3.92,0,0,1,2.62-.82,3.65,3.65,0,0,1,3.11,1.25,2.66,2.66,0,0,1,.58,1.7h-1.5a1.82,1.82,0,0,0-.38-1,2.55,2.55,0,0,0-1.94-.62A2.36,2.36,0,0,0,141,37a1.08,1.08,0,0,0-.47.9,1.1,1.1,0,0,0,.62,1,3.59,3.59,0,0,0,1.06.39l1.06.25a8.71,8.71,0,0,1,2.33.8,2.11,2.11,0,0,1,.92,1.91,2.89,2.89,0,0,1-1,2.17,4.14,4.14,0,0,1-2.94.92,4,4,0,0,1-3-1,3.55,3.55,0,0,1-.94-2.36Z"/><path class="cls-1" d="M155,36.45A4.77,4.77,0,0,1,156.26,40a6.18,6.18,0,0,1-1.1,3.76,4,4,0,0,1-3.42,1.48A3.86,3.86,0,0,1,148.68,44a5.2,5.2,0,0,1-1.13-3.53,5.64,5.64,0,0,1,1.19-3.77A4,4,0,0,1,152,35.24,4.21,4.21,0,0,1,155,36.45Zm-1,6.26a6.06,6.06,0,0,0,.57-2.65,4.86,4.86,0,0,0-.41-2.14,2.34,2.34,0,0,0-2.28-1.3,2.25,2.25,0,0,0-2.09,1.11,5.18,5.18,0,0,0-.65,2.67,4.53,4.53,0,0,0,.65,2.5,2.32,2.32,0,0,0,2.07,1A2.17,2.17,0,0,0,154,42.71Z"/><path class="cls-1" d="M163.2,35.51h1.56v1.34a5.6,5.6,0,0,1,1-1,3.07,3.07,0,0,1,1.78-.54,2.8,2.8,0,0,1,1.81.56,2.83,2.83,0,0,1,.7.93,3.36,3.36,0,0,1,1.24-1.12,3.4,3.4,0,0,1,1.6-.37,2.63,2.63,0,0,1,2.59,1.37,4.62,4.62,0,0,1,.37,2v6.27h-1.65V38.39a1.52,1.52,0,0,0-.47-1.29,1.84,1.84,0,0,0-1.15-.36,2.26,2.26,0,0,0-1.6.63,2.72,2.72,0,0,0-.67,2.08v5.48h-1.61V38.78a3.17,3.17,0,0,0-.23-1.39,1.39,1.39,0,0,0-1.34-.66,2.31,2.31,0,0,0-1.63.69,3.39,3.39,0,0,0-.74,2.51v5H163.2Z"/><path class="cls-1" d="M179.78,35.51v6.25a2.67,2.67,0,0,0,.22,1.18,1.54,1.54,0,0,0,1.53.84,2.17,2.17,0,0,0,2.19-1.47,6,6,0,0,0,.32-2.17V35.51h1.58v9.42h-1.49V43.54a3,3,0,0,1-.75.9,3.21,3.21,0,0,1-2.15.74,2.76,2.76,0,0,1-2.69-1.34,4.08,4.08,0,0,1-.39-1.93v-6.4Zm4.06-3.78-2.35,2.54h-1.21l1.6-2.54Z"/><path class="cls-1" d="M188.25,32h1.58V44.93h-1.58Z"/><path class="cls-1" d="M192.52,32.89h1.6v2.62h1.5v1.3h-1.5V43a.67.67,0,0,0,.33.66,1.55,1.55,0,0,0,.62.09h.24l.31,0v1.26a3.38,3.38,0,0,1-.57.11,5.9,5.9,0,0,1-.63,0,1.7,1.7,0,0,1-1.5-.57,2.48,2.48,0,0,1-.4-1.47V36.81h-1.27v-1.3h1.27Z"/><path class="cls-1" d="M197.21,32h1.6v1.79h-1.6Zm0,3.54h1.6v9.37h-1.6Z"/><path class="cls-1" d="M201.07,35.56h1.55v1.25a3.91,3.91,0,0,1,1-1,3.35,3.35,0,0,1,1.89-.53,3.56,3.56,0,0,1,2.72,1.23,5.06,5.06,0,0,1,1.12,3.5q0,3.08-1.62,4.4a3.67,3.67,0,0,1-2.38.83,3.24,3.24,0,0,1-1.79-.46,4.32,4.32,0,0,1-.95-.91v4.81h-1.58Zm6,7.38a4.37,4.37,0,0,0,.74-2.78,5.09,5.09,0,0,0-.33-1.93,2.39,2.39,0,0,0-4.51.09,6.4,6.4,0,0,0-.33,2.23,4.64,4.64,0,0,0,.33,1.85,2.24,2.24,0,0,0,2.26,1.46A2.27,2.27,0,0,0,207,42.94Z"/><path class="cls-1" d="M211.26,32h1.58V44.93h-1.58Z"/><path class="cls-1" d="M222,36.45A4.73,4.73,0,0,1,223.28,40a6.12,6.12,0,0,1-1.1,3.76,4,4,0,0,1-3.41,1.48A3.83,3.83,0,0,1,215.71,44a5.2,5.2,0,0,1-1.14-3.53,5.59,5.59,0,0,1,1.2-3.77A4,4,0,0,1,219,35.24,4.2,4.2,0,0,1,222,36.45Zm-1,6.26a5.92,5.92,0,0,0,.58-2.65,4.71,4.71,0,0,0-.42-2.14,2.33,2.33,0,0,0-2.27-1.3,2.24,2.24,0,0,0-2.09,1.11,5.08,5.08,0,0,0-.65,2.67,4.45,4.45,0,0,0,.65,2.5,2.29,2.29,0,0,0,2.07,1A2.15,2.15,0,0,0,221.05,42.71Z"/><path class="cls-1" d="M11.5,32V28.9a2.15,2.15,0,0,1,2.09-2.2H63.36a2.15,2.15,0,0,1,2.09,2.2V32s0,0,0,0h-1a1.67,1.67,0,0,0,.07,3.33h1V40H64.39a1.67,1.67,0,0,0,.07,3.33h1V48H64.39a1.67,1.67,0,0,0,.07,3.33h1v3a2.16,2.16,0,0,1-2.09,2.21H13.59a2.16,2.16,0,0,1-2.09-2.21v-3h1.05a1.63,1.63,0,0,0,1.57-1.87A1.66,1.66,0,0,0,12.49,48h-1V43.34h1.05a1.63,1.63,0,0,0,1.57-1.87A1.66,1.66,0,0,0,12.49,40h-1V35.3h1.05a1.63,1.63,0,0,0,1.57-1.87A1.66,1.66,0,0,0,12.49,32h-1A0,0,0,0,1,11.5,32Zm51.83-2s0,0,0,0v-1s0,0,0,0H13.62s0,0,0,0v1s0,0,0,0a3.94,3.94,0,0,1,0,7.43s0,0,0,0v.57s0,0,0,0a3.94,3.94,0,0,1,0,7.43s0,0,0,0V46s0,0,0,0a3.94,3.94,0,0,1,0,7.43s0,0,0,0v1s0,0,0,0H63.33s0,0,0,0v-1s0,0,0,0a3.94,3.94,0,0,1,0-7.43s0,0,0,0V45.4s0,0,0,0a3.94,3.94,0,0,1,0-7.43s0,0,0,0v-.57s0,0,0,0a3.94,3.94,0,0,1,0-7.43Zm7.18-3.49h1a0,0,0,0,0,0,0v-3a2.15,2.15,0,0,0-2.09-2.2H19.64a2.15,2.15,0,0,0-2.09,2.2h0a0,0,0,0,0,0,0H69.39v1h0a4,4,0,0,0,0,7.44h0v.58h0a4,4,0,0,0,0,7.44h0v.58h0a4,4,0,0,0,0,7.44h0v3.19h0a2.15,2.15,0,0,0,2.09-2.2v-3a0,0,0,0,0,0,0h-1a1.66,1.66,0,0,1-1.63-1.45,1.63,1.63,0,0,1,1.57-1.87h1a0,0,0,0,0,0,0v-4.7h-1a1.66,1.66,0,0,1-1.63-1.45,1.63,1.63,0,0,1,1.57-1.87h1a0,0,0,0,0,0,0V29.76a0,0,0,0,0,0,0h-1a1.63,1.63,0,0,1-1.57-1.86A1.66,1.66,0,0,1,70.51,26.42Z"/><path class="cls-1" d="M56.68,165.12H26.33a5.51,5.51,0,0,0-5.51,5.51v25.12l-3.48-3.48a1.32,1.32,0,1,0-1.86,1.86l5.74,5.75a1.31,1.31,0,0,0,.94.39,1.33,1.33,0,0,0,.94-.39l5.74-5.75A1.32,1.32,0,1,0,27,192.27l-3.5,3.49V170.63a2.87,2.87,0,0,1,2.87-2.87H56.69a2.86,2.86,0,0,1,2.87,2.87v3.66a1.33,1.33,0,1,0,2.65,0v-3.66A5.56,5.56,0,0,0,56.68,165.12Z"/><path class="cls-1" d="M59.93,180.13l-5.75,5.75a1.32,1.32,0,0,0,.94,2.25,1.33,1.33,0,0,0,.94-.39l3.49-3.49v25.12a2.86,2.86,0,0,1-2.87,2.87H26.33a2.86,2.86,0,0,1-2.87-2.87v-3.66a1.33,1.33,0,1,0-2.65,0v3.66a5.51,5.51,0,0,0,5.51,5.51H56.66a5.51,5.51,0,0,0,5.51-5.51V184.25l3.49,3.49a1.32,1.32,0,1,0,1.86-1.86l-5.74-5.75A1.35,1.35,0,0,0,59.93,180.13Z"/><path class="cls-1" d="M41.51,178.32a1.32,1.32,0,0,0-1.33,1.33v2H40a4.83,4.83,0,0,0,0,9.64h3a2.19,2.19,0,0,1,0,4.35H37.64a1.33,1.33,0,0,0,0,2.66h2.54v2.05a1.33,1.33,0,1,0,2.65,0V198.3h.23a4.82,4.82,0,0,0-.07-9.63H40a2.19,2.19,0,0,1,0-4.36h5.25a1.33,1.33,0,0,0,0-2.65H42.83v-2A1.33,1.33,0,0,0,41.51,178.32Z"/><path class="cls-1" d="M34.6,341.74H18a5.74,5.74,0,0,0-5.73,5.73v16.61A5.74,5.74,0,0,0,18,369.81H34.6a5.73,5.73,0,0,0,5.72-5.73V347.47A5.73,5.73,0,0,0,34.6,341.74Zm3.09,5.73v16.61a3.1,3.1,0,0,1-3.09,3.09H18a3.09,3.09,0,0,1-3.09-3.09V347.47A3.09,3.09,0,0,1,18,344.38H34.6A3.1,3.1,0,0,1,37.69,347.47Z"/><path class="cls-1" d="M69.06,329.94,57.32,318.19a5.75,5.75,0,0,0-8.1,0L37.48,329.94a5.72,5.72,0,0,0,0,8.1l11.74,11.74a5.72,5.72,0,0,0,8.1,0L69.06,338a5.72,5.72,0,0,0,0-8.1Zm-1,4.05a3.07,3.07,0,0,1-.9,2.18L55.45,347.92a3.1,3.1,0,0,1-4.37,0L39.34,336.17a3.08,3.08,0,0,1,0-4.37l11.74-11.74a3.08,3.08,0,0,1,4.37,0L67.2,331.8A3.08,3.08,0,0,1,68.1,334Z"/><path class="cls-1" d="M33.34,360.61a2.05,2.05,0,1,0,2,2.05A2.05,2.05,0,0,0,33.34,360.61Z"/><path class="cls-1" d="M26.29,353.73a2,2,0,1,0,2.05,2A2,2,0,0,0,26.29,353.73Z"/><path class="cls-1" d="M19.76,360.61a2,2,0,1,0,2,2.05A2.05,2.05,0,0,0,19.76,360.61Z"/><path class="cls-1" d="M19.76,346.61a2,2,0,1,0,2,2.05A2.05,2.05,0,0,0,19.76,346.61Z"/><path class="cls-1" d="M43.61,331.53a2,2,0,0,0-2,2.05,2,2,0,0,0,2,2,2.07,2.07,0,0,0,1.45-.59,2.05,2.05,0,0,0,0-2.9A2,2,0,0,0,43.61,331.53Z"/><path class="cls-1" d="M63.12,331.83a2.05,2.05,0,0,0-1.45,3.5,2.07,2.07,0,0,0,1.45.59,2.1,2.1,0,0,0,1.45-.59,2.07,2.07,0,0,0,.6-1.45,2,2,0,0,0-.61-1.45A2,2,0,0,0,63.12,331.83Z"/><path class="cls-1" d="M33.34,346.61a2.05,2.05,0,1,0,2,2.05A2.05,2.05,0,0,0,33.34,346.61Z"/><path class="cls-1" d="M53.27,331.94a2,2,0,0,0-1.45.6,2.05,2.05,0,0,0,0,2.9,2.08,2.08,0,0,0,2.9,0,2.05,2.05,0,0,0,0-2.9A2,2,0,0,0,53.27,331.94Z"/><path class="cls-1" d="M47.13,263.9H67.85a1.34,1.34,0,0,0,1.34-1.33,22.07,22.07,0,0,0-22-22,1.34,1.34,0,0,0-1.34,1.33v20.72A1.32,1.32,0,0,0,47.13,263.9Zm1.34-20.67a19.41,19.41,0,0,1,18,18h-18Zm-8.19,50.29a24.1,24.1,0,0,0,24.08-24.08A1.33,1.33,0,0,0,63,268.1H41.6V246.68a1.33,1.33,0,0,0-1.34-1.33,24.09,24.09,0,1,0,0,48.17ZM38.94,248v21.4a1.34,1.34,0,0,0,1.34,1.33H61.67A21.44,21.44,0,1,1,38.94,248Z"/><path class="cls-1" d="M64.64,96.16a18.2,18.2,0,0,0-5.19-6.39A8.24,8.24,0,0,0,54.38,88H28.62a8.24,8.24,0,0,0-5.07,1.74,18.28,18.28,0,0,0-7,14.41v5a1,1,0,0,0,1,1h7.69v26.93a1,1,0,0,0,1,1H56.88a1,1,0,0,0,1-1V110.14h7.69a1,1,0,0,0,1-1v-5A18.28,18.28,0,0,0,64.64,96.16ZM47.15,90a3.86,3.86,0,0,1-3.73,2.89H39.58A3.86,3.86,0,0,1,35.85,90Zm17.43,18.27H57.85v-4.81a1,1,0,0,0-1.93,0V136.1H27.08v-1.92H30a1,1,0,0,0,0-1.92H27.08V103.41a1,1,0,0,0-1.93,0v4.81H18.42v-4a16.24,16.24,0,0,1,6.31-12.9A6.38,6.38,0,0,1,28.62,90h5.27a5.77,5.77,0,0,0,5.69,4.81h3.84A5.77,5.77,0,0,0,49.11,90h5.27a6.38,6.38,0,0,1,3.89,1.33,16.24,16.24,0,0,1,6.31,12.9v4Z"/><path class="cls-1" d="M56.88,138.53H26.12a1.47,1.47,0,0,1-1.47-1.46V110.64H17.46A1.46,1.46,0,0,1,16,109.18v-5a18.8,18.8,0,0,1,7.24-14.81,8.8,8.8,0,0,1,5.38-1.84H54.38a8.8,8.8,0,0,1,5.38,1.84,19,19,0,0,1,5.33,6.57h0A18.83,18.83,0,0,1,67,104.18v5a1.46,1.46,0,0,1-1.46,1.46H58.35v26.43A1.47,1.47,0,0,1,56.88,138.53Zm-28.26-50a7.79,7.79,0,0,0-4.76,1.63,17.8,17.8,0,0,0-6.86,14v5a.46.46,0,0,0,.46.46h8.19v27.43a.47.47,0,0,0,.47.46H56.88a.47.47,0,0,0,.47-.46V109.64h8.19a.46.46,0,0,0,.46-.46v-5a17.71,17.71,0,0,0-1.81-7.8h0a17.84,17.84,0,0,0-5-6.22,7.79,7.79,0,0,0-4.76-1.63Zm27.8,48.07H26.58v-2.92H30a.46.46,0,1,0,0-.92H26.58V103.41a.47.47,0,0,0-.93,0v5.31H17.92v-4.54a16.73,16.73,0,0,1,6.5-13.29,6.89,6.89,0,0,1,4.2-1.44h5.69l.07.42a5.26,5.26,0,0,0,5.2,4.39h3.84a5.26,5.26,0,0,0,5.2-4.39l.07-.42h5.69a6.89,6.89,0,0,1,4.2,1.44,16.73,16.73,0,0,1,6.5,13.29v4.54H57.35v-5.31a.47.47,0,0,0-.93,0Zm-28.84-1H55.42V103.41a1.47,1.47,0,0,1,2.93,0v4.31h5.73v-3.54A15.73,15.73,0,0,0,58,91.68a5.88,5.88,0,0,0-3.58-1.23H49.52a6.25,6.25,0,0,1-6.1,4.81H39.58a6.25,6.25,0,0,1-6.1-4.81H28.62A5.88,5.88,0,0,0,25,91.68a15.73,15.73,0,0,0-6.12,12.5v3.54h5.73v-4.31a1.47,1.47,0,0,1,2.93,0v28.35H30a1.46,1.46,0,0,1,0,2.92H27.58ZM43.42,93.34H39.58a4.35,4.35,0,0,1-4.21-3.26l-.16-.63H47.79l-.16.63A4.35,4.35,0,0,1,43.42,93.34Zm-6.85-2.89a3.34,3.34,0,0,0,3,1.89h3.84a3.34,3.34,0,0,0,3-1.89Z"/></svg>