<svg id="Camada_1" data-name="Camada 1" xmlns="http://www.w3.org/2000/svg" viewBox="0 0 300 380"><defs><style>.cls-1{fill:#fff;}</style></defs><title>feiras</title><path class="cls-1" d="M98.5,86.3A4.6,4.6,0,0,1,100,89.24H98.28a3.62,3.62,0,0,0-1.13-2,3.54,3.54,0,0,0-2.39-.73,3.78,3.78,0,0,0-3,1.34A6.2,6.2,0,0,0,90.58,92a6.11,6.11,0,0,0,1,3.69,3.62,3.62,0,0,0,3.11,1.41,3.27,3.27,0,0,0,2.89-1.49,5.89,5.89,0,0,0,.79-2h1.7A5.89,5.89,0,0,1,98.62,97a5.29,5.29,0,0,1-4.1,1.67,5.37,5.37,0,0,1-3.74-1.37c-1.33-1.2-2-3.06-2-5.56A7.15,7.15,0,0,1,90.29,87a5.4,5.4,0,0,1,4.45-2A5.18,5.18,0,0,1,98.5,86.3Z"/><path class="cls-1" d="M109,89.8a4.75,4.75,0,0,1,1.25,3.56,6.16,6.16,0,0,1-1.1,3.76,4,4,0,0,1-3.41,1.49,3.84,3.84,0,0,1-3.07-1.32,5.22,5.22,0,0,1-1.13-3.52A5.69,5.69,0,0,1,102.71,90a4,4,0,0,1,3.21-1.4A4.21,4.21,0,0,1,109,89.8Zm-1,6.25a6,6,0,0,0,.58-2.64,4.71,4.71,0,0,0-.42-2.14,2.34,2.34,0,0,0-2.28-1.3,2.26,2.26,0,0,0-2.09,1.1,5.23,5.23,0,0,0-.65,2.67,4.51,4.51,0,0,0,.65,2.5,2.3,2.3,0,0,0,2.07,1A2.15,2.15,0,0,0,108,96.05Z"/><path class="cls-1" d="M112.17,88.86h1.5V90.2A4.16,4.16,0,0,1,115.09,89a3.78,3.78,0,0,1,1.66-.36,2.74,2.74,0,0,1,2.71,1.4,5.08,5.08,0,0,1,.38,2.18v6h-1.61V92.34A3.23,3.23,0,0,0,118,91a1.55,1.55,0,0,0-1.53-.88,3,3,0,0,0-.92.12,2.54,2.54,0,0,0-1.66,1.73,6.44,6.44,0,0,0-.12,1.42v4.93h-1.58Z"/><path class="cls-1" d="M122.92,86a2.42,2.42,0,0,1,2.13-.81h.31l.36,0v1.44l-.36,0h-.21c-.48,0-.77.12-.87.37a7.56,7.56,0,0,0-.14,1.9h1.58v1.25h-1.58v8.12h-1.56V90.15h-1.31V88.9h1.31V87.43A2.71,2.71,0,0,1,122.92,86Z"/><path class="cls-1" d="M127.18,85.36h1.61v1.79h-1.61Zm0,3.54h1.61v9.37h-1.61Z"/><path class="cls-1" d="M131.22,88.86h1.51v1.63a3.45,3.45,0,0,1,.9-1.16,2.37,2.37,0,0,1,1.66-.68h.15l.36,0v1.67l-.26,0h-.25a2.24,2.24,0,0,0-1.84.77,2.66,2.66,0,0,0-.64,1.77v5.41h-1.59Z"/><path class="cls-1" d="M137.17,88.86h1.57V90.2a5.12,5.12,0,0,1,1-1,3.1,3.1,0,0,1,1.77-.53,2.77,2.77,0,0,1,1.81.55,2.84,2.84,0,0,1,.71.93,3.26,3.26,0,0,1,2.84-1.48A2.62,2.62,0,0,1,149.47,90a4.41,4.41,0,0,1,.37,2v6.26H148.2V91.73a1.55,1.55,0,0,0-.47-1.29,1.91,1.91,0,0,0-1.15-.35,2.28,2.28,0,0,0-1.6.62,2.75,2.75,0,0,0-.68,2.09v5.47h-1.61V92.13a3.25,3.25,0,0,0-.22-1.4,1.4,1.4,0,0,0-1.35-.66,2.29,2.29,0,0,0-1.63.7,3.39,3.39,0,0,0-.73,2.51v5h-1.59Z"/><path class="cls-1" d="M158,89.12a3.53,3.53,0,0,1,1.43,1.22A4.29,4.29,0,0,1,160,92a11.12,11.12,0,0,1,.14,2.07h-6.85a4.08,4.08,0,0,0,.67,2.31,2.27,2.27,0,0,0,1.95.86,2.5,2.5,0,0,0,2-.82,2.84,2.84,0,0,0,.58-1.1H160a3.27,3.27,0,0,1-.4,1.16,4.35,4.35,0,0,1-.78,1,3.72,3.72,0,0,1-1.77,1,5.58,5.58,0,0,1-1.28.14,3.93,3.93,0,0,1-3-1.28,5,5,0,0,1-1.22-3.58,5.43,5.43,0,0,1,1.23-3.69,4,4,0,0,1,3.19-1.41A4.26,4.26,0,0,1,158,89.12Zm.57,3.69a4.11,4.11,0,0,0-.44-1.64A2.29,2.29,0,0,0,156,90a2.38,2.38,0,0,0-1.81.78,3,3,0,0,0-.78,2Z"/><path class="cls-1" d="M167.05,88.9h1.55v1.25a3.59,3.59,0,0,1,1-1,3.34,3.34,0,0,1,1.88-.53,3.53,3.53,0,0,1,2.72,1.23,5,5,0,0,1,1.12,3.5c0,2-.53,3.52-1.61,4.39a3.64,3.64,0,0,1-2.38.84,3.22,3.22,0,0,1-1.79-.47,3.84,3.84,0,0,1-1-.9V102h-1.58ZM173,96.28a4.4,4.4,0,0,0,.74-2.77,5.06,5.06,0,0,0-.33-1.93,2.39,2.39,0,0,0-4.51.08,6.46,6.46,0,0,0-.33,2.24,4.67,4.67,0,0,0,.33,1.85,2.39,2.39,0,0,0,4.1.53Z"/><path class="cls-1" d="M177.24,88.86h1.5v1.63a3.45,3.45,0,0,1,.9-1.16,2.37,2.37,0,0,1,1.66-.68h.15l.36,0v1.67l-.26,0h-.25a2.24,2.24,0,0,0-1.84.77,2.66,2.66,0,0,0-.64,1.77v5.41h-1.58Z"/><path class="cls-1" d="M189,89.12a3.5,3.5,0,0,1,1.42,1.22,4,4,0,0,1,.63,1.66,10.3,10.3,0,0,1,.14,2.07h-6.84a4.08,4.08,0,0,0,.67,2.31,2.25,2.25,0,0,0,1.94.86,2.47,2.47,0,0,0,2-.82,2.59,2.59,0,0,0,.58-1.1h1.56a3.31,3.31,0,0,1-.41,1.16,4.32,4.32,0,0,1-.77,1,3.72,3.72,0,0,1-1.77,1,5.6,5.6,0,0,1-1.29.14,3.94,3.94,0,0,1-3-1.28,5,5,0,0,1-1.21-3.58,5.47,5.47,0,0,1,1.22-3.69,4,4,0,0,1,3.2-1.41A4.29,4.29,0,0,1,189,89.12Zm.57,3.69a4.27,4.27,0,0,0-.45-1.64A2.28,2.28,0,0,0,187,90a2.37,2.37,0,0,0-1.81.78,3,3,0,0,0-.78,2Z"/><path class="cls-1" d="M194.14,95.32a2.19,2.19,0,0,0,.4,1.21,2.57,2.57,0,0,0,2.12.77,3.16,3.16,0,0,0,1.58-.39,1.26,1.26,0,0,0,.68-1.18,1,1,0,0,0-.55-.92,6.43,6.43,0,0,0-1.37-.45L195.72,94a6.07,6.07,0,0,1-1.8-.66,2,2,0,0,1-1-1.78,2.7,2.7,0,0,1,1-2.16,3.9,3.9,0,0,1,2.62-.83,3.68,3.68,0,0,1,3.11,1.25,2.76,2.76,0,0,1,.58,1.71h-1.5a1.82,1.82,0,0,0-.38-1,2.51,2.51,0,0,0-1.94-.62,2.36,2.36,0,0,0-1.39.34,1.06,1.06,0,0,0-.47.9,1.12,1.12,0,0,0,.62,1,3.9,3.9,0,0,0,1.06.39l1.06.25a8.36,8.36,0,0,1,2.33.8,2.12,2.12,0,0,1,.92,1.91,2.89,2.89,0,0,1-1,2.17,4.16,4.16,0,0,1-2.94.91,4,4,0,0,1-3-.95,3.57,3.57,0,0,1-.94-2.36Z"/><path class="cls-1" d="M208,89.12a3.5,3.5,0,0,1,1.42,1.22,4,4,0,0,1,.63,1.66,10.3,10.3,0,0,1,.14,2.07h-6.84a4.08,4.08,0,0,0,.67,2.31,2.25,2.25,0,0,0,1.94.86,2.47,2.47,0,0,0,2-.82,2.73,2.73,0,0,0,.59-1.1h1.55a3.31,3.31,0,0,1-.41,1.16,4.32,4.32,0,0,1-.77,1,3.72,3.72,0,0,1-1.77,1,5.6,5.6,0,0,1-1.29.14,3.94,3.94,0,0,1-3-1.28,5,5,0,0,1-1.21-3.58,5.47,5.47,0,0,1,1.22-3.69,4,4,0,0,1,3.2-1.41A4.29,4.29,0,0,1,208,89.12Zm.57,3.69a4.1,4.1,0,0,0-.45-1.64A2.27,2.27,0,0,0,206,90a2.38,2.38,0,0,0-1.81.78,3,3,0,0,0-.78,2Z"/><path class="cls-1" d="M212.21,88.86h1.5V90.2A4.23,4.23,0,0,1,215.12,89a3.82,3.82,0,0,1,1.67-.36,2.72,2.72,0,0,1,2.7,1.4,4.91,4.91,0,0,1,.39,2.18v6h-1.61V92.34A3.23,3.23,0,0,0,218,91a1.55,1.55,0,0,0-1.53-.88,3,3,0,0,0-.93.12,2.55,2.55,0,0,0-1.65,1.73,6.44,6.44,0,0,0-.12,1.42v4.93h-1.58Z"/><path class="cls-1" d="M228.44,89.36a3.75,3.75,0,0,1,1.2,2.66H228.1a2.89,2.89,0,0,0-.64-1.44,2,2,0,0,0-1.61-.58,2.21,2.21,0,0,0-2.16,1.48,5.66,5.66,0,0,0-.43,2.36,4.45,4.45,0,0,0,.6,2.38,2.32,2.32,0,0,0,3.44.36,3.25,3.25,0,0,0,.8-1.64h1.54a4.17,4.17,0,0,1-1.32,2.74,3.74,3.74,0,0,1-2.45.86l-.62.86a2,2,0,0,1,.66-.08,1.49,1.49,0,0,1,1,.35,1.32,1.32,0,0,1,.4,1,1.52,1.52,0,0,1-.53,1.15,2.34,2.34,0,0,1-1.62.48,3.76,3.76,0,0,1-1-.13,7.5,7.5,0,0,1-.75-.24l.31-.72a3.63,3.63,0,0,0,.52.18,2.79,2.79,0,0,0,.65.1,1.52,1.52,0,0,0,.56-.1.67.67,0,0,0,.46-.67.62.62,0,0,0-.23-.49.94.94,0,0,0-.62-.2,1.83,1.83,0,0,0-.35,0,3.09,3.09,0,0,0-.37.12l-.31-.36,1-1.3a2.89,2.89,0,0,1-2.19-1,5.4,5.4,0,0,1-1.26-3.71,5.68,5.68,0,0,1,1.2-3.86,3.9,3.9,0,0,1,3.07-1.38A4.09,4.09,0,0,1,228.44,89.36Z"/><path class="cls-1" d="M236.26,92.58a.85.85,0,0,0,.73-.46,1.38,1.38,0,0,0,.11-.61,1.29,1.29,0,0,0-.58-1.18,3.09,3.09,0,0,0-1.64-.36,2.09,2.09,0,0,0-1.76.67,2.25,2.25,0,0,0-.37,1.1h-1.48a2.75,2.75,0,0,1,1.13-2.43,4.65,4.65,0,0,1,2.51-.68,5.14,5.14,0,0,1,2.7.63,2.17,2.17,0,0,1,1,2v5.43a.67.67,0,0,0,.1.39c.06.1.21.15.42.15h.24l.28,0v1.17a4.52,4.52,0,0,1-.56.13,4,4,0,0,1-.53,0,1.28,1.28,0,0,1-1.18-.58,2.28,2.28,0,0,1-.28-.87,3.86,3.86,0,0,1-1.39,1.1,4.26,4.26,0,0,1-2,.47,3,3,0,0,1-2.14-.8,2.64,2.64,0,0,1-.83-2,2.54,2.54,0,0,1,.82-2,3.87,3.87,0,0,1,2.14-.89Zm-3.33,4.27a1.89,1.89,0,0,0,1.19.39,3.63,3.63,0,0,0,1.62-.38,2.19,2.19,0,0,0,1.31-2.1V93.49a3,3,0,0,1-.74.31,5.92,5.92,0,0,1-.9.17l-.95.13a3.34,3.34,0,0,0-1.29.36,1.37,1.37,0,0,0-.74,1.31A1.3,1.3,0,0,0,232.93,96.85Z"/><path class="cls-1" d="M242.17,95.32a2.28,2.28,0,0,0,.4,1.21,2.57,2.57,0,0,0,2.12.77,3.14,3.14,0,0,0,1.58-.39,1.26,1.26,0,0,0,.68-1.18,1,1,0,0,0-.54-.92,6.81,6.81,0,0,0-1.38-.45L243.75,94a6.18,6.18,0,0,1-1.8-.66,2,2,0,0,1-1-1.78,2.7,2.7,0,0,1,1-2.16,3.92,3.92,0,0,1,2.62-.83,3.68,3.68,0,0,1,3.11,1.25,2.7,2.7,0,0,1,.58,1.71h-1.5a1.82,1.82,0,0,0-.38-1,2.5,2.5,0,0,0-1.94-.62,2.36,2.36,0,0,0-1.39.34,1.06,1.06,0,0,0-.47.9,1.12,1.12,0,0,0,.62,1,3.9,3.9,0,0,0,1.06.39l1.06.25a8.36,8.36,0,0,1,2.33.8,2.1,2.1,0,0,1,.92,1.91,2.89,2.89,0,0,1-1,2.17,4.14,4.14,0,0,1-2.94.91,4,4,0,0,1-3-.95,3.58,3.58,0,0,1-.95-2.36Z"/><path class="cls-1" d="M89,109.9h1.55v1.25a3.59,3.59,0,0,1,1-1,3.34,3.34,0,0,1,1.88-.53,3.53,3.53,0,0,1,2.72,1.23,5,5,0,0,1,1.12,3.5c0,2-.54,3.52-1.61,4.39a3.64,3.64,0,0,1-2.38.84,3.28,3.28,0,0,1-1.8-.47,4,4,0,0,1-.94-.9V123H89Zm6,7.38a4.4,4.4,0,0,0,.74-2.77,5.06,5.06,0,0,0-.33-1.93,2.39,2.39,0,0,0-4.51.08,6.46,6.46,0,0,0-.33,2.24,4.67,4.67,0,0,0,.33,1.85,2.39,2.39,0,0,0,4.1.53Z"/><path class="cls-1" d="M104.22,113.58a.88.88,0,0,0,.73-.46,1.4,1.4,0,0,0,.1-.61,1.31,1.31,0,0,0-.57-1.18,3.16,3.16,0,0,0-1.65-.36,2.07,2.07,0,0,0-1.75.67,2.15,2.15,0,0,0-.38,1.1H99.22a2.75,2.75,0,0,1,1.13-2.43,4.66,4.66,0,0,1,2.52-.68,5.13,5.13,0,0,1,2.69.63,2.15,2.15,0,0,1,1,2v5.43a.67.67,0,0,0,.1.39.49.49,0,0,0,.43.15h.23l.28,0v1.17a4.52,4.52,0,0,1-.56.13,3.87,3.87,0,0,1-.53,0,1.28,1.28,0,0,1-1.18-.58,2.12,2.12,0,0,1-.27-.87,4,4,0,0,1-1.39,1.1,4.33,4.33,0,0,1-2,.47,3,3,0,0,1-2.14-.8,2.64,2.64,0,0,1-.83-2,2.54,2.54,0,0,1,.82-2,3.87,3.87,0,0,1,2.14-.89Zm-3.34,4.27a1.89,1.89,0,0,0,1.19.39,3.57,3.57,0,0,0,1.62-.38,2.18,2.18,0,0,0,1.32-2.1v-1.27a3.14,3.14,0,0,1-.75.31,5.8,5.8,0,0,1-.89.17l-1,.13a3.45,3.45,0,0,0-1.29.36,1.39,1.39,0,0,0-.74,1.31A1.3,1.3,0,0,0,100.88,117.85Z"/><path class="cls-1" d="M109.23,109.86h1.5v1.63a3.45,3.45,0,0,1,.9-1.16,2.37,2.37,0,0,1,1.66-.68h.15l.36,0v1.67l-.26,0h-.25a2.24,2.24,0,0,0-1.84.77,2.66,2.66,0,0,0-.64,1.77v5.41h-1.58Z"/><path class="cls-1" d="M120.22,113.58a.86.86,0,0,0,.73-.46,1.38,1.38,0,0,0,.11-.61,1.31,1.31,0,0,0-.58-1.18,3.09,3.09,0,0,0-1.64-.36,2.09,2.09,0,0,0-1.76.67,2.16,2.16,0,0,0-.37,1.1h-1.48a2.73,2.73,0,0,1,1.13-2.43,4.65,4.65,0,0,1,2.51-.68,5.14,5.14,0,0,1,2.7.63,2.16,2.16,0,0,1,1,2v5.43a.67.67,0,0,0,.11.39q.09.15.42.15h.24l.28,0v1.17a5,5,0,0,1-.56.13,4,4,0,0,1-.53,0,1.3,1.3,0,0,1-1.19-.58,2.12,2.12,0,0,1-.27-.87,3.86,3.86,0,0,1-1.39,1.1,4.29,4.29,0,0,1-2,.47,3,3,0,0,1-2.14-.8,2.61,2.61,0,0,1-.83-2,2.56,2.56,0,0,1,.81-2,3.9,3.9,0,0,1,2.15-.89Zm-3.33,4.27a1.87,1.87,0,0,0,1.19.39,3.56,3.56,0,0,0,1.61-.38,2.18,2.18,0,0,0,1.32-2.1v-1.27a3,3,0,0,1-.74.31,6.16,6.16,0,0,1-.9.17l-1,.13a3.46,3.46,0,0,0-1.3.36,1.38,1.38,0,0,0-.73,1.31A1.3,1.3,0,0,0,116.89,117.85Z"/><path class="cls-1" d="M136.41,110.36a3.75,3.75,0,0,1,1.2,2.66h-1.54a2.89,2.89,0,0,0-.64-1.44,2,2,0,0,0-1.61-.58,2.21,2.21,0,0,0-2.16,1.48,5.66,5.66,0,0,0-.43,2.36,4.45,4.45,0,0,0,.6,2.38,2.32,2.32,0,0,0,3.44.36,3.25,3.25,0,0,0,.8-1.64h1.54a4.17,4.17,0,0,1-1.32,2.74,4.12,4.12,0,0,1-2.7.86,3.61,3.61,0,0,1-3-1.34,5.19,5.19,0,0,1-1.09-3.37,5.68,5.68,0,0,1,1.2-3.86,3.9,3.9,0,0,1,3.07-1.38A4.09,4.09,0,0,1,136.41,110.36Z"/><path class="cls-1" d="M144.23,113.58a.85.85,0,0,0,.73-.46,1.38,1.38,0,0,0,.11-.61,1.29,1.29,0,0,0-.58-1.18,3.09,3.09,0,0,0-1.64-.36,2.09,2.09,0,0,0-1.76.67,2.25,2.25,0,0,0-.37,1.1h-1.48a2.75,2.75,0,0,1,1.13-2.43,4.65,4.65,0,0,1,2.51-.68,5.14,5.14,0,0,1,2.7.63,2.17,2.17,0,0,1,1,2v5.43a.67.67,0,0,0,.1.39c.06.1.21.15.42.15h.24l.28,0v1.17a4.52,4.52,0,0,1-.56.13,4,4,0,0,1-.53,0,1.28,1.28,0,0,1-1.18-.58,2.28,2.28,0,0,1-.28-.87,3.86,3.86,0,0,1-1.39,1.1,4.26,4.26,0,0,1-2,.47,3,3,0,0,1-2.14-.8,2.64,2.64,0,0,1-.83-2,2.54,2.54,0,0,1,.82-2,3.87,3.87,0,0,1,2.14-.89Zm-3.33,4.27a1.89,1.89,0,0,0,1.19.39,3.63,3.63,0,0,0,1.62-.38,2.19,2.19,0,0,0,1.31-2.1v-1.27a3,3,0,0,1-.74.31,5.92,5.92,0,0,1-.9.17l-.95.13a3.46,3.46,0,0,0-1.3.36,1.38,1.38,0,0,0-.73,1.31A1.3,1.3,0,0,0,140.9,117.85Z"/><path class="cls-1" d="M154.37,110.15a4.18,4.18,0,0,1,.95.92v-4.75h1.52v13h-1.42V118a3.46,3.46,0,0,1-1.3,1.26,3.74,3.74,0,0,1-1.73.39,3.46,3.46,0,0,1-2.71-1.33,5.15,5.15,0,0,1-1.15-3.52,6.06,6.06,0,0,1,1.05-3.56,3.4,3.4,0,0,1,3-1.51A3.28,3.28,0,0,1,154.37,110.15Zm-3.53,7.06a2.23,2.23,0,0,0,2,1,2.16,2.16,0,0,0,1.8-1,4.46,4.46,0,0,0,.71-2.71,4,4,0,0,0-.73-2.64,2.26,2.26,0,0,0-1.79-.86,2.36,2.36,0,0,0-1.93.92,4.21,4.21,0,0,0-.74,2.69A4.66,4.66,0,0,0,150.84,117.21Z"/><path class="cls-1" d="M164.25,113.58a.85.85,0,0,0,.73-.46,1.38,1.38,0,0,0,.11-.61,1.29,1.29,0,0,0-.58-1.18,3.09,3.09,0,0,0-1.64-.36,2.05,2.05,0,0,0-1.75.67,2.15,2.15,0,0,0-.38,1.1h-1.48a2.75,2.75,0,0,1,1.13-2.43,4.65,4.65,0,0,1,2.51-.68,5.14,5.14,0,0,1,2.7.63,2.17,2.17,0,0,1,1,2v5.43a.67.67,0,0,0,.1.39c.06.1.21.15.42.15h.24l.28,0v1.17a4.52,4.52,0,0,1-.56.13,3.87,3.87,0,0,1-.53,0,1.28,1.28,0,0,1-1.18-.58,2.28,2.28,0,0,1-.28-.87,3.9,3.9,0,0,1-1.38,1.1,4.33,4.33,0,0,1-2,.47,3,3,0,0,1-2.14-.8,2.64,2.64,0,0,1-.83-2,2.54,2.54,0,0,1,.82-2,3.87,3.87,0,0,1,2.14-.89Zm-3.33,4.27a1.89,1.89,0,0,0,1.19.39,3.57,3.57,0,0,0,1.62-.38,2.17,2.17,0,0,0,1.31-2.1v-1.27a3,3,0,0,1-.74.31,5.7,5.7,0,0,1-.9.17l-1,.13a3.4,3.4,0,0,0-1.29.36,1.39,1.39,0,0,0-.74,1.31A1.3,1.3,0,0,0,160.92,117.85Z"/><path class="cls-1" d="M179.27,113.58a.88.88,0,0,0,.73-.46,1.4,1.4,0,0,0,.1-.61,1.31,1.31,0,0,0-.57-1.18,3.16,3.16,0,0,0-1.65-.36,2.07,2.07,0,0,0-1.75.67,2.15,2.15,0,0,0-.38,1.1h-1.48a2.75,2.75,0,0,1,1.13-2.43,4.66,4.66,0,0,1,2.52-.68,5.13,5.13,0,0,1,2.69.63,2.15,2.15,0,0,1,1,2v5.43a.67.67,0,0,0,.1.39.49.49,0,0,0,.43.15h.23l.28,0v1.17a4.52,4.52,0,0,1-.56.13,3.87,3.87,0,0,1-.53,0,1.28,1.28,0,0,1-1.18-.58,2.12,2.12,0,0,1-.27-.87,4,4,0,0,1-1.39,1.1,4.33,4.33,0,0,1-2,.47,3,3,0,0,1-2.14-.8,2.64,2.64,0,0,1-.83-2,2.54,2.54,0,0,1,.82-2,3.87,3.87,0,0,1,2.14-.89Zm-3.34,4.27a1.89,1.89,0,0,0,1.19.39,3.57,3.57,0,0,0,1.62-.38,2.18,2.18,0,0,0,1.32-2.1v-1.27a3.14,3.14,0,0,1-.75.31,5.8,5.8,0,0,1-.89.17l-1,.13a3.45,3.45,0,0,0-1.29.36,1.39,1.39,0,0,0-.74,1.31A1.3,1.3,0,0,0,175.93,117.85Zm4-11.78-2.34,2.54h-1.22l1.61-2.54Z"/><path class="cls-1" d="M184.28,109.86h1.5v1.63a3.45,3.45,0,0,1,.9-1.16,2.37,2.37,0,0,1,1.66-.68h.15l.36,0v1.67l-.26,0h-.25a2.24,2.24,0,0,0-1.84.77,2.66,2.66,0,0,0-.64,1.77v5.41h-1.58Z"/><path class="cls-1" d="M196,110.12a3.5,3.5,0,0,1,1.42,1.22,4,4,0,0,1,.63,1.66,10.3,10.3,0,0,1,.14,2.07h-6.84a4.08,4.08,0,0,0,.67,2.31,2.25,2.25,0,0,0,1.94.86,2.47,2.47,0,0,0,2-.82,2.59,2.59,0,0,0,.58-1.1h1.56a3.31,3.31,0,0,1-.41,1.16,4.32,4.32,0,0,1-.77,1,3.72,3.72,0,0,1-1.77,1,5.6,5.6,0,0,1-1.29.14,3.94,3.94,0,0,1-3-1.28,5,5,0,0,1-1.21-3.58,5.47,5.47,0,0,1,1.22-3.69,4,4,0,0,1,3.2-1.41A4.29,4.29,0,0,1,196,110.12Zm.57,3.69a4.27,4.27,0,0,0-.45-1.64A2.28,2.28,0,0,0,194,111a2.37,2.37,0,0,0-1.81.78,3,3,0,0,0-.78,2Z"/><path class="cls-1" d="M205.28,113.58a.86.86,0,0,0,.73-.46,1.38,1.38,0,0,0,.11-.61,1.31,1.31,0,0,0-.58-1.18,3.09,3.09,0,0,0-1.64-.36,2.09,2.09,0,0,0-1.76.67,2.16,2.16,0,0,0-.37,1.1h-1.48a2.73,2.73,0,0,1,1.13-2.43,4.65,4.65,0,0,1,2.51-.68,5.14,5.14,0,0,1,2.7.63,2.16,2.16,0,0,1,1,2v5.43a.67.67,0,0,0,.11.39q.09.15.42.15h.24l.28,0v1.17a5,5,0,0,1-.56.13,4,4,0,0,1-.53,0,1.31,1.31,0,0,1-1.19-.58,2.12,2.12,0,0,1-.27-.87,3.86,3.86,0,0,1-1.39,1.1,4.29,4.29,0,0,1-2,.47,3,3,0,0,1-2.14-.8,2.61,2.61,0,0,1-.83-2,2.56,2.56,0,0,1,.81-2,3.9,3.9,0,0,1,2.15-.89ZM202,117.85a1.87,1.87,0,0,0,1.19.39,3.56,3.56,0,0,0,1.61-.38,2.18,2.18,0,0,0,1.32-2.1v-1.27a3,3,0,0,1-.74.31,6.16,6.16,0,0,1-.9.17l-1,.13a3.46,3.46,0,0,0-1.3.36,1.38,1.38,0,0,0-.73,1.31A1.3,1.3,0,0,0,202,117.85Z"/><path class="cls-1" d="M222.07,110.8a4.75,4.75,0,0,1,1.25,3.56,6.16,6.16,0,0,1-1.1,3.76,4,4,0,0,1-3.42,1.49,3.84,3.84,0,0,1-3.06-1.32,5.17,5.17,0,0,1-1.13-3.52A5.63,5.63,0,0,1,215.8,111a4,4,0,0,1,3.21-1.4A4.21,4.21,0,0,1,222.07,110.8Zm-1,6.25a6,6,0,0,0,.57-2.64,4.72,4.72,0,0,0-.41-2.14A2.34,2.34,0,0,0,219,111a2.26,2.26,0,0,0-2.09,1.1,5.23,5.23,0,0,0-.65,2.67,4.51,4.51,0,0,0,.65,2.5,2.3,2.3,0,0,0,2.07,1A2.15,2.15,0,0,0,221.09,117.05Z"/><path class="cls-1" d="M226.84,109.86v6.25a2.86,2.86,0,0,0,.22,1.18,1.56,1.56,0,0,0,1.54.84,2.16,2.16,0,0,0,2.19-1.48,6,6,0,0,0,.31-2.17v-4.62h1.59v9.41h-1.5l0-1.39a3.18,3.18,0,0,1-.75.91,3.27,3.27,0,0,1-2.16.74,2.77,2.77,0,0,1-2.69-1.35,4,4,0,0,1-.39-1.92v-6.4Z"/><path class="cls-1" d="M89,130.9h1.55v1.25a3.59,3.59,0,0,1,1-1,3.34,3.34,0,0,1,1.88-.53,3.53,3.53,0,0,1,2.72,1.23,5,5,0,0,1,1.12,3.5c0,2-.54,3.52-1.61,4.39a3.64,3.64,0,0,1-2.38.84,3.28,3.28,0,0,1-1.8-.47,4,4,0,0,1-.94-.9V144H89Zm6,7.38a4.4,4.4,0,0,0,.74-2.77,5.06,5.06,0,0,0-.33-1.93,2.39,2.39,0,0,0-4.51.08,6.46,6.46,0,0,0-.33,2.24,4.67,4.67,0,0,0,.33,1.85,2.39,2.39,0,0,0,4.1.53Z"/><path class="cls-1" d="M99.21,130.86h1.51v1.63a3.45,3.45,0,0,1,.9-1.16,2.37,2.37,0,0,1,1.66-.68h.15l.36,0v1.67l-.26,0h-.25a2.24,2.24,0,0,0-1.84.77,2.66,2.66,0,0,0-.64,1.77v5.41H99.21Z"/><path class="cls-1" d="M112,131.8a4.74,4.74,0,0,1,1.24,3.56,6.1,6.1,0,0,1-1.1,3.76,4,4,0,0,1-3.41,1.49,3.82,3.82,0,0,1-3.06-1.32,5.17,5.17,0,0,1-1.14-3.52,5.64,5.64,0,0,1,1.2-3.78,4,4,0,0,1,3.21-1.4A4.24,4.24,0,0,1,112,131.8Zm-1,6.25a5.88,5.88,0,0,0,.58-2.64,4.71,4.71,0,0,0-.42-2.14,2.33,2.33,0,0,0-2.27-1.3,2.26,2.26,0,0,0-2.09,1.1,5.23,5.23,0,0,0-.65,2.67,4.51,4.51,0,0,0,.65,2.5,2.28,2.28,0,0,0,2.07,1A2.13,2.13,0,0,0,111,138.05Z"/><path class="cls-1" d="M120.41,131.24a4.19,4.19,0,0,1,.91.89V131h1.46v8.56a6.34,6.34,0,0,1-.53,2.83,3.76,3.76,0,0,1-3.7,1.91,4.49,4.49,0,0,1-2.55-.68,2.64,2.64,0,0,1-1.16-2.13h1.61a1.9,1.9,0,0,0,.45,1,2.33,2.33,0,0,0,1.68.52,2.29,2.29,0,0,0,2.37-1.28,7.2,7.2,0,0,0,.31-2.7,3.25,3.25,0,0,1-1.14,1.08,4.07,4.07,0,0,1-4.43-.74,4.79,4.79,0,0,1-1.14-3.59A5.47,5.47,0,0,1,115.7,132a3.55,3.55,0,0,1,2.78-1.33A3.36,3.36,0,0,1,120.41,131.24Zm.19,1.69a2.3,2.3,0,0,0-1.83-.84,2.26,2.26,0,0,0-2.27,1.56,6.34,6.34,0,0,0-.32,2.19,3.88,3.88,0,0,0,.64,2.42,2.05,2.05,0,0,0,1.73.83,2.42,2.42,0,0,0,2.38-1.53,4.93,4.93,0,0,0,.39-2A4,4,0,0,0,120.6,132.93Z"/><path class="cls-1" d="M125.23,130.86h1.5v1.63a3.65,3.65,0,0,1,.91-1.16,2.35,2.35,0,0,1,1.66-.68h.15l.36,0v1.67l-.26,0h-.26a2.24,2.24,0,0,0-1.84.77,2.71,2.71,0,0,0-.64,1.77v5.41h-1.58Z"/><path class="cls-1" d="M136.23,134.58a.88.88,0,0,0,.73-.46,1.4,1.4,0,0,0,.1-.61,1.31,1.31,0,0,0-.57-1.18,3.16,3.16,0,0,0-1.65-.36,2.07,2.07,0,0,0-1.75.67,2.15,2.15,0,0,0-.38,1.1h-1.48a2.75,2.75,0,0,1,1.13-2.43,4.66,4.66,0,0,1,2.52-.68,5.13,5.13,0,0,1,2.69.63,2.15,2.15,0,0,1,1,2v5.43a.67.67,0,0,0,.1.39.49.49,0,0,0,.43.15h.23l.28,0v1.17a4.52,4.52,0,0,1-.56.13,3.87,3.87,0,0,1-.53,0,1.28,1.28,0,0,1-1.18-.58,2.12,2.12,0,0,1-.27-.87,4,4,0,0,1-1.39,1.1,4.33,4.33,0,0,1-2,.47,3,3,0,0,1-2.14-.8,2.64,2.64,0,0,1-.83-2,2.54,2.54,0,0,1,.82-2,3.87,3.87,0,0,1,2.14-.89Zm-3.34,4.27a1.89,1.89,0,0,0,1.19.39,3.57,3.57,0,0,0,1.62-.38,2.18,2.18,0,0,0,1.32-2.1v-1.27a3.14,3.14,0,0,1-.75.31,5.8,5.8,0,0,1-.89.17l-1,.13a3.45,3.45,0,0,0-1.29.36,1.39,1.39,0,0,0-.74,1.31A1.3,1.3,0,0,0,132.89,138.85Z"/><path class="cls-1" d="M141.19,130.86h1.57v1.34a5.12,5.12,0,0,1,1-1,3.1,3.1,0,0,1,1.77-.53,2.79,2.79,0,0,1,1.81.55,2.83,2.83,0,0,1,.7.93A3.63,3.63,0,0,1,149.3,131a3.52,3.52,0,0,1,1.6-.36,2.63,2.63,0,0,1,2.59,1.37,4.55,4.55,0,0,1,.37,2v6.26h-1.65v-6.54a1.52,1.52,0,0,0-.47-1.29,1.86,1.86,0,0,0-1.14-.35,2.3,2.3,0,0,0-1.61.62,2.75,2.75,0,0,0-.67,2.09v5.47h-1.61v-6.14a3.22,3.22,0,0,0-.23-1.4,1.39,1.39,0,0,0-1.34-.66,2.29,2.29,0,0,0-1.63.7,3.39,3.39,0,0,0-.74,2.51v5h-1.58Z"/><path class="cls-1" d="M161.23,134.58a.86.86,0,0,0,.73-.46,1.38,1.38,0,0,0,.11-.61,1.31,1.31,0,0,0-.58-1.18,3.09,3.09,0,0,0-1.64-.36,2.09,2.09,0,0,0-1.76.67,2.25,2.25,0,0,0-.38,1.1h-1.47a2.73,2.73,0,0,1,1.13-2.43,4.65,4.65,0,0,1,2.51-.68,5.14,5.14,0,0,1,2.7.63,2.16,2.16,0,0,1,1,2v5.43a.67.67,0,0,0,.11.39q.09.15.42.15h.24l.28,0v1.17a5,5,0,0,1-.56.13,4,4,0,0,1-.53,0,1.3,1.3,0,0,1-1.19-.58,2.12,2.12,0,0,1-.27-.87,3.86,3.86,0,0,1-1.39,1.1,4.29,4.29,0,0,1-2,.47,3,3,0,0,1-2.14-.8,2.61,2.61,0,0,1-.83-2,2.56,2.56,0,0,1,.81-2,3.9,3.9,0,0,1,2.15-.89Zm-3.33,4.27a1.87,1.87,0,0,0,1.19.39,3.56,3.56,0,0,0,1.61-.38,2.18,2.18,0,0,0,1.32-2.1v-1.27a3,3,0,0,1-.74.31,6.16,6.16,0,0,1-.9.17l-1,.13a3.45,3.45,0,0,0-1.29.36,1.38,1.38,0,0,0-.73,1.31A1.3,1.3,0,0,0,157.9,138.85Z"/><path class="cls-1" d="M172.42,131.36a3.7,3.7,0,0,1,1.19,2.66h-1.53a2.82,2.82,0,0,0-.65-1.44,2,2,0,0,0-1.6-.58,2.23,2.23,0,0,0-2.17,1.48,5.83,5.83,0,0,0-.42,2.36,4.45,4.45,0,0,0,.6,2.38,2.32,2.32,0,0,0,3.44.36,3.33,3.33,0,0,0,.8-1.64h1.53a4.12,4.12,0,0,1-1.31,2.74,3.74,3.74,0,0,1-2.45.86l-.62.86a2,2,0,0,1,.66-.08,1.51,1.51,0,0,1,1,.35,1.32,1.32,0,0,1,.39,1,1.51,1.51,0,0,1-.52,1.15,2.34,2.34,0,0,1-1.62.48,3.76,3.76,0,0,1-1-.13,7.5,7.5,0,0,1-.75-.24l.31-.72a3.63,3.63,0,0,0,.52.18,2.71,2.71,0,0,0,.65.1,1.56,1.56,0,0,0,.56-.1.67.67,0,0,0,.46-.67.65.65,0,0,0-.23-.49,1,1,0,0,0-.62-.2,1.83,1.83,0,0,0-.35,0,2.61,2.61,0,0,0-.37.12l-.31-.36,1-1.3a2.89,2.89,0,0,1-2.19-1,5.4,5.4,0,0,1-1.27-3.71,5.69,5.69,0,0,1,1.21-3.86,3.88,3.88,0,0,1,3.07-1.38A4.09,4.09,0,0,1,172.42,131.36Z"/><path class="cls-1" d="M180.24,134.58a.86.86,0,0,0,.73-.46,1.38,1.38,0,0,0,.11-.61,1.31,1.31,0,0,0-.58-1.18,3.09,3.09,0,0,0-1.64-.36,2.09,2.09,0,0,0-1.76.67,2.16,2.16,0,0,0-.37,1.1h-1.48a2.73,2.73,0,0,1,1.13-2.43,4.65,4.65,0,0,1,2.51-.68,5.14,5.14,0,0,1,2.7.63,2.16,2.16,0,0,1,1,2v5.43a.67.67,0,0,0,.11.39q.09.15.42.15h.24l.28,0v1.17a5,5,0,0,1-.56.13,4,4,0,0,1-.53,0,1.31,1.31,0,0,1-1.19-.58,2.12,2.12,0,0,1-.27-.87,3.86,3.86,0,0,1-1.39,1.1,4.29,4.29,0,0,1-2,.47,3,3,0,0,1-2.14-.8,2.61,2.61,0,0,1-.83-2,2.56,2.56,0,0,1,.81-2,3.9,3.9,0,0,1,2.15-.89Zm-.64-6.64a3.67,3.67,0,0,0,.45.17,1.4,1.4,0,0,0,.41.06.77.77,0,0,0,.7-.31,1.13,1.13,0,0,0,.16-.5h.93a2.44,2.44,0,0,1-.71,1.54,1.79,1.79,0,0,1-1.15.42,2,2,0,0,1-.49-.07,4.24,4.24,0,0,1-.53-.16l-.46-.16c-.28-.1-.5-.18-.68-.23a1.77,1.77,0,0,0-.5-.07.66.66,0,0,0-.51.2,1.15,1.15,0,0,0-.27.61h-.86a3.19,3.19,0,0,1,.38-1.13,1.64,1.64,0,0,1,1.49-.81,2.74,2.74,0,0,1,.66.09A7.63,7.63,0,0,1,179.6,127.94Zm-2.69,10.91a1.87,1.87,0,0,0,1.19.39,3.56,3.56,0,0,0,1.61-.38,2.18,2.18,0,0,0,1.32-2.1v-1.27a3,3,0,0,1-.74.31,6.16,6.16,0,0,1-.9.17l-.95.13a3.46,3.46,0,0,0-1.3.36,1.38,1.38,0,0,0-.73,1.31A1.3,1.3,0,0,0,176.91,138.85Z"/><path class="cls-1" d="M192,131.8a4.75,4.75,0,0,1,1.25,3.56,6.16,6.16,0,0,1-1.1,3.76,4,4,0,0,1-3.42,1.49,3.84,3.84,0,0,1-3.06-1.32,5.17,5.17,0,0,1-1.13-3.52,5.63,5.63,0,0,1,1.19-3.78,4,4,0,0,1,3.21-1.4A4.21,4.21,0,0,1,192,131.8Zm-1,6.25a5.88,5.88,0,0,0,.58-2.64,4.86,4.86,0,0,0-.41-2.14,2.34,2.34,0,0,0-2.28-1.3,2.26,2.26,0,0,0-2.09,1.1,5.23,5.23,0,0,0-.65,2.67,4.51,4.51,0,0,0,.65,2.5,2.3,2.3,0,0,0,2.07,1A2.13,2.13,0,0,0,191,138.05Z"/><path class="cls-1" d="M89.54,239.08h8.95v1.58h-7.2v3.92h6.33v1.54H91.29V252H89.54Z"/><path class="cls-1" d="M105.2,246.29a.84.84,0,0,0,.73-.45,1.41,1.41,0,0,0,.11-.61,1.31,1.31,0,0,0-.58-1.18,3.09,3.09,0,0,0-1.64-.36,2.09,2.09,0,0,0-1.76.67,2.21,2.21,0,0,0-.38,1.1h-1.47a2.73,2.73,0,0,1,1.13-2.43,4.65,4.65,0,0,1,2.51-.68,5.14,5.14,0,0,1,2.7.63,2.15,2.15,0,0,1,1,2v5.42a.76.76,0,0,0,.1.4.49.49,0,0,0,.43.15h.24l.28,0V252a5,5,0,0,1-.56.13l-.53,0a1.3,1.3,0,0,1-1.19-.58,2.12,2.12,0,0,1-.27-.87,3.86,3.86,0,0,1-1.39,1.1,4.29,4.29,0,0,1-2,.47,3,3,0,0,1-2.14-.8,2.61,2.61,0,0,1-.83-2,2.56,2.56,0,0,1,.81-2,3.9,3.9,0,0,1,2.15-.89Zm-3.33,4.28a1.87,1.87,0,0,0,1.19.39,3.69,3.69,0,0,0,1.61-.38,2.18,2.18,0,0,0,1.32-2.1v-1.27a3,3,0,0,1-.74.31,6.16,6.16,0,0,1-.9.17l-1,.12a3.88,3.88,0,0,0-1.29.36,1.41,1.41,0,0,0-.73,1.32A1.3,1.3,0,0,0,101.87,250.57Z"/><path class="cls-1" d="M116.38,243.08a3.65,3.65,0,0,1,1.2,2.66h-1.53a2.82,2.82,0,0,0-.65-1.44,2,2,0,0,0-1.6-.58,2.23,2.23,0,0,0-2.17,1.48,5.83,5.83,0,0,0-.42,2.36,4.45,4.45,0,0,0,.6,2.38,2.32,2.32,0,0,0,3.44.36,3.37,3.37,0,0,0,.8-1.64h1.53a4.12,4.12,0,0,1-1.31,2.74,3.74,3.74,0,0,1-2.45.86l-.62.86a2,2,0,0,1,.66-.08,1.51,1.51,0,0,1,1,.35,1.32,1.32,0,0,1,.39,1,1.51,1.51,0,0,1-.52,1.15,2.36,2.36,0,0,1-1.62.48,3.76,3.76,0,0,1-1-.13q-.29-.07-.75-.24l.31-.72c.22.09.39.14.52.18a2.71,2.71,0,0,0,.65.1,1.56,1.56,0,0,0,.56-.1.67.67,0,0,0,.46-.67.65.65,0,0,0-.23-.49,1,1,0,0,0-.62-.2,1.83,1.83,0,0,0-.35,0,2.61,2.61,0,0,0-.37.12l-.31-.36,1-1.3a2.89,2.89,0,0,1-2.19-1,5.41,5.41,0,0,1-1.27-3.72,5.67,5.67,0,0,1,1.21-3.85,3.88,3.88,0,0,1,3.07-1.38A4,4,0,0,1,116.38,243.08Z"/><path class="cls-1" d="M124.21,246.29a.84.84,0,0,0,.73-.45,1.41,1.41,0,0,0,.11-.61,1.31,1.31,0,0,0-.58-1.18,3.09,3.09,0,0,0-1.64-.36,2.09,2.09,0,0,0-1.76.67,2.12,2.12,0,0,0-.37,1.1h-1.48a2.73,2.73,0,0,1,1.13-2.43,4.65,4.65,0,0,1,2.51-.68,5.14,5.14,0,0,1,2.7.63,2.15,2.15,0,0,1,1,2v5.42a.68.68,0,0,0,.11.4q.09.15.42.15h.24l.28,0V252a5,5,0,0,1-.56.13l-.53,0a1.31,1.31,0,0,1-1.19-.58,2.12,2.12,0,0,1-.27-.87,3.86,3.86,0,0,1-1.39,1.1,4.29,4.29,0,0,1-2,.47,3,3,0,0,1-2.14-.8,2.61,2.61,0,0,1-.83-2,2.56,2.56,0,0,1,.81-2,3.9,3.9,0,0,1,2.15-.89Zm-3.33,4.28a1.87,1.87,0,0,0,1.19.39,3.69,3.69,0,0,0,1.61-.38,2.18,2.18,0,0,0,1.32-2.1v-1.27a3,3,0,0,1-.74.31,6.16,6.16,0,0,1-.9.17l-1,.12a3.88,3.88,0,0,0-1.3.36,1.41,1.41,0,0,0-.73,1.32A1.3,1.3,0,0,0,120.88,250.57Z"/><path class="cls-1" d="M135.12,249a2.28,2.28,0,0,0,.4,1.21,2.57,2.57,0,0,0,2.12.77,3.14,3.14,0,0,0,1.58-.39,1.27,1.27,0,0,0,.68-1.18,1,1,0,0,0-.55-.92,6.43,6.43,0,0,0-1.37-.45l-1.28-.32a6.48,6.48,0,0,1-1.8-.66,2,2,0,0,1-1-1.78,2.7,2.7,0,0,1,1-2.16,3.92,3.92,0,0,1,2.62-.83,3.68,3.68,0,0,1,3.11,1.25,2.7,2.7,0,0,1,.58,1.71h-1.5a1.89,1.89,0,0,0-.38-1,2.55,2.55,0,0,0-1.94-.62,2.35,2.35,0,0,0-1.39.35,1.05,1.05,0,0,0-.47.9,1.12,1.12,0,0,0,.62,1,3.94,3.94,0,0,0,1.06.38l1.06.26a8,8,0,0,1,2.33.8,2.1,2.1,0,0,1,.92,1.91,2.91,2.91,0,0,1-1,2.17,4.16,4.16,0,0,1-2.94.91,4,4,0,0,1-3-.95,3.62,3.62,0,0,1-.94-2.36Z"/><path class="cls-1" d="M150,243.52a4.75,4.75,0,0,1,1.25,3.56,6.16,6.16,0,0,1-1.1,3.76,4,4,0,0,1-3.42,1.49,3.84,3.84,0,0,1-3.06-1.32,5.17,5.17,0,0,1-1.13-3.52,5.63,5.63,0,0,1,1.19-3.78,4,4,0,0,1,3.21-1.4A4.21,4.21,0,0,1,150,243.52Zm-1,6.25a6,6,0,0,0,.57-2.64,4.79,4.79,0,0,0-.41-2.15,2.35,2.35,0,0,0-2.28-1.29,2.24,2.24,0,0,0-2.09,1.1,5.23,5.23,0,0,0-.65,2.67,4.53,4.53,0,0,0,.65,2.5,2.3,2.3,0,0,0,2.07,1A2.15,2.15,0,0,0,149,249.77Z"/><path class="cls-1" d="M153.23,242.58h1.51v1.62a3.54,3.54,0,0,1,.9-1.15,2.31,2.31,0,0,1,1.66-.68h.15l.36,0v1.67l-.26,0h-.26a2.22,2.22,0,0,0-1.83.77,2.67,2.67,0,0,0-.65,1.77V252h-1.58Z"/><path class="cls-1" d="M159.5,240h1.6v2.63h1.5v1.29h-1.5V250a.67.67,0,0,0,.33.66,1.37,1.37,0,0,0,.62.1h.24l.31,0V252a4.78,4.78,0,0,1-.57.12,6.05,6.05,0,0,1-.63,0,1.73,1.73,0,0,1-1.51-.57,2.51,2.51,0,0,1-.39-1.47v-6.23h-1.28v-1.29h1.28Z"/><path class="cls-1" d="M170,242.84a3.55,3.55,0,0,1,1.42,1.21,4.09,4.09,0,0,1,.63,1.67,11.12,11.12,0,0,1,.14,2.07h-6.85a4,4,0,0,0,.68,2.3A2.22,2.22,0,0,0,168,251a2.49,2.49,0,0,0,2-.82,2.65,2.65,0,0,0,.58-1.1h1.56a3.27,3.27,0,0,1-.41,1.15,4.2,4.2,0,0,1-.77,1.05,3.69,3.69,0,0,1-1.78.94,4.94,4.94,0,0,1-1.28.15,3.94,3.94,0,0,1-3-1.28,5,5,0,0,1-1.21-3.59,5.41,5.41,0,0,1,1.22-3.68,4,4,0,0,1,3.2-1.41A4.16,4.16,0,0,1,170,242.84Zm.56,3.69a4.11,4.11,0,0,0-.44-1.64,2.28,2.28,0,0,0-2.15-1.14,2.41,2.41,0,0,0-1.82.78,3,3,0,0,0-.77,2Z"/><path class="cls-1" d="M174.19,239.08h1.61v1.79h-1.61Zm0,3.54h1.61V252h-1.61Z"/><path class="cls-1" d="M185,243.52a4.71,4.71,0,0,1,1.25,3.56,6.1,6.1,0,0,1-1.1,3.76,4,4,0,0,1-3.41,1.49,3.81,3.81,0,0,1-3.06-1.32,5.17,5.17,0,0,1-1.14-3.52,5.64,5.64,0,0,1,1.2-3.78,4,4,0,0,1,3.21-1.4A4.2,4.2,0,0,1,185,243.52Zm-1,6.25a5.88,5.88,0,0,0,.58-2.64,4.78,4.78,0,0,0-.42-2.15,2.34,2.34,0,0,0-2.27-1.29,2.23,2.23,0,0,0-2.09,1.1,5.13,5.13,0,0,0-.65,2.67,4.45,4.45,0,0,0,.65,2.5,2.27,2.27,0,0,0,2.07,1A2.14,2.14,0,0,0,184,249.77Z"/><path class="cls-1" d="M189.14,249a2.28,2.28,0,0,0,.41,1.21,2.57,2.57,0,0,0,2.12.77,3.1,3.1,0,0,0,1.57-.39,1.26,1.26,0,0,0,.69-1.18,1,1,0,0,0-.55-.92,6.37,6.37,0,0,0-1.38-.45l-1.27-.32a6.57,6.57,0,0,1-1.81-.66,2,2,0,0,1-1-1.78,2.69,2.69,0,0,1,1-2.16,4,4,0,0,1,2.63-.83,3.66,3.66,0,0,1,3.1,1.25,2.64,2.64,0,0,1,.58,1.71h-1.49a1.82,1.82,0,0,0-.39-1,2.51,2.51,0,0,0-1.93-.62A2.33,2.33,0,0,0,190,244a1,1,0,0,0-.47.9,1.1,1.1,0,0,0,.62,1,4,4,0,0,0,1,.38l1.07.26a8.16,8.16,0,0,1,2.33.8,2.12,2.12,0,0,1,.92,1.91,2.88,2.88,0,0,1-1,2.17,4.13,4.13,0,0,1-2.94.91,4,4,0,0,1-3-.95,3.63,3.63,0,0,1-.95-2.36Z"/><path class="cls-1" d="M207.25,246.29a.84.84,0,0,0,.73-.45,1.43,1.43,0,0,0,.1-.61,1.31,1.31,0,0,0-.57-1.18,3.09,3.09,0,0,0-1.64-.36,2.09,2.09,0,0,0-1.76.67,2.21,2.21,0,0,0-.38,1.1h-1.47a2.73,2.73,0,0,1,1.13-2.43,4.65,4.65,0,0,1,2.51-.68,5.14,5.14,0,0,1,2.7.63,2.15,2.15,0,0,1,1,2v5.42a.76.76,0,0,0,.1.4.49.49,0,0,0,.43.15h.24l.28,0V252a5,5,0,0,1-.56.13l-.53,0a1.3,1.3,0,0,1-1.19-.58,2.12,2.12,0,0,1-.27-.87,4,4,0,0,1-1.39,1.1,4.29,4.29,0,0,1-2,.47,3,3,0,0,1-2.14-.8,2.61,2.61,0,0,1-.83-2,2.56,2.56,0,0,1,.81-2,3.9,3.9,0,0,1,2.15-.89Zm-3.33,4.28a1.87,1.87,0,0,0,1.19.39,3.69,3.69,0,0,0,1.61-.38,2.18,2.18,0,0,0,1.32-2.1v-1.27a3,3,0,0,1-.74.31,6.16,6.16,0,0,1-.9.17l-1,.12a3.88,3.88,0,0,0-1.29.36,1.41,1.41,0,0,0-.73,1.32A1.28,1.28,0,0,0,203.92,250.57Z"/><path class="cls-1" d="M212.22,242.58h1.5v1.33a4.21,4.21,0,0,1,1.41-1.18,3.81,3.81,0,0,1,1.66-.36,2.74,2.74,0,0,1,2.71,1.39,4.93,4.93,0,0,1,.39,2.19v6h-1.61v-5.93a3.2,3.2,0,0,0-.25-1.39,1.56,1.56,0,0,0-1.53-.88,3,3,0,0,0-.93.12,2.3,2.3,0,0,0-1.14.77,2.37,2.37,0,0,0-.51,1,6.44,6.44,0,0,0-.12,1.42V252h-1.58Z"/><path class="cls-1" d="M222.54,240h1.6v2.63h1.51v1.29h-1.51V250a.66.66,0,0,0,.34.66,1.29,1.29,0,0,0,.61.1h.25l.31,0V252l-.57.12a6.4,6.4,0,0,1-.64,0,1.7,1.7,0,0,1-1.5-.57,2.44,2.44,0,0,1-.4-1.47v-6.23h-1.27v-1.29h1.27Z"/><path class="cls-1" d="M233,242.84a3.59,3.59,0,0,1,1.43,1.21,4.23,4.23,0,0,1,.62,1.67,10.3,10.3,0,0,1,.14,2.07h-6.84a4,4,0,0,0,.67,2.3A2.24,2.24,0,0,0,231,251a2.51,2.51,0,0,0,2-.82,2.91,2.91,0,0,0,.58-1.1h1.55a3.27,3.27,0,0,1-.41,1.15,4.2,4.2,0,0,1-.77,1.05,3.7,3.7,0,0,1-1.77.94,5.05,5.05,0,0,1-1.28.15,3.91,3.91,0,0,1-3-1.28,5,5,0,0,1-1.22-3.59,5.46,5.46,0,0,1,1.22-3.68,4,4,0,0,1,3.2-1.41A4.14,4.14,0,0,1,233,242.84Zm.57,3.69a4.1,4.1,0,0,0-.45-1.64,2.27,2.27,0,0,0-2.15-1.14,2.38,2.38,0,0,0-1.81.78,3,3,0,0,0-.78,2Z"/><path class="cls-1" d="M238.18,249a2.28,2.28,0,0,0,.4,1.21,2.57,2.57,0,0,0,2.12.77,3.14,3.14,0,0,0,1.58-.39,1.27,1.27,0,0,0,.68-1.18,1,1,0,0,0-.54-.92,6.81,6.81,0,0,0-1.38-.45l-1.28-.32a6.48,6.48,0,0,1-1.8-.66,2,2,0,0,1-1-1.78,2.7,2.7,0,0,1,1-2.16,3.92,3.92,0,0,1,2.62-.83,3.68,3.68,0,0,1,3.11,1.25,2.7,2.7,0,0,1,.58,1.71h-1.5a1.89,1.89,0,0,0-.38-1,2.53,2.53,0,0,0-1.94-.62A2.35,2.35,0,0,0,239,244a1.05,1.05,0,0,0-.47.9,1.12,1.12,0,0,0,.62,1,3.94,3.94,0,0,0,1.06.38l1.06.26a8,8,0,0,1,2.33.8,2.1,2.1,0,0,1,.92,1.91,2.91,2.91,0,0,1-1,2.17,4.14,4.14,0,0,1-2.94.91,4,4,0,0,1-3-.95,3.58,3.58,0,0,1-1-2.36Z"/><path class="cls-1" d="M246.57,253.84a1.1,1.1,0,0,0,.85-.86,2.37,2.37,0,0,0,.14-.77s0-.08,0-.11a.52.52,0,0,0,0-.11h-1v-1.91h1.88v1.77a3.87,3.87,0,0,1-.42,1.84,1.93,1.93,0,0,1-1.46,1Z"/><path class="cls-1" d="M94.33,263.87a4.17,4.17,0,0,1,1,.92V260h1.52V273H95.38v-1.31a3.46,3.46,0,0,1-1.3,1.26,3.71,3.71,0,0,1-1.73.39A3.49,3.49,0,0,1,89.64,272a5.2,5.2,0,0,1-1.15-3.52,6.06,6.06,0,0,1,1.05-3.56,3.41,3.41,0,0,1,3-1.51A3.25,3.25,0,0,1,94.33,263.87Zm-3.53,7.06a2.24,2.24,0,0,0,2,1,2.14,2.14,0,0,0,1.79-.95,4.46,4.46,0,0,0,.71-2.71,4,4,0,0,0-.73-2.64,2.26,2.26,0,0,0-1.79-.86,2.37,2.37,0,0,0-1.93.92,4.18,4.18,0,0,0-.74,2.68A4.76,4.76,0,0,0,90.8,270.93Z"/><path class="cls-1" d="M100.75,263.58v6.25A2.62,2.62,0,0,0,101,271a1.53,1.53,0,0,0,1.53.85,2.16,2.16,0,0,0,2.19-1.48,6,6,0,0,0,.32-2.17v-4.62h1.58V273h-1.5l0-1.39a3.18,3.18,0,0,1-.75.91,3.27,3.27,0,0,1-2.16.74,2.77,2.77,0,0,1-2.69-1.35,4,4,0,0,1-.38-1.92v-6.4Z"/><path class="cls-1" d="M109.23,263.58h1.5v1.62a3.54,3.54,0,0,1,.9-1.15,2.33,2.33,0,0,1,1.66-.68h.15l.36,0v1.67l-.26,0h-.25a2.24,2.24,0,0,0-1.84.77,2.66,2.66,0,0,0-.64,1.77V273h-1.58Z"/><path class="cls-1" d="M120.22,267.29a.84.84,0,0,0,.73-.45,1.41,1.41,0,0,0,.11-.61,1.31,1.31,0,0,0-.58-1.18,3.09,3.09,0,0,0-1.64-.36,2.09,2.09,0,0,0-1.76.67,2.12,2.12,0,0,0-.37,1.1h-1.48a2.73,2.73,0,0,1,1.13-2.43,4.65,4.65,0,0,1,2.51-.68,5.14,5.14,0,0,1,2.7.63,2.15,2.15,0,0,1,1,2v5.42a.68.68,0,0,0,.11.4q.09.15.42.15h.24l.28,0V273a5,5,0,0,1-.56.13l-.53,0a1.3,1.3,0,0,1-1.19-.58,2.12,2.12,0,0,1-.27-.87,3.86,3.86,0,0,1-1.39,1.1,4.29,4.29,0,0,1-2,.47,3,3,0,0,1-2.14-.8,2.61,2.61,0,0,1-.83-2,2.56,2.56,0,0,1,.81-2,3.9,3.9,0,0,1,2.15-.89Zm-3.33,4.28a1.87,1.87,0,0,0,1.19.39,3.69,3.69,0,0,0,1.61-.38,2.18,2.18,0,0,0,1.32-2.1v-1.27a3,3,0,0,1-.74.31,6.16,6.16,0,0,1-.9.17l-1,.12a3.88,3.88,0,0,0-1.3.36,1.41,1.41,0,0,0-.73,1.32A1.3,1.3,0,0,0,116.89,271.57Z"/><path class="cls-1" d="M125.19,263.58h1.5v1.33a4.21,4.21,0,0,1,1.41-1.18,3.82,3.82,0,0,1,1.67-.36,2.73,2.73,0,0,1,2.7,1.39,4.93,4.93,0,0,1,.39,2.19v6h-1.61v-5.93a3.2,3.2,0,0,0-.25-1.39,1.55,1.55,0,0,0-1.53-.88,3,3,0,0,0-.93.12,2.3,2.3,0,0,0-1.14.77,2.37,2.37,0,0,0-.51,1,6.44,6.44,0,0,0-.12,1.42V273h-1.58Z"/><path class="cls-1" d="M135.51,261h1.6v2.63h1.51v1.29h-1.51V271a.66.66,0,0,0,.34.66,1.32,1.32,0,0,0,.61.1h.25l.31,0V273a5.23,5.23,0,0,1-.57.12,6.4,6.4,0,0,1-.64,0,1.7,1.7,0,0,1-1.5-.57,2.51,2.51,0,0,1-.4-1.47v-6.23h-1.27v-1.29h1.27Z"/><path class="cls-1" d="M146,263.84a3.59,3.59,0,0,1,1.43,1.21,4.4,4.4,0,0,1,.63,1.67,11.12,11.12,0,0,1,.14,2.07h-6.85a4,4,0,0,0,.67,2.3A2.24,2.24,0,0,0,144,272a2.51,2.51,0,0,0,2-.82,2.91,2.91,0,0,0,.58-1.1h1.55a3.23,3.23,0,0,1-.4,1.15,4.48,4.48,0,0,1-.78,1.05,3.7,3.7,0,0,1-1.77.94,5.05,5.05,0,0,1-1.28.15,3.93,3.93,0,0,1-3-1.28,5,5,0,0,1-1.22-3.59,5.46,5.46,0,0,1,1.22-3.68,4.05,4.05,0,0,1,3.2-1.41A4.14,4.14,0,0,1,146,263.84Zm.57,3.69a4.1,4.1,0,0,0-.45-1.64,2.27,2.27,0,0,0-2.15-1.14,2.38,2.38,0,0,0-1.81.78,3,3,0,0,0-.78,2Z"/><path class="cls-1" d="M162,264.52a4.75,4.75,0,0,1,1.25,3.56,6.16,6.16,0,0,1-1.1,3.76,4,4,0,0,1-3.41,1.49A3.84,3.84,0,0,1,155.7,272a5.22,5.22,0,0,1-1.13-3.52,5.69,5.69,0,0,1,1.19-3.78,4,4,0,0,1,3.22-1.4A4.2,4.2,0,0,1,162,264.52Zm-1,6.25a6,6,0,0,0,.58-2.64,4.78,4.78,0,0,0-.42-2.15,2.35,2.35,0,0,0-2.28-1.29,2.22,2.22,0,0,0-2.08,1.1,5.13,5.13,0,0,0-.66,2.67,4.45,4.45,0,0,0,.66,2.5,2.27,2.27,0,0,0,2.07,1A2.15,2.15,0,0,0,161.05,270.77Z"/><path class="cls-1" d="M166.8,263.58v6.25A2.62,2.62,0,0,0,167,271a1.53,1.53,0,0,0,1.53.85,2.16,2.16,0,0,0,2.19-1.48,6,6,0,0,0,.32-2.17v-4.62h1.58V273h-1.5l0-1.39a3.18,3.18,0,0,1-.75.91,3.27,3.27,0,0,1-2.16.74,2.77,2.77,0,0,1-2.69-1.35,4,4,0,0,1-.38-1.92v-6.4Z"/><path class="cls-1" d="M185.28,267.29a.85.85,0,0,0,.73-.45,1.43,1.43,0,0,0,.1-.61,1.31,1.31,0,0,0-.57-1.18,3.13,3.13,0,0,0-1.65-.36,2.07,2.07,0,0,0-1.75.67,2.21,2.21,0,0,0-.38,1.1h-1.47a2.72,2.72,0,0,1,1.12-2.43,4.68,4.68,0,0,1,2.52-.68,5.13,5.13,0,0,1,2.69.63,2.14,2.14,0,0,1,1,2v5.42a.68.68,0,0,0,.1.4.49.49,0,0,0,.43.15h.24l.28,0V273a5,5,0,0,1-.57.13l-.52,0a1.3,1.3,0,0,1-1.19-.58,2.12,2.12,0,0,1-.27-.87,4,4,0,0,1-1.39,1.1,4.3,4.3,0,0,1-2,.47,3,3,0,0,1-2.14-.8,2.65,2.65,0,0,1-.83-2,2.56,2.56,0,0,1,.82-2,3.9,3.9,0,0,1,2.14-.89ZM182,271.57a1.86,1.86,0,0,0,1.18.39,3.7,3.7,0,0,0,1.62-.38,2.18,2.18,0,0,0,1.32-2.1v-1.27a3,3,0,0,1-.75.31,5.8,5.8,0,0,1-.89.17l-1,.12a3.88,3.88,0,0,0-1.29.36,1.41,1.41,0,0,0-.73,1.32A1.28,1.28,0,0,0,182,271.57Z"/><path class="cls-1" d="M190.11,263.62h1.55v1.25a3.72,3.72,0,0,1,1-1,3.34,3.34,0,0,1,1.88-.53,3.56,3.56,0,0,1,2.73,1.23,5,5,0,0,1,1.12,3.5q0,3.07-1.62,4.39a3.64,3.64,0,0,1-2.38.84,3.24,3.24,0,0,1-1.79-.47,4.24,4.24,0,0,1-.95-.9v4.8h-1.58Zm5.95,7.38a4.4,4.4,0,0,0,.74-2.77,5.15,5.15,0,0,0-.33-1.94,2.39,2.39,0,0,0-4.51.09,6.44,6.44,0,0,0-.33,2.23,4.69,4.69,0,0,0,.33,1.86,2.39,2.39,0,0,0,4.1.53Z"/><path class="cls-1" d="M207.07,264.52a4.71,4.71,0,0,1,1.25,3.56,6.1,6.1,0,0,1-1.1,3.76,4,4,0,0,1-3.41,1.49,3.81,3.81,0,0,1-3.06-1.32,5.17,5.17,0,0,1-1.14-3.52,5.64,5.64,0,0,1,1.2-3.78,4,4,0,0,1,3.21-1.4A4.2,4.2,0,0,1,207.07,264.52Zm-1,6.25a5.88,5.88,0,0,0,.58-2.64,4.78,4.78,0,0,0-.42-2.15,2.34,2.34,0,0,0-2.27-1.29,2.23,2.23,0,0,0-2.09,1.1,5.23,5.23,0,0,0-.65,2.67,4.53,4.53,0,0,0,.65,2.5,2.27,2.27,0,0,0,2.07,1A2.13,2.13,0,0,0,206.09,270.77Zm-.2-11-2.35,2.54h-1.21l1.61-2.54Z"/><path class="cls-1" d="M211.21,270a2.19,2.19,0,0,0,.4,1.21,2.57,2.57,0,0,0,2.12.77,3.1,3.1,0,0,0,1.57-.39,1.26,1.26,0,0,0,.69-1.18,1,1,0,0,0-.55-.92,6.43,6.43,0,0,0-1.37-.45l-1.28-.32a6.57,6.57,0,0,1-1.81-.66,2,2,0,0,1-1-1.78,2.69,2.69,0,0,1,1-2.16,4,4,0,0,1,2.63-.83,3.69,3.69,0,0,1,3.11,1.25,2.69,2.69,0,0,1,.57,1.71h-1.49a1.82,1.82,0,0,0-.39-1,2.51,2.51,0,0,0-1.93-.62A2.33,2.33,0,0,0,212,265a1,1,0,0,0-.47.9,1.1,1.1,0,0,0,.62,1,4,4,0,0,0,1,.38l1.07.26a8.16,8.16,0,0,1,2.33.8,2.12,2.12,0,0,1,.92,1.91,2.88,2.88,0,0,1-1,2.17,4.13,4.13,0,0,1-2.94.91,4,4,0,0,1-3-1,3.63,3.63,0,0,1-.95-2.36Z"/><path class="cls-1" d="M225.21,270a2.19,2.19,0,0,0,.4,1.21,2.57,2.57,0,0,0,2.12.77,3.16,3.16,0,0,0,1.58-.39,1.27,1.27,0,0,0,.68-1.18,1,1,0,0,0-.55-.92,6.43,6.43,0,0,0-1.37-.45l-1.28-.32a6.36,6.36,0,0,1-1.8-.66,2,2,0,0,1-1-1.78,2.69,2.69,0,0,1,1-2.16,4,4,0,0,1,2.63-.83,3.69,3.69,0,0,1,3.11,1.25,2.76,2.76,0,0,1,.58,1.71h-1.5a1.82,1.82,0,0,0-.39-1,2.51,2.51,0,0,0-1.93-.62A2.33,2.33,0,0,0,226,265a1,1,0,0,0-.47.9,1.1,1.1,0,0,0,.62,1,3.94,3.94,0,0,0,1.06.38l1.06.26a8.16,8.16,0,0,1,2.33.8,2.12,2.12,0,0,1,.92,1.91,2.91,2.91,0,0,1-1,2.17,4.16,4.16,0,0,1-2.94.91,4,4,0,0,1-3-1,3.57,3.57,0,0,1-.94-2.36Z"/><path class="cls-1" d="M234.85,263.58v6.25a2.63,2.63,0,0,0,.22,1.17,1.53,1.53,0,0,0,1.53.85,2.16,2.16,0,0,0,2.19-1.48,6,6,0,0,0,.32-2.17v-4.62h1.58V273H239.2l0-1.39a3.38,3.38,0,0,1-.76.91,3.26,3.26,0,0,1-2.15.74,2.76,2.76,0,0,1-2.69-1.35,4,4,0,0,1-.39-1.92v-6.4Z"/><path class="cls-1" d="M248.32,267.29a.84.84,0,0,0,.73-.45,1.41,1.41,0,0,0,.11-.61,1.31,1.31,0,0,0-.58-1.18,3.09,3.09,0,0,0-1.64-.36,2.09,2.09,0,0,0-1.76.67,2.12,2.12,0,0,0-.37,1.1h-1.48a2.73,2.73,0,0,1,1.13-2.43,4.65,4.65,0,0,1,2.51-.68,5.14,5.14,0,0,1,2.7.63,2.15,2.15,0,0,1,1,2v5.42a.68.68,0,0,0,.11.4q.09.15.42.15h.24l.28,0V273a5,5,0,0,1-.56.13l-.53,0a1.31,1.31,0,0,1-1.19-.58,2.12,2.12,0,0,1-.27-.87,3.86,3.86,0,0,1-1.39,1.1,4.29,4.29,0,0,1-2,.47,3,3,0,0,1-2.14-.8,2.61,2.61,0,0,1-.83-2,2.56,2.56,0,0,1,.81-2,3.9,3.9,0,0,1,2.15-.89ZM245,271.57a1.87,1.87,0,0,0,1.19.39,3.69,3.69,0,0,0,1.61-.38,2.18,2.18,0,0,0,1.32-2.1v-1.27a3,3,0,0,1-.74.31,6.16,6.16,0,0,1-.9.17l-.95.12a3.88,3.88,0,0,0-1.3.36,1.41,1.41,0,0,0-.73,1.32A1.3,1.3,0,0,0,245,271.57Z"/><path class="cls-1" d="M94.21,288.29a.82.82,0,0,0,.72-.45,1.41,1.41,0,0,0,.11-.61,1.31,1.31,0,0,0-.57-1.18,3.16,3.16,0,0,0-1.65-.36,2.07,2.07,0,0,0-1.75.67,2.12,2.12,0,0,0-.38,1.1H89.21A2.75,2.75,0,0,1,90.34,285a4.66,4.66,0,0,1,2.52-.68,5.13,5.13,0,0,1,2.69.63,2.14,2.14,0,0,1,1,2v5.42a.68.68,0,0,0,.1.4.49.49,0,0,0,.43.15h.23l.28,0V294a4.52,4.52,0,0,1-.56.13l-.53,0a1.28,1.28,0,0,1-1.18-.58,2.12,2.12,0,0,1-.27-.87,4,4,0,0,1-1.39,1.1,4.33,4.33,0,0,1-2,.47,3,3,0,0,1-2.14-.8,2.65,2.65,0,0,1-.83-2,2.53,2.53,0,0,1,.82-2,3.87,3.87,0,0,1,2.14-.89Zm-3.34,4.28a1.89,1.89,0,0,0,1.19.39,3.7,3.7,0,0,0,1.62-.38,2.18,2.18,0,0,0,1.32-2.1v-1.27a3.32,3.32,0,0,1-.75.31,5.8,5.8,0,0,1-.89.17l-1,.12a3.88,3.88,0,0,0-1.29.36,1.42,1.42,0,0,0-.74,1.32A1.3,1.3,0,0,0,90.87,292.57Z"/><path class="cls-1" d="M99.49,282h1.6v2.63h1.5v1.29h-1.5V292a.67.67,0,0,0,.33.66,1.34,1.34,0,0,0,.62.1h.24l.31,0V294a4.78,4.78,0,0,1-.57.12,6.19,6.19,0,0,1-.63,0,1.73,1.73,0,0,1-1.51-.57,2.51,2.51,0,0,1-.39-1.47v-6.23H98.21v-1.29h1.28Z"/><path class="cls-1" d="M104.17,281.08h1.61v1.79h-1.61Zm0,3.54h1.61V294h-1.61Z"/><path class="cls-1" d="M109,284.58l2.51,7.66,2.62-7.66h1.73L112.27,294h-1.69l-3.47-9.41Z"/><path class="cls-1" d="M117.17,281.08h1.61v1.79h-1.61Zm0,3.54h1.61V294h-1.61Z"/><path class="cls-1" d="M126.34,284.87a4.17,4.17,0,0,1,1,.92V281h1.52V294h-1.43v-1.31a3.46,3.46,0,0,1-1.3,1.26,3.71,3.71,0,0,1-1.73.39,3.49,3.49,0,0,1-2.71-1.33,5.15,5.15,0,0,1-1.15-3.52,6.06,6.06,0,0,1,1-3.56,3.41,3.41,0,0,1,3-1.51A3.25,3.25,0,0,1,126.34,284.87Zm-3.53,7.06a2.24,2.24,0,0,0,2,1,2.16,2.16,0,0,0,1.79-.95,4.46,4.46,0,0,0,.71-2.71,4,4,0,0,0-.73-2.64,2.26,2.26,0,0,0-1.79-.86,2.37,2.37,0,0,0-1.93.92,4.18,4.18,0,0,0-.74,2.68A4.67,4.67,0,0,0,122.81,291.93Z"/><path class="cls-1" d="M136.23,288.29a.85.85,0,0,0,.73-.45,1.43,1.43,0,0,0,.1-.61,1.31,1.31,0,0,0-.57-1.18,3.16,3.16,0,0,0-1.65-.36,2.07,2.07,0,0,0-1.75.67,2.12,2.12,0,0,0-.38,1.1h-1.48a2.75,2.75,0,0,1,1.13-2.43,4.66,4.66,0,0,1,2.52-.68,5.13,5.13,0,0,1,2.69.63,2.14,2.14,0,0,1,1,2v5.42a.68.68,0,0,0,.1.4.49.49,0,0,0,.43.15h.23l.28,0V294a4.52,4.52,0,0,1-.56.13l-.53,0a1.28,1.28,0,0,1-1.18-.58,2.12,2.12,0,0,1-.27-.87,4,4,0,0,1-1.39,1.1,4.33,4.33,0,0,1-2,.47,3,3,0,0,1-2.14-.8,2.65,2.65,0,0,1-.83-2,2.53,2.53,0,0,1,.82-2,3.87,3.87,0,0,1,2.14-.89Zm-3.34,4.28a1.89,1.89,0,0,0,1.19.39,3.7,3.7,0,0,0,1.62-.38,2.18,2.18,0,0,0,1.32-2.1v-1.27a3.14,3.14,0,0,1-.75.31,5.8,5.8,0,0,1-.89.17l-1,.12a3.88,3.88,0,0,0-1.29.36,1.42,1.42,0,0,0-.74,1.32A1.3,1.3,0,0,0,132.89,292.57Z"/><path class="cls-1" d="M146.36,284.87a4.17,4.17,0,0,1,1,.92V281h1.52V294h-1.43v-1.31a3.39,3.39,0,0,1-1.3,1.26,3.71,3.71,0,0,1-1.73.39,3.51,3.51,0,0,1-2.71-1.33,5.2,5.2,0,0,1-1.15-3.52,6.06,6.06,0,0,1,1-3.56,3.41,3.41,0,0,1,3-1.51A3.25,3.25,0,0,1,146.36,284.87Zm-3.53,7.06a2.24,2.24,0,0,0,2,1,2.13,2.13,0,0,0,1.79-.95,4.46,4.46,0,0,0,.71-2.71,4,4,0,0,0-.73-2.64,2.26,2.26,0,0,0-1.79-.86,2.37,2.37,0,0,0-1.93.92,4.18,4.18,0,0,0-.74,2.68A4.76,4.76,0,0,0,142.83,291.93Z"/><path class="cls-1" d="M157,284.84a3.62,3.62,0,0,1,1.42,1.21,4.4,4.4,0,0,1,.63,1.67,11.12,11.12,0,0,1,.14,2.07h-6.85a4.1,4.1,0,0,0,.67,2.3A2.25,2.25,0,0,0,155,293a2.49,2.49,0,0,0,2-.82,2.77,2.77,0,0,0,.58-1.1h1.56a3.27,3.27,0,0,1-.41,1.15,4,4,0,0,1-.78,1.05,3.61,3.61,0,0,1-1.77.94,4.94,4.94,0,0,1-1.28.15,3.94,3.94,0,0,1-3-1.28,5,5,0,0,1-1.21-3.59,5.41,5.41,0,0,1,1.22-3.68,4,4,0,0,1,3.2-1.41A4.19,4.19,0,0,1,157,284.84Zm.56,3.69a4.11,4.11,0,0,0-.44-1.64,2.28,2.28,0,0,0-2.15-1.14,2.41,2.41,0,0,0-1.82.78,3,3,0,0,0-.77,2Z"/><path class="cls-1" d="M89.58,315h5.87a5.71,5.71,0,0,1,2.39.43,3.06,3.06,0,0,1,1.79,3.05,3.43,3.43,0,0,1-.48,1.9,3.53,3.53,0,0,1-1.34,1.19,2.68,2.68,0,0,1,1.14.8,3,3,0,0,1,.42,1.63l.06,1.73a5.05,5.05,0,0,0,.13,1.1,1.07,1.07,0,0,0,.56.79v.29H98a1.64,1.64,0,0,1-.15-.43,9,9,0,0,1-.08-1l-.11-2.15a1.82,1.82,0,0,0-.91-1.7,3.68,3.68,0,0,0-1.53-.24H91.33v5.54H89.58ZM95.26,321a3.24,3.24,0,0,0,1.9-.5,2,2,0,0,0,.69-1.77,1.91,1.91,0,0,0-1-1.88,3,3,0,0,0-1.39-.27H91.33V321Z"/><path class="cls-1" d="M108,318.79A3.53,3.53,0,0,1,109.4,320a4.29,4.29,0,0,1,.63,1.66,11.12,11.12,0,0,1,.14,2.07h-6.85a4.08,4.08,0,0,0,.67,2.31,2.27,2.27,0,0,0,2,.86,2.5,2.5,0,0,0,2-.82,2.91,2.91,0,0,0,.58-1.1H110a3.23,3.23,0,0,1-.4,1.15,4.22,4.22,0,0,1-.78,1.05,3.81,3.81,0,0,1-1.77.95,5.58,5.58,0,0,1-1.28.14,3.93,3.93,0,0,1-3-1.28,5,5,0,0,1-1.22-3.58,5.43,5.43,0,0,1,1.23-3.69,4,4,0,0,1,3.19-1.41A4.14,4.14,0,0,1,108,318.79Zm.57,3.69a4.11,4.11,0,0,0-.44-1.64,2.28,2.28,0,0,0-2.16-1.14,2.38,2.38,0,0,0-1.81.78,3,3,0,0,0-.78,2Z"/><path class="cls-1" d="M117.21,322.25a.85.85,0,0,0,.73-.46,1.41,1.41,0,0,0,.11-.61,1.31,1.31,0,0,0-.57-1.18,3.16,3.16,0,0,0-1.65-.36,2.07,2.07,0,0,0-1.75.67,2.15,2.15,0,0,0-.38,1.1h-1.48a2.75,2.75,0,0,1,1.13-2.43,4.66,4.66,0,0,1,2.52-.68,5.13,5.13,0,0,1,2.69.63,2.14,2.14,0,0,1,1,2v5.43a.67.67,0,0,0,.1.39.49.49,0,0,0,.43.15h.23l.28,0V328a4.52,4.52,0,0,1-.56.13,3.87,3.87,0,0,1-.53,0,1.28,1.28,0,0,1-1.18-.58,2.28,2.28,0,0,1-.28-.87,3.9,3.9,0,0,1-1.38,1.1,4.33,4.33,0,0,1-2,.47,3,3,0,0,1-2.14-.8,2.64,2.64,0,0,1-.83-2,2.54,2.54,0,0,1,.82-2,3.87,3.87,0,0,1,2.14-.89Zm-3.33,4.27a1.89,1.89,0,0,0,1.19.39,3.7,3.7,0,0,0,1.62-.38,2.18,2.18,0,0,0,1.32-2.1v-1.27a3.32,3.32,0,0,1-.75.31,5.8,5.8,0,0,1-.89.17l-1,.13a3.68,3.68,0,0,0-1.29.35,1.42,1.42,0,0,0-.74,1.32A1.3,1.3,0,0,0,113.88,326.52Z"/><path class="cls-1" d="M122.22,315h1.59v12.91h-1.59Z"/><path class="cls-1" d="M126.18,315h1.61v1.79h-1.61Zm0,3.54h1.61v9.37h-1.61Z"/><path class="cls-1" d="M129.48,326.69l5.59-6.75h-5.18v-1.41h7.3v1.29l-5.55,6.71h5.72v1.41h-7.88Z"/><path class="cls-1" d="M145,318.79a3.53,3.53,0,0,1,1.43,1.22,4.29,4.29,0,0,1,.63,1.66,11.12,11.12,0,0,1,.14,2.07h-6.85a4.08,4.08,0,0,0,.67,2.31,2.27,2.27,0,0,0,2,.86,2.5,2.5,0,0,0,2-.82,2.91,2.91,0,0,0,.58-1.1h1.55a3.23,3.23,0,0,1-.4,1.15,4.22,4.22,0,0,1-.78,1.05,3.81,3.81,0,0,1-1.77.95,5.58,5.58,0,0,1-1.28.14,3.93,3.93,0,0,1-3-1.28,5,5,0,0,1-1.22-3.58,5.43,5.43,0,0,1,1.23-3.69,4,4,0,0,1,3.19-1.41A4.14,4.14,0,0,1,145,318.79Zm.57,3.69a4.11,4.11,0,0,0-.44-1.64A2.29,2.29,0,0,0,143,319.7a2.38,2.38,0,0,0-1.81.78,3,3,0,0,0-.78,2Z"/><path class="cls-1" d="M154.06,318.57h1.55v1.25a3.59,3.59,0,0,1,1-1,3.34,3.34,0,0,1,1.88-.53,3.53,3.53,0,0,1,2.72,1.23,5,5,0,0,1,1.12,3.5q0,3.08-1.61,4.39a3.64,3.64,0,0,1-2.38.84,3.28,3.28,0,0,1-1.8-.47,4.23,4.23,0,0,1-.94-.9v4.8h-1.58ZM160,326a4.4,4.4,0,0,0,.74-2.77,5.15,5.15,0,0,0-.33-1.94,2.39,2.39,0,0,0-4.51.09,6.44,6.44,0,0,0-.33,2.23,4.69,4.69,0,0,0,.33,1.86,2.39,2.39,0,0,0,4.1.53Z"/><path class="cls-1" d="M170,318.79a3.56,3.56,0,0,1,1.42,1.22,4.29,4.29,0,0,1,.63,1.66,11.12,11.12,0,0,1,.14,2.07h-6.85a4.08,4.08,0,0,0,.67,2.31,2.27,2.27,0,0,0,1.95.86,2.49,2.49,0,0,0,2-.82,2.77,2.77,0,0,0,.58-1.1h1.56a3.27,3.27,0,0,1-.41,1.15,4,4,0,0,1-.78,1.05,3.71,3.71,0,0,1-1.77.95,5.51,5.51,0,0,1-1.28.14,3.94,3.94,0,0,1-3-1.28,5,5,0,0,1-1.21-3.58,5.42,5.42,0,0,1,1.22-3.69,4,4,0,0,1,3.19-1.41A4.2,4.2,0,0,1,170,318.79Zm.56,3.69a4.11,4.11,0,0,0-.44-1.64A2.28,2.28,0,0,0,168,319.7a2.38,2.38,0,0,0-1.81.78,3,3,0,0,0-.77,2Z"/><path class="cls-1" d="M175.15,325a2.19,2.19,0,0,0,.41,1.21,2.55,2.55,0,0,0,2.11.77,3.11,3.11,0,0,0,1.58-.39,1.24,1.24,0,0,0,.68-1.18,1,1,0,0,0-.54-.92A6.37,6.37,0,0,0,178,324l-1.27-.32a6.26,6.26,0,0,1-1.81-.66,2,2,0,0,1-1-1.78,2.69,2.69,0,0,1,1-2.16,3.94,3.94,0,0,1,2.62-.83,3.66,3.66,0,0,1,3.11,1.25,2.7,2.7,0,0,1,.58,1.71h-1.49a1.76,1.76,0,0,0-.39-1,2.49,2.49,0,0,0-1.93-.62A2.32,2.32,0,0,0,176,320a1,1,0,0,0-.48.9,1.12,1.12,0,0,0,.62,1,4,4,0,0,0,1.06.39l1.07.25a8.49,8.49,0,0,1,2.33.8,2.12,2.12,0,0,1,.92,1.91,2.87,2.87,0,0,1-1,2.17,4.13,4.13,0,0,1-2.94.91,4,4,0,0,1-3-.95,3.58,3.58,0,0,1-1-2.36Z"/><path class="cls-1" d="M188.52,318.91a3.52,3.52,0,0,1,.84.93v-1.31h1.5v13.16h-1.58v-4.83a2.9,2.9,0,0,1-1.1,1,3.62,3.62,0,0,1-1.74.37,3.71,3.71,0,0,1-2.69-1.18,4.84,4.84,0,0,1-1.18-3.58,5.91,5.91,0,0,1,1.11-3.71,3.46,3.46,0,0,1,2.88-1.45A3.17,3.17,0,0,1,188.52,318.91Zm-4,6.5a2.18,2.18,0,0,0,2.17,1.47,2.26,2.26,0,0,0,2.27-1.55,5.85,5.85,0,0,0,.35-2.18,4.92,4.92,0,0,0-.38-2,2.28,2.28,0,0,0-2.26-1.39,2.17,2.17,0,0,0-1.75.89,4.26,4.26,0,0,0-.74,2.75A5.52,5.52,0,0,0,184.56,325.41Z"/><path class="cls-1" d="M194.8,318.53v6.25A2.69,2.69,0,0,0,195,326a1.54,1.54,0,0,0,1.53.84,2.16,2.16,0,0,0,2.19-1.48,6,6,0,0,0,.32-2.17v-4.62h1.58v9.41h-1.49v-1.39a3.18,3.18,0,0,1-.75.91,3.26,3.26,0,0,1-2.15.74,2.75,2.75,0,0,1-2.69-1.35,4,4,0,0,1-.39-1.92v-6.4Z"/><path class="cls-1" d="M203.23,315h1.61v1.79h-1.61Zm0,3.54h1.61v9.37h-1.61Z"/><path class="cls-1" d="M208.17,325a2.28,2.28,0,0,0,.41,1.21,2.55,2.55,0,0,0,2.11.77,3.11,3.11,0,0,0,1.58-.39,1.24,1.24,0,0,0,.68-1.18,1,1,0,0,0-.54-.92A6.37,6.37,0,0,0,211,324l-1.27-.32a6.26,6.26,0,0,1-1.81-.66,2,2,0,0,1-1-1.78,2.69,2.69,0,0,1,1-2.16,3.94,3.94,0,0,1,2.62-.83,3.66,3.66,0,0,1,3.11,1.25,2.7,2.7,0,0,1,.58,1.71h-1.49a1.76,1.76,0,0,0-.39-1,2.49,2.49,0,0,0-1.93-.62A2.34,2.34,0,0,0,209,320a1,1,0,0,0-.48.9,1.11,1.11,0,0,0,.63,1,3.81,3.81,0,0,0,1,.39l1.07.25a8.49,8.49,0,0,1,2.33.8,2.12,2.12,0,0,1,.92,1.91,2.87,2.87,0,0,1-1,2.17,4.13,4.13,0,0,1-2.94.91,4,4,0,0,1-3-.95,3.58,3.58,0,0,1-.95-2.36Z"/><path class="cls-1" d="M221.28,322.25a.88.88,0,0,0,.73-.46,1.43,1.43,0,0,0,.1-.61,1.31,1.31,0,0,0-.57-1.18,3.13,3.13,0,0,0-1.65-.36,2.07,2.07,0,0,0-1.75.67,2.25,2.25,0,0,0-.38,1.1h-1.47a2.72,2.72,0,0,1,1.12-2.43,4.68,4.68,0,0,1,2.52-.68,5.13,5.13,0,0,1,2.69.63,2.14,2.14,0,0,1,1,2v5.43a.67.67,0,0,0,.1.39.49.49,0,0,0,.43.15h.24l.28,0V328a5,5,0,0,1-.57.13,3.79,3.79,0,0,1-.52,0,1.3,1.3,0,0,1-1.19-.58,2.12,2.12,0,0,1-.27-.87,4,4,0,0,1-1.39,1.1,4.3,4.3,0,0,1-2,.47,3,3,0,0,1-2.14-.8,2.64,2.64,0,0,1-.83-2,2.57,2.57,0,0,1,.82-2,3.9,3.9,0,0,1,2.14-.89ZM218,326.52a1.86,1.86,0,0,0,1.18.39,3.7,3.7,0,0,0,1.62-.38,2.18,2.18,0,0,0,1.32-2.1v-1.27a3,3,0,0,1-.75.31,5.8,5.8,0,0,1-.89.17l-1,.13a3.68,3.68,0,0,0-1.29.35,1.41,1.41,0,0,0-.73,1.32A1.28,1.28,0,0,0,218,326.52Z"/><path class="cls-1" d="M227.18,325a2.28,2.28,0,0,0,.41,1.21,2.55,2.55,0,0,0,2.11.77,3.11,3.11,0,0,0,1.58-.39,1.24,1.24,0,0,0,.68-1.18,1,1,0,0,0-.54-.92A6.37,6.37,0,0,0,230,324l-1.27-.32a6.26,6.26,0,0,1-1.81-.66,2,2,0,0,1-1-1.78,2.69,2.69,0,0,1,1-2.16,4,4,0,0,1,2.63-.83,3.66,3.66,0,0,1,3.1,1.25,2.7,2.7,0,0,1,.58,1.71h-1.49a1.76,1.76,0,0,0-.39-1,2.47,2.47,0,0,0-1.93-.62A2.34,2.34,0,0,0,228,320a1,1,0,0,0-.47.9,1.1,1.1,0,0,0,.62,1,3.81,3.81,0,0,0,1.05.39l1.07.25a8.49,8.49,0,0,1,2.33.8,2.12,2.12,0,0,1,.92,1.91,2.87,2.87,0,0,1-1,2.17,4.13,4.13,0,0,1-2.94.91,4,4,0,0,1-3-.95,3.58,3.58,0,0,1-1-2.36Z"/><path class="cls-1" d="M95,339.79A3.53,3.53,0,0,1,96.4,341a4.29,4.29,0,0,1,.63,1.66,11.12,11.12,0,0,1,.14,2.07H90.32a4.08,4.08,0,0,0,.67,2.31,2.27,2.27,0,0,0,2,.86,2.49,2.49,0,0,0,2-.82,2.77,2.77,0,0,0,.58-1.1H97a3.49,3.49,0,0,1-.41,1.15,4.22,4.22,0,0,1-.78,1.05,3.71,3.71,0,0,1-1.77.95,5.51,5.51,0,0,1-1.28.14,3.93,3.93,0,0,1-3-1.28,5,5,0,0,1-1.22-3.58,5.43,5.43,0,0,1,1.23-3.69A4,4,0,0,1,93,339.32,4.14,4.14,0,0,1,95,339.79Zm.57,3.69a4.11,4.11,0,0,0-.44-1.64,2.28,2.28,0,0,0-2.16-1.14,2.38,2.38,0,0,0-1.81.78,3,3,0,0,0-.77,2Z"/><path class="cls-1" d="M105,339.53l2.51,7.66,2.62-7.66h1.73l-3.54,9.41h-1.69l-3.47-9.41Z"/><path class="cls-1" d="M120,340.47a4.75,4.75,0,0,1,1.25,3.56,6.16,6.16,0,0,1-1.1,3.76,4,4,0,0,1-3.41,1.49,3.81,3.81,0,0,1-3.06-1.32,5.17,5.17,0,0,1-1.14-3.52,5.64,5.64,0,0,1,1.2-3.78,4,4,0,0,1,3.21-1.4A4.2,4.2,0,0,1,120,340.47Zm-1,6.25a5.88,5.88,0,0,0,.58-2.64,4.71,4.71,0,0,0-.42-2.14,2.34,2.34,0,0,0-2.28-1.3,2.22,2.22,0,0,0-2.08,1.1,5.13,5.13,0,0,0-.65,2.67,4.43,4.43,0,0,0,.65,2.5,2.27,2.27,0,0,0,2.07,1A2.15,2.15,0,0,0,119,346.72Z"/><path class="cls-1" d="M123.5,336.9h1.6v2.63h1.5v1.29h-1.5V347a.67.67,0,0,0,.33.66,1.37,1.37,0,0,0,.62.1h.24l.31,0v1.25a4.78,4.78,0,0,1-.57.12,6.05,6.05,0,0,1-.63,0,1.73,1.73,0,0,1-1.51-.57,2.51,2.51,0,0,1-.39-1.47v-6.23h-1.28v-1.29h1.28Z"/><path class="cls-1" d="M133.23,343.25a.88.88,0,0,0,.73-.46,1.43,1.43,0,0,0,.1-.61,1.31,1.31,0,0,0-.57-1.18,3.11,3.11,0,0,0-1.65-.36,2.07,2.07,0,0,0-1.75.67,2.25,2.25,0,0,0-.38,1.1h-1.47a2.75,2.75,0,0,1,1.12-2.43,4.71,4.71,0,0,1,2.52-.68,5.1,5.1,0,0,1,2.69.63,2.14,2.14,0,0,1,1,2v5.43a.67.67,0,0,0,.1.39.49.49,0,0,0,.43.15h.24l.28,0V349a5,5,0,0,1-.57.13,3.72,3.72,0,0,1-.52,0,1.3,1.3,0,0,1-1.19-.58,2.12,2.12,0,0,1-.27-.87,4,4,0,0,1-1.39,1.1,4.3,4.3,0,0,1-2,.47,3,3,0,0,1-2.14-.8,2.64,2.64,0,0,1-.83-2,2.57,2.57,0,0,1,.82-2,3.9,3.9,0,0,1,2.15-.89Zm-3.33,4.27a1.86,1.86,0,0,0,1.18.39,3.7,3.7,0,0,0,1.62-.38,2.18,2.18,0,0,0,1.32-2.1v-1.27a3,3,0,0,1-.75.31,5.8,5.8,0,0,1-.89.17l-1,.13a3.68,3.68,0,0,0-1.29.35,1.41,1.41,0,0,0-.73,1.32A1.28,1.28,0,0,0,129.9,347.52Z"/><path class="cls-1" d="M144.41,340a3.67,3.67,0,0,1,1.2,2.66h-1.54a2.73,2.73,0,0,0-.64-1.44,2,2,0,0,0-1.61-.58,2.23,2.23,0,0,0-2.16,1.48,5.83,5.83,0,0,0-.42,2.36,4.45,4.45,0,0,0,.6,2.38,2.32,2.32,0,0,0,3.44.36,3.24,3.24,0,0,0,.79-1.64h1.54a4.08,4.08,0,0,1-1.32,2.74,3.7,3.7,0,0,1-2.44.86l-.62.86a2,2,0,0,1,.65-.08,1.48,1.48,0,0,1,1,.35,1.29,1.29,0,0,1,.4,1,1.49,1.49,0,0,1-.53,1.15,2.33,2.33,0,0,1-1.61.48,3.7,3.7,0,0,1-1-.13l-.76-.24.31-.72c.23.09.4.14.52.18a2.86,2.86,0,0,0,.66.1,1.6,1.6,0,0,0,.56-.1.67.67,0,0,0,.46-.67.65.65,0,0,0-.23-.49,1,1,0,0,0-.63-.2,1.72,1.72,0,0,0-.34,0,2.61,2.61,0,0,0-.37.12l-.31-.36.95-1.3a2.88,2.88,0,0,1-2.18-1,5.37,5.37,0,0,1-1.27-3.72,5.62,5.62,0,0,1,1.21-3.85,3.88,3.88,0,0,1,3.06-1.38A4.07,4.07,0,0,1,144.41,340Z"/><path class="cls-1" d="M154,340.47a4.71,4.71,0,0,1,1.25,3.56,6.1,6.1,0,0,1-1.1,3.76,4,4,0,0,1-3.41,1.49,3.81,3.81,0,0,1-3.06-1.32,5.17,5.17,0,0,1-1.14-3.52,5.64,5.64,0,0,1,1.2-3.78,4,4,0,0,1,3.21-1.4A4.2,4.2,0,0,1,154,340.47Zm-2.49-3.86a3.67,3.67,0,0,0,.45.17,1.4,1.4,0,0,0,.41.06.77.77,0,0,0,.7-.31,1.13,1.13,0,0,0,.16-.5h.92a2.47,2.47,0,0,1-.7,1.54,1.79,1.79,0,0,1-1.15.42,2,2,0,0,1-.49-.07,4.24,4.24,0,0,1-.53-.16l-.47-.16-.67-.23a1.77,1.77,0,0,0-.5-.07.66.66,0,0,0-.51.2,1.15,1.15,0,0,0-.27.61H148a3.19,3.19,0,0,1,.38-1.13,1.64,1.64,0,0,1,1.49-.81,2.87,2.87,0,0,1,.66.09A7.63,7.63,0,0,1,151.52,336.61ZM153,346.72a5.88,5.88,0,0,0,.58-2.64,4.71,4.71,0,0,0-.42-2.14,2.33,2.33,0,0,0-2.27-1.3,2.23,2.23,0,0,0-2.09,1.1,5.23,5.23,0,0,0-.65,2.67,4.51,4.51,0,0,0,.65,2.5,2.27,2.27,0,0,0,2.07,1A2.13,2.13,0,0,0,153,346.72Z"/><path class="cls-1" d="M163,339.79a3.5,3.5,0,0,1,1.42,1.22,4,4,0,0,1,.63,1.66,10.3,10.3,0,0,1,.14,2.07h-6.84a4,4,0,0,0,.67,2.31,2.25,2.25,0,0,0,1.94.86,2.47,2.47,0,0,0,2-.82,2.65,2.65,0,0,0,.58-1.1h1.56a3.27,3.27,0,0,1-.41,1.15,4.2,4.2,0,0,1-.77,1.05,3.81,3.81,0,0,1-1.77.95,5.6,5.6,0,0,1-1.29.14,3.94,3.94,0,0,1-3-1.28,5,5,0,0,1-1.21-3.58,5.47,5.47,0,0,1,1.22-3.69,4,4,0,0,1,3.2-1.41A4.16,4.16,0,0,1,163,339.79Zm.57,3.69a4.27,4.27,0,0,0-.45-1.64A2.28,2.28,0,0,0,161,340.7a2.37,2.37,0,0,0-1.81.78,3,3,0,0,0-.78,2Z"/><path class="cls-1" d="M168.16,346a2.19,2.19,0,0,0,.4,1.21,2.57,2.57,0,0,0,2.12.77,3.16,3.16,0,0,0,1.58-.39,1.26,1.26,0,0,0,.68-1.18,1,1,0,0,0-.55-.92A6.43,6.43,0,0,0,171,345l-1.28-.32a6.07,6.07,0,0,1-1.8-.66,2,2,0,0,1-1-1.78,2.67,2.67,0,0,1,1-2.16,3.9,3.9,0,0,1,2.62-.83,3.69,3.69,0,0,1,3.11,1.25,2.76,2.76,0,0,1,.58,1.71h-1.5a1.76,1.76,0,0,0-.39-1,2.47,2.47,0,0,0-1.93-.62A2.34,2.34,0,0,0,169,341a1.06,1.06,0,0,0-.47.9,1.1,1.1,0,0,0,.62,1,3.9,3.9,0,0,0,1.06.39l1.06.25a8.49,8.49,0,0,1,2.33.8,2.12,2.12,0,0,1,.92,1.91,2.89,2.89,0,0,1-1,2.17,4.16,4.16,0,0,1-2.94.91,4,4,0,0,1-3-.95,3.57,3.57,0,0,1-.94-2.36Z"/><path class="cls-1" d="M186.39,339.82a4,4,0,0,1,1,.92V336h1.52v12.95h-1.42v-1.31a3.41,3.41,0,0,1-1.31,1.26,3.66,3.66,0,0,1-1.72.39A3.49,3.49,0,0,1,181.7,348a5.15,5.15,0,0,1-1.15-3.52,6.12,6.12,0,0,1,1-3.56,3.42,3.42,0,0,1,3-1.51A3.31,3.31,0,0,1,186.39,339.82Zm-3.53,7.06a2.22,2.22,0,0,0,2,1,2.16,2.16,0,0,0,1.8-.95,4.47,4.47,0,0,0,.7-2.71,4,4,0,0,0-.72-2.64,2.27,2.27,0,0,0-1.79-.86,2.36,2.36,0,0,0-1.93.92,4.15,4.15,0,0,0-.74,2.69A4.66,4.66,0,0,0,182.86,346.88Z"/><path class="cls-1" d="M191.23,336h1.61v1.79h-1.61Zm0,3.54h1.61v9.37h-1.61Z"/><path class="cls-1" d="M200.46,339.91a4.19,4.19,0,0,1,.91.89v-1.18h1.46v8.56a6.34,6.34,0,0,1-.53,2.83,3.77,3.77,0,0,1-3.7,1.91,4.49,4.49,0,0,1-2.55-.68,2.64,2.64,0,0,1-1.16-2.13h1.61a1.84,1.84,0,0,0,.46,1,2.87,2.87,0,0,0,4-.76,7.2,7.2,0,0,0,.31-2.7,3.13,3.13,0,0,1-1.14,1.07,3.69,3.69,0,0,1-1.76.36,3.76,3.76,0,0,1-2.66-1.09,4.75,4.75,0,0,1-1.15-3.59,5.47,5.47,0,0,1,1.15-3.69,3.55,3.55,0,0,1,2.78-1.33A3.36,3.36,0,0,1,200.46,339.91Zm.19,1.69a2.42,2.42,0,0,0-4.1.72,6.34,6.34,0,0,0-.32,2.19,3.88,3.88,0,0,0,.64,2.42,2.07,2.07,0,0,0,1.73.83,2.44,2.44,0,0,0,2.39-1.53,5.1,5.1,0,0,0,.38-2A4,4,0,0,0,200.65,341.6Z"/><path class="cls-1" d="M205.24,336h1.61v1.79h-1.61Zm0,3.54h1.61v9.37h-1.61Z"/><path class="cls-1" d="M209.55,336.9h1.6v2.63h1.51v1.29h-1.51V347a.66.66,0,0,0,.34.66,1.29,1.29,0,0,0,.61.1h.25l.31,0v1.25l-.57.12a6.4,6.4,0,0,1-.64,0,1.7,1.7,0,0,1-1.5-.57,2.44,2.44,0,0,1-.4-1.47v-6.23h-1.27v-1.29h1.27Z"/><path class="cls-1" d="M219.28,343.25a.85.85,0,0,0,.73-.46,1.41,1.41,0,0,0,.11-.61,1.29,1.29,0,0,0-.58-1.18,3.09,3.09,0,0,0-1.64-.36,2.09,2.09,0,0,0-1.76.67,2.25,2.25,0,0,0-.37,1.1h-1.48a2.75,2.75,0,0,1,1.13-2.43,4.65,4.65,0,0,1,2.51-.68,5.14,5.14,0,0,1,2.7.63,2.16,2.16,0,0,1,1,2v5.43a.67.67,0,0,0,.1.39c.06.1.21.15.42.15h.24l.28,0V349a4.52,4.52,0,0,1-.56.13,4,4,0,0,1-.53,0,1.31,1.31,0,0,1-1.19-.58,2.48,2.48,0,0,1-.27-.87,3.86,3.86,0,0,1-1.39,1.1,4.26,4.26,0,0,1-2,.47,3,3,0,0,1-2.14-.8,2.64,2.64,0,0,1-.83-2,2.54,2.54,0,0,1,.82-2,3.87,3.87,0,0,1,2.14-.89ZM216,347.52a1.89,1.89,0,0,0,1.19.39,3.69,3.69,0,0,0,1.61-.38,2.18,2.18,0,0,0,1.32-2.1v-1.27a3,3,0,0,1-.74.31,5.92,5.92,0,0,1-.9.17l-1,.13a3.68,3.68,0,0,0-1.3.35,1.41,1.41,0,0,0-.73,1.32A1.3,1.3,0,0,0,216,347.52Z"/><path class="cls-1" d="M224.25,336h1.61v1.79h-1.61Zm0,3.54h1.61v9.37h-1.61Z"/><path class="cls-1" d="M229.19,346a2.28,2.28,0,0,0,.4,1.21,2.57,2.57,0,0,0,2.12.77,3.14,3.14,0,0,0,1.58-.39,1.26,1.26,0,0,0,.68-1.18,1,1,0,0,0-.55-.92,6.43,6.43,0,0,0-1.37-.45l-1.28-.32a6.18,6.18,0,0,1-1.8-.66,2,2,0,0,1-1-1.78,2.7,2.7,0,0,1,1-2.16,3.92,3.92,0,0,1,2.62-.83,3.68,3.68,0,0,1,3.11,1.25,2.7,2.7,0,0,1,.58,1.71h-1.5a1.82,1.82,0,0,0-.38-1,2.51,2.51,0,0,0-1.94-.62A2.36,2.36,0,0,0,230,341a1.06,1.06,0,0,0-.47.9,1.12,1.12,0,0,0,.62,1,3.9,3.9,0,0,0,1.06.39l1.06.25a8.36,8.36,0,0,1,2.33.8,2.1,2.1,0,0,1,.92,1.91,2.89,2.89,0,0,1-1,2.17,4.16,4.16,0,0,1-2.94.91,4,4,0,0,1-3-.95,3.57,3.57,0,0,1-.94-2.36Z"/><path class="cls-1" d="M96,361.47A4.75,4.75,0,0,1,97.23,365a6.16,6.16,0,0,1-1.1,3.76,4,4,0,0,1-3.41,1.49A3.84,3.84,0,0,1,89.65,369a5.22,5.22,0,0,1-1.13-3.52,5.69,5.69,0,0,1,1.19-3.78,4,4,0,0,1,3.22-1.4A4.2,4.2,0,0,1,96,361.47Zm-1,6.25a6,6,0,0,0,.58-2.64,4.71,4.71,0,0,0-.42-2.14,2.34,2.34,0,0,0-2.28-1.3,2.22,2.22,0,0,0-2.08,1.1,5.13,5.13,0,0,0-.66,2.67,4.43,4.43,0,0,0,.66,2.5,2.27,2.27,0,0,0,2.07,1A2.15,2.15,0,0,0,95,367.72Z"/><path class="cls-1" d="M100.75,360.53v6.25A2.69,2.69,0,0,0,101,368a1.54,1.54,0,0,0,1.53.84,2.16,2.16,0,0,0,2.19-1.48,6,6,0,0,0,.32-2.17v-4.62h1.58v9.41h-1.5l0-1.39a3.18,3.18,0,0,1-.75.91,3.27,3.27,0,0,1-2.16.74,2.77,2.77,0,0,1-2.69-1.35,4,4,0,0,1-.38-1.92v-6.4Z"/><path class="cls-1" d="M114.05,360.57h1.55v1.25a3.72,3.72,0,0,1,1-1,3.34,3.34,0,0,1,1.88-.53,3.56,3.56,0,0,1,2.73,1.23,5,5,0,0,1,1.12,3.5q0,3.08-1.62,4.39a3.64,3.64,0,0,1-2.38.84,3.24,3.24,0,0,1-1.79-.47,4,4,0,0,1-1-.9v4.8h-1.58Zm6,7.38a4.4,4.4,0,0,0,.74-2.77,5.15,5.15,0,0,0-.33-1.94,2.39,2.39,0,0,0-4.51.09,6.44,6.44,0,0,0-.33,2.23,4.69,4.69,0,0,0,.33,1.86,2.39,2.39,0,0,0,4.1.53Z"/><path class="cls-1" d="M124.24,360.53h1.5v1.62a3.6,3.6,0,0,1,.91-1.15,2.31,2.31,0,0,1,1.66-.68h.15l.36,0V362l-.26,0h-.26a2.24,2.24,0,0,0-1.84.77,2.66,2.66,0,0,0-.64,1.77v5.41h-1.58Z"/><path class="cls-1" d="M136,360.79a3.6,3.6,0,0,1,1.43,1.22,4.13,4.13,0,0,1,.62,1.66,10.3,10.3,0,0,1,.14,2.07h-6.84a4.08,4.08,0,0,0,.67,2.31,2.26,2.26,0,0,0,1.94.86,2.51,2.51,0,0,0,2-.82,2.91,2.91,0,0,0,.58-1.1h1.55a3.27,3.27,0,0,1-.41,1.15,4.2,4.2,0,0,1-.77,1.05,3.81,3.81,0,0,1-1.77.95,5.58,5.58,0,0,1-1.28.14,3.91,3.91,0,0,1-3-1.28,5,5,0,0,1-1.22-3.58,5.47,5.47,0,0,1,1.22-3.69,4,4,0,0,1,3.2-1.41A4.14,4.14,0,0,1,136,360.79Zm.57,3.69a4.1,4.1,0,0,0-.45-1.64A2.27,2.27,0,0,0,134,361.7a2.38,2.38,0,0,0-1.81.78,3,3,0,0,0-.78,2Z"/><path class="cls-1" d="M141.14,367a2.28,2.28,0,0,0,.4,1.21,2.57,2.57,0,0,0,2.12.77,3.14,3.14,0,0,0,1.58-.39,1.26,1.26,0,0,0,.68-1.18,1,1,0,0,0-.54-.92A6.81,6.81,0,0,0,144,366l-1.28-.32a6.18,6.18,0,0,1-1.8-.66,2,2,0,0,1-1-1.78,2.7,2.7,0,0,1,1-2.16,3.92,3.92,0,0,1,2.62-.83,3.68,3.68,0,0,1,3.11,1.25,2.7,2.7,0,0,1,.58,1.71h-1.5a1.82,1.82,0,0,0-.38-1,2.5,2.5,0,0,0-1.94-.62A2.36,2.36,0,0,0,142,362a1.06,1.06,0,0,0-.47.9,1.12,1.12,0,0,0,.62,1,3.9,3.9,0,0,0,1.06.39l1.06.25a8.36,8.36,0,0,1,2.33.8,2.1,2.1,0,0,1,.92,1.91,2.89,2.89,0,0,1-1,2.17,4.14,4.14,0,0,1-2.94.91,4,4,0,0,1-3-.95,3.58,3.58,0,0,1-.95-2.36Z"/><path class="cls-1" d="M155,360.79a3.53,3.53,0,0,1,1.43,1.22,4.29,4.29,0,0,1,.63,1.66,11.12,11.12,0,0,1,.14,2.07h-6.85a4.08,4.08,0,0,0,.67,2.31,2.26,2.26,0,0,0,1.94.86,2.51,2.51,0,0,0,2-.82,2.91,2.91,0,0,0,.58-1.1h1.55a3.23,3.23,0,0,1-.4,1.15,4.48,4.48,0,0,1-.78,1.05,3.81,3.81,0,0,1-1.77.95,5.58,5.58,0,0,1-1.28.14,3.93,3.93,0,0,1-3-1.28,5,5,0,0,1-1.22-3.58,5.47,5.47,0,0,1,1.22-3.69,4.05,4.05,0,0,1,3.2-1.41A4.14,4.14,0,0,1,155,360.79Zm.57,3.69a4.1,4.1,0,0,0-.45-1.64A2.27,2.27,0,0,0,153,361.7a2.38,2.38,0,0,0-1.81.78,3,3,0,0,0-.78,2Z"/><path class="cls-1" d="M159.21,360.53h1.5v1.33a4.24,4.24,0,0,1,1.42-1.18,3.74,3.74,0,0,1,1.66-.36,2.74,2.74,0,0,1,2.71,1.4,5,5,0,0,1,.38,2.18v6h-1.61V364a3.23,3.23,0,0,0-.25-1.39,1.54,1.54,0,0,0-1.53-.88,2.93,2.93,0,0,0-.92.12,2.29,2.29,0,0,0-1.15.77,2.37,2.37,0,0,0-.51,1,6.44,6.44,0,0,0-.12,1.42v4.93h-1.58Z"/><path class="cls-1" d="M175.44,361a3.75,3.75,0,0,1,1.2,2.66H175.1a2.81,2.81,0,0,0-.64-1.44,2,2,0,0,0-1.61-.58,2.21,2.21,0,0,0-2.16,1.48,5.83,5.83,0,0,0-.42,2.36,4.45,4.45,0,0,0,.59,2.38,2.32,2.32,0,0,0,3.44.36,3.25,3.25,0,0,0,.8-1.64h1.54a4.17,4.17,0,0,1-1.32,2.74,4.09,4.09,0,0,1-2.7.86,3.61,3.61,0,0,1-2.94-1.34,5.15,5.15,0,0,1-1.1-3.38,5.67,5.67,0,0,1,1.2-3.85,3.9,3.9,0,0,1,3.07-1.38A4.09,4.09,0,0,1,175.44,361Z"/><path class="cls-1" d="M178.22,357h1.61v1.79h-1.61Zm0,3.54h1.61v9.37h-1.61Z"/><path class="cls-1" d="M187.26,364.25a.85.85,0,0,0,.73-.46,1.41,1.41,0,0,0,.11-.61,1.29,1.29,0,0,0-.58-1.18,3.09,3.09,0,0,0-1.64-.36,2.09,2.09,0,0,0-1.76.67,2.25,2.25,0,0,0-.37,1.1h-1.48A2.75,2.75,0,0,1,183.4,361a4.65,4.65,0,0,1,2.51-.68,5.14,5.14,0,0,1,2.7.63,2.16,2.16,0,0,1,1,2v5.43a.67.67,0,0,0,.1.39c.06.1.21.15.42.15h.24l.28,0V370a4.52,4.52,0,0,1-.56.13,3.87,3.87,0,0,1-.53,0,1.28,1.28,0,0,1-1.18-.58,2.28,2.28,0,0,1-.28-.87,3.9,3.9,0,0,1-1.38,1.1,4.33,4.33,0,0,1-2,.47,3,3,0,0,1-2.14-.8,2.64,2.64,0,0,1-.83-2,2.54,2.54,0,0,1,.82-2,3.87,3.87,0,0,1,2.14-.89Zm-3.33,4.27a1.89,1.89,0,0,0,1.19.39,3.73,3.73,0,0,0,1.62-.38,2.17,2.17,0,0,0,1.31-2.1v-1.27a3,3,0,0,1-.74.31,5.92,5.92,0,0,1-.9.17l-.95.13a3.61,3.61,0,0,0-1.29.35,1.42,1.42,0,0,0-.74,1.32A1.3,1.3,0,0,0,183.93,368.52Z"/><path class="cls-1" d="M192.23,357h1.61v1.79h-1.61Zm0,3.54h1.61v9.37h-1.61Z"/><path class="cls-1" d="M197.17,367a2.28,2.28,0,0,0,.4,1.21,2.57,2.57,0,0,0,2.12.77,3.14,3.14,0,0,0,1.58-.39,1.26,1.26,0,0,0,.68-1.18,1,1,0,0,0-.54-.92A6.81,6.81,0,0,0,200,366l-1.28-.32a6.18,6.18,0,0,1-1.8-.66,2,2,0,0,1-1-1.78,2.7,2.7,0,0,1,1-2.16,3.92,3.92,0,0,1,2.62-.83,3.68,3.68,0,0,1,3.11,1.25,2.7,2.7,0,0,1,.58,1.71h-1.5a1.82,1.82,0,0,0-.38-1,2.5,2.5,0,0,0-1.94-.62A2.36,2.36,0,0,0,198,362a1.06,1.06,0,0,0-.47.9,1.12,1.12,0,0,0,.62,1,3.9,3.9,0,0,0,1.06.39l1.06.25a8.36,8.36,0,0,1,2.33.8,2.1,2.1,0,0,1,.92,1.91,2.89,2.89,0,0,1-1,2.17,4.14,4.14,0,0,1-2.94.91,4,4,0,0,1-3-.95,3.58,3.58,0,0,1-.95-2.36Z"/><path class="cls-1" d="M98.5,174.43a4.6,4.6,0,0,1,1.49,2.93H98.28a3.24,3.24,0,0,0-3.52-2.71,3.76,3.76,0,0,0-3,1.35,6.17,6.17,0,0,0-1.16,4.11,6.08,6.08,0,0,0,1,3.68,3.62,3.62,0,0,0,3.11,1.41,3.26,3.26,0,0,0,2.89-1.48,6,6,0,0,0,.79-2.06h1.7a5.89,5.89,0,0,1-1.49,3.42,5.28,5.28,0,0,1-4.1,1.66,5.41,5.41,0,0,1-3.74-1.36c-1.33-1.21-2-3.06-2-5.57a7.15,7.15,0,0,1,1.5-4.69,5.43,5.43,0,0,1,4.45-2A5.15,5.15,0,0,1,98.5,174.43Z"/><path class="cls-1" d="M109,177.92a4.77,4.77,0,0,1,1.25,3.57,6.18,6.18,0,0,1-1.1,3.76,4,4,0,0,1-3.41,1.48,3.87,3.87,0,0,1-3.07-1.31,5.25,5.25,0,0,1-1.13-3.53,5.64,5.64,0,0,1,1.19-3.77,4,4,0,0,1,3.21-1.41A4.21,4.21,0,0,1,109,177.92Zm-1,6.26a6.06,6.06,0,0,0,.58-2.65,4.71,4.71,0,0,0-.42-2.14,2.34,2.34,0,0,0-2.28-1.3,2.25,2.25,0,0,0-2.09,1.11,5.18,5.18,0,0,0-.65,2.67,4.53,4.53,0,0,0,.65,2.5,2.32,2.32,0,0,0,2.07,1A2.17,2.17,0,0,0,108,184.18Z"/><path class="cls-1" d="M112.17,177h1.5v1.34a4.28,4.28,0,0,1,1.42-1.19,3.78,3.78,0,0,1,1.66-.36,2.75,2.75,0,0,1,2.71,1.4,5.1,5.1,0,0,1,.38,2.19v6h-1.61v-5.94a3.26,3.26,0,0,0-.25-1.39,1.55,1.55,0,0,0-1.53-.87,3,3,0,0,0-.92.11,2.42,2.42,0,0,0-1.15.77,2.34,2.34,0,0,0-.51,1,6.38,6.38,0,0,0-.12,1.42v4.93h-1.58Z"/><path class="cls-1" d="M122.5,174.35h1.6V177h1.5v1.29h-1.5v6.15a.67.67,0,0,0,.33.66,1.52,1.52,0,0,0,.62.09h.24l.31,0v1.26a3.38,3.38,0,0,1-.57.11,6.07,6.07,0,0,1-.63,0,1.73,1.73,0,0,1-1.51-.57,2.55,2.55,0,0,1-.39-1.47v-6.24h-1.28V177h1.28Z"/><path class="cls-1" d="M133,177.24a3.64,3.64,0,0,1,1.42,1.22,4.35,4.35,0,0,1,.63,1.66,11.2,11.2,0,0,1,.14,2.07h-6.85a4.08,4.08,0,0,0,.67,2.31,2.25,2.25,0,0,0,2,.87,2.52,2.52,0,0,0,2-.82,2.81,2.81,0,0,0,.58-1.11h1.56a3.31,3.31,0,0,1-.41,1.16,4.1,4.1,0,0,1-.78,1,3.55,3.55,0,0,1-1.77,1,5.51,5.51,0,0,1-1.28.14,3.94,3.94,0,0,1-3-1.28,5,5,0,0,1-1.21-3.58,5.4,5.4,0,0,1,1.22-3.68,4,4,0,0,1,3.2-1.42A4.32,4.32,0,0,1,133,177.24Zm.56,3.7a4.12,4.12,0,0,0-.44-1.65,2.28,2.28,0,0,0-2.16-1.14,2.37,2.37,0,0,0-1.81.79,3,3,0,0,0-.77,2Z"/><path class="cls-1" d="M143.13,183.44a2.35,2.35,0,0,0,.41,1.22,2.54,2.54,0,0,0,2.11.76,3.21,3.21,0,0,0,1.58-.38,1.27,1.27,0,0,0,.69-1.18,1,1,0,0,0-.55-.93,6.37,6.37,0,0,0-1.38-.45l-1.27-.31a6.23,6.23,0,0,1-1.81-.67,2,2,0,0,1-1-1.77,2.7,2.7,0,0,1,1-2.17,3.94,3.94,0,0,1,2.63-.82,3.65,3.65,0,0,1,3.1,1.24,2.7,2.7,0,0,1,.58,1.71h-1.49a1.76,1.76,0,0,0-.39-1,2.51,2.51,0,0,0-1.93-.62,2.34,2.34,0,0,0-1.39.34,1.05,1.05,0,0,0-.47.9,1.09,1.09,0,0,0,.62,1,3.51,3.51,0,0,0,1,.39l1.07.25a8.85,8.85,0,0,1,2.33.8,2.14,2.14,0,0,1,.92,1.91,2.87,2.87,0,0,1-1,2.17,4.13,4.13,0,0,1-2.94.92,4,4,0,0,1-3-1,3.56,3.56,0,0,1-.95-2.36Z"/><path class="cls-1" d="M157,177.24a3.57,3.57,0,0,1,1.42,1.22,4,4,0,0,1,.63,1.66,11.2,11.2,0,0,1,.14,2.07h-6.85a4.08,4.08,0,0,0,.68,2.31,2.22,2.22,0,0,0,1.94.87,2.52,2.52,0,0,0,2-.82,2.69,2.69,0,0,0,.58-1.11h1.56a3.31,3.31,0,0,1-.41,1.16,4.1,4.1,0,0,1-.78,1,3.55,3.55,0,0,1-1.77,1,5.45,5.45,0,0,1-1.28.14,3.94,3.94,0,0,1-3-1.28,5,5,0,0,1-1.21-3.58,5.4,5.4,0,0,1,1.22-3.68,4,4,0,0,1,3.2-1.42A4.32,4.32,0,0,1,157,177.24Zm.56,3.7a4.12,4.12,0,0,0-.44-1.65,2.28,2.28,0,0,0-2.15-1.14,2.38,2.38,0,0,0-1.82.79,3,3,0,0,0-.77,2Z"/><path class="cls-1" d="M162.79,177v6.25a2.7,2.7,0,0,0,.22,1.18,1.54,1.54,0,0,0,1.53.84,2.17,2.17,0,0,0,2.19-1.47,6,6,0,0,0,.32-2.17V177h1.58v9.42h-1.49V185a3.13,3.13,0,0,1-.75.9,3.26,3.26,0,0,1-2.15.74,2.76,2.76,0,0,1-2.69-1.34,4.08,4.08,0,0,1-.39-1.93V177Z"/><path class="cls-1" d="M176.08,177h1.55v1.24a4,4,0,0,1,1-1,3.38,3.38,0,0,1,1.89-.53,3.54,3.54,0,0,1,2.72,1.23,5,5,0,0,1,1.12,3.5q0,3.08-1.62,4.4a3.67,3.67,0,0,1-2.38.83,3.24,3.24,0,0,1-1.79-.46,4.1,4.1,0,0,1-.94-.91v4.81h-1.59Zm6,7.38a4.44,4.44,0,0,0,.73-2.78,5.3,5.3,0,0,0-.32-1.93,2.39,2.39,0,0,0-4.52.09,6.4,6.4,0,0,0-.33,2.23,4.64,4.64,0,0,0,.33,1.85,2.24,2.24,0,0,0,2.26,1.46A2.3,2.3,0,0,0,182,184.41Z"/><path class="cls-1" d="M187.81,177v6.25a2.7,2.7,0,0,0,.22,1.18,1.55,1.55,0,0,0,1.53.84,2.15,2.15,0,0,0,2.19-1.47,5.81,5.81,0,0,0,.32-2.17V177h1.58v9.42h-1.49l0-1.39a3.22,3.22,0,0,1-2.91,1.64,2.77,2.77,0,0,1-2.69-1.34,4.08,4.08,0,0,1-.39-1.93V177Zm4.06-3.79-2.35,2.54h-1.21l1.61-2.54Z"/><path class="cls-1" d="M196.11,173.44h1.53v4.69a3.54,3.54,0,0,1,1.25-1,3.58,3.58,0,0,1,1.57-.35,3.67,3.67,0,0,1,2.86,1.21,5.13,5.13,0,0,1,1.1,3.56,6.07,6.07,0,0,1-1.09,3.71,3.51,3.51,0,0,1-3,1.47,3.12,3.12,0,0,1-1.82-.51,4.54,4.54,0,0,1-.95-1v1.21h-1.45Zm6,10.84a5,5,0,0,0,.64-2.69,4.37,4.37,0,0,0-.64-2.46,2.1,2.1,0,0,0-1.88-1,2.66,2.66,0,0,0-1.9.8,3.6,3.6,0,0,0-.81,2.64,5.89,5.89,0,0,0,.33,2.15,2.32,2.32,0,0,0,2.34,1.56A2.1,2.1,0,0,0,202.15,184.28Z"/><path class="cls-1" d="M206.29,173.48h1.58V186.4h-1.58Z"/><path class="cls-1" d="M210.25,173.48h1.61v1.8h-1.61Zm0,3.55h1.61v9.37h-1.61Z"/><path class="cls-1" d="M220.46,177.48a3.69,3.69,0,0,1,1.2,2.67h-1.53a2.85,2.85,0,0,0-.65-1.45,2,2,0,0,0-1.6-.57,2.24,2.24,0,0,0-2.17,1.47,5.9,5.9,0,0,0-.42,2.36,4.43,4.43,0,0,0,.6,2.38,2.32,2.32,0,0,0,3.44.37,3.37,3.37,0,0,0,.8-1.65h1.53a3.71,3.71,0,0,1-4,3.61,3.62,3.62,0,0,1-3-1.35,5.17,5.17,0,0,1-1.1-3.37,5.7,5.7,0,0,1,1.21-3.86,3.88,3.88,0,0,1,3.07-1.38A4.1,4.1,0,0,1,220.46,177.48Z"/><path class="cls-1" d="M230.07,177.92a4.77,4.77,0,0,1,1.24,3.57,6.12,6.12,0,0,1-1.1,3.76,4,4,0,0,1-3.41,1.48,3.86,3.86,0,0,1-3.06-1.31,5.2,5.2,0,0,1-1.14-3.53,5.59,5.59,0,0,1,1.2-3.77,4,4,0,0,1,3.21-1.41A4.22,4.22,0,0,1,230.07,177.92Zm-1,6.26a5.92,5.92,0,0,0,.58-2.65,4.86,4.86,0,0,0-.41-2.14,2.35,2.35,0,0,0-2.28-1.3,2.25,2.25,0,0,0-2.09,1.11,5.18,5.18,0,0,0-.65,2.67,4.53,4.53,0,0,0,.65,2.5,2.32,2.32,0,0,0,2.07,1A2.15,2.15,0,0,0,229.08,184.18Z"/><path class="cls-1" d="M95.38,198.48a3.77,3.77,0,0,1,1.2,2.67H95a2.84,2.84,0,0,0-.64-1.45,2,2,0,0,0-1.61-.57,2.21,2.21,0,0,0-2.16,1.47,5.9,5.9,0,0,0-.42,2.36,4.52,4.52,0,0,0,.59,2.38,2.32,2.32,0,0,0,3.44.37,3.28,3.28,0,0,0,.8-1.65h1.54a4.15,4.15,0,0,1-1.32,2.74,4.09,4.09,0,0,1-2.7.87,3.59,3.59,0,0,1-2.94-1.35,5.12,5.12,0,0,1-1.1-3.37,5.7,5.7,0,0,1,1.2-3.86,3.91,3.91,0,0,1,3.07-1.38A4.15,4.15,0,0,1,95.38,198.48Z"/><path class="cls-1" d="M105,198.92a4.77,4.77,0,0,1,1.25,3.57,6.18,6.18,0,0,1-1.1,3.76,4,4,0,0,1-3.41,1.48,3.87,3.87,0,0,1-3.07-1.31,5.25,5.25,0,0,1-1.13-3.53,5.64,5.64,0,0,1,1.19-3.77,4,4,0,0,1,3.22-1.41A4.2,4.2,0,0,1,105,198.92Zm-1,6.26a6.06,6.06,0,0,0,.58-2.65,4.71,4.71,0,0,0-.42-2.14,2.34,2.34,0,0,0-2.28-1.3,2.23,2.23,0,0,0-2.08,1.11,5.08,5.08,0,0,0-.66,2.67,4.45,4.45,0,0,0,.66,2.5,2.29,2.29,0,0,0,2.07,1A2.16,2.16,0,0,0,104,205.18Z"/><path class="cls-1" d="M108.17,198h1.57v1.34a5.29,5.29,0,0,1,1-1,3.09,3.09,0,0,1,1.78-.54,2.8,2.8,0,0,1,1.81.56,2.83,2.83,0,0,1,.7.93,3.44,3.44,0,0,1,1.24-1.12,3.4,3.4,0,0,1,1.6-.37,2.63,2.63,0,0,1,2.59,1.37,4.62,4.62,0,0,1,.37,2v6.27h-1.65v-6.54a1.52,1.52,0,0,0-.47-1.3,1.86,1.86,0,0,0-1.14-.35,2.27,2.27,0,0,0-1.61.63,2.72,2.72,0,0,0-.67,2.08v5.48h-1.61v-6.15a3.25,3.25,0,0,0-.23-1.4,1.4,1.4,0,0,0-1.34-.65,2.32,2.32,0,0,0-1.63.69,3.39,3.39,0,0,0-.74,2.51v5h-1.58Z"/><path class="cls-1" d="M134,198.24a3.57,3.57,0,0,1,1.42,1.22,4,4,0,0,1,.63,1.66,10.37,10.37,0,0,1,.14,2.07h-6.84a4.08,4.08,0,0,0,.67,2.31,2.23,2.23,0,0,0,1.94.87,2.51,2.51,0,0,0,2-.82,2.83,2.83,0,0,0,.59-1.11H136a3.31,3.31,0,0,1-.41,1.16,4.32,4.32,0,0,1-.77,1,3.64,3.64,0,0,1-1.77,1,5.6,5.6,0,0,1-1.29.14,3.94,3.94,0,0,1-3-1.28,5,5,0,0,1-1.21-3.58,5.45,5.45,0,0,1,1.22-3.68,4,4,0,0,1,3.2-1.42A4.29,4.29,0,0,1,134,198.24Zm.57,3.7a4.28,4.28,0,0,0-.45-1.65,2.27,2.27,0,0,0-2.15-1.14,2.34,2.34,0,0,0-1.81.79,3,3,0,0,0-.78,2Z"/><path class="cls-1" d="M139.12,204.44a2.35,2.35,0,0,0,.4,1.22,2.57,2.57,0,0,0,2.12.76,3.24,3.24,0,0,0,1.58-.38,1.28,1.28,0,0,0,.68-1.18,1,1,0,0,0-.55-.93,6.43,6.43,0,0,0-1.37-.45l-1.28-.31a6,6,0,0,1-1.8-.67,2,2,0,0,1-1-1.77,2.7,2.7,0,0,1,1-2.17,3.92,3.92,0,0,1,2.62-.82,3.67,3.67,0,0,1,3.11,1.24,2.76,2.76,0,0,1,.58,1.71h-1.5a1.82,1.82,0,0,0-.38-1,2.55,2.55,0,0,0-1.94-.62,2.36,2.36,0,0,0-1.39.34,1.08,1.08,0,0,0-.47.9,1.1,1.1,0,0,0,.62,1,3.59,3.59,0,0,0,1.06.39l1.06.25a8.71,8.71,0,0,1,2.33.8,2.11,2.11,0,0,1,.92,1.91,2.89,2.89,0,0,1-1,2.17,4.16,4.16,0,0,1-2.94.92,4,4,0,0,1-3-1,3.55,3.55,0,0,1-.94-2.36Z"/><path class="cls-1" d="M147,198h1.55v1.24a4.19,4.19,0,0,1,1-1,3.38,3.38,0,0,1,1.89-.53,3.54,3.54,0,0,1,2.72,1.23,5,5,0,0,1,1.12,3.5c0,2.05-.54,3.52-1.61,4.4a3.72,3.72,0,0,1-2.39.83,3.24,3.24,0,0,1-1.79-.46,4.1,4.1,0,0,1-.94-.91v4.81H147Zm6,7.38a4.44,4.44,0,0,0,.73-2.78,5.3,5.3,0,0,0-.32-1.93,2.39,2.39,0,0,0-4.52.09,6.42,6.42,0,0,0-.32,2.23,4.65,4.65,0,0,0,.32,1.85,2.25,2.25,0,0,0,2.26,1.46A2.29,2.29,0,0,0,153,205.41Z"/><path class="cls-1" d="M163,198.24a3.68,3.68,0,0,1,1.43,1.22,4.18,4.18,0,0,1,.62,1.66,10.37,10.37,0,0,1,.14,2.07h-6.84a4.08,4.08,0,0,0,.67,2.31,2.24,2.24,0,0,0,1.94.87,2.54,2.54,0,0,0,2-.82,3,3,0,0,0,.58-1.11h1.55a3.31,3.31,0,0,1-.41,1.16,4.32,4.32,0,0,1-.77,1,3.64,3.64,0,0,1-1.77,1,5.58,5.58,0,0,1-1.28.14,3.91,3.91,0,0,1-3-1.28,5,5,0,0,1-1.22-3.58,5.45,5.45,0,0,1,1.22-3.68,4,4,0,0,1,3.2-1.42A4.26,4.26,0,0,1,163,198.24Zm.57,3.7a4.11,4.11,0,0,0-.45-1.65,2.27,2.27,0,0,0-2.15-1.14,2.36,2.36,0,0,0-1.81.79,3,3,0,0,0-.78,2Z"/><path class="cls-1" d="M173.42,198.48a3.77,3.77,0,0,1,1.2,2.67h-1.54a2.93,2.93,0,0,0-.64-1.45,2,2,0,0,0-1.61-.57,2.21,2.21,0,0,0-2.16,1.47,5.72,5.72,0,0,0-.43,2.36,4.43,4.43,0,0,0,.6,2.38,2.32,2.32,0,0,0,3.44.37,3.28,3.28,0,0,0,.8-1.65h1.54a3.73,3.73,0,0,1-4,3.61,3.59,3.59,0,0,1-2.94-1.35,5.12,5.12,0,0,1-1.1-3.37,5.7,5.7,0,0,1,1.2-3.86,3.9,3.9,0,0,1,3.07-1.38A4.15,4.15,0,0,1,173.42,198.48Z"/><path class="cls-1" d="M176.2,194.48h1.61v1.8H176.2Zm0,3.55h1.61v9.37H176.2Z"/><path class="cls-1" d="M180.94,195.11a2.4,2.4,0,0,1,2.13-.81h.31l.36,0v1.44l-.36,0h-.21c-.49,0-.78.13-.87.37a7.66,7.66,0,0,0-.14,1.91h1.58v1.24h-1.58v8.13h-1.57v-8.13h-1.31V198h1.31v-1.48A2.8,2.8,0,0,1,180.94,195.11Z"/><path class="cls-1" d="M185.2,194.48h1.61v1.8H185.2Zm0,3.55h1.61v9.37H185.2Z"/><path class="cls-1" d="M195.42,198.48a3.77,3.77,0,0,1,1.2,2.67h-1.54a2.93,2.93,0,0,0-.64-1.45,2,2,0,0,0-1.61-.57,2.21,2.21,0,0,0-2.16,1.47,5.72,5.72,0,0,0-.43,2.36,4.43,4.43,0,0,0,.6,2.38,2.32,2.32,0,0,0,3.44.37,3.28,3.28,0,0,0,.8-1.65h1.54a3.73,3.73,0,0,1-4,3.61,3.62,3.62,0,0,1-2.95-1.35,5.17,5.17,0,0,1-1.09-3.37,5.7,5.7,0,0,1,1.2-3.86,3.88,3.88,0,0,1,3.07-1.38A4.15,4.15,0,0,1,195.42,198.48Z"/><path class="cls-1" d="M203.24,201.7a.85.85,0,0,0,.73-.46,1.38,1.38,0,0,0,.11-.61,1.27,1.27,0,0,0-.58-1.17,3,3,0,0,0-1.64-.37,2.09,2.09,0,0,0-1.76.67,2.3,2.3,0,0,0-.37,1.11h-1.48a2.73,2.73,0,0,1,1.13-2.43,4.57,4.57,0,0,1,2.51-.69,5.14,5.14,0,0,1,2.7.64,2.16,2.16,0,0,1,1,2v5.42a.64.64,0,0,0,.1.39c.06.1.21.15.42.15h.24l.28,0v1.17a4.52,4.52,0,0,1-.56.13,3.7,3.7,0,0,1-.53,0,1.33,1.33,0,0,1-1.19-.58,2.63,2.63,0,0,1-.27-.87,4,4,0,0,1-1.39,1.1,4.26,4.26,0,0,1-2,.46,3,3,0,0,1-2.14-.79,2.65,2.65,0,0,1-.83-2,2.55,2.55,0,0,1,.82-2,3.83,3.83,0,0,1,2.14-.88ZM199.91,206a1.84,1.84,0,0,0,1.19.4,3.57,3.57,0,0,0,1.61-.39,2.17,2.17,0,0,0,1.32-2.1v-1.27a2.42,2.42,0,0,1-.74.31,7.54,7.54,0,0,1-.9.18l-.95.12a3.88,3.88,0,0,0-1.3.36,1.38,1.38,0,0,0-.73,1.31A1.3,1.3,0,0,0,199.91,206Z"/><path class="cls-1" d="M214.43,198.48a3.77,3.77,0,0,1,1.2,2.67h-1.54a2.93,2.93,0,0,0-.64-1.45,2,2,0,0,0-1.61-.57,2.21,2.21,0,0,0-2.16,1.47,5.72,5.72,0,0,0-.43,2.36,4.43,4.43,0,0,0,.6,2.38,2.32,2.32,0,0,0,3.44.37,3.28,3.28,0,0,0,.8-1.65h1.54a4.15,4.15,0,0,1-1.32,2.74,3.75,3.75,0,0,1-2.45.87l-.62.85a2.37,2.37,0,0,1,.66-.08,1.45,1.45,0,0,1,1,.36,1.3,1.3,0,0,1,.4,1,1.51,1.51,0,0,1-.53,1.15,2.29,2.29,0,0,1-1.62.49,4.25,4.25,0,0,1-1-.13c-.18,0-.44-.13-.75-.25l.31-.71a5,5,0,0,0,.52.17,2.34,2.34,0,0,0,.65.1,1.34,1.34,0,0,0,.56-.1.65.65,0,0,0,.46-.66.62.62,0,0,0-.23-.49.9.9,0,0,0-.62-.21,1.25,1.25,0,0,0-.35,0l-.37.11-.31-.36,1-1.29a2.92,2.92,0,0,1-2.19-1,5.44,5.44,0,0,1-1.26-3.72,5.7,5.7,0,0,1,1.2-3.86,3.9,3.9,0,0,1,3.07-1.38A4.15,4.15,0,0,1,214.43,198.48Z"/><path class="cls-1" d="M222.25,201.7a.85.85,0,0,0,.73-.46,1.38,1.38,0,0,0,.11-.61,1.27,1.27,0,0,0-.58-1.17,3,3,0,0,0-1.64-.37,2.09,2.09,0,0,0-1.76.67,2.3,2.3,0,0,0-.37,1.11h-1.48a2.73,2.73,0,0,1,1.13-2.43,4.57,4.57,0,0,1,2.51-.69,5.14,5.14,0,0,1,2.7.64,2.16,2.16,0,0,1,1,2v5.42a.64.64,0,0,0,.1.39c.06.1.21.15.42.15h.24l.28,0v1.17a4.52,4.52,0,0,1-.56.13,3.7,3.7,0,0,1-.53,0,1.3,1.3,0,0,1-1.18-.58,2.4,2.4,0,0,1-.28-.87,4,4,0,0,1-1.39,1.1,4.26,4.26,0,0,1-2,.46,3,3,0,0,1-2.14-.79,2.65,2.65,0,0,1-.83-2,2.55,2.55,0,0,1,.82-2,3.86,3.86,0,0,1,2.14-.88Zm-.64-6.64a2.87,2.87,0,0,0,.45.17,1.4,1.4,0,0,0,.41.06.81.81,0,0,0,.71-.3,1.35,1.35,0,0,0,.15-.51h.93a2.44,2.44,0,0,1-.71,1.54,1.79,1.79,0,0,1-1.15.42,2,2,0,0,1-.49-.07,4.92,4.92,0,0,1-.53-.15l-.46-.17-.67-.22a1.92,1.92,0,0,0-.51-.08.71.71,0,0,0-.51.2,1.11,1.11,0,0,0-.26.62h-.87a3.46,3.46,0,0,1,.38-1.14,1.66,1.66,0,0,1,1.49-.8,2.69,2.69,0,0,1,.66.08A7.63,7.63,0,0,1,221.61,195.06ZM218.92,206a1.84,1.84,0,0,0,1.19.4,3.61,3.61,0,0,0,1.62-.39,2.18,2.18,0,0,0,1.31-2.1v-1.27a2.42,2.42,0,0,1-.74.31,7.54,7.54,0,0,1-.9.18l-1,.12a3.81,3.81,0,0,0-1.29.36,1.39,1.39,0,0,0-.74,1.31A1.3,1.3,0,0,0,218.92,206Z"/><path class="cls-1" d="M234,198.92a4.77,4.77,0,0,1,1.25,3.57,6.18,6.18,0,0,1-1.1,3.76,4,4,0,0,1-3.41,1.48,3.87,3.87,0,0,1-3.07-1.31,5.25,5.25,0,0,1-1.13-3.53,5.64,5.64,0,0,1,1.19-3.77,4,4,0,0,1,3.21-1.41A4.21,4.21,0,0,1,234,198.92Zm-1,6.26a6.06,6.06,0,0,0,.57-2.65,4.72,4.72,0,0,0-.41-2.14,2.34,2.34,0,0,0-2.28-1.3,2.25,2.25,0,0,0-2.09,1.11,5.18,5.18,0,0,0-.65,2.67,4.53,4.53,0,0,0,.65,2.5,2.32,2.32,0,0,0,2.07,1A2.17,2.17,0,0,0,233.06,205.18Z"/><path class="cls-1" d="M16.13,331.3l13,.07.06-13-13-.07Zm2.33-10.74,8.48,0,0,8.49-8.48,0Z"/><path class="cls-1" d="M16.13,349.86l13,.07.06-13-13-.07Zm2.33-10.74,8.48.05,0,8.48-8.48,0Z"/><rect class="cls-1" x="48.5" y="305.26" width="2.55" height="34.17" transform="translate(-272.82 370.45) rotate(-89.7)"/><rect class="cls-1" x="43.68" y="314.6" width="2.55" height="24.53" transform="translate(-282.13 370.12) rotate(-89.7)"/><rect class="cls-1" x="48.5" y="323.04" width="2.55" height="34.17" transform="translate(-290.6 388.14) rotate(-89.7)"/><rect class="cls-1" x="43.68" y="332.38" width="2.55" height="24.53" transform="translate(-299.91 387.81) rotate(-89.7)"/><path class="cls-1" d="M16.13,368l13,.06.06-13-13-.07Zm2.33-10.74,8.48,0,0,8.48-8.48,0Z"/><rect class="cls-1" x="48.5" y="341.16" width="2.55" height="34.17" transform="translate(-308.72 406.16) rotate(-89.7)"/><rect class="cls-1" x="43.68" y="350.49" width="2.55" height="24.53" transform="translate(-318.02 405.83) rotate(-89.7)"/><path class="cls-1" d="M89.77,32h1.76V44.93H89.77Z"/><path class="cls-1" d="M94.16,35.51h1.51v1.34a4.15,4.15,0,0,1,1.41-1.19,3.78,3.78,0,0,1,1.66-.36,2.75,2.75,0,0,1,2.71,1.4,5,5,0,0,1,.38,2.19v6h-1.6V39A3.25,3.25,0,0,0,100,37.6a1.55,1.55,0,0,0-1.53-.87,3,3,0,0,0-.92.11,2.44,2.44,0,0,0-1.14.77,2.31,2.31,0,0,0-.52,1A6.38,6.38,0,0,0,95.74,40v4.93H94.16Z"/><path class="cls-1" d="M109.41,35.89a4.78,4.78,0,0,1,.91.9V35.6h1.46v8.56a6.31,6.31,0,0,1-.53,2.83,3.77,3.77,0,0,1-3.71,1.92,4.52,4.52,0,0,1-2.54-.68,2.67,2.67,0,0,1-1.16-2.13h1.61a1.73,1.73,0,0,0,.45,1,2.33,2.33,0,0,0,1.68.53A2.3,2.3,0,0,0,110,46.31a7.22,7.22,0,0,0,.3-2.69,3.11,3.11,0,0,1-1.13,1.07,3.85,3.85,0,0,1-1.76.35A3.76,3.76,0,0,1,104.69,44a4.83,4.83,0,0,1-1.14-3.6,5.45,5.45,0,0,1,1.15-3.69,3.56,3.56,0,0,1,2.78-1.32A3.46,3.46,0,0,1,109.41,35.89Zm.19,1.7a2.28,2.28,0,0,0-1.83-.85,2.26,2.26,0,0,0-2.27,1.57,6,6,0,0,0-.33,2.19,3.9,3.9,0,0,0,.65,2.42,2.07,2.07,0,0,0,1.72.83,2.41,2.41,0,0,0,2.39-1.54,4.93,4.93,0,0,0,.39-2A3.91,3.91,0,0,0,109.6,37.59Z"/><path class="cls-1" d="M114.23,35.51h1.5v1.63a3.61,3.61,0,0,1,.91-1.16,2.35,2.35,0,0,1,1.66-.68h.15l.36,0V37l-.26,0h-.26a2.27,2.27,0,0,0-1.84.77,2.66,2.66,0,0,0-.64,1.77v5.42h-1.58Z"/><path class="cls-1" d="M126,35.77A3.61,3.61,0,0,1,127.42,37a4.18,4.18,0,0,1,.62,1.66,10.42,10.42,0,0,1,.14,2.08h-6.84A4.07,4.07,0,0,0,122,43a2.24,2.24,0,0,0,1.94.87,2.54,2.54,0,0,0,2-.82A3,3,0,0,0,126.5,42h1.55a3.12,3.12,0,0,1-.41,1.16,4.32,4.32,0,0,1-.77,1,3.64,3.64,0,0,1-1.77.95,5.58,5.58,0,0,1-1.28.14,3.93,3.93,0,0,1-3-1.28,5,5,0,0,1-1.22-3.58,5.45,5.45,0,0,1,1.22-3.68,4,4,0,0,1,3.2-1.42A4.26,4.26,0,0,1,126,35.77Zm.57,3.7a4.11,4.11,0,0,0-.45-1.65A2.27,2.27,0,0,0,124,36.68a2.36,2.36,0,0,0-1.81.79,3,3,0,0,0-.78,2Z"/><path class="cls-1" d="M131.13,42a2.35,2.35,0,0,0,.4,1.22,2.57,2.57,0,0,0,2.12.76,3.24,3.24,0,0,0,1.58-.38,1.28,1.28,0,0,0,.68-1.18,1,1,0,0,0-.54-.93A7,7,0,0,0,134,41l-1.28-.32a6.14,6.14,0,0,1-1.8-.67,2,2,0,0,1-1-1.77,2.7,2.7,0,0,1,1-2.17,3.92,3.92,0,0,1,2.62-.82,3.65,3.65,0,0,1,3.11,1.25,2.66,2.66,0,0,1,.58,1.7h-1.5a1.82,1.82,0,0,0-.38-1,2.53,2.53,0,0,0-1.94-.62A2.36,2.36,0,0,0,132,37a1.08,1.08,0,0,0-.47.9,1.1,1.1,0,0,0,.62,1,3.59,3.59,0,0,0,1.06.39l1.06.25a8.71,8.71,0,0,1,2.33.8,2.11,2.11,0,0,1,.92,1.91,2.89,2.89,0,0,1-1,2.17,4.14,4.14,0,0,1-2.94.92,4,4,0,0,1-3-1,3.56,3.56,0,0,1-.95-2.36Z"/><path class="cls-1" d="M140.13,42a2.35,2.35,0,0,0,.4,1.22,2.57,2.57,0,0,0,2.12.76,3.24,3.24,0,0,0,1.58-.38,1.28,1.28,0,0,0,.68-1.18,1,1,0,0,0-.54-.93A7,7,0,0,0,143,41l-1.28-.32a6.14,6.14,0,0,1-1.8-.67,2,2,0,0,1-1-1.77,2.7,2.7,0,0,1,1-2.17,3.92,3.92,0,0,1,2.62-.82,3.65,3.65,0,0,1,3.11,1.25,2.66,2.66,0,0,1,.58,1.7h-1.5a1.82,1.82,0,0,0-.38-1,2.53,2.53,0,0,0-1.94-.62A2.36,2.36,0,0,0,141,37a1.08,1.08,0,0,0-.47.9,1.1,1.1,0,0,0,.62,1,3.59,3.59,0,0,0,1.06.39l1.06.25a8.71,8.71,0,0,1,2.33.8,2.11,2.11,0,0,1,.92,1.91,2.89,2.89,0,0,1-1,2.17,4.14,4.14,0,0,1-2.94.92,4,4,0,0,1-3-1,3.56,3.56,0,0,1-.95-2.36Z"/><path class="cls-1" d="M155,36.45A4.77,4.77,0,0,1,156.26,40a6.18,6.18,0,0,1-1.1,3.76,4,4,0,0,1-3.41,1.48A3.87,3.87,0,0,1,148.68,44a5.2,5.2,0,0,1-1.13-3.53,5.64,5.64,0,0,1,1.19-3.77A4,4,0,0,1,152,35.24,4.21,4.21,0,0,1,155,36.45Zm-1,6.26a6.06,6.06,0,0,0,.57-2.65,4.72,4.72,0,0,0-.41-2.14,2.34,2.34,0,0,0-2.28-1.3,2.25,2.25,0,0,0-2.09,1.11,5.18,5.18,0,0,0-.65,2.67,4.53,4.53,0,0,0,.65,2.5,2.32,2.32,0,0,0,2.07,1A2.17,2.17,0,0,0,154,42.71Z"/><path class="cls-1" d="M163.2,35.51h1.56v1.34a5.6,5.6,0,0,1,1-1,3.09,3.09,0,0,1,1.78-.54,2.8,2.8,0,0,1,1.81.56,2.83,2.83,0,0,1,.7.93,3.36,3.36,0,0,1,1.24-1.12,3.4,3.4,0,0,1,1.6-.37,2.63,2.63,0,0,1,2.59,1.37,4.62,4.62,0,0,1,.37,2v6.27h-1.65V38.39a1.52,1.52,0,0,0-.47-1.29,1.82,1.82,0,0,0-1.15-.36,2.26,2.26,0,0,0-1.6.63,2.72,2.72,0,0,0-.67,2.08v5.48h-1.61V38.78a3.17,3.17,0,0,0-.23-1.39,1.39,1.39,0,0,0-1.34-.66,2.31,2.31,0,0,0-1.63.69,3.39,3.39,0,0,0-.74,2.51v5H163.2Z"/><path class="cls-1" d="M179.78,35.51v6.25a2.67,2.67,0,0,0,.22,1.18,1.54,1.54,0,0,0,1.53.84,2.17,2.17,0,0,0,2.19-1.47,6,6,0,0,0,.32-2.17V35.51h1.58v9.42h-1.49V43.54a3,3,0,0,1-.75.9,3.21,3.21,0,0,1-2.15.74,2.76,2.76,0,0,1-2.69-1.34,4.08,4.08,0,0,1-.39-1.93v-6.4Zm4.06-3.78-2.35,2.54h-1.21l1.61-2.54Z"/><path class="cls-1" d="M188.25,32h1.58V44.93h-1.58Z"/><path class="cls-1" d="M192.52,32.89h1.6v2.62h1.5v1.3h-1.5V43a.67.67,0,0,0,.33.66,1.55,1.55,0,0,0,.62.09h.25l.3,0v1.26a3.47,3.47,0,0,1-.56.11,6.28,6.28,0,0,1-.64,0,1.7,1.7,0,0,1-1.5-.57,2.48,2.48,0,0,1-.4-1.47V36.81h-1.27v-1.3h1.27Z"/><path class="cls-1" d="M197.21,32h1.6v1.79h-1.6Zm0,3.54h1.6v9.37h-1.6Z"/><path class="cls-1" d="M201.07,35.56h1.55v1.25a3.91,3.91,0,0,1,1-1,3.34,3.34,0,0,1,1.88-.53,3.56,3.56,0,0,1,2.73,1.23,5.06,5.06,0,0,1,1.12,3.5q0,3.08-1.62,4.4a3.67,3.67,0,0,1-2.38.83,3.24,3.24,0,0,1-1.79-.46,4.32,4.32,0,0,1-.95-.91v4.81h-1.58Zm6,7.38a4.37,4.37,0,0,0,.74-2.78,5.09,5.09,0,0,0-.33-1.93,2.39,2.39,0,0,0-4.51.09,6.4,6.4,0,0,0-.33,2.23,4.64,4.64,0,0,0,.33,1.85,2.24,2.24,0,0,0,2.26,1.46A2.27,2.27,0,0,0,207,42.94Z"/><path class="cls-1" d="M211.26,32h1.58V44.93h-1.58Z"/><path class="cls-1" d="M222,36.45A4.73,4.73,0,0,1,223.28,40a6.12,6.12,0,0,1-1.1,3.76,4,4,0,0,1-3.41,1.48A3.83,3.83,0,0,1,215.71,44a5.2,5.2,0,0,1-1.14-3.53,5.59,5.59,0,0,1,1.2-3.77A4,4,0,0,1,219,35.24,4.2,4.2,0,0,1,222,36.45Zm-1,6.26a5.92,5.92,0,0,0,.58-2.65,4.71,4.71,0,0,0-.42-2.14,2.33,2.33,0,0,0-2.27-1.3,2.24,2.24,0,0,0-2.09,1.11,5.18,5.18,0,0,0-.65,2.67,4.53,4.53,0,0,0,.65,2.5,2.29,2.29,0,0,0,2.07,1A2.15,2.15,0,0,0,221.05,42.71Z"/><path class="cls-1" d="M11.5,32V28.9a2.15,2.15,0,0,1,2.09-2.2H63.36a2.15,2.15,0,0,1,2.09,2.2V32s0,0,0,0h-1a1.67,1.67,0,0,0,.07,3.33h1V40H64.39a1.67,1.67,0,0,0,.07,3.33h1V48H64.39a1.67,1.67,0,0,0,.07,3.33h1v3a2.16,2.16,0,0,1-2.09,2.21H13.59a2.16,2.16,0,0,1-2.09-2.21v-3h1.05a1.63,1.63,0,0,0,1.57-1.87A1.66,1.66,0,0,0,12.49,48h-1V43.34h1.05a1.63,1.63,0,0,0,1.57-1.87A1.66,1.66,0,0,0,12.49,40h-1V35.3h1.05a1.63,1.63,0,0,0,1.57-1.87A1.66,1.66,0,0,0,12.49,32h-1A0,0,0,0,1,11.5,32Zm51.83-2s0,0,0,0v-1s0,0,0,0H13.62s0,0,0,0v1s0,0,0,0a3.94,3.94,0,0,1,0,7.43s0,0,0,0v.57s0,0,0,0a3.94,3.94,0,0,1,0,7.43s0,0,0,0V46s0,0,0,0a3.94,3.94,0,0,1,0,7.43s0,0,0,0v1s0,0,0,0H63.33s0,0,0,0v-1s0,0,0,0a3.94,3.94,0,0,1,0-7.43s0,0,0,0V45.4s0,0,0,0a3.94,3.94,0,0,1,0-7.43s0,0,0,0v-.57s0,0,0,0a3.94,3.94,0,0,1,0-7.43Zm7.18-3.49h1a0,0,0,0,0,0,0v-3a2.15,2.15,0,0,0-2.09-2.2H19.64a2.15,2.15,0,0,0-2.09,2.2h0a0,0,0,0,0,0,0H69.39v1h0a4,4,0,0,0,0,7.44h0v.58h0a4,4,0,0,0,0,7.44h0v.58h0a4,4,0,0,0,0,7.44h0v3.19h0a2.15,2.15,0,0,0,2.09-2.2v-3a0,0,0,0,0,0,0h-1a1.66,1.66,0,0,1-1.63-1.45,1.63,1.63,0,0,1,1.57-1.87h1a0,0,0,0,0,0,0v-4.7h-1a1.66,1.66,0,0,1-1.63-1.45,1.63,1.63,0,0,1,1.57-1.87h1a0,0,0,0,0,0,0V29.76a0,0,0,0,0,0,0h-1a1.63,1.63,0,0,1-1.57-1.86A1.66,1.66,0,0,1,70.51,26.42Z"/><path class="cls-1" d="M36.6,94.78H22v14.6H36.6ZM34.17,107H24.43V97.21h9.74Z"/><path class="cls-1" d="M26.87,99.65h4.86v4.86H26.87Z"/><path class="cls-1" d="M22,133.71H36.6v-14.6H22Zm2.43-12.17h9.74v9.74H24.43Z"/><path class="cls-1" d="M26.87,124h4.86v4.86H26.87Z"/><path class="cls-1" d="M46.33,94.78v14.6h14.6V94.78ZM58.5,107H48.76V97.21H58.5Z"/><path class="cls-1" d="M51.2,99.65h4.86v4.86H51.2Z"/><path class="cls-1" d="M26.87,111.81H22v4.87h7.3v-2.44H26.87Z"/><path class="cls-1" d="M39,116.68H43.9v4.86H39Z"/><path class="cls-1" d="M29.3,111.81h4.87v2.43H29.3Z"/><path class="cls-1" d="M43.9,124H39v2.43h2.43v2.43H43.9V124Z"/><path class="cls-1" d="M36.6,111.81v2.43H34.17v2.44H39v-4.87Z"/><path class="cls-1" d="M41.46,104.51H43.9v4.87H41.46Z"/><path class="cls-1" d="M43.9,114.24v2.44h4.86v-4.87h-7.3v2.43Z"/><path class="cls-1" d="M39,109.38h2.43v2.43H39Z"/><path class="cls-1" d="M43.9,128.84h4.86v4.87H43.9Z"/><path class="cls-1" d="M39,128.84h2.43v4.87H39Z"/><path class="cls-1" d="M43.9,121.54h2.43V124H43.9Z"/><path class="cls-1" d="M43.9,102.08V97.21H41.46V94.78H39v9.73h2.43v-2.43Z"/><path class="cls-1" d="M51.2,128.84h2.43v4.87H51.2Z"/><path class="cls-1" d="M51.2,124h4.86v2.43H51.2Z"/><path class="cls-1" d="M48.76,126.41H51.2v2.43H48.76Z"/><path class="cls-1" d="M46.33,124h2.43v2.43H46.33Z"/><path class="cls-1" d="M56.06,119.11v2.43H58.5V124h2.43v-4.87H56.06Z"/><path class="cls-1" d="M58.5,126.41H56.06v7.3h4.87v-4.87H58.5Z"/><path class="cls-1" d="M46.33,119.11v2.43h7.3v-4.86H48.76v2.43Z"/><path class="cls-1" d="M51.2,111.81v2.43h4.86v2.44h4.87v-4.87H51.2Z"/><polygon class="cls-1" points="24.36 139.28 16.5 139.28 16.5 131.42 18.79 131.42 18.79 136.99 24.36 136.99 24.36 139.28"/><polygon class="cls-1" points="18.79 97.14 16.5 97.14 16.5 89.28 24.36 89.28 24.36 91.57 18.79 91.57 18.79 97.14"/><polygon class="cls-1" points="66.5 97.14 64.21 97.14 64.21 91.57 58.64 91.57 58.64 89.28 66.5 89.28 66.5 97.14"/><polygon class="cls-1" points="66.5 139.28 58.64 139.28 58.64 136.99 64.21 136.99 64.21 131.42 66.5 131.42 66.5 139.28"/><path class="cls-1" d="M29.74,188.62a1.09,1.09,0,0,0,.4-.48,8.1,8.1,0,0,0,.24-2.22h0v-.14c0-.9-.1-3.29-2.35-4.06l-.07,0A12.87,12.87,0,0,1,24.3,180a1,1,0,0,0-1.08-.06,4.4,4.4,0,0,0,1-.81c1.86-2.1,1.57-5.62,1.53-6a5,5,0,0,0-2.42-4.48,5.54,5.54,0,0,0-2.69-.7h0a5.51,5.51,0,0,0-2.66.68,5,5,0,0,0-2.44,4.48c0,.39-.33,3.91,1.53,6a4.27,4.27,0,0,0,.89.76,1.05,1.05,0,0,0-1,.1,12.45,12.45,0,0,1-3.65,1.67l-.08,0c-2.24.77-2.31,3.16-2.34,4.08v.12a7.53,7.53,0,0,0,.26,2.22,1,1,0,0,0,.39.48,17.82,17.82,0,0,0,9.14,2.25A17.84,17.84,0,0,0,29.74,188.62Zm-9.13-18.57c1.34,0,3,.62,3.08,3.22v.15c0,.43.18,3-1,4.39a2.6,2.6,0,0,1-2.09.85,2.6,2.6,0,0,1-2.05-.85c-1.29-1.44-1.05-4.28-1-4.44v-.08c.13-2.82,2-3.24,3.07-3.24v-.4h0Zm-.1,10.65h.16a5,5,0,0,0,2.44-.64.8.8,0,0,0-.23.22,1,1,0,0,0,.25,1.43,14.36,14.36,0,0,0,4.26,1.95c.74.26.91,1,.95,2.18V186a8.47,8.47,0,0,1-.05,1.13,16.7,16.7,0,0,1-7.69,1.72,16.6,16.6,0,0,1-7.69-1.73,7.65,7.65,0,0,1-.06-1.18v-.07c0-1.16.21-1.93.92-2.18a15.13,15.13,0,0,0,4.3-2,1,1,0,0,0,.25-1.42,1,1,0,0,0-.17-.18A5,5,0,0,0,20.51,180.7Z"/><path class="cls-1" d="M51.17,188.14a8.1,8.1,0,0,0,.24-2.22h0v-.14c0-.9-.1-3.29-2.35-4.06l-.07,0A12.87,12.87,0,0,1,45.33,180a1,1,0,0,0-1.07-.06,4.59,4.59,0,0,0,1-.81c1.86-2.1,1.57-5.62,1.53-6a5,5,0,0,0-2.42-4.48,5.54,5.54,0,0,0-2.69-.7h0a5.51,5.51,0,0,0-2.66.68,5,5,0,0,0-2.44,4.48c0,.39-.33,3.91,1.53,6a4.27,4.27,0,0,0,.89.76,1.06,1.06,0,0,0-1,.1,12.45,12.45,0,0,1-3.65,1.67l-.08,0c-2.24.77-2.31,3.16-2.34,4.08v.12a7.53,7.53,0,0,0,.26,2.22,1,1,0,0,0,.4.48,17.73,17.73,0,0,0,9.14,2.25,17.87,17.87,0,0,0,9.13-2.25A1.09,1.09,0,0,0,51.17,188.14Zm-9.53-18.09c1.34,0,3,.62,3.08,3.22v.15c0,.43.18,3-1,4.39a2.95,2.95,0,0,1-4.14,0c-1.29-1.44-1-4.3-1-4.45v-.07c.13-2.82,2-3.24,3.06-3.24v-.4h0Zm-.1,10.65h.16a4.91,4.91,0,0,0,2.43-.64.92.92,0,0,0-.22.22,1,1,0,0,0,.25,1.43,14.36,14.36,0,0,0,4.26,1.95c.74.26.92,1,.95,2.18a.66.66,0,0,0,0,.14,10.69,10.69,0,0,1-.06,1.13,16.7,16.7,0,0,1-7.69,1.72,16.6,16.6,0,0,1-7.69-1.73,7.65,7.65,0,0,1-.06-1.18.56.56,0,0,1,0-.07c0-1.16.2-1.93.91-2.18a15,15,0,0,0,4.3-2,1,1,0,0,0,.42-.66,1,1,0,0,0-.34-.94A5,5,0,0,0,41.54,180.7Z"/><path class="cls-1" d="M72.19,185.92h0a.19.19,0,0,0,0-.08v-.06c0-.9-.1-3.29-2.34-4.06l-.08,0A13,13,0,0,1,66.1,180,1,1,0,0,0,65,180a4.59,4.59,0,0,0,1-.81c1.86-2.1,1.57-5.62,1.54-6a5.06,5.06,0,0,0-2.42-4.48,5.54,5.54,0,0,0-2.69-.7h-.05a5.48,5.48,0,0,0-2.65.68,5,5,0,0,0-2.45,4.48c0,.39-.32,3.91,1.53,6a4.54,4.54,0,0,0,.89.76,1,1,0,0,0-1,.1A12.75,12.75,0,0,1,55,181.7l-.07,0c-2.25.77-2.32,3.16-2.35,4.08,0,0,0,0,0,.06v.06a7.53,7.53,0,0,0,.26,2.22,1,1,0,0,0,.39.48,17.78,17.78,0,0,0,9.14,2.25,17.84,17.84,0,0,0,9.14-2.25,1,1,0,0,0,.39-.48A7.8,7.8,0,0,0,72.19,185.92Zm-9.78-15.87c1.34,0,3,.62,3.08,3.22v.15c0,.43.18,3-1,4.39a2.95,2.95,0,0,1-4.14,0c-1.29-1.44-1-4.28-1-4.44v-.08c.13-2.82,2-3.24,3.07-3.24v-.4h0Zm-.09,10.65h.16a4.93,4.93,0,0,0,2.43-.64,1.19,1.19,0,0,0-.23.22,1,1,0,0,0,.25,1.43,14.64,14.64,0,0,0,4.27,1.95c.74.26.91,1,1,2.18V186a10.55,10.55,0,0,1-.06,1.13,18,18,0,0,1-15.38,0,9.16,9.16,0,0,1-.05-1.18v-.07c0-1.16.21-1.93.91-2.18a14.85,14.85,0,0,0,4.3-2,1,1,0,0,0,.25-1.42.93.93,0,0,0-.16-.18A5,5,0,0,0,62.32,180.7Z"/><path class="cls-1" d="M29.87,191.45a6,6,0,0,0-2.94.76,5.56,5.56,0,0,0-2.71,4.95c0,.44-.36,4.35,1.7,6.68a5.11,5.11,0,0,0,3.89,1.69H30a5.11,5.11,0,0,0,3.89-1.69c2.07-2.33,1.75-6.24,1.71-6.66-.14-2.91-1.53-4.3-2.68-5a6.15,6.15,0,0,0-2.94-.78Zm.05,12.3-.05-.4a3,3,0,0,1-2.32-1c-1.46-1.64-1.18-4.84-1.17-5v-.07c.15-3.19,2.24-3.67,3.5-3.67h0c1.51,0,3.34.7,3.48,3.65a.54.54,0,0,0,0,.11c0,.31.26,3.39-1.16,5a2.94,2.94,0,0,1-2.33,1v.4Zm0-11.89Z"/><path class="cls-1" d="M40.37,211.42l.41,0v-.14c0-1-.11-3.65-2.58-4.49l-.08,0a14.54,14.54,0,0,1-4.1-1.86,1,1,0,0,0-.82-.18,1.12,1.12,0,0,0-.7.44,1,1,0,0,0-.18.82,1.07,1.07,0,0,0,.44.7,15.87,15.87,0,0,0,4.76,2.18c.85.31,1,1.18,1.08,2.48a.76.76,0,0,0,0,.15,10.8,10.8,0,0,1-.07,1.29,18.46,18.46,0,0,1-8.62,2,18.59,18.59,0,0,1-8.63-2,8.35,8.35,0,0,1-.07-1.31v-.13c0-1.31.24-2.18,1.06-2.47a16.53,16.53,0,0,0,4.78-2.19,1.09,1.09,0,0,0-.44-2,1.07,1.07,0,0,0-.81.18,14,14,0,0,1-4.1,1.87l-.08,0c-2.48.85-2.56,3.5-2.59,4.51v.14a7.73,7.73,0,0,0,.29,2.46,1,1,0,0,0,.41.51,19.71,19.71,0,0,0,10.18,2.51,19.84,19.84,0,0,0,10.18-2.51,1.1,1.1,0,0,0,.42-.51,8.53,8.53,0,0,0,.27-2.46Z"/><path class="cls-1" d="M47.41,197.16c0,.44-.36,4.35,1.7,6.68A5.11,5.11,0,0,0,53,205.53h.18a5.13,5.13,0,0,0,3.89-1.69c2.06-2.33,1.74-6.24,1.7-6.66-.14-2.91-1.53-4.3-2.68-5a6.14,6.14,0,0,0-2.93-.78h-.1a6,6,0,0,0-2.94.76A5.56,5.56,0,0,0,47.41,197.16Zm9.19.24c0,.31.26,3.39-1.16,5a2.94,2.94,0,0,1-2.33,1v.4h0l0-.4a3,3,0,0,1-2.33-1c-1.45-1.64-1.18-4.84-1.16-5v-.07c.14-3.19,2.23-3.67,3.49-3.67h0c1.51,0,3.35.7,3.48,3.65A.54.54,0,0,0,56.6,197.4Zm-3.51-5.54Z"/><path class="cls-1" d="M63.57,211.42h0l.4,0v-.14c0-1-.11-3.65-2.59-4.49l-.08,0a14.54,14.54,0,0,1-4.1-1.86,1,1,0,0,0-.81-.18,1.12,1.12,0,0,0-.71.44,1.08,1.08,0,0,0-.18.82,1,1,0,0,0,.45.7,15.61,15.61,0,0,0,4.75,2.18c.85.31,1,1.18,1.09,2.48v.15a9,9,0,0,1-.07,1.29,18.46,18.46,0,0,1-8.62,2,18.63,18.63,0,0,1-8.63-2,9.76,9.76,0,0,1-.07-1.31v0s0-.06,0-.08c0-1.31.23-2.18,1.05-2.47a16.77,16.77,0,0,0,4.79-2.19,1.09,1.09,0,0,0,.26-1.52,1.1,1.1,0,0,0-1.52-.27,14,14,0,0,1-4.1,1.87l-.08,0c-2.47.85-2.55,3.5-2.58,4.51a.22.22,0,0,1,0,.08v.06a8,8,0,0,0,.29,2.46,1.05,1.05,0,0,0,.42.51,19.6,19.6,0,0,0,10.17,2.51,19.84,19.84,0,0,0,10.18-2.51,1.1,1.1,0,0,0,.42-.51,8.18,8.18,0,0,0,.27-2.46Z"/><path class="cls-1" d="M34.6,263.84H18a5.74,5.74,0,0,0-5.73,5.73v16.61A5.74,5.74,0,0,0,18,291.91H34.6a5.73,5.73,0,0,0,5.72-5.73V269.57A5.73,5.73,0,0,0,34.6,263.84Zm3.09,5.73v16.61a3.1,3.1,0,0,1-3.09,3.09H18a3.09,3.09,0,0,1-3.09-3.09V269.57A3.09,3.09,0,0,1,18,266.48H34.6A3.09,3.09,0,0,1,37.69,269.57Z"/><path class="cls-1" d="M69.06,252,57.32,240.29a5.75,5.75,0,0,0-8.1,0L37.48,252a5.72,5.72,0,0,0,0,8.1l11.74,11.74a5.72,5.72,0,0,0,8.1,0l11.74-11.74a5.72,5.72,0,0,0,0-8.1Zm-1,4a3.07,3.07,0,0,1-.9,2.18L55.45,270a3.1,3.1,0,0,1-4.37,0L39.34,258.27a3.08,3.08,0,0,1,0-4.37l11.74-11.74a3.08,3.08,0,0,1,4.37,0L67.2,253.9A3.08,3.08,0,0,1,68.1,256.09Z"/><path class="cls-1" d="M33.34,282.71a2.05,2.05,0,1,0,2,2.05A2.05,2.05,0,0,0,33.34,282.71Z"/><path class="cls-1" d="M26.29,275.83a2,2,0,1,0,2.05,2A2,2,0,0,0,26.29,275.83Z"/><path class="cls-1" d="M19.76,282.71a2.05,2.05,0,1,0,2,2.05A2.05,2.05,0,0,0,19.76,282.71Z"/><path class="cls-1" d="M19.76,268.71a2.05,2.05,0,1,0,2,2.05A2.05,2.05,0,0,0,19.76,268.71Z"/><path class="cls-1" d="M43.61,253.63a2,2,0,0,0-2,2.05,2,2,0,0,0,2,2,2.07,2.07,0,0,0,1.45-.59,2,2,0,0,0,.6-1.45,2,2,0,0,0-2-2.05Z"/><path class="cls-1" d="M63.12,253.93a2.05,2.05,0,0,0-1.45,3.5,2.07,2.07,0,0,0,1.45.59,2.1,2.1,0,0,0,1.45-.59,2.07,2.07,0,0,0,.6-1.45,2,2,0,0,0-.61-1.45A2,2,0,0,0,63.12,253.93Z"/><path class="cls-1" d="M33.34,268.71a2.05,2.05,0,1,0,2,2.05A2.05,2.05,0,0,0,33.34,268.71Z"/><path class="cls-1" d="M53.27,254a2,2,0,0,0-1.45.6,2.05,2.05,0,0,0,0,2.9,2.08,2.08,0,0,0,2.9,0,2.05,2.05,0,0,0,0-2.9A2,2,0,0,0,53.27,254Z"/></svg>