<svg id="Camada_1" data-name="Camada 1" xmlns="http://www.w3.org/2000/svg" viewBox="0 0 922.38 541.99"><defs><style>.cls-1{font-size:11px;font-family:Blokletters-Balpen, Blokletters Balpen;}.cls-1,.cls-2{fill:#606060;}.cls-3{fill:none;stroke:#cacaca;stroke-miterlimit:10;}.cls-4{letter-spacing:-0.01em;}.cls-5{letter-spacing:0em;}.cls-6{letter-spacing:-0.1em;}.cls-7{letter-spacing:-0.02em;}.cls-8{letter-spacing:0em;}.cls-9{letter-spacing:-0.02em;}.cls-10{letter-spacing:-0.01em;}.cls-11{letter-spacing:-0.05em;}</style></defs><title>FERRA</title><text class="cls-1" transform="translate(815.85 134.23)">Sorteios</text><path class="cls-2" d="M673.09,224.59H638.61a6.25,6.25,0,0,0-6.25,6.25v28.54l-4-3.95a1.5,1.5,0,1,0-2.12,2.11l6.53,6.53a1.51,1.51,0,0,0,2.13,0l6.53-6.53a1.5,1.5,0,1,0-2.12-2.11l-4,4V230.84a3.25,3.25,0,0,1,3.26-3.25H673.1a3.25,3.25,0,0,1,3.26,3.25V235a1.51,1.51,0,0,0,3,0v-4.17A6.32,6.32,0,0,0,673.09,224.59Z"/><path class="cls-2" d="M676.77,241.64l-6.52,6.53a1.48,1.48,0,0,0,0,2.11,1.45,1.45,0,0,0,1.06.44,1.49,1.49,0,0,0,1.07-.44l4-4v28.53a3.25,3.25,0,0,1-3.25,3.26H638.61a3.25,3.25,0,0,1-3.25-3.26v-4.16a1.51,1.51,0,0,0-3,0v4.16a6.26,6.26,0,0,0,6.26,6.26h34.46a6.26,6.26,0,0,0,6.26-6.26V246.32l4,4a1.49,1.49,0,1,0,2.11-2.11l-6.52-6.53A1.53,1.53,0,0,0,676.77,241.64Z"/><path class="cls-2" d="M655.85,239.58a1.52,1.52,0,0,0-1.51,1.51v2.3h-.19a5.48,5.48,0,0,0,0,11h3.38a2.49,2.49,0,0,1,0,4.94h-6.07a1.51,1.51,0,1,0,0,3h2.88v2.34a1.51,1.51,0,0,0,3,0v-2.35h.25a5.48,5.48,0,0,0-.07-10.94h-3.38a2.49,2.49,0,0,1,0-5h6a1.51,1.51,0,1,0,0-3h-2.76v-2.3A1.53,1.53,0,0,0,655.85,239.58Z"/><path class="cls-2" d="M833.08,96.52H811.63A6.67,6.67,0,0,1,805,89.87V68.41a6.66,6.66,0,0,1,6.65-6.64h21.45a6.65,6.65,0,0,1,6.65,6.64V89.87A6.65,6.65,0,0,1,833.08,96.52ZM811.63,63.67a4.75,4.75,0,0,0-4.75,4.74V89.87a4.75,4.75,0,0,0,4.75,4.75h21.45a4.75,4.75,0,0,0,4.75-4.75V68.41a4.75,4.75,0,0,0-4.75-4.74Zm45.57,9.14a6.64,6.64,0,0,1-4.7-1.94L837.33,55.7a6.66,6.66,0,0,1,0-9.4L852.5,31.13a6.64,6.64,0,0,1,9.4,0L877.07,46.3a6.66,6.66,0,0,1,0,9.4L861.9,70.87A6.6,6.6,0,0,1,857.2,72.81Zm0-41.73a4.67,4.67,0,0,0-3.35,1.39L838.67,47.64a4.75,4.75,0,0,0,0,6.71l15.18,15.18a4.74,4.74,0,0,0,6.71,0l15.17-15.18a4.75,4.75,0,0,0,0-6.71L860.56,32.47A4.71,4.71,0,0,0,857.2,31.08Z"/><path class="cls-2" d="M833.08,97H811.63a7.14,7.14,0,0,1-7.13-7.13V68.41a7.13,7.13,0,0,1,7.13-7.12h21.45a7.13,7.13,0,0,1,7.13,7.12V89.87A7.13,7.13,0,0,1,833.08,97ZM811.63,62.25a6.17,6.17,0,0,0-6.16,6.16V89.87A6.16,6.16,0,0,0,811.63,96h21.45a6.17,6.17,0,0,0,6.17-6.16V68.41a6.18,6.18,0,0,0-6.17-6.16ZM833.08,95.1H811.63a5.23,5.23,0,0,1-5.23-5.23V68.41a5.23,5.23,0,0,1,5.23-5.23h21.45a5.23,5.23,0,0,1,5.23,5.23V89.87A5.23,5.23,0,0,1,833.08,95.1ZM811.63,64.15a4.26,4.26,0,0,0-4.26,4.26V89.87a4.26,4.26,0,0,0,4.26,4.26h21.45a4.27,4.27,0,0,0,4.27-4.26V68.41a4.27,4.27,0,0,0-4.27-4.26ZM857.2,73.3a7.08,7.08,0,0,1-5-2.09L837,56A7.15,7.15,0,0,1,837,46l15.17-15.17a7.12,7.12,0,0,1,10.08,0L877.42,46a7.15,7.15,0,0,1,0,10.08L862.24,71.21A7,7,0,0,1,857.2,73.3Zm0-43.64a6.13,6.13,0,0,0-4.35,1.81L837.67,46.64a6.17,6.17,0,0,0,0,8.71l15.18,15.18a6.17,6.17,0,0,0,8.71,0l15.17-15.18a6.17,6.17,0,0,0,0-8.71L861.56,31.47A6.14,6.14,0,0,0,857.2,29.66Zm0,41.74a5.2,5.2,0,0,1-3.7-1.53L838.33,54.7a5.24,5.24,0,0,1,0-7.4L853.5,32.13a5.24,5.24,0,0,1,7.4,0L876.07,47.3a5.24,5.24,0,0,1,0,7.4L860.9,69.87A5.19,5.19,0,0,1,857.2,71.4Zm0-39.84a4.24,4.24,0,0,0-3,1.25L839,48a4.26,4.26,0,0,0,0,6l15.17,15.17a4.26,4.26,0,0,0,6,0L875.39,54a4.29,4.29,0,0,0,0-6L860.22,32.81A4.28,4.28,0,0,0,857.2,31.56Z"/><path class="cls-2" d="M831.45,86.63A1.41,1.41,0,1,0,832.86,88,1.41,1.41,0,0,0,831.45,86.63Zm-17.54,0A1.41,1.41,0,1,0,815.33,88,1.41,1.41,0,0,0,813.91,86.63Zm8.45-8.9a1.41,1.41,0,1,0,1.41,1.41A1.41,1.41,0,0,0,822.36,77.73Zm9.09-9.19A1.41,1.41,0,1,0,832.86,70,1.41,1.41,0,0,0,831.45,68.54Zm-17.54,0A1.41,1.41,0,1,0,815.33,70,1.41,1.41,0,0,0,813.91,68.54Zm43.29-19a1.41,1.41,0,0,0-1,2.41,1.46,1.46,0,0,0,2,0,1.41,1.41,0,0,0,.41-1,1.4,1.4,0,0,0-1.41-1.41Zm12.72-.15a1.38,1.38,0,0,0-1,.42,1.41,1.41,0,0,0,0,2,1.42,1.42,0,0,0,2,0,1.41,1.41,0,0,0,0-2A1.38,1.38,0,0,0,869.92,49.44Zm-25.19-.38a1.39,1.39,0,0,0-1,.41,1.42,1.42,0,0,0,0,2,1.46,1.46,0,0,0,2,0,1.42,1.42,0,0,0,0-2A1.39,1.39,0,0,0,844.73,49.06Z"/><path class="cls-2" d="M831.45,90.42A2.38,2.38,0,1,1,833.83,88,2.39,2.39,0,0,1,831.45,90.42Zm0-2.83a.45.45,0,1,0,.45.45A.45.45,0,0,0,831.45,87.59Zm-17.54,2.83A2.38,2.38,0,1,1,816.29,88,2.38,2.38,0,0,1,813.91,90.42Zm0-2.83a.45.45,0,1,0,.45.45A.45.45,0,0,0,813.91,87.59Zm8.45-6.07a2.38,2.38,0,1,1,2.38-2.38A2.38,2.38,0,0,1,822.36,81.52Zm0-2.82a.45.45,0,1,0,.44.44A.45.45,0,0,0,822.36,78.7Zm9.09-6.37A2.38,2.38,0,1,1,833.83,70,2.39,2.39,0,0,1,831.45,72.33Zm0-2.82a.44.44,0,1,0,.45.44A.44.44,0,0,0,831.45,69.51Zm-17.54,2.82A2.38,2.38,0,1,1,816.29,70,2.38,2.38,0,0,1,813.91,72.33Zm0-2.82a.44.44,0,1,0,.45.44A.44.44,0,0,0,813.91,69.51ZM857.2,53.36a2.37,2.37,0,0,1,0-4.74,2.38,2.38,0,0,1,1.68,4.06A2.34,2.34,0,0,1,857.2,53.36Zm0-2.81a.44.44,0,0,0-.31.13.45.45,0,0,0,0,.63.47.47,0,0,0,.63,0,.44.44,0,0,0,.13-.31.44.44,0,0,0-.45-.45Zm12.72,2.67a2.42,2.42,0,0,1-1.68-.68,2.38,2.38,0,1,1,3.37,0A2.42,2.42,0,0,1,869.92,53.22Zm0-2.81a.46.46,0,0,0-.31.13.46.46,0,0,0-.13.32.44.44,0,0,0,.13.31.5.5,0,0,0,.63,0,.44.44,0,0,0,.13-.31.46.46,0,0,0-.13-.32A.48.48,0,0,0,869.92,50.41Zm-25.19,2.42a2.4,2.4,0,0,1-1.68-.68,2.38,2.38,0,0,1,0-3.37,2.4,2.4,0,0,1,1.68-.69,2.37,2.37,0,1,1,0,4.74Zm0-2.81a.44.44,0,0,0-.31.13.48.48,0,0,0-.13.32.44.44,0,0,0,.13.31.5.5,0,0,0,.63,0,.44.44,0,0,0,.13-.31.44.44,0,0,0-.45-.45Z"/><path class="cls-2" d="M864.86,243.32l9.52-8.57a1.25,1.25,0,0,0,.43-1,1.27,1.27,0,0,0-.42-.95l-9.53-8.58h-20.4v-2.11a1.06,1.06,0,0,0-2.12,0v2.11H823.7a3.6,3.6,0,0,0-3.59,3.6v11.86a3.6,3.6,0,0,0,3.59,3.6h18.64v2.57H824.76l-9.52,8.57a1.29,1.29,0,0,0,0,1.92l9.52,8.57h17.58v18.6a1.06,1.06,0,0,0,2.12,0V265h21.81a3.6,3.6,0,0,0,3.6-3.6V249.49a3.6,3.6,0,0,0-3.6-3.6H844.46v-2.57Zm2.89,6.17v11.86a1.48,1.48,0,0,1-1.48,1.48H825.58l-8.24-7.41,8.24-7.41h40.69A1.48,1.48,0,0,1,867.75,249.49Zm-45.53-9.77V227.86a1.48,1.48,0,0,1,1.48-1.48h40.35l8.23,7.41-8.23,7.41H823.7A1.48,1.48,0,0,1,822.22,239.72Z"/><rect class="cls-3" x="765" width="154" height="160" rx="15" ry="15"/><text class="cls-1" transform="translate(427.91 125.23)">Re<tspan class="cls-4" x="15.53" y="0">g</tspan><tspan class="cls-5" x="22.6" y="0">istro de</tspan><tspan x="15.15" y="18">acesso</tspan></text><path class="cls-2" d="M457.63,37.5h-19v19h19Zm-3.17,15.81H441.81V40.66h12.65Z"/><path class="cls-2" d="M445,43.82h6.32v6.33H445Z"/><path class="cls-2" d="M438.65,88.11h19v-19h-19Zm3.16-15.82h12.65V84.94H441.81Z"/><path class="cls-2" d="M445,75.45h6.32v6.33H445Z"/><path class="cls-2" d="M470.28,37.5v19h19v-19Zm15.81,15.81H473.44V40.66h12.65Z"/><path class="cls-2" d="M476.61,43.82h6.32v6.33h-6.32Z"/><path class="cls-2" d="M445,59.64h-6.33V66h9.49V62.8H445Z"/><path class="cls-2" d="M460.79,66h6.33v6.33h-6.33Z"/><path class="cls-2" d="M448.14,59.64h6.32V62.8h-6.32Z"/><path class="cls-2" d="M467.12,75.45h-6.33v3.17H464v3.16h3.17V75.45Z"/><path class="cls-2" d="M457.63,59.64V62.8h-3.17V66h6.33V59.64Z"/><path class="cls-2" d="M464,50.15h3.17v6.33H464Z"/><path class="cls-2" d="M467.12,62.8V66h6.32V59.64H464V62.8Z"/><path class="cls-2" d="M460.79,56.48H464v3.16h-3.16Z"/><path class="cls-2" d="M467.12,81.78h6.32v6.33h-6.32Z"/><path class="cls-2" d="M460.79,81.78H464v6.33h-3.16Z"/><path class="cls-2" d="M467.12,72.29h3.16v3.16h-3.16Z"/><path class="cls-2" d="M467.12,47V40.66H464V37.5h-3.16V50.15H464V47Z"/><path class="cls-2" d="M476.61,81.78h3.16v6.33h-3.16Z"/><path class="cls-2" d="M476.61,75.45h6.32v3.17h-6.32Z"/><path class="cls-2" d="M473.44,78.62h3.17v3.16h-3.17Z"/><path class="cls-2" d="M470.28,75.45h3.16v3.17h-3.16Z"/><path class="cls-2" d="M482.93,69.13v3.16h3.16v3.16h3.17V69.13h-6.33Z"/><path class="cls-2" d="M486.09,78.62h-3.16v9.49h6.33V81.78h-3.17Z"/><path class="cls-2" d="M470.28,69.13v3.16h9.49V66h-6.33v3.17Z"/><path class="cls-2" d="M476.61,59.64V62.8h6.32V66h6.33V59.64H476.61Z"/><polygon class="cls-2" points="441.71 95.35 431.5 95.35 431.5 85.13 434.47 85.13 434.47 92.38 441.71 92.38 441.71 95.35"/><polygon class="cls-2" points="434.47 40.56 431.5 40.56 431.5 30.35 441.71 30.35 441.71 33.32 434.47 33.32 434.47 40.56"/><polygon class="cls-2" points="496.5 40.56 493.53 40.56 493.53 33.32 486.29 33.32 486.29 30.35 496.5 30.35 496.5 40.56"/><polygon class="cls-2" points="496.5 95.35 486.29 95.35 486.29 92.38 493.53 92.38 493.53 85.13 496.5 85.13 496.5 95.35"/><rect class="cls-3" x="387" width="154" height="160" rx="15" ry="15"/><text class="cls-1" transform="translate(241.85 125.23)"><tspan class="cls-6">V</tspan><tspan x="6.99" y="0">enda com</tspan><tspan x="-20.23" y="18">m</tspan><tspan class="cls-4" x="-10.02" y="18">a</tspan><tspan x="-2.71" y="18">pa de assen</tspan><tspan class="cls-7" x="73.29" y="18">t</tspan><tspan class="cls-8" x="79.46" y="18">o</tspan></text><rect class="cls-3" x="198" width="154" height="160" rx="15" ry="15"/><text class="cls-1" transform="translate(816.61 315.23)">Letreiro<tspan x="9.15" y="18">visual</tspan></text><rect class="cls-3" x="765" y="190" width="154" height="160" rx="15" ry="15"/><text class="cls-1" transform="translate(632.53 315.23)">Lojinha*<tspan x="4.15" y="18">virtual</tspan></text><rect class="cls-3" x="579" y="190" width="154" height="160" rx="15" ry="15"/><path class="cls-2" d="M492.41,228.12H443.29a8,8,0,0,0-8,7.94v33.57a8,8,0,0,0,8,7.95H492.4a8,8,0,0,0,7.94-7.95V236.08A7.94,7.94,0,0,0,492.41,228.12Zm4.32,41.51a4.33,4.33,0,0,1-4.32,4.32H443.29a4.32,4.32,0,0,1-4.31-4.32V236.08a4.32,4.32,0,0,1,4.31-4.32H492.4a4.32,4.32,0,0,1,4.31,4.32v33.55Z"/><path class="cls-2" d="M476.34,252.43l15.89-14.25a1.82,1.82,0,0,0-2.43-2.71l-21.92,19.68-4.28-3.82s0,0,0,0a1.8,1.8,0,0,0-.29-.26l-17.41-15.57a1.82,1.82,0,0,0-2.42,2.72l16.09,14.37-16,15a1.82,1.82,0,0,0-.08,2.57,1.88,1.88,0,0,0,1.33.58,1.83,1.83,0,0,0,1.24-.49L462.27,255l4.41,3.94a1.81,1.81,0,0,0,1.21.46,1.79,1.79,0,0,0,1.21-.47l4.53-4.06,16.17,15.35a1.8,1.8,0,0,0,1.25.5,1.81,1.81,0,0,0,1.25-3.13Z"/><text class="cls-1" transform="translate(430.74 315.23)"><tspan class="cls-9">M</tspan><tspan x="9.99" y="0">ensa</tspan><tspan class="cls-4" x="38.46" y="0">g</tspan><tspan class="cls-5" x="45.53" y="0">ens</tspan><tspan x="5.08" y="18">e e-mails</tspan></text><rect class="cls-3" x="387" y="190" width="154" height="160" rx="15" ry="15"/><path class="cls-2" d="M247.59,237.42h.2a5.93,5.93,0,0,0,4.53-2c2.42-2.72,2-7.28,2-7.77-.16-3.39-1.78-5-3.12-5.77a7.28,7.28,0,0,0-7,0c-1.35.77-3,2.4-3.15,5.78-.05.51-.43,5.07,2,7.79A5.91,5.91,0,0,0,247.59,237.42Zm-4-9.51v-.08c.18-3.76,2.64-4.32,4.15-4.32,1.79,0,3.95.82,4.1,4.3V228c0,.54.25,4-1.37,5.81a4,4,0,0,1-5.54,0C243.22,231.88,243.53,228.11,243.55,227.91Z"/><path class="cls-2" d="M259.59,247.78a1.23,1.23,0,0,0,.49-.59,9.86,9.86,0,0,0,.31-2.86H260l.44,0v-.17c0-1.16-.13-4.25-3.1-5.25a16.93,16.93,0,0,1-4.8-2.19,1.25,1.25,0,0,0-.93-.21,1.25,1.25,0,0,0-.51,2.26,19.09,19.09,0,0,0,5.55,2.54c1,.36,1.25,1.39,1.29,2.92a.5.5,0,0,0,0,.15,13.24,13.24,0,0,1-.08,1.56,22.15,22.15,0,0,1-10.12,2.28,21.81,21.81,0,0,1-10.12-2.29,10.13,10.13,0,0,1-.08-1.55h-.45l.45-.13c.05-1.55.28-2.58,1.25-2.93a19.25,19.25,0,0,0,5.6-2.55,1.25,1.25,0,0,0-1.44-2.05,17,17,0,0,1-4.9,2.22c-2.87,1-3,4.06-3,5.23v.17a9.67,9.67,0,0,0,.34,2.87,1.16,1.16,0,0,0,.47.59c.05,0,4.46,2.93,11.9,2.93A23.12,23.12,0,0,0,259.59,247.78Z"/><path class="cls-2" d="M275.06,237.42h.2a5.93,5.93,0,0,0,4.53-2c2.41-2.71,2-7.28,2-7.77-.16-3.39-1.78-5-3.12-5.77a7.28,7.28,0,0,0-7,0c-1.35.77-3,2.4-3.15,5.78-.05.51-.43,5.08,2,7.79A5.91,5.91,0,0,0,275.06,237.42Zm-4-9.5v-.09c.18-3.76,2.64-4.32,4.15-4.32,1.79,0,3.94.82,4.1,4.3V228c0,.54.25,4-1.37,5.81a4,4,0,0,1-5.54,0C270.68,231.87,271,228.14,271,227.92Z"/><path class="cls-2" d="M287.55,247.19a9.75,9.75,0,0,0,.31-2.86h-.44l.44,0v-.17c0-1.16-.13-4.25-3.1-5.25a17,17,0,0,1-4.8-2.19,1.25,1.25,0,0,0-.94-.21,1.28,1.28,0,0,0-.81.51,1.26,1.26,0,0,0,.31,1.75,19.09,19.09,0,0,0,5.55,2.54c1,.36,1.25,1.39,1.29,2.92a.5.5,0,0,0,0,.15,13.13,13.13,0,0,1-.08,1.56,23.55,23.55,0,0,1-20.24,0,11.5,11.5,0,0,1-.08-1.55h-.45l.45-.13c0-1.55.28-2.58,1.25-2.93a19.25,19.25,0,0,0,5.6-2.55,1.25,1.25,0,0,0-1.44-2.05,16.77,16.77,0,0,1-4.9,2.22c-2.87,1-3,4.06-3,5.23v.17a9.46,9.46,0,0,0,.34,2.88,1.17,1.17,0,0,0,.47.58c.05,0,4.46,2.93,11.9,2.93a23.12,23.12,0,0,0,11.88-2.93A1.28,1.28,0,0,0,287.55,247.19Z"/><path class="cls-2" d="M302.19,237.42h.21a5.94,5.94,0,0,0,4.53-2c2.4-2.71,2-7.28,2-7.77-.16-3.39-1.78-5-3.11-5.77a7.28,7.28,0,0,0-7,0c-1.36.77-3,2.4-3.16,5.78-.05.51-.42,5.08,2,7.79A5.93,5.93,0,0,0,302.19,237.42Zm-4-9.5v-.09c.17-3.76,2.63-4.32,4.15-4.32,1.78,0,3.94.82,4.1,4.3V228c.05.54.24,4-1.37,5.81a3.95,3.95,0,0,1-5.53,0C297.82,231.87,298.14,228.14,298.16,227.92Z"/><path class="cls-2" d="M315,244.33h-.45l.45,0v-.17c0-1.16-.13-4.25-3.09-5.25a16.91,16.91,0,0,1-4.81-2.19,1.23,1.23,0,0,0-.93-.21,1.25,1.25,0,0,0-.51,2.26,19.22,19.22,0,0,0,5.56,2.54c1,.36,1.24,1.39,1.29,2.92v.15a11.31,11.31,0,0,1-.08,1.56,23.55,23.55,0,0,1-20.24,0,11.58,11.58,0,0,1-.08-1.55h-.44l.45-.13c0-1.55.28-2.58,1.25-2.93a19,19,0,0,0,5.59-2.55,1.26,1.26,0,0,0,.31-1.75,1.28,1.28,0,0,0-.81-.51,1.26,1.26,0,0,0-.94.21,16.81,16.81,0,0,1-4.89,2.22c-2.88,1-3,4.06-3,5.23v.17a9.3,9.3,0,0,0,.33,2.87,1.17,1.17,0,0,0,.48.59s4.46,2.93,11.89,2.93a23.14,23.14,0,0,0,11.89-2.93,1.21,1.21,0,0,0,.48-.59A10,10,0,0,0,315,244.33Z"/><path class="cls-2" d="M259.81,251.64a7.78,7.78,0,0,0-3.8,1c-1.5.84-3.32,2.65-3.5,6.41,0,.57-.46,5.65,2.2,8.65a6.56,6.56,0,0,0,5,2.19H260a6.57,6.57,0,0,0,5-2.19c2.67-3,2.26-8.08,2.2-8.63-.17-3.76-2-5.56-3.45-6.41a7.81,7.81,0,0,0-3.8-1Zm.06,2.69c2,0,4.45.93,4.63,4.84v.18c0,.57.29,4.47-1.55,6.54a4,4,0,0,1-3.16,1.28,3.92,3.92,0,0,1-3.09-1.28c-1.94-2.17-1.57-6.39-1.54-6.6v-.09C255.38,255,258.16,254.33,259.87,254.33Z"/><path class="cls-2" d="M273.53,277.63l.45,0v-.19c0-1.29-.14-4.7-3.42-5.82a18.49,18.49,0,0,1-5.38-2.45,1.35,1.35,0,0,0-1.55,2.2,20.94,20.94,0,0,0,6.19,2.84c1.16.41,1.42,1.57,1.48,3.31v.17a12.79,12.79,0,0,1-.09,1.77,26.28,26.28,0,0,1-22.69,0,13.08,13.08,0,0,1-.1-1.76H248l.45-.16c.05-1.74.32-2.91,1.44-3.31a21.35,21.35,0,0,0,6.22-2.84,1.37,1.37,0,0,0,.56-.88,1.33,1.33,0,0,0-.23-1,1.36,1.36,0,0,0-.87-.55,1.35,1.35,0,0,0-1,.23,18.64,18.64,0,0,1-5.47,2.48c-3.18,1.09-3.28,4.5-3.32,5.79v.19a10.65,10.65,0,0,0,.37,3.19,1.28,1.28,0,0,0,.51.63s5,3.26,13.25,3.26c7.89,0,12.72-2.92,13.25-3.26a1.34,1.34,0,0,0,.52-.63,11.54,11.54,0,0,0,.35-3.18Z"/><path class="cls-2" d="M282.81,259c-.06.57-.48,5.64,2.2,8.65a6.54,6.54,0,0,0,5,2.19h.23a6.56,6.56,0,0,0,5-2.19c2.68-3,2.26-8.08,2.2-8.63-.17-3.76-2-5.56-3.45-6.41a7.77,7.77,0,0,0-3.79-1h-.13a7.78,7.78,0,0,0-3.8,1C284.8,253.45,283,255.26,282.81,259Zm2.66.27v-.09c.19-4.24,3-4.87,4.69-4.87,2,0,4.44.93,4.62,4.84v.19c.05.62.28,4.48-1.54,6.53a4,4,0,0,1-3.16,1.28,3.92,3.92,0,0,1-3.1-1.28C285.08,263.73,285.45,259.5,285.47,259.29Z"/><path class="cls-2" d="M303.82,277.63h0l.45,0v-.19c0-1.29-.14-4.7-3.42-5.82a18.64,18.64,0,0,1-5.38-2.45,1.34,1.34,0,1,0-1.54,2.2,20.81,20.81,0,0,0,6.18,2.84c1.16.41,1.43,1.57,1.48,3.31a.67.67,0,0,0,0,.17,14.53,14.53,0,0,1-.1,1.77,26.28,26.28,0,0,1-22.69,0,11.6,11.6,0,0,1-.09-1.76h-.45l.45-.16c.06-1.74.32-2.91,1.44-3.31a21.45,21.45,0,0,0,6.23-2.84,1.36,1.36,0,0,0,.55-.88,1.34,1.34,0,0,0-2.1-1.32,19.11,19.11,0,0,1-5.48,2.48c-3.17,1.09-3.28,4.5-3.32,5.79v.19a10.86,10.86,0,0,0,.37,3.19,1.3,1.3,0,0,0,.52.63s5,3.26,13.25,3.26c7.89,0,12.71-2.92,13.24-3.26a1.33,1.33,0,0,0,.52-.63,11.33,11.33,0,0,0,.35-3.18Z"/><text class="cls-1" transform="translate(244.31 315.23)">Conta<tspan class="cls-10" x="36.87" y="0">g</tspan><tspan class="cls-5" x="43.94" y="0">em</tspan><tspan x="0" y="18">de pú</tspan><tspan class="cls-4" x="34.54" y="18">b</tspan><tspan x="41.44" y="18">lico</tspan></text><rect class="cls-3" x="198" y="190" width="154" height="160" rx="15" ry="15"/><text class="cls-1" transform="translate(821.83 507.22)"><tspan class="cls-9">M</tspan><tspan x="9.99" y="0">inhas</tspan><tspan x="-29.11" y="18">preferências* **</tspan></text><rect class="cls-3" x="765" y="381.99" width="154" height="160" rx="15" ry="15"/><text class="cls-1" transform="translate(615.5 507.22)">Check-list do<tspan x="-7.97" y="18">participante* **</tspan></text><rect class="cls-3" x="579" y="381.99" width="154" height="160" rx="15" ry="15"/><text class="cls-1" transform="translate(431.1 516.22)">Roteiro* **</text><rect class="cls-3" x="387" y="381.99" width="154" height="160" rx="15" ry="15"/><rect class="cls-3" x="198" y="381.99" width="154" height="160" rx="15" ry="15"/><path class="cls-2" d="M50.74,238.82l13.91.07a.75.75,0,0,0,.75-.75l.07-13.9a.74.74,0,0,0-.74-.75l-13.91-.07a.75.75,0,0,0-.75.74L50,238.06A.75.75,0,0,0,50.74,238.82Zm2.75-12.7,8.54,0a.74.74,0,0,1,.74.75l0,8.54a.74.74,0,0,1-.75.74l-8.54,0a.74.74,0,0,1-.74-.75l0-8.54A.74.74,0,0,1,53.49,226.12Z"/><path class="cls-2" d="M50.74,260.78l13.91.07a.75.75,0,0,0,.75-.75l.07-13.9a.74.74,0,0,0-.74-.75l-13.91-.08a.76.76,0,0,0-.75.75L50,260A.75.75,0,0,0,50.74,260.78Zm2.75-12.71,8.54.05a.74.74,0,0,1,.74.75l0,8.53a.75.75,0,0,1-.75.75l-8.54,0a.75.75,0,0,1-.74-.76l0-8.53A.76.76,0,0,1,53.49,248.07Z"/><rect class="cls-2" x="88.28" y="208.02" width="3.02" height="40.42" rx="1.51" ry="1.51" transform="translate(-138.9 316.83) rotate(-89.7)"/><rect class="cls-2" x="82.58" y="219.06" width="3.02" height="29.01" rx="1.51" ry="1.51" transform="translate(-149.91 316.44) rotate(-89.7)"/><rect class="cls-2" x="88.28" y="229.05" width="3.02" height="40.42" rx="1.51" ry="1.51" transform="translate(-159.93 337.76) rotate(-89.7)"/><rect class="cls-2" x="82.58" y="240.09" width="3.02" height="29.01" rx="1.51" ry="1.51" transform="translate(-170.94 337.37) rotate(-89.7)"/><path class="cls-2" d="M50.74,282.21l13.91.07a.75.75,0,0,0,.75-.75l.07-13.9a.75.75,0,0,0-.74-.76l-13.91-.07a.75.75,0,0,0-.75.75L50,281.45A.76.76,0,0,0,50.74,282.21Zm2.75-12.71,8.54.05a.74.74,0,0,1,.74.75l0,8.53a.75.75,0,0,1-.75.75l-8.54-.05a.74.74,0,0,1-.74-.75l0-8.53A.75.75,0,0,1,53.49,269.5Z"/><rect class="cls-2" x="88.28" y="250.48" width="3.02" height="40.42" rx="1.51" ry="1.51" transform="translate(-181.36 359.07) rotate(-89.7)"/><rect class="cls-2" x="82.58" y="261.52" width="3.02" height="29.01" rx="1.51" ry="1.51" transform="translate(-192.37 358.68) rotate(-89.7)"/><text class="cls-1" transform="translate(50.72 324.23)"><tspan class="cls-11">P</tspan><tspan x="7.94" y="0">esquisas</tspan></text><rect class="cls-3" x="3" y="190" width="154" height="160" rx="15" ry="15"/><text class="cls-1" transform="translate(47.1 134.23)">Check-list*</text><path class="cls-2" d="M52.34,35.88a1.61,1.61,0,0,0-2.25,0,1.54,1.54,0,0,0,0,2.22l3.8,3.76A1.6,1.6,0,0,0,55,42.3h0a1.57,1.57,0,0,0,1.11-.46L67.69,30.52a1.55,1.55,0,0,0,0-2.21,1.59,1.59,0,0,0-2.25,0L62,31.73a10,10,0,0,0-7.17-3,9.82,9.82,0,1,0,9.57,12.67,1.56,1.56,0,0,0-1.07-2,1.59,1.59,0,0,0-2,1,6.85,6.85,0,0,1-6.51,4.75,6.69,6.69,0,1,1,0-13.37A6.89,6.89,0,0,1,59.69,34L55,38.53Z"/><path class="cls-2" d="M54.78,53.47a9.82,9.82,0,1,0,10,9.82A9.9,9.9,0,0,0,54.78,53.47Zm0,16.5a6.68,6.68,0,1,1,6.8-6.68A6.74,6.74,0,0,1,54.78,70Z"/><path class="cls-2" d="M54.78,78.21a9.82,9.82,0,1,0,10,9.82A9.9,9.9,0,0,0,54.78,78.21Zm0,16.51A6.68,6.68,0,1,1,61.58,88,6.74,6.74,0,0,1,54.78,94.72Z"/><path class="cls-2" d="M100.85,61.72h-31a1.57,1.57,0,1,0,0,3.14h31a1.57,1.57,0,1,0,0-3.14Z"/><path class="cls-2" d="M100.85,37h-31a1.58,1.58,0,1,0,0,3.15h31a1.58,1.58,0,1,0,0-3.15Z"/><path class="cls-2" d="M100.85,86.47h-31a1.58,1.58,0,1,0,0,3.15h31a1.58,1.58,0,1,0,0-3.15Z"/><rect class="cls-3" x="3" width="154" height="160" rx="15" ry="15"/><text class="cls-1" transform="translate(619.27 125.23)">Geração de<tspan x="0.11" y="18">certificados</tspan></text><rect class="cls-3" x="579" width="154" height="160" rx="15" ry="15"/><path class="cls-2" d="M647.12,57.21l18-.14V59l-18,.14Zm24.22-4.45L640.87,53v1.89l30.48-.23ZM662.23,69a6.41,6.41,0,1,0-6.37,6.45A6.41,6.41,0,0,0,662.23,69Zm3,2.21-9.32,7.48,5.25,6.53,2.42-6.53,6.9-1Zm-25.84,3.16,6.53,2.42,1,6.89,6.53-5.24-7.48-9.32Zm48.8-33.81L623.5,41l.34,44.05L643,84.84h.34L643,81.36l-15.67.19L627,44.47,684.72,44,685,81.12l-18.21.22-1.36,3.49,22.75-.26h.32Z"/><path class="cls-2" d="M260.88,77.55H248.53A1.47,1.47,0,0,0,247.06,79V91.38a1.47,1.47,0,0,0,1.47,1.47h12.35a1.47,1.47,0,0,0,1.47-1.47V79A1.47,1.47,0,0,0,260.88,77.55Zm-.29,1.77v7.4H248.82v-7.4ZM281,77.55H268.66A1.47,1.47,0,0,0,267.19,79V91.38a1.47,1.47,0,0,0,1.47,1.47H281a1.47,1.47,0,0,0,1.47-1.47V79A1.47,1.47,0,0,0,281,77.55Zm-.3,1.77v7.4H269v-7.4Zm20.75-1.77H289.12A1.47,1.47,0,0,0,287.65,79V91.38a1.47,1.47,0,0,0,1.47,1.47h12.35a1.47,1.47,0,0,0,1.47-1.47V79A1.47,1.47,0,0,0,301.47,77.55Zm-.29,1.77v7.4H289.41v-7.4Zm-40.3-23.77H248.53A1.47,1.47,0,0,0,247.06,57V69.38a1.47,1.47,0,0,0,1.47,1.47h12.35a1.47,1.47,0,0,0,1.47-1.47V57A1.47,1.47,0,0,0,260.88,55.55Zm-.29,1.76v7.41H248.82V57.31ZM281,55.55H268.66A1.47,1.47,0,0,0,267.19,57V69.38a1.47,1.47,0,0,0,1.47,1.47H281a1.47,1.47,0,0,0,1.47-1.47V57A1.47,1.47,0,0,0,281,55.55Zm-.3,1.76v7.41H269V57.31Zm21-1.76H288.83a1.18,1.18,0,0,0-1.18,1.18V69.67a1.18,1.18,0,0,0,1.18,1.18h12.94a1.17,1.17,0,0,0,1.17-1.18V56.73A1.17,1.17,0,0,0,301.77,55.55Zm-.59,9.17v4.36H289.41V64.72Zm-40.3-31.87H248.53a1.47,1.47,0,0,0-1.47,1.47V46.67a1.46,1.46,0,0,0,1.47,1.47h12.35a1.47,1.47,0,0,0,1.47-1.47V34.32A1.47,1.47,0,0,0,260.88,32.85Zm-.29,1.76V42H248.82V34.61ZM281,32.85H268.66a1.47,1.47,0,0,0-1.47,1.47V46.67a1.47,1.47,0,0,0,1.47,1.47H281a1.47,1.47,0,0,0,1.47-1.47V34.32A1.47,1.47,0,0,0,281,32.85Zm-.3,1.76V42H269V34.61Zm20.75-1.76H289.12a1.47,1.47,0,0,0-1.47,1.47V46.67a1.47,1.47,0,0,0,1.47,1.47h12.35a1.46,1.46,0,0,0,1.47-1.47V34.32A1.47,1.47,0,0,0,301.47,32.85Zm-.29,1.76V42H289.41V34.61Z"/><text class="cls-1" transform="translate(30.49 498.22)">Banco de dados<tspan x="1.09" y="18">de prestadores</tspan><tspan x="11.99" y="36">de serviços*</tspan></text><text class="cls-1" transform="translate(223.67 507.22)">Banco de perfil<tspan x="10.28" y="18">dos </tspan><tspan class="cls-4" x="37.06" y="18">c</tspan><tspan x="43.89" y="18">lientes</tspan></text><rect class="cls-3" x="3" y="381.99" width="154" height="160" rx="15" ry="15"/><path class="cls-2" d="M628.34,417.87a1.61,1.61,0,0,0-2.25,0,1.54,1.54,0,0,0,0,2.22l3.8,3.76a1.6,1.6,0,0,0,1.14.46h0a1.57,1.57,0,0,0,1.11-.46l11.57-11.32a1.55,1.55,0,0,0,0-2.21,1.61,1.61,0,0,0-2.25,0l-3.5,3.42a10,10,0,0,0-7.17-3,9.82,9.82,0,1,0,9.57,12.67,1.56,1.56,0,0,0-1.07-2,1.6,1.6,0,0,0-2,1.05,6.85,6.85,0,0,1-6.51,4.75,6.69,6.69,0,1,1,0-13.37,6.89,6.89,0,0,1,4.91,2.08L631,420.52Z"/><path class="cls-2" d="M630.78,435.46a9.82,9.82,0,1,0,10,9.82A9.91,9.91,0,0,0,630.78,435.46Zm0,16.5a6.68,6.68,0,1,1,6.8-6.68A6.74,6.74,0,0,1,630.78,452Z"/><path class="cls-2" d="M630.78,460.2a9.82,9.82,0,1,0,10,9.82A9.9,9.9,0,0,0,630.78,460.2Zm0,16.52a6.69,6.69,0,1,1,6.8-6.69A6.75,6.75,0,0,1,630.78,476.72Z"/><path class="cls-2" d="M676.85,443.71h-31a1.58,1.58,0,1,0,0,3.15h31a1.58,1.58,0,1,0,0-3.15Z"/><path class="cls-2" d="M676.85,419h-31a1.58,1.58,0,1,0,0,3.15h31a1.58,1.58,0,1,0,0-3.15Z"/><path class="cls-2" d="M676.85,468.46h-31a1.58,1.58,0,1,0,0,3.15h31a1.58,1.58,0,1,0,0-3.15Z"/><path class="cls-2" d="M299.69,425.42a33.19,33.19,0,1,0-45.24,48.45l.08.07.11.07.09.06.18.08.08,0,.21.06h.07a1.33,1.33,0,0,0,.28,0h.06a1.66,1.66,0,0,0,1.05-.41,7.21,7.21,0,0,1,1.19-.85l9.4-5.13a5.25,5.25,0,0,0,1.18-.86l0,0,.34-.36,0,0a5.56,5.56,0,0,0,1.3-3.57v-3.85a1.71,1.71,0,0,0-.39-1.09,19.43,19.43,0,0,1-3.46-7.18,1.72,1.72,0,0,0-.74-1,1.46,1.46,0,0,1-.68-1.22v-4.22a1.44,1.44,0,0,1,.5-1.07,1.72,1.72,0,0,0,.56-1.26V436a1.36,1.36,0,0,0,0-.21,1.88,1.88,0,0,0,0-.19,7.11,7.11,0,0,1,.73-3.4l.06-.1a2.75,2.75,0,0,1,.17-.29,5.24,5.24,0,0,1,.59-.81c1.62-1.84,4.43-2.78,8.37-2.78a15,15,0,0,1,5.74,1l.06,0,.29.13.2.1.15.07h0l.12.06.14.08.1.06.18.11.16.11.09.06.22.16,0,0a6.48,6.48,0,0,1,2.42,5.62,1.48,1.48,0,0,0,0,.21v6.1a1.68,1.68,0,0,0,.56,1.26,1.43,1.43,0,0,1,.49,1.07v4.22a1.45,1.45,0,0,1-1,1.38,1.72,1.72,0,0,0-1.12,1.11,21.4,21.4,0,0,1-2.9,5.84,11.79,11.79,0,0,1-.84,1.08,1.72,1.72,0,0,0-.42,1.13v3.94a5.58,5.58,0,0,0,1.28,3.55c.07.09.15.17.22.25l.05,0,.22.22.06.05.23.19.08.07.22.16.11.08.2.12.15.09,0,0,.08.05,10.18,5.09a6.66,6.66,0,0,1,1.32.89,1.71,1.71,0,0,0,1.1.4h.23l.19,0,.11,0,.21-.09.08,0A1.18,1.18,0,0,0,297,474l.06,0a33.19,33.19,0,0,0,2.61-48.56ZM305.61,449a29.86,29.86,0,0,1-9.73,21.51l-.09-.05-.05,0-.11-.06q-.27-.17-.54-.3l0,0-10-5-.11-.07-.1-.06-.07,0-.09-.07-.08-.06-.06-.05-.07-.08-.08-.09,0,0a.61.61,0,0,1-.07-.1l-.06-.09,0,0,0-.1L284,464s0,0,0,0a.36.36,0,0,1,0-.11l0-.11s0,0,0-.05l0-.16,0-.13a2.64,2.64,0,0,1,0-.29v-3.34c.21-.26.42-.55.64-.86a24.52,24.52,0,0,0,3.11-6,4.79,4.79,0,0,0,2.57-4.27v-4.22a4.85,4.85,0,0,0-1.05-3v-5.33a10.11,10.11,0,0,0-.12-2.6c0-.16-.07-.32-.1-.49s-.05-.21-.08-.31a9.5,9.5,0,0,0-5-6.2,17.14,17.14,0,0,0-8-1.68c-5,0-8.64,1.33-10.93,3.94a10,10,0,0,0-2.36,7.33v5.34a4.86,4.86,0,0,0-1.06,3v4.22a4.84,4.84,0,0,0,1.65,3.64,22.89,22.89,0,0,0,3.62,7.48V463a1.48,1.48,0,0,1,0,.21,2,2,0,0,1-.08.4v0a2.13,2.13,0,0,1-.4.74l-.15.15a1.89,1.89,0,0,1-.46.34l-9.4,5.13-.47.28-.09.06,0,0a29.79,29.79,0,1,1,50-21.38Z"/><path class="cls-2" d="M496,415a1.57,1.57,0,0,0-1.53-.05l-18.68,9.89-18.67-9.88-.09,0a1.23,1.23,0,0,0-.23-.08l-.11,0a1.12,1.12,0,0,0-.27,0h-.11a1.38,1.38,0,0,0-.26,0l-.09,0-20.6,6.86a1.55,1.55,0,0,0-1.07,1.47v49.08a1.56,1.56,0,0,0,2.05,1.47l20-6.66,18.86,7.76.11,0a1.85,1.85,0,0,0,.49.08,1.64,1.64,0,0,0,.42-.06l.1,0-.12-.4.17.38.16-.07,19.4-10.27a1.54,1.54,0,0,0,.83-1.37V416.31A1.57,1.57,0,0,0,496,415Zm-43.4,35.53a1.55,1.55,0,0,0,1.9,1.1l.34-.07v12.72l-17.44,5.82V424.27l17.44-5.81v29.9c-.42.08-.8.16-1.14.25A1.55,1.55,0,0,0,452.58,450.51Zm24.74,3.33a1.56,1.56,0,0,0,.67-1.39,1.49,1.49,0,0,0-.67-1.14v-23.8l16.3-8.63v43.28l-16.3,8.63Zm-19.4-2.74c.23,0,.46,0,.7,0a1.56,1.56,0,0,0-.07-3.11c-.21,0-.42,0-.63,0v-29.1l16.3,8.63V451a17.77,17.77,0,0,1-2-.27A1.52,1.52,0,0,0,471,451a1.54,1.54,0,0,0-.65,1,1.49,1.49,0,0,0,.24,1.16,1.52,1.52,0,0,0,1,.66,20.92,20.92,0,0,0,2.61.32v16.93l-16.3-6.71Zm-1.33-35.91Zm-.26,0Z"/><path class="cls-2" d="M447.24,423.88a6.12,6.12,0,0,0-1.55,12V438a1.55,1.55,0,0,0,3.1,0v-2.07a6.12,6.12,0,0,0-1.55-12Zm0,3.11a3,3,0,1,1-3,3A3,3,0,0,1,447.24,427Z"/><path class="cls-2" d="M488,438.63a1.55,1.55,0,0,0-1.8,1.24,23.26,23.26,0,0,1-1.15,4.11,1.56,1.56,0,0,0,.88,2h0a1.59,1.59,0,0,0,2-.88,26.32,26.32,0,0,0,1.3-4.67A1.55,1.55,0,0,0,488,438.63Z"/><path class="cls-2" d="M450.25,450.39a1.55,1.55,0,0,0-1.17.2,16.28,16.28,0,0,0-3.79,3.3,1.56,1.56,0,0,0,.19,2.19,1.57,1.57,0,0,0,2.19-.19,12.92,12.92,0,0,1,3.06-2.67,1.57,1.57,0,0,0,.49-2.14A1.53,1.53,0,0,0,450.25,450.39Z"/><path class="cls-2" d="M444.7,457.33h0a1.57,1.57,0,0,0-2.06.76,18.73,18.73,0,0,0-1.5,4.8,1.53,1.53,0,0,0,.3,1.15,1.5,1.5,0,0,0,1,.59.78.78,0,0,0,.22,0,1.56,1.56,0,0,0,1.53-1.34,16,16,0,0,1,1.25-3.92A1.55,1.55,0,0,0,444.7,457.33Z"/><path class="cls-2" d="M485.28,447.29a1.55,1.55,0,0,0-2.18.24,9.14,9.14,0,0,1-3,2.47,1.53,1.53,0,0,0-.77.9,1.56,1.56,0,0,0,1.48,2,1.61,1.61,0,0,0,.71-.17,12.3,12.3,0,0,0,4-3.29,1.51,1.51,0,0,0,.33-1.14A1.54,1.54,0,0,0,485.28,447.29Z"/><path class="cls-2" d="M468.14,449.52c-.51-.22-.79-.35-.79-.36L467,449c-1.25-.32-2.48-.57-3.66-.75a1.55,1.55,0,0,0-1.77,1.3,1.56,1.56,0,0,0,1.3,1.77c1,.15,2.11.38,3.2.65.17.08.45.21.84.37a1.53,1.53,0,0,0,.6.12,1.55,1.55,0,0,0,1.43-2.14A1.52,1.52,0,0,0,468.14,449.52Z"/><path class="cls-2" d="M488.38,429.52a1.55,1.55,0,0,0-1.53,1.58c0,.39,0,.78,0,1.16,0,1.13,0,2.23-.1,3.27a1.56,1.56,0,0,0,1.45,1.65h.1a1.55,1.55,0,0,0,1.55-1.45c.07-1.1.11-2.27.11-3.47,0-.4,0-.81,0-1.22A1.59,1.59,0,0,0,488.38,429.52Z"/><path class="cls-2" d="M443.4,446a1.56,1.56,0,0,0,2.65,1.1l1.19-1.19,1.18,1.19a1.58,1.58,0,0,0,1.1.45,1.54,1.54,0,0,0,1.1-.45,1.57,1.57,0,0,0,0-2.2l-1.19-1.18,1.19-1.19a1.56,1.56,0,0,0,0-2.19,1.59,1.59,0,0,0-2.2,0l-1.18,1.18-1.19-1.18a1.58,1.58,0,0,0-2.19,0,1.53,1.53,0,0,0,0,2.19L445,443.7l-1.18,1.18A1.55,1.55,0,0,0,443.4,446Z"/><path class="cls-2" d="M107.86,458.7a1.29,1.29,0,0,0-.36.89,1.26,1.26,0,0,0,.36.89,1.34,1.34,0,0,0,.89.36,1.25,1.25,0,1,0-.89-2.14Z"/><path class="cls-2" d="M72,456.17l-4.54-2.33v-.48a9,9,0,0,0,4.26-5.46,3.72,3.72,0,0,0,2-3.29v-1.25a3.74,3.74,0,0,0-1.44-2.94c-.78-4.72-4.08-7.12-9.81-7.12-.27,0-.54,0-.8,0a6.31,6.31,0,0,1-4-.92,4.9,4.9,0,0,1-1.14-1,1.5,1.5,0,0,0-2.67,1.1c0,.47.13,1,.25,1.61.24,1.22.24,1.22-.1,1.95-.13.27-.28.61-.47,1.06a14.1,14.1,0,0,0-.88,3.31,3.73,3.73,0,0,0-1.41,2.92v1.25a3.74,3.74,0,0,0,2,3.3,9,9,0,0,0,4.27,5.45v.47l-4.72,2.32a5.35,5.35,0,0,0-2.78,4.7v1.66c0,1,0,3.35,12.5,3.35S75,463.51,75,462.51V461A5.3,5.3,0,0,0,72,456.17Zm.46,6.05c-.78.48-4,1.14-10,1.14s-9.22-.66-10-1.14v-1.37a2.85,2.85,0,0,1,1.44-2.48L58.76,456A2.24,2.24,0,0,0,60,454v-2.25l-.76-.33a6.62,6.62,0,0,1-3.77-4.77l-.18-.66-.65-.21a1.25,1.25,0,0,1-.89-1.18v-1.25a1.28,1.28,0,0,1,.67-1.1L55,442l.07-.66a11.36,11.36,0,0,1,.78-3.21c.16-.41.3-.71.42-1a3.68,3.68,0,0,0,.47-2.34,9,9,0,0,0,5.15,1.05,5.88,5.88,0,0,1,.6,0c4.68,0,7,1.7,7.41,5.5L70,442l.58.3a1.24,1.24,0,0,1,.68,1.1v1.25a1.26,1.26,0,0,1-.89,1.18l-.66.21-.18.66a6.59,6.59,0,0,1-3.77,4.77l-.75.33V454a2.21,2.21,0,0,0,1.2,2l4.71,2.41h0A2.86,2.86,0,0,1,72.5,461Z"/><path class="cls-2" d="M81.25,439.61h12.5a1.25,1.25,0,0,0,0-2.5H81.25a1.25,1.25,0,0,0,0,2.5Z"/><path class="cls-2" d="M82.5,458.36H81.25a1.25,1.25,0,0,0,0,2.5H82.5a1.25,1.25,0,0,0,0-2.5Z"/><path class="cls-2" d="M90,458.36H87.5a1.25,1.25,0,0,0,0,2.5H90a1.25,1.25,0,0,0,0-2.5Z"/><path class="cls-2" d="M96.25,458.36H95a1.25,1.25,0,0,0,0,2.5h1.25a1.25,1.25,0,0,0,0-2.5Z"/><path class="cls-2" d="M103.75,458.36h-2.5a1.25,1.25,0,0,0,0,2.5h2.5a1.25,1.25,0,0,0,0-2.5Z"/><path class="cls-2" d="M108.75,444.61H81.25a1.25,1.25,0,0,0,0,2.5h27.5a1.25,1.25,0,0,0,0-2.5Z"/><path class="cls-2" d="M108.75,452.11H81.25a1.25,1.25,0,0,0,0,2.5h27.5a1.25,1.25,0,0,0,0-2.5Z"/><path class="cls-2" d="M111.65,420.84H88.75v-9.61a2.89,2.89,0,0,0-2.89-2.89H74.14a2.89,2.89,0,0,0-2.89,2.89v9.61H48.34a5.85,5.85,0,0,0-5.84,5.85v40.8a5.86,5.86,0,0,0,5.84,5.85h63.31a5.86,5.86,0,0,0,5.85-5.85v-40.8A5.86,5.86,0,0,0,111.65,420.84Zm-37.9-9.61a.38.38,0,0,1,.39-.39H85.86a.39.39,0,0,1,.39.39V428a.4.4,0,0,1-.39.39H74.14a.39.39,0,0,1-.39-.39V411.23ZM115,467.49a3.35,3.35,0,0,1-3.35,3.35H48.34A3.35,3.35,0,0,1,45,467.49v-40.8a3.35,3.35,0,0,1,3.34-3.35H71.25V428a2.89,2.89,0,0,0,2.89,2.89H85.86A2.9,2.9,0,0,0,88.75,428v-4.61h22.9a3.35,3.35,0,0,1,3.35,3.35Z"/><path class="cls-2" d="M80,422.09a5,5,0,1,0-5-5A5,5,0,0,0,80,422.09Zm0-7.5a2.5,2.5,0,1,1-2.5,2.5A2.5,2.5,0,0,1,80,414.59Z"/><path class="cls-2" d="M880.69,444.52a28.69,28.69,0,0,0-.29-3.95A31.5,31.5,0,0,0,868,420a39.59,39.59,0,0,0-24.16-8c-11.85,0-22.4,5-29.13,12.67a30,30,0,0,0-7.67,19.83,30.55,30.55,0,0,0,10.54,22.72,34.29,34.29,0,0,0,2.95,2.4c.81.59,1.65,1.14,2.51,1.66a40.86,40.86,0,0,0,39.8,1.06l.22.1a20.32,20.32,0,0,0,2.94,1.19,22.45,22.45,0,0,0,7,1.08,24.59,24.59,0,0,0,3.52-.24,2.77,2.77,0,0,0,2.33-2.13,2.8,2.8,0,0,0-1.22-3,11.93,11.93,0,0,1-3.73-4,13.63,13.63,0,0,1-.68-1.26,30.75,30.75,0,0,0,6.83-13.7A28.8,28.8,0,0,0,880.69,444.52Zm-11,18a1.86,1.86,0,0,0-.38,1.9c.21.55.44,1.07.69,1.58a17.26,17.26,0,0,0,1.46,2.47,15,15,0,0,0,2.26,2.56,20.14,20.14,0,0,1-4.37-.31,17,17,0,0,1-3-.86c-.34-.13-.68-.27-1-.42l-.32-.2-1.17-.58h0a1.72,1.72,0,0,0-.94-.25,1.78,1.78,0,0,0-.92.24c-.67.38-1.36.74-2.06,1.08a37.3,37.3,0,0,1-33-.51q-1.41-.74-2.73-1.59c-8.11-5.26-13.38-13.67-13.38-23.12,0-15.89,14.87-28.82,33.14-28.82S877,428.63,877,444.52A26.32,26.32,0,0,1,869.73,462.54Z"/><path class="cls-2" d="M858.78,442.52v-6.17a11.23,11.23,0,0,0-2.63-8.2c-2.57-2.93-6.69-4.41-12.27-4.41s-9.71,1.48-12.27,4.41a11.2,11.2,0,0,0-2.63,8.16v6.2a5.26,5.26,0,0,0-1.2,3.34v4.8a5.25,5.25,0,0,0,1.85,4,25.8,25.8,0,0,0,4.15,8.58v3.81a2.66,2.66,0,0,1-1.4,2.35l-3,1.67,0,.58c.81.52,1.87,1.14,2.76,1.61h.32l1.62-.89a6.05,6.05,0,0,0,3.16-5.32v-4.88l-.08-.22-.32-.38a22.51,22.51,0,0,1-4-8.28l-.12-.53-.15-.21-.46-.3a1.9,1.9,0,0,1-.89-1.6v-4.8a1.86,1.86,0,0,1,.65-1.41l.44-.4.11-.26V436a7.93,7.93,0,0,1,1.81-5.64c1.89-2.16,5.16-3.25,9.72-3.25s7.8,1.08,9.7,3.22a8,8,0,0,1,1.83,5.71l0,7.73.12.25.44.4a1.89,1.89,0,0,1,.65,1.41v4.8a1.92,1.92,0,0,1-1.37,1.81l-.67.21-.22.22-.22.67a24.81,24.81,0,0,1-3.33,6.72c-.35.49-.69.93-1,1.26l-.33.39-.09.22v5a6.05,6.05,0,0,0,3.36,5.43l1.3.65h.31c.87-.46,2-1.12,2.82-1.64l0-.59-2.89-1.44a2.68,2.68,0,0,1-1.48-2.4v-3.89c.25-.31.5-.65.77-1a27.54,27.54,0,0,0,3.54-6.89,5.22,5.22,0,0,0,2.89-4.7v-4.8A5.21,5.21,0,0,0,858.78,442.52Z"/></svg>