<svg id="Arte" xmlns="http://www.w3.org/2000/svg" viewBox="0 0 198.43 99.21"><defs><style>.cls-1{fill:#fff;}</style></defs><title>frasebanner</title><path class="cls-1" d="M39,32.47l-3.24.9a27.57,27.57,0,0,1-4.13.4q-3.19.2-4.55.2a8.3,8.3,0,0,1-3.75-.61q-6-3.37-7.65-7.17a12.25,12.25,0,0,1-.73-4.75q0-4.67,4.6-8.38a43.43,43.43,0,0,1,8.7-5l4.05-1.89a10.72,10.72,0,0,1,4.33-1,6.51,6.51,0,0,1,.91.07,1.4,1.4,0,0,1-.46.93l-4.93,2L29.59,9a7.83,7.83,0,0,1-.85.9l-3.19,1.64q-6.18,3.15-7.79,7.19-.17.43-.53,1.75a11.63,11.63,0,0,0-.37,1.5,7.93,7.93,0,0,0,2.56,5.63,11.86,11.86,0,0,0,5,3.1,21.34,21.34,0,0,0,5.74.58q.5,0,4.38-.4L42.87,30l.23,1.25a23.78,23.78,0,0,1-3,.91Z"/><path class="cls-1" d="M57.49,25.08l-.53.48A9.78,9.78,0,0,0,54.26,25h-.13q-1.25.07-1.83.07H51l-1.16.37a15.34,15.34,0,0,0-2.11.37A4.36,4.36,0,0,0,45,29.27,9.53,9.53,0,0,0,44.86,31c0,.13,0,.27,0,.4q.13,1.84.13,2.17a10.08,10.08,0,0,1-1.23.2,3.41,3.41,0,0,1-.46-1.25q0-.18.08-.95c0-.51,0-.85,0-1a16.89,16.89,0,0,1,1.23-4.8,3.6,3.6,0,0,1,1.2-1.41q1.69-1.16,6.26-1.16t5.36,1.21Z"/><path class="cls-1" d="M63.07,30.26q-.2,2.69-.2,3.12a3,3,0,0,1-1.43.45,5.8,5.8,0,0,1-.27-1.89q0-6.28,1.56-6.66a1,1,0,0,1,.6.85c0-.14,0-.22,0-.23s0,.27,0,.45Q63.3,27.53,63.07,30.26Zm1.56-12.68,0,.07q0,.65-1.36,1.58a6.09,6.09,0,0,1-1.63-1.36q.5-1.2,1.08-1.2A4.38,4.38,0,0,1,64.63,17.58Z"/><path class="cls-1" d="M82.79,32.8a2,2,0,0,1-1.59.73H75.32a19.29,19.29,0,0,1-4.55-.61q-3.29-.8-3.72-2a7.8,7.8,0,0,1-.48-2.61,4.28,4.28,0,0,1,2.16-3.85,8.12,8.12,0,0,1,4.45-1.16,6,6,0,0,1,3.59,1,3.11,3.11,0,0,1,1.33,2.65q0,.93-3.19,2a13.12,13.12,0,0,1-3.83.95l-.27,0c0,.16-.12.34-.37.56q.2.33,1.94.76a10.44,10.44,0,0,0,2.22.4h5.28s.66.11,2,.3A2.63,2.63,0,0,1,82.79,32.8ZM76,26.18a4.05,4.05,0,0,0-3-.95,6.33,6.33,0,0,0-2.67.56q-1.59.73-1.59,2a.68.68,0,0,0,.3.63h1.06a13.68,13.68,0,0,0,3.05-.95A13.31,13.31,0,0,0,76,26.18Z"/><path class="cls-1" d="M113.31,24.72q0,.35-.35,4-.3,3-.73,6.54,0,.27-.53.27t-1.06-1.63a9.09,9.09,0,0,1-.32-2.21,26.24,26.24,0,0,1,.42-2.62q.42-2.26.42-2.61,0-1-.53-1a8.81,8.81,0,0,0-2.91,1.18,24.85,24.85,0,0,0-2.81,1.68,24,24,0,0,0-3.8,3.7l-1.36,1.53a2.26,2.26,0,0,1-1.58.43V32.85q0-.78,3.05-3.44a44.76,44.76,0,0,1,5.11-3.85q3.75-2.44,5.58-2.44a1.25,1.25,0,0,1,.93.53A1.65,1.65,0,0,1,113.31,24.72Z"/><path class="cls-1" d="M134.34,27.62a5.86,5.86,0,0,1-.75,3q-.68,1.15-4.83,2.26a23.74,23.74,0,0,1-5.63,1,10.07,10.07,0,0,1-4.47-1.08Q116,31.51,116,29.53a2.52,2.52,0,0,1,1-1.79,26.77,26.77,0,0,0,2.71-2.44,8.59,8.59,0,0,1,4.38-2.36,18.48,18.48,0,0,1,5-.76,5.38,5.38,0,0,1,1.89.55,6,6,0,0,1,1.73,1.06,7,7,0,0,1,1,1.85A5.82,5.82,0,0,1,134.34,27.62Zm-1.69-.13a3,3,0,0,0-1.48-2.34,4.43,4.43,0,0,0-2.69-1q-.25,0-3.87.71a6.75,6.75,0,0,0-2.54,1.08q-3.92,2.79-3.92,3.85,0,.9,2.14,1.63a9.58,9.58,0,0,0,3,.63,23.42,23.42,0,0,0,4.8-.7,7.74,7.74,0,0,0,4-1.91A2.68,2.68,0,0,0,132.65,27.49Z"/><path class="cls-1" d="M154.91,22.59q-1.25.56-3,1.58-.15.08-2.29,2.26-7.4,7.5-9.06,7.5-.38,0-1.43-1.74A15.81,15.81,0,0,1,137.93,30q-.25-.75-.93-2.67a7.47,7.47,0,0,0-1.46-2.46V23.51a4.72,4.72,0,0,0,.86-.23s0,0,0,0q.35,0,2.51,3.83t2.62,3.83q.56,0,3.72-3,3.55-3.4,4-3.72,2.17-1.53,4.33-2.87h1.1l.27.25Z"/><path class="cls-1" d="M171.26,33.63a1,1,0,0,1-.76.48q-.27,0-1.79-1.59t-2-1.61s-1.21.49-3.62,1.39a19.38,19.38,0,0,1-4.71,1.38,3.07,3.07,0,0,1-1.84-.81,2.17,2.17,0,0,1-1-1.53q0-1.84,4-4.3,3.79-2.32,5.78-2.32a1.86,1.86,0,0,1,1.49.95v.71a.94.94,0,0,1-.76.48,2.77,2.77,0,0,1-.57-.22,2.54,2.54,0,0,0-.59-.22,9.25,9.25,0,0,0-3,1.36,24.14,24.14,0,0,0-3,1.91,3,3,0,0,0-1,1.51,1.94,1.94,0,0,0,1.38.55,27.64,27.64,0,0,0,4-1.38A19.82,19.82,0,0,1,167.51,29a2,2,0,0,1,1.58.55q.12.13.85,1.49a8.59,8.59,0,0,0,1.33,1.86Z"/><path class="cls-1" d="M183.93,29.68a1.9,1.9,0,0,1-.91,1.88q-.68.31-3.32,1.13a17.81,17.81,0,0,1-3.35.85.54.54,0,0,1-.27-.11.55.55,0,0,0-.25-.11q-.37,0-1.41,1.06-.73-.55-.73-.85,0-1.86,5.59-3,.35-.08,1.29-.25a6.94,6.94,0,0,0,.81-.73,3.19,3.19,0,0,0-1.64-1.31q-1.11-.38-4-1.51t-2.89-2.51q0-1.81,3.62-1.81a25.5,25.5,0,0,1,3.54.32,10.31,10.31,0,0,1,3.29.83L183,24l-6.16.32a3.1,3.1,0,0,1-.4.33l4.43,2Q183.93,28,183.93,29.68Z"/><path class="cls-1" d="M19.13,76.75a2.1,2.1,0,0,1-1.69.77H11.22a20.41,20.41,0,0,1-4.82-.65Q2.92,76,2.46,74.75A8.27,8.27,0,0,1,2,72a4.53,4.53,0,0,1,2.29-4.08,8.6,8.6,0,0,1,4.71-1.23,6.3,6.3,0,0,1,3.8,1,3.29,3.29,0,0,1,1.41,2.8q0,1-3.37,2.16a13.89,13.89,0,0,1-4.06,1l-.28,0q0,.25-.39.6.21.35,2.06.81a11.07,11.07,0,0,0,2.36.42h5.59s.7.12,2.11.32A2.78,2.78,0,0,1,19.13,76.75Zm-7.24-7a4.29,4.29,0,0,0-3.16-1,6.7,6.7,0,0,0-2.83.6q-1.69.77-1.69,2.09a.72.72,0,0,0,.32.67H5.64a14.48,14.48,0,0,0,3.23-1A14.11,14.11,0,0,0,11.88,69.74Z"/><path class="cls-1" d="M39.18,74.71q0,1.35-1.67,1.35-.63,0-4.57-2.83a41.6,41.6,0,0,0-4.15-2.83q-2.67,0-5.82,5.15a2.34,2.34,0,0,0-.33,1.09,7.12,7.12,0,0,1-.12,1.11A1.89,1.89,0,0,1,21.27,79a10.08,10.08,0,0,0-.35-1.46,5.93,5.93,0,0,1-.26-1.46,5.46,5.46,0,0,1,1.44-3.13,61.59,61.59,0,0,1,4.66-4.45,6.51,6.51,0,0,0-2.43-1.72l-2.71-1.2a4,4,0,0,1-.3-1q0-1.13,1-1.13.09,0,3.23,1.69a33.51,33.51,0,0,0,3.29,1.71q.12,0,3.78-1.6A19.26,19.26,0,0,1,37,63.6a4.11,4.11,0,0,1,2.14,1v.77q-.11,0-1.9.23-.33,0-4.08,1A4.48,4.48,0,0,0,31,68.49a25.18,25.18,0,0,0,5.87,4.73Q39,74.56,39.18,74.71Z"/><path class="cls-1" d="M47.08,72.83a7.75,7.75,0,0,1-.67,1.63q-.79,1.6-.88,1.9A73.69,73.69,0,0,0,42.31,93.8a6.19,6.19,0,0,0-1,.26h0a1.17,1.17,0,0,1-.82-.42,1.21,1.21,0,0,1-.41-.83q0-4.89,3.45-16.51a15.82,15.82,0,0,1,1.35-3.18,3.77,3.77,0,0,1,1.63-1.2A1.09,1.09,0,0,1,47.08,72.83Zm11.53-3.06q0,1.79-3.43,4.17a28,28,0,0,1-5,2.81,8,8,0,0,1-2.53.83H46.9L46.41,77a3.24,3.24,0,0,1,.95-1.39l1.92-.77q7-2.72,7-5.33,0-1.69-4.89-1.69a29.35,29.35,0,0,0-4.76.39q-3.36.56-4.13,1.67-.23.93-.77,2.57a5.23,5.23,0,0,1-1-2.6,2.65,2.65,0,0,1,.58-1.78Q42,67.28,46,66.4a27.2,27.2,0,0,1,5.17-.79Q58.61,65.61,58.61,69.77Z"/><path class="cls-1" d="M77,76.75a2.1,2.1,0,0,1-1.69.77H69.1a20.41,20.41,0,0,1-4.82-.65Q60.8,76,60.35,74.75A8.27,8.27,0,0,1,59.84,72a4.53,4.53,0,0,1,2.29-4.08,8.6,8.6,0,0,1,4.71-1.23,6.3,6.3,0,0,1,3.8,1A3.29,3.29,0,0,1,72,70.51q0,1-3.37,2.16a13.89,13.89,0,0,1-4.06,1l-.28,0q0,.25-.39.6.21.35,2.06.81a11.07,11.07,0,0,0,2.36.42h5.59s.7.12,2.11.32A2.78,2.78,0,0,1,77,76.75Zm-7.24-7a4.29,4.29,0,0,0-3.16-1,6.7,6.7,0,0,0-2.83.6q-1.69.77-1.69,2.09a.72.72,0,0,0,.32.67h1.13a14.48,14.48,0,0,0,3.23-1A14.11,14.11,0,0,0,69.77,69.74Z"/><path class="cls-1" d="M93.94,68.58l-.56.51a10.35,10.35,0,0,0-2.87-.58h-.14q-1.32.07-1.93.07H87L85.8,69a16.21,16.21,0,0,0-2.23.39A4.62,4.62,0,0,0,80.76,73a10.12,10.12,0,0,0-.19,1.83q0,.21,0,.42.14,2,.14,2.3a10.66,10.66,0,0,1-1.3.21,3.62,3.62,0,0,1-.49-1.32q0-.19.09-1t.05-1.09a17.9,17.9,0,0,1,1.3-5.08,3.82,3.82,0,0,1,1.27-1.49q1.79-1.23,6.63-1.23t5.68,1.28Z"/><path class="cls-1" d="M99.85,74.06q-.21,2.85-.21,3.3a3.16,3.16,0,0,1-1.51.47,6.16,6.16,0,0,1-.28-2q0-6.64,1.65-7a1,1,0,0,1,.63.9q0-.23-.05-.25,0,.19,0,.47Q100.09,71.16,99.85,74.06Zm1.65-13.43,0,.07q0,.69-1.44,1.67a6.47,6.47,0,0,1-1.72-1.44q.53-1.27,1.14-1.27A4.64,4.64,0,0,1,101.5,60.63Z"/><path class="cls-1" d="M116.53,65.91q0,.84-1.18.84a1.72,1.72,0,0,1-.7-.18,3.33,3.33,0,0,0-1.37-1.09l-1.2-1.56q-1.05-1.41-1.63-1.41-.12,0-3.34,2.18a25.3,25.3,0,0,1-3.45,2.16,1.29,1.29,0,0,1-.71-.25q-.38-.25-.38-.48t.79-.69a8.34,8.34,0,0,0,1.13-.62q.12-.09,1.51-1.48a4.06,4.06,0,0,1,1.05-.65q1-.51,1.18-.62a3.49,3.49,0,0,0,.71-.78,4.51,4.51,0,0,1,.59-.71,2.14,2.14,0,0,1,1.21-.35,1.67,1.67,0,0,1,1.39.6L114,63.27a11,11,0,0,0,2.41,2.25A.75.75,0,0,1,116.53,65.91Zm4.2,10.85a2.1,2.1,0,0,1-1.69.77h-6.22a20.41,20.41,0,0,1-4.82-.65q-3.48-.84-3.94-2.13a8.27,8.27,0,0,1-.51-2.76,4.53,4.53,0,0,1,2.29-4.08,8.6,8.6,0,0,1,4.71-1.23,6.3,6.3,0,0,1,3.8,1,3.29,3.29,0,0,1,1.41,2.8q0,1-3.37,2.16a13.89,13.89,0,0,1-4.06,1l-.28,0q0,.25-.39.6.21.35,2.06.81a11.07,11.07,0,0,0,2.36.42h5.59s.7.12,2.11.32A2.78,2.78,0,0,1,120.73,76.75Zm-7.24-7a4.29,4.29,0,0,0-3.16-1,6.7,6.7,0,0,0-2.83.6q-1.69.77-1.69,2.09a.72.72,0,0,0,.32.67h1.13a14.48,14.48,0,0,0,3.23-1A14.11,14.11,0,0,0,113.49,69.74Z"/><path class="cls-1" d="M137.74,68.19q0,.37-.37,4.2-.32,3.18-.77,6.93,0,.28-.56.28-.69,0-1.12-1.72a9.66,9.66,0,0,1-.33-2.34,27.87,27.87,0,0,1,.45-2.78q.45-2.39.45-2.76,0-1-.56-1a9.34,9.34,0,0,0-3.08,1.25,26.36,26.36,0,0,0-3,1.78,25.49,25.49,0,0,0-4,3.92l-1.44,1.62a2.39,2.39,0,0,1-1.67.46V76.81q0-.83,3.23-3.64a47.42,47.42,0,0,1,5.41-4.08q4-2.58,5.91-2.58a1.32,1.32,0,0,1,1,.56A1.75,1.75,0,0,1,137.74,68.19Z"/><path class="cls-1" d="M157.2,75.19a6.72,6.72,0,0,1-2.13.86q-1.72.35-5,.86a26,26,0,0,1-2.6.35,11.6,11.6,0,0,1-4.41-.9q-2.79-1.12-2.79-3,0-2.09,3-3.73,4.38-2.37,5.48-2.37l2.23.23h0q-.23,0-.26.42a2.76,2.76,0,0,1-.11.62,30.32,30.32,0,0,0-4.43,1.93q-3.43,1.76-3.43,2.67,0,1.71,4.29,2.2.76.07,1,.07h.05l8.82-1.34.32.26Z"/><path class="cls-1" d="M162.63,74.06q-.21,2.85-.21,3.3a3.16,3.16,0,0,1-1.51.47,6.16,6.16,0,0,1-.28-2q0-6.64,1.65-7a1,1,0,0,1,.63.9q0-.23-.05-.25,0,.19,0,.47Q162.88,71.16,162.63,74.06Zm1.65-13.43,0,.07q0,.69-1.44,1.67a6.47,6.47,0,0,1-1.72-1.44q.53-1.27,1.14-1.27A4.64,4.64,0,0,1,164.29,60.63Z"/><path class="cls-1" d="M183.06,77.63a1,1,0,0,1-.81.51q-.28,0-1.9-1.69t-2.16-1.71s-1.28.52-3.83,1.48a20.52,20.52,0,0,1-5,1.46,3.25,3.25,0,0,1-2-.86,2.29,2.29,0,0,1-1.07-1.62q0-2,4.27-4.55,4-2.46,6.12-2.46a2,2,0,0,1,1.58,1v.76a1,1,0,0,1-.81.51,2.93,2.93,0,0,1-.61-.23,2.68,2.68,0,0,0-.62-.23,9.8,9.8,0,0,0-3.22,1.44,25.64,25.64,0,0,0-3.2,2,3.14,3.14,0,0,0-1,1.6,2.05,2.05,0,0,0,1.46.58,29.3,29.3,0,0,0,4.24-1.46,21,21,0,0,1,4.57-1.48,2.12,2.12,0,0,1,1.67.58q.12.14.9,1.58a9.11,9.11,0,0,0,1.41,2Z"/><path class="cls-1" d="M196.47,73.45a2,2,0,0,1-1,2q-.72.33-3.52,1.2a18.85,18.85,0,0,1-3.55.9.57.57,0,0,1-.28-.11.57.57,0,0,0-.26-.11q-.39,0-1.49,1.13-.77-.58-.77-.9,0-2,5.92-3.16.37-.09,1.37-.26a7.29,7.29,0,0,0,.86-.77A3.37,3.37,0,0,0,192,71.94q-1.18-.4-4.25-1.6t-3.06-2.65q0-1.92,3.83-1.92a26.93,26.93,0,0,1,3.74.33,10.91,10.91,0,0,1,3.48.88l-.28.46-6.52.33a3.29,3.29,0,0,1-.42.35l4.69,2.09Q196.47,71.64,196.47,73.45Z"/></svg>