<svg id="Camada_1" data-name="Camada 1" xmlns="http://www.w3.org/2000/svg" viewBox="0 0 150 150"><defs><style>.cls-1{fill:#6b6b6b;}</style></defs><title>ing mul</title><path class="cls-1" d="M81.63,89.14a10.43,10.43,0,0,1-10,10.65H70.43v5.29a2.42,2.42,0,1,1-4.83,0V99.79H58.93a2.54,2.54,0,0,1,0-5.08H71.54a5.58,5.58,0,0,0,0-11.14h-7c-5.57,0-10.11-4.79-10.11-10.66S59,62.26,64.52,62.26h1.1V57.07a2.42,2.42,0,1,1,4.83,0v5.19H76.9a2.54,2.54,0,0,1,0,5.08H64.52a5.58,5.58,0,0,0,0,11.14h7C77.1,78.48,81.63,83.25,81.63,89.14ZM5.78,59v-7a5,5,0,0,1,4.82-5.08H125.43a5,5,0,0,1,4.83,5.08v7a0,0,0,0,1,0,0h-2.39a3.78,3.78,0,0,0-3.62,4.31A3.82,3.82,0,0,0,128,66.68h2.24a0,0,0,0,1,0,0v10.8a0,0,0,0,1,0,0h-2.39a3.84,3.84,0,0,0,.15,7.67h2.24a0,0,0,0,1,0,0v10.8a0,0,0,0,1,0,0h-2.39a3.78,3.78,0,0,0-3.62,4.31,3.82,3.82,0,0,0,3.77,3.37h2.24s0,0,0,0v7a5,5,0,0,1-4.83,5.08H10.6a5,5,0,0,1-4.82-5.08v-7a0,0,0,0,1,0,0h2.4a3.84,3.84,0,0,0-.16-7.68H5.81s0,0,0,0V85.27s0,0,0,0h2.4a3.84,3.84,0,0,0-.16-7.67H5.81s0,0,0,0V66.72s0,0,0,0h2.4A3.84,3.84,0,0,0,8.05,59H5.81S5.78,59,5.78,59Zm119.6-4.7s0,0,0,0V52a0,0,0,0,0,0,0H10.67a0,0,0,0,0,0,0v2.23a0,0,0,0,0,0,0,9.1,9.1,0,0,1,0,17.15s0,0,0,0v1.33a0,0,0,0,0,0,0,9.1,9.1,0,0,1,0,17.15s0,0,0,0v1.33a0,0,0,0,0,0,0,9.1,9.1,0,0,1,0,17.15s0,0,0,0v2.23s0,0,0,0h114.7a0,0,0,0,0,0,0v-2.23a.05.05,0,0,0,0,0,9.1,9.1,0,0,1,0-17.15s0,0,0,0V90a.05.05,0,0,0,0,0,9.1,9.1,0,0,1,0-17.15s0,0,0,0V71.46a.05.05,0,0,0,0,0,9.1,9.1,0,0,1,0-17.15ZM142,46.21h2.24a0,0,0,0,0,0,0v-7a5,5,0,0,0-4.82-5.08H24.57a5,5,0,0,0-4.83,5.08h0a0,0,0,0,0,0,0H139.33s0,0,0,0v2.23s0,0,0,0a9.1,9.1,0,0,0,0,17.15,0,0,0,0,1,0,0V60s0,0,0,0a9.1,9.1,0,0,0,0,17.15,0,0,0,0,1,0,0v1.33s0,0,0,0a9.1,9.1,0,0,0,0,17.15,0,0,0,0,1,0,0v7.35s0,0,0,0h0a5,5,0,0,0,4.82-5.08V91s0,0,0,0H142a3.84,3.84,0,0,1-.16-7.67h2.4s0,0,0,0V72.48s0,0,0,0H142a3.84,3.84,0,0,1-.16-7.67h2.4s0,0,0,0V53.93s0,0,0,0h-2.4a3.84,3.84,0,0,1,.16-7.68Z"/></svg>