<svg id="Camada_1" data-name="Camada 1" xmlns="http://www.w3.org/2000/svg" viewBox="0 0 150 150"><defs><style>.cls-1{fill:#6b6b6b;}</style></defs><title>ing ind</title><path class="cls-1" d="M127.83,59h2.39a0,0,0,0,0,0,0v-7a5,5,0,0,0-4.83-5.08H10.6a5,5,0,0,0-4.82,5.08v7s0,0,0,0H8.05a3.84,3.84,0,0,1,.16,7.67H5.81s0,0,0,0v10.8s0,0,0,0H8.05a3.84,3.84,0,0,1,.16,7.67H5.81s0,0,0,0v10.8s0,0,0,0H8.05a3.84,3.84,0,0,1,.16,7.68H5.81a0,0,0,0,0,0,0v7a5,5,0,0,0,4.82,5.08H125.43a5,5,0,0,0,4.83-5.08v-7s0,0,0,0H128a3.82,3.82,0,0,1-3.77-3.37,3.78,3.78,0,0,1,3.62-4.31h2.39a0,0,0,0,0,0,0V85.27a0,0,0,0,0,0,0H128a3.84,3.84,0,0,1-.15-7.67h2.39a0,0,0,0,0,0,0V66.72a0,0,0,0,0,0,0H128a3.82,3.82,0,0,1-3.77-3.36A3.78,3.78,0,0,1,127.83,59Zm-8.5,3.84a8.86,8.86,0,0,0,6,8.57.05.05,0,0,1,0,0v1.33s0,0,0,0a9.1,9.1,0,0,0,0,17.15.05.05,0,0,1,0,0v1.33s0,0,0,0a9.1,9.1,0,0,0,0,17.15.05.05,0,0,1,0,0v2.23a0,0,0,0,1,0,0H10.67s0,0,0,0v-2.23s0,0,0,0a9.1,9.1,0,0,0,0-17.15,0,0,0,0,1,0,0V90s0,0,0,0a9.1,9.1,0,0,0,0-17.15,0,0,0,0,1,0,0V71.46s0,0,0,0a9.1,9.1,0,0,0,0-17.15,0,0,0,0,1,0,0V52a0,0,0,0,1,0,0h114.7a0,0,0,0,1,0,0v2.23s0,0,0,0A8.87,8.87,0,0,0,119.33,62.85Z"/><path class="cls-1" d="M142,46.21h2.24a0,0,0,0,0,0,0v-7a5,5,0,0,0-4.82-5.08H24.57a5,5,0,0,0-4.83,5.08h0a0,0,0,0,0,0,0H139.33s0,0,0,0v2.23s0,0,0,0a9.1,9.1,0,0,0,0,17.15,0,0,0,0,1,0,0V60s0,0,0,0a9.1,9.1,0,0,0,0,17.15,0,0,0,0,1,0,0v1.33s0,0,0,0a9.1,9.1,0,0,0,0,17.15,0,0,0,0,1,0,0v7.35s0,0,0,0h0a5,5,0,0,0,4.82-5.08V91s0,0,0,0H142a3.84,3.84,0,0,1-.16-7.67h2.4s0,0,0,0V72.48s0,0,0,0H142a3.84,3.84,0,0,1-.16-7.67h2.4s0,0,0,0V53.93s0,0,0,0h-2.4a3.84,3.84,0,0,1,.16-7.68Z"/></svg>