<svg id="Camada_1" data-name="Camada 1" xmlns="http://www.w3.org/2000/svg" viewBox="0 0 50 50"><defs><style>.cls-1{fill:#999;}</style></defs><title>insta</title><path class="cls-1" d="M34.46,48.72H15.54A12.52,12.52,0,0,1,3,36.21V17.29A12.52,12.52,0,0,1,15.54,4.78H34.46A12.52,12.52,0,0,1,47,17.29V36.21A12.52,12.52,0,0,1,34.46,48.72ZM15.54,8.55A8.75,8.75,0,0,0,6.8,17.29V36.21A8.75,8.75,0,0,0,15.54,45H34.46a8.75,8.75,0,0,0,8.74-8.74V17.29a8.75,8.75,0,0,0-8.74-8.74Z"/><path class="cls-1" d="M25,38A11.25,11.25,0,1,1,36.25,26.75,11.27,11.27,0,0,1,25,38Zm0-18.73a7.48,7.48,0,1,0,7.48,7.48A7.48,7.48,0,0,0,25,19.27Z"/><path class="cls-1" d="M39.44,14.86a2.71,2.71,0,1,1-2.71-2.71A2.7,2.7,0,0,1,39.44,14.86Z"/></svg>