<svg id="Camada_1" data-name="Camada 1" xmlns="http://www.w3.org/2000/svg" viewBox="0 0 394 158"><defs><style>.cls-1{fill:#fff;}</style></defs><title>logo b</title><path class="cls-1" d="M22.08,100.77V46H6V29H57.73V46H41.64v54.79Zm53.34,0V28.92H95.18v71.85Zm91.44-69V53.14a29.72,29.72,0,0,0-8-6.53,18.35,18.35,0,0,0-8.56-2.09,17.58,17.58,0,0,0-13.65,5.77q-5.22,5.76-5.23,15a20.17,20.17,0,0,0,5.33,14.33,17.72,17.72,0,0,0,13.55,5.69,18.25,18.25,0,0,0,8.56-2.08,29.27,29.27,0,0,0,8-6.59V98.08a46.83,46.83,0,0,1-9.28,3.38,38.82,38.82,0,0,1-9.3,1.08,39.65,39.65,0,0,1-10.89-1.4,31,31,0,0,1-9.15-4.23A36.29,36.29,0,0,1,116,83.35a39.84,39.84,0,0,1-4.22-18.44,40.59,40.59,0,0,1,2.67-15A36.59,36.59,0,0,1,122.5,37.7,33.56,33.56,0,0,1,134,29.85a37.56,37.56,0,0,1,14.25-2.59,38.91,38.91,0,0,1,9.31,1.09,46.65,46.65,0,0,1,9.29,3.42Zm18.65,69.05V28.92h19.37V61.58l22.71-32.66h22.75L223.86,64l28.83,36.74H228.26L204.87,68.55v32.22Zm166.85,0V46H336.27V29H388V46H371.92v54.79ZM317.18,8.24H274c-6.35,0-11.49,4.85-11.49,10.82v91.7c0,6,5.16,10.89,11.49,10.89h43.23c6.34,0,11.49-4.86,11.49-10.89V19.06C328.72,13.09,323.54,8.24,317.18,8.24Zm-21.62,4.2a3.35,3.35,0,1,1-3.34,3.35,3.35,3.35,0,0,1,3.34-3.35Zm9.91,100.3H285.66c-.53,0-1-.64-1-1.43s.43-1.44,1-1.44h19.81c.53,0,1,.64,1,1.44S306,112.74,305.47,112.74Zm9.36-20.12q-4.95,3.8-19.28,3.8-14.07,0-19.12-3.77T271.37,78.4V75h11.52c.09,1.36.13,2.18.13,2.46,0,4.26.72,6.92,2.18,8S290.25,87,296,87c5.29,0,8.64-.58,10.05-1.72s2.12-3.9,2.12-8.26c0-3.32-.66-5.52-1.94-6.54s-3.95-1.59-8-1.59h-7.16V59.68h2q9.89,0,12-1.19c1.43-.79,2.16-3,2.17-6.66q0-6.13-1.93-7.56c-1.3-1-4.69-1.42-10.19-1.42-5,0-8.13.52-9.44,1.56s-2,3.6-2,7.62V54H272.41V51.6q0-10.89,4.59-14.49t18.09-3.66q13.62,0,18.69,3.45t5.09,12.71q0,12.84-10.3,14.43v.32q11.21,1.23,11.2,13.52,0,11-4.94,14.74Z"/><path class="cls-1" d="M102.88,117.62a9.72,9.72,0,0,0-2.37-3.68,9.09,9.09,0,0,0-3.7-2.18,22.27,22.27,0,0,0-6.19-.67H81.54a4.6,4.6,0,0,0-3.41,1.09A5,5,0,0,0,77,115.8v29.28a5.3,5.3,0,0,0,1,3.47,3.34,3.34,0,0,0,4.69.4,3,3,0,0,0,.4-.4,5.34,5.34,0,0,0,1-3.5V134.3h6.53q6.52,0,9.79-3t3.27-8.79A13.82,13.82,0,0,0,102.88,117.62Zm-7.24,8.45a4.86,4.86,0,0,1-2.55,1.86,13.48,13.48,0,0,1-4.18.57H84.14V116.89h4.77q4.73,0,6.26,1.69a6.08,6.08,0,0,1,1.36,4.09,6,6,0,0,1-.89,3.4Z"/><path class="cls-1" d="M116.72,115.13V126H132V115.13a5.4,5.4,0,0,1,1-3.5,3.12,3.12,0,0,1,2.53-1.16,3.27,3.27,0,0,1,2.58,1.15,5.28,5.28,0,0,1,1,3.52v29.93a5.25,5.25,0,0,1-1,3.53,3.26,3.26,0,0,1-2.57,1.17,3.1,3.1,0,0,1-2.54-1.18,5.5,5.5,0,0,1-1-3.52V132.34H116.72v12.78a5.27,5.27,0,0,1-1,3.52,3.25,3.25,0,0,1-2.54,1.11,3.11,3.11,0,0,1-2.55-1.17,5.5,5.5,0,0,1-.95-3.52V115.13a5.44,5.44,0,0,1,.93-3.5,3.12,3.12,0,0,1,2.56-1.16,3.27,3.27,0,0,1,2.58,1.15A5.29,5.29,0,0,1,116.72,115.13Z"/><path class="cls-1" d="M177.24,119.68a15,15,0,0,0-5.9-6.82,17.34,17.34,0,0,0-9.33-2.39,17.86,17.86,0,0,0-7.14,1.36,14.47,14.47,0,0,0-5.33,3.93A17.57,17.57,0,0,0,146.2,122a26.43,26.43,0,0,0-1.16,8,27.51,27.51,0,0,0,1.09,8,18,18,0,0,0,3.27,6.3,14.63,14.63,0,0,0,5.44,4.06,19.63,19.63,0,0,0,14.65,0,14.38,14.38,0,0,0,5.38-4,17.67,17.67,0,0,0,3.27-6.25,27.45,27.45,0,0,0,1.08-8A24.86,24.86,0,0,0,177.24,119.68Zm-6.53,17.92a10.07,10.07,0,0,1-3.62,4.56,9,9,0,0,1-5,1.48,8.91,8.91,0,0,1-3.9-.86,9,9,0,0,1-3.14-2.58,12.29,12.29,0,0,1-2.12-4.36,21,21,0,0,1-.76-5.85,20.56,20.56,0,0,1,.76-5.79,12.43,12.43,0,0,1,2-4.24,8.68,8.68,0,0,1,3.09-2.52,8.91,8.91,0,0,1,3.92-.88,9.17,9.17,0,0,1,5.28,1.57,9.9,9.9,0,0,1,3.54,4.63,19.38,19.38,0,0,1,1.24,7.23,19,19,0,0,1-1.33,7.61Z"/><path class="cls-1" d="M194.51,115.08l13.59,22.4V114.92a5.3,5.3,0,0,1,.87-3.26,2.82,2.82,0,0,1,2.36-1.09,2.87,2.87,0,0,1,2.4,1.09,5.16,5.16,0,0,1,.88,3.26V144.8q0,5-3.81,5a4.57,4.57,0,0,1-1.71-.3,4.34,4.34,0,0,1-1.42-.94,8.59,8.59,0,0,1-1.24-1.52c-.39-.58-.77-1.17-1.15-1.77L192,123.09V145.4a5,5,0,0,1-.92,3.27,3.2,3.2,0,0,1-4.79,0,5.15,5.15,0,0,1-.9-3.27V116a8.82,8.82,0,0,1,.38-2.93,4.06,4.06,0,0,1,1.5-1.9,3.84,3.84,0,0,1,2.26-.74,3.71,3.71,0,0,1,1.64.33,4,4,0,0,1,1.18.91,8.82,8.82,0,0,1,1.09,1.48Z"/><path class="cls-1" d="M245.35,117.1H229.43v9.33H244.1a3.25,3.25,0,0,1,2.42.79,2.81,2.81,0,0,1,.79,2.09,2.89,2.89,0,0,1-.78,2.11,3.27,3.27,0,0,1-2.43.82H229.43v10.81h16.48a3.39,3.39,0,0,1,2.51.84,3,3,0,0,1,.85,2.24,3,3,0,0,1-.85,2.18,3.43,3.43,0,0,1-2.51.84H226.69a4.37,4.37,0,0,1-3.32-1.09,5.3,5.3,0,0,1-1-3.61V115.84a7,7,0,0,1,.46-2.72,2.92,2.92,0,0,1,1.42-1.52,5.47,5.47,0,0,1,2.46-.48h18.66a3.45,3.45,0,0,1,2.52.82,3.29,3.29,0,0,1,0,4.35A3.49,3.49,0,0,1,245.35,117.1Z"/></svg>