<svg id="Camada_1" data-name="Camada 1" xmlns="http://www.w3.org/2000/svg" viewBox="0 0 95 95"><defs><style>.cls-1{fill:#fff;}</style></defs><title>maq ticketp</title><circle class="cls-1" cx="30.12" cy="35.28" r="0.89"/><path class="cls-1" d="M43.4,83.18H16.83a3.54,3.54,0,0,1-3.62-3.26L11.55,30a3.65,3.65,0,0,1,1-2.72,3.71,3.71,0,0,1,2.71-1.14H44.94A3.72,3.72,0,0,1,48.69,30L47,79.92A3.53,3.53,0,0,1,43.4,83.18ZM15.3,28a1.9,1.9,0,0,0-1.36.56A1.82,1.82,0,0,0,13.43,30l1.66,49.9a1.66,1.66,0,0,0,1.74,1.44H43.4a1.64,1.64,0,0,0,1.74-1.44L46.81,30A1.85,1.85,0,0,0,44.94,28Z"/><path class="cls-1" d="M40.65,77.75H19.59A1.89,1.89,0,0,1,17.67,76L16.85,41.9a1.86,1.86,0,0,1,.54-1.37,2,2,0,0,1,1.41-.59H41.44a2,2,0,0,1,1.41.59,1.9,1.9,0,0,1,.54,1.37L42.56,76A1.87,1.87,0,0,1,40.65,77.75ZM18.8,41.47a.44.44,0,0,0-.32.13.34.34,0,0,0-.1.27l.82,34.07c0,.14.16.28.39.28H40.65a.36.36,0,0,0,.39-.28l.82-34.07a.38.38,0,0,0-.11-.27.44.44,0,0,0-.31-.13Z"/><path class="cls-1" d="M32.49,36.18H42c.33,0,.59-.4.59-.9s-.26-.89-.59-.89H32.49c-.33,0-.59.4-.59.89S32.16,36.18,32.49,36.18Z"/><path class="cls-1" d="M23,22.37H37.27a.9.9,0,1,0,0-1.79H23a.9.9,0,0,0,0,1.79Z"/><path class="cls-1" d="M42.63,27.85H40.75V13l-.83.94a1.33,1.33,0,0,1-1.08.46,1.37,1.37,0,0,1-1-.56L36.4,12,34,14.16a1.46,1.46,0,0,1-1,.35,1.34,1.34,0,0,1-1-.45L30.15,12l-1.95,2.1a1.36,1.36,0,0,1-1,.44h0a1.36,1.36,0,0,1-1-.45l-1.87-2-1.74,2.15a1.36,1.36,0,0,1-1,.51,1.31,1.31,0,0,1-1-.41l-1.37-1.39v15H17.31V11.6a1.36,1.36,0,0,1,2.34-1l1.84,1.88,1.75-2.17a1.35,1.35,0,0,1,1-.5,1.28,1.28,0,0,1,1,.44l1.9,2.07,1.95-2.1a1.36,1.36,0,0,1,1-.44h0a1.37,1.37,0,0,1,1,.46l1.93,2.14,2.46-2.24a1.36,1.36,0,0,1,2,.21l1.36,1.86,1.31-1.48a1.36,1.36,0,0,1,1.51-.37,1.35,1.35,0,0,1,.87,1.28ZM21.13,13h0Zm11.59-.2ZM18.31,12Zm12.23-.42Zm-.77,0h0Zm6.29,0Z"/><path class="cls-1" d="M79.31,49.81H58.77V42.18H78.56v5.34a.75.75,0,0,0,1.5,0V41.44a.75.75,0,0,0-.76-.75H58a.75.75,0,0,0-.74.76v9.11a.74.74,0,0,0,.76.74H79.31a.75.75,0,0,0,.75-.74A.76.76,0,0,0,79.31,49.81Z"/><path class="cls-1" d="M60.34,57.75V56.64H58.48v1.11Zm1.18-1.69v2.26h0a.59.59,0,0,1-.59.59h-3a.58.58,0,0,1-.59-.59V56.07h0a.58.58,0,0,1,.59-.59h3A.59.59,0,0,1,61.52,56.06Z"/><path class="cls-1" d="M63.38,58.34V56.06a.58.58,0,0,1,.59-.59h3a.59.59,0,0,1,.59.59h0v2.26a.59.59,0,0,1-.59.59H64a.58.58,0,0,1-.59-.58Zm1.18-1.69v1.1h1.86v-1.1Z"/><path class="cls-1" d="M75.54,58.34V56.06a.58.58,0,0,1,.59-.59h3a.58.58,0,0,1,.59.59h0v2.26a.58.58,0,0,1-.59.59h-3a.58.58,0,0,1-.59-.58Zm1.18-1.69v1.1h1.86v-1.1Z"/><path class="cls-1" d="M72.5,57.75V56.64H70.64v1.11Zm1.18-1.69v2.26h0a.58.58,0,0,1-.59.59h-3a.58.58,0,0,1-.59-.59V56.07h0a.59.59,0,0,1,.59-.59h3A.58.58,0,0,1,73.68,56.06Z"/><path class="cls-1" d="M60.34,63.07V62H58.48v1.1Zm1.18-1.69v2.28a.6.6,0,0,1-.59.59h-3a.59.59,0,0,1-.59-.59V61.39h0a.58.58,0,0,1,.59-.59h3A.59.59,0,0,1,61.52,61.38Z"/><path class="cls-1" d="M63.38,63.66V61.38a.58.58,0,0,1,.59-.59h3a.59.59,0,0,1,.59.59h0v2.27a.6.6,0,0,1-.59.59H64a.59.59,0,0,1-.59-.59ZM64.56,62v1.1h1.86V62Z"/><path class="cls-1" d="M75.54,63.66V61.38a.58.58,0,0,1,.59-.59h3a.58.58,0,0,1,.59.59h0v2.27a.59.59,0,0,1-.59.59h-3a.59.59,0,0,1-.59-.59ZM76.72,62v1.1h1.86V62Z"/><path class="cls-1" d="M72.5,63.07V62H70.64v1.1Zm1.18-1.69v2.28a.59.59,0,0,1-.59.59h-3a.59.59,0,0,1-.59-.59V61.39h0a.59.59,0,0,1,.59-.59h3A.58.58,0,0,1,73.68,61.38Z"/><path class="cls-1" d="M60.29,68.48V67.39H58.46v1.09Zm1.16-1.67v2.25a.57.57,0,0,1-.58.57h-3a.57.57,0,0,1-.58-.57V66.81a.58.58,0,0,1,.58-.58h3A.58.58,0,0,1,61.45,66.81Z"/><path class="cls-1" d="M63.28,69.06V66.81a.58.58,0,0,1,.58-.58h3a.58.58,0,0,1,.58.58v2.25a.58.58,0,0,1-.58.58h-3a.58.58,0,0,1-.58-.58Zm1.16-1.67v1.09h1.83V67.39Z"/><path class="cls-1" d="M60.29,73.71V72.63H58.46v1.08Zm1.16-1.66v2.23h0a.58.58,0,0,1-.58.58h-3a.58.58,0,0,1-.58-.58V72.06h0a.58.58,0,0,1,.58-.58h3A.58.58,0,0,1,61.45,72.05Z"/><path class="cls-1" d="M63.28,74.29h0V72.05a.58.58,0,0,1,.58-.58h3a.58.58,0,0,1,.58.58h0v2.23a.58.58,0,0,1-.58.58h-3a.58.58,0,0,1-.58-.58Zm1.16-1.66v1.08h1.83V72.63Z"/><path class="cls-1" d="M78.24,68.48V67.39H70.42v1.09Zm1.16-1.67v2.25a.57.57,0,0,1-.58.57h-9a.56.56,0,0,1-.57-.57V66.81a.58.58,0,0,1,.57-.58h9A.58.58,0,0,1,79.4,66.81Z"/><path class="cls-1" d="M78.24,73.71V72.63H70.42v1.08Zm1.16-1.66v2.23h0a.58.58,0,0,1-.58.58h-9a.57.57,0,0,1-.57-.58V72.06h0a.58.58,0,0,1,.57-.58h9A.58.58,0,0,1,79.4,72.05Z"/><path class="cls-1" d="M80.64,79.18H56.7a2.82,2.82,0,0,1-2.82-2.82V37.93a2.82,2.82,0,0,1,2.82-2.82H80.64a2.82,2.82,0,0,1,2.81,2.82V76.36A2.81,2.81,0,0,1,80.64,79.18ZM56.7,36.37a1.56,1.56,0,0,0-1.56,1.56V76.36a1.56,1.56,0,0,0,1.56,1.56H80.64a1.55,1.55,0,0,0,1.55-1.56V37.93a1.55,1.55,0,0,0-1.55-1.56Z"/></svg>