<svg id="Camada_1" data-name="Camada 1" xmlns="http://www.w3.org/2000/svg" viewBox="0 0 95 95"><defs><style>.cls-1{fill:#fff;}</style></defs><title>maq ticketp</title><circle class="cls-1" cx="34.47" cy="21.56" r="0.67"/><path class="cls-1" d="M44.43,57.47H24.51A2.65,2.65,0,0,1,21.79,55L20.54,17.61a2.8,2.8,0,0,1,2.81-2.89H45.58a2.79,2.79,0,0,1,2.81,2.89L47.14,55A2.64,2.64,0,0,1,44.43,57.47ZM23.35,16.13A1.38,1.38,0,0,0,22,17.57L23.2,55a1.24,1.24,0,0,0,1.31,1.08H44.43A1.23,1.23,0,0,0,45.73,55L47,17.57a1.39,1.39,0,0,0-.38-1,1.43,1.43,0,0,0-1-.42Z"/><path class="cls-1" d="M42.36,53.4H26.57a1.4,1.4,0,0,1-1.43-1.32l-.62-25.55a1.39,1.39,0,0,1,.4-1A1.44,1.44,0,0,1,26,25.06H43a1.44,1.44,0,0,1,1,.44,1.4,1.4,0,0,1,.41,1L43.8,52.08A1.41,1.41,0,0,1,42.36,53.4ZM26,26.2a.35.35,0,0,0-.24.1.27.27,0,0,0-.08.2l.62,25.55a.27.27,0,0,0,.29.21H42.36a.27.27,0,0,0,.29-.21l.62-25.55a.27.27,0,0,0-.08-.2.33.33,0,0,0-.23-.1Z"/><path class="cls-1" d="M36.25,22.23H43.4c.24,0,.44-.3.44-.67s-.2-.67-.44-.67H36.25c-.25,0-.45.3-.45.67S36,22.23,36.25,22.23Z"/><path class="cls-1" d="M29.1,11.88H39.83a.67.67,0,0,0,0-1.34H29.1a.67.67,0,0,0,0,1.34Z"/><path class="cls-1" d="M43.85,16H42.44V4.89l-.62.7a1,1,0,0,1-.81.34,1,1,0,0,1-.78-.41L39.17,4.07l-1.8,1.65a1.11,1.11,0,0,1-.74.27,1,1,0,0,1-.71-.34L34.49,4.07,33,5.64a1,1,0,0,1-.75.33h0a1,1,0,0,1-.75-.33l-1.4-1.53L28.82,5.72a1.05,1.05,0,0,1-.74.38,1,1,0,0,1-.78-.31l-1-1V16H24.87V3.8a1,1,0,0,1,1.75-.71L28,4.49l1.31-1.62a1,1,0,0,1,.77-.38,1,1,0,0,1,.78.33l1.42,1.56L33.75,2.8a1,1,0,0,1,.75-.33h0a1,1,0,0,1,.75.34L36.7,4.42l1.84-1.68a1,1,0,0,1,1.52.15l1,1.4,1-1.11a1,1,0,0,1,1.79.68ZM27.73,4.83h0Zm8.69-.15ZM25.61,4.07Zm9.17-.31Zm-.57,0h0Zm4.71,0Z"/><path class="cls-1" d="M71.35,35.45H56V29.73H70.79v4a.56.56,0,1,0,1.12,0V29.17a.56.56,0,0,0-.57-.55h-16a.56.56,0,0,0-.56.57V36a.56.56,0,0,0,.57.56H71.35a.56.56,0,0,0,.56-.56A.57.57,0,0,0,71.35,35.45Z"/><path class="cls-1" d="M57.13,41.4v-.82h-1.4v.82ZM58,40.14v1.69h0a.45.45,0,0,1-.44.45H55.29a.44.44,0,0,1-.44-.45V40.15h0a.44.44,0,0,1,.44-.45h2.28A.45.45,0,0,1,58,40.14Z"/><path class="cls-1" d="M59.41,41.85V40.14a.44.44,0,0,1,.44-.45h2.28a.45.45,0,0,1,.44.45h0v1.69a.45.45,0,0,1-.44.45H59.85a.44.44,0,0,1-.44-.44Zm.88-1.27v.82h1.4v-.82Z"/><path class="cls-1" d="M68.52,41.85V40.14a.45.45,0,0,1,.45-.45h2.28a.45.45,0,0,1,.44.45h0v1.69a.45.45,0,0,1-.44.45H69a.45.45,0,0,1-.45-.44Zm.89-1.27v.82H70.8v-.82Z"/><path class="cls-1" d="M66.24,41.4v-.82H64.85v.82Zm.89-1.26v1.69h0a.45.45,0,0,1-.44.45H64.41a.44.44,0,0,1-.44-.45V40.15h0a.44.44,0,0,1,.44-.45h2.28A.45.45,0,0,1,67.13,40.14Z"/><path class="cls-1" d="M57.13,45.39v-.82h-1.4v.82ZM58,44.12v1.7h0a.45.45,0,0,1-.44.45H55.29a.44.44,0,0,1-.44-.45V44.12a.44.44,0,0,1,.44-.44h2.28A.44.44,0,0,1,58,44.12Z"/><path class="cls-1" d="M59.41,45.83h0v-1.7a.44.44,0,0,1,.44-.44h2.28a.44.44,0,0,1,.44.44v1.71a.45.45,0,0,1-.44.45H59.85a.44.44,0,0,1-.44-.45Zm.88-1.26v.82h1.4v-.82Z"/><path class="cls-1" d="M68.52,45.83h0v-1.7a.45.45,0,0,1,.45-.44h2.28a.44.44,0,0,1,.44.44v1.71a.45.45,0,0,1-.44.45H69a.45.45,0,0,1-.45-.45Zm.89-1.26v.82H70.8v-.82Z"/><path class="cls-1" d="M66.24,45.39v-.82H64.85v.82Zm.89-1.27v1.7h0a.45.45,0,0,1-.44.45H64.41a.44.44,0,0,1-.44-.45V44.12a.44.44,0,0,1,.44-.44h2.28A.44.44,0,0,1,67.13,44.12Z"/><path class="cls-1" d="M57.09,49.45v-.82H55.72v.82ZM58,48.2v1.67h0a.44.44,0,0,1-.44.44H55.28a.44.44,0,0,1-.43-.44V48.21h0a.43.43,0,0,1,.43-.43h2.24A.44.44,0,0,1,58,48.2Z"/><path class="cls-1" d="M59.33,49.88h0V48.2a.44.44,0,0,1,.44-.43H62a.44.44,0,0,1,.44.43h0v1.67a.44.44,0,0,1-.44.44H59.77a.44.44,0,0,1-.44-.44Zm.87-1.24v.81h1.38v-.81Z"/><path class="cls-1" d="M57.09,53.37v-.81H55.72v.81ZM58,52.13V53.8h0a.44.44,0,0,1-.44.43H55.28a.43.43,0,0,1-.43-.43V52.14h0a.44.44,0,0,1,.43-.44h2.24A.44.44,0,0,1,58,52.13Z"/><path class="cls-1" d="M59.33,53.81h0V52.13a.44.44,0,0,1,.44-.44H62a.44.44,0,0,1,.44.44h0v1.67a.44.44,0,0,1-.44.43H59.77a.44.44,0,0,1-.44-.43Zm.87-1.25v.81h1.38v-.81Z"/><path class="cls-1" d="M70.55,49.45v-.82H64.69v.82Zm.87-1.25v1.67h0a.44.44,0,0,1-.44.44H64.25a.44.44,0,0,1-.43-.44V48.21h0a.43.43,0,0,1,.43-.43H71A.44.44,0,0,1,71.42,48.2Z"/><path class="cls-1" d="M70.55,53.37v-.81H64.69v.81Zm.87-1.24V53.8h0a.44.44,0,0,1-.44.43H64.25a.43.43,0,0,1-.43-.43V52.14h0a.44.44,0,0,1,.43-.44H71A.44.44,0,0,1,71.42,52.13Z"/><path class="cls-1" d="M72.35,57.47H54.4a2.11,2.11,0,0,1-2.12-2.11V26.54a2.12,2.12,0,0,1,2.12-2.11H72.35a2.12,2.12,0,0,1,2.11,2.11V55.36A2.11,2.11,0,0,1,72.35,57.47ZM54.4,25.38a1.16,1.16,0,0,0-1.17,1.16V55.36a1.17,1.17,0,0,0,1.17,1.17H72.35a1.17,1.17,0,0,0,1.16-1.17V26.54a1.16,1.16,0,0,0-1.16-1.16Z"/><path class="cls-1" d="M8.84,63.87h1.95l2.89,8.49,2.86-8.49h1.94v10h-1.3V68c0-.2,0-.54,0-1s0-1,0-1.52l-2.87,8.47H13L10.1,65.44v.31c0,.24,0,.62,0,1.12s0,.87,0,1.11v5.93H8.84Z"/><path class="cls-1" d="M24.3,69.48a.66.66,0,0,0,.56-.36,1,1,0,0,0,.09-.47,1,1,0,0,0-.45-.92,2.41,2.41,0,0,0-1.28-.28,1.63,1.63,0,0,0-1.37.52,1.77,1.77,0,0,0-.29.86H20.41a2.14,2.14,0,0,1,.88-1.89,3.62,3.62,0,0,1,2-.53,3.92,3.92,0,0,1,2.09.49,1.68,1.68,0,0,1,.8,1.53v4.22a.57.57,0,0,0,.08.31c.05.08.16.11.33.11h.19L27,73v.91a2.74,2.74,0,0,1-.84.13,1,1,0,0,1-.93-.46,1.65,1.65,0,0,1-.21-.67,3.07,3.07,0,0,1-1.08.85,3.34,3.34,0,0,1-1.55.36,2.3,2.3,0,0,1-1.66-.61A2,2,0,0,1,20,72a2,2,0,0,1,.64-1.58,3.06,3.06,0,0,1,1.66-.69ZM21.7,72.8a1.43,1.43,0,0,0,.93.31,2.84,2.84,0,0,0,1.26-.3,1.69,1.69,0,0,0,1-1.63v-1a2.47,2.47,0,0,1-.58.24,4.62,4.62,0,0,1-.69.13l-.75.1a2.81,2.81,0,0,0-1,.28,1.08,1.08,0,0,0-.57,1A1,1,0,0,0,21.7,72.8Z"/><path class="cls-1" d="M32.29,66.88a2.63,2.63,0,0,1,.65.73v-1h1.17V76.83H32.87V73.07a2.11,2.11,0,0,1-.84.78,2.94,2.94,0,0,1-1.36.29,2.91,2.91,0,0,1-2.09-.92,3.79,3.79,0,0,1-.92-2.78,4.64,4.64,0,0,1,.86-2.89,2.7,2.7,0,0,1,2.24-1.13A2.57,2.57,0,0,1,32.29,66.88Zm-3.08,5.06a1.69,1.69,0,0,0,1.69,1.14,1.76,1.76,0,0,0,1.76-1.2,4.55,4.55,0,0,0,.27-1.7,3.84,3.84,0,0,0-.29-1.58,1.78,1.78,0,0,0-1.76-1.09,1.73,1.73,0,0,0-1.37.69,3.37,3.37,0,0,0-.57,2.15A4.13,4.13,0,0,0,29.21,71.94Z"/><path class="cls-1" d="M37.17,66.59v4.86a2,2,0,0,0,.18.91,1.2,1.2,0,0,0,1.19.66,1.68,1.68,0,0,0,1.7-1.15,4.53,4.53,0,0,0,.25-1.69V66.59h1.23v7.32H40.56V72.83a2.34,2.34,0,0,1-.58.7,2.56,2.56,0,0,1-1.68.58,2.15,2.15,0,0,1-2.09-1,3.17,3.17,0,0,1-.3-1.5v-5Z"/><path class="cls-1" d="M43.73,63.87H45v1.39H43.73Zm0,2.75H45v7.29H43.73Z"/><path class="cls-1" d="M46.84,66.59H48v1a3.33,3.33,0,0,1,1.1-.93,3,3,0,0,1,1.29-.28,2.15,2.15,0,0,1,2.11,1.09,3.86,3.86,0,0,1,.3,1.7v4.7H51.56V69.29a2.57,2.57,0,0,0-.2-1.08,1.21,1.21,0,0,0-1.19-.68,2.43,2.43,0,0,0-.72.09,1.91,1.91,0,0,0-.89.6,2,2,0,0,0-.4.75,5.13,5.13,0,0,0-.09,1.1v3.84H46.84Z"/><path class="cls-1" d="M54.63,63.87h1.25v1.39H54.63Zm0,2.75h1.25v7.29H54.63Z"/><path class="cls-1" d="M57.74,66.59h1.17v1A3.24,3.24,0,0,1,60,66.7a3,3,0,0,1,1.29-.28,2.13,2.13,0,0,1,2.1,1.09,3.86,3.86,0,0,1,.3,1.7v4.7H62.45V69.29a2.58,2.58,0,0,0-.19-1.08,1.21,1.21,0,0,0-1.19-.68,2.39,2.39,0,0,0-.72.09,1.82,1.82,0,0,0-.89.6,1.72,1.72,0,0,0-.4.75,5.13,5.13,0,0,0-.09,1.1v3.84H57.74Z"/><path class="cls-1" d="M65.52,63.83h1.23v3.75a3.77,3.77,0,0,1,.79-.78A2.65,2.65,0,0,1,69,66.41a2.19,2.19,0,0,1,2.16,1.11,3.75,3.75,0,0,1,.31,1.69v4.7H70.23V69.29A2.54,2.54,0,0,0,70,68.11a1.31,1.31,0,0,0-1.26-.6,2.08,2.08,0,0,0-1.38.53,2.51,2.51,0,0,0-.63,2v3.88H65.52Z"/><path class="cls-1" d="M77.23,69.48a.68.68,0,0,0,.57-.36,1,1,0,0,0,.08-.47,1,1,0,0,0-.44-.92,2.41,2.41,0,0,0-1.28-.28,1.63,1.63,0,0,0-1.37.52,1.67,1.67,0,0,0-.29.86H73.35a2.11,2.11,0,0,1,.88-1.89,3.6,3.6,0,0,1,2-.53,4,4,0,0,1,2.1.49,1.68,1.68,0,0,1,.8,1.53v4.22a.57.57,0,0,0,.08.31c0,.08.16.11.33.11h.18a.83.83,0,0,0,.22,0v.91a2.87,2.87,0,0,1-.85.13,1,1,0,0,1-.92-.46,1.65,1.65,0,0,1-.21-.67,3.07,3.07,0,0,1-1.08.85,3.37,3.37,0,0,1-1.55.36,2.32,2.32,0,0,1-1.67-.61A2.07,2.07,0,0,1,73,72a2,2,0,0,1,.63-1.58,3.1,3.1,0,0,1,1.67-.69ZM74.64,72.8a1.43,1.43,0,0,0,.93.31,2.77,2.77,0,0,0,1.25-.3,1.69,1.69,0,0,0,1-1.63v-1a2.67,2.67,0,0,1-.58.24,4.51,4.51,0,0,1-.7.13l-.74.1a2.87,2.87,0,0,0-1,.28,1.08,1.08,0,0,0-.57,1A1,1,0,0,0,74.64,72.8Z"/><path class="cls-1" d="M81.83,71.61a1.69,1.69,0,0,0,.31.94,2,2,0,0,0,1.65.6,2.49,2.49,0,0,0,1.23-.3,1,1,0,0,0,.53-.92.81.81,0,0,0-.43-.72,5.16,5.16,0,0,0-1.07-.34l-1-.25a5,5,0,0,1-1.4-.52,1.54,1.54,0,0,1-.81-1.38A2.09,2.09,0,0,1,81.61,67a3,3,0,0,1,2-.64,2.85,2.85,0,0,1,2.42,1,2.07,2.07,0,0,1,.45,1.32H85.35a1.33,1.33,0,0,0-.3-.75,2,2,0,0,0-1.5-.48,1.79,1.79,0,0,0-1.08.26.82.82,0,0,0-.37.7.88.88,0,0,0,.48.77,3.2,3.2,0,0,0,.83.3l.82.19a6.56,6.56,0,0,1,1.81.63,1.63,1.63,0,0,1,.72,1.48A2.26,2.26,0,0,1,86,73.48a3.24,3.24,0,0,1-2.29.71,3.11,3.11,0,0,1-2.34-.74,2.85,2.85,0,0,1-.74-1.84Z"/><path class="cls-1" d="M17.21,78.87v1.19H13.83v8.85H12.46V80.06H9.07V78.87Z"/><path class="cls-1" d="M17.79,78.87H19v1.39H17.79Zm0,2.75H19v7.29H17.79Z"/><path class="cls-1" d="M25.73,82a2.89,2.89,0,0,1,.94,2.07h-1.2a2.21,2.21,0,0,0-.5-1.13,1.56,1.56,0,0,0-1.25-.44A1.73,1.73,0,0,0,22,83.62a4.55,4.55,0,0,0-.33,1.84,3.46,3.46,0,0,0,.47,1.85,1.59,1.59,0,0,0,1.46.75,1.57,1.57,0,0,0,1.21-.47,2.49,2.49,0,0,0,.62-1.27h1.2a3.22,3.22,0,0,1-1,2.13,3.17,3.17,0,0,1-2.1.67,2.81,2.81,0,0,1-2.29-1.05,4,4,0,0,1-.85-2.62,4.37,4.37,0,0,1,.94-3,3,3,0,0,1,2.38-1.08A3.17,3.17,0,0,1,25.73,82Z"/><path class="cls-1" d="M27.87,78.87h1.18V84.7l3.16-3.11h1.57L31,84.31l3,4.6H32.37l-2.31-3.73-1,1v2.75H27.87Z"/><path class="cls-1" d="M39.42,81.79a2.75,2.75,0,0,1,1.11.95A3.28,3.28,0,0,1,41,84a8.58,8.58,0,0,1,.11,1.61H35.8a3.16,3.16,0,0,0,.52,1.79,1.76,1.76,0,0,0,1.52.68,1.93,1.93,0,0,0,1.52-.64,2.22,2.22,0,0,0,.45-.86H41a2.34,2.34,0,0,1-.32.9,3,3,0,0,1-.6.81,2.91,2.91,0,0,1-1.37.74,4.37,4.37,0,0,1-1,.11,3,3,0,0,1-2.3-1,3.87,3.87,0,0,1-1-2.78,4.26,4.26,0,0,1,1-2.87,3.16,3.16,0,0,1,2.49-1.1A3.2,3.2,0,0,1,39.42,81.79Zm.44,2.87a3.26,3.26,0,0,0-.34-1.28,1.78,1.78,0,0,0-1.68-.88,1.84,1.84,0,0,0-1.41.61,2.29,2.29,0,0,0-.6,1.55Z"/><path class="cls-1" d="M42.93,79.54h1.24v2h1.17v1H44.17v4.78a.52.52,0,0,0,.26.51,1.12,1.12,0,0,0,.48.08h.19l.24,0v1a2.85,2.85,0,0,1-.44.09,3.85,3.85,0,0,1-.49,0,1.31,1.31,0,0,1-1.17-.44,1.9,1.9,0,0,1-.31-1.14V82.59h-1v-1h1Z"/><path class="cls-1" d="M46.87,78.87h4.49a3,3,0,0,1,2.15.75,2.72,2.72,0,0,1,.82,2.12,3.07,3.07,0,0,1-.73,2.05,2.76,2.76,0,0,1-2.24.87H48.23v4.25H46.87Zm5.27,1.38A2.88,2.88,0,0,0,50.92,80H48.23v3.47h2.69a2.55,2.55,0,0,0,1.47-.39A1.52,1.52,0,0,0,53,81.75,1.49,1.49,0,0,0,52.14,80.25Z"/><path class="cls-1" d="M55.91,78.83h1.23v3.75a3.55,3.55,0,0,1,.79-.78,2.65,2.65,0,0,1,1.48-.39,2.2,2.2,0,0,1,2.16,1.11,3.75,3.75,0,0,1,.31,1.69v4.7H60.62V84.29a2.54,2.54,0,0,0-.21-1.18,1.31,1.31,0,0,0-1.26-.6,2.12,2.12,0,0,0-1.39.53,2.54,2.54,0,0,0-.62,2v3.88H55.91Z"/><path class="cls-1" d="M69,82.32a3.68,3.68,0,0,1,1,2.77A4.77,4.77,0,0,1,69.12,88a3.1,3.1,0,0,1-2.66,1.16,3,3,0,0,1-2.38-1,4.06,4.06,0,0,1-.88-2.75,4.36,4.36,0,0,1,.93-2.93,3.11,3.11,0,0,1,2.5-1.1A3.27,3.27,0,0,1,69,82.32Zm-.76,4.86a4.62,4.62,0,0,0,.45-2.06,3.63,3.63,0,0,0-.33-1.66,1.82,1.82,0,0,0-1.77-1,1.75,1.75,0,0,0-1.62.86,4,4,0,0,0-.51,2.07,3.49,3.49,0,0,0,.51,2,1.78,1.78,0,0,0,1.61.78A1.67,1.67,0,0,0,68.24,87.18Z"/><path class="cls-1" d="M71.48,81.59h1.17v1a3.44,3.44,0,0,1,1.1-.93,3.06,3.06,0,0,1,1.3-.28,2.14,2.14,0,0,1,2.1,1.09,3.86,3.86,0,0,1,.3,1.7v4.7H76.2V84.29a2.57,2.57,0,0,0-.2-1.08,1.2,1.2,0,0,0-1.19-.68,2.32,2.32,0,0,0-.71.09,1.82,1.82,0,0,0-.89.6,1.72,1.72,0,0,0-.4.75,5,5,0,0,0-.1,1.1v3.84H71.48Z"/><path class="cls-1" d="M83.79,81.79a2.68,2.68,0,0,1,1.11.95A3.28,3.28,0,0,1,85.39,84a8.58,8.58,0,0,1,.11,1.61H80.17a3.17,3.17,0,0,0,.53,1.79,1.72,1.72,0,0,0,1.51.68,1.93,1.93,0,0,0,1.52-.64,2.11,2.11,0,0,0,.46-.86H85.4a2.72,2.72,0,0,1-.32.9,3.28,3.28,0,0,1-.6.81,2.94,2.94,0,0,1-1.38.74,4.37,4.37,0,0,1-1,.11,3,3,0,0,1-2.3-1,3.87,3.87,0,0,1-1-2.78,4.26,4.26,0,0,1,1-2.87,3.16,3.16,0,0,1,2.49-1.1A3.2,3.2,0,0,1,83.79,81.79Zm.44,2.87a3.26,3.26,0,0,0-.34-1.28,1.78,1.78,0,0,0-1.68-.88,1.84,1.84,0,0,0-1.41.61,2.29,2.29,0,0,0-.6,1.55Z"/></svg>