<svg id="Camada_1" data-name="Camada 1" xmlns="http://www.w3.org/2000/svg" viewBox="0 0 1300 70"><defs><style>.cls-1{fill:#fff;}</style></defs><title>det branco3</title><path class="cls-1" d="M-.18,0V36.06h0s0,17.57,0,31.19C32.59,67.25,32.1,40,64.88,40s32.28,27.23,65.06,27.23,32.28-27.72,64.56-27.72,32.79,27.72,65.07,27.72S291.85,40,324.63,40s32.28,27.23,65.06,27.23S422,40,454.26,40,487,67.25,519.32,67.25C552.1,66.75,552.1,40,584.39,40c32.73,0,33.28,27.15,65.43,27.22V67l.19,1h.81v-.08c32.6-.07,32.15-27.19,64.84-27.19s32.23,27.19,65,27.19,32.24-27.68,64.47-27.68,32.73,27.68,65,27.68,32.23-27.19,65-27.19,32.24,27.19,65,27.19,32.24-27.19,64.47-27.19,32.73,27.19,65,27.19c32.73-.49,32.73-27.19,65-27.19,32.73,0,33.23,27.19,65.46,27.19V0Z"/></svg>