<svg id="Camada_1" data-name="Camada 1" xmlns="http://www.w3.org/2000/svg" viewBox="0 0 300 380"><defs><style>.cls-1,.cls-2{fill:#fff;}.cls-2{font-size:18px;font-family:Helvetica, Helvetica;}</style></defs><title>pal e cursos</title><path class="cls-1" d="M61.67,255.18c0-7.67-9-13.91-20.09-13.91S21.5,247.51,21.5,255.18c0,4.29,2.83,8.3,7.64,10.92l-4,6.93,2.31-.36A172.76,172.76,0,0,0,46,268.74C56,265.79,61.67,260.85,61.67,255.18ZM29.46,270.06l2.82-4.92-1.1-.52c-4.65-2.21-7.43-5.74-7.43-9.44,0-6.43,8-11.66,17.83-11.66s17.84,5.23,17.84,11.66-9.83,10.15-14.05,11.4A157,157,0,0,1,29.46,270.06Z"/><path class="cls-1" d="M24.22,273.68l4.23-7.39c-4.74-2.73-7.45-6.76-7.45-11.11,0-8,9.23-14.41,20.58-14.41s20.59,6.46,20.59,14.41c0,5.9-5.84,11-16,14a178.11,178.11,0,0,1-18.6,3.95Zm17.36-31.91c-10.8,0-19.58,6-19.58,13.41,0,4.11,2.69,7.93,7.38,10.49l.44.24-3.7,6.47,1.28-.2a176.88,176.88,0,0,0,18.47-3.92c9.72-2.88,15.3-7.65,15.3-13.08C61.17,247.79,52.38,241.77,41.58,241.77Zm-13.08,29,3.08-5.37-.61-.29c-4.83-2.29-7.72-6-7.72-9.89,0-6.7,8.22-12.16,18.33-12.16s18.34,5.46,18.34,12.16c0,6.86-10.08,10.59-14.41,11.88a156.45,156.45,0,0,1-16,3.49ZM41.58,244c-9.55,0-17.33,5-17.33,11.16,0,3.51,2.67,6.87,7.15,9l1.59.75-2.56,4.47a150.67,150.67,0,0,0,14.8-3.29c4.11-1.22,13.69-4.73,13.69-10.92S51.14,244,41.58,244Z"/><path class="cls-1" d="M66.5,279.2c0-5-5.84-9.15-13-9.15s-13,4.11-13,9.15,6.34,7.79,10.12,8.91a107.71,107.71,0,0,0,11.68,2.48l2.32.36-2.72-4.74C64.79,284.49,66.5,281.93,66.5,279.2ZM51.22,286c-5.33-1.58-8.51-4.1-8.51-6.75,0-3.8,4.83-6.89,10.77-6.89s10.77,3.09,10.77,6.89c0,2.16-1.66,4.23-4.43,5.54l-1.1.53,1.55,2.7C57.89,287.54,54.13,286.81,51.22,286Z"/><path class="cls-1" d="M65.53,291.6l-3.34-.52a106.65,106.65,0,0,1-11.75-2.49C46.53,287.43,40,284.67,40,279.2c0-5.32,6.06-9.65,13.52-9.65S67,273.88,67,279.2c0,2.77-1.62,5.37-4.46,7.19ZM53.48,270.55c-6.9,0-12.52,3.88-12.52,8.65s6.12,7.35,9.76,8.43a106.93,106.93,0,0,0,11.61,2.46l1.3.2L61.18,286l.43-.25c2.79-1.64,4.39-4,4.39-6.58C66,274.43,60.38,270.55,53.48,270.55Zm7.76,18.1-1.05-.19a91.41,91.41,0,0,1-9.11-2c-5.55-1.65-8.87-4.35-8.87-7.23,0-4.08,5.06-7.39,11.27-7.39s11.27,3.31,11.27,7.39c0,2.36-1.76,4.6-4.71,6l-.61.29Zm-7.76-15.84c-5.66,0-10.27,2.86-10.27,6.39,0,2.38,3.13,4.78,8.16,6.27h0c2.45.73,5.5,1.36,7.93,1.82L58,285.05l1.59-.76c2.59-1.23,4.14-3.13,4.14-5.09C63.75,275.67,59.14,272.81,53.48,272.81Z"/><path class="cls-1" d="M39.1,94.78H24.5v14.6H39.1ZM36.67,107H26.93V97.21h9.74Z"/><path class="cls-1" d="M29.37,99.65h4.86v4.86H29.37Z"/><path class="cls-1" d="M24.5,133.71H39.1v-14.6H24.5Zm2.43-12.17h9.74v9.74H26.93Z"/><path class="cls-1" d="M29.37,124h4.86v4.86H29.37Z"/><path class="cls-1" d="M48.83,94.78v14.6h14.6V94.78ZM61,107H51.26V97.21H61Z"/><path class="cls-1" d="M53.7,99.65h4.86v4.86H53.7Z"/><path class="cls-1" d="M29.37,111.81H24.5v4.87h7.3v-2.44H29.37Z"/><path class="cls-1" d="M41.53,116.68H46.4v4.86H41.53Z"/><path class="cls-1" d="M31.8,111.81h4.87v2.43H31.8Z"/><path class="cls-1" d="M46.4,124H41.53v2.43H44v2.43H46.4V124Z"/><path class="cls-1" d="M39.1,111.81v2.43H36.67v2.44h4.86v-4.87Z"/><path class="cls-1" d="M44,104.51H46.4v4.87H44Z"/><path class="cls-1" d="M46.4,114.24v2.44h4.86v-4.87H44v2.43Z"/><path class="cls-1" d="M41.53,109.38H44v2.43H41.53Z"/><path class="cls-1" d="M46.4,128.84h4.86v4.87H46.4Z"/><path class="cls-1" d="M41.53,128.84H44v4.87H41.53Z"/><path class="cls-1" d="M46.4,121.54h2.43V124H46.4Z"/><path class="cls-1" d="M46.4,102.08V97.21H44V94.78H41.53v9.73H44v-2.43Z"/><path class="cls-1" d="M53.7,128.84h2.43v4.87H53.7Z"/><path class="cls-1" d="M53.7,124h4.86v2.43H53.7Z"/><path class="cls-1" d="M51.26,126.41H53.7v2.43H51.26Z"/><path class="cls-1" d="M48.83,124h2.43v2.43H48.83Z"/><path class="cls-1" d="M58.56,119.11v2.43H61V124h2.43v-4.87H58.56Z"/><path class="cls-1" d="M61,126.41H58.56v7.3h4.87v-4.87H61Z"/><path class="cls-1" d="M48.83,119.11v2.43h7.3v-4.86H51.26v2.43Z"/><path class="cls-1" d="M53.7,111.81v2.43h4.86v2.44h4.87v-4.87H53.7Z"/><polygon class="cls-1" points="26.86 139.28 19 139.28 19 131.42 21.29 131.42 21.29 136.99 26.86 136.99 26.86 139.28"/><polygon class="cls-1" points="21.29 97.14 19 97.14 19 89.28 26.86 89.28 26.86 91.57 21.29 91.57 21.29 97.14"/><polygon class="cls-1" points="69 97.14 66.71 97.14 66.71 91.57 61.14 91.57 61.14 89.28 69 89.28 69 97.14"/><polygon class="cls-1" points="69 139.28 61.14 139.28 61.14 136.99 66.71 136.99 66.71 131.42 69 131.42 69 139.28"/><text class="cls-2" transform="translate(88 44.93)">Ingresso individual</text><text class="cls-2" transform="translate(88 107.27)">Confirme presenças <tspan x="0" y="24">para cada programação</tspan></text><text class="cls-2" transform="translate(88 183.81)">Emita certificados e <tspan x="0" y="24">declarações digitais</tspan></text><text class="cls-2" transform="translate(88 259.3)">Receba perguntas aos <tspan x="0" y="24">palestrantes</tspan></text><text class="cls-2" transform="translate(88 334.99)">Disponibilize materiais <tspan x="0" y="24">para download</tspan></text><path class="cls-1" d="M66.89,32h1s0,0,0,0V28.9a2.15,2.15,0,0,0-2.09-2.2H16.09A2.15,2.15,0,0,0,14,28.9V32s0,0,0,0h1a1.66,1.66,0,0,1,1.63,1.46,1.63,1.63,0,0,1-1.57,1.87H14V40h1a1.66,1.66,0,0,1,1.63,1.46,1.63,1.63,0,0,1-1.57,1.87H14V48h1a1.66,1.66,0,0,1,1.63,1.46,1.63,1.63,0,0,1-1.57,1.87H14v3a2.16,2.16,0,0,0,2.09,2.21H65.86A2.16,2.16,0,0,0,68,54.43v-3H67A1.67,1.67,0,0,1,66.89,48H68V43.34H67A1.67,1.67,0,0,1,66.89,40H68V35.3H67A1.67,1.67,0,0,1,66.89,32Zm-3.68,1.67a3.85,3.85,0,0,0,2.62,3.71s0,0,0,0v.57s0,0,0,0a3.94,3.94,0,0,0,0,7.43s0,0,0,0V46s0,0,0,0a3.94,3.94,0,0,0,0,7.43s0,0,0,0v1s0,0,0,0H16.12s0,0,0,0v-1s0,0,0,0a3.94,3.94,0,0,0,0-7.43s0,0,0,0V45.4s0,0,0,0a3.94,3.94,0,0,0,0-7.43s0,0,0,0v-.57s0,0,0,0a3.94,3.94,0,0,0,0-7.43s0,0,0,0v-1s0,0,0,0H65.83s0,0,0,0v1s0,0,0,0A3.85,3.85,0,0,0,63.21,33.63Z"/><path class="cls-1" d="M73,26.42h1a0,0,0,0,0,0,0v-3a2.15,2.15,0,0,0-2.09-2.2H22.14a2.15,2.15,0,0,0-2.09,2.2h0a0,0,0,0,0,0,0H71.89v1h0a4,4,0,0,0,0,7.44h0v.58h0a4,4,0,0,0,0,7.44h0v.58h0a4,4,0,0,0,0,7.44h0v3.19h0A2.15,2.15,0,0,0,74,48.89v-3a0,0,0,0,0,0,0H73a1.66,1.66,0,0,1-1.63-1.45A1.63,1.63,0,0,1,73,42.5h1a0,0,0,0,0,0,0v-4.7H73a1.66,1.66,0,0,1-1.63-1.45A1.63,1.63,0,0,1,73,34.46h1a0,0,0,0,0,0,0V29.76a0,0,0,0,0,0,0H73a1.63,1.63,0,0,1-1.57-1.86A1.66,1.66,0,0,1,73,26.42Z"/><path class="cls-1" d="M51.37,345.79a1.59,1.59,0,0,1,0,2.25l-6.24,6.25-.14.11a1.47,1.47,0,0,1-.65.32h0a1.3,1.3,0,0,1-.64,0h-.06l-.24-.08h0a1.58,1.58,0,0,1-.48-.33L36.62,348a1.59,1.59,0,0,1,2.25-2.25l3.54,3.55V336.81a1.59,1.59,0,0,1,3.18,0v12.52l3.54-3.54A1.58,1.58,0,0,1,51.37,345.79Zm13-15.19v32a4.5,4.5,0,0,1-4.49,4.49H28.15a4.49,4.49,0,0,1-4.49-4.49v-41a4.49,4.49,0,0,1,4.49-4.49h23a1.69,1.69,0,0,1,.63.13h0a1.65,1.65,0,0,1,.26.14l0,0a1.37,1.37,0,0,1,.18.16h0l11.56,11.88h0v0l.06.08a.79.79,0,0,1,.12.15.55.55,0,0,1,.08.15.75.75,0,0,1,.07.12,1.21,1.21,0,0,1,0,.18s0,.07,0,.12,0,.13,0,.2,0,.07,0,.1h0v0Zm-3.18,1.56h-10a1.59,1.59,0,0,1-1.59-1.59v-10.3H28.15a1.31,1.31,0,0,0-1.31,1.31v41a1.31,1.31,0,0,0,1.31,1.31h31.7a1.31,1.31,0,0,0,1.31-1.31ZM59,329l-6.23-6.39V329Z"/><path class="cls-1" d="M36.49,185.29l15.25-.11v1.6l-15.25.12ZM57,181.52l-25.79.2,0,1.6L57,183.13Zm-7.71,13.71a5.43,5.43,0,1,0-5.38,5.46A5.42,5.42,0,0,0,49.27,195.23Zm2.53,1.87-7.89,6.33L48.35,209l2-5.53,5.83-.8Zm-21.87,2.67,5.52,2,.81,5.83,5.52-4.43-6.33-7.88Zm41.29-28.6-54.72.41.28,37.28L33,208.67h.29L33,205.72l-13.26.17-.24-31.38,48.83-.37.24,31.38-15.41.19L52,208.66l19.25-.22h.27Z"/></svg>