<svg id="Camada_1" data-name="Camada 1" xmlns="http://www.w3.org/2000/svg" viewBox="0 0 300 380"><defs><style>.cls-1{fill:#fff;}</style></defs><title>palestras</title><path class="cls-1" d="M61.67,255.18c0-7.67-9-13.91-20.09-13.91S21.5,247.51,21.5,255.18c0,4.29,2.83,8.3,7.64,10.92l-4,6.93,2.31-.36A172.76,172.76,0,0,0,46,268.74C56,265.79,61.67,260.85,61.67,255.18ZM29.46,270.06l2.82-4.92-1.1-.52c-4.65-2.21-7.43-5.74-7.43-9.44,0-6.43,8-11.66,17.83-11.66s17.84,5.23,17.84,11.66-9.83,10.15-14.05,11.4A157,157,0,0,1,29.46,270.06Z"/><path class="cls-1" d="M24.22,273.68l4.23-7.39c-4.74-2.73-7.45-6.76-7.45-11.11,0-8,9.23-14.41,20.58-14.41s20.59,6.46,20.59,14.41c0,5.9-5.84,11-16,14a178.11,178.11,0,0,1-18.6,3.95Zm17.36-31.91c-10.8,0-19.58,6-19.58,13.41,0,4.11,2.69,7.93,7.38,10.49l.44.24-3.7,6.47,1.28-.2a176.88,176.88,0,0,0,18.47-3.92c9.72-2.88,15.3-7.65,15.3-13.08C61.17,247.79,52.38,241.77,41.58,241.77Zm-13.08,29,3.08-5.37-.61-.29c-4.83-2.29-7.72-6-7.72-9.89,0-6.7,8.22-12.16,18.33-12.16s18.34,5.46,18.34,12.16c0,6.86-10.08,10.59-14.41,11.88a156.45,156.45,0,0,1-16,3.49ZM41.58,244c-9.55,0-17.33,5-17.33,11.16,0,3.51,2.67,6.87,7.15,9l1.59.75-2.56,4.47a150.67,150.67,0,0,0,14.8-3.29c4.11-1.22,13.69-4.73,13.69-10.92S51.14,244,41.58,244Z"/><path class="cls-1" d="M66.5,279.2c0-5-5.84-9.15-13-9.15s-13,4.11-13,9.15,6.34,7.79,10.12,8.91a107.71,107.71,0,0,0,11.68,2.48l2.32.36-2.72-4.74C64.79,284.49,66.5,281.93,66.5,279.2ZM51.22,286c-5.33-1.58-8.51-4.1-8.51-6.75,0-3.8,4.83-6.89,10.77-6.89s10.77,3.09,10.77,6.89c0,2.16-1.66,4.23-4.43,5.54l-1.1.53,1.55,2.7C57.89,287.54,54.13,286.81,51.22,286Z"/><path class="cls-1" d="M65.53,291.6l-3.34-.52a106.65,106.65,0,0,1-11.75-2.49C46.53,287.43,40,284.67,40,279.2c0-5.32,6.06-9.65,13.52-9.65S67,273.88,67,279.2c0,2.77-1.62,5.37-4.46,7.19ZM53.48,270.55c-6.9,0-12.52,3.88-12.52,8.65s6.12,7.35,9.76,8.43a106.93,106.93,0,0,0,11.61,2.46l1.3.2L61.18,286l.43-.25c2.79-1.64,4.39-4,4.39-6.58C66,274.43,60.38,270.55,53.48,270.55Zm7.76,18.1-1.05-.19a91.41,91.41,0,0,1-9.11-2c-5.55-1.65-8.87-4.35-8.87-7.23,0-4.08,5.06-7.39,11.27-7.39s11.27,3.31,11.27,7.39c0,2.36-1.76,4.6-4.71,6l-.61.29Zm-7.76-15.84c-5.66,0-10.27,2.86-10.27,6.39,0,2.38,3.13,4.78,8.16,6.27h0c2.45.73,5.5,1.36,7.93,1.82L58,285.05l1.59-.76c2.59-1.23,4.14-3.13,4.14-5.09C63.75,275.67,59.14,272.81,53.48,272.81Z"/><path class="cls-1" d="M39.1,94.78H24.5v14.6H39.1ZM36.67,107H26.93V97.21h9.74Z"/><path class="cls-1" d="M29.37,99.65h4.86v4.86H29.37Z"/><path class="cls-1" d="M24.5,133.71H39.1v-14.6H24.5Zm2.43-12.17h9.74v9.74H26.93Z"/><path class="cls-1" d="M29.37,124h4.86v4.86H29.37Z"/><path class="cls-1" d="M48.83,94.78v14.6h14.6V94.78ZM61,107H51.26V97.21H61Z"/><path class="cls-1" d="M53.7,99.65h4.86v4.86H53.7Z"/><path class="cls-1" d="M29.37,111.81H24.5v4.87h7.3v-2.44H29.37Z"/><path class="cls-1" d="M41.53,116.68H46.4v4.86H41.53Z"/><path class="cls-1" d="M31.8,111.81h4.87v2.43H31.8Z"/><path class="cls-1" d="M46.4,124H41.53v2.43H44v2.43H46.4V124Z"/><path class="cls-1" d="M39.1,111.81v2.43H36.67v2.44h4.86v-4.87Z"/><path class="cls-1" d="M44,104.51H46.4v4.87H44Z"/><path class="cls-1" d="M46.4,114.24v2.44h4.86v-4.87H44v2.43Z"/><path class="cls-1" d="M41.53,109.38H44v2.43H41.53Z"/><path class="cls-1" d="M46.4,128.84h4.86v4.87H46.4Z"/><path class="cls-1" d="M41.53,128.84H44v4.87H41.53Z"/><path class="cls-1" d="M46.4,121.54h2.43V124H46.4Z"/><path class="cls-1" d="M46.4,102.08V97.21H44V94.78H41.53v9.73H44v-2.43Z"/><path class="cls-1" d="M53.7,128.84h2.43v4.87H53.7Z"/><path class="cls-1" d="M53.7,124h4.86v2.43H53.7Z"/><path class="cls-1" d="M51.26,126.41H53.7v2.43H51.26Z"/><path class="cls-1" d="M48.83,124h2.43v2.43H48.83Z"/><path class="cls-1" d="M58.56,119.11v2.43H61V124h2.43v-4.87H58.56Z"/><path class="cls-1" d="M61,126.41H58.56v7.3h4.87v-4.87H61Z"/><path class="cls-1" d="M48.83,119.11v2.43h7.3v-4.86H51.26v2.43Z"/><path class="cls-1" d="M53.7,111.81v2.43h4.86v2.44h4.87v-4.87H53.7Z"/><polygon class="cls-1" points="26.86 139.28 19 139.28 19 131.42 21.29 131.42 21.29 136.99 26.86 136.99 26.86 139.28"/><polygon class="cls-1" points="21.29 97.14 19 97.14 19 89.28 26.86 89.28 26.86 91.57 21.29 91.57 21.29 97.14"/><polygon class="cls-1" points="69 97.14 66.71 97.14 66.71 91.57 61.14 91.57 61.14 89.28 69 89.28 69 97.14"/><polygon class="cls-1" points="69 139.28 61.14 139.28 61.14 136.99 66.71 136.99 66.71 131.42 69 131.42 69 139.28"/><path class="cls-1" d="M89.77,32h1.76V44.93H89.77Z"/><path class="cls-1" d="M94.16,35.51h1.5v1.34a4.28,4.28,0,0,1,1.42-1.19,3.78,3.78,0,0,1,1.66-.36,2.75,2.75,0,0,1,2.71,1.4,5,5,0,0,1,.38,2.19v6h-1.6V39A3.25,3.25,0,0,0,100,37.6a1.55,1.55,0,0,0-1.53-.87,3,3,0,0,0-.92.11,2.35,2.35,0,0,0-1.14.77,2.31,2.31,0,0,0-.52,1A6.38,6.38,0,0,0,95.74,40v4.93H94.16Z"/><path class="cls-1" d="M109.41,35.89a4.78,4.78,0,0,1,.91.9V35.6h1.45v8.56a6.33,6.33,0,0,1-.52,2.83,3.78,3.78,0,0,1-3.71,1.92,4.57,4.57,0,0,1-2.55-.68,2.69,2.69,0,0,1-1.15-2.13h1.61a1.73,1.73,0,0,0,.45,1,2.33,2.33,0,0,0,1.68.53A2.3,2.3,0,0,0,110,46.31a7.22,7.22,0,0,0,.3-2.69,3.11,3.11,0,0,1-1.13,1.07,3.85,3.85,0,0,1-1.76.35A3.76,3.76,0,0,1,104.69,44a4.83,4.83,0,0,1-1.14-3.6,5.45,5.45,0,0,1,1.15-3.69,3.56,3.56,0,0,1,2.78-1.32A3.46,3.46,0,0,1,109.41,35.89Zm.19,1.7a2.28,2.28,0,0,0-1.83-.85,2.26,2.26,0,0,0-2.27,1.57,6,6,0,0,0-.33,2.19,3.9,3.9,0,0,0,.65,2.42,2.07,2.07,0,0,0,1.72.83,2.42,2.42,0,0,0,2.39-1.54,4.93,4.93,0,0,0,.39-2A3.91,3.91,0,0,0,109.6,37.59Z"/><path class="cls-1" d="M114.23,35.51h1.5v1.63a3.55,3.55,0,0,1,.9-1.16,2.4,2.4,0,0,1,1.67-.68h.15l.36,0V37l-.26,0h-.26a2.27,2.27,0,0,0-1.84.77,2.66,2.66,0,0,0-.64,1.77v5.42h-1.58Z"/><path class="cls-1" d="M126,35.77A3.68,3.68,0,0,1,127.42,37a4.18,4.18,0,0,1,.62,1.66,10.42,10.42,0,0,1,.14,2.08h-6.84A4.07,4.07,0,0,0,122,43a2.24,2.24,0,0,0,1.94.87,2.54,2.54,0,0,0,2-.82A3,3,0,0,0,126.5,42h1.55a3.31,3.31,0,0,1-.41,1.16,4.32,4.32,0,0,1-.77,1,3.64,3.64,0,0,1-1.77.95,5.58,5.58,0,0,1-1.28.14,4,4,0,0,1-3-1.28,5,5,0,0,1-1.21-3.58,5.45,5.45,0,0,1,1.22-3.68,4,4,0,0,1,3.2-1.42A4.29,4.29,0,0,1,126,35.77Zm.57,3.7a4.11,4.11,0,0,0-.45-1.65A2.27,2.27,0,0,0,124,36.68a2.36,2.36,0,0,0-1.81.79,3,3,0,0,0-.78,2Z"/><path class="cls-1" d="M131.13,42a2.35,2.35,0,0,0,.4,1.22,2.57,2.57,0,0,0,2.12.76,3.24,3.24,0,0,0,1.58-.38,1.28,1.28,0,0,0,.68-1.18,1,1,0,0,0-.55-.93A6.59,6.59,0,0,0,134,41l-1.28-.32a6.14,6.14,0,0,1-1.8-.67,2,2,0,0,1-1-1.77,2.7,2.7,0,0,1,1-2.17,3.92,3.92,0,0,1,2.62-.82,3.65,3.65,0,0,1,3.11,1.25,2.66,2.66,0,0,1,.58,1.7h-1.5a1.82,1.82,0,0,0-.38-1,2.55,2.55,0,0,0-1.94-.62A2.36,2.36,0,0,0,132,37a1.08,1.08,0,0,0-.47.9,1.1,1.1,0,0,0,.62,1,3.59,3.59,0,0,0,1.06.39l1.06.25a8.71,8.71,0,0,1,2.33.8,2.11,2.11,0,0,1,.92,1.91,2.89,2.89,0,0,1-1,2.17,4.16,4.16,0,0,1-2.94.92,4,4,0,0,1-3-1,3.55,3.55,0,0,1-.94-2.36Z"/><path class="cls-1" d="M140.13,42a2.35,2.35,0,0,0,.4,1.22,2.57,2.57,0,0,0,2.12.76,3.24,3.24,0,0,0,1.58-.38,1.28,1.28,0,0,0,.68-1.18,1,1,0,0,0-.55-.93A6.59,6.59,0,0,0,143,41l-1.28-.32a6.14,6.14,0,0,1-1.8-.67,2,2,0,0,1-1-1.77,2.7,2.7,0,0,1,1-2.17,3.92,3.92,0,0,1,2.62-.82,3.65,3.65,0,0,1,3.11,1.25,2.66,2.66,0,0,1,.58,1.7h-1.5a1.82,1.82,0,0,0-.38-1,2.55,2.55,0,0,0-1.94-.62A2.36,2.36,0,0,0,141,37a1.08,1.08,0,0,0-.47.9,1.1,1.1,0,0,0,.62,1,3.59,3.59,0,0,0,1.06.39l1.06.25a8.71,8.71,0,0,1,2.33.8,2.11,2.11,0,0,1,.92,1.91,2.89,2.89,0,0,1-1,2.17,4.16,4.16,0,0,1-2.94.92,4,4,0,0,1-3-1,3.55,3.55,0,0,1-.94-2.36Z"/><path class="cls-1" d="M155,36.45A4.77,4.77,0,0,1,156.26,40a6.18,6.18,0,0,1-1.1,3.76,4,4,0,0,1-3.42,1.48A3.86,3.86,0,0,1,148.68,44a5.2,5.2,0,0,1-1.13-3.53,5.59,5.59,0,0,1,1.19-3.77A4,4,0,0,1,152,35.24,4.21,4.21,0,0,1,155,36.45Zm-1,6.26a6.06,6.06,0,0,0,.57-2.65,4.86,4.86,0,0,0-.41-2.14,2.34,2.34,0,0,0-2.28-1.3,2.25,2.25,0,0,0-2.09,1.11,5.18,5.18,0,0,0-.65,2.67,4.53,4.53,0,0,0,.65,2.5,2.32,2.32,0,0,0,2.07,1A2.17,2.17,0,0,0,154,42.71Z"/><path class="cls-1" d="M163.2,32h1.61v1.79H163.2Zm0,3.54h1.61v9.37H163.2Z"/><path class="cls-1" d="M167.2,35.51h1.5v1.34a4.28,4.28,0,0,1,1.42-1.19,3.74,3.74,0,0,1,1.66-.36,2.73,2.73,0,0,1,2.7,1.4,4.93,4.93,0,0,1,.39,2.19v6h-1.61V39A3.26,3.26,0,0,0,173,37.6a1.55,1.55,0,0,0-1.53-.87,3,3,0,0,0-.92.11,2.52,2.52,0,0,0-1.66,1.74,6.38,6.38,0,0,0-.12,1.42v4.93H167.2Z"/><path class="cls-1" d="M182.38,35.8a4.26,4.26,0,0,1,1,.93V32h1.53v13h-1.43V43.62a3.36,3.36,0,0,1-1.3,1.25,3.74,3.74,0,0,1-1.73.39,3.48,3.48,0,0,1-2.71-1.32,5.16,5.16,0,0,1-1.15-3.52,6.11,6.11,0,0,1,1.05-3.57,3.42,3.42,0,0,1,3-1.5A3.36,3.36,0,0,1,182.38,35.8Zm-3.53,7.06a2.23,2.23,0,0,0,2.05,1,2.15,2.15,0,0,0,1.79-.94,4.5,4.5,0,0,0,.71-2.72,4,4,0,0,0-.73-2.64,2.25,2.25,0,0,0-1.79-.85,2.35,2.35,0,0,0-1.93.91,4.23,4.23,0,0,0-.74,2.69A4.64,4.64,0,0,0,178.85,42.86Z"/><path class="cls-1" d="M187.22,32h1.61v1.79h-1.61Zm0,3.54h1.61v9.37h-1.61Z"/><path class="cls-1" d="M192,35.51l2.51,7.67,2.62-7.67h1.73l-3.54,9.42h-1.69l-3.47-9.42Z"/><path class="cls-1" d="M200.22,32h1.61v1.79h-1.61Zm0,3.54h1.61v9.37h-1.61Z"/><path class="cls-1" d="M209.39,35.8a4.26,4.26,0,0,1,1,.93V32h1.52v13h-1.42V43.62a3.36,3.36,0,0,1-1.3,1.25,3.74,3.74,0,0,1-1.73.39,3.48,3.48,0,0,1-2.71-1.32,5.16,5.16,0,0,1-1.15-3.52,6.11,6.11,0,0,1,1-3.57,3.41,3.41,0,0,1,3-1.5A3.36,3.36,0,0,1,209.39,35.8Zm-3.53,7.06a2.23,2.23,0,0,0,2,1,2.15,2.15,0,0,0,1.8-.94,4.5,4.5,0,0,0,.71-2.72,4,4,0,0,0-.73-2.64,2.25,2.25,0,0,0-1.79-.85,2.35,2.35,0,0,0-1.93.91,4.23,4.23,0,0,0-.74,2.69A4.64,4.64,0,0,0,205.86,42.86Z"/><path class="cls-1" d="M215.81,35.51v6.25a2.67,2.67,0,0,0,.22,1.18,1.56,1.56,0,0,0,1.54.84,2.17,2.17,0,0,0,2.19-1.47,6,6,0,0,0,.31-2.17V35.51h1.59v9.42h-1.5l0-1.39a3,3,0,0,1-.75.9,3.22,3.22,0,0,1-2.16.74,2.78,2.78,0,0,1-2.69-1.34,4.08,4.08,0,0,1-.39-1.93v-6.4Z"/><path class="cls-1" d="M229.28,39.23a.85.85,0,0,0,.73-.46,1.38,1.38,0,0,0,.11-.61,1.27,1.27,0,0,0-.58-1.17,3,3,0,0,0-1.64-.37,2.07,2.07,0,0,0-1.75.67,2.19,2.19,0,0,0-.38,1.11h-1.48A2.73,2.73,0,0,1,225.42,36a4.57,4.57,0,0,1,2.51-.69,5.14,5.14,0,0,1,2.7.64,2.16,2.16,0,0,1,1,2v5.42a.7.7,0,0,0,.1.4.51.51,0,0,0,.42.14h.24l.28,0V45a4.52,4.52,0,0,1-.56.13,3.6,3.6,0,0,1-.53,0,1.28,1.28,0,0,1-1.18-.58,2.4,2.4,0,0,1-.28-.87,4,4,0,0,1-1.38,1.1,4.33,4.33,0,0,1-2,.46,3,3,0,0,1-2.14-.79,2.65,2.65,0,0,1-.83-2,2.55,2.55,0,0,1,.82-2,3.86,3.86,0,0,1,2.14-.88ZM226,43.5a1.84,1.84,0,0,0,1.19.4,3.58,3.58,0,0,0,1.62-.39,2.17,2.17,0,0,0,1.32-2.1V40.14a2.6,2.6,0,0,1-.75.31,7.17,7.17,0,0,1-.9.18l-1,.12a3.81,3.81,0,0,0-1.29.36,1.39,1.39,0,0,0-.74,1.31A1.3,1.3,0,0,0,226,43.5Z"/><path class="cls-1" d="M234.29,32h1.59V44.93h-1.59Z"/><path class="cls-1" d="M98.5,96.3A4.6,4.6,0,0,1,100,99.24H98.28a3.62,3.62,0,0,0-1.13-2,3.54,3.54,0,0,0-2.39-.73,3.78,3.78,0,0,0-3,1.34A6.2,6.2,0,0,0,90.58,102a6.11,6.11,0,0,0,1,3.69,3.62,3.62,0,0,0,3.11,1.41,3.27,3.27,0,0,0,2.89-1.49,5.89,5.89,0,0,0,.79-2h1.7A5.89,5.89,0,0,1,98.62,107a5.29,5.29,0,0,1-4.1,1.67,5.37,5.37,0,0,1-3.74-1.37c-1.33-1.2-2-3.06-2-5.56A7.15,7.15,0,0,1,90.29,97a5.4,5.4,0,0,1,4.45-2A5.18,5.18,0,0,1,98.5,96.3Z"/><path class="cls-1" d="M109,99.8a4.75,4.75,0,0,1,1.25,3.56,6.16,6.16,0,0,1-1.1,3.76,4,4,0,0,1-3.41,1.49,3.84,3.84,0,0,1-3.07-1.32,5.22,5.22,0,0,1-1.13-3.52,5.69,5.69,0,0,1,1.19-3.78,4,4,0,0,1,3.21-1.4A4.21,4.21,0,0,1,109,99.8Zm-1,6.25a6,6,0,0,0,.58-2.64,4.71,4.71,0,0,0-.42-2.14,2.34,2.34,0,0,0-2.28-1.3,2.26,2.26,0,0,0-2.09,1.1,5.23,5.23,0,0,0-.65,2.67,4.51,4.51,0,0,0,.65,2.5,2.3,2.3,0,0,0,2.07,1A2.15,2.15,0,0,0,108,106.05Z"/><path class="cls-1" d="M112.17,98.86h1.5v1.34A4.16,4.16,0,0,1,115.09,99a3.78,3.78,0,0,1,1.66-.36,2.74,2.74,0,0,1,2.71,1.4,5.08,5.08,0,0,1,.38,2.18v6h-1.61v-5.93A3.23,3.23,0,0,0,118,101a1.55,1.55,0,0,0-1.53-.88,3,3,0,0,0-.92.12,2.54,2.54,0,0,0-1.66,1.73,6.44,6.44,0,0,0-.12,1.42v4.93h-1.58Z"/><path class="cls-1" d="M122.92,96a2.42,2.42,0,0,1,2.13-.81h.31l.36,0v1.44l-.36,0h-.21c-.48,0-.77.12-.87.37a7.56,7.56,0,0,0-.14,1.9h1.58v1.25h-1.58v8.12h-1.56v-8.12h-1.31V98.9h1.31V97.43A2.71,2.71,0,0,1,122.92,96Z"/><path class="cls-1" d="M127.18,95.36h1.61v1.79h-1.61Zm0,3.54h1.61v9.37h-1.61Z"/><path class="cls-1" d="M131.22,98.86h1.51v1.63a3.45,3.45,0,0,1,.9-1.16,2.37,2.37,0,0,1,1.66-.68h.15l.36,0v1.67l-.26,0h-.25a2.24,2.24,0,0,0-1.84.77,2.66,2.66,0,0,0-.64,1.77v5.41h-1.59Z"/><path class="cls-1" d="M137.17,98.86h1.57v1.34a5.12,5.12,0,0,1,1-1,3.1,3.1,0,0,1,1.77-.53,2.77,2.77,0,0,1,1.81.55,2.84,2.84,0,0,1,.71.93,3.26,3.26,0,0,1,2.84-1.48,2.62,2.62,0,0,1,2.58,1.37,4.41,4.41,0,0,1,.37,2v6.26H148.2v-6.54a1.55,1.55,0,0,0-.47-1.29,1.91,1.91,0,0,0-1.15-.35,2.28,2.28,0,0,0-1.6.62,2.75,2.75,0,0,0-.68,2.09v5.47h-1.61v-6.14a3.25,3.25,0,0,0-.22-1.4,1.4,1.4,0,0,0-1.35-.66,2.29,2.29,0,0,0-1.63.7,3.39,3.39,0,0,0-.73,2.51v5h-1.59Z"/><path class="cls-1" d="M158,99.12a3.53,3.53,0,0,1,1.43,1.22A4.29,4.29,0,0,1,160,102a11.12,11.12,0,0,1,.14,2.07h-6.85a4.08,4.08,0,0,0,.67,2.31,2.27,2.27,0,0,0,1.95.86,2.5,2.5,0,0,0,2-.82,2.84,2.84,0,0,0,.58-1.1H160a3.27,3.27,0,0,1-.4,1.16,4.35,4.35,0,0,1-.78,1,3.72,3.72,0,0,1-1.77,1,5.58,5.58,0,0,1-1.28.14,3.93,3.93,0,0,1-3-1.28,5,5,0,0,1-1.22-3.58,5.43,5.43,0,0,1,1.23-3.69,4,4,0,0,1,3.19-1.41A4.26,4.26,0,0,1,158,99.12Zm.57,3.69a4.11,4.11,0,0,0-.44-1.64A2.29,2.29,0,0,0,156,100a2.38,2.38,0,0,0-1.81.78,3,3,0,0,0-.78,2Z"/><path class="cls-1" d="M167.05,98.9h1.55v1.25a3.59,3.59,0,0,1,1-1,3.34,3.34,0,0,1,1.88-.53,3.53,3.53,0,0,1,2.72,1.23,5,5,0,0,1,1.12,3.5c0,2-.53,3.52-1.61,4.39a3.64,3.64,0,0,1-2.38.84,3.22,3.22,0,0,1-1.79-.47,3.84,3.84,0,0,1-1-.9V112h-1.58Zm5.95,7.38a4.4,4.4,0,0,0,.74-2.77,5.06,5.06,0,0,0-.33-1.93,2.39,2.39,0,0,0-4.51.08,6.46,6.46,0,0,0-.33,2.24,4.67,4.67,0,0,0,.33,1.85,2.39,2.39,0,0,0,4.1.53Z"/><path class="cls-1" d="M177.24,98.86h1.5v1.63a3.45,3.45,0,0,1,.9-1.16,2.37,2.37,0,0,1,1.66-.68h.15l.36,0v1.67l-.26,0h-.25a2.24,2.24,0,0,0-1.84.77,2.66,2.66,0,0,0-.64,1.77v5.41h-1.58Z"/><path class="cls-1" d="M189,99.12a3.5,3.5,0,0,1,1.42,1.22,4,4,0,0,1,.63,1.66,10.3,10.3,0,0,1,.14,2.07h-6.84a4.08,4.08,0,0,0,.67,2.31,2.25,2.25,0,0,0,1.94.86,2.47,2.47,0,0,0,2-.82,2.59,2.59,0,0,0,.58-1.1h1.56a3.31,3.31,0,0,1-.41,1.16,4.32,4.32,0,0,1-.77,1,3.72,3.72,0,0,1-1.77,1,5.6,5.6,0,0,1-1.29.14,3.94,3.94,0,0,1-3-1.28,5,5,0,0,1-1.21-3.58,5.47,5.47,0,0,1,1.22-3.69,4,4,0,0,1,3.2-1.41A4.29,4.29,0,0,1,189,99.12Zm.57,3.69a4.27,4.27,0,0,0-.45-1.64A2.28,2.28,0,0,0,187,100a2.37,2.37,0,0,0-1.81.78,3,3,0,0,0-.78,2Z"/><path class="cls-1" d="M194.14,105.32a2.19,2.19,0,0,0,.4,1.21,2.57,2.57,0,0,0,2.12.77,3.16,3.16,0,0,0,1.58-.39,1.26,1.26,0,0,0,.68-1.18,1,1,0,0,0-.55-.92,6.43,6.43,0,0,0-1.37-.45l-1.28-.32a6.07,6.07,0,0,1-1.8-.66,2,2,0,0,1-1-1.78,2.7,2.7,0,0,1,1-2.16,3.9,3.9,0,0,1,2.62-.83,3.68,3.68,0,0,1,3.11,1.25,2.76,2.76,0,0,1,.58,1.71h-1.5a1.82,1.82,0,0,0-.38-1,2.51,2.51,0,0,0-1.94-.62,2.36,2.36,0,0,0-1.39.34,1.06,1.06,0,0,0-.47.9,1.12,1.12,0,0,0,.62,1,3.9,3.9,0,0,0,1.06.39l1.06.25a8.36,8.36,0,0,1,2.33.8,2.12,2.12,0,0,1,.92,1.91,2.89,2.89,0,0,1-1,2.17,4.16,4.16,0,0,1-2.94.91,4,4,0,0,1-3-.95,3.57,3.57,0,0,1-.94-2.36Z"/><path class="cls-1" d="M208,99.12a3.5,3.5,0,0,1,1.42,1.22,4,4,0,0,1,.63,1.66,10.3,10.3,0,0,1,.14,2.07h-6.84a4.08,4.08,0,0,0,.67,2.31,2.25,2.25,0,0,0,1.94.86,2.47,2.47,0,0,0,2-.82,2.73,2.73,0,0,0,.59-1.1h1.55a3.31,3.31,0,0,1-.41,1.16,4.32,4.32,0,0,1-.77,1,3.72,3.72,0,0,1-1.77,1,5.6,5.6,0,0,1-1.29.14,3.94,3.94,0,0,1-3-1.28,5,5,0,0,1-1.21-3.58,5.47,5.47,0,0,1,1.22-3.69,4,4,0,0,1,3.2-1.41A4.29,4.29,0,0,1,208,99.12Zm.57,3.69a4.1,4.1,0,0,0-.45-1.64A2.27,2.27,0,0,0,206,100a2.38,2.38,0,0,0-1.81.78,3,3,0,0,0-.78,2Z"/><path class="cls-1" d="M212.21,98.86h1.5v1.34A4.23,4.23,0,0,1,215.12,99a3.82,3.82,0,0,1,1.67-.36,2.72,2.72,0,0,1,2.7,1.4,4.91,4.91,0,0,1,.39,2.18v6h-1.61v-5.93A3.23,3.23,0,0,0,218,101a1.55,1.55,0,0,0-1.53-.88,3,3,0,0,0-.93.12,2.55,2.55,0,0,0-1.65,1.73,6.44,6.44,0,0,0-.12,1.42v4.93h-1.58Z"/><path class="cls-1" d="M228.44,99.36a3.75,3.75,0,0,1,1.2,2.66H228.1a2.89,2.89,0,0,0-.64-1.44,2,2,0,0,0-1.61-.58,2.21,2.21,0,0,0-2.16,1.48,5.66,5.66,0,0,0-.43,2.36,4.45,4.45,0,0,0,.6,2.38,2.32,2.32,0,0,0,3.44.36,3.25,3.25,0,0,0,.8-1.64h1.54a4.17,4.17,0,0,1-1.32,2.74,3.74,3.74,0,0,1-2.45.86l-.62.86a2,2,0,0,1,.66-.08,1.49,1.49,0,0,1,1,.35,1.32,1.32,0,0,1,.4,1,1.52,1.52,0,0,1-.53,1.15,2.34,2.34,0,0,1-1.62.48,3.76,3.76,0,0,1-1-.13,7.5,7.5,0,0,1-.75-.24l.31-.72a3.63,3.63,0,0,0,.52.18,2.79,2.79,0,0,0,.65.1,1.52,1.52,0,0,0,.56-.1.67.67,0,0,0,.46-.67.62.62,0,0,0-.23-.49.94.94,0,0,0-.62-.2,1.83,1.83,0,0,0-.35,0,3.09,3.09,0,0,0-.37.12l-.31-.36,1-1.3a2.89,2.89,0,0,1-2.19-1,5.4,5.4,0,0,1-1.26-3.71,5.68,5.68,0,0,1,1.2-3.86,3.9,3.9,0,0,1,3.07-1.38A4.09,4.09,0,0,1,228.44,99.36Z"/><path class="cls-1" d="M236.26,102.58a.85.85,0,0,0,.73-.46,1.38,1.38,0,0,0,.11-.61,1.29,1.29,0,0,0-.58-1.18,3.09,3.09,0,0,0-1.64-.36,2.09,2.09,0,0,0-1.76.67,2.25,2.25,0,0,0-.37,1.1h-1.48a2.75,2.75,0,0,1,1.13-2.43,4.65,4.65,0,0,1,2.51-.68,5.14,5.14,0,0,1,2.7.63,2.17,2.17,0,0,1,1,2v5.43a.67.67,0,0,0,.1.39c.06.1.21.15.42.15h.24l.28,0v1.17a4.52,4.52,0,0,1-.56.13,4,4,0,0,1-.53,0,1.28,1.28,0,0,1-1.18-.58,2.28,2.28,0,0,1-.28-.87,3.86,3.86,0,0,1-1.39,1.1,4.26,4.26,0,0,1-2,.47,3,3,0,0,1-2.14-.8,2.64,2.64,0,0,1-.83-2,2.54,2.54,0,0,1,.82-2,3.87,3.87,0,0,1,2.14-.89Zm-3.33,4.27a1.89,1.89,0,0,0,1.19.39,3.63,3.63,0,0,0,1.62-.38,2.19,2.19,0,0,0,1.31-2.1v-1.27a3,3,0,0,1-.74.31,5.92,5.92,0,0,1-.9.17l-.95.13a3.34,3.34,0,0,0-1.29.36,1.37,1.37,0,0,0-.74,1.31A1.3,1.3,0,0,0,232.93,106.85Z"/><path class="cls-1" d="M242.17,105.32a2.28,2.28,0,0,0,.4,1.21,2.57,2.57,0,0,0,2.12.77,3.14,3.14,0,0,0,1.58-.39,1.26,1.26,0,0,0,.68-1.18,1,1,0,0,0-.54-.92,6.81,6.81,0,0,0-1.38-.45l-1.28-.32a6.18,6.18,0,0,1-1.8-.66,2,2,0,0,1-1-1.78,2.7,2.7,0,0,1,1-2.16,3.92,3.92,0,0,1,2.62-.83,3.68,3.68,0,0,1,3.11,1.25,2.7,2.7,0,0,1,.58,1.71h-1.5a1.82,1.82,0,0,0-.38-1,2.5,2.5,0,0,0-1.94-.62,2.36,2.36,0,0,0-1.39.34,1.06,1.06,0,0,0-.47.9,1.12,1.12,0,0,0,.62,1,3.9,3.9,0,0,0,1.06.39l1.06.25a8.36,8.36,0,0,1,2.33.8,2.1,2.1,0,0,1,.92,1.91,2.89,2.89,0,0,1-1,2.17,4.14,4.14,0,0,1-2.94.91,4,4,0,0,1-3-.95,3.58,3.58,0,0,1-.95-2.36Z"/><path class="cls-1" d="M89,119.9h1.55v1.25a3.59,3.59,0,0,1,1-1,3.34,3.34,0,0,1,1.88-.53,3.53,3.53,0,0,1,2.72,1.23,5,5,0,0,1,1.12,3.5c0,2-.54,3.52-1.61,4.39a3.64,3.64,0,0,1-2.38.84,3.28,3.28,0,0,1-1.8-.47,4,4,0,0,1-.94-.9V133H89Zm6,7.38a4.4,4.4,0,0,0,.74-2.77,5.06,5.06,0,0,0-.33-1.93,2.39,2.39,0,0,0-4.51.08,6.46,6.46,0,0,0-.33,2.24,4.67,4.67,0,0,0,.33,1.85,2.39,2.39,0,0,0,4.1.53Z"/><path class="cls-1" d="M104.22,123.58a.88.88,0,0,0,.73-.46,1.4,1.4,0,0,0,.1-.61,1.31,1.31,0,0,0-.57-1.18,3.16,3.16,0,0,0-1.65-.36,2.07,2.07,0,0,0-1.75.67,2.15,2.15,0,0,0-.38,1.1H99.22a2.75,2.75,0,0,1,1.13-2.43,4.66,4.66,0,0,1,2.52-.68,5.13,5.13,0,0,1,2.69.63,2.15,2.15,0,0,1,1,2v5.43a.67.67,0,0,0,.1.39.49.49,0,0,0,.43.15h.23l.28,0v1.17a4.52,4.52,0,0,1-.56.13,3.87,3.87,0,0,1-.53,0,1.28,1.28,0,0,1-1.18-.58,2.12,2.12,0,0,1-.27-.87,4,4,0,0,1-1.39,1.1,4.33,4.33,0,0,1-2,.47,3,3,0,0,1-2.14-.8,2.64,2.64,0,0,1-.83-2,2.54,2.54,0,0,1,.82-2,3.87,3.87,0,0,1,2.14-.89Zm-3.34,4.27a1.89,1.89,0,0,0,1.19.39,3.57,3.57,0,0,0,1.62-.38,2.18,2.18,0,0,0,1.32-2.1v-1.27a3.14,3.14,0,0,1-.75.31,5.8,5.8,0,0,1-.89.17l-1,.13a3.45,3.45,0,0,0-1.29.36,1.39,1.39,0,0,0-.74,1.31A1.3,1.3,0,0,0,100.88,127.85Z"/><path class="cls-1" d="M109.23,119.86h1.5v1.63a3.45,3.45,0,0,1,.9-1.16,2.37,2.37,0,0,1,1.66-.68h.15l.36,0v1.67l-.26,0h-.25a2.24,2.24,0,0,0-1.84.77,2.66,2.66,0,0,0-.64,1.77v5.41h-1.58Z"/><path class="cls-1" d="M120.22,123.58a.86.86,0,0,0,.73-.46,1.38,1.38,0,0,0,.11-.61,1.31,1.31,0,0,0-.58-1.18,3.09,3.09,0,0,0-1.64-.36,2.09,2.09,0,0,0-1.76.67,2.16,2.16,0,0,0-.37,1.1h-1.48a2.73,2.73,0,0,1,1.13-2.43,4.65,4.65,0,0,1,2.51-.68,5.14,5.14,0,0,1,2.7.63,2.16,2.16,0,0,1,1,2v5.43a.67.67,0,0,0,.11.39q.09.15.42.15h.24l.28,0v1.17a5,5,0,0,1-.56.13,4,4,0,0,1-.53,0,1.3,1.3,0,0,1-1.19-.58,2.12,2.12,0,0,1-.27-.87,3.86,3.86,0,0,1-1.39,1.1,4.29,4.29,0,0,1-2,.47,3,3,0,0,1-2.14-.8,2.61,2.61,0,0,1-.83-2,2.56,2.56,0,0,1,.81-2,3.9,3.9,0,0,1,2.15-.89Zm-3.33,4.27a1.87,1.87,0,0,0,1.19.39,3.56,3.56,0,0,0,1.61-.38,2.18,2.18,0,0,0,1.32-2.1v-1.27a3,3,0,0,1-.74.31,6.16,6.16,0,0,1-.9.17l-1,.13a3.46,3.46,0,0,0-1.3.36,1.38,1.38,0,0,0-.73,1.31A1.3,1.3,0,0,0,116.89,127.85Z"/><path class="cls-1" d="M136.41,120.36a3.75,3.75,0,0,1,1.2,2.66h-1.54a2.89,2.89,0,0,0-.64-1.44,2,2,0,0,0-1.61-.58,2.21,2.21,0,0,0-2.16,1.48,5.66,5.66,0,0,0-.43,2.36,4.45,4.45,0,0,0,.6,2.38,2.32,2.32,0,0,0,3.44.36,3.25,3.25,0,0,0,.8-1.64h1.54a4.17,4.17,0,0,1-1.32,2.74,4.12,4.12,0,0,1-2.7.86,3.61,3.61,0,0,1-3-1.34,5.19,5.19,0,0,1-1.09-3.37,5.68,5.68,0,0,1,1.2-3.86,3.9,3.9,0,0,1,3.07-1.38A4.09,4.09,0,0,1,136.41,120.36Z"/><path class="cls-1" d="M144.23,123.58a.85.85,0,0,0,.73-.46,1.38,1.38,0,0,0,.11-.61,1.29,1.29,0,0,0-.58-1.18,3.09,3.09,0,0,0-1.64-.36,2.09,2.09,0,0,0-1.76.67,2.25,2.25,0,0,0-.37,1.1h-1.48a2.75,2.75,0,0,1,1.13-2.43,4.65,4.65,0,0,1,2.51-.68,5.14,5.14,0,0,1,2.7.63,2.17,2.17,0,0,1,1,2v5.43a.67.67,0,0,0,.1.39c.06.1.21.15.42.15h.24l.28,0v1.17a4.52,4.52,0,0,1-.56.13,4,4,0,0,1-.53,0,1.28,1.28,0,0,1-1.18-.58,2.28,2.28,0,0,1-.28-.87,3.86,3.86,0,0,1-1.39,1.1,4.26,4.26,0,0,1-2,.47,3,3,0,0,1-2.14-.8,2.64,2.64,0,0,1-.83-2,2.54,2.54,0,0,1,.82-2,3.87,3.87,0,0,1,2.14-.89Zm-3.33,4.27a1.89,1.89,0,0,0,1.19.39,3.63,3.63,0,0,0,1.62-.38,2.19,2.19,0,0,0,1.31-2.1v-1.27a3,3,0,0,1-.74.31,5.92,5.92,0,0,1-.9.17l-.95.13a3.46,3.46,0,0,0-1.3.36,1.38,1.38,0,0,0-.73,1.31A1.3,1.3,0,0,0,140.9,127.85Z"/><path class="cls-1" d="M154.37,120.15a4.18,4.18,0,0,1,.95.92v-4.75h1.52v13h-1.42V128a3.46,3.46,0,0,1-1.3,1.26,3.74,3.74,0,0,1-1.73.39,3.46,3.46,0,0,1-2.71-1.33,5.15,5.15,0,0,1-1.15-3.52,6.06,6.06,0,0,1,1.05-3.56,3.4,3.4,0,0,1,3-1.51A3.28,3.28,0,0,1,154.37,120.15Zm-3.53,7.06a2.23,2.23,0,0,0,2,1,2.16,2.16,0,0,0,1.8-.95,4.46,4.46,0,0,0,.71-2.71,4,4,0,0,0-.73-2.64,2.26,2.26,0,0,0-1.79-.86,2.36,2.36,0,0,0-1.93.92,4.21,4.21,0,0,0-.74,2.69A4.66,4.66,0,0,0,150.84,127.21Z"/><path class="cls-1" d="M164.25,123.58a.85.85,0,0,0,.73-.46,1.38,1.38,0,0,0,.11-.61,1.29,1.29,0,0,0-.58-1.18,3.09,3.09,0,0,0-1.64-.36,2.05,2.05,0,0,0-1.75.67,2.15,2.15,0,0,0-.38,1.1h-1.48a2.75,2.75,0,0,1,1.13-2.43,4.65,4.65,0,0,1,2.51-.68,5.14,5.14,0,0,1,2.7.63,2.17,2.17,0,0,1,1,2v5.43a.67.67,0,0,0,.1.39c.06.1.21.15.42.15h.24l.28,0v1.17a4.52,4.52,0,0,1-.56.13,3.87,3.87,0,0,1-.53,0,1.28,1.28,0,0,1-1.18-.58,2.28,2.28,0,0,1-.28-.87,3.9,3.9,0,0,1-1.38,1.1,4.33,4.33,0,0,1-2,.47,3,3,0,0,1-2.14-.8,2.64,2.64,0,0,1-.83-2,2.54,2.54,0,0,1,.82-2,3.87,3.87,0,0,1,2.14-.89Zm-3.33,4.27a1.89,1.89,0,0,0,1.19.39,3.57,3.57,0,0,0,1.62-.38,2.17,2.17,0,0,0,1.31-2.1v-1.27a3,3,0,0,1-.74.31,5.7,5.7,0,0,1-.9.17l-1,.13a3.4,3.4,0,0,0-1.29.36,1.39,1.39,0,0,0-.74,1.31A1.3,1.3,0,0,0,160.92,127.85Z"/><path class="cls-1" d="M174.09,119.9h1.55v1.25a3.59,3.59,0,0,1,1-1,3.34,3.34,0,0,1,1.88-.53,3.53,3.53,0,0,1,2.72,1.23,5,5,0,0,1,1.12,3.5c0,2-.53,3.52-1.61,4.39a3.64,3.64,0,0,1-2.38.84,3.22,3.22,0,0,1-1.79-.47,3.84,3.84,0,0,1-1-.9V133h-1.58Zm5.95,7.38a4.4,4.4,0,0,0,.74-2.77,5.06,5.06,0,0,0-.33-1.93,2.39,2.39,0,0,0-4.51.08,6.46,6.46,0,0,0-.33,2.24,4.67,4.67,0,0,0,.33,1.85,2.39,2.39,0,0,0,4.1.53Z"/><path class="cls-1" d="M184.28,119.86h1.5v1.63a3.45,3.45,0,0,1,.9-1.16,2.37,2.37,0,0,1,1.66-.68h.15l.36,0v1.67l-.26,0h-.25a2.24,2.24,0,0,0-1.84.77,2.66,2.66,0,0,0-.64,1.77v5.41h-1.58Z"/><path class="cls-1" d="M197.05,120.8a4.74,4.74,0,0,1,1.24,3.56,6.1,6.1,0,0,1-1.1,3.76,4,4,0,0,1-3.41,1.49,3.82,3.82,0,0,1-3.06-1.32,5.17,5.17,0,0,1-1.14-3.52,5.64,5.64,0,0,1,1.2-3.78,4,4,0,0,1,3.21-1.4A4.22,4.22,0,0,1,197.05,120.8Zm-1,6.25a5.88,5.88,0,0,0,.58-2.64,4.71,4.71,0,0,0-.42-2.14A2.32,2.32,0,0,0,194,121a2.26,2.26,0,0,0-2.09,1.1,5.23,5.23,0,0,0-.65,2.67,4.51,4.51,0,0,0,.65,2.5,2.3,2.3,0,0,0,2.07,1A2.13,2.13,0,0,0,196.06,127.05Z"/><path class="cls-1" d="M205.47,120.24a4.19,4.19,0,0,1,.91.89V120h1.46v8.56a6.34,6.34,0,0,1-.53,2.83,3.76,3.76,0,0,1-3.7,1.91,4.49,4.49,0,0,1-2.55-.68,2.64,2.64,0,0,1-1.16-2.13h1.61a1.9,1.9,0,0,0,.45,1,2.33,2.33,0,0,0,1.68.52,2.29,2.29,0,0,0,2.37-1.28,7.2,7.2,0,0,0,.31-2.7,3.25,3.25,0,0,1-1.14,1.08,4.07,4.07,0,0,1-4.43-.74,4.79,4.79,0,0,1-1.14-3.59,5.47,5.47,0,0,1,1.15-3.69,3.55,3.55,0,0,1,2.78-1.33A3.36,3.36,0,0,1,205.47,120.24Zm.19,1.69a2.29,2.29,0,0,0-1.83-.84,2.26,2.26,0,0,0-2.27,1.56,6.34,6.34,0,0,0-.32,2.19,3.88,3.88,0,0,0,.64,2.42,2.05,2.05,0,0,0,1.73.83,2.44,2.44,0,0,0,2.39-1.53,5.1,5.1,0,0,0,.38-2A4,4,0,0,0,205.66,121.93Z"/><path class="cls-1" d="M210.29,119.86h1.5v1.63a3.65,3.65,0,0,1,.91-1.16,2.35,2.35,0,0,1,1.66-.68h.15l.36,0v1.67l-.26,0h-.26a2.24,2.24,0,0,0-1.84.77,2.71,2.71,0,0,0-.64,1.77v5.41h-1.58Z"/><path class="cls-1" d="M221.29,123.58a.88.88,0,0,0,.73-.46,1.4,1.4,0,0,0,.1-.61,1.31,1.31,0,0,0-.57-1.18,3.13,3.13,0,0,0-1.65-.36,2.07,2.07,0,0,0-1.75.67,2.25,2.25,0,0,0-.38,1.1h-1.48a2.75,2.75,0,0,1,1.13-2.43,4.66,4.66,0,0,1,2.52-.68,5.13,5.13,0,0,1,2.69.63,2.15,2.15,0,0,1,1,2v5.43a.67.67,0,0,0,.1.39.49.49,0,0,0,.43.15h.23l.29,0v1.17a5,5,0,0,1-.57.13,3.79,3.79,0,0,1-.52,0,1.29,1.29,0,0,1-1.19-.58,2.12,2.12,0,0,1-.27-.87,4,4,0,0,1-1.39,1.1,4.33,4.33,0,0,1-2,.47,3,3,0,0,1-2.14-.8,2.64,2.64,0,0,1-.83-2,2.54,2.54,0,0,1,.82-2,3.87,3.87,0,0,1,2.14-.89ZM218,127.85a1.84,1.84,0,0,0,1.18.39,3.57,3.57,0,0,0,1.62-.38,2.18,2.18,0,0,0,1.32-2.1v-1.27a3.14,3.14,0,0,1-.75.31,5.8,5.8,0,0,1-.89.17l-1,.13a3.45,3.45,0,0,0-1.29.36,1.39,1.39,0,0,0-.74,1.31A1.28,1.28,0,0,0,218,127.85Z"/><path class="cls-1" d="M226.25,119.86h1.57v1.34a5.12,5.12,0,0,1,1-1,3.1,3.1,0,0,1,1.77-.53,2.79,2.79,0,0,1,1.81.55,2.83,2.83,0,0,1,.7.93,3.63,3.63,0,0,1,1.24-1.12,3.52,3.52,0,0,1,1.6-.36,2.63,2.63,0,0,1,2.59,1.37,4.55,4.55,0,0,1,.37,2v6.26h-1.65v-6.54a1.52,1.52,0,0,0-.47-1.29,1.86,1.86,0,0,0-1.14-.35,2.32,2.32,0,0,0-1.61.62,2.75,2.75,0,0,0-.67,2.09v5.47h-1.61v-6.14a3.08,3.08,0,0,0-.23-1.4,1.39,1.39,0,0,0-1.34-.66,2.29,2.29,0,0,0-1.63.7,3.39,3.39,0,0,0-.74,2.51v5h-1.58Z"/><path class="cls-1" d="M246.29,123.58a.86.86,0,0,0,.73-.46,1.38,1.38,0,0,0,.11-.61,1.31,1.31,0,0,0-.58-1.18,3.09,3.09,0,0,0-1.64-.36,2.09,2.09,0,0,0-1.76.67,2.16,2.16,0,0,0-.37,1.1H241.3a2.73,2.73,0,0,1,1.13-2.43,4.65,4.65,0,0,1,2.51-.68,5.14,5.14,0,0,1,2.7.63,2.16,2.16,0,0,1,1,2v5.43a.67.67,0,0,0,.11.39q.09.15.42.15h.24l.28,0v1.17a5,5,0,0,1-.56.13,4,4,0,0,1-.53,0,1.31,1.31,0,0,1-1.19-.58,2.12,2.12,0,0,1-.27-.87,3.86,3.86,0,0,1-1.39,1.1,4.29,4.29,0,0,1-2,.47,3,3,0,0,1-2.14-.8,2.61,2.61,0,0,1-.83-2,2.56,2.56,0,0,1,.81-2,3.9,3.9,0,0,1,2.15-.89ZM243,127.85a1.87,1.87,0,0,0,1.19.39,3.56,3.56,0,0,0,1.61-.38,2.18,2.18,0,0,0,1.32-2.1v-1.27a3,3,0,0,1-.74.31,6.16,6.16,0,0,1-.9.17l-.95.13a3.46,3.46,0,0,0-1.3.36,1.38,1.38,0,0,0-.73,1.31A1.3,1.3,0,0,0,243,127.85Z"/><path class="cls-1" d="M257.48,120.36a3.7,3.7,0,0,1,1.19,2.66h-1.53a2.89,2.89,0,0,0-.64-1.44,2,2,0,0,0-1.61-.58,2.23,2.23,0,0,0-2.17,1.48,5.83,5.83,0,0,0-.42,2.36,4.45,4.45,0,0,0,.6,2.38,2.32,2.32,0,0,0,3.44.36,3.33,3.33,0,0,0,.8-1.64h1.53a4.12,4.12,0,0,1-1.31,2.74,3.74,3.74,0,0,1-2.45.86l-.62.86a2,2,0,0,1,.66-.08,1.49,1.49,0,0,1,1,.35,1.32,1.32,0,0,1,.39,1,1.51,1.51,0,0,1-.52,1.15,2.34,2.34,0,0,1-1.62.48,3.76,3.76,0,0,1-1-.13,7.5,7.5,0,0,1-.75-.24l.31-.72a3.63,3.63,0,0,0,.52.18,2.71,2.71,0,0,0,.65.1,1.52,1.52,0,0,0,.56-.1.67.67,0,0,0,.46-.67.65.65,0,0,0-.23-.49.94.94,0,0,0-.62-.2,1.83,1.83,0,0,0-.35,0,3.09,3.09,0,0,0-.37.12l-.31-.36,1-1.3a2.89,2.89,0,0,1-2.19-1,5.4,5.4,0,0,1-1.26-3.71,5.68,5.68,0,0,1,1.2-3.86,3.88,3.88,0,0,1,3.07-1.38A4.09,4.09,0,0,1,257.48,120.36Z"/><path class="cls-1" d="M265.3,123.58a.85.85,0,0,0,.73-.46,1.38,1.38,0,0,0,.11-.61,1.29,1.29,0,0,0-.58-1.18,3.09,3.09,0,0,0-1.64-.36,2.09,2.09,0,0,0-1.76.67,2.16,2.16,0,0,0-.37,1.1h-1.48a2.73,2.73,0,0,1,1.13-2.43,4.65,4.65,0,0,1,2.51-.68,5.14,5.14,0,0,1,2.7.63,2.16,2.16,0,0,1,1,2v5.43a.67.67,0,0,0,.11.39c.06.1.21.15.42.15h.24l.28,0v1.17a5,5,0,0,1-.56.13,4,4,0,0,1-.53,0,1.31,1.31,0,0,1-1.19-.58,2.29,2.29,0,0,1-.27-.87,3.86,3.86,0,0,1-1.39,1.1,4.29,4.29,0,0,1-2,.47,3,3,0,0,1-2.14-.8,2.61,2.61,0,0,1-.83-2,2.56,2.56,0,0,1,.81-2,3.9,3.9,0,0,1,2.15-.89Zm-.64-6.64a3.67,3.67,0,0,0,.45.17,1.4,1.4,0,0,0,.41.06.77.77,0,0,0,.7-.31,1.13,1.13,0,0,0,.16-.5h.93a2.44,2.44,0,0,1-.71,1.54,1.79,1.79,0,0,1-1.15.42,2,2,0,0,1-.49-.07,4.24,4.24,0,0,1-.53-.16l-.46-.16c-.28-.1-.5-.18-.68-.23a1.77,1.77,0,0,0-.5-.07.67.67,0,0,0-.51.2,1.15,1.15,0,0,0-.27.61h-.86a3.4,3.4,0,0,1,.38-1.13,1.65,1.65,0,0,1,1.49-.81,2.74,2.74,0,0,1,.66.09A7.63,7.63,0,0,1,264.66,116.94ZM262,127.85a1.87,1.87,0,0,0,1.19.39,3.56,3.56,0,0,0,1.61-.38,2.18,2.18,0,0,0,1.32-2.1v-1.27a3,3,0,0,1-.74.31,5.92,5.92,0,0,1-.9.17l-.95.13a3.46,3.46,0,0,0-1.3.36,1.38,1.38,0,0,0-.73,1.31A1.3,1.3,0,0,0,262,127.85Z"/><path class="cls-1" d="M277.09,120.8a4.75,4.75,0,0,1,1.25,3.56,6.16,6.16,0,0,1-1.1,3.76,4,4,0,0,1-3.42,1.49,3.84,3.84,0,0,1-3.06-1.32,5.17,5.17,0,0,1-1.13-3.52,5.63,5.63,0,0,1,1.19-3.78,4,4,0,0,1,3.21-1.4A4.21,4.21,0,0,1,277.09,120.8Zm-1,6.25a6,6,0,0,0,.57-2.64,4.86,4.86,0,0,0-.41-2.14A2.34,2.34,0,0,0,274,121a2.26,2.26,0,0,0-2.09,1.1,5.23,5.23,0,0,0-.65,2.67,4.51,4.51,0,0,0,.65,2.5,2.3,2.3,0,0,0,2.07,1A2.15,2.15,0,0,0,276.11,127.05Z"/><path class="cls-1" d="M89.54,171.9h9.37v1.58H91.24v3.92h7.09v1.5H91.24v4.37H99v1.54h-9.5Z"/><path class="cls-1" d="M101.17,175.4h1.56v1.33a5.6,5.6,0,0,1,1-1,3,3,0,0,1,1.78-.53,2.79,2.79,0,0,1,1.81.55,3,3,0,0,1,.7.93,3.37,3.37,0,0,1,1.24-1.12,3.49,3.49,0,0,1,1.6-.36,2.61,2.61,0,0,1,2.58,1.37,4.4,4.4,0,0,1,.37,2v6.27h-1.64v-6.54a1.52,1.52,0,0,0-.47-1.29,1.85,1.85,0,0,0-1.15-.35,2.28,2.28,0,0,0-1.6.62,2.74,2.74,0,0,0-.68,2.08v5.48h-1.6v-6.14a3.22,3.22,0,0,0-.23-1.4,1.4,1.4,0,0,0-1.35-.66,2.32,2.32,0,0,0-1.63.69,3.42,3.42,0,0,0-.73,2.52v5h-1.58Z"/><path class="cls-1" d="M116.16,171.9h1.61v1.79h-1.61Zm0,3.54h1.61v9.37h-1.61Z"/><path class="cls-1" d="M120.48,172.77h1.6v2.63h1.5v1.29h-1.5v6.14a.67.67,0,0,0,.33.66,1.32,1.32,0,0,0,.61.1h.25l.31,0v1.26a3.38,3.38,0,0,1-.57.11,4.31,4.31,0,0,1-.64,0,1.71,1.71,0,0,1-1.5-.57,2.55,2.55,0,0,1-.39-1.47v-6.23H119.2V175.4h1.28Z"/><path class="cls-1" d="M130.21,179.11a.84.84,0,0,0,.72-.45,1.41,1.41,0,0,0,.11-.61,1.3,1.3,0,0,0-.57-1.18,3.15,3.15,0,0,0-1.65-.37,2.07,2.07,0,0,0-1.75.68,2.12,2.12,0,0,0-.38,1.1h-1.48a2.75,2.75,0,0,1,1.13-2.43,4.66,4.66,0,0,1,2.52-.68,5.13,5.13,0,0,1,2.69.63,2.14,2.14,0,0,1,1,2v5.42a.68.68,0,0,0,.1.4.49.49,0,0,0,.43.15l.23,0,.28,0v1.16a5,5,0,0,1-.56.14l-.53,0a1.28,1.28,0,0,1-1.18-.58,2.12,2.12,0,0,1-.27-.87,4.16,4.16,0,0,1-1.39,1.1,4.33,4.33,0,0,1-2,.47,3,3,0,0,1-2.14-.8,2.65,2.65,0,0,1-.83-2,2.53,2.53,0,0,1,.82-2,3.87,3.87,0,0,1,2.14-.89Zm-3.34,4.28a1.89,1.89,0,0,0,1.19.39,3.7,3.7,0,0,0,1.62-.38,2.18,2.18,0,0,0,1.32-2.1V180a2.93,2.93,0,0,1-.75.3,4.85,4.85,0,0,1-.89.18l-1,.12a3.88,3.88,0,0,0-1.29.36,1.42,1.42,0,0,0-.74,1.32A1.33,1.33,0,0,0,126.87,183.39Z"/><path class="cls-1" d="M146.39,175.9a3.69,3.69,0,0,1,1.2,2.66h-1.54a2.81,2.81,0,0,0-.64-1.44,2,2,0,0,0-1.61-.58,2.21,2.21,0,0,0-2.16,1.47,5.91,5.91,0,0,0-.42,2.37,4.39,4.39,0,0,0,.6,2.37,2,2,0,0,0,1.88,1,2.08,2.08,0,0,0,1.56-.6,3.28,3.28,0,0,0,.79-1.64h1.54a3.71,3.71,0,0,1-4,3.6,3.59,3.59,0,0,1-2.94-1.35,5.17,5.17,0,0,1-1.1-3.37,5.7,5.7,0,0,1,1.2-3.86,3.91,3.91,0,0,1,3.07-1.38A4.1,4.1,0,0,1,146.39,175.9Z"/><path class="cls-1" d="M155,175.66a3.62,3.62,0,0,1,1.42,1.21,4.42,4.42,0,0,1,.63,1.66,11.32,11.32,0,0,1,.14,2.08h-6.85a4,4,0,0,0,.67,2.3,2.25,2.25,0,0,0,1.95.87,2.49,2.49,0,0,0,2-.82,2.84,2.84,0,0,0,.58-1.1h1.56a3.27,3.27,0,0,1-.41,1.15,3.93,3.93,0,0,1-.78,1,3.55,3.55,0,0,1-1.77.95,5,5,0,0,1-1.28.14,3.93,3.93,0,0,1-3-1.27,5,5,0,0,1-1.21-3.59,5.4,5.4,0,0,1,1.22-3.68,4,4,0,0,1,3.2-1.41A4.19,4.19,0,0,1,155,175.66Zm.56,3.69a4.11,4.11,0,0,0-.44-1.64,2.28,2.28,0,0,0-2.15-1.14,2.41,2.41,0,0,0-1.82.78,3,3,0,0,0-.77,2Z"/><path class="cls-1" d="M159.23,175.4h1.5V177a3.54,3.54,0,0,1,.9-1.15,2.35,2.35,0,0,1,1.67-.68h.15l.36,0v1.67l-.26,0h-.26a2.27,2.27,0,0,0-1.84.76,2.7,2.7,0,0,0-.64,1.78v5.41h-1.58Z"/><path class="cls-1" d="M165.49,172.77h1.6v2.63h1.51v1.29h-1.51v6.14a.66.66,0,0,0,.34.66,1.29,1.29,0,0,0,.61.1h.25l.31,0v1.26a3.82,3.82,0,0,1-.57.11,4.31,4.31,0,0,1-.64,0,1.7,1.7,0,0,1-1.5-.57,2.48,2.48,0,0,1-.4-1.47v-6.23h-1.27V175.4h1.27Z"/><path class="cls-1" d="M170.18,171.9h1.61v1.79h-1.61Zm0,3.54h1.61v9.37h-1.61Z"/><path class="cls-1" d="M174.92,172.52a2.4,2.4,0,0,1,2.13-.81h.31l.36,0v1.44l-.36,0h-.21c-.49,0-.78.13-.87.38a7.08,7.08,0,0,0-.14,1.9h1.58v1.25h-1.58v8.12h-1.57v-8.12h-1.31v-1.25h1.31V174A2.86,2.86,0,0,1,174.92,172.52Z"/><path class="cls-1" d="M179.18,171.9h1.61v1.79h-1.61Zm0,3.54h1.61v9.37h-1.61Z"/><path class="cls-1" d="M189.4,175.9a3.68,3.68,0,0,1,1.19,2.66h-1.53a2.89,2.89,0,0,0-.64-1.44,2,2,0,0,0-1.61-.58,2.24,2.24,0,0,0-2.17,1.47,5.91,5.91,0,0,0-.42,2.37,4.39,4.39,0,0,0,.6,2.37,2.32,2.32,0,0,0,3.44.37,3.37,3.37,0,0,0,.8-1.64h1.53a4.12,4.12,0,0,1-1.31,2.74,4.18,4.18,0,0,1-2.7.86,3.62,3.62,0,0,1-3-1.35,5.17,5.17,0,0,1-1.09-3.37,5.7,5.7,0,0,1,1.2-3.86,3.88,3.88,0,0,1,3.07-1.38A4.1,4.1,0,0,1,189.4,175.9Z"/><path class="cls-1" d="M197.22,179.11a.86.86,0,0,0,.73-.45,1.41,1.41,0,0,0,.11-.61,1.28,1.28,0,0,0-.58-1.18,3.09,3.09,0,0,0-1.64-.37,2.09,2.09,0,0,0-1.76.68,2.12,2.12,0,0,0-.37,1.1h-1.48a2.73,2.73,0,0,1,1.13-2.43,4.65,4.65,0,0,1,2.51-.68,5.14,5.14,0,0,1,2.7.63,2.15,2.15,0,0,1,1,2v5.42a.68.68,0,0,0,.11.4c.06.1.21.15.42.15l.24,0,.28,0v1.16a5.57,5.57,0,0,1-.56.14l-.53,0a1.31,1.31,0,0,1-1.19-.58,2.29,2.29,0,0,1-.27-.87,4,4,0,0,1-1.39,1.1,4.29,4.29,0,0,1-2,.47,3,3,0,0,1-2.14-.8,2.61,2.61,0,0,1-.83-2,2.56,2.56,0,0,1,.81-2,3.9,3.9,0,0,1,2.15-.89Zm-3.33,4.28a1.87,1.87,0,0,0,1.19.39,3.69,3.69,0,0,0,1.61-.38,2.18,2.18,0,0,0,1.32-2.1V180a2.71,2.71,0,0,1-.74.3,5,5,0,0,1-.9.18l-1,.12a3.88,3.88,0,0,0-1.3.36,1.41,1.41,0,0,0-.73,1.32A1.33,1.33,0,0,0,193.89,183.39Z"/><path class="cls-1" d="M207.36,175.69a4,4,0,0,1,.95.92v-4.76h1.52v13h-1.42V183.5a3.46,3.46,0,0,1-1.3,1.26,3.73,3.73,0,0,1-1.73.38,3.48,3.48,0,0,1-2.71-1.32,5.15,5.15,0,0,1-1.15-3.52,6.06,6.06,0,0,1,1-3.56,3.4,3.4,0,0,1,3-1.51A3.28,3.28,0,0,1,207.36,175.69Zm-3.53,7.05a2.23,2.23,0,0,0,2,1,2.15,2.15,0,0,0,1.8-.94,4.46,4.46,0,0,0,.71-2.71,4,4,0,0,0-.73-2.64,2.26,2.26,0,0,0-1.79-.86,2.35,2.35,0,0,0-1.93.91,4.23,4.23,0,0,0-.74,2.69A4.64,4.64,0,0,0,203.83,182.74Z"/><path class="cls-1" d="M219,176.34a4.73,4.73,0,0,1,1.25,3.56,6.16,6.16,0,0,1-1.1,3.76,4,4,0,0,1-3.42,1.48,3.83,3.83,0,0,1-3.06-1.31,5.17,5.17,0,0,1-1.13-3.52,5.69,5.69,0,0,1,1.19-3.78,4,4,0,0,1,3.21-1.41A4.22,4.22,0,0,1,219,176.34Zm-1,6.25a6,6,0,0,0,.57-2.64,4.76,4.76,0,0,0-.41-2.15,2.35,2.35,0,0,0-2.28-1.3,2.25,2.25,0,0,0-2.09,1.11,5.23,5.23,0,0,0-.65,2.67,4.53,4.53,0,0,0,.65,2.5,2.3,2.3,0,0,0,2.07,1A2.15,2.15,0,0,0,218,182.59Z"/><path class="cls-1" d="M223.15,181.86a2.31,2.31,0,0,0,.4,1.21,2.58,2.58,0,0,0,2.12.76,3.13,3.13,0,0,0,1.58-.38,1.27,1.27,0,0,0,.68-1.18,1,1,0,0,0-.54-.92,6.58,6.58,0,0,0-1.38-.45l-1.28-.32a6.26,6.26,0,0,1-1.8-.67,2,2,0,0,1-1-1.77,2.7,2.7,0,0,1,1-2.16,3.92,3.92,0,0,1,2.62-.83,3.68,3.68,0,0,1,3.11,1.25,2.67,2.67,0,0,1,.58,1.7h-1.5a1.81,1.81,0,0,0-.38-1,2.53,2.53,0,0,0-1.94-.62,2.43,2.43,0,0,0-1.39.34,1.08,1.08,0,0,0-.47.91,1.12,1.12,0,0,0,.62,1,3.94,3.94,0,0,0,1.06.38l1.06.26a8,8,0,0,1,2.33.8,2.11,2.11,0,0,1,.93,1.91,2.92,2.92,0,0,1-1,2.17,4.13,4.13,0,0,1-2.94.91,4,4,0,0,1-3-.95,3.6,3.6,0,0,1-1-2.36Z"/><path class="cls-1" d="M242,175.66a3.59,3.59,0,0,1,1.43,1.21,4.42,4.42,0,0,1,.63,1.66,11.32,11.32,0,0,1,.14,2.08h-6.85a4,4,0,0,0,.67,2.3,2.25,2.25,0,0,0,2,.87,2.49,2.49,0,0,0,2-.82,2.84,2.84,0,0,0,.58-1.1h1.55a3.23,3.23,0,0,1-.4,1.15,4.15,4.15,0,0,1-.78,1,3.64,3.64,0,0,1-1.77.95,5,5,0,0,1-1.28.14,3.92,3.92,0,0,1-3-1.27,5,5,0,0,1-1.22-3.59,5.4,5.4,0,0,1,1.23-3.68,4,4,0,0,1,3.19-1.41A4.14,4.14,0,0,1,242,175.66Zm.57,3.69a4.11,4.11,0,0,0-.44-1.64,2.28,2.28,0,0,0-2.16-1.14,2.38,2.38,0,0,0-1.81.78,2.94,2.94,0,0,0-.77,2Z"/><path class="cls-1" d="M94.33,196.69a4.17,4.17,0,0,1,1,.92v-4.76h1.52v13H95.38V204.5a3.46,3.46,0,0,1-1.3,1.26,3.7,3.7,0,0,1-1.73.38,3.48,3.48,0,0,1-2.71-1.32,5.2,5.2,0,0,1-1.15-3.52,6.06,6.06,0,0,1,1.05-3.56,3.41,3.41,0,0,1,3-1.51A3.25,3.25,0,0,1,94.33,196.69Zm-3.53,7.05a2.24,2.24,0,0,0,2,1,2.13,2.13,0,0,0,1.79-.94,4.46,4.46,0,0,0,.71-2.71,4,4,0,0,0-.73-2.64,2.26,2.26,0,0,0-1.79-.86,2.36,2.36,0,0,0-1.93.91,4.23,4.23,0,0,0-.74,2.69A4.73,4.73,0,0,0,90.8,203.74Z"/><path class="cls-1" d="M105,196.66a3.62,3.62,0,0,1,1.42,1.21,4.42,4.42,0,0,1,.63,1.66,11.32,11.32,0,0,1,.14,2.08h-6.85a4,4,0,0,0,.67,2.3,2.25,2.25,0,0,0,2,.87,2.49,2.49,0,0,0,2-.82,2.84,2.84,0,0,0,.58-1.1h1.56a3.49,3.49,0,0,1-.41,1.15,3.93,3.93,0,0,1-.78,1,3.55,3.55,0,0,1-1.77.95,5,5,0,0,1-1.28.14,3.93,3.93,0,0,1-3-1.27,5,5,0,0,1-1.22-3.59,5.4,5.4,0,0,1,1.23-3.68,4,4,0,0,1,3.19-1.41A4.2,4.2,0,0,1,105,196.66Zm.56,3.69a4.11,4.11,0,0,0-.44-1.64,2.28,2.28,0,0,0-2.16-1.14,2.38,2.38,0,0,0-1.81.78,3,3,0,0,0-.77,2Z"/><path class="cls-1" d="M115.4,196.9a3.73,3.73,0,0,1,1.2,2.66h-1.54a2.81,2.81,0,0,0-.64-1.44,2,2,0,0,0-1.61-.58,2.21,2.21,0,0,0-2.16,1.47,5.91,5.91,0,0,0-.42,2.37,4.39,4.39,0,0,0,.6,2.37,2,2,0,0,0,1.88,1,2.08,2.08,0,0,0,1.56-.6,3.28,3.28,0,0,0,.79-1.64h1.54a3.71,3.71,0,0,1-4,3.6,3.59,3.59,0,0,1-2.94-1.35,5.17,5.17,0,0,1-1.1-3.37,5.7,5.7,0,0,1,1.2-3.86,3.91,3.91,0,0,1,3.07-1.38A4.1,4.1,0,0,1,115.4,196.9Z"/><path class="cls-1" d="M118.23,192.9h1.58v12.91h-1.58Z"/><path class="cls-1" d="M127.23,200.11a.87.87,0,0,0,.73-.45,1.43,1.43,0,0,0,.1-.61,1.3,1.3,0,0,0-.57-1.18,3.15,3.15,0,0,0-1.65-.37,2.07,2.07,0,0,0-1.75.68,2.12,2.12,0,0,0-.38,1.1h-1.48a2.75,2.75,0,0,1,1.13-2.43,4.66,4.66,0,0,1,2.52-.68,5.13,5.13,0,0,1,2.69.63,2.14,2.14,0,0,1,1,2v5.42a.68.68,0,0,0,.1.4.49.49,0,0,0,.43.15l.23,0,.28,0v1.16a5,5,0,0,1-.56.14l-.53,0a1.28,1.28,0,0,1-1.18-.58,2.12,2.12,0,0,1-.27-.87,4.16,4.16,0,0,1-1.39,1.1,4.33,4.33,0,0,1-2,.47,3,3,0,0,1-2.14-.8,2.65,2.65,0,0,1-.83-2,2.53,2.53,0,0,1,.82-2,3.87,3.87,0,0,1,2.14-.89Zm-3.34,4.28a1.89,1.89,0,0,0,1.19.39,3.7,3.7,0,0,0,1.62-.38,2.18,2.18,0,0,0,1.32-2.1V201a2.79,2.79,0,0,1-.75.3,4.85,4.85,0,0,1-.89.18l-1,.12a3.88,3.88,0,0,0-1.29.36,1.42,1.42,0,0,0-.74,1.32A1.33,1.33,0,0,0,123.89,204.39Z"/><path class="cls-1" d="M132.24,196.4h1.5V198a3.54,3.54,0,0,1,.9-1.15,2.33,2.33,0,0,1,1.66-.68h.15l.36,0v1.67l-.26,0h-.25a2.27,2.27,0,0,0-1.84.76,2.7,2.7,0,0,0-.64,1.78v5.41h-1.58Z"/><path class="cls-1" d="M143.23,200.11a.86.86,0,0,0,.73-.45,1.41,1.41,0,0,0,.11-.61,1.3,1.3,0,0,0-.58-1.18,3.09,3.09,0,0,0-1.64-.37,2.09,2.09,0,0,0-1.76.68,2.21,2.21,0,0,0-.38,1.1h-1.47a2.73,2.73,0,0,1,1.13-2.43,4.65,4.65,0,0,1,2.51-.68,5.14,5.14,0,0,1,2.7.63,2.15,2.15,0,0,1,1,2v5.42a.68.68,0,0,0,.11.4q.09.15.42.15l.24,0,.28,0v1.16a5.57,5.57,0,0,1-.56.14l-.53,0a1.3,1.3,0,0,1-1.19-.58,2.12,2.12,0,0,1-.27-.87,4,4,0,0,1-1.39,1.1,4.29,4.29,0,0,1-2,.47,3,3,0,0,1-2.14-.8,2.61,2.61,0,0,1-.83-2,2.56,2.56,0,0,1,.81-2,3.9,3.9,0,0,1,2.15-.89Zm-3.33,4.28a1.87,1.87,0,0,0,1.19.39,3.69,3.69,0,0,0,1.61-.38,2.18,2.18,0,0,0,1.32-2.1V201a2.71,2.71,0,0,1-.74.3,5.12,5.12,0,0,1-.9.18l-1,.12a3.88,3.88,0,0,0-1.29.36,1.41,1.41,0,0,0-.73,1.32A1.33,1.33,0,0,0,139.9,204.39Z"/><path class="cls-1" d="M154.42,196.9a3.68,3.68,0,0,1,1.19,2.66h-1.53a2.82,2.82,0,0,0-.65-1.44,2,2,0,0,0-1.6-.58,2.24,2.24,0,0,0-2.17,1.47,5.91,5.91,0,0,0-.42,2.37,4.39,4.39,0,0,0,.6,2.37,2.32,2.32,0,0,0,3.44.37,3.37,3.37,0,0,0,.8-1.64h1.53a4.12,4.12,0,0,1-1.31,2.74,3.79,3.79,0,0,1-2.45.86l-.62.86a2,2,0,0,1,.66-.08,1.46,1.46,0,0,1,1,.35,1.32,1.32,0,0,1,.39,1,1.51,1.51,0,0,1-.52,1.15,2.34,2.34,0,0,1-1.62.48,3.76,3.76,0,0,1-1-.13c-.18,0-.44-.13-.75-.25l.31-.71.52.18a2.66,2.66,0,0,0,.65.09,1.57,1.57,0,0,0,.56-.09.67.67,0,0,0,.46-.67.65.65,0,0,0-.23-.49.91.91,0,0,0-.62-.2,1.83,1.83,0,0,0-.35,0,2.45,2.45,0,0,0-.37.11l-.31-.36,1-1.29a2.89,2.89,0,0,1-2.19-1,5.41,5.41,0,0,1-1.27-3.72,5.7,5.7,0,0,1,1.21-3.86,3.88,3.88,0,0,1,3.07-1.38A4.1,4.1,0,0,1,154.42,196.9Z"/><path class="cls-1" d="M164,197.34a4.73,4.73,0,0,1,1.24,3.56,6.16,6.16,0,0,1-1.09,3.76,4,4,0,0,1-3.42,1.48,3.83,3.83,0,0,1-3.06-1.31,5.17,5.17,0,0,1-1.14-3.52,5.64,5.64,0,0,1,1.2-3.78,4,4,0,0,1,3.21-1.41A4.23,4.23,0,0,1,164,197.34Zm-2.5-3.86.45.17a1.4,1.4,0,0,0,.41.06.8.8,0,0,0,.7-.31,1.13,1.13,0,0,0,.16-.5h.93a2.47,2.47,0,0,1-.71,1.54,1.79,1.79,0,0,1-1.15.42,2,2,0,0,1-.49-.07,4.24,4.24,0,0,1-.53-.16l-.46-.17-.68-.22a1.8,1.8,0,0,0-.5-.08.66.66,0,0,0-.51.21,1.08,1.08,0,0,0-.26.61H158a3.4,3.4,0,0,1,.38-1.13,1.65,1.65,0,0,1,1.49-.81,2.74,2.74,0,0,1,.66.09A6.34,6.34,0,0,1,161.52,193.48ZM163,203.59a5.88,5.88,0,0,0,.58-2.64,4.9,4.9,0,0,0-.41-2.15,2.36,2.36,0,0,0-2.28-1.3,2.25,2.25,0,0,0-2.09,1.11,5.23,5.23,0,0,0-.65,2.67,4.53,4.53,0,0,0,.65,2.5,2.3,2.3,0,0,0,2.07,1A2.13,2.13,0,0,0,163,203.59Z"/><path class="cls-1" d="M173,196.66a3.66,3.66,0,0,1,1.43,1.21,4.24,4.24,0,0,1,.62,1.66,10.48,10.48,0,0,1,.14,2.08h-6.84a4,4,0,0,0,.67,2.3,2.24,2.24,0,0,0,1.94.87,2.51,2.51,0,0,0,2-.82,3,3,0,0,0,.58-1.1h1.55a3.27,3.27,0,0,1-.41,1.15,4.13,4.13,0,0,1-.77,1,3.64,3.64,0,0,1-1.77.95,5.07,5.07,0,0,1-1.28.14,3.94,3.94,0,0,1-3-1.27,5.06,5.06,0,0,1-1.21-3.59,5.45,5.45,0,0,1,1.22-3.68,4,4,0,0,1,3.2-1.41A4.16,4.16,0,0,1,173,196.66Zm.57,3.69a4.1,4.1,0,0,0-.45-1.64,2.27,2.27,0,0,0-2.15-1.14,2.38,2.38,0,0,0-1.81.78,3,3,0,0,0-.78,2Z"/><path class="cls-1" d="M178.16,202.86a2.31,2.31,0,0,0,.4,1.21,2.57,2.57,0,0,0,2.12.76,3.13,3.13,0,0,0,1.58-.38,1.27,1.27,0,0,0,.68-1.18,1,1,0,0,0-.55-.92,6.43,6.43,0,0,0-1.37-.45l-1.28-.32a6.14,6.14,0,0,1-1.8-.67,2,2,0,0,1-1-1.77,2.7,2.7,0,0,1,1-2.16,3.92,3.92,0,0,1,2.62-.83,3.68,3.68,0,0,1,3.11,1.25,2.67,2.67,0,0,1,.58,1.7h-1.5a1.89,1.89,0,0,0-.38-1,2.55,2.55,0,0,0-1.94-.62,2.43,2.43,0,0,0-1.39.34,1.08,1.08,0,0,0-.47.91,1.12,1.12,0,0,0,.62,1,3.94,3.94,0,0,0,1.06.38l1.06.26a8,8,0,0,1,2.33.8,2.1,2.1,0,0,1,.92,1.91,2.91,2.91,0,0,1-1,2.17,4.16,4.16,0,0,1-2.94.91,4,4,0,0,1-3-.95,3.65,3.65,0,0,1-.94-2.36Z"/><path class="cls-1" d="M196.39,196.69a4,4,0,0,1,1,.92v-4.76h1.53v13h-1.43V204.5a3.46,3.46,0,0,1-1.3,1.26,3.73,3.73,0,0,1-1.73.38,3.48,3.48,0,0,1-2.71-1.32,5.15,5.15,0,0,1-1.15-3.52,6.06,6.06,0,0,1,1-3.56,3.4,3.4,0,0,1,3-1.51A3.28,3.28,0,0,1,196.39,196.69Zm-3.53,7.05a2.23,2.23,0,0,0,2,1,2.15,2.15,0,0,0,1.79-.94,4.46,4.46,0,0,0,.71-2.71,4,4,0,0,0-.73-2.64,2.26,2.26,0,0,0-1.79-.86,2.35,2.35,0,0,0-1.93.91,4.23,4.23,0,0,0-.74,2.69A4.64,4.64,0,0,0,192.86,203.74Z"/><path class="cls-1" d="M201.23,192.9h1.61v1.79h-1.61Zm0,3.54h1.61v9.37h-1.61Z"/><path class="cls-1" d="M210.46,196.77a4.51,4.51,0,0,1,.91.9v-1.19h1.46v8.57a6.38,6.38,0,0,1-.52,2.83,3.79,3.79,0,0,1-3.71,1.91,4.57,4.57,0,0,1-2.55-.68,2.67,2.67,0,0,1-1.16-2.13h1.61a1.77,1.77,0,0,0,.46,1,2.26,2.26,0,0,0,1.68.53A2.3,2.3,0,0,0,211,207.2a7,7,0,0,0,.31-2.7,3,3,0,0,1-1.14,1.07,3.7,3.7,0,0,1-1.76.35,3.75,3.75,0,0,1-2.66-1.08,4.79,4.79,0,0,1-1.15-3.59,5.42,5.42,0,0,1,1.16-3.69,3.52,3.52,0,0,1,2.78-1.33A3.43,3.43,0,0,1,210.46,196.77Zm.2,1.7a2.3,2.3,0,0,0-1.83-.84,2.26,2.26,0,0,0-2.28,1.56,6.34,6.34,0,0,0-.32,2.19,3.88,3.88,0,0,0,.64,2.42,2.07,2.07,0,0,0,1.73.83,2.42,2.42,0,0,0,2.39-1.54,5.07,5.07,0,0,0,.38-2A4,4,0,0,0,210.66,198.47Z"/><path class="cls-1" d="M215.24,192.9h1.61v1.79h-1.61Zm0,3.54h1.61v9.37h-1.61Z"/><path class="cls-1" d="M219.55,193.77h1.6v2.63h1.51v1.29h-1.51v6.14a.67.67,0,0,0,.34.66,1.32,1.32,0,0,0,.61.1h.25l.31,0v1.26a3.38,3.38,0,0,1-.57.11,4.31,4.31,0,0,1-.64,0,1.7,1.7,0,0,1-1.5-.57,2.55,2.55,0,0,1-.4-1.47v-6.23h-1.27V196.4h1.27Z"/><path class="cls-1" d="M229.28,200.11a.84.84,0,0,0,.73-.45,1.41,1.41,0,0,0,.11-.61,1.28,1.28,0,0,0-.58-1.18,3.09,3.09,0,0,0-1.64-.37,2.07,2.07,0,0,0-1.75.68,2.12,2.12,0,0,0-.38,1.1h-1.48a2.75,2.75,0,0,1,1.13-2.43,4.65,4.65,0,0,1,2.51-.68,5.14,5.14,0,0,1,2.7.63,2.16,2.16,0,0,1,1,2v5.42a.68.68,0,0,0,.1.4.48.48,0,0,0,.42.15l.24,0,.28,0v1.16a5,5,0,0,1-.56.14l-.53,0a1.28,1.28,0,0,1-1.18-.58,2.28,2.28,0,0,1-.28-.87,4,4,0,0,1-1.38,1.1,4.33,4.33,0,0,1-2,.47,3,3,0,0,1-2.14-.8,2.65,2.65,0,0,1-.83-2,2.53,2.53,0,0,1,.82-2,3.87,3.87,0,0,1,2.14-.89ZM226,204.39a1.89,1.89,0,0,0,1.19.39,3.7,3.7,0,0,0,1.62-.38,2.18,2.18,0,0,0,1.32-2.1V201a2.93,2.93,0,0,1-.75.3,4.78,4.78,0,0,1-.9.18l-1,.12a3.81,3.81,0,0,0-1.29.36,1.42,1.42,0,0,0-.74,1.32A1.33,1.33,0,0,0,226,204.39Z"/><path class="cls-1" d="M234.25,192.9h1.61v1.79h-1.61Zm0,3.54h1.61v9.37h-1.61Z"/><path class="cls-1" d="M239.19,202.86a2.31,2.31,0,0,0,.4,1.21,2.58,2.58,0,0,0,2.12.76,3.13,3.13,0,0,0,1.58-.38,1.27,1.27,0,0,0,.68-1.18,1,1,0,0,0-.54-.92,6.58,6.58,0,0,0-1.38-.45l-1.28-.32a6.26,6.26,0,0,1-1.8-.67,2,2,0,0,1-1-1.77,2.7,2.7,0,0,1,1-2.16,3.92,3.92,0,0,1,2.62-.83,3.68,3.68,0,0,1,3.11,1.25,2.67,2.67,0,0,1,.58,1.7h-1.5a1.81,1.81,0,0,0-.38-1,2.53,2.53,0,0,0-1.94-.62,2.43,2.43,0,0,0-1.39.34,1.08,1.08,0,0,0-.47.91,1.12,1.12,0,0,0,.62,1,3.94,3.94,0,0,0,1.06.38l1.06.26a8,8,0,0,1,2.33.8,2.11,2.11,0,0,1,.93,1.91,2.92,2.92,0,0,1-1,2.17,4.13,4.13,0,0,1-2.94.91,4,4,0,0,1-3-.95,3.6,3.6,0,0,1-1-2.36Z"/><path class="cls-1" d="M89.58,247.39h5.87a5.71,5.71,0,0,1,2.39.43,3.05,3.05,0,0,1,1.79,3.05,3.4,3.4,0,0,1-.48,1.89A3.45,3.45,0,0,1,97.81,254a2.78,2.78,0,0,1,1.14.81,3,3,0,0,1,.42,1.63l.06,1.73a5.05,5.05,0,0,0,.13,1.1,1.07,1.07,0,0,0,.56.79v.29H98a1.78,1.78,0,0,1-.15-.43,9.44,9.44,0,0,1-.08-1l-.11-2.16a1.8,1.8,0,0,0-.91-1.69,3.68,3.68,0,0,0-1.53-.24H91.33v5.54H89.58Zm5.68,5.91a3.24,3.24,0,0,0,1.9-.49,2,2,0,0,0,.69-1.78,1.92,1.92,0,0,0-1-1.88,3.19,3.19,0,0,0-1.39-.26H91.33v4.41Z"/><path class="cls-1" d="M108,251.14a3.61,3.61,0,0,1,1.43,1.22A4.35,4.35,0,0,1,110,254a11.32,11.32,0,0,1,.14,2.08h-6.85a4.07,4.07,0,0,0,.67,2.3,2.25,2.25,0,0,0,2,.87,2.53,2.53,0,0,0,2-.82,3,3,0,0,0,.58-1.11H110a3.27,3.27,0,0,1-.4,1.16,4.35,4.35,0,0,1-.78,1,3.64,3.64,0,0,1-1.77.95,5.58,5.58,0,0,1-1.28.14,3.93,3.93,0,0,1-3-1.28,5,5,0,0,1-1.22-3.58,5.4,5.4,0,0,1,1.23-3.68,4,4,0,0,1,3.19-1.42A4.26,4.26,0,0,1,108,251.14Zm.57,3.7a4.06,4.06,0,0,0-.44-1.64,2.27,2.27,0,0,0-2.16-1.15,2.36,2.36,0,0,0-1.81.79,3,3,0,0,0-.78,2Z"/><path class="cls-1" d="M118.39,251.38a3.77,3.77,0,0,1,1.2,2.67h-1.54a2.88,2.88,0,0,0-.64-1.45,2,2,0,0,0-1.61-.57,2.21,2.21,0,0,0-2.16,1.47,5.9,5.9,0,0,0-.42,2.36,4.52,4.52,0,0,0,.59,2.38,2.32,2.32,0,0,0,3.44.37,3.29,3.29,0,0,0,.8-1.64h1.54a4.14,4.14,0,0,1-1.32,2.73,4.09,4.09,0,0,1-2.7.87,3.59,3.59,0,0,1-2.94-1.35,5.12,5.12,0,0,1-1.1-3.37,5.7,5.7,0,0,1,1.2-3.86,3.91,3.91,0,0,1,3.07-1.38A4.15,4.15,0,0,1,118.39,251.38Z"/><path class="cls-1" d="M127,251.14a3.61,3.61,0,0,1,1.43,1.22A4.35,4.35,0,0,1,129,254a11.32,11.32,0,0,1,.14,2.08h-6.85a4.07,4.07,0,0,0,.67,2.3,2.25,2.25,0,0,0,2,.87,2.52,2.52,0,0,0,2-.82,2.81,2.81,0,0,0,.58-1.11H129a3.27,3.27,0,0,1-.4,1.16,4.35,4.35,0,0,1-.78,1,3.64,3.64,0,0,1-1.77.95,5.51,5.51,0,0,1-1.28.14,3.93,3.93,0,0,1-3-1.28,5,5,0,0,1-1.22-3.58,5.4,5.4,0,0,1,1.23-3.68,4,4,0,0,1,3.19-1.42A4.26,4.26,0,0,1,127,251.14Zm.57,3.7a4.06,4.06,0,0,0-.44-1.64,2.27,2.27,0,0,0-2.16-1.15,2.36,2.36,0,0,0-1.81.79,2.92,2.92,0,0,0-.77,2Z"/><path class="cls-1" d="M131.05,247.34h1.54V252a3.53,3.53,0,0,1,1.24-1,3.61,3.61,0,0,1,1.57-.35,3.66,3.66,0,0,1,2.86,1.21,5.08,5.08,0,0,1,1.1,3.56,6.13,6.13,0,0,1-1.08,3.71,3.55,3.55,0,0,1-3,1.48,3.15,3.15,0,0,1-1.82-.52,4.53,4.53,0,0,1-.94-1v1.21h-1.46Zm6,10.84a5.07,5.07,0,0,0,.64-2.69,4.45,4.45,0,0,0-.64-2.46,2.13,2.13,0,0,0-1.89-1,2.66,2.66,0,0,0-1.9.8,3.61,3.61,0,0,0-.81,2.64,5.89,5.89,0,0,0,.33,2.15,2.32,2.32,0,0,0,2.34,1.56A2.13,2.13,0,0,0,137.1,258.18Z"/><path class="cls-1" d="M146.24,254.6a.88.88,0,0,0,.73-.46,1.38,1.38,0,0,0,.1-.6,1.29,1.29,0,0,0-.57-1.18,3,3,0,0,0-1.65-.37,2.07,2.07,0,0,0-1.75.67,2.29,2.29,0,0,0-.38,1.11h-1.48a2.73,2.73,0,0,1,1.13-2.43,4.57,4.57,0,0,1,2.52-.68,5.13,5.13,0,0,1,2.69.63,2.14,2.14,0,0,1,1,2v5.42a.7.7,0,0,0,.1.4.52.52,0,0,0,.43.14h.23l.29,0v1.17a3.49,3.49,0,0,1-.57.13,3.54,3.54,0,0,1-.52,0,1.29,1.29,0,0,1-1.19-.58,2.23,2.23,0,0,1-.27-.87,4.16,4.16,0,0,1-1.39,1.1,4.33,4.33,0,0,1-2,.46,3,3,0,0,1-2.14-.79,2.65,2.65,0,0,1-.83-2,2.55,2.55,0,0,1,.82-2,3.86,3.86,0,0,1,2.14-.88Zm-3.33,4.27a1.79,1.79,0,0,0,1.18.4,3.58,3.58,0,0,0,1.62-.39,2.16,2.16,0,0,0,1.32-2.09v-1.28a2.49,2.49,0,0,1-.75.31,7.39,7.39,0,0,1-.89.18l-1,.12a3.88,3.88,0,0,0-1.29.36,1.39,1.39,0,0,0-.74,1.31A1.28,1.28,0,0,0,142.91,258.87Z"/><path class="cls-1" d="M156.07,250.93h1.55v1.25a3.91,3.91,0,0,1,1-1,3.34,3.34,0,0,1,1.88-.52,3.55,3.55,0,0,1,2.73,1.22,5.06,5.06,0,0,1,1.12,3.5q0,3.08-1.62,4.4a3.69,3.69,0,0,1-2.38.83,3.24,3.24,0,0,1-1.79-.46,4.32,4.32,0,0,1-.95-.91v4.81h-1.58Zm6,7.38a4.43,4.43,0,0,0,.74-2.78,5.09,5.09,0,0,0-.33-1.93,2.39,2.39,0,0,0-4.51.09,6.4,6.4,0,0,0-.33,2.23,4.64,4.64,0,0,0,.33,1.85,2.24,2.24,0,0,0,2.26,1.46A2.27,2.27,0,0,0,162,258.31Z"/><path class="cls-1" d="M172,251.14a3.57,3.57,0,0,1,1.42,1.22,4,4,0,0,1,.63,1.66,11.32,11.32,0,0,1,.14,2.08h-6.85a4.07,4.07,0,0,0,.68,2.3,2.22,2.22,0,0,0,1.94.87,2.52,2.52,0,0,0,2-.82,2.69,2.69,0,0,0,.58-1.11h1.56a3.31,3.31,0,0,1-.41,1.16,4.32,4.32,0,0,1-.77,1,3.62,3.62,0,0,1-1.78.95,5.45,5.45,0,0,1-1.28.14,3.94,3.94,0,0,1-3-1.28,5,5,0,0,1-1.21-3.58,5.4,5.4,0,0,1,1.22-3.68,4,4,0,0,1,3.2-1.42A4.29,4.29,0,0,1,172,251.14Zm.56,3.7a4.06,4.06,0,0,0-.44-1.64,2.27,2.27,0,0,0-2.15-1.15,2.38,2.38,0,0,0-1.82.79,3,3,0,0,0-.77,2Z"/><path class="cls-1" d="M176.27,250.88h1.5v1.63a3.61,3.61,0,0,1,.91-1.16,2.35,2.35,0,0,1,1.66-.68h.15l.36,0v1.67l-.26,0h-.26a2.27,2.27,0,0,0-1.84.77,2.66,2.66,0,0,0-.64,1.77v5.42h-1.58Z"/><path class="cls-1" d="M187.45,251.26a4.51,4.51,0,0,1,.91.9V251h1.46v8.56a6.33,6.33,0,0,1-.52,2.83,3.78,3.78,0,0,1-3.71,1.92,4.57,4.57,0,0,1-2.55-.68,2.7,2.7,0,0,1-1.16-2.13h1.61a1.8,1.8,0,0,0,.46,1,2.3,2.3,0,0,0,1.68.53,2.33,2.33,0,0,0,2.37-1.28,7.32,7.32,0,0,0,.3-2.7,3,3,0,0,1-1.14,1.07,3.82,3.82,0,0,1-1.76.35,3.75,3.75,0,0,1-2.66-1.08,4.8,4.8,0,0,1-1.15-3.59,5.47,5.47,0,0,1,1.16-3.7,3.55,3.55,0,0,1,2.78-1.32A3.43,3.43,0,0,1,187.45,251.26Zm.2,1.7a2.31,2.31,0,0,0-1.83-.85,2.27,2.27,0,0,0-2.28,1.57,6.3,6.3,0,0,0-.32,2.19,3.9,3.9,0,0,0,.64,2.42,2.09,2.09,0,0,0,1.73.83,2.42,2.42,0,0,0,2.39-1.54,5.1,5.1,0,0,0,.38-2A4,4,0,0,0,187.65,253Z"/><path class="cls-1" d="M193.81,250.88v6.25a2.82,2.82,0,0,0,.22,1.18,1.56,1.56,0,0,0,1.54.84,2.17,2.17,0,0,0,2.19-1.47,6,6,0,0,0,.31-2.17v-4.63h1.59v9.42h-1.5l0-1.39a3,3,0,0,1-.75.9,3.22,3.22,0,0,1-2.16.74,2.78,2.78,0,0,1-2.69-1.34,4.08,4.08,0,0,1-.39-1.93v-6.4Z"/><path class="cls-1" d="M202.24,250.88h1.5v1.34a4.28,4.28,0,0,1,1.42-1.19,3.78,3.78,0,0,1,1.66-.36,2.75,2.75,0,0,1,2.71,1.4,5.1,5.1,0,0,1,.38,2.19v6H208.3v-5.94a3.18,3.18,0,0,0-.25-1.38,1.54,1.54,0,0,0-1.53-.88,3,3,0,0,0-.92.11,2.35,2.35,0,0,0-1.14.77,2.31,2.31,0,0,0-.52,1,6.38,6.38,0,0,0-.12,1.42v4.93h-1.58Z"/><path class="cls-1" d="M212.57,248.26h1.6v2.62h1.5v1.3h-1.5v6.14a.67.67,0,0,0,.33.66,1.49,1.49,0,0,0,.62.1h.24l.31,0v1.26a3.38,3.38,0,0,1-.57.11,6.07,6.07,0,0,1-.63,0,1.73,1.73,0,0,1-1.51-.57,2.55,2.55,0,0,1-.39-1.47v-6.23h-1.28v-1.3h1.28Z"/><path class="cls-1" d="M222.3,254.6a.88.88,0,0,0,.73-.46,1.38,1.38,0,0,0,.1-.6,1.29,1.29,0,0,0-.57-1.18,3,3,0,0,0-1.65-.37,2.07,2.07,0,0,0-1.75.67,2.29,2.29,0,0,0-.38,1.11H217.3a2.73,2.73,0,0,1,1.13-2.43,4.6,4.6,0,0,1,2.52-.68,5.13,5.13,0,0,1,2.69.63,2.14,2.14,0,0,1,1,2v5.42a.7.7,0,0,0,.1.4.52.52,0,0,0,.43.14h.23l.29,0v1.17a3.49,3.49,0,0,1-.57.13,3.54,3.54,0,0,1-.52,0,1.3,1.3,0,0,1-1.19-.58,2.23,2.23,0,0,1-.27-.87,4.16,4.16,0,0,1-1.39,1.1,4.33,4.33,0,0,1-2,.46,3,3,0,0,1-2.14-.79,2.65,2.65,0,0,1-.83-2,2.55,2.55,0,0,1,.82-2,3.86,3.86,0,0,1,2.14-.88ZM219,258.87a1.81,1.81,0,0,0,1.18.4,3.58,3.58,0,0,0,1.62-.39,2.16,2.16,0,0,0,1.32-2.09v-1.28a2.49,2.49,0,0,1-.75.31,7.39,7.39,0,0,1-.89.18l-1,.12a3.88,3.88,0,0,0-1.29.36,1.39,1.39,0,0,0-.74,1.31A1.28,1.28,0,0,0,219,258.87Z"/><path class="cls-1" d="M228.2,257.34a2.31,2.31,0,0,0,.41,1.22,2.54,2.54,0,0,0,2.11.76,3.21,3.21,0,0,0,1.58-.38,1.26,1.26,0,0,0,.68-1.18,1,1,0,0,0-.54-.93,7.19,7.19,0,0,0-1.38-.44l-1.27-.32a6.23,6.23,0,0,1-1.81-.67,2,2,0,0,1-1-1.77,2.71,2.71,0,0,1,1-2.17,3.93,3.93,0,0,1,2.62-.82,3.64,3.64,0,0,1,3.11,1.25,2.66,2.66,0,0,1,.58,1.7h-1.49a1.79,1.79,0,0,0-.39-1,2.52,2.52,0,0,0-1.93-.62,2.34,2.34,0,0,0-1.39.34,1.06,1.06,0,0,0-.48.9,1.1,1.1,0,0,0,.63,1,3.51,3.51,0,0,0,1,.39l1.07.26a8.16,8.16,0,0,1,2.33.8,2.12,2.12,0,0,1,.92,1.9,2.87,2.87,0,0,1-1,2.17,4.13,4.13,0,0,1-2.94.92,4,4,0,0,1-3-1,3.56,3.56,0,0,1-.95-2.36Z"/><path class="cls-1" d="M246.31,254.6a.86.86,0,0,0,.73-.46,1.38,1.38,0,0,0,.1-.6,1.29,1.29,0,0,0-.57-1.18,3,3,0,0,0-1.65-.37,2.07,2.07,0,0,0-1.75.67,2.29,2.29,0,0,0-.38,1.11h-1.47a2.72,2.72,0,0,1,1.12-2.43,4.62,4.62,0,0,1,2.52-.68,5.1,5.1,0,0,1,2.69.63,2.14,2.14,0,0,1,1,2v5.42a.7.7,0,0,0,.1.4.52.52,0,0,0,.43.14h.24l.28,0v1.17a3.23,3.23,0,0,1-1.09.16,1.3,1.3,0,0,1-1.19-.58,2.23,2.23,0,0,1-.27-.87,4.06,4.06,0,0,1-1.39,1.1,4.3,4.3,0,0,1-2,.46,3,3,0,0,1-2.14-.79,2.65,2.65,0,0,1-.83-2,2.58,2.58,0,0,1,.82-2,3.89,3.89,0,0,1,2.15-.88ZM243,258.87a1.81,1.81,0,0,0,1.18.4,3.58,3.58,0,0,0,1.62-.39,2.16,2.16,0,0,0,1.32-2.09v-1.28a2.39,2.39,0,0,1-.75.31,7.39,7.39,0,0,1-.89.18l-1,.12a3.88,3.88,0,0,0-1.29.36,1.38,1.38,0,0,0-.73,1.31A1.28,1.28,0,0,0,243,258.87Z"/><path class="cls-1" d="M258.09,251.82a4.73,4.73,0,0,1,1.25,3.57,6.12,6.12,0,0,1-1.1,3.76,4,4,0,0,1-3.41,1.48,3.83,3.83,0,0,1-3.06-1.31,5.2,5.2,0,0,1-1.14-3.53,5.59,5.59,0,0,1,1.2-3.77,4,4,0,0,1,3.21-1.41A4.2,4.2,0,0,1,258.09,251.82Zm-1,6.26a5.92,5.92,0,0,0,.58-2.65,4.71,4.71,0,0,0-.42-2.14A2.33,2.33,0,0,0,255,252a2.24,2.24,0,0,0-2.09,1.11,5.18,5.18,0,0,0-.65,2.67,4.53,4.53,0,0,0,.65,2.5,2.29,2.29,0,0,0,2.07,1A2.15,2.15,0,0,0,257.11,258.08Z"/><path class="cls-1" d="M262.23,257.34a2.23,2.23,0,0,0,.4,1.22,2.57,2.57,0,0,0,2.12.76,3.27,3.27,0,0,0,1.58-.38,1.28,1.28,0,0,0,.68-1.18,1,1,0,0,0-.55-.93,7.28,7.28,0,0,0-1.37-.44l-1.28-.32a6.23,6.23,0,0,1-1.81-.67,2,2,0,0,1-1-1.77,2.71,2.71,0,0,1,1-2.17,3.94,3.94,0,0,1,2.63-.82,3.66,3.66,0,0,1,3.11,1.25,2.65,2.65,0,0,1,.57,1.7h-1.49a1.79,1.79,0,0,0-.39-1,2.51,2.51,0,0,0-1.93-.62,2.34,2.34,0,0,0-1.39.34,1.05,1.05,0,0,0-.47.9,1.09,1.09,0,0,0,.62,1,3.63,3.63,0,0,0,1.05.39l1.07.26a8.16,8.16,0,0,1,2.33.8,2.12,2.12,0,0,1,.92,1.9,2.89,2.89,0,0,1-1,2.17,4.16,4.16,0,0,1-2.94.92,4,4,0,0,1-3-1,3.55,3.55,0,0,1-.94-2.36Z"/><path class="cls-1" d="M89,271.93h1.55v1.25a3.77,3.77,0,0,1,1-1,3.34,3.34,0,0,1,1.88-.52,3.52,3.52,0,0,1,2.72,1.22,5,5,0,0,1,1.12,3.5c0,2.05-.54,3.52-1.61,4.4a3.69,3.69,0,0,1-2.38.83,3.28,3.28,0,0,1-1.8-.46,4.31,4.31,0,0,1-.94-.91v4.81H89Zm6,7.38a4.43,4.43,0,0,0,.74-2.78,5.09,5.09,0,0,0-.33-1.93,2.39,2.39,0,0,0-4.51.09,6.4,6.4,0,0,0-.33,2.23,4.64,4.64,0,0,0,.33,1.85,2.23,2.23,0,0,0,2.25,1.46A2.29,2.29,0,0,0,95,279.31Z"/><path class="cls-1" d="M104.22,275.6a.88.88,0,0,0,.73-.46,1.38,1.38,0,0,0,.1-.6,1.29,1.29,0,0,0-.57-1.18,3.06,3.06,0,0,0-1.65-.37,2.07,2.07,0,0,0-1.75.67,2.19,2.19,0,0,0-.38,1.11H99.22a2.73,2.73,0,0,1,1.13-2.43,4.57,4.57,0,0,1,2.52-.68,5.13,5.13,0,0,1,2.69.63,2.14,2.14,0,0,1,1,2v5.42a.7.7,0,0,0,.1.4.52.52,0,0,0,.43.14h.23l.28,0v1.17a3.21,3.21,0,0,1-.56.13,3.6,3.6,0,0,1-.53,0,1.28,1.28,0,0,1-1.18-.58,2.23,2.23,0,0,1-.27-.87,4.16,4.16,0,0,1-1.39,1.1,4.33,4.33,0,0,1-2,.46,3,3,0,0,1-2.14-.79,2.65,2.65,0,0,1-.83-2,2.55,2.55,0,0,1,.82-2,3.86,3.86,0,0,1,2.14-.88Zm-3.34,4.27a1.84,1.84,0,0,0,1.19.4,3.58,3.58,0,0,0,1.62-.39,2.16,2.16,0,0,0,1.32-2.09v-1.28a2.49,2.49,0,0,1-.75.31,7.39,7.39,0,0,1-.89.18l-1,.12a3.88,3.88,0,0,0-1.29.36,1.39,1.39,0,0,0-.74,1.31A1.3,1.3,0,0,0,100.88,279.87Z"/><path class="cls-1" d="M109.23,268.39h1.58V281.3h-1.58Z"/><path class="cls-1" d="M119,272.14a3.64,3.64,0,0,1,1.42,1.22,4.35,4.35,0,0,1,.63,1.66,11.32,11.32,0,0,1,.14,2.08h-6.85a4.07,4.07,0,0,0,.67,2.3,2.25,2.25,0,0,0,1.95.87,2.52,2.52,0,0,0,2-.82,2.81,2.81,0,0,0,.58-1.11h1.56a3.53,3.53,0,0,1-.41,1.16,4.1,4.1,0,0,1-.78,1,3.55,3.55,0,0,1-1.77.95,5.51,5.51,0,0,1-1.28.14,3.94,3.94,0,0,1-3-1.28,5,5,0,0,1-1.22-3.58,5.4,5.4,0,0,1,1.23-3.68,4,4,0,0,1,3.19-1.42A4.33,4.33,0,0,1,119,272.14Zm.56,3.7a4.06,4.06,0,0,0-.44-1.64,2.27,2.27,0,0,0-2.16-1.15,2.36,2.36,0,0,0-1.81.79,3,3,0,0,0-.77,2Z"/><path class="cls-1" d="M124.13,278.34a2.23,2.23,0,0,0,.41,1.22,2.54,2.54,0,0,0,2.11.76,3.21,3.21,0,0,0,1.58-.38,1.26,1.26,0,0,0,.68-1.18,1,1,0,0,0-.54-.93,7.19,7.19,0,0,0-1.38-.44l-1.27-.32a6.23,6.23,0,0,1-1.81-.67,2,2,0,0,1-1-1.77,2.71,2.71,0,0,1,1-2.17,3.93,3.93,0,0,1,2.62-.82,3.64,3.64,0,0,1,3.11,1.25,2.66,2.66,0,0,1,.58,1.7h-1.49a1.79,1.79,0,0,0-.39-1,2.52,2.52,0,0,0-1.93-.62,2.32,2.32,0,0,0-1.39.34,1.06,1.06,0,0,0-.48.9,1.1,1.1,0,0,0,.62,1,3.71,3.71,0,0,0,1.06.39l1.07.26a8.06,8.06,0,0,1,2.32.8,2.1,2.1,0,0,1,.93,1.9,2.87,2.87,0,0,1-1,2.17,4.13,4.13,0,0,1-2.94.92,4,4,0,0,1-3-1,3.56,3.56,0,0,1-1-2.36Z"/><path class="cls-1" d="M132.51,269.26h1.6v2.62h1.5v1.3h-1.5v6.14a.67.67,0,0,0,.33.66,1.49,1.49,0,0,0,.62.1h.24l.31,0v1.26a3.38,3.38,0,0,1-.57.11,6.07,6.07,0,0,1-.63,0,1.73,1.73,0,0,1-1.51-.57,2.55,2.55,0,0,1-.39-1.47v-6.23h-1.28v-1.3h1.28Z"/><path class="cls-1" d="M137.24,271.88h1.5v1.63a3.55,3.55,0,0,1,.9-1.16,2.38,2.38,0,0,1,1.67-.68h.15l.36,0v1.67l-.26,0h-.26a2.27,2.27,0,0,0-1.84.77,2.66,2.66,0,0,0-.64,1.77v5.42h-1.58Z"/><path class="cls-1" d="M148.23,275.6a.86.86,0,0,0,.73-.46,1.37,1.37,0,0,0,.11-.6,1.27,1.27,0,0,0-.58-1.18,3,3,0,0,0-1.64-.37,2.09,2.09,0,0,0-1.76.67,2.2,2.2,0,0,0-.37,1.11h-1.48a2.7,2.7,0,0,1,1.13-2.43,4.56,4.56,0,0,1,2.51-.68,5.14,5.14,0,0,1,2.7.63,2.15,2.15,0,0,1,1,2v5.42a.7.7,0,0,0,.11.4.5.5,0,0,0,.42.14h.24l.28,0v1.17a3.42,3.42,0,0,1-.56.13,3.7,3.7,0,0,1-.53,0,1.31,1.31,0,0,1-1.19-.58,2.41,2.41,0,0,1-.27-.87,4,4,0,0,1-1.39,1.1,4.29,4.29,0,0,1-2,.46,3,3,0,0,1-2.14-.79,2.61,2.61,0,0,1-.83-2,2.58,2.58,0,0,1,.81-2,3.89,3.89,0,0,1,2.15-.88Zm-3.33,4.27a1.82,1.82,0,0,0,1.19.4,3.57,3.57,0,0,0,1.61-.39,2.16,2.16,0,0,0,1.32-2.09v-1.28a2.42,2.42,0,0,1-.74.31,8,8,0,0,1-.9.18l-.95.12a3.88,3.88,0,0,0-1.3.36,1.38,1.38,0,0,0-.73,1.31A1.3,1.3,0,0,0,144.9,279.87Z"/><path class="cls-1" d="M153.2,271.88h1.5v1.34a4.28,4.28,0,0,1,1.42-1.19,3.74,3.74,0,0,1,1.66-.36,2.74,2.74,0,0,1,2.7,1.4,4.93,4.93,0,0,1,.39,2.19v6h-1.61v-5.94A3.18,3.18,0,0,0,159,274a1.54,1.54,0,0,0-1.53-.88,3,3,0,0,0-.93.11,2.44,2.44,0,0,0-1.14.77,2.4,2.4,0,0,0-.51,1,6.38,6.38,0,0,0-.12,1.42v4.93H153.2Z"/><path class="cls-1" d="M163.52,269.26h1.6v2.62h1.51v1.3h-1.51v6.14a.67.67,0,0,0,.34.66,1.47,1.47,0,0,0,.61.1h.25l.31,0v1.26a3.38,3.38,0,0,1-.57.11,6.28,6.28,0,0,1-.64,0,1.7,1.7,0,0,1-1.5-.57,2.55,2.55,0,0,1-.4-1.47v-6.23h-1.27v-1.3h1.27Z"/><path class="cls-1" d="M174,272.14a3.61,3.61,0,0,1,1.43,1.22,4.35,4.35,0,0,1,.63,1.66,11.32,11.32,0,0,1,.14,2.08h-6.85a4.07,4.07,0,0,0,.67,2.3,2.25,2.25,0,0,0,2,.87,2.53,2.53,0,0,0,2-.82,3,3,0,0,0,.58-1.11h1.55a3.27,3.27,0,0,1-.4,1.16,4.35,4.35,0,0,1-.78,1,3.64,3.64,0,0,1-1.77.95,5.58,5.58,0,0,1-1.28.14,3.93,3.93,0,0,1-3-1.28,5,5,0,0,1-1.22-3.58,5.4,5.4,0,0,1,1.23-3.68,4,4,0,0,1,3.19-1.42A4.26,4.26,0,0,1,174,272.14Zm.57,3.7a4.06,4.06,0,0,0-.44-1.64,2.28,2.28,0,0,0-2.16-1.15,2.36,2.36,0,0,0-1.81.79,3,3,0,0,0-.78,2Z"/><path class="cls-1" d="M179.16,278.34a2.31,2.31,0,0,0,.4,1.22,2.58,2.58,0,0,0,2.12.76,3.24,3.24,0,0,0,1.58-.38,1.28,1.28,0,0,0,.68-1.18,1,1,0,0,0-.54-.93,7.46,7.46,0,0,0-1.38-.44l-1.28-.32a6.26,6.26,0,0,1-1.8-.67,2,2,0,0,1-1-1.77,2.72,2.72,0,0,1,1-2.17,3.92,3.92,0,0,1,2.62-.82,3.65,3.65,0,0,1,3.11,1.25,2.66,2.66,0,0,1,.58,1.7H183.7a1.79,1.79,0,0,0-.39-1,2.53,2.53,0,0,0-1.94-.62,2.36,2.36,0,0,0-1.39.34,1.08,1.08,0,0,0-.47.9,1.1,1.1,0,0,0,.62,1,3.59,3.59,0,0,0,1.06.39l1.06.26a8,8,0,0,1,2.33.8,2.1,2.1,0,0,1,.93,1.9,2.9,2.9,0,0,1-1,2.17,4.13,4.13,0,0,1-2.94.92,4,4,0,0,1-3-1,3.56,3.56,0,0,1-1-2.36Z"/><path class="cls-1" d="M89.45,323.08h5.16A4.85,4.85,0,0,1,98.69,325a7,7,0,0,1,1.29,4.36,8.93,8.93,0,0,1-.76,3.72A4.71,4.71,0,0,1,94.59,336H89.45Zm4.82,11.41a4.67,4.67,0,0,0,1.42-.18A3.18,3.18,0,0,0,97.33,333a5.46,5.46,0,0,0,.73-2,8.52,8.52,0,0,0,.13-1.36,6.31,6.31,0,0,0-.94-3.72,3.39,3.39,0,0,0-3-1.33h-3v9.91Z"/><path class="cls-1" d="M102.16,323.08h1.61v1.79h-1.61Zm0,3.54h1.61V336h-1.61Z"/><path class="cls-1" d="M107.1,333a2.31,2.31,0,0,0,.4,1.22,2.57,2.57,0,0,0,2.12.76,3.24,3.24,0,0,0,1.58-.38,1.27,1.27,0,0,0,.68-1.18,1,1,0,0,0-.55-.93,7.28,7.28,0,0,0-1.37-.44l-1.28-.32a6.14,6.14,0,0,1-1.8-.67,2,2,0,0,1-1-1.77,2.73,2.73,0,0,1,1-2.17,3.92,3.92,0,0,1,2.62-.82,3.65,3.65,0,0,1,3.11,1.25,2.66,2.66,0,0,1,.58,1.7h-1.5a1.86,1.86,0,0,0-.38-1,2.53,2.53,0,0,0-1.94-.62,2.36,2.36,0,0,0-1.39.34,1.08,1.08,0,0,0-.47.9,1.13,1.13,0,0,0,.62,1,3.94,3.94,0,0,0,1.06.38l1.06.26a8,8,0,0,1,2.33.8,2.1,2.1,0,0,1,.92,1.9,2.89,2.89,0,0,1-1,2.17,4.16,4.16,0,0,1-2.94.92,4,4,0,0,1-3-1,3.56,3.56,0,0,1-1-2.36Z"/><path class="cls-1" d="M115,326.62h1.54v1.25a4.07,4.07,0,0,1,1-1,3.39,3.39,0,0,1,1.89-.52,3.52,3.52,0,0,1,2.72,1.22,5,5,0,0,1,1.12,3.5c0,2.06-.54,3.52-1.61,4.4a3.66,3.66,0,0,1-2.39.83,3.26,3.26,0,0,1-1.79-.46,4.31,4.31,0,0,1-.94-.91v4.81H115Zm6,7.38a4.44,4.44,0,0,0,.73-2.78,5.1,5.1,0,0,0-.32-1.93,2.39,2.39,0,0,0-4.52.09,6.67,6.67,0,0,0-.32,2.23,4.88,4.88,0,0,0,.32,1.86A2.41,2.41,0,0,0,121,334Z"/><path class="cls-1" d="M132,327.51a4.77,4.77,0,0,1,1.25,3.57,6.16,6.16,0,0,1-1.1,3.76,4,4,0,0,1-3.41,1.48,3.87,3.87,0,0,1-3.07-1.31,5.25,5.25,0,0,1-1.13-3.53,5.64,5.64,0,0,1,1.19-3.77,4,4,0,0,1,3.21-1.41A4.25,4.25,0,0,1,132,327.51Zm-1,6.26a6.06,6.06,0,0,0,.57-2.65,4.75,4.75,0,0,0-.41-2.14,2.35,2.35,0,0,0-2.28-1.3,2.25,2.25,0,0,0-2.09,1.11,5.23,5.23,0,0,0-.65,2.67,4.53,4.53,0,0,0,.65,2.5,2.3,2.3,0,0,0,2.07,1A2.17,2.17,0,0,0,131,333.77Z"/><path class="cls-1" d="M135.18,326.57h1.5v1.34a4.28,4.28,0,0,1,1.42-1.19,3.78,3.78,0,0,1,1.66-.36,2.75,2.75,0,0,1,2.71,1.4,5.1,5.1,0,0,1,.38,2.19v6h-1.61v-5.93a3.2,3.2,0,0,0-.25-1.39,1.54,1.54,0,0,0-1.53-.88,3.3,3.3,0,0,0-.92.11,2.57,2.57,0,0,0-1.66,1.74,6.38,6.38,0,0,0-.12,1.42V336h-1.58Z"/><path class="cls-1" d="M145.19,323.08h1.61v1.79h-1.61Zm0,3.54h1.61V336h-1.61Z"/><path class="cls-1" d="M149.06,323h1.54v4.69a3.53,3.53,0,0,1,1.24-1,3.61,3.61,0,0,1,1.57-.35,3.66,3.66,0,0,1,2.86,1.21,5.08,5.08,0,0,1,1.1,3.56,6.11,6.11,0,0,1-1.08,3.71,3.55,3.55,0,0,1-3,1.48,3.15,3.15,0,0,1-1.82-.52,4.53,4.53,0,0,1-.94-1V336h-1.46Zm6.05,10.84a5.07,5.07,0,0,0,.64-2.69,4.45,4.45,0,0,0-.64-2.46,2.13,2.13,0,0,0-1.89-1,2.66,2.66,0,0,0-1.9.8,3.63,3.63,0,0,0-.81,2.64,5.89,5.89,0,0,0,.33,2.15,2.32,2.32,0,0,0,2.34,1.56A2.13,2.13,0,0,0,155.11,333.87Z"/><path class="cls-1" d="M159.2,323.08h1.61v1.79H159.2Zm0,3.54h1.61V336H159.2Z"/><path class="cls-1" d="M163.24,323.08h1.59V336h-1.59Z"/><path class="cls-1" d="M167.2,323.08h1.61v1.79H167.2Zm0,3.54h1.61V336H167.2Z"/><path class="cls-1" d="M170.49,334.74l5.59-6.75h-5.17v-1.42h7.3v1.3l-5.55,6.7h5.72V336h-7.89Z"/><path class="cls-1" d="M186,326.83a3.68,3.68,0,0,1,1.43,1.22,4.24,4.24,0,0,1,.62,1.66,10.48,10.48,0,0,1,.14,2.08h-6.84a4.07,4.07,0,0,0,.67,2.3A2.24,2.24,0,0,0,184,335a2.51,2.51,0,0,0,2-.82,3,3,0,0,0,.58-1.11h1.55a3.25,3.25,0,0,1-.41,1.16,4.13,4.13,0,0,1-.77,1,3.64,3.64,0,0,1-1.77.95,5.58,5.58,0,0,1-1.28.14,3.88,3.88,0,0,1-3-1.28,5,5,0,0,1-1.22-3.58,5.45,5.45,0,0,1,1.22-3.68,4,4,0,0,1,3.2-1.42A4.26,4.26,0,0,1,186,326.83Zm.57,3.7a4.06,4.06,0,0,0-.45-1.64,2.26,2.26,0,0,0-2.15-1.15,2.39,2.39,0,0,0-1.81.79,3,3,0,0,0-.78,2Z"/><path class="cls-1" d="M195.21,326.57h1.56v1.34a5.6,5.6,0,0,1,1-1,3.07,3.07,0,0,1,1.78-.54,2.8,2.8,0,0,1,1.81.56,2.83,2.83,0,0,1,.7.93,3.45,3.45,0,0,1,1.24-1.12,3.52,3.52,0,0,1,1.6-.37,2.6,2.6,0,0,1,2.58,1.37,4.47,4.47,0,0,1,.37,2V336h-1.64v-6.54a1.52,1.52,0,0,0-.47-1.29,1.83,1.83,0,0,0-1.15-.35,2.25,2.25,0,0,0-1.6.62,2.74,2.74,0,0,0-.67,2.08V336h-1.61v-6.15a3.2,3.2,0,0,0-.23-1.39,1.39,1.39,0,0,0-1.34-.66,2.31,2.31,0,0,0-1.63.69,3.4,3.4,0,0,0-.74,2.52v5h-1.58Z"/><path class="cls-1" d="M215.25,330.29a.88.88,0,0,0,.73-.46,1.38,1.38,0,0,0,.1-.6,1.3,1.3,0,0,0-.57-1.18,3,3,0,0,0-1.65-.37,2.09,2.09,0,0,0-1.75.67,2.29,2.29,0,0,0-.38,1.11h-1.47a2.72,2.72,0,0,1,1.12-2.43,4.62,4.62,0,0,1,2.52-.68,5.13,5.13,0,0,1,2.69.63,2.14,2.14,0,0,1,1,2v5.42a.68.68,0,0,0,.1.4.49.49,0,0,0,.43.15l.24,0,.28,0V336a3.49,3.49,0,0,1-.57.13,3.45,3.45,0,0,1-.52,0,1.3,1.3,0,0,1-1.19-.58,2.23,2.23,0,0,1-.27-.87,4.06,4.06,0,0,1-1.39,1.1,4.3,4.3,0,0,1-2,.46,3,3,0,0,1-2.14-.79,2.65,2.65,0,0,1-.83-2,2.58,2.58,0,0,1,.82-2,3.89,3.89,0,0,1,2.15-.88Zm-3.33,4.27a1.81,1.81,0,0,0,1.18.4,3.58,3.58,0,0,0,1.62-.39,2.16,2.16,0,0,0,1.32-2.09V331.2a2.39,2.39,0,0,1-.75.31,7.39,7.39,0,0,1-.89.18l-1,.12a3.88,3.88,0,0,0-1.29.36,1.4,1.4,0,0,0-.73,1.32A1.27,1.27,0,0,0,211.92,334.56Z"/><path class="cls-1" d="M220.53,324h1.6v2.62h1.5v1.3h-1.5V334a.67.67,0,0,0,.33.66,1.52,1.52,0,0,0,.62.1h.25l.3,0V336a3.47,3.47,0,0,1-.56.11,4.31,4.31,0,0,1-.64,0,1.7,1.7,0,0,1-1.5-.57,2.48,2.48,0,0,1-.4-1.47v-6.23h-1.27v-1.3h1.27Z"/><path class="cls-1" d="M231,326.83a3.57,3.57,0,0,1,1.42,1.22,4.1,4.1,0,0,1,.63,1.66,11.32,11.32,0,0,1,.14,2.08h-6.84a4,4,0,0,0,.67,2.3A2.22,2.22,0,0,0,229,335a2.49,2.49,0,0,0,2-.82,2.69,2.69,0,0,0,.58-1.11h1.56a3.25,3.25,0,0,1-.41,1.16,4.13,4.13,0,0,1-.77,1,3.64,3.64,0,0,1-1.77.95,5.6,5.6,0,0,1-1.29.14,3.91,3.91,0,0,1-3-1.28,5,5,0,0,1-1.21-3.58,5.45,5.45,0,0,1,1.22-3.68,4,4,0,0,1,3.2-1.42A4.29,4.29,0,0,1,231,326.83Zm.57,3.7a4.22,4.22,0,0,0-.45-1.64,2.27,2.27,0,0,0-2.15-1.15,2.38,2.38,0,0,0-1.81.79,3,3,0,0,0-.78,2Z"/><path class="cls-1" d="M235.27,326.57h1.5v1.63a3.77,3.77,0,0,1,.91-1.16,2.35,2.35,0,0,1,1.66-.68h.15l.36,0v1.67l-.26,0h-.26a2.27,2.27,0,0,0-1.84.77,2.75,2.75,0,0,0-.64,1.77V336h-1.58Z"/><path class="cls-1" d="M241.22,323.08h1.61v1.79h-1.61Zm0,3.54h1.61V336h-1.61Z"/><path class="cls-1" d="M250.26,330.29a.85.85,0,0,0,.73-.46,1.37,1.37,0,0,0,.11-.6,1.28,1.28,0,0,0-.58-1.18,3,3,0,0,0-1.64-.37,2.12,2.12,0,0,0-1.76.67,2.3,2.3,0,0,0-.37,1.11h-1.48A2.73,2.73,0,0,1,246.4,327a4.56,4.56,0,0,1,2.51-.68,5.14,5.14,0,0,1,2.7.63,2.16,2.16,0,0,1,1,2v5.42a.68.68,0,0,0,.1.4c.06.1.21.15.42.15l.24,0,.28,0V336a3.21,3.21,0,0,1-.56.13,3.6,3.6,0,0,1-.53,0,1.28,1.28,0,0,1-1.18-.58,2.4,2.4,0,0,1-.28-.87,4,4,0,0,1-1.38,1.1,4.33,4.33,0,0,1-2,.46,3,3,0,0,1-2.14-.79,2.65,2.65,0,0,1-.83-2,2.55,2.55,0,0,1,.82-2,3.86,3.86,0,0,1,2.14-.88Zm-3.33,4.27a1.84,1.84,0,0,0,1.19.4,3.61,3.61,0,0,0,1.62-.39,2.15,2.15,0,0,0,1.31-2.09V331.2a2.42,2.42,0,0,1-.74.31,7.54,7.54,0,0,1-.9.18l-.95.12a3.81,3.81,0,0,0-1.29.36,1.41,1.41,0,0,0-.74,1.32A1.3,1.3,0,0,0,246.93,334.56Z"/><path class="cls-1" d="M255.23,323.08h1.61v1.79h-1.61Zm0,3.54h1.61V336h-1.61Z"/><path class="cls-1" d="M260.17,333a2.31,2.31,0,0,0,.4,1.22,2.57,2.57,0,0,0,2.12.76,3.24,3.24,0,0,0,1.58-.38,1.27,1.27,0,0,0,.68-1.18,1,1,0,0,0-.54-.93,7.74,7.74,0,0,0-1.38-.44l-1.28-.32a6.14,6.14,0,0,1-1.8-.67,2,2,0,0,1-1-1.77,2.73,2.73,0,0,1,1-2.17,3.92,3.92,0,0,1,2.62-.82,3.65,3.65,0,0,1,3.11,1.25,2.66,2.66,0,0,1,.58,1.7h-1.5a1.86,1.86,0,0,0-.38-1,2.53,2.53,0,0,0-1.94-.62A2.36,2.36,0,0,0,261,328a1.08,1.08,0,0,0-.47.9,1.13,1.13,0,0,0,.62,1,3.94,3.94,0,0,0,1.06.38l1.06.26a8,8,0,0,1,2.33.8,2.1,2.1,0,0,1,.92,1.9,2.89,2.89,0,0,1-1,2.17,4.14,4.14,0,0,1-2.94.92,4,4,0,0,1-3-1,3.56,3.56,0,0,1-1-2.36Z"/><path class="cls-1" d="M89,347.62h1.55v1.25a3.77,3.77,0,0,1,1-1,3.34,3.34,0,0,1,1.88-.52,3.52,3.52,0,0,1,2.72,1.22,5,5,0,0,1,1.12,3.5c0,2.06-.54,3.52-1.61,4.4a3.64,3.64,0,0,1-2.38.83,3.28,3.28,0,0,1-1.8-.46,4.31,4.31,0,0,1-.94-.91v4.81H89ZM95,355a4.43,4.43,0,0,0,.74-2.78,5.09,5.09,0,0,0-.33-1.93,2.39,2.39,0,0,0-4.51.09,6.4,6.4,0,0,0-.33,2.23,4.69,4.69,0,0,0,.33,1.86A2.41,2.41,0,0,0,95,355Z"/><path class="cls-1" d="M104.22,351.29a.88.88,0,0,0,.73-.46,1.38,1.38,0,0,0,.1-.6,1.3,1.3,0,0,0-.57-1.18,3.06,3.06,0,0,0-1.65-.37,2.09,2.09,0,0,0-1.75.67,2.19,2.19,0,0,0-.38,1.11H99.22a2.73,2.73,0,0,1,1.13-2.43,4.57,4.57,0,0,1,2.52-.68,5.13,5.13,0,0,1,2.69.63,2.14,2.14,0,0,1,1,2v5.42a.68.68,0,0,0,.1.4.49.49,0,0,0,.43.15l.23,0,.28,0V357a3.21,3.21,0,0,1-.56.13,3.6,3.6,0,0,1-.53,0,1.28,1.28,0,0,1-1.18-.58,2.23,2.23,0,0,1-.27-.87,4.16,4.16,0,0,1-1.39,1.1,4.33,4.33,0,0,1-2,.46,3,3,0,0,1-2.14-.79,2.65,2.65,0,0,1-.83-2,2.55,2.55,0,0,1,.82-2,3.86,3.86,0,0,1,2.14-.88Zm-3.34,4.27a1.84,1.84,0,0,0,1.19.4,3.58,3.58,0,0,0,1.62-.39,2.16,2.16,0,0,0,1.32-2.09V352.2a2.49,2.49,0,0,1-.75.31,7.39,7.39,0,0,1-.89.18l-1,.12a3.88,3.88,0,0,0-1.29.36,1.41,1.41,0,0,0-.74,1.32A1.3,1.3,0,0,0,100.88,355.56Z"/><path class="cls-1" d="M109.23,347.57h1.5v1.63a3.55,3.55,0,0,1,.9-1.16,2.37,2.37,0,0,1,1.66-.68h.15l.36,0v1.67l-.26,0h-.25a2.27,2.27,0,0,0-1.84.77,2.7,2.7,0,0,0-.64,1.77V357h-1.58Z"/><path class="cls-1" d="M120.22,351.29a.86.86,0,0,0,.73-.46,1.37,1.37,0,0,0,.11-.6,1.3,1.3,0,0,0-.58-1.18,3,3,0,0,0-1.64-.37,2.12,2.12,0,0,0-1.76.67,2.2,2.2,0,0,0-.37,1.11h-1.48a2.7,2.7,0,0,1,1.13-2.43,4.56,4.56,0,0,1,2.51-.68,5.14,5.14,0,0,1,2.7.63,2.15,2.15,0,0,1,1,2v5.42a.68.68,0,0,0,.11.4q.09.15.42.15l.24,0,.28,0V357a3.42,3.42,0,0,1-.56.13,3.7,3.7,0,0,1-.53,0,1.3,1.3,0,0,1-1.19-.58,2.23,2.23,0,0,1-.27-.87,4,4,0,0,1-1.39,1.1,4.29,4.29,0,0,1-2,.46,3,3,0,0,1-2.14-.79,2.61,2.61,0,0,1-.83-2,2.58,2.58,0,0,1,.81-2,3.89,3.89,0,0,1,2.15-.88Zm-3.33,4.27a1.82,1.82,0,0,0,1.19.4,3.57,3.57,0,0,0,1.61-.39,2.16,2.16,0,0,0,1.32-2.09V352.2a2.42,2.42,0,0,1-.74.31,8,8,0,0,1-.9.18l-1,.12a3.88,3.88,0,0,0-1.3.36,1.4,1.4,0,0,0-.73,1.32A1.3,1.3,0,0,0,116.89,355.56Z"/><path class="cls-1" d="M135.36,347.86a4.26,4.26,0,0,1,.95.93V344h1.52v13h-1.42v-1.31a3.46,3.46,0,0,1-1.3,1.26,3.86,3.86,0,0,1-1.73.38,3.48,3.48,0,0,1-2.71-1.32,5.16,5.16,0,0,1-1.15-3.52,6.06,6.06,0,0,1,1-3.56,3.4,3.4,0,0,1,3-1.51A3.36,3.36,0,0,1,135.36,347.86Zm-3.53,7.06a2.23,2.23,0,0,0,2,1,2.15,2.15,0,0,0,1.8-.94,4.48,4.48,0,0,0,.71-2.71,4.09,4.09,0,0,0-.73-2.65,2.25,2.25,0,0,0-1.79-.85,2.35,2.35,0,0,0-1.93.91,4.23,4.23,0,0,0-.74,2.69A4.64,4.64,0,0,0,131.83,354.92Z"/><path class="cls-1" d="M147,348.51a4.77,4.77,0,0,1,1.25,3.57,6.16,6.16,0,0,1-1.1,3.76,4,4,0,0,1-3.42,1.48,3.86,3.86,0,0,1-3.06-1.31,5.2,5.2,0,0,1-1.13-3.53,5.64,5.64,0,0,1,1.19-3.77A4,4,0,0,1,144,347.3,4.25,4.25,0,0,1,147,348.51Zm-1,6.26a6.06,6.06,0,0,0,.57-2.65,4.75,4.75,0,0,0-.41-2.14,2.35,2.35,0,0,0-2.28-1.3,2.25,2.25,0,0,0-2.09,1.11,5.23,5.23,0,0,0-.65,2.67,4.53,4.53,0,0,0,.65,2.5,2.3,2.3,0,0,0,2.07,1A2.17,2.17,0,0,0,146,354.77Z"/><path class="cls-1" d="M150.94,347.57l1.81,7.42,1.84-7.42h1.78l1.84,7.38,1.93-7.38h1.58L159,357h-1.64l-1.91-7.29L153.57,357h-1.64l-2.72-9.42Z"/><path class="cls-1" d="M163.21,347.57h1.5v1.34a4.28,4.28,0,0,1,1.42-1.19,3.74,3.74,0,0,1,1.66-.36,2.73,2.73,0,0,1,2.7,1.4,4.93,4.93,0,0,1,.39,2.19v6h-1.61v-5.93a3.2,3.2,0,0,0-.25-1.39,1.54,1.54,0,0,0-1.53-.88,3.3,3.3,0,0,0-.92.11,2.57,2.57,0,0,0-1.66,1.74,6.38,6.38,0,0,0-.12,1.42V357h-1.58Z"/><path class="cls-1" d="M173.26,344.08h1.58V357h-1.58Z"/><path class="cls-1" d="M184,348.51a4.77,4.77,0,0,1,1.25,3.57,6.16,6.16,0,0,1-1.1,3.76,4,4,0,0,1-3.42,1.48,3.86,3.86,0,0,1-3.06-1.31,5.2,5.2,0,0,1-1.13-3.53,5.59,5.59,0,0,1,1.19-3.77A4,4,0,0,1,181,347.3,4.25,4.25,0,0,1,184,348.51Zm-1,6.26a6.06,6.06,0,0,0,.57-2.65,4.75,4.75,0,0,0-.41-2.14,2.35,2.35,0,0,0-2.28-1.3,2.25,2.25,0,0,0-2.09,1.11,5.23,5.23,0,0,0-.65,2.67,4.53,4.53,0,0,0,.65,2.5,2.3,2.3,0,0,0,2.07,1A2.17,2.17,0,0,0,183.06,354.77Z"/><path class="cls-1" d="M192.27,351.29a.85.85,0,0,0,.73-.46,1.37,1.37,0,0,0,.11-.6,1.28,1.28,0,0,0-.58-1.18,3,3,0,0,0-1.64-.37,2.12,2.12,0,0,0-1.76.67,2.3,2.3,0,0,0-.37,1.11h-1.48a2.73,2.73,0,0,1,1.13-2.43,4.56,4.56,0,0,1,2.51-.68,5.14,5.14,0,0,1,2.7.63,2.16,2.16,0,0,1,1,2v5.42a.68.68,0,0,0,.1.4c.06.1.21.15.42.15l.24,0,.28,0V357a3.21,3.21,0,0,1-.56.13,3.6,3.6,0,0,1-.53,0,1.28,1.28,0,0,1-1.18-.58,2.4,2.4,0,0,1-.28-.87,4,4,0,0,1-1.39,1.1,4.26,4.26,0,0,1-2,.46,3,3,0,0,1-2.14-.79,2.65,2.65,0,0,1-.83-2,2.55,2.55,0,0,1,.82-2,3.86,3.86,0,0,1,2.14-.88Zm-3.33,4.27a1.84,1.84,0,0,0,1.19.4,3.61,3.61,0,0,0,1.62-.39,2.16,2.16,0,0,0,1.31-2.09V352.2a2.42,2.42,0,0,1-.74.31,7.54,7.54,0,0,1-.9.18l-.95.12a3.81,3.81,0,0,0-1.29.36,1.41,1.41,0,0,0-.74,1.32A1.3,1.3,0,0,0,188.94,355.56Z"/><path class="cls-1" d="M202.41,347.86a4.49,4.49,0,0,1,1,.93V344h1.52v13h-1.43v-1.31a3.46,3.46,0,0,1-1.3,1.26,3.83,3.83,0,0,1-1.73.38,3.48,3.48,0,0,1-2.71-1.32,5.16,5.16,0,0,1-1.15-3.52,6.06,6.06,0,0,1,1.05-3.56,3.41,3.41,0,0,1,3-1.51A3.34,3.34,0,0,1,202.41,347.86Zm-3.53,7.06a2.23,2.23,0,0,0,2.05,1,2.15,2.15,0,0,0,1.79-.94,4.48,4.48,0,0,0,.71-2.71,4.09,4.09,0,0,0-.73-2.65,2.25,2.25,0,0,0-1.79-.85,2.36,2.36,0,0,0-1.93.91,4.23,4.23,0,0,0-.74,2.69A4.64,4.64,0,0,0,198.88,354.92Z"/><path class="cls-1" d="M51.37,345.79a1.59,1.59,0,0,1,0,2.25l-6.24,6.25-.14.11a1.47,1.47,0,0,1-.65.32h0a1.3,1.3,0,0,1-.64,0h-.06l-.24-.08h0a1.58,1.58,0,0,1-.48-.33L36.62,348a1.59,1.59,0,0,1,2.25-2.25l3.54,3.55V336.81a1.59,1.59,0,0,1,3.18,0v12.52l3.54-3.54A1.58,1.58,0,0,1,51.37,345.79Zm13-15.19v32a4.5,4.5,0,0,1-4.49,4.49H28.15a4.49,4.49,0,0,1-4.49-4.49v-41a4.49,4.49,0,0,1,4.49-4.49h23a1.69,1.69,0,0,1,.63.13h0a1.65,1.65,0,0,1,.26.14l0,0a1.37,1.37,0,0,1,.18.16h0l11.56,11.88h0v0l.06.08a.79.79,0,0,1,.12.15.55.55,0,0,1,.08.15.75.75,0,0,1,.07.12,1.21,1.21,0,0,1,0,.18s0,.07,0,.12,0,.13,0,.2,0,.07,0,.1h0v0Zm-3.18,1.56h-10a1.59,1.59,0,0,1-1.59-1.59v-10.3H28.15a1.31,1.31,0,0,0-1.31,1.31v41a1.31,1.31,0,0,0,1.31,1.31h31.7a1.31,1.31,0,0,0,1.31-1.31ZM59,329l-6.23-6.39V329Z"/><path class="cls-1" d="M36.49,185.29l15.25-.11v1.6l-15.25.12ZM57,181.52l-25.79.2,0,1.6L57,183.13Zm-7.71,13.71a5.43,5.43,0,1,0-5.38,5.46A5.42,5.42,0,0,0,49.27,195.23Zm2.53,1.87-7.89,6.33L48.35,209l2-5.53,5.83-.8Zm-21.87,2.67,5.52,2,.81,5.83,5.52-4.43-6.33-7.88Zm41.29-28.6-54.72.41.28,37.28L33,208.67h.29L33,205.72l-13.26.17-.24-31.38,48.83-.37.24,31.38-15.41.19L52,208.66l19.25-.22h.27Z"/><path class="cls-1" d="M66.89,28.75H68v-3a2.16,2.16,0,0,0-2.09-2.21H16.09A2.16,2.16,0,0,0,14,25.69v3h1a1.66,1.66,0,0,1,1.63,1.46,1.63,1.63,0,0,1-1.57,1.87H14s0,0,0,0v4.68l0,0h1a1.66,1.66,0,0,1,1.63,1.46,1.63,1.63,0,0,1-1.57,1.87H14s0,0,0,0v4.68l0,0h1a1.66,1.66,0,0,1,1.63,1.46,1.63,1.63,0,0,1-1.57,1.87H14s0,0,0,0v3a2.15,2.15,0,0,0,2.09,2.2H65.86A2.15,2.15,0,0,0,68,51.22v-3s0,0,0,0H67a1.67,1.67,0,0,1-.07-3.33h1l0,0V40.13s0,0,0,0H67a1.67,1.67,0,0,1-.07-3.33h1l0,0V32.09s0,0,0,0H67a1.67,1.67,0,0,1-.07-3.33Zm-3.68,1.66a3.85,3.85,0,0,0,2.62,3.72s0,0,0,0v.57s0,0,0,0a3.94,3.94,0,0,0,0,7.43s0,0,0,0v.57s0,0,0,0a3.94,3.94,0,0,0,0,7.43h0v1s0,0,0,0H16.12s0,0,0,0v-1h0a3.94,3.94,0,0,0,0-7.43s0,0,0,0v-.57s0,0,0,0a3.94,3.94,0,0,0,0-7.43s0,0,0,0v-.57s0,0,0,0a3.94,3.94,0,0,0,0-7.43s0,0,0,0v-1s0,0,0,0H65.83s0,0,0,0v1s0,0,0,0A3.85,3.85,0,0,0,63.21,30.41Z"/></svg>