<svg id="Camada_1" data-name="Camada 1" xmlns="http://www.w3.org/2000/svg" viewBox="0 0 300 380"><defs><style>.cls-1{fill:#fff;}</style></defs><title>passeios</title><path class="cls-1" d="M89.77,32h1.76V44.93H89.77Z"/><path class="cls-1" d="M94.16,35.51h1.5v1.34a4.28,4.28,0,0,1,1.42-1.19,3.78,3.78,0,0,1,1.66-.36,2.75,2.75,0,0,1,2.71,1.4,5,5,0,0,1,.38,2.19v6h-1.6V39A3.25,3.25,0,0,0,100,37.6a1.55,1.55,0,0,0-1.53-.87,3,3,0,0,0-.92.11,2.4,2.4,0,0,0-1.14.77,2.31,2.31,0,0,0-.52,1A6.38,6.38,0,0,0,95.74,40v4.93H94.16Z"/><path class="cls-1" d="M109.41,35.89a4.78,4.78,0,0,1,.91.9V35.6h1.45v8.56a6.33,6.33,0,0,1-.52,2.83,3.78,3.78,0,0,1-3.71,1.92,4.57,4.57,0,0,1-2.55-.68,2.69,2.69,0,0,1-1.15-2.13h1.61a1.73,1.73,0,0,0,.45,1,2.33,2.33,0,0,0,1.68.53A2.3,2.3,0,0,0,110,46.31a7.22,7.22,0,0,0,.3-2.69,3.11,3.11,0,0,1-1.13,1.07,3.85,3.85,0,0,1-1.76.35A3.76,3.76,0,0,1,104.69,44a4.83,4.83,0,0,1-1.14-3.6,5.45,5.45,0,0,1,1.15-3.69,3.56,3.56,0,0,1,2.78-1.32A3.46,3.46,0,0,1,109.41,35.89Zm.19,1.7a2.28,2.28,0,0,0-1.83-.85,2.26,2.26,0,0,0-2.27,1.57,6,6,0,0,0-.33,2.19,3.9,3.9,0,0,0,.65,2.42,2.07,2.07,0,0,0,1.72.83,2.42,2.42,0,0,0,2.39-1.54,4.93,4.93,0,0,0,.39-2A3.91,3.91,0,0,0,109.6,37.59Z"/><path class="cls-1" d="M114.23,35.51h1.5v1.63a3.55,3.55,0,0,1,.9-1.16,2.4,2.4,0,0,1,1.67-.68h.15l.36,0V37l-.26,0h-.26a2.27,2.27,0,0,0-1.84.77,2.66,2.66,0,0,0-.64,1.77v5.42h-1.58Z"/><path class="cls-1" d="M126,35.77A3.68,3.68,0,0,1,127.42,37a4.18,4.18,0,0,1,.62,1.66,10.42,10.42,0,0,1,.14,2.08h-6.84A4.07,4.07,0,0,0,122,43a2.24,2.24,0,0,0,1.94.87,2.54,2.54,0,0,0,2-.82A3,3,0,0,0,126.5,42h1.55a3.31,3.31,0,0,1-.41,1.16,4.32,4.32,0,0,1-.77,1,3.64,3.64,0,0,1-1.77.95,5.58,5.58,0,0,1-1.28.14,4,4,0,0,1-3-1.28,5,5,0,0,1-1.21-3.58,5.45,5.45,0,0,1,1.22-3.68,4,4,0,0,1,3.2-1.42A4.29,4.29,0,0,1,126,35.77Zm.57,3.7a4.11,4.11,0,0,0-.45-1.65A2.27,2.27,0,0,0,124,36.68a2.36,2.36,0,0,0-1.81.79,3,3,0,0,0-.78,2Z"/><path class="cls-1" d="M131.13,42a2.35,2.35,0,0,0,.4,1.22,2.57,2.57,0,0,0,2.12.76,3.24,3.24,0,0,0,1.58-.38,1.28,1.28,0,0,0,.68-1.18,1,1,0,0,0-.55-.93A6.59,6.59,0,0,0,134,41l-1.28-.32a6.14,6.14,0,0,1-1.8-.67,2,2,0,0,1-1-1.77,2.7,2.7,0,0,1,1-2.17,3.92,3.92,0,0,1,2.62-.82,3.65,3.65,0,0,1,3.11,1.25,2.66,2.66,0,0,1,.58,1.7h-1.5a1.82,1.82,0,0,0-.38-1,2.55,2.55,0,0,0-1.94-.62A2.36,2.36,0,0,0,132,37a1.08,1.08,0,0,0-.47.9,1.1,1.1,0,0,0,.62,1,3.59,3.59,0,0,0,1.06.39l1.06.25a8.71,8.71,0,0,1,2.33.8,2.11,2.11,0,0,1,.92,1.91,2.89,2.89,0,0,1-1,2.17,4.16,4.16,0,0,1-2.94.92,4,4,0,0,1-3-1,3.55,3.55,0,0,1-.94-2.36Z"/><path class="cls-1" d="M140.13,42a2.35,2.35,0,0,0,.4,1.22,2.57,2.57,0,0,0,2.12.76,3.24,3.24,0,0,0,1.58-.38,1.28,1.28,0,0,0,.68-1.18,1,1,0,0,0-.55-.93A6.59,6.59,0,0,0,143,41l-1.28-.32a6.14,6.14,0,0,1-1.8-.67,2,2,0,0,1-1-1.77,2.7,2.7,0,0,1,1-2.17,3.92,3.92,0,0,1,2.62-.82,3.65,3.65,0,0,1,3.11,1.25,2.66,2.66,0,0,1,.58,1.7h-1.5a1.82,1.82,0,0,0-.38-1,2.55,2.55,0,0,0-1.94-.62A2.36,2.36,0,0,0,141,37a1.08,1.08,0,0,0-.47.9,1.1,1.1,0,0,0,.62,1,3.59,3.59,0,0,0,1.06.39l1.06.25a8.71,8.71,0,0,1,2.33.8,2.11,2.11,0,0,1,.92,1.91,2.89,2.89,0,0,1-1,2.17,4.16,4.16,0,0,1-2.94.92,4,4,0,0,1-3-1,3.55,3.55,0,0,1-.94-2.36Z"/><path class="cls-1" d="M155,36.45A4.77,4.77,0,0,1,156.26,40a6.18,6.18,0,0,1-1.1,3.76,4,4,0,0,1-3.42,1.48A3.86,3.86,0,0,1,148.68,44a5.2,5.2,0,0,1-1.13-3.53,5.59,5.59,0,0,1,1.19-3.77A4,4,0,0,1,152,35.24,4.21,4.21,0,0,1,155,36.45Zm-1,6.26a6.06,6.06,0,0,0,.57-2.65,4.86,4.86,0,0,0-.41-2.14,2.34,2.34,0,0,0-2.28-1.3,2.25,2.25,0,0,0-2.09,1.11,5.18,5.18,0,0,0-.65,2.67,4.53,4.53,0,0,0,.65,2.5,2.32,2.32,0,0,0,2.07,1A2.17,2.17,0,0,0,154,42.71Z"/><path class="cls-1" d="M163.2,35.51h1.56v1.34a5.6,5.6,0,0,1,1-1,3.07,3.07,0,0,1,1.78-.54,2.8,2.8,0,0,1,1.81.56,2.83,2.83,0,0,1,.7.93,3.36,3.36,0,0,1,1.24-1.12,3.4,3.4,0,0,1,1.6-.37,2.63,2.63,0,0,1,2.59,1.37,4.63,4.63,0,0,1,.36,2v6.27h-1.64V38.39a1.52,1.52,0,0,0-.47-1.29,1.84,1.84,0,0,0-1.15-.36,2.26,2.26,0,0,0-1.6.63,2.72,2.72,0,0,0-.67,2.08v5.48h-1.61V38.78a3.17,3.17,0,0,0-.23-1.39,1.39,1.39,0,0,0-1.34-.66,2.31,2.31,0,0,0-1.63.69,3.39,3.39,0,0,0-.74,2.51v5H163.2Z"/><path class="cls-1" d="M179.78,35.51v6.25a2.67,2.67,0,0,0,.22,1.18,1.54,1.54,0,0,0,1.53.84,2.17,2.17,0,0,0,2.19-1.47,6,6,0,0,0,.32-2.17V35.51h1.58v9.42h-1.49V43.54a3,3,0,0,1-.75.9,3.21,3.21,0,0,1-2.15.74,2.76,2.76,0,0,1-2.69-1.34,4.08,4.08,0,0,1-.39-1.93v-6.4Zm4.06-3.78-2.35,2.54h-1.21l1.6-2.54Z"/><path class="cls-1" d="M188.25,32h1.58V44.93h-1.58Z"/><path class="cls-1" d="M192.52,32.89h1.6v2.62h1.5v1.3h-1.5V43a.67.67,0,0,0,.33.66,1.55,1.55,0,0,0,.62.09h.24l.31,0v1.26a3.38,3.38,0,0,1-.57.11,5.9,5.9,0,0,1-.63,0,1.7,1.7,0,0,1-1.5-.57,2.48,2.48,0,0,1-.4-1.47V36.81h-1.27v-1.3h1.27Z"/><path class="cls-1" d="M197.2,32h1.61v1.79H197.2Zm0,3.54h1.61v9.37H197.2Z"/><path class="cls-1" d="M201.07,35.56h1.55v1.25a3.91,3.91,0,0,1,1-1,3.34,3.34,0,0,1,1.88-.53,3.56,3.56,0,0,1,2.73,1.23,5.06,5.06,0,0,1,1.12,3.5q0,3.08-1.62,4.4a3.67,3.67,0,0,1-2.38.83,3.24,3.24,0,0,1-1.79-.46,4.32,4.32,0,0,1-.95-.91v4.81h-1.58Zm6,7.38a4.43,4.43,0,0,0,.74-2.78,5.09,5.09,0,0,0-.33-1.93,2.39,2.39,0,0,0-4.51.09,6.4,6.4,0,0,0-.33,2.23,4.64,4.64,0,0,0,.33,1.85,2.24,2.24,0,0,0,2.26,1.46A2.27,2.27,0,0,0,207,42.94Z"/><path class="cls-1" d="M211.26,32h1.58V44.93h-1.58Z"/><path class="cls-1" d="M222,36.45A4.73,4.73,0,0,1,223.28,40a6.12,6.12,0,0,1-1.1,3.76,4,4,0,0,1-3.41,1.48A3.83,3.83,0,0,1,215.71,44a5.2,5.2,0,0,1-1.14-3.53,5.59,5.59,0,0,1,1.2-3.77A4,4,0,0,1,219,35.24,4.2,4.2,0,0,1,222,36.45Zm-1,6.26a5.92,5.92,0,0,0,.58-2.65,4.71,4.71,0,0,0-.42-2.14,2.34,2.34,0,0,0-2.28-1.3,2.23,2.23,0,0,0-2.08,1.11,5.08,5.08,0,0,0-.65,2.67,4.45,4.45,0,0,0,.65,2.5,2.29,2.29,0,0,0,2.07,1A2.15,2.15,0,0,0,221.05,42.71Z"/><path class="cls-1" d="M89.58,97.36h5.87a5.71,5.71,0,0,1,2.39.43,3.06,3.06,0,0,1,1.79,3,3.41,3.41,0,0,1-.48,1.9,3.53,3.53,0,0,1-1.34,1.19,2.61,2.61,0,0,1,1.14.81,2.92,2.92,0,0,1,.42,1.62l.06,1.73a5.05,5.05,0,0,0,.13,1.1,1,1,0,0,0,.56.79v.29H98a1.36,1.36,0,0,1-.14-.43,6.6,6.6,0,0,1-.09-1l-.11-2.15a1.83,1.83,0,0,0-.91-1.7,3.71,3.71,0,0,0-1.53-.23H91.33v5.53H89.58Zm5.68,5.92a3.24,3.24,0,0,0,1.9-.5,2,2,0,0,0,.69-1.77,1.91,1.91,0,0,0-1-1.88,3,3,0,0,0-1.39-.27H91.33v4.42Z"/><path class="cls-1" d="M108,101.12a3.53,3.53,0,0,1,1.43,1.22A4.29,4.29,0,0,1,110,104a11.12,11.12,0,0,1,.14,2.07h-6.85a4.08,4.08,0,0,0,.67,2.31,2.27,2.27,0,0,0,2,.86,2.5,2.5,0,0,0,2-.82,2.84,2.84,0,0,0,.58-1.1H110a3.27,3.27,0,0,1-.4,1.16,4.35,4.35,0,0,1-.78,1,3.72,3.72,0,0,1-1.77,1,5.58,5.58,0,0,1-1.28.14,3.93,3.93,0,0,1-3-1.28,5,5,0,0,1-1.22-3.58,5.43,5.43,0,0,1,1.23-3.69,4,4,0,0,1,3.19-1.41A4.26,4.26,0,0,1,108,101.12Zm.57,3.69a4.11,4.11,0,0,0-.44-1.64,2.28,2.28,0,0,0-2.16-1.14,2.38,2.38,0,0,0-1.81.78,3,3,0,0,0-.78,2Z"/><path class="cls-1" d="M117.4,101.24a4.19,4.19,0,0,1,.91.89V101h1.46v8.56a6.35,6.35,0,0,1-.52,2.83,3.77,3.77,0,0,1-3.71,1.91,4.49,4.49,0,0,1-2.55-.68,2.63,2.63,0,0,1-1.15-2.13h1.6a1.84,1.84,0,0,0,.46,1,2.89,2.89,0,0,0,4-.76,7.25,7.25,0,0,0,.3-2.7,3.09,3.09,0,0,1-1.14,1.08,3.82,3.82,0,0,1-1.76.35,3.76,3.76,0,0,1-2.66-1.09,4.79,4.79,0,0,1-1.14-3.59A5.42,5.42,0,0,1,112.7,102a3.52,3.52,0,0,1,2.78-1.33A3.35,3.35,0,0,1,117.4,101.24Zm.2,1.69a2.3,2.3,0,0,0-1.83-.84,2.24,2.24,0,0,0-2.27,1.56,6.08,6.08,0,0,0-.33,2.19,3.94,3.94,0,0,0,.64,2.42,2.07,2.07,0,0,0,1.73.83,2.43,2.43,0,0,0,2.39-1.53,4.94,4.94,0,0,0,.38-2A4,4,0,0,0,117.6,102.93Z"/><path class="cls-1" d="M122.18,97.36h1.61v1.79h-1.61Zm0,3.54h1.61v9.37h-1.61Z"/><path class="cls-1" d="M127.12,107.32a2.28,2.28,0,0,0,.4,1.21,2.58,2.58,0,0,0,2.12.77,3.14,3.14,0,0,0,1.58-.39,1.26,1.26,0,0,0,.68-1.18,1,1,0,0,0-.54-.92,6.58,6.58,0,0,0-1.38-.45L128.7,106a6.3,6.3,0,0,1-1.8-.66,2,2,0,0,1-1-1.78,2.7,2.7,0,0,1,1-2.16,3.92,3.92,0,0,1,2.62-.83,3.68,3.68,0,0,1,3.11,1.25,2.7,2.7,0,0,1,.58,1.71h-1.49a1.76,1.76,0,0,0-.39-1,2.5,2.5,0,0,0-1.94-.62,2.36,2.36,0,0,0-1.39.34,1.06,1.06,0,0,0-.47.9,1.12,1.12,0,0,0,.62,1,3.9,3.9,0,0,0,1.06.39l1.06.25a8.36,8.36,0,0,1,2.33.8,2.11,2.11,0,0,1,.93,1.91,2.9,2.9,0,0,1-1,2.17,4.13,4.13,0,0,1-2.94.91,4,4,0,0,1-3-.95,3.58,3.58,0,0,1-1-2.36Z"/><path class="cls-1" d="M135.5,98.23h1.6v2.63h1.5v1.29h-1.5v6.14a.67.67,0,0,0,.33.66,1.34,1.34,0,0,0,.62.1h.24l.31,0v1.25a3.38,3.38,0,0,1-.57.12,6.25,6.25,0,0,1-.64,0,1.72,1.72,0,0,1-1.5-.57,2.51,2.51,0,0,1-.39-1.47v-6.23h-1.28v-1.29h1.28Z"/><path class="cls-1" d="M140.22,100.86h1.51v1.63a3.45,3.45,0,0,1,.9-1.16,2.37,2.37,0,0,1,1.66-.68h.15l.36,0v1.67l-.26,0h-.25a2.24,2.24,0,0,0-1.84.77,2.66,2.66,0,0,0-.64,1.77v5.41h-1.59Z"/><path class="cls-1" d="M152,101.12a3.5,3.5,0,0,1,1.42,1.22A4,4,0,0,1,154,104a11.12,11.12,0,0,1,.14,2.07h-6.84a4,4,0,0,0,.67,2.31,2.23,2.23,0,0,0,1.94.86,2.49,2.49,0,0,0,2-.82,2.59,2.59,0,0,0,.58-1.1h1.56a3.31,3.31,0,0,1-.41,1.16,4.32,4.32,0,0,1-.77,1,3.72,3.72,0,0,1-1.77,1,5.6,5.6,0,0,1-1.29.14,3.94,3.94,0,0,1-3-1.28,5,5,0,0,1-1.21-3.58,5.47,5.47,0,0,1,1.22-3.69,4,4,0,0,1,3.2-1.41A4.29,4.29,0,0,1,152,101.12Zm.57,3.69a4.27,4.27,0,0,0-.45-1.64A2.28,2.28,0,0,0,150,102a2.37,2.37,0,0,0-1.81.78,3,3,0,0,0-.78,2Z"/><path class="cls-1" d="M167,101.12a3.5,3.5,0,0,1,1.42,1.22,4,4,0,0,1,.63,1.66,10.3,10.3,0,0,1,.14,2.07h-6.84a4.08,4.08,0,0,0,.67,2.31,2.26,2.26,0,0,0,1.94.86,2.47,2.47,0,0,0,2-.82,2.73,2.73,0,0,0,.59-1.1h1.55a3.31,3.31,0,0,1-.41,1.16,4.32,4.32,0,0,1-.77,1,3.72,3.72,0,0,1-1.77,1,5.58,5.58,0,0,1-1.28.14,4,4,0,0,1-3-1.28,5,5,0,0,1-1.21-3.58,5.47,5.47,0,0,1,1.22-3.69,4,4,0,0,1,3.2-1.41A4.29,4.29,0,0,1,167,101.12Zm.57,3.69a4.1,4.1,0,0,0-.45-1.64A2.27,2.27,0,0,0,165,102a2.38,2.38,0,0,0-1.81.78,3,3,0,0,0-.78,2Z"/><path class="cls-1" d="M171.2,100.86h1.5v1.34a4.16,4.16,0,0,1,1.42-1.19,3.74,3.74,0,0,1,1.66-.36,2.72,2.72,0,0,1,2.7,1.4,4.91,4.91,0,0,1,.39,2.18v6h-1.61v-5.93A3.23,3.23,0,0,0,177,103a1.55,1.55,0,0,0-1.53-.88,3,3,0,0,0-.93.12,2.55,2.55,0,0,0-1.65,1.73,6.44,6.44,0,0,0-.12,1.42v4.93H171.2Z"/><path class="cls-1" d="M181.52,98.23h1.6v2.63h1.51v1.29h-1.51v6.14a.67.67,0,0,0,.34.66,1.32,1.32,0,0,0,.61.1h.25l.31,0v1.25a3.38,3.38,0,0,1-.57.12,6.4,6.4,0,0,1-.64,0,1.7,1.7,0,0,1-1.5-.57,2.51,2.51,0,0,1-.4-1.47v-6.23h-1.27v-1.29h1.27Z"/><path class="cls-1" d="M186.25,100.86h1.51v1.63a3.45,3.45,0,0,1,.9-1.16,2.37,2.37,0,0,1,1.66-.68h.15l.36,0v1.67l-.26,0h-.26a2.22,2.22,0,0,0-1.83.77,2.66,2.66,0,0,0-.64,1.77v5.41h-1.59Z"/><path class="cls-1" d="M197.25,104.58a.88.88,0,0,0,.73-.46,1.4,1.4,0,0,0,.1-.61,1.31,1.31,0,0,0-.57-1.18,3.11,3.11,0,0,0-1.65-.36,2.07,2.07,0,0,0-1.75.67,2.25,2.25,0,0,0-.38,1.1h-1.47a2.75,2.75,0,0,1,1.12-2.43,4.71,4.71,0,0,1,2.52-.68,5.13,5.13,0,0,1,2.69.63,2.15,2.15,0,0,1,1,2v5.43a.67.67,0,0,0,.1.39.49.49,0,0,0,.43.15h.24l.28,0v1.17a5,5,0,0,1-.57.13,3.72,3.72,0,0,1-.52,0,1.3,1.3,0,0,1-1.19-.58,2.12,2.12,0,0,1-.27-.87,4,4,0,0,1-1.39,1.1,4.3,4.3,0,0,1-2,.47,3,3,0,0,1-2.14-.8,2.64,2.64,0,0,1-.83-2,2.57,2.57,0,0,1,.82-2,3.9,3.9,0,0,1,2.15-.89Zm-3.33,4.27a1.86,1.86,0,0,0,1.18.39,3.57,3.57,0,0,0,1.62-.38,2.18,2.18,0,0,0,1.32-2.1v-1.27a3,3,0,0,1-.75.31,5.8,5.8,0,0,1-.89.17l-1,.13a3.45,3.45,0,0,0-1.29.36,1.38,1.38,0,0,0-.73,1.31A1.28,1.28,0,0,0,193.92,108.85Z"/><path class="cls-1" d="M207.39,101.15a4.39,4.39,0,0,1,1,.92V97.32h1.52v13h-1.42V109a3.48,3.48,0,0,1-1.31,1.26,3.69,3.69,0,0,1-1.72.39,3.48,3.48,0,0,1-2.72-1.33,5.19,5.19,0,0,1-1.14-3.52,6.05,6.05,0,0,1,1-3.56,3.42,3.42,0,0,1,3-1.51A3.31,3.31,0,0,1,207.39,101.15Zm-3.54,7.06a2.24,2.24,0,0,0,2.05,1,2.16,2.16,0,0,0,1.8-1,4.47,4.47,0,0,0,.7-2.71,4,4,0,0,0-.72-2.64,2.29,2.29,0,0,0-1.8-.86A2.35,2.35,0,0,0,204,103a4.15,4.15,0,0,0-.74,2.69A4.75,4.75,0,0,0,203.85,108.21Z"/><path class="cls-1" d="M217.27,104.58a.86.86,0,0,0,.73-.46,1.4,1.4,0,0,0,.1-.61,1.31,1.31,0,0,0-.57-1.18,3.09,3.09,0,0,0-1.64-.36,2.09,2.09,0,0,0-1.76.67,2.25,2.25,0,0,0-.38,1.1h-1.47a2.73,2.73,0,0,1,1.13-2.43,4.65,4.65,0,0,1,2.51-.68,5.16,5.16,0,0,1,2.7.63,2.16,2.16,0,0,1,1,2v5.43a.75.75,0,0,0,.1.39.49.49,0,0,0,.43.15h.24l.28,0v1.17a5.52,5.52,0,0,1-.56.13,4,4,0,0,1-.53,0,1.3,1.3,0,0,1-1.19-.58,2.12,2.12,0,0,1-.27-.87,4,4,0,0,1-1.39,1.1,4.29,4.29,0,0,1-2,.47,3,3,0,0,1-2.14-.8,2.61,2.61,0,0,1-.83-2,2.56,2.56,0,0,1,.81-2,3.9,3.9,0,0,1,2.15-.89Zm-3.33,4.27a1.87,1.87,0,0,0,1.19.39,3.56,3.56,0,0,0,1.61-.38,2.18,2.18,0,0,0,1.32-2.1v-1.27a3,3,0,0,1-.74.31,6.16,6.16,0,0,1-.9.17l-1,.13a3.45,3.45,0,0,0-1.29.36,1.38,1.38,0,0,0-.73,1.31A1.28,1.28,0,0,0,213.94,108.85Z"/><path class="cls-1" d="M223.18,107.32a2.19,2.19,0,0,0,.4,1.21,2.57,2.57,0,0,0,2.12.77,3.16,3.16,0,0,0,1.58-.39,1.26,1.26,0,0,0,.68-1.18,1,1,0,0,0-.55-.92,6.43,6.43,0,0,0-1.37-.45l-1.28-.32a6.07,6.07,0,0,1-1.8-.66,2,2,0,0,1-1-1.78,2.69,2.69,0,0,1,1-2.16,4,4,0,0,1,2.63-.83,3.69,3.69,0,0,1,3.11,1.25,2.76,2.76,0,0,1,.58,1.71h-1.5a1.76,1.76,0,0,0-.39-1,2.47,2.47,0,0,0-1.93-.62,2.34,2.34,0,0,0-1.39.34,1,1,0,0,0-.47.9,1.1,1.1,0,0,0,.62,1,3.9,3.9,0,0,0,1.06.39l1.06.25a8.49,8.49,0,0,1,2.33.8,2.12,2.12,0,0,1,.92,1.91,2.89,2.89,0,0,1-1,2.17,4.16,4.16,0,0,1-2.94.91,4,4,0,0,1-3-.95,3.57,3.57,0,0,1-.94-2.36Z"/><path class="cls-1" d="M95,122.12a3.53,3.53,0,0,1,1.43,1.22A4.29,4.29,0,0,1,97,125a11.12,11.12,0,0,1,.14,2.07H90.32a4.08,4.08,0,0,0,.67,2.31,2.27,2.27,0,0,0,2,.86,2.49,2.49,0,0,0,2-.82,2.71,2.71,0,0,0,.58-1.1H97a3.53,3.53,0,0,1-.41,1.16,4.35,4.35,0,0,1-.78,1,3.63,3.63,0,0,1-1.77.95,5.51,5.51,0,0,1-1.28.14,3.93,3.93,0,0,1-3-1.28,5,5,0,0,1-1.22-3.58,5.43,5.43,0,0,1,1.23-3.69A4,4,0,0,1,93,121.65,4.26,4.26,0,0,1,95,122.12Zm.57,3.69a4.11,4.11,0,0,0-.44-1.64A2.28,2.28,0,0,0,92.94,123a2.38,2.38,0,0,0-1.81.78,3,3,0,0,0-.77,2Z"/><path class="cls-1" d="M105.11,128.32a2.28,2.28,0,0,0,.41,1.21,2.55,2.55,0,0,0,2.11.77,3.11,3.11,0,0,0,1.58-.39,1.24,1.24,0,0,0,.68-1.18,1,1,0,0,0-.54-.92,6.37,6.37,0,0,0-1.38-.45L106.7,127a6.26,6.26,0,0,1-1.81-.66,2,2,0,0,1-1-1.78,2.69,2.69,0,0,1,1-2.16,3.94,3.94,0,0,1,2.62-.83,3.66,3.66,0,0,1,3.11,1.25,2.7,2.7,0,0,1,.58,1.71h-1.49a1.76,1.76,0,0,0-.39-1,2.49,2.49,0,0,0-1.93-.62,2.32,2.32,0,0,0-1.39.34,1,1,0,0,0-.48.9,1.11,1.11,0,0,0,.63,1,3.81,3.81,0,0,0,1,.39l1.07.25a8.49,8.49,0,0,1,2.33.8,2.12,2.12,0,0,1,.92,1.91,2.87,2.87,0,0,1-1,2.17,4.13,4.13,0,0,1-2.94.91,4,4,0,0,1-3-.95,3.58,3.58,0,0,1-1-2.36Z"/><path class="cls-1" d="M118.22,125.58a.88.88,0,0,0,.73-.46,1.4,1.4,0,0,0,.1-.61,1.31,1.31,0,0,0-.57-1.18,3.13,3.13,0,0,0-1.65-.36,2.07,2.07,0,0,0-1.75.67,2.25,2.25,0,0,0-.38,1.1h-1.48a2.75,2.75,0,0,1,1.13-2.43,4.68,4.68,0,0,1,2.52-.68,5.13,5.13,0,0,1,2.69.63,2.15,2.15,0,0,1,1,2v5.43a.67.67,0,0,0,.1.39.49.49,0,0,0,.43.15h.23l.29,0v1.17a5,5,0,0,1-.57.13,3.79,3.79,0,0,1-.52,0,1.3,1.3,0,0,1-1.19-.58,2.12,2.12,0,0,1-.27-.87,4,4,0,0,1-1.39,1.1,4.33,4.33,0,0,1-2,.47,3,3,0,0,1-2.14-.8,2.64,2.64,0,0,1-.83-2,2.54,2.54,0,0,1,.82-2,3.87,3.87,0,0,1,2.14-.89Zm-3.33,4.27a1.86,1.86,0,0,0,1.18.39,3.57,3.57,0,0,0,1.62-.38,2.18,2.18,0,0,0,1.32-2.1v-1.27a3.14,3.14,0,0,1-.75.31,5.8,5.8,0,0,1-.89.17l-1,.13a3.45,3.45,0,0,0-1.29.36,1.39,1.39,0,0,0-.74,1.31A1.28,1.28,0,0,0,114.89,129.85Z"/><path class="cls-1" d="M126.49,118.07l-2.35,2.54h-1.21l1.61-2.54Zm-2.81,3.83h1.61v9.37h-1.61Z"/><path class="cls-1" d="M133.36,122.15a4.39,4.39,0,0,1,.95.92v-4.75h1.52v13h-1.42V130a3.48,3.48,0,0,1-1.31,1.26,3.69,3.69,0,0,1-1.72.39,3.48,3.48,0,0,1-2.72-1.33,5.19,5.19,0,0,1-1.14-3.52,6.05,6.05,0,0,1,1-3.56,3.42,3.42,0,0,1,3-1.51A3.31,3.31,0,0,1,133.36,122.15Zm-3.54,7.06a2.24,2.24,0,0,0,2.05,1,2.16,2.16,0,0,0,1.8-.95,4.47,4.47,0,0,0,.7-2.71,4,4,0,0,0-.72-2.64,2.29,2.29,0,0,0-1.8-.86,2.38,2.38,0,0,0-1.93.92,4.21,4.21,0,0,0-.73,2.69A4.75,4.75,0,0,0,129.82,129.21Z"/><path class="cls-1" d="M143.24,125.58a.86.86,0,0,0,.73-.46,1.4,1.4,0,0,0,.1-.61,1.31,1.31,0,0,0-.57-1.18,3.09,3.09,0,0,0-1.64-.36,2.09,2.09,0,0,0-1.76.67,2.25,2.25,0,0,0-.38,1.1h-1.47a2.73,2.73,0,0,1,1.13-2.43,4.65,4.65,0,0,1,2.51-.68,5.16,5.16,0,0,1,2.7.63,2.16,2.16,0,0,1,1,2v5.43a.75.75,0,0,0,.1.39.49.49,0,0,0,.43.15h.24l.28,0v1.17a5.52,5.52,0,0,1-.56.13,4,4,0,0,1-.53,0,1.3,1.3,0,0,1-1.19-.58,2.12,2.12,0,0,1-.27-.87,4,4,0,0,1-1.39,1.1,4.29,4.29,0,0,1-2,.47,3,3,0,0,1-2.14-.8,2.61,2.61,0,0,1-.84-2,2.57,2.57,0,0,1,.82-2,3.9,3.9,0,0,1,2.15-.89Zm-3.33,4.27a1.86,1.86,0,0,0,1.18.39,3.57,3.57,0,0,0,1.62-.38,2.18,2.18,0,0,0,1.32-2.1v-1.27a3,3,0,0,1-.74.31,6.16,6.16,0,0,1-.9.17l-1,.13a3.45,3.45,0,0,0-1.29.36,1.38,1.38,0,0,0-.73,1.31A1.28,1.28,0,0,0,139.91,129.85Z"/><path class="cls-1" d="M149.15,128.32a2.19,2.19,0,0,0,.4,1.21,2.57,2.57,0,0,0,2.12.77,3.16,3.16,0,0,0,1.58-.39,1.26,1.26,0,0,0,.68-1.18,1,1,0,0,0-.55-.92,6.43,6.43,0,0,0-1.37-.45l-1.28-.32a6.26,6.26,0,0,1-1.81-.66,2,2,0,0,1-1-1.78,2.69,2.69,0,0,1,1-2.16,4,4,0,0,1,2.63-.83,3.69,3.69,0,0,1,3.11,1.25,2.69,2.69,0,0,1,.57,1.71h-1.49a1.76,1.76,0,0,0-.39-1,2.47,2.47,0,0,0-1.93-.62,2.34,2.34,0,0,0-1.39.34,1,1,0,0,0-.47.9,1.1,1.1,0,0,0,.62,1,4,4,0,0,0,1,.39l1.07.25a8.49,8.49,0,0,1,2.33.8,2.12,2.12,0,0,1,.92,1.91,2.89,2.89,0,0,1-1,2.17,4.16,4.16,0,0,1-2.94.91,4,4,0,0,1-3-.95,3.57,3.57,0,0,1-.94-2.36Z"/><path class="cls-1" d="M90.39,161.63l3.71,11,3.67-11h2L95,174.54H93.16l-4.7-12.91Z"/><path class="cls-1" d="M106,165.39a3.62,3.62,0,0,1,1.42,1.21,4.4,4.4,0,0,1,.63,1.67,11.12,11.12,0,0,1,.14,2.07h-6.85a4,4,0,0,0,.67,2.3,2.25,2.25,0,0,0,1.95.87,2.49,2.49,0,0,0,2-.82,2.77,2.77,0,0,0,.58-1.1h1.56a3.27,3.27,0,0,1-.41,1.15,3.77,3.77,0,0,1-.78,1,3.55,3.55,0,0,1-1.77.95,5,5,0,0,1-1.28.14,3.93,3.93,0,0,1-3-1.27A5,5,0,0,1,99.65,170a5.4,5.4,0,0,1,1.22-3.68,4,4,0,0,1,3.2-1.41A4.19,4.19,0,0,1,106,165.39Zm.56,3.69a4.11,4.11,0,0,0-.44-1.64A2.28,2.28,0,0,0,104,166.3a2.4,2.4,0,0,0-1.81.78,3,3,0,0,0-.77,2Z"/><path class="cls-1" d="M110.19,165.13h1.51v1.33a4.12,4.12,0,0,1,1.41-1.18,3.78,3.78,0,0,1,1.66-.36,2.74,2.74,0,0,1,2.71,1.39,4.93,4.93,0,0,1,.39,2.19v6h-1.61v-5.93a3.19,3.19,0,0,0-.26-1.39,1.54,1.54,0,0,0-1.53-.88,3.35,3.35,0,0,0-.92.11,2.39,2.39,0,0,0-1.14.78,2.28,2.28,0,0,0-.52,1,6.38,6.38,0,0,0-.12,1.42v4.93h-1.58Z"/><path class="cls-1" d="M125.38,165.42a4.16,4.16,0,0,1,1,.92v-4.75h1.52v12.95h-1.42v-1.31a3.48,3.48,0,0,1-1.31,1.26,3.69,3.69,0,0,1-1.72.38,3.5,3.5,0,0,1-2.72-1.32,5.19,5.19,0,0,1-1.14-3.52,6.05,6.05,0,0,1,1-3.56,3.42,3.42,0,0,1,3-1.51A3.31,3.31,0,0,1,125.38,165.42Zm-3.54,7.06a2.26,2.26,0,0,0,2,1,2.15,2.15,0,0,0,1.8-.94,4.47,4.47,0,0,0,.7-2.71,4,4,0,0,0-.72-2.64,2.29,2.29,0,0,0-1.8-.86,2.4,2.4,0,0,0-1.93.91,4.23,4.23,0,0,0-.73,2.69A4.76,4.76,0,0,0,121.84,172.48Z"/><path class="cls-1" d="M135.26,168.84a.84.84,0,0,0,.73-.45,1.43,1.43,0,0,0,.1-.61,1.31,1.31,0,0,0-.57-1.18,3.09,3.09,0,0,0-1.64-.37,2.08,2.08,0,0,0-1.76.68,2.21,2.21,0,0,0-.38,1.1h-1.47a2.75,2.75,0,0,1,1.12-2.43,4.71,4.71,0,0,1,2.52-.68,5.1,5.1,0,0,1,2.69.63,2.14,2.14,0,0,1,1,2v5.42a.76.76,0,0,0,.1.4.49.49,0,0,0,.43.15h.24l.28,0v1.16l-.56.14-.53,0a1.3,1.3,0,0,1-1.19-.58,2.12,2.12,0,0,1-.27-.87,4.06,4.06,0,0,1-1.39,1.1,4.29,4.29,0,0,1-2,.47,3,3,0,0,1-2.15-.8,2.65,2.65,0,0,1-.83-2,2.56,2.56,0,0,1,.82-2,3.9,3.9,0,0,1,2.15-.89Zm-3.33,4.28a1.86,1.86,0,0,0,1.18.39,3.7,3.7,0,0,0,1.62-.38,2.18,2.18,0,0,0,1.32-2.1v-1.27a2.66,2.66,0,0,1-.75.3,4.85,4.85,0,0,1-.89.18l-1,.12a3.88,3.88,0,0,0-1.29.36,1.41,1.41,0,0,0-.73,1.32A1.29,1.29,0,0,0,131.93,173.12Z"/><path class="cls-1" d="M145.09,165.17h1.55v1.25a3.72,3.72,0,0,1,1-1,3.28,3.28,0,0,1,1.89-.53,3.57,3.57,0,0,1,2.72,1.22,5,5,0,0,1,1.12,3.51q0,3.08-1.62,4.39a3.62,3.62,0,0,1-2.38.84,3.24,3.24,0,0,1-1.79-.47,4,4,0,0,1-.94-.9v4.8h-1.59Zm6,7.38a4.4,4.4,0,0,0,.73-2.77,5.36,5.36,0,0,0-.32-1.94,2.4,2.4,0,0,0-4.52.09,6.44,6.44,0,0,0-.33,2.23,4.69,4.69,0,0,0,.33,1.86,2.25,2.25,0,0,0,2.26,1.46A2.28,2.28,0,0,0,151.05,172.55Z"/><path class="cls-1" d="M155.28,165.13h1.5v1.62a3.75,3.75,0,0,1,.91-1.15,2.31,2.31,0,0,1,1.66-.68h.15l.36,0v1.67l-.26,0h-.26a2.24,2.24,0,0,0-1.84.77,2.71,2.71,0,0,0-.64,1.77v5.41h-1.58Z"/><path class="cls-1" d="M168.05,166.07a4.75,4.75,0,0,1,1.25,3.56,6.16,6.16,0,0,1-1.1,3.76,4,4,0,0,1-3.41,1.48,3.84,3.84,0,0,1-3.07-1.31,5.22,5.22,0,0,1-1.13-3.52,5.69,5.69,0,0,1,1.19-3.78,4,4,0,0,1,3.22-1.41A4.21,4.21,0,0,1,168.05,166.07Zm-1,6.25a6,6,0,0,0,.58-2.64,4.76,4.76,0,0,0-.42-2.15,2.35,2.35,0,0,0-2.28-1.3,2.23,2.23,0,0,0-2.08,1.11,5.13,5.13,0,0,0-.66,2.67,4.45,4.45,0,0,0,.66,2.5,2.27,2.27,0,0,0,2.07,1A2.15,2.15,0,0,0,167.07,172.32Z"/><path class="cls-1" d="M176.41,165.42a4.17,4.17,0,0,1,1,.92v-4.75h1.52v12.95h-1.43v-1.31a3.39,3.39,0,0,1-1.3,1.26,3.7,3.7,0,0,1-1.73.38,3.5,3.5,0,0,1-2.71-1.32,5.2,5.2,0,0,1-1.15-3.52,6.06,6.06,0,0,1,1.05-3.56,3.41,3.41,0,0,1,3-1.51A3.25,3.25,0,0,1,176.41,165.42Zm-3.53,7.06a2.26,2.26,0,0,0,2.05,1,2.13,2.13,0,0,0,1.79-.94,4.46,4.46,0,0,0,.71-2.71,4,4,0,0,0-.73-2.64,2.26,2.26,0,0,0-1.79-.86,2.39,2.39,0,0,0-1.93.91,4.23,4.23,0,0,0-.74,2.69A4.76,4.76,0,0,0,172.88,172.48Z"/><path class="cls-1" d="M182.83,165.13v6.25a2.62,2.62,0,0,0,.23,1.17,1.53,1.53,0,0,0,1.53.85,2.16,2.16,0,0,0,2.19-1.48,6,6,0,0,0,.32-2.17v-4.62h1.58v9.41h-1.5l0-1.39a3.18,3.18,0,0,1-.75.91,3.26,3.26,0,0,1-2.15.74,2.78,2.78,0,0,1-2.7-1.35,4.17,4.17,0,0,1-.38-1.92v-6.4Z"/><path class="cls-1" d="M191.58,162.5h1.6v2.63h1.5v1.29h-1.5v6.14a.67.67,0,0,0,.33.66,1.37,1.37,0,0,0,.62.1h.24l.31,0v1.26a3.38,3.38,0,0,1-.57.11,4.09,4.09,0,0,1-.63,0,1.73,1.73,0,0,1-1.51-.57,2.53,2.53,0,0,1-.39-1.47v-6.23H190.3v-1.29h1.28Z"/><path class="cls-1" d="M203.08,166.07a4.71,4.71,0,0,1,1.25,3.56,6.1,6.1,0,0,1-1.1,3.76,4,4,0,0,1-3.41,1.48,3.8,3.8,0,0,1-3.06-1.31,5.17,5.17,0,0,1-1.14-3.52,5.64,5.64,0,0,1,1.2-3.78,4,4,0,0,1,3.21-1.41A4.21,4.21,0,0,1,203.08,166.07Zm-1,6.25a5.88,5.88,0,0,0,.58-2.64,4.76,4.76,0,0,0-.42-2.15,2.35,2.35,0,0,0-2.27-1.3,2.24,2.24,0,0,0-2.09,1.11,5.13,5.13,0,0,0-.65,2.67,4.45,4.45,0,0,0,.65,2.5,2.27,2.27,0,0,0,2.07,1A2.14,2.14,0,0,0,202.1,172.32Z"/><path class="cls-1" d="M207.21,171.59a2.31,2.31,0,0,0,.41,1.21,2.57,2.57,0,0,0,2.12.76,3.1,3.1,0,0,0,1.57-.38A1.26,1.26,0,0,0,212,172a1,1,0,0,0-.55-.92,6.43,6.43,0,0,0-1.37-.45l-1.28-.32a6.57,6.57,0,0,1-1.81-.66,2,2,0,0,1-1-1.78,2.69,2.69,0,0,1,1-2.16,4,4,0,0,1,2.63-.83,3.69,3.69,0,0,1,3.11,1.25,2.68,2.68,0,0,1,.57,1.7h-1.49a1.82,1.82,0,0,0-.39-1,2.51,2.51,0,0,0-1.93-.62,2.41,2.41,0,0,0-1.39.34,1.06,1.06,0,0,0-.47.91,1.1,1.1,0,0,0,.62,1,4,4,0,0,0,1.05.38l1.07.26a8.16,8.16,0,0,1,2.33.8,2.12,2.12,0,0,1,.92,1.91,2.88,2.88,0,0,1-1,2.17,4.13,4.13,0,0,1-2.94.91,4,4,0,0,1-3-1,3.65,3.65,0,0,1-.95-2.36Z"/><path class="cls-1" d="M226.09,165.39a3.55,3.55,0,0,1,1.42,1.21,4.09,4.09,0,0,1,.63,1.67,10.3,10.3,0,0,1,.14,2.07h-6.84a4,4,0,0,0,.67,2.3,2.23,2.23,0,0,0,1.94.87,2.47,2.47,0,0,0,2-.82,2.65,2.65,0,0,0,.58-1.1h1.56a3.27,3.27,0,0,1-.41,1.15,4,4,0,0,1-.77,1,3.64,3.64,0,0,1-1.77.95,5.1,5.1,0,0,1-1.29.14,3.93,3.93,0,0,1-3-1.27,5,5,0,0,1-1.21-3.59,5.45,5.45,0,0,1,1.22-3.68,4,4,0,0,1,3.2-1.41A4.16,4.16,0,0,1,226.09,165.39Zm.57,3.69a4.27,4.27,0,0,0-.45-1.64,2.28,2.28,0,0,0-2.15-1.14,2.37,2.37,0,0,0-1.81.78,3,3,0,0,0-.78,2Z"/><path class="cls-1" d="M90.1,192.59a2.31,2.31,0,0,0,.4,1.21,2.58,2.58,0,0,0,2.12.76,3.11,3.11,0,0,0,1.58-.38,1.27,1.27,0,0,0,.68-1.18,1,1,0,0,0-.54-.92,6.58,6.58,0,0,0-1.38-.45l-1.28-.32a6.61,6.61,0,0,1-1.8-.66,2,2,0,0,1-1-1.78,2.7,2.7,0,0,1,1-2.16,3.92,3.92,0,0,1,2.62-.83,3.66,3.66,0,0,1,3.11,1.25,2.69,2.69,0,0,1,.58,1.7H94.64a1.82,1.82,0,0,0-.39-1,2.53,2.53,0,0,0-1.94-.62,2.43,2.43,0,0,0-1.39.34,1.08,1.08,0,0,0-.47.91,1.12,1.12,0,0,0,.62,1,3.94,3.94,0,0,0,1.06.38l1.07.26a8.06,8.06,0,0,1,2.32.8,2.11,2.11,0,0,1,.93,1.91,2.92,2.92,0,0,1-1,2.17,4.13,4.13,0,0,1-2.94.91,4,4,0,0,1-3-1,3.6,3.6,0,0,1-1-2.36Z"/><path class="cls-1" d="M104,186.39a3.59,3.59,0,0,1,1.43,1.21,4.4,4.4,0,0,1,.63,1.67,11.12,11.12,0,0,1,.14,2.07H99.32a4,4,0,0,0,.67,2.3,2.25,2.25,0,0,0,2,.87,2.49,2.49,0,0,0,2-.82,2.77,2.77,0,0,0,.58-1.1H106a3.49,3.49,0,0,1-.41,1.15,4,4,0,0,1-.78,1,3.55,3.55,0,0,1-1.77.95,5,5,0,0,1-1.28.14,3.92,3.92,0,0,1-3-1.27A5,5,0,0,1,97.62,191a5.4,5.4,0,0,1,1.23-3.68,4,4,0,0,1,3.19-1.41A4.14,4.14,0,0,1,104,186.39Zm.57,3.69a4.11,4.11,0,0,0-.44-1.64,2.28,2.28,0,0,0-2.16-1.14,2.38,2.38,0,0,0-1.81.78,2.94,2.94,0,0,0-.77,2Z"/><path class="cls-1" d="M108.21,186.13h1.51v1.62a3.54,3.54,0,0,1,.9-1.15,2.33,2.33,0,0,1,1.66-.68h.15l.36,0v1.67l-.26,0h-.25a2.24,2.24,0,0,0-1.84.77,2.66,2.66,0,0,0-.64,1.77v5.41h-1.59Z"/><path class="cls-1" d="M114.94,186.13l2.52,7.66,2.62-7.66h1.73l-3.55,9.41h-1.68l-3.47-9.41Z"/><path class="cls-1" d="M123.17,182.63h1.6v1.79h-1.6Zm0,3.54h1.6v9.37h-1.6Z"/><path class="cls-1" d="M133.38,186.63a3.65,3.65,0,0,1,1.2,2.66H133a2.73,2.73,0,0,0-.64-1.44,2,2,0,0,0-1.61-.58,2.23,2.23,0,0,0-2.16,1.47,5.91,5.91,0,0,0-.42,2.37,4.45,4.45,0,0,0,.6,2.38,2,2,0,0,0,1.88,1,2.08,2.08,0,0,0,1.56-.6,3.28,3.28,0,0,0,.79-1.64h1.54a4.08,4.08,0,0,1-1.32,2.74,3.75,3.75,0,0,1-2.44.86l-.62.86a2,2,0,0,1,.65-.08,1.48,1.48,0,0,1,1,.35,1.29,1.29,0,0,1,.4,1,1.49,1.49,0,0,1-.53,1.15,2.33,2.33,0,0,1-1.61.48,3.7,3.7,0,0,1-1-.13c-.19-.05-.44-.13-.76-.25l.31-.71.52.18a2.74,2.74,0,0,0,.66.09,1.6,1.6,0,0,0,.56-.09.67.67,0,0,0,.46-.67.65.65,0,0,0-.23-.49.92.92,0,0,0-.63-.2,1.72,1.72,0,0,0-.34,0,1.75,1.75,0,0,0-.37.12l-.31-.37.95-1.29a2.88,2.88,0,0,1-2.18-1,5.37,5.37,0,0,1-1.27-3.72,5.65,5.65,0,0,1,1.21-3.86,3.88,3.88,0,0,1,3.06-1.38A4.08,4.08,0,0,1,133.38,186.63Z"/><path class="cls-1" d="M143,187.07a4.71,4.71,0,0,1,1.25,3.56,6.1,6.1,0,0,1-1.1,3.76,4,4,0,0,1-3.41,1.48,3.8,3.8,0,0,1-3.06-1.31,5.17,5.17,0,0,1-1.14-3.52,5.64,5.64,0,0,1,1.2-3.78,4,4,0,0,1,3.21-1.41A4.21,4.21,0,0,1,143,187.07Zm-1,6.25a5.88,5.88,0,0,0,.58-2.64,4.76,4.76,0,0,0-.42-2.15,2.35,2.35,0,0,0-2.27-1.3,2.24,2.24,0,0,0-2.09,1.11,5.23,5.23,0,0,0-.65,2.67,4.53,4.53,0,0,0,.65,2.5,2.27,2.27,0,0,0,2.07,1A2.13,2.13,0,0,0,142,193.32Z"/><path class="cls-1" d="M147.12,192.59a2.22,2.22,0,0,0,.4,1.21,2.57,2.57,0,0,0,2.12.76,3.1,3.1,0,0,0,1.57-.38,1.26,1.26,0,0,0,.69-1.18,1,1,0,0,0-.55-.92,6.43,6.43,0,0,0-1.37-.45l-1.28-.32a6.57,6.57,0,0,1-1.81-.66,2,2,0,0,1-1-1.78,2.69,2.69,0,0,1,1-2.16,4,4,0,0,1,2.63-.83,3.69,3.69,0,0,1,3.11,1.25,2.68,2.68,0,0,1,.57,1.7h-1.49a1.82,1.82,0,0,0-.39-1,2.51,2.51,0,0,0-1.93-.62,2.41,2.41,0,0,0-1.39.34,1.06,1.06,0,0,0-.47.91,1.1,1.1,0,0,0,.62,1,4,4,0,0,0,1,.38l1.07.26a8.16,8.16,0,0,1,2.33.8,2.12,2.12,0,0,1,.92,1.91,2.91,2.91,0,0,1-1,2.17,4.17,4.17,0,0,1-2.95.91,4,4,0,0,1-3-1,3.65,3.65,0,0,1-.95-2.36Z"/><path class="cls-1" d="M156,186.25h1.84v1.92H156Zm0,7.37h1.84v1.92H156Z"/><path class="cls-1" d="M165.14,182.63h1.52v7.5l4.06-4h2l-3.62,3.5,3.82,5.91h-2l-3-4.79-1.3,1.26v3.53h-1.52Z"/><path class="cls-1" d="M174.18,182.63h1.61v1.79h-1.61Zm0,3.54h1.61v9.37h-1.61Z"/><path class="cls-1" d="M178.49,183.5h1.6v2.63h1.5v1.29h-1.5v6.14a.66.66,0,0,0,.34.66,1.29,1.29,0,0,0,.61.1h.25l.3,0v1.26a3.47,3.47,0,0,1-.56.11,4.31,4.31,0,0,1-.64,0,1.7,1.7,0,0,1-1.5-.57,2.46,2.46,0,0,1-.4-1.47v-6.23h-1.27v-1.29h1.27Z"/><path class="cls-1" d="M184.12,192.59a2.31,2.31,0,0,0,.4,1.21,2.57,2.57,0,0,0,2.12.76,3.13,3.13,0,0,0,1.58-.38,1.27,1.27,0,0,0,.68-1.18,1,1,0,0,0-.55-.92,6.43,6.43,0,0,0-1.37-.45l-1.28-.32a6.36,6.36,0,0,1-1.8-.66,2,2,0,0,1-1-1.78,2.7,2.7,0,0,1,1-2.16,3.92,3.92,0,0,1,2.62-.83,3.68,3.68,0,0,1,3.11,1.25,2.75,2.75,0,0,1,.58,1.7h-1.5a1.89,1.89,0,0,0-.38-1,2.55,2.55,0,0,0-1.94-.62,2.43,2.43,0,0,0-1.39.34,1.08,1.08,0,0,0-.47.91,1.12,1.12,0,0,0,.62,1,3.94,3.94,0,0,0,1.06.38l1.06.26a8,8,0,0,1,2.33.8,2.1,2.1,0,0,1,.92,1.91,2.91,2.91,0,0,1-1,2.17,4.16,4.16,0,0,1-2.94.91,4,4,0,0,1-3-1,3.59,3.59,0,0,1-.94-2.36Z"/><path class="cls-1" d="M192.51,197.39a1.1,1.1,0,0,0,.85-.86,2.42,2.42,0,0,0,.14-.77s0-.08,0-.11a.52.52,0,0,0,0-.11h-1v-1.92h1.88v1.78a3.87,3.87,0,0,1-.42,1.84,1.93,1.93,0,0,1-1.46,1Z"/><path class="cls-1" d="M202.05,182.59h1.54v4.68a3.4,3.4,0,0,1,1.24-1,3.48,3.48,0,0,1,1.57-.36,3.66,3.66,0,0,1,2.86,1.21,5.1,5.1,0,0,1,1.1,3.56,6.11,6.11,0,0,1-1.08,3.71,3.53,3.53,0,0,1-3,1.48,3.06,3.06,0,0,1-1.82-.52,4.23,4.23,0,0,1-.94-1v1.2h-1.46Zm6,10.83a5,5,0,0,0,.64-2.69,4.45,4.45,0,0,0-.64-2.46,2.12,2.12,0,0,0-1.89-1,2.62,2.62,0,0,0-1.9.8,3.58,3.58,0,0,0-.81,2.63,5.91,5.91,0,0,0,.33,2.16,2.33,2.33,0,0,0,2.34,1.55A2.13,2.13,0,0,0,208.1,193.42Z"/><path class="cls-1" d="M212.23,186.13h1.51v1.62a3.54,3.54,0,0,1,.9-1.15,2.33,2.33,0,0,1,1.66-.68h.15l.36,0v1.67l-.26,0h-.26a2.22,2.22,0,0,0-1.83.77,2.66,2.66,0,0,0-.64,1.77v5.41h-1.59Z"/><path class="cls-1" d="M218.18,182.63h1.61v1.79h-1.61Zm0,3.54h1.61v9.37h-1.61Z"/><path class="cls-1" d="M222.18,186.13h1.51v1.33a4.12,4.12,0,0,1,1.41-1.18,3.78,3.78,0,0,1,1.66-.36,2.74,2.74,0,0,1,2.71,1.39,4.93,4.93,0,0,1,.39,2.19v6h-1.61v-5.93a3.19,3.19,0,0,0-.26-1.39,1.54,1.54,0,0,0-1.53-.88,3.35,3.35,0,0,0-.92.11,2.39,2.39,0,0,0-1.14.78,2.28,2.28,0,0,0-.52,1,6.38,6.38,0,0,0-.12,1.42v4.93h-1.58Z"/><path class="cls-1" d="M237.37,186.42a4.16,4.16,0,0,1,.95.92v-4.75h1.52v12.95h-1.42v-1.31a3.48,3.48,0,0,1-1.31,1.26,3.69,3.69,0,0,1-1.72.38,3.5,3.5,0,0,1-2.72-1.32,5.19,5.19,0,0,1-1.14-3.52,6.05,6.05,0,0,1,1-3.56,3.42,3.42,0,0,1,3-1.51A3.31,3.31,0,0,1,237.37,186.42Zm-3.54,7.06a2.26,2.26,0,0,0,2,1,2.15,2.15,0,0,0,1.8-.94,4.47,4.47,0,0,0,.7-2.71,4,4,0,0,0-.72-2.64,2.29,2.29,0,0,0-1.8-.86,2.4,2.4,0,0,0-1.93.91,4.23,4.23,0,0,0-.73,2.69A4.76,4.76,0,0,0,233.83,193.48Z"/><path class="cls-1" d="M248,186.39a3.55,3.55,0,0,1,1.42,1.21,4.09,4.09,0,0,1,.63,1.67,11.12,11.12,0,0,1,.14,2.07h-6.85a4,4,0,0,0,.68,2.3,2.22,2.22,0,0,0,1.94.87,2.49,2.49,0,0,0,2-.82,2.65,2.65,0,0,0,.58-1.1h1.56a3.27,3.27,0,0,1-.41,1.15,4,4,0,0,1-.77,1,3.64,3.64,0,0,1-1.77.95,5.1,5.1,0,0,1-1.29.14,3.93,3.93,0,0,1-3-1.27,5,5,0,0,1-1.21-3.59,5.45,5.45,0,0,1,1.22-3.68,4,4,0,0,1,3.2-1.41A4.16,4.16,0,0,1,248,186.39Zm.57,3.69a4.27,4.27,0,0,0-.45-1.64A2.28,2.28,0,0,0,246,187.3a2.41,2.41,0,0,0-1.82.78,3,3,0,0,0-.77,2Z"/><path class="cls-1" d="M253.16,192.59a2.22,2.22,0,0,0,.4,1.21,2.57,2.57,0,0,0,2.12.76,3.1,3.1,0,0,0,1.57-.38,1.26,1.26,0,0,0,.69-1.18,1,1,0,0,0-.55-.92,6.43,6.43,0,0,0-1.37-.45l-1.28-.32a6.57,6.57,0,0,1-1.81-.66,2,2,0,0,1-1-1.78,2.69,2.69,0,0,1,1-2.16,4,4,0,0,1,2.63-.83,3.69,3.69,0,0,1,3.11,1.25,2.68,2.68,0,0,1,.57,1.7h-1.49a1.82,1.82,0,0,0-.39-1,2.51,2.51,0,0,0-1.93-.62,2.41,2.41,0,0,0-1.39.34,1.06,1.06,0,0,0-.47.91,1.1,1.1,0,0,0,.62,1,4,4,0,0,0,1.05.38l1.07.26a8.16,8.16,0,0,1,2.33.8,2.12,2.12,0,0,1,.92,1.91,2.91,2.91,0,0,1-1,2.17,4.17,4.17,0,0,1-3,.91,4,4,0,0,1-3-1,3.65,3.65,0,0,1-1-2.36Z"/><path class="cls-1" d="M261.55,197.39a1.11,1.11,0,0,0,.85-.86,2.39,2.39,0,0,0,.13-.77v-.11a.52.52,0,0,0,0-.11h-1v-1.92h1.88v1.78a3.87,3.87,0,0,1-.42,1.84,1.93,1.93,0,0,1-1.46,1Z"/><path class="cls-1" d="M89,207.17h1.55v1.25a3.59,3.59,0,0,1,1-1,3.27,3.27,0,0,1,1.88-.53,3.55,3.55,0,0,1,2.72,1.22,5,5,0,0,1,1.12,3.51c0,2.05-.54,3.51-1.61,4.39a3.64,3.64,0,0,1-2.38.84,3.28,3.28,0,0,1-1.8-.47,4.23,4.23,0,0,1-.94-.9v4.8H89Zm6,7.38a4.4,4.4,0,0,0,.74-2.77,5.15,5.15,0,0,0-.33-1.94,2.39,2.39,0,0,0-4.51.09,6.44,6.44,0,0,0-.33,2.23,4.69,4.69,0,0,0,.33,1.86,2.39,2.39,0,0,0,4.1.53Z"/><path class="cls-1" d="M104.22,210.84a.85.85,0,0,0,.73-.45,1.43,1.43,0,0,0,.1-.61,1.31,1.31,0,0,0-.57-1.18,3.13,3.13,0,0,0-1.65-.37,2.07,2.07,0,0,0-1.75.68,2.12,2.12,0,0,0-.38,1.1H99.22a2.75,2.75,0,0,1,1.13-2.43,4.66,4.66,0,0,1,2.52-.68,5.13,5.13,0,0,1,2.69.63,2.14,2.14,0,0,1,1,2v5.42a.68.68,0,0,0,.1.4.49.49,0,0,0,.43.15h.23l.28,0v1.16a5,5,0,0,1-.56.14l-.52,0a1.29,1.29,0,0,1-1.19-.58,2.12,2.12,0,0,1-.27-.87,4.16,4.16,0,0,1-1.39,1.1,4.33,4.33,0,0,1-2,.47,3,3,0,0,1-2.14-.8,2.65,2.65,0,0,1-.83-2,2.53,2.53,0,0,1,.82-2,3.87,3.87,0,0,1,2.14-.89Zm-3.34,4.28a1.89,1.89,0,0,0,1.19.39,3.7,3.7,0,0,0,1.62-.38A2.18,2.18,0,0,0,105,213v-1.27a2.79,2.79,0,0,1-.75.3,4.85,4.85,0,0,1-.89.18l-1,.12a3.88,3.88,0,0,0-1.29.36,1.42,1.42,0,0,0-.74,1.32A1.32,1.32,0,0,0,100.88,215.12Z"/><path class="cls-1" d="M110.12,213.59a2.22,2.22,0,0,0,.41,1.21,2.54,2.54,0,0,0,2.11.76,3.11,3.11,0,0,0,1.58-.38,1.25,1.25,0,0,0,.68-1.18,1,1,0,0,0-.54-.92,6.37,6.37,0,0,0-1.38-.45l-1.27-.32a6.57,6.57,0,0,1-1.81-.66,2,2,0,0,1-1-1.78,2.69,2.69,0,0,1,1-2.16,3.94,3.94,0,0,1,2.62-.83,3.66,3.66,0,0,1,3.11,1.25,2.69,2.69,0,0,1,.58,1.7h-1.49a1.82,1.82,0,0,0-.39-1,2.52,2.52,0,0,0-1.93-.62,2.39,2.39,0,0,0-1.39.34,1.07,1.07,0,0,0-.48.91,1.12,1.12,0,0,0,.62,1,4.07,4.07,0,0,0,1.06.38l1.07.26a8.16,8.16,0,0,1,2.33.8,2.12,2.12,0,0,1,.92,1.91,2.88,2.88,0,0,1-1,2.17,4.13,4.13,0,0,1-2.94.91,4,4,0,0,1-3-1,3.6,3.6,0,0,1-1-2.36Z"/><path class="cls-1" d="M119.12,213.59a2.22,2.22,0,0,0,.41,1.21,2.54,2.54,0,0,0,2.11.76,3.11,3.11,0,0,0,1.58-.38,1.25,1.25,0,0,0,.68-1.18,1,1,0,0,0-.54-.92,6.37,6.37,0,0,0-1.38-.45l-1.27-.32a6.57,6.57,0,0,1-1.81-.66,2,2,0,0,1-1-1.78,2.69,2.69,0,0,1,1-2.16,3.94,3.94,0,0,1,2.62-.83,3.66,3.66,0,0,1,3.11,1.25,2.69,2.69,0,0,1,.58,1.7h-1.49a1.82,1.82,0,0,0-.39-1,2.52,2.52,0,0,0-1.93-.62,2.39,2.39,0,0,0-1.39.34,1.07,1.07,0,0,0-.48.91,1.12,1.12,0,0,0,.62,1,4.07,4.07,0,0,0,1.06.38l1.07.26a8.16,8.16,0,0,1,2.33.8,2.12,2.12,0,0,1,.92,1.91,2.88,2.88,0,0,1-1,2.17,4.13,4.13,0,0,1-2.94.91,4,4,0,0,1-3-1,3.6,3.6,0,0,1-1-2.36Z"/><path class="cls-1" d="M133,207.39a3.62,3.62,0,0,1,1.42,1.21,4.4,4.4,0,0,1,.63,1.67,11.12,11.12,0,0,1,.14,2.07h-6.85a4,4,0,0,0,.67,2.3,2.25,2.25,0,0,0,2,.87,2.49,2.49,0,0,0,2-.82,2.77,2.77,0,0,0,.58-1.1h1.56a3.27,3.27,0,0,1-.41,1.15,3.77,3.77,0,0,1-.78,1,3.55,3.55,0,0,1-1.77.95,5,5,0,0,1-1.28.14,3.93,3.93,0,0,1-3-1.27,5,5,0,0,1-1.21-3.59,5.4,5.4,0,0,1,1.22-3.68,4,4,0,0,1,3.2-1.41A4.19,4.19,0,0,1,133,207.39Zm.56,3.69a4.11,4.11,0,0,0-.44-1.64A2.28,2.28,0,0,0,131,208.3a2.4,2.4,0,0,0-1.81.78,3,3,0,0,0-.77,2Z"/><path class="cls-1" d="M138.13,213.59a2.31,2.31,0,0,0,.41,1.21,2.54,2.54,0,0,0,2.11.76,3.11,3.11,0,0,0,1.58-.38,1.25,1.25,0,0,0,.68-1.18,1,1,0,0,0-.54-.92,6.37,6.37,0,0,0-1.38-.45l-1.27-.32a6.57,6.57,0,0,1-1.81-.66,2,2,0,0,1-1-1.78,2.69,2.69,0,0,1,1-2.16,3.94,3.94,0,0,1,2.62-.83,3.66,3.66,0,0,1,3.11,1.25,2.69,2.69,0,0,1,.58,1.7h-1.49a1.82,1.82,0,0,0-.39-1,2.52,2.52,0,0,0-1.93-.62,2.41,2.41,0,0,0-1.39.34,1.07,1.07,0,0,0-.48.91,1.11,1.11,0,0,0,.63,1,3.85,3.85,0,0,0,1,.38l1.07.26a8.16,8.16,0,0,1,2.33.8,2.12,2.12,0,0,1,.92,1.91,2.88,2.88,0,0,1-1,2.17,4.13,4.13,0,0,1-2.94.91,4,4,0,0,1-3-1,3.6,3.6,0,0,1-.95-2.36Z"/><path class="cls-1" d="M146.53,218.39a1.13,1.13,0,0,0,.85-.86,2.39,2.39,0,0,0,.13-.77v-.11a.61.61,0,0,0,0-.11h-.95v-1.92h1.88v1.78a3.87,3.87,0,0,1-.42,1.84,2,2,0,0,1-1.46,1Z"/><path class="cls-1" d="M156.51,204.5h1.6v2.63h1.5v1.29h-1.5v6.14a.67.67,0,0,0,.33.66,1.37,1.37,0,0,0,.62.1h.25l.3,0v1.26a3.47,3.47,0,0,1-.56.11,4.31,4.31,0,0,1-.64,0,1.7,1.7,0,0,1-1.5-.57,2.46,2.46,0,0,1-.4-1.47v-6.23h-1.27v-1.29h1.27Z"/><path class="cls-1" d="M161.24,207.13h1.5v1.62a3.75,3.75,0,0,1,.91-1.15,2.31,2.31,0,0,1,1.66-.68h.15l.36,0v1.67l-.26,0h-.26a2.24,2.24,0,0,0-1.84.77,2.71,2.71,0,0,0-.64,1.77v5.41h-1.58Z"/><path class="cls-1" d="M172.23,210.84a.82.82,0,0,0,.73-.45,1.41,1.41,0,0,0,.11-.61,1.31,1.31,0,0,0-.57-1.18,3.15,3.15,0,0,0-1.65-.37,2.07,2.07,0,0,0-1.75.68,2.12,2.12,0,0,0-.38,1.1h-1.48a2.75,2.75,0,0,1,1.13-2.43,4.65,4.65,0,0,1,2.51-.68,5.14,5.14,0,0,1,2.7.63,2.16,2.16,0,0,1,1,2v5.42a.68.68,0,0,0,.1.4.48.48,0,0,0,.42.15h.24l.28,0v1.16a5,5,0,0,1-.56.14l-.53,0a1.28,1.28,0,0,1-1.18-.58,2.28,2.28,0,0,1-.28-.87,4,4,0,0,1-1.38,1.1,4.33,4.33,0,0,1-2,.47,3,3,0,0,1-2.14-.8,2.65,2.65,0,0,1-.83-2,2.53,2.53,0,0,1,.82-2,3.87,3.87,0,0,1,2.14-.89Zm-3.33,4.28a1.89,1.89,0,0,0,1.19.39,3.7,3.7,0,0,0,1.62-.38A2.18,2.18,0,0,0,173,213v-1.27a2.93,2.93,0,0,1-.75.3,4.78,4.78,0,0,1-.9.18l-.95.12a3.81,3.81,0,0,0-1.29.36,1.42,1.42,0,0,0-.74,1.32A1.32,1.32,0,0,0,168.9,215.12Z"/><path class="cls-1" d="M177.2,207.13h1.5v1.33a4.24,4.24,0,0,1,1.42-1.18,3.78,3.78,0,0,1,1.66-.36,2.74,2.74,0,0,1,2.71,1.39,5.1,5.1,0,0,1,.38,2.19v6h-1.61v-5.93a3.2,3.2,0,0,0-.25-1.39,1.54,1.54,0,0,0-1.53-.88,3.35,3.35,0,0,0-.92.11,2.3,2.3,0,0,0-1.14.78,2.28,2.28,0,0,0-.52,1,6.38,6.38,0,0,0-.12,1.42v4.93H177.2Z"/><path class="cls-1" d="M188.15,213.59a2.31,2.31,0,0,0,.4,1.21,2.58,2.58,0,0,0,2.12.76,3.11,3.11,0,0,0,1.58-.38,1.25,1.25,0,0,0,.68-1.18,1,1,0,0,0-.54-.92,6.37,6.37,0,0,0-1.38-.45l-1.27-.32a6.57,6.57,0,0,1-1.81-.66,2,2,0,0,1-1-1.78,2.7,2.7,0,0,1,1-2.16,3.92,3.92,0,0,1,2.62-.83,3.66,3.66,0,0,1,3.11,1.25,2.69,2.69,0,0,1,.58,1.7h-1.49a1.82,1.82,0,0,0-.39-1,2.52,2.52,0,0,0-1.93-.62,2.39,2.39,0,0,0-1.39.34,1.07,1.07,0,0,0-.48.91,1.12,1.12,0,0,0,.62,1,3.94,3.94,0,0,0,1.06.38l1.07.26a8.06,8.06,0,0,1,2.32.8,2.11,2.11,0,0,1,.93,1.91,2.92,2.92,0,0,1-1,2.17,4.13,4.13,0,0,1-2.94.91,4,4,0,0,1-3-1,3.6,3.6,0,0,1-1-2.36Z"/><path class="cls-1" d="M196.08,207.17h1.55v1.25a3.59,3.59,0,0,1,1-1,3.27,3.27,0,0,1,1.88-.53,3.55,3.55,0,0,1,2.72,1.22,5,5,0,0,1,1.12,3.51c0,2.05-.53,3.51-1.61,4.39a3.64,3.64,0,0,1-2.38.84,3.22,3.22,0,0,1-1.79-.47,4,4,0,0,1-1-.9v4.8h-1.58Zm5.95,7.38a4.4,4.4,0,0,0,.74-2.77,5.15,5.15,0,0,0-.33-1.94,2.39,2.39,0,0,0-4.51.09,6.44,6.44,0,0,0-.33,2.23,4.69,4.69,0,0,0,.33,1.86,2.39,2.39,0,0,0,4.1.53Z"/><path class="cls-1" d="M213,208.07a4.75,4.75,0,0,1,1.25,3.56,6.16,6.16,0,0,1-1.1,3.76,4,4,0,0,1-3.41,1.48,3.84,3.84,0,0,1-3.07-1.31,5.22,5.22,0,0,1-1.13-3.52,5.64,5.64,0,0,1,1.2-3.78,4,4,0,0,1,3.21-1.41A4.21,4.21,0,0,1,213,208.07Zm-1,6.25a5.88,5.88,0,0,0,.58-2.64,4.76,4.76,0,0,0-.42-2.15,2.35,2.35,0,0,0-2.28-1.3,2.23,2.23,0,0,0-2.08,1.11,5.13,5.13,0,0,0-.65,2.67,4.45,4.45,0,0,0,.65,2.5,2.27,2.27,0,0,0,2.07,1A2.15,2.15,0,0,0,212.06,214.32Z"/><path class="cls-1" d="M216.28,207.13h1.5v1.62a3.54,3.54,0,0,1,.9-1.15,2.35,2.35,0,0,1,1.67-.68h.15l.36,0v1.67l-.26,0h-.26a2.24,2.24,0,0,0-1.84.77,2.66,2.66,0,0,0-.64,1.77v5.41h-1.58Z"/><path class="cls-1" d="M222.54,204.5h1.6v2.63h1.51v1.29h-1.51v6.14a.66.66,0,0,0,.34.66,1.29,1.29,0,0,0,.61.1h.25l.31,0v1.26a3.82,3.82,0,0,1-.57.11,4.31,4.31,0,0,1-.64,0,1.7,1.7,0,0,1-1.5-.57,2.46,2.46,0,0,1-.4-1.47v-6.23h-1.27v-1.29h1.27Z"/><path class="cls-1" d="M233,207.39a3.59,3.59,0,0,1,1.43,1.21,4.23,4.23,0,0,1,.62,1.67,10.3,10.3,0,0,1,.14,2.07h-6.84a4,4,0,0,0,.67,2.3,2.24,2.24,0,0,0,1.94.87,2.51,2.51,0,0,0,2-.82,2.91,2.91,0,0,0,.58-1.1h1.55a3.27,3.27,0,0,1-.41,1.15,4,4,0,0,1-.77,1,3.64,3.64,0,0,1-1.77.95,5.07,5.07,0,0,1-1.28.14,3.9,3.9,0,0,1-3-1.27,5,5,0,0,1-1.22-3.59,5.45,5.45,0,0,1,1.22-3.68,4.05,4.05,0,0,1,3.2-1.41A4.14,4.14,0,0,1,233,207.39Zm.57,3.69a4.1,4.1,0,0,0-.45-1.64A2.27,2.27,0,0,0,231,208.3a2.38,2.38,0,0,0-1.81.78,3,3,0,0,0-.78,2Z"/><path class="cls-1" d="M238.15,214.61H240v1.93h-1.84Zm6,1.93v-1.93H246v1.93Zm6,0v-1.93H252v1.93Z"/><path class="cls-1" d="M98.76,248v1.54H94.41v11.37H92.64V249.57H88.29V248Z"/><path class="cls-1" d="M104,251.79A3.53,3.53,0,0,1,105.4,253a4.29,4.29,0,0,1,.63,1.66,11.12,11.12,0,0,1,.14,2.07H99.32a4.08,4.08,0,0,0,.67,2.31,2.27,2.27,0,0,0,2,.86,2.49,2.49,0,0,0,2-.82,2.77,2.77,0,0,0,.58-1.1H106a3.49,3.49,0,0,1-.41,1.15,4.22,4.22,0,0,1-.78,1.05,3.71,3.71,0,0,1-1.77.95,5.51,5.51,0,0,1-1.28.14,3.93,3.93,0,0,1-3-1.28,5,5,0,0,1-1.22-3.58,5.43,5.43,0,0,1,1.23-3.69,4,4,0,0,1,3.19-1.41A4.14,4.14,0,0,1,104,251.79Zm.57,3.69a4.11,4.11,0,0,0-.44-1.64,2.28,2.28,0,0,0-2.16-1.14,2.38,2.38,0,0,0-1.81.78,3,3,0,0,0-.77,2Z"/><path class="cls-1" d="M108.17,251.53h1.5v1.33a4.24,4.24,0,0,1,1.42-1.18,3.78,3.78,0,0,1,1.66-.36,2.73,2.73,0,0,1,2.71,1.4,5,5,0,0,1,.38,2.18v6h-1.6V255a3.22,3.22,0,0,0-.26-1.39,1.54,1.54,0,0,0-1.53-.88,3,3,0,0,0-.92.12,2.22,2.22,0,0,0-1.14.77,2.28,2.28,0,0,0-.52,1,6.44,6.44,0,0,0-.12,1.42v4.93h-1.58Z"/><path class="cls-1" d="M118.18,248h1.58v4.81a4.9,4.9,0,0,1,1-1,3.46,3.46,0,0,1,1.91-.5,2.83,2.83,0,0,1,2.78,1.43,5,5,0,0,1,.39,2.17v6h-1.62V255a3.25,3.25,0,0,0-.27-1.52,1.66,1.66,0,0,0-1.61-.77,2.71,2.71,0,0,0-1.79.67,3.28,3.28,0,0,0-.8,2.56v5h-1.58Z"/><path class="cls-1" d="M133.24,255.25a.88.88,0,0,0,.73-.46,1.43,1.43,0,0,0,.1-.61,1.31,1.31,0,0,0-.57-1.18,3.13,3.13,0,0,0-1.65-.36,2.07,2.07,0,0,0-1.75.67,2.25,2.25,0,0,0-.38,1.1h-1.47a2.72,2.72,0,0,1,1.12-2.43,4.68,4.68,0,0,1,2.52-.68,5.13,5.13,0,0,1,2.69.63,2.14,2.14,0,0,1,1,2v5.43a.67.67,0,0,0,.1.39.49.49,0,0,0,.43.15h.24l.28,0V261a5,5,0,0,1-.57.13,3.79,3.79,0,0,1-.52,0,1.3,1.3,0,0,1-1.19-.58,2.12,2.12,0,0,1-.27-.87,4,4,0,0,1-1.39,1.1,4.3,4.3,0,0,1-2,.47,3,3,0,0,1-2.14-.8,2.64,2.64,0,0,1-.83-2,2.57,2.57,0,0,1,.82-2,3.9,3.9,0,0,1,2.14-.89Zm-3.33,4.27a1.86,1.86,0,0,0,1.18.39,3.7,3.7,0,0,0,1.62-.38,2.18,2.18,0,0,0,1.32-2.1v-1.27a3,3,0,0,1-.75.31,5.8,5.8,0,0,1-.89.17l-1,.13a3.68,3.68,0,0,0-1.29.35,1.41,1.41,0,0,0-.73,1.32A1.28,1.28,0,0,0,129.91,259.52Z"/><path class="cls-1" d="M144.79,251.53v6.25A2.7,2.7,0,0,0,145,259a1.54,1.54,0,0,0,1.53.84,2.16,2.16,0,0,0,2.19-1.48,6,6,0,0,0,.32-2.17v-4.62h1.58v9.41h-1.49v-1.39a3.18,3.18,0,0,1-.75.91,3.26,3.26,0,0,1-2.15.74,2.75,2.75,0,0,1-2.69-1.35,4,4,0,0,1-.39-1.92v-6.4Z"/><path class="cls-1" d="M153.21,251.53h1.57v1.33a5,5,0,0,1,1-1,3.1,3.1,0,0,1,1.77-.53,2.77,2.77,0,0,1,1.81.55,2.84,2.84,0,0,1,.71.93,3.26,3.26,0,0,1,2.84-1.48,2.61,2.61,0,0,1,2.58,1.37,4.41,4.41,0,0,1,.37,2v6.26h-1.64V254.4a1.55,1.55,0,0,0-.47-1.29,1.91,1.91,0,0,0-1.15-.35,2.28,2.28,0,0,0-1.6.62,2.75,2.75,0,0,0-.68,2.09v5.47h-1.61V254.8a3.25,3.25,0,0,0-.22-1.4,1.4,1.4,0,0,0-1.35-.66,2.29,2.29,0,0,0-1.63.7,3.39,3.39,0,0,0-.73,2.51v5h-1.59Z"/><path class="cls-1" d="M173.08,248h1.54v4.68a3.48,3.48,0,0,1,2.81-1.39,3.69,3.69,0,0,1,2.86,1.21,5.11,5.11,0,0,1,1.1,3.57,6.1,6.1,0,0,1-1.08,3.7,3.53,3.53,0,0,1-3,1.48,3.08,3.08,0,0,1-1.82-.52,4.23,4.23,0,0,1-.94-1v1.2h-1.46Zm6,10.83a5,5,0,0,0,.64-2.69,4.45,4.45,0,0,0-.64-2.46,2.12,2.12,0,0,0-1.89-1,2.62,2.62,0,0,0-1.9.8,3.58,3.58,0,0,0-.81,2.63,5.91,5.91,0,0,0,.33,2.16,2.33,2.33,0,0,0,2.34,1.55A2.13,2.13,0,0,0,179.13,258.82Z"/><path class="cls-1" d="M188.27,255.25a.88.88,0,0,0,.73-.46,1.43,1.43,0,0,0,.1-.61,1.31,1.31,0,0,0-.57-1.18,3.16,3.16,0,0,0-1.65-.36,2.07,2.07,0,0,0-1.75.67,2.15,2.15,0,0,0-.38,1.1h-1.48A2.75,2.75,0,0,1,184.4,252a4.66,4.66,0,0,1,2.52-.68,5.13,5.13,0,0,1,2.69.63,2.14,2.14,0,0,1,1,2v5.43a.67.67,0,0,0,.1.39.49.49,0,0,0,.43.15h.23l.28,0V261a4.52,4.52,0,0,1-.56.13,3.87,3.87,0,0,1-.53,0,1.28,1.28,0,0,1-1.18-.58,2.12,2.12,0,0,1-.27-.87,4,4,0,0,1-1.39,1.1,4.33,4.33,0,0,1-2,.47,3,3,0,0,1-2.14-.8,2.64,2.64,0,0,1-.83-2,2.54,2.54,0,0,1,.82-2,3.87,3.87,0,0,1,2.14-.89Zm-3.34,4.27a1.89,1.89,0,0,0,1.19.39,3.7,3.7,0,0,0,1.62-.38,2.18,2.18,0,0,0,1.32-2.1v-1.27a3.14,3.14,0,0,1-.75.31,5.8,5.8,0,0,1-.89.17l-1,.13a3.68,3.68,0,0,0-1.29.35,1.42,1.42,0,0,0-.74,1.32A1.3,1.3,0,0,0,184.93,259.52Z"/><path class="cls-1" d="M193.23,251.53h1.5v1.33a4.24,4.24,0,0,1,1.42-1.18,3.78,3.78,0,0,1,1.66-.36,2.73,2.73,0,0,1,2.71,1.4,4.9,4.9,0,0,1,.38,2.18v6h-1.6V255a3.22,3.22,0,0,0-.26-1.39,1.54,1.54,0,0,0-1.53-.88,3,3,0,0,0-.92.12,2.59,2.59,0,0,0-1.66,1.73,6.44,6.44,0,0,0-.12,1.42v4.93h-1.58Z"/><path class="cls-1" d="M209.46,252a3.67,3.67,0,0,1,1.2,2.66h-1.54a2.81,2.81,0,0,0-.64-1.44,2,2,0,0,0-1.61-.58,2.21,2.21,0,0,0-2.16,1.48,5.83,5.83,0,0,0-.42,2.36,4.45,4.45,0,0,0,.6,2.38,2,2,0,0,0,1.88,1,2.08,2.08,0,0,0,1.56-.6,3.24,3.24,0,0,0,.79-1.64h1.54a3.71,3.71,0,0,1-4,3.6,3.61,3.61,0,0,1-2.94-1.34,5.2,5.2,0,0,1-1.1-3.38,5.67,5.67,0,0,1,1.2-3.85,3.91,3.91,0,0,1,3.07-1.38A4.07,4.07,0,0,1,209.46,252Z"/><path class="cls-1" d="M219.06,252.47a4.75,4.75,0,0,1,1.25,3.56,6.16,6.16,0,0,1-1.1,3.76,4,4,0,0,1-3.41,1.49,3.81,3.81,0,0,1-3.06-1.32,5.17,5.17,0,0,1-1.14-3.52,5.64,5.64,0,0,1,1.2-3.78,4,4,0,0,1,3.21-1.4A4.2,4.2,0,0,1,219.06,252.47Zm-1,6.25a5.88,5.88,0,0,0,.58-2.64,4.71,4.71,0,0,0-.42-2.14,2.34,2.34,0,0,0-2.28-1.3,2.22,2.22,0,0,0-2.08,1.1,5.13,5.13,0,0,0-.65,2.67,4.43,4.43,0,0,0,.65,2.5,2.27,2.27,0,0,0,2.07,1A2.14,2.14,0,0,0,218.08,258.72Z"/><path class="cls-1" d="M232.43,251.82a4.16,4.16,0,0,1,.95.92V248h1.52v12.95h-1.42v-1.31a3.48,3.48,0,0,1-1.31,1.26,3.69,3.69,0,0,1-1.72.39,3.51,3.51,0,0,1-2.72-1.33,5.19,5.19,0,0,1-1.14-3.52,6.05,6.05,0,0,1,1-3.56,3.42,3.42,0,0,1,3-1.51A3.31,3.31,0,0,1,232.43,251.82Zm-3.54,7.06a2.24,2.24,0,0,0,2.05,1,2.16,2.16,0,0,0,1.8-.95,4.47,4.47,0,0,0,.7-2.71,4,4,0,0,0-.72-2.64,2.29,2.29,0,0,0-1.8-.86,2.35,2.35,0,0,0-1.92.92,4.15,4.15,0,0,0-.74,2.69A4.75,4.75,0,0,0,228.89,258.88Z"/><path class="cls-1" d="M243.08,251.79A3.5,3.5,0,0,1,244.5,253a4,4,0,0,1,.63,1.66,11.12,11.12,0,0,1,.14,2.07h-6.85a4.08,4.08,0,0,0,.68,2.31,2.23,2.23,0,0,0,1.94.86,2.49,2.49,0,0,0,2-.82,2.65,2.65,0,0,0,.58-1.1h1.56a3.27,3.27,0,0,1-.41,1.15,4.2,4.2,0,0,1-.77,1.05,3.81,3.81,0,0,1-1.77.95,5.6,5.6,0,0,1-1.29.14,3.94,3.94,0,0,1-3-1.28,5,5,0,0,1-1.21-3.58,5.47,5.47,0,0,1,1.22-3.69,4,4,0,0,1,3.2-1.41A4.16,4.16,0,0,1,243.08,251.79Zm.57,3.69a4.27,4.27,0,0,0-.45-1.64,2.28,2.28,0,0,0-2.15-1.14,2.37,2.37,0,0,0-1.81.78,3,3,0,0,0-.78,2Z"/><path class="cls-1" d="M252.14,251.57h1.55v1.25a3.86,3.86,0,0,1,1-1,3.38,3.38,0,0,1,1.89-.53,3.54,3.54,0,0,1,2.72,1.23,5,5,0,0,1,1.12,3.5q0,3.08-1.62,4.39a3.62,3.62,0,0,1-2.38.84,3.24,3.24,0,0,1-1.79-.47,4,4,0,0,1-.94-.9v4.8h-1.59Zm6,7.38a4.4,4.4,0,0,0,.73-2.77,5.36,5.36,0,0,0-.32-1.94,2.4,2.4,0,0,0-4.52.09,6.46,6.46,0,0,0-.32,2.23,4.7,4.7,0,0,0,.32,1.86,2.4,2.4,0,0,0,4.11.53Z"/><path class="cls-1" d="M268.1,251.79a3.6,3.6,0,0,1,1.43,1.22,4.13,4.13,0,0,1,.62,1.66,10.3,10.3,0,0,1,.14,2.07h-6.84a4.08,4.08,0,0,0,.67,2.31,2.26,2.26,0,0,0,1.94.86,2.51,2.51,0,0,0,2-.82,2.91,2.91,0,0,0,.58-1.1h1.55a3.27,3.27,0,0,1-.41,1.15,4.2,4.2,0,0,1-.77,1.05,3.81,3.81,0,0,1-1.77.95,5.58,5.58,0,0,1-1.28.14,4,4,0,0,1-3-1.28,5.05,5.05,0,0,1-1.21-3.58,5.47,5.47,0,0,1,1.22-3.69,4,4,0,0,1,3.2-1.41A4.14,4.14,0,0,1,268.1,251.79Zm.57,3.69a4.1,4.1,0,0,0-.45-1.64,2.27,2.27,0,0,0-2.15-1.14,2.38,2.38,0,0,0-1.81.78,3,3,0,0,0-.78,2Z"/><path class="cls-1" d="M272.34,251.53h1.5v1.62a3.75,3.75,0,0,1,.91-1.15,2.31,2.31,0,0,1,1.66-.68h.15l.36,0V253l-.26,0h-.26a2.22,2.22,0,0,0-1.83.77,2.67,2.67,0,0,0-.65,1.77v5.41h-1.58Z"/><path class="cls-1" d="M279,248.65a2.45,2.45,0,0,1,2.14-.8h.3l.36,0v1.44l-.36,0h-.2c-.49,0-.78.12-.88.37a7.56,7.56,0,0,0-.14,1.9h1.58v1.25h-1.58v8.12h-1.56v-8.12h-1.31v-1.25h1.31V250.1A2.88,2.88,0,0,1,279,248.65Z"/><path class="cls-1" d="M283.29,248h1.61v1.79h-1.61Zm0,3.54h1.61v9.37h-1.61Z"/><path class="cls-1" d="M287.34,248h1.58v12.91h-1.58Z"/><path class="cls-1" d="M94.33,272.82a4.17,4.17,0,0,1,1,.92V269h1.52v12.95H95.38v-1.31a3.46,3.46,0,0,1-1.3,1.26,3.71,3.71,0,0,1-1.73.39A3.49,3.49,0,0,1,89.64,281a5.2,5.2,0,0,1-1.15-3.52,6.06,6.06,0,0,1,1.05-3.56,3.41,3.41,0,0,1,3-1.51A3.25,3.25,0,0,1,94.33,272.82Zm-3.53,7.06a2.24,2.24,0,0,0,2,1,2.14,2.14,0,0,0,1.79-.95,4.46,4.46,0,0,0,.71-2.71,4,4,0,0,0-.73-2.64,2.26,2.26,0,0,0-1.79-.86,2.37,2.37,0,0,0-1.93.92,4.21,4.21,0,0,0-.74,2.69A4.75,4.75,0,0,0,90.8,279.88Z"/><path class="cls-1" d="M106,273.47a4.75,4.75,0,0,1,1.25,3.56,6.16,6.16,0,0,1-1.1,3.76,4,4,0,0,1-3.41,1.49A3.84,3.84,0,0,1,99.66,281a5.22,5.22,0,0,1-1.13-3.52,5.69,5.69,0,0,1,1.19-3.78,4,4,0,0,1,3.22-1.4A4.2,4.2,0,0,1,106,273.47Zm-1,6.25a6,6,0,0,0,.58-2.64,4.71,4.71,0,0,0-.42-2.14,2.34,2.34,0,0,0-2.28-1.3,2.22,2.22,0,0,0-2.08,1.1,5.13,5.13,0,0,0-.65,2.67,4.43,4.43,0,0,0,.65,2.5,2.27,2.27,0,0,0,2.07,1A2.15,2.15,0,0,0,105,279.72Z"/><path class="cls-1" d="M110.12,279a2.19,2.19,0,0,0,.41,1.21,2.55,2.55,0,0,0,2.11.77,3.11,3.11,0,0,0,1.58-.39,1.24,1.24,0,0,0,.68-1.18,1,1,0,0,0-.54-.92A6.37,6.37,0,0,0,113,278l-1.27-.32a6.26,6.26,0,0,1-1.81-.66,2,2,0,0,1-1-1.78,2.69,2.69,0,0,1,1-2.16,3.94,3.94,0,0,1,2.62-.83,3.66,3.66,0,0,1,3.11,1.25,2.7,2.7,0,0,1,.58,1.71h-1.49a1.76,1.76,0,0,0-.39-1,2.49,2.49,0,0,0-1.93-.62A2.32,2.32,0,0,0,111,274a1,1,0,0,0-.48.9,1.12,1.12,0,0,0,.62,1,4,4,0,0,0,1.06.39l1.07.25a8.49,8.49,0,0,1,2.33.8,2.12,2.12,0,0,1,.92,1.91,2.87,2.87,0,0,1-1,2.17,4.13,4.13,0,0,1-2.94.91,4,4,0,0,1-3-.95,3.58,3.58,0,0,1-1-2.36Z"/><path class="cls-1" d="M124.12,279a2.28,2.28,0,0,0,.41,1.21,2.55,2.55,0,0,0,2.11.77,3.11,3.11,0,0,0,1.58-.39,1.24,1.24,0,0,0,.68-1.18,1,1,0,0,0-.54-.92A6.37,6.37,0,0,0,127,278l-1.27-.32a6.26,6.26,0,0,1-1.81-.66,2,2,0,0,1-1-1.78,2.69,2.69,0,0,1,1-2.16,3.94,3.94,0,0,1,2.62-.83,3.66,3.66,0,0,1,3.11,1.25,2.7,2.7,0,0,1,.58,1.71h-1.49a1.76,1.76,0,0,0-.39-1,2.49,2.49,0,0,0-1.93-.62A2.34,2.34,0,0,0,125,274a1,1,0,0,0-.48.9,1.11,1.11,0,0,0,.63,1,3.81,3.81,0,0,0,1.05.39l1.07.25a8.49,8.49,0,0,1,2.33.8,2.12,2.12,0,0,1,.92,1.91,2.87,2.87,0,0,1-1,2.17,4.13,4.13,0,0,1-2.94.91,4,4,0,0,1-3-.95,3.58,3.58,0,0,1-1-2.36Z"/><path class="cls-1" d="M138,272.79a3.56,3.56,0,0,1,1.42,1.22,4.14,4.14,0,0,1,.63,1.66,11.12,11.12,0,0,1,.14,2.07h-6.85a4.16,4.16,0,0,0,.67,2.31,2.27,2.27,0,0,0,2,.86,2.49,2.49,0,0,0,2-.82,2.77,2.77,0,0,0,.58-1.1h1.56a3.27,3.27,0,0,1-.41,1.15,4,4,0,0,1-.78,1.05,3.71,3.71,0,0,1-1.77.95,5.45,5.45,0,0,1-1.28.14,3.94,3.94,0,0,1-3-1.28,5,5,0,0,1-1.21-3.58,5.42,5.42,0,0,1,1.22-3.69,4,4,0,0,1,3.2-1.41A4.19,4.19,0,0,1,138,272.79Zm.56,3.69a4.11,4.11,0,0,0-.44-1.64A2.28,2.28,0,0,0,136,273.7a2.41,2.41,0,0,0-1.82.78,3.06,3.06,0,0,0-.77,2Z"/><path class="cls-1" d="M143.78,272.53v6.25A2.7,2.7,0,0,0,144,280a1.54,1.54,0,0,0,1.53.84,2.16,2.16,0,0,0,2.19-1.48,6,6,0,0,0,.32-2.17v-4.62h1.58v9.41h-1.49v-1.39a3.18,3.18,0,0,1-.75.91,3.26,3.26,0,0,1-2.15.74,2.75,2.75,0,0,1-2.69-1.35,4,4,0,0,1-.39-1.92v-6.4Z"/><path class="cls-1" d="M153.14,279a2.28,2.28,0,0,0,.41,1.21,2.57,2.57,0,0,0,2.12.77,3.1,3.1,0,0,0,1.57-.39,1.25,1.25,0,0,0,.69-1.18,1,1,0,0,0-.55-.92A6.37,6.37,0,0,0,156,278l-1.27-.32a6.26,6.26,0,0,1-1.81-.66,2,2,0,0,1-1-1.78,2.69,2.69,0,0,1,1-2.16,4,4,0,0,1,2.63-.83,3.66,3.66,0,0,1,3.1,1.25,2.64,2.64,0,0,1,.58,1.71h-1.49a1.76,1.76,0,0,0-.39-1,2.47,2.47,0,0,0-1.93-.62A2.34,2.34,0,0,0,154,274a1,1,0,0,0-.47.9,1.1,1.1,0,0,0,.62,1,4,4,0,0,0,1,.39l1.07.25a8.49,8.49,0,0,1,2.33.8,2.12,2.12,0,0,1,.92,1.91,2.87,2.87,0,0,1-1,2.17,4.13,4.13,0,0,1-2.94.91,4,4,0,0,1-3-.95,3.63,3.63,0,0,1-.95-2.36Z"/><path class="cls-1" d="M166.07,272.57h1.55v1.25a3.72,3.72,0,0,1,1-1,3.35,3.35,0,0,1,1.89-.53,3.54,3.54,0,0,1,2.72,1.23,5,5,0,0,1,1.12,3.5q0,3.08-1.62,4.39a3.62,3.62,0,0,1-2.38.84,3.24,3.24,0,0,1-1.79-.47,4,4,0,0,1-.94-.9v4.8h-1.59Zm6,7.38a4.4,4.4,0,0,0,.73-2.77,5.36,5.36,0,0,0-.32-1.94,2.4,2.4,0,0,0-4.52.09,6.44,6.44,0,0,0-.33,2.23,4.69,4.69,0,0,0,.33,1.86,2.25,2.25,0,0,0,2.26,1.46A2.28,2.28,0,0,0,172,280Z"/><path class="cls-1" d="M181.26,276.25a.86.86,0,0,0,.73-.46,1.41,1.41,0,0,0,.11-.61,1.31,1.31,0,0,0-.58-1.18,3.09,3.09,0,0,0-1.64-.36,2.09,2.09,0,0,0-1.76.67,2.16,2.16,0,0,0-.37,1.1h-1.48A2.73,2.73,0,0,1,177.4,273a4.65,4.65,0,0,1,2.51-.68,5.14,5.14,0,0,1,2.7.63,2.15,2.15,0,0,1,1,2v5.43a.67.67,0,0,0,.11.39q.09.15.42.15h.24l.28,0V282a5,5,0,0,1-.56.13,4,4,0,0,1-.53,0,1.31,1.31,0,0,1-1.19-.58,2.12,2.12,0,0,1-.27-.87,3.86,3.86,0,0,1-1.39,1.1,4.29,4.29,0,0,1-2,.47,3,3,0,0,1-2.14-.8,2.61,2.61,0,0,1-.83-2,2.56,2.56,0,0,1,.81-2,3.9,3.9,0,0,1,2.15-.89Zm-3.33,4.27a1.87,1.87,0,0,0,1.19.39,3.69,3.69,0,0,0,1.61-.38,2.18,2.18,0,0,0,1.32-2.1v-1.27a3,3,0,0,1-.74.31,6.16,6.16,0,0,1-.9.17l-.95.13a3.68,3.68,0,0,0-1.3.35,1.41,1.41,0,0,0-.73,1.32A1.3,1.3,0,0,0,177.93,280.52Z"/><path class="cls-1" d="M186.27,272.53h1.5v1.62a3.75,3.75,0,0,1,.91-1.15,2.31,2.31,0,0,1,1.66-.68h.15l.36,0V274l-.26,0h-.26a2.24,2.24,0,0,0-1.84.77,2.71,2.71,0,0,0-.64,1.77v5.41h-1.58Z"/><path class="cls-1" d="M192.54,269.9h1.6v2.63h1.5v1.29h-1.5V280a.67.67,0,0,0,.33.66,1.34,1.34,0,0,0,.62.1h.24l.31,0v1.25a4.78,4.78,0,0,1-.57.12,6.19,6.19,0,0,1-.63,0,1.73,1.73,0,0,1-1.51-.57,2.51,2.51,0,0,1-.39-1.47v-6.23h-1.28v-1.29h1.28Z"/><path class="cls-1" d="M197.22,269h1.61v1.79h-1.61Zm0,3.54h1.61v9.37h-1.61Z"/><path class="cls-1" d="M207.44,273a3.75,3.75,0,0,1,1.2,2.66H207.1a2.81,2.81,0,0,0-.64-1.44,2,2,0,0,0-1.61-.58,2.21,2.21,0,0,0-2.16,1.48,5.83,5.83,0,0,0-.42,2.36,4.54,4.54,0,0,0,.59,2.38,2.07,2.07,0,0,0,1.89,1,2,2,0,0,0,1.55-.6,3.25,3.25,0,0,0,.8-1.64h1.54a4.17,4.17,0,0,1-1.32,2.74,4.09,4.09,0,0,1-2.7.86,3.61,3.61,0,0,1-2.94-1.34,5.2,5.2,0,0,1-1.1-3.38,5.67,5.67,0,0,1,1.2-3.85,3.91,3.91,0,0,1,3.07-1.38A4.09,4.09,0,0,1,207.44,273Z"/><path class="cls-1" d="M210.22,269h1.61v1.79h-1.61Zm0,3.54h1.61v9.37h-1.61Z"/><path class="cls-1" d="M214.09,272.57h1.54v1.25a3.86,3.86,0,0,1,1-1,3.4,3.4,0,0,1,1.89-.53,3.53,3.53,0,0,1,2.72,1.23,5,5,0,0,1,1.12,3.5q0,3.08-1.61,4.39a3.64,3.64,0,0,1-2.38.84,3.28,3.28,0,0,1-1.8-.47,4.23,4.23,0,0,1-.94-.9v4.8h-1.58ZM220,280a4.4,4.4,0,0,0,.74-2.77,5.15,5.15,0,0,0-.33-1.94,2.4,2.4,0,0,0-4.52.09,6.71,6.71,0,0,0-.32,2.23,4.88,4.88,0,0,0,.32,1.86A2.4,2.4,0,0,0,220,280Z"/><path class="cls-1" d="M229.28,276.25a.85.85,0,0,0,.72-.46,1.28,1.28,0,0,0,.11-.61,1.31,1.31,0,0,0-.57-1.18,3.16,3.16,0,0,0-1.65-.36,2.07,2.07,0,0,0-1.75.67,2.15,2.15,0,0,0-.38,1.1h-1.48a2.75,2.75,0,0,1,1.13-2.43,4.66,4.66,0,0,1,2.52-.68,5.13,5.13,0,0,1,2.69.63,2.14,2.14,0,0,1,1,2v5.43a.67.67,0,0,0,.1.39.49.49,0,0,0,.43.15h.23l.28,0V282a4.52,4.52,0,0,1-.56.13,3.87,3.87,0,0,1-.53,0,1.28,1.28,0,0,1-1.18-.58,2.12,2.12,0,0,1-.27-.87,4,4,0,0,1-1.39,1.1,4.33,4.33,0,0,1-2,.47,3,3,0,0,1-2.14-.8,2.64,2.64,0,0,1-.83-2,2.54,2.54,0,0,1,.82-2,3.87,3.87,0,0,1,2.14-.89Zm-3.34,4.27a1.89,1.89,0,0,0,1.19.39,3.7,3.7,0,0,0,1.62-.38,2.18,2.18,0,0,0,1.32-2.1v-1.27a3.14,3.14,0,0,1-.75.31,5.8,5.8,0,0,1-.89.17l-1,.13a3.68,3.68,0,0,0-1.29.35,1.42,1.42,0,0,0-.74,1.32A1.3,1.3,0,0,0,225.94,280.52Z"/><path class="cls-1" d="M234.24,272.53h1.5v1.33a4.24,4.24,0,0,1,1.42-1.18,3.78,3.78,0,0,1,1.66-.36,2.73,2.73,0,0,1,2.71,1.4,4.9,4.9,0,0,1,.38,2.18v6h-1.6V276a3.22,3.22,0,0,0-.26-1.39,1.54,1.54,0,0,0-1.53-.88,3,3,0,0,0-.92.12,2.59,2.59,0,0,0-1.66,1.73,6.44,6.44,0,0,0-.12,1.42v4.93h-1.58Z"/><path class="cls-1" d="M244.57,269.9h1.6v2.63h1.5v1.29h-1.5V280a.67.67,0,0,0,.33.66,1.37,1.37,0,0,0,.62.1h.24l.31,0v1.25a4.78,4.78,0,0,1-.57.12,6.05,6.05,0,0,1-.63,0,1.73,1.73,0,0,1-1.51-.57,2.51,2.51,0,0,1-.39-1.47v-6.23h-1.28v-1.29h1.28Z"/><path class="cls-1" d="M255.07,272.79a3.5,3.5,0,0,1,1.42,1.22,4.14,4.14,0,0,1,.63,1.66,11.12,11.12,0,0,1,.14,2.07h-6.85a4.08,4.08,0,0,0,.68,2.31,2.23,2.23,0,0,0,1.94.86,2.49,2.49,0,0,0,2-.82,2.77,2.77,0,0,0,.58-1.1h1.56a3.27,3.27,0,0,1-.41,1.15,4,4,0,0,1-.78,1.05,3.71,3.71,0,0,1-1.77.95,5.45,5.45,0,0,1-1.28.14,3.94,3.94,0,0,1-3-1.28,5,5,0,0,1-1.21-3.58,5.42,5.42,0,0,1,1.22-3.69,4,4,0,0,1,3.2-1.41A4.19,4.19,0,0,1,255.07,272.79Zm.56,3.69a4.11,4.11,0,0,0-.44-1.64A2.28,2.28,0,0,0,253,273.7a2.41,2.41,0,0,0-1.82.78,3.06,3.06,0,0,0-.77,2Z"/><path class="cls-1" d="M260.2,279a2.28,2.28,0,0,0,.41,1.21,2.55,2.55,0,0,0,2.11.77,3.11,3.11,0,0,0,1.58-.39,1.25,1.25,0,0,0,.69-1.18,1,1,0,0,0-.55-.92,6.37,6.37,0,0,0-1.38-.45l-1.27-.32a6.26,6.26,0,0,1-1.81-.66,2,2,0,0,1-1-1.78,2.69,2.69,0,0,1,1-2.16,4,4,0,0,1,2.63-.83,3.66,3.66,0,0,1,3.1,1.25,2.64,2.64,0,0,1,.58,1.71h-1.49a1.76,1.76,0,0,0-.39-1,2.47,2.47,0,0,0-1.93-.62A2.34,2.34,0,0,0,261,274a1,1,0,0,0-.47.9,1.1,1.1,0,0,0,.62,1,4,4,0,0,0,1.05.39l1.07.25a8.49,8.49,0,0,1,2.33.8,2.12,2.12,0,0,1,.92,1.91,2.87,2.87,0,0,1-1,2.17,4.13,4.13,0,0,1-2.94.91,4,4,0,0,1-3-.95,3.58,3.58,0,0,1-.95-2.36Z"/><path class="cls-1" d="M90.51,322.78a3.67,3.67,0,0,0,.5,1.78,3.26,3.26,0,0,0,3,1.28,5,5,0,0,0,1.73-.28,2,2,0,0,0,1.5-1.95,1.7,1.7,0,0,0-.64-1.5,6.16,6.16,0,0,0-2-.77l-1.7-.39a7.67,7.67,0,0,1-2.35-.85,2.75,2.75,0,0,1-1.19-2.42,3.79,3.79,0,0,1,1.17-2.86,4.64,4.64,0,0,1,3.32-1.11,5.61,5.61,0,0,1,3.36,1,3.56,3.56,0,0,1,1.38,3.13H96.89a3.45,3.45,0,0,0-.54-1.59,3.05,3.05,0,0,0-2.61-1,2.89,2.89,0,0,0-2.13.65,2.08,2.08,0,0,0-.65,1.51,1.49,1.49,0,0,0,.77,1.39,10.67,10.67,0,0,0,2.27.7l1.76.41a5.39,5.39,0,0,1,1.95.82,3.1,3.1,0,0,1,1.2,2.63,3.32,3.32,0,0,1-1.52,3.07,6.77,6.77,0,0,1-3.54.92,5.21,5.21,0,0,1-3.68-1.23,4.22,4.22,0,0,1-1.3-3.31Z"/><path class="cls-1" d="M107,317.79A3.5,3.5,0,0,1,108.4,319a4,4,0,0,1,.63,1.66,10.3,10.3,0,0,1,.14,2.07h-6.84a4.08,4.08,0,0,0,.67,2.31,2.25,2.25,0,0,0,1.94.86,2.47,2.47,0,0,0,2-.82,2.79,2.79,0,0,0,.59-1.1H109a3.27,3.27,0,0,1-.41,1.15,4.2,4.2,0,0,1-.77,1.05,3.81,3.81,0,0,1-1.77.95,5.6,5.6,0,0,1-1.29.14,3.94,3.94,0,0,1-3-1.28,5,5,0,0,1-1.21-3.58,5.47,5.47,0,0,1,1.22-3.69,4,4,0,0,1,3.2-1.41A4.16,4.16,0,0,1,107,317.79Zm.57,3.69a4.1,4.1,0,0,0-.45-1.64A2.27,2.27,0,0,0,105,318.7a2.38,2.38,0,0,0-1.81.78,3,3,0,0,0-.78,2Z"/><path class="cls-1" d="M112.76,317.53v6.25A2.7,2.7,0,0,0,113,325a1.55,1.55,0,0,0,1.53.84,2.17,2.17,0,0,0,2.2-1.48,6,6,0,0,0,.31-2.17v-4.62h1.58v9.41h-1.49l0-1.39a3.35,3.35,0,0,1-.75.91,3.29,3.29,0,0,1-2.16.74,2.76,2.76,0,0,1-2.69-1.35,4,4,0,0,1-.39-1.92v-6.4Z"/><path class="cls-1" d="M126.06,317.57h1.54v1.25a3.86,3.86,0,0,1,1-1,3.4,3.4,0,0,1,1.89-.53,3.53,3.53,0,0,1,2.72,1.23,5,5,0,0,1,1.12,3.5q0,3.08-1.61,4.39a3.67,3.67,0,0,1-2.39.84,3.27,3.27,0,0,1-1.79-.47,4.23,4.23,0,0,1-.94-.9v4.8h-1.58ZM132,325a4.4,4.4,0,0,0,.74-2.77,5.15,5.15,0,0,0-.33-1.94,2.4,2.4,0,0,0-4.52.09,6.71,6.71,0,0,0-.32,2.23,4.88,4.88,0,0,0,.32,1.86A2.4,2.4,0,0,0,132,325Z"/><path class="cls-1" d="M141.24,321.25a.85.85,0,0,0,.73-.46,1.41,1.41,0,0,0,.11-.61,1.29,1.29,0,0,0-.58-1.18,3.09,3.09,0,0,0-1.64-.36,2.07,2.07,0,0,0-1.75.67,2.15,2.15,0,0,0-.38,1.1h-1.48a2.75,2.75,0,0,1,1.13-2.43,4.65,4.65,0,0,1,2.51-.68,5.14,5.14,0,0,1,2.7.63,2.16,2.16,0,0,1,1,2v5.43a.67.67,0,0,0,.1.39.48.48,0,0,0,.42.15h.24l.28,0V327a4.52,4.52,0,0,1-.56.13,3.87,3.87,0,0,1-.53,0,1.28,1.28,0,0,1-1.18-.58,2.28,2.28,0,0,1-.28-.87,3.9,3.9,0,0,1-1.38,1.1,4.33,4.33,0,0,1-2,.47,3,3,0,0,1-2.14-.8,2.64,2.64,0,0,1-.83-2,2.54,2.54,0,0,1,.82-2,3.87,3.87,0,0,1,2.14-.89Zm-3.33,4.27a1.89,1.89,0,0,0,1.19.39,3.7,3.7,0,0,0,1.62-.38,2.18,2.18,0,0,0,1.32-2.1v-1.27a3.32,3.32,0,0,1-.75.31,5.7,5.7,0,0,1-.9.17l-.95.13a3.61,3.61,0,0,0-1.29.35,1.42,1.42,0,0,0-.74,1.32A1.3,1.3,0,0,0,137.91,325.52Z"/><path class="cls-1" d="M146.25,317.53h1.51v1.62a3.54,3.54,0,0,1,.9-1.15,2.33,2.33,0,0,1,1.66-.68h.15l.36,0V319l-.26,0h-.26a2.23,2.23,0,0,0-1.83.77,2.66,2.66,0,0,0-.64,1.77v5.41h-1.59Z"/><path class="cls-1" d="M152.52,314.9h1.6v2.63h1.5v1.29h-1.5V325a.67.67,0,0,0,.33.66,1.37,1.37,0,0,0,.62.1h.25l.3,0v1.25a5.05,5.05,0,0,1-.56.12,6.4,6.4,0,0,1-.64,0,1.7,1.7,0,0,1-1.5-.57,2.44,2.44,0,0,1-.4-1.47v-6.23h-1.27v-1.29h1.27Z"/><path class="cls-1" d="M157.21,314h1.6v1.79h-1.6Zm0,3.54h1.6v9.37h-1.6Z"/><path class="cls-1" d="M167.42,318a3.67,3.67,0,0,1,1.2,2.66h-1.54a2.73,2.73,0,0,0-.64-1.44,2,2,0,0,0-1.61-.58,2.23,2.23,0,0,0-2.16,1.48,5.83,5.83,0,0,0-.42,2.36,4.45,4.45,0,0,0,.6,2.38,2,2,0,0,0,1.88,1,2.08,2.08,0,0,0,1.56-.6,3.24,3.24,0,0,0,.79-1.64h1.54a3.71,3.71,0,0,1-4,3.6,3.63,3.63,0,0,1-3-1.34,5.2,5.2,0,0,1-1.1-3.38,5.62,5.62,0,0,1,1.21-3.85,3.88,3.88,0,0,1,3.06-1.38A4.07,4.07,0,0,1,167.42,318Z"/><path class="cls-1" d="M170.2,314h1.61v1.79H170.2Zm0,3.54h1.61v9.37H170.2Z"/><path class="cls-1" d="M174.07,317.57h1.55v1.25a3.72,3.72,0,0,1,1-1,3.34,3.34,0,0,1,1.88-.53,3.56,3.56,0,0,1,2.73,1.23,5,5,0,0,1,1.12,3.5q0,3.08-1.62,4.39a3.62,3.62,0,0,1-2.38.84,3.24,3.24,0,0,1-1.79-.47,4.24,4.24,0,0,1-.95-.9v4.8h-1.58Zm6,7.38a4.4,4.4,0,0,0,.74-2.77,5.15,5.15,0,0,0-.33-1.94,2.39,2.39,0,0,0-4.51.09,6.44,6.44,0,0,0-.33,2.23,4.69,4.69,0,0,0,.33,1.86,2.39,2.39,0,0,0,4.1.53Z"/><path class="cls-1" d="M189.26,321.25a.86.86,0,0,0,.73-.46,1.43,1.43,0,0,0,.1-.61,1.31,1.31,0,0,0-.57-1.18,3.09,3.09,0,0,0-1.64-.36,2.07,2.07,0,0,0-1.76.67,2.25,2.25,0,0,0-.38,1.1h-1.47a2.75,2.75,0,0,1,1.12-2.43,4.71,4.71,0,0,1,2.52-.68,5.1,5.1,0,0,1,2.69.63,2.14,2.14,0,0,1,1,2v5.43a.75.75,0,0,0,.1.39.49.49,0,0,0,.43.15h.24l.28,0V327a5.52,5.52,0,0,1-.56.13,4,4,0,0,1-.53,0,1.3,1.3,0,0,1-1.19-.58,2.12,2.12,0,0,1-.27-.87,4,4,0,0,1-1.39,1.1,4.29,4.29,0,0,1-2,.47,3,3,0,0,1-2.15-.8,2.64,2.64,0,0,1-.83-2,2.57,2.57,0,0,1,.82-2,3.9,3.9,0,0,1,2.15-.89Zm-3.33,4.27a1.86,1.86,0,0,0,1.18.39,3.7,3.7,0,0,0,1.62-.38,2.18,2.18,0,0,0,1.32-2.1v-1.27a3,3,0,0,1-.75.31,5.8,5.8,0,0,1-.89.17l-1,.13a3.68,3.68,0,0,0-1.29.35,1.41,1.41,0,0,0-.73,1.32A1.28,1.28,0,0,0,185.93,325.52Z"/><path class="cls-1" d="M194.22,317.53h1.51v1.33a4.12,4.12,0,0,1,1.41-1.18,3.78,3.78,0,0,1,1.66-.36,2.73,2.73,0,0,1,2.71,1.4,4.88,4.88,0,0,1,.39,2.18v6h-1.61V321a3.22,3.22,0,0,0-.26-1.39,1.54,1.54,0,0,0-1.53-.88,3,3,0,0,0-.92.12,2.3,2.3,0,0,0-1.14.77,2.25,2.25,0,0,0-.51,1,6.44,6.44,0,0,0-.12,1.42v4.93h-1.59Z"/><path class="cls-1" d="M204.55,314.9h1.6v2.63h1.5v1.29h-1.5V325a.66.66,0,0,0,.34.66,1.29,1.29,0,0,0,.61.1h.25l.3,0v1.25a5.05,5.05,0,0,1-.56.12,6.4,6.4,0,0,1-.64,0,1.7,1.7,0,0,1-1.5-.57,2.44,2.44,0,0,1-.4-1.47v-6.23h-1.27v-1.29h1.27Z"/><path class="cls-1" d="M215.05,317.79a3.5,3.5,0,0,1,1.42,1.22,4,4,0,0,1,.63,1.66,10.3,10.3,0,0,1,.14,2.07H210.4a4.08,4.08,0,0,0,.67,2.31,2.25,2.25,0,0,0,1.94.86,2.47,2.47,0,0,0,2-.82,2.79,2.79,0,0,0,.59-1.1h1.55a3.27,3.27,0,0,1-.41,1.15,4.2,4.2,0,0,1-.77,1.05,3.81,3.81,0,0,1-1.77.95,5.58,5.58,0,0,1-1.28.14,4,4,0,0,1-3-1.28,5,5,0,0,1-1.21-3.58,5.47,5.47,0,0,1,1.22-3.69,4,4,0,0,1,3.2-1.41A4.16,4.16,0,0,1,215.05,317.79Zm.57,3.69a4.1,4.1,0,0,0-.45-1.64A2.27,2.27,0,0,0,213,318.7a2.38,2.38,0,0,0-1.81.78,3,3,0,0,0-.78,2Z"/><path class="cls-1" d="M224.56,314.9h1.6v2.63h1.51v1.29h-1.51V325a.67.67,0,0,0,.34.66,1.32,1.32,0,0,0,.61.1h.25l.31,0v1.25a4.78,4.78,0,0,1-.57.12,6.4,6.4,0,0,1-.64,0,1.7,1.7,0,0,1-1.5-.57,2.51,2.51,0,0,1-.4-1.47v-6.23h-1.27v-1.29h1.27Z"/><path class="cls-1" d="M235.06,317.79a3.53,3.53,0,0,1,1.43,1.22,4.29,4.29,0,0,1,.63,1.66,11.12,11.12,0,0,1,.14,2.07h-6.85a4.08,4.08,0,0,0,.67,2.31,2.27,2.27,0,0,0,1.95.86,2.5,2.5,0,0,0,2-.82,2.91,2.91,0,0,0,.58-1.1h1.55a3.23,3.23,0,0,1-.4,1.15,4.22,4.22,0,0,1-.78,1.05,3.81,3.81,0,0,1-1.77.95,5.58,5.58,0,0,1-1.28.14,3.93,3.93,0,0,1-3-1.28,5,5,0,0,1-1.22-3.58,5.43,5.43,0,0,1,1.23-3.69,4,4,0,0,1,3.19-1.41A4.14,4.14,0,0,1,235.06,317.79Zm.57,3.69a4.11,4.11,0,0,0-.44-1.64A2.29,2.29,0,0,0,233,318.7a2.38,2.38,0,0,0-1.81.78,3,3,0,0,0-.78,2Z"/><path class="cls-1" d="M239.3,317.53h1.51v1.62a3.54,3.54,0,0,1,.9-1.15,2.33,2.33,0,0,1,1.66-.68h.15l.36,0V319l-.26,0h-.26a2.23,2.23,0,0,0-1.83.77,2.66,2.66,0,0,0-.64,1.77v5.41H239.3Z"/><path class="cls-1" d="M250.3,321.25a.86.86,0,0,0,.73-.46,1.43,1.43,0,0,0,.1-.61,1.31,1.31,0,0,0-.57-1.18,3.09,3.09,0,0,0-1.64-.36,2.07,2.07,0,0,0-1.76.67,2.25,2.25,0,0,0-.38,1.1h-1.47a2.75,2.75,0,0,1,1.12-2.43,4.71,4.71,0,0,1,2.52-.68,5.1,5.1,0,0,1,2.69.63,2.14,2.14,0,0,1,1,2v5.43a.75.75,0,0,0,.1.39.49.49,0,0,0,.43.15h.24l.28,0V327a5.52,5.52,0,0,1-.56.13,4,4,0,0,1-.53,0,1.3,1.3,0,0,1-1.19-.58,2.12,2.12,0,0,1-.27-.87,4,4,0,0,1-1.39,1.1,4.29,4.29,0,0,1-2,.47,3,3,0,0,1-2.15-.8,2.64,2.64,0,0,1-.83-2,2.57,2.57,0,0,1,.82-2,3.9,3.9,0,0,1,2.15-.89ZM247,325.52a1.86,1.86,0,0,0,1.18.39,3.7,3.7,0,0,0,1.62-.38,2.18,2.18,0,0,0,1.32-2.1v-1.27a3,3,0,0,1-.75.31,5.8,5.8,0,0,1-.89.17l-1,.13a3.68,3.68,0,0,0-1.29.35,1.41,1.41,0,0,0-.73,1.32A1.28,1.28,0,0,0,247,325.52Zm4-11.78-2.35,2.54h-1.21l1.61-2.54Z"/><path class="cls-1" d="M90.74,338.53v6.25A2.86,2.86,0,0,0,91,346a1.56,1.56,0,0,0,1.54.84,2.16,2.16,0,0,0,2.19-1.48,6,6,0,0,0,.31-2.17v-4.62h1.59v9.41h-1.5l0-1.39a3.18,3.18,0,0,1-.75.91,3.27,3.27,0,0,1-2.16.74,2.77,2.77,0,0,1-2.69-1.35,4,4,0,0,1-.38-1.92v-6.4Z"/><path class="cls-1" d="M99.17,338.53h1.57v1.33a5.29,5.29,0,0,1,1-1,3.16,3.16,0,0,1,1.78-.53,2.79,2.79,0,0,1,1.81.55,2.83,2.83,0,0,1,.7.93,3.63,3.63,0,0,1,1.24-1.12,3.52,3.52,0,0,1,1.6-.36,2.61,2.61,0,0,1,2.59,1.37,4.55,4.55,0,0,1,.37,2v6.26h-1.65V341.4a1.52,1.52,0,0,0-.47-1.29,1.86,1.86,0,0,0-1.14-.35,2.3,2.3,0,0,0-1.61.62,2.75,2.75,0,0,0-.67,2.09v5.47h-1.61V341.8a3.22,3.22,0,0,0-.23-1.4,1.39,1.39,0,0,0-1.34-.66,2.29,2.29,0,0,0-1.63.7,3.39,3.39,0,0,0-.74,2.51v5H99.17Z"/><path class="cls-1" d="M119.21,338.53h1.5v1.62a3.75,3.75,0,0,1,.91-1.15,2.31,2.31,0,0,1,1.66-.68h.15l.36,0V340l-.26,0h-.26a2.24,2.24,0,0,0-1.84.77,2.71,2.71,0,0,0-.64,1.77v5.41h-1.58Z"/><path class="cls-1" d="M132,339.47a4.75,4.75,0,0,1,1.25,3.56,6.16,6.16,0,0,1-1.1,3.76,4,4,0,0,1-3.41,1.49,3.84,3.84,0,0,1-3.07-1.32,5.22,5.22,0,0,1-1.13-3.52,5.69,5.69,0,0,1,1.19-3.78,4,4,0,0,1,3.22-1.4A4.2,4.2,0,0,1,132,339.47Zm-1,6.25a6,6,0,0,0,.58-2.64,4.71,4.71,0,0,0-.42-2.14,2.34,2.34,0,0,0-2.28-1.3,2.22,2.22,0,0,0-2.08,1.1,5.13,5.13,0,0,0-.66,2.67,4.43,4.43,0,0,0,.66,2.5,2.27,2.27,0,0,0,2.07,1A2.15,2.15,0,0,0,131,345.72Z"/><path class="cls-1" d="M135.49,335.9h1.6v2.63h1.5v1.29h-1.5V346a.67.67,0,0,0,.33.66,1.34,1.34,0,0,0,.62.1h.24l.31,0v1.25a4.78,4.78,0,0,1-.57.12,6.19,6.19,0,0,1-.63,0,1.73,1.73,0,0,1-1.51-.57,2.51,2.51,0,0,1-.39-1.47v-6.23h-1.28v-1.29h1.28Z"/><path class="cls-1" d="M146,338.79a3.56,3.56,0,0,1,1.42,1.22,4.29,4.29,0,0,1,.63,1.66,11.12,11.12,0,0,1,.14,2.07h-6.85a4.16,4.16,0,0,0,.67,2.31,2.27,2.27,0,0,0,1.95.86,2.49,2.49,0,0,0,2-.82,2.77,2.77,0,0,0,.58-1.1h1.56a3.27,3.27,0,0,1-.41,1.15,4,4,0,0,1-.78,1.05,3.71,3.71,0,0,1-1.77.95,5.51,5.51,0,0,1-1.28.14,3.94,3.94,0,0,1-3-1.28,5,5,0,0,1-1.21-3.58,5.42,5.42,0,0,1,1.22-3.69,4,4,0,0,1,3.2-1.41A4.19,4.19,0,0,1,146,338.79Zm.56,3.69a4.11,4.11,0,0,0-.44-1.64A2.28,2.28,0,0,0,144,339.7a2.41,2.41,0,0,0-1.82.78,3,3,0,0,0-.77,2Z"/><path class="cls-1" d="M150.18,335h1.61v1.79h-1.61Zm0,3.54h1.61v9.37h-1.61Z"/><path class="cls-1" d="M154.23,338.53h1.5v1.62a3.54,3.54,0,0,1,.9-1.15,2.34,2.34,0,0,1,1.67-.68h.14l.36,0V340l-.25,0h-.26a2.24,2.24,0,0,0-1.84.77,2.66,2.66,0,0,0-.64,1.77v5.41h-1.58Z"/><path class="cls-1" d="M167,339.47a4.74,4.74,0,0,1,1.24,3.56,6.1,6.1,0,0,1-1.1,3.76,4,4,0,0,1-3.41,1.49,3.82,3.82,0,0,1-3.06-1.32,5.17,5.17,0,0,1-1.14-3.52,5.64,5.64,0,0,1,1.2-3.78,4,4,0,0,1,3.21-1.4A4.22,4.22,0,0,1,167,339.47Zm-1,6.25a5.88,5.88,0,0,0,.58-2.64,4.71,4.71,0,0,0-.42-2.14,2.32,2.32,0,0,0-2.27-1.3,2.24,2.24,0,0,0-2.09,1.1,5.23,5.23,0,0,0-.65,2.67,4.51,4.51,0,0,0,.65,2.5,2.3,2.3,0,0,0,2.07,1A2.13,2.13,0,0,0,166,345.72Z"/><path class="cls-1" d="M181,338.79a3.53,3.53,0,0,1,1.43,1.22,4.13,4.13,0,0,1,.62,1.66,10.3,10.3,0,0,1,.14,2.07h-6.84a4.08,4.08,0,0,0,.67,2.31,2.26,2.26,0,0,0,1.94.86,2.51,2.51,0,0,0,2-.82,2.91,2.91,0,0,0,.58-1.1h1.55a3.27,3.27,0,0,1-.41,1.15,4.2,4.2,0,0,1-.77,1.05,3.81,3.81,0,0,1-1.77.95,5.58,5.58,0,0,1-1.28.14,3.91,3.91,0,0,1-3-1.28,5,5,0,0,1-1.22-3.58,5.47,5.47,0,0,1,1.22-3.69,4,4,0,0,1,3.2-1.41A4.14,4.14,0,0,1,181,338.79Zm.57,3.69a4.1,4.1,0,0,0-.45-1.64A2.27,2.27,0,0,0,179,339.7a2.38,2.38,0,0,0-1.81.78,3,3,0,0,0-.78,2Z"/><path class="cls-1" d="M196.42,339a3.75,3.75,0,0,1,1.2,2.66h-1.54a2.81,2.81,0,0,0-.64-1.44,2,2,0,0,0-1.61-.58,2.21,2.21,0,0,0-2.16,1.48,5.83,5.83,0,0,0-.42,2.36,4.45,4.45,0,0,0,.59,2.38,2.32,2.32,0,0,0,3.44.36,3.25,3.25,0,0,0,.8-1.64h1.54a4.17,4.17,0,0,1-1.32,2.74,4.09,4.09,0,0,1-2.7.86,3.61,3.61,0,0,1-2.94-1.34,5.15,5.15,0,0,1-1.1-3.38,5.67,5.67,0,0,1,1.2-3.85,3.9,3.9,0,0,1,3.07-1.38A4.09,4.09,0,0,1,196.42,339Z"/><path class="cls-1" d="M199.2,335h1.58v4.81a4.66,4.66,0,0,1,1-1,3.46,3.46,0,0,1,1.91-.5,2.84,2.84,0,0,1,2.78,1.43,5,5,0,0,1,.39,2.17v6h-1.62V342a3.25,3.25,0,0,0-.27-1.52,1.66,1.66,0,0,0-1.61-.77,2.69,2.69,0,0,0-1.79.67,3.28,3.28,0,0,0-.8,2.56v5H199.2Z"/><path class="cls-1" d="M215,338.79a3.53,3.53,0,0,1,1.43,1.22,4.29,4.29,0,0,1,.63,1.66,11.12,11.12,0,0,1,.14,2.07h-6.85a4.08,4.08,0,0,0,.67,2.31,2.27,2.27,0,0,0,2,.86,2.49,2.49,0,0,0,2-.82,2.77,2.77,0,0,0,.58-1.1h1.56a3.49,3.49,0,0,1-.41,1.15,4.22,4.22,0,0,1-.78,1.05,3.76,3.76,0,0,1-1.77.95,5.51,5.51,0,0,1-1.28.14,3.93,3.93,0,0,1-3-1.28,5,5,0,0,1-1.22-3.58,5.43,5.43,0,0,1,1.23-3.69,4,4,0,0,1,3.19-1.41A4.14,4.14,0,0,1,215,338.79Zm.57,3.69a4.11,4.11,0,0,0-.44-1.64A2.28,2.28,0,0,0,213,339.7a2.38,2.38,0,0,0-1.81.78,3,3,0,0,0-.77,2Z"/><path class="cls-1" d="M225.44,339a3.75,3.75,0,0,1,1.2,2.66H225.1a2.81,2.81,0,0,0-.64-1.44,2,2,0,0,0-1.61-.58,2.21,2.21,0,0,0-2.16,1.48,5.83,5.83,0,0,0-.42,2.36,4.54,4.54,0,0,0,.59,2.38,2.07,2.07,0,0,0,1.89,1,2,2,0,0,0,1.55-.6,3.25,3.25,0,0,0,.8-1.64h1.54a4.17,4.17,0,0,1-1.32,2.74,4.09,4.09,0,0,1-2.7.86,3.61,3.61,0,0,1-2.94-1.34,5.2,5.2,0,0,1-1.1-3.38,5.67,5.67,0,0,1,1.2-3.85,3.91,3.91,0,0,1,3.07-1.38A4.09,4.09,0,0,1,225.44,339Z"/><path class="cls-1" d="M228.19,335h1.52v7.5l4-4h2l-3.61,3.5,3.82,5.91h-2l-3-4.79-1.29,1.26v3.53h-1.52Z"/><path class="cls-1" d="M237.26,335h1.59v12.91h-1.59Z"/><path class="cls-1" d="M241.22,335h1.61v1.79h-1.61Zm0,3.54h1.61v9.37h-1.61Z"/><path class="cls-1" d="M246.16,345a2.28,2.28,0,0,0,.4,1.21,2.57,2.57,0,0,0,2.12.77,3.14,3.14,0,0,0,1.58-.39,1.26,1.26,0,0,0,.68-1.18,1,1,0,0,0-.54-.92A6.58,6.58,0,0,0,249,344l-1.28-.32a6.3,6.3,0,0,1-1.8-.66,2,2,0,0,1-1-1.78,2.7,2.7,0,0,1,1-2.16,3.92,3.92,0,0,1,2.62-.83,3.68,3.68,0,0,1,3.11,1.25,2.7,2.7,0,0,1,.58,1.71h-1.5a1.75,1.75,0,0,0-.38-1,2.5,2.5,0,0,0-1.94-.62A2.36,2.36,0,0,0,247,340a1.06,1.06,0,0,0-.47.9,1.12,1.12,0,0,0,.62,1,3.9,3.9,0,0,0,1.06.39l1.06.25a8.36,8.36,0,0,1,2.33.8,2.1,2.1,0,0,1,.92,1.91,2.89,2.89,0,0,1-1,2.17,4.13,4.13,0,0,1-2.94.91,4,4,0,0,1-3-.95,3.58,3.58,0,0,1-1-2.36Z"/><path class="cls-1" d="M254.54,335.9h1.59v2.63h1.51v1.29h-1.51V346a.67.67,0,0,0,.34.66,1.32,1.32,0,0,0,.61.1h.25l.31,0v1.25a4.78,4.78,0,0,1-.57.12,6.4,6.4,0,0,1-.64,0,1.71,1.71,0,0,1-1.5-.57,2.51,2.51,0,0,1-.39-1.47v-6.23h-1.28v-1.29h1.28Z"/><path class="cls-1" d="M89,359.57h1.55v1.25a3.59,3.59,0,0,1,1-1,3.34,3.34,0,0,1,1.88-.53,3.53,3.53,0,0,1,2.72,1.23,5,5,0,0,1,1.12,3.5c0,2.05-.54,3.51-1.61,4.39a3.64,3.64,0,0,1-2.38.84,3.28,3.28,0,0,1-1.8-.47,4.23,4.23,0,0,1-.94-.9v4.8H89ZM95,367a4.4,4.4,0,0,0,.74-2.77,5.15,5.15,0,0,0-.33-1.94,2.39,2.39,0,0,0-4.51.09,6.44,6.44,0,0,0-.33,2.23,4.69,4.69,0,0,0,.33,1.86A2.39,2.39,0,0,0,95,367Z"/><path class="cls-1" d="M104.22,363.25a.88.88,0,0,0,.73-.46,1.43,1.43,0,0,0,.1-.61,1.31,1.31,0,0,0-.57-1.18,3.13,3.13,0,0,0-1.65-.36,2.07,2.07,0,0,0-1.75.67,2.15,2.15,0,0,0-.38,1.1H99.22a2.75,2.75,0,0,1,1.13-2.43,4.66,4.66,0,0,1,2.52-.68,5.13,5.13,0,0,1,2.69.63,2.14,2.14,0,0,1,1,2v5.43a.67.67,0,0,0,.1.39.49.49,0,0,0,.43.15h.23l.28,0V369a4.52,4.52,0,0,1-.56.13,3.79,3.79,0,0,1-.52,0,1.29,1.29,0,0,1-1.19-.58,2.12,2.12,0,0,1-.27-.87,4,4,0,0,1-1.39,1.1,4.33,4.33,0,0,1-2,.47,3,3,0,0,1-2.14-.8,2.64,2.64,0,0,1-.83-2,2.54,2.54,0,0,1,.82-2,3.87,3.87,0,0,1,2.14-.89Zm-3.34,4.27a1.89,1.89,0,0,0,1.19.39,3.7,3.7,0,0,0,1.62-.38,2.18,2.18,0,0,0,1.32-2.1v-1.27a3.14,3.14,0,0,1-.75.31,5.8,5.8,0,0,1-.89.17l-1,.13a3.68,3.68,0,0,0-1.29.35,1.42,1.42,0,0,0-.74,1.32A1.3,1.3,0,0,0,100.88,367.52Z"/><path class="cls-1" d="M109.23,359.53h1.5v1.62a3.54,3.54,0,0,1,.9-1.15,2.34,2.34,0,0,1,1.67-.68h.14l.36,0V361l-.25,0h-.26a2.24,2.24,0,0,0-1.84.77,2.66,2.66,0,0,0-.64,1.77v5.41h-1.58Z"/><path class="cls-1" d="M120.22,363.25a.86.86,0,0,0,.73-.46,1.41,1.41,0,0,0,.11-.61,1.31,1.31,0,0,0-.58-1.18,3.09,3.09,0,0,0-1.64-.36,2.09,2.09,0,0,0-1.76.67,2.16,2.16,0,0,0-.37,1.1h-1.48a2.73,2.73,0,0,1,1.13-2.43,4.65,4.65,0,0,1,2.51-.68,5.14,5.14,0,0,1,2.7.63,2.15,2.15,0,0,1,1,2v5.43a.67.67,0,0,0,.11.39q.09.15.42.15h.24l.28,0V369a5,5,0,0,1-.56.13,4,4,0,0,1-.53,0,1.3,1.3,0,0,1-1.19-.58,2.12,2.12,0,0,1-.27-.87,3.86,3.86,0,0,1-1.39,1.1,4.29,4.29,0,0,1-2,.47,3,3,0,0,1-2.14-.8,2.61,2.61,0,0,1-.83-2,2.56,2.56,0,0,1,.81-2,3.9,3.9,0,0,1,2.15-.89Zm-3.33,4.27a1.87,1.87,0,0,0,1.19.39,3.69,3.69,0,0,0,1.61-.38,2.18,2.18,0,0,0,1.32-2.1v-1.27a3,3,0,0,1-.74.31,6.16,6.16,0,0,1-.9.17l-1,.13a3.68,3.68,0,0,0-1.3.35,1.41,1.41,0,0,0-.73,1.32A1.3,1.3,0,0,0,116.89,367.52Z"/><path class="cls-1" d="M136,359.79a3.53,3.53,0,0,1,1.43,1.22,4.13,4.13,0,0,1,.62,1.66,10.3,10.3,0,0,1,.14,2.07h-6.84a4.08,4.08,0,0,0,.67,2.31,2.26,2.26,0,0,0,1.94.86,2.51,2.51,0,0,0,2-.82,2.91,2.91,0,0,0,.58-1.1h1.55a3.27,3.27,0,0,1-.41,1.15,4.2,4.2,0,0,1-.77,1.05,3.81,3.81,0,0,1-1.77.95,5.58,5.58,0,0,1-1.28.14,3.91,3.91,0,0,1-3-1.28,5,5,0,0,1-1.22-3.58,5.47,5.47,0,0,1,1.22-3.69,4,4,0,0,1,3.2-1.41A4.14,4.14,0,0,1,136,359.79Zm.57,3.69a4.1,4.1,0,0,0-.45-1.64A2.27,2.27,0,0,0,134,360.7a2.38,2.38,0,0,0-1.81.78,3,3,0,0,0-.78,2Z"/><path class="cls-1" d="M140.24,356h1.58v12.91h-1.58Z"/><path class="cls-1" d="M150,359.79a3.6,3.6,0,0,1,1.43,1.22,4.13,4.13,0,0,1,.62,1.66,10.3,10.3,0,0,1,.14,2.07h-6.84a4.08,4.08,0,0,0,.67,2.31,2.26,2.26,0,0,0,1.94.86,2.51,2.51,0,0,0,2-.82,2.91,2.91,0,0,0,.58-1.1h1.55a3.27,3.27,0,0,1-.41,1.15,4.2,4.2,0,0,1-.77,1.05,3.81,3.81,0,0,1-1.77.95,5.58,5.58,0,0,1-1.28.14,3.91,3.91,0,0,1-3-1.28,5,5,0,0,1-1.22-3.58,5.47,5.47,0,0,1,1.22-3.69,4,4,0,0,1,3.2-1.41A4.14,4.14,0,0,1,150,359.79Zm.57,3.69a4.1,4.1,0,0,0-.45-1.64A2.27,2.27,0,0,0,148,360.7a2.38,2.38,0,0,0-1.81.78,3,3,0,0,0-.78,2Z"/><path class="cls-1" d="M157,356v2l1.92-.66.35,1-1.92.63,1.19,1.65-.87.63-1.15-1.72-1.16,1.72-.9-.63,1.21-1.65-1.94-.63.36-1L156,358v-2Z"/><path class="cls-1" d="M36.6,94.78H22v14.6H36.6ZM34.17,107H24.43V97.21h9.74Z"/><path class="cls-1" d="M26.87,99.65h4.86v4.86H26.87Z"/><path class="cls-1" d="M22,133.71H36.6v-14.6H22Zm2.43-12.17h9.74v9.74H24.43Z"/><path class="cls-1" d="M26.87,124h4.86v4.86H26.87Z"/><path class="cls-1" d="M46.33,94.78v14.6h14.6V94.78ZM58.5,107H48.76V97.21H58.5Z"/><path class="cls-1" d="M51.2,99.65h4.86v4.86H51.2Z"/><path class="cls-1" d="M26.87,111.81H22v4.87h7.3v-2.44H26.87Z"/><path class="cls-1" d="M39,116.68H43.9v4.86H39Z"/><path class="cls-1" d="M29.3,111.81h4.87v2.43H29.3Z"/><path class="cls-1" d="M43.9,124H39v2.43h2.43v2.43H43.9V124Z"/><path class="cls-1" d="M36.6,111.81v2.43H34.17v2.44H39v-4.87Z"/><path class="cls-1" d="M41.46,104.51H43.9v4.87H41.46Z"/><path class="cls-1" d="M43.9,114.24v2.44h4.86v-4.87h-7.3v2.43Z"/><path class="cls-1" d="M39,109.38h2.43v2.43H39Z"/><path class="cls-1" d="M43.9,128.84h4.86v4.87H43.9Z"/><path class="cls-1" d="M39,128.84h2.43v4.87H39Z"/><path class="cls-1" d="M43.9,121.54h2.43V124H43.9Z"/><path class="cls-1" d="M43.9,102.08V97.21H41.46V94.78H39v9.73h2.43v-2.43Z"/><path class="cls-1" d="M51.2,128.84h2.43v4.87H51.2Z"/><path class="cls-1" d="M51.2,124h4.86v2.43H51.2Z"/><path class="cls-1" d="M48.76,126.41H51.2v2.43H48.76Z"/><path class="cls-1" d="M46.33,124h2.43v2.43H46.33Z"/><path class="cls-1" d="M56.06,119.11v2.43H58.5V124h2.43v-4.87H56.06Z"/><path class="cls-1" d="M58.5,126.41H56.06v7.3h4.87v-4.87H58.5Z"/><path class="cls-1" d="M46.33,119.11v2.43h7.3v-4.86H48.76v2.43Z"/><path class="cls-1" d="M51.2,111.81v2.43h4.86v2.44h4.87v-4.87H51.2Z"/><polygon class="cls-1" points="24.36 139.28 16.5 139.28 16.5 131.42 18.79 131.42 18.79 136.99 24.36 136.99 24.36 139.28"/><polygon class="cls-1" points="18.79 97.14 16.5 97.14 16.5 89.28 24.36 89.28 24.36 91.57 18.79 91.57 18.79 97.14"/><polygon class="cls-1" points="66.5 97.14 64.21 97.14 64.21 91.57 58.64 91.57 58.64 89.28 66.5 89.28 66.5 97.14"/><polygon class="cls-1" points="66.5 139.28 58.64 139.28 58.64 136.99 64.21 136.99 64.21 131.42 66.5 131.42 66.5 139.28"/><path class="cls-1" d="M64.64,173.13a18.38,18.38,0,0,0-5.19-6.39A8.3,8.3,0,0,0,54.38,165H28.62a8.3,8.3,0,0,0-5.07,1.74,18.28,18.28,0,0,0-7,14.41v5a1,1,0,0,0,1,1h7.69V214a1,1,0,0,0,1,1H56.88a1,1,0,0,0,1-1V187.12h7.69a1,1,0,0,0,1-1v-5A18.28,18.28,0,0,0,64.64,173.13Zm-17.49-6.21a3.86,3.86,0,0,1-3.73,2.89H39.58a3.86,3.86,0,0,1-3.73-2.89Zm17.43,18.27H57.85v-4.81a1,1,0,0,0-1.93,0v32.7H27.08v-1.93H30a1,1,0,0,0,0-1.92H27.08V180.38a1,1,0,0,0-1.93,0v4.81H18.42v-4a16.22,16.22,0,0,1,6.31-12.89,6.39,6.39,0,0,1,3.89-1.34h5.27a5.77,5.77,0,0,0,5.69,4.81h3.84a5.77,5.77,0,0,0,5.69-4.81h5.27a6.39,6.39,0,0,1,3.89,1.34,16.22,16.22,0,0,1,6.31,12.89v4Z"/><path class="cls-1" d="M56.88,215.5H26.12A1.47,1.47,0,0,1,24.65,214V187.62H17.46A1.47,1.47,0,0,1,16,186.15v-5a18.8,18.8,0,0,1,7.24-14.81,8.8,8.8,0,0,1,5.38-1.84H54.38a8.8,8.8,0,0,1,5.38,1.84,19,19,0,0,1,5.33,6.57h0A18.83,18.83,0,0,1,67,181.15v5a1.47,1.47,0,0,1-1.46,1.47H58.35V214A1.47,1.47,0,0,1,56.88,215.5Zm-28.26-50a7.79,7.79,0,0,0-4.76,1.63,17.8,17.8,0,0,0-6.86,14v5a.47.47,0,0,0,.46.47h8.19V214a.47.47,0,0,0,.47.46H56.88a.47.47,0,0,0,.47-.46V186.62h8.19a.47.47,0,0,0,.46-.47v-5a17.74,17.74,0,0,0-1.81-7.8h0a17.84,17.84,0,0,0-5-6.22,7.79,7.79,0,0,0-4.76-1.63Zm27.8,48.08H26.58v-2.93H30a.45.45,0,0,0,.46-.46.46.46,0,0,0-.46-.46H26.58V180.38a.47.47,0,0,0-.93,0v5.31H17.92v-4.54a16.75,16.75,0,0,1,6.5-13.29,6.89,6.89,0,0,1,4.2-1.44h5.69l.07.42a5.26,5.26,0,0,0,5.2,4.39h3.84a5.26,5.26,0,0,0,5.2-4.39l.07-.42h5.69a6.89,6.89,0,0,1,4.2,1.44,16.75,16.75,0,0,1,6.5,13.29v4.54H57.35v-5.31a.47.47,0,0,0-.93,0Zm-28.84-1H55.42v-32.2a1.47,1.47,0,0,1,2.93,0v4.31h5.73v-3.54A15.73,15.73,0,0,0,58,168.65a5.88,5.88,0,0,0-3.58-1.23H49.52a6.25,6.25,0,0,1-6.1,4.81H39.58a6.25,6.25,0,0,1-6.1-4.81H28.62A5.88,5.88,0,0,0,25,168.65a15.73,15.73,0,0,0-6.12,12.5v3.54h5.73v-4.31a1.47,1.47,0,0,1,2.93,0v28.35H30a1.46,1.46,0,0,1,0,2.92H27.58Zm15.84-42.27H39.58a4.34,4.34,0,0,1-4.21-3.26l-.16-.63H47.79l-.16.63A4.34,4.34,0,0,1,43.42,170.31Zm-6.85-2.89a3.34,3.34,0,0,0,3,1.89h3.84a3.34,3.34,0,0,0,3-1.89Z"/><path class="cls-1" d="M66.83,317.28a1.28,1.28,0,0,0-1.27,0L50,325.46l-15.52-8.22-.07,0-.2-.07-.08,0a.86.86,0,0,0-.23,0h-.09l-.22,0h-.07l-17.13,5.71a1.28,1.28,0,0,0-.88,1.22v40.78a1.28,1.28,0,0,0,.54,1,1.3,1.3,0,0,0,1.16.18l16.61-5.54L49.54,367l.09,0a1.26,1.26,0,0,0,.41.07,1.4,1.4,0,0,0,.34,0l.08,0-.09-.33.14.31.13-.05,16.12-8.53a1.29,1.29,0,0,0,.69-1.14V318.38A1.29,1.29,0,0,0,66.83,317.28ZM30.76,346.8a1.3,1.3,0,0,0,1.58.92l.28-.06v10.57l-14.49,4.83V325l14.49-4.83V345c-.35.07-.66.14-.94.22A1.29,1.29,0,0,0,30.76,346.8Zm20.57,2.77a1.27,1.27,0,0,0,0-2.1V327.69l13.54-7.17v36l-13.54,7.17ZM35.2,347.3a5.46,5.46,0,0,1,.58,0,1.29,1.29,0,1,0-.06-2.58l-.52,0V320.52l13.55,7.17v19.54a14.11,14.11,0,0,1-1.68-.23,1.32,1.32,0,0,0-1,.2,1.27,1.27,0,0,0-.55.82,1.32,1.32,0,0,0,.2,1,1.3,1.3,0,0,0,.82.55,16.46,16.46,0,0,0,2.18.26v14.08L35.2,358.3Zm-1.1-29.85Zm-.22,0Z"/><path class="cls-1" d="M26.33,324.68a5.08,5.08,0,0,0-1.29,10v1.72a1.29,1.29,0,0,0,2.58,0v-1.72a5.08,5.08,0,0,0-1.29-10Zm0,2.58a2.5,2.5,0,1,1-2.51,2.5A2.5,2.5,0,0,1,26.33,327.26Z"/><path class="cls-1" d="M60.23,336.93a1.29,1.29,0,0,0-1.5,1,18.22,18.22,0,0,1-.95,3.42,1.29,1.29,0,0,0,.73,1.67h0a1.31,1.31,0,0,0,1.67-.74,21.06,21.06,0,0,0,1.09-3.87A1.29,1.29,0,0,0,60.23,336.93Z"/><path class="cls-1" d="M28.83,346.7a1.27,1.27,0,0,0-1,.17,13.25,13.25,0,0,0-3.15,2.74,1.3,1.3,0,0,0,.15,1.82,1.34,1.34,0,0,0,.83.3,1.28,1.28,0,0,0,1-.46,11,11,0,0,1,2.55-2.22,1.3,1.3,0,0,0-.4-2.35Z"/><path class="cls-1" d="M24.22,352.47h0a1.29,1.29,0,0,0-1.71.64,15.88,15.88,0,0,0-1.26,4,1.33,1.33,0,0,0,.25,1,1.28,1.28,0,0,0,.85.5h.18a1.29,1.29,0,0,0,1.28-1.11,12.72,12.72,0,0,1,1-3.25A1.3,1.3,0,0,0,24.22,352.47Z"/><path class="cls-1" d="M57.94,344.13a1.29,1.29,0,0,0-1.82.2,7.82,7.82,0,0,1-2.48,2.05,1.26,1.26,0,0,0-.64.75,1.28,1.28,0,0,0,.08,1,1.27,1.27,0,0,0,1.15.7,1.22,1.22,0,0,0,.59-.14,10.42,10.42,0,0,0,3.32-2.73,1.3,1.3,0,0,0,.27-.95A1.22,1.22,0,0,0,57.94,344.13Z"/><path class="cls-1" d="M43.69,346c-.42-.18-.65-.29-.66-.3l-.26-.1c-1-.26-2.06-.47-3-.62a1.27,1.27,0,0,0-1,.23,1.25,1.25,0,0,0-.51.85,1.29,1.29,0,0,0,1.08,1.47c.86.13,1.75.31,2.66.54.14.07.37.18.69.31a1.24,1.24,0,0,0,.5.1,1.29,1.29,0,0,0,1.19-.79,1.28,1.28,0,0,0-.69-1.69Z"/><path class="cls-1" d="M60.51,329.36a1.29,1.29,0,0,0-1.27,1.31c0,.33,0,.65,0,1,0,.94,0,1.85-.08,2.72a1.29,1.29,0,0,0,1.2,1.37h.09a1.29,1.29,0,0,0,1.28-1.21c.06-.91.09-1.88.09-2.88,0-.34,0-.67,0-1A1.31,1.31,0,0,0,60.51,329.36Z"/><path class="cls-1" d="M23.14,343a1.25,1.25,0,0,0,.38.91,1.31,1.31,0,0,0,1.82,0l1-1,1,1a1.3,1.3,0,0,0,.91.38,1.28,1.28,0,0,0,.91-.38,1.25,1.25,0,0,0,.38-.91,1.24,1.24,0,0,0-.38-.91l-1-1,1-1a1.29,1.29,0,0,0,0-1.83,1.33,1.33,0,0,0-1.82,0l-1,1-1-1a1.33,1.33,0,0,0-1.82,0,1.29,1.29,0,0,0,0,1.83l1,1-1,1A1.24,1.24,0,0,0,23.14,343Z"/><path class="cls-1" d="M60.89,250.52a27,27,0,1,0-36.75,39.36l.07.05.09.06.08.05.14.06.07,0,.17,0,0,0,.23,0h.05a1.36,1.36,0,0,0,.85-.33,5.42,5.42,0,0,1,1-.7L34.55,285a5,5,0,0,0,1-.7l0,0,.27-.29,0,0a4.52,4.52,0,0,0,1.06-2.9v-3.13a1.36,1.36,0,0,0-.32-.88,15.86,15.86,0,0,1-2.81-5.83,1.36,1.36,0,0,0-.59-.85,1.19,1.19,0,0,1-.56-1V266a1.19,1.19,0,0,1,.4-.87,1.39,1.39,0,0,0,.46-1V259.1c0-.06,0-.12,0-.17a1.48,1.48,0,0,1,0-.16A5.6,5.6,0,0,1,34,256l.05-.09c0-.08.08-.16.13-.24a5.2,5.2,0,0,1,.48-.65c1.32-1.5,3.61-2.26,6.8-2.26a12.45,12.45,0,0,1,4.67.78l0,0,.23.11.16.08.12.06h0l.09,0,.11.06L47,254l.14.09.13.09.08.05.17.13,0,0a5.21,5.21,0,0,1,2,4.56c0,.06,0,.11,0,.17v4.95a1.39,1.39,0,0,0,.46,1,1.15,1.15,0,0,1,.4.87v3.42a1.19,1.19,0,0,1-.85,1.13,1.37,1.37,0,0,0-.91.89,17.13,17.13,0,0,1-2.35,4.75c-.25.35-.48.65-.68.88a1.4,1.4,0,0,0-.35.91v3.21a4.55,4.55,0,0,0,1,2.88l.19.21,0,0,.19.18,0,.05.19.15.06.05.18.13.09.06.16.11.13.07h0l.07,0,8.28,4.14A5.38,5.38,0,0,1,57,290a1.4,1.4,0,0,0,.89.33h.19l.16,0,.09,0,.16-.06.07,0a.93.93,0,0,0,.18-.12l.05,0a27,27,0,0,0,2.12-39.44Zm4.81,19.16a24.27,24.27,0,0,1-7.9,17.47l-.08,0,0,0-.09-.06-.44-.24h0L49,282.69l-.1-.05-.07-.05-.06,0-.07-.06-.07-.05a.1.1,0,0,0,0,0l-.06-.07-.06-.06,0,0a.35.35,0,0,0,0-.08l-.05-.07,0,0a.36.36,0,0,1,0-.09l0-.08,0,0,0-.1,0-.09a0,0,0,0,0,0,0l0-.13,0-.11a1.93,1.93,0,0,1,0-.24v-2.71c.16-.21.34-.44.52-.69a20.56,20.56,0,0,0,2.52-4.89,3.9,3.9,0,0,0,2.09-3.48V266a4,4,0,0,0-.85-2.44v-4.33a8.4,8.4,0,0,0-.1-2.11c0-.13-.05-.26-.08-.4l-.06-.25a7.8,7.8,0,0,0-4-5A14,14,0,0,0,41.5,250c-4,0-7,1.08-8.87,3.2a8.17,8.17,0,0,0-1.92,6v4.33a3.9,3.9,0,0,0-.86,2.44v3.42a3.94,3.94,0,0,0,1.34,3,18.44,18.44,0,0,0,2.94,6.07v2.66a.91.91,0,0,1,0,.17,1.3,1.3,0,0,1-.07.33v0a1.77,1.77,0,0,1-.33.6l-.12.13a1.46,1.46,0,0,1-.38.27l-7.63,4.17-.38.22-.08,0,0,0a24.2,24.2,0,1,1,40.6-17.36Z"/><path class="cls-1" d="M11.5,32V28.9a2.15,2.15,0,0,1,2.09-2.2H63.36a2.15,2.15,0,0,1,2.09,2.2V32s0,0,0,0h-1a1.67,1.67,0,0,0,.07,3.33h1V40H64.39a1.67,1.67,0,0,0,.07,3.33h1V48H64.39a1.67,1.67,0,0,0,.07,3.33h1v3a2.16,2.16,0,0,1-2.09,2.21H13.59a2.16,2.16,0,0,1-2.09-2.21v-3h1.05a1.63,1.63,0,0,0,1.57-1.87A1.66,1.66,0,0,0,12.49,48h-1V43.34h1.05a1.63,1.63,0,0,0,1.57-1.87A1.66,1.66,0,0,0,12.49,40h-1V35.3h1.05a1.63,1.63,0,0,0,1.57-1.87A1.66,1.66,0,0,0,12.49,32h-1A0,0,0,0,1,11.5,32Zm51.83-2s0,0,0,0v-1s0,0,0,0H13.62s0,0,0,0v1s0,0,0,0a3.94,3.94,0,0,1,0,7.43s0,0,0,0v.57s0,0,0,0a3.94,3.94,0,0,1,0,7.43s0,0,0,0V46s0,0,0,0a3.94,3.94,0,0,1,0,7.43s0,0,0,0v1s0,0,0,0H63.33s0,0,0,0v-1s0,0,0,0a3.94,3.94,0,0,1,0-7.43s0,0,0,0V45.4s0,0,0,0a3.94,3.94,0,0,1,0-7.43s0,0,0,0v-.57s0,0,0,0a3.94,3.94,0,0,1,0-7.43Zm7.18-3.49h1a0,0,0,0,0,0,0v-3a2.15,2.15,0,0,0-2.09-2.2H19.64a2.15,2.15,0,0,0-2.09,2.2h0a0,0,0,0,0,0,0H69.39v1h0a4,4,0,0,0,0,7.44h0v.58h0a4,4,0,0,0,0,7.44h0v.58h0a4,4,0,0,0,0,7.44h0v3.19h0a2.15,2.15,0,0,0,2.09-2.2v-3a0,0,0,0,0,0,0h-1a1.66,1.66,0,0,1-1.63-1.45,1.63,1.63,0,0,1,1.57-1.87h1a0,0,0,0,0,0,0v-4.7h-1a1.66,1.66,0,0,1-1.63-1.45,1.63,1.63,0,0,1,1.57-1.87h1a0,0,0,0,0,0,0V29.76a0,0,0,0,0,0,0h-1a1.63,1.63,0,0,1-1.57-1.86A1.66,1.66,0,0,1,70.51,26.42Z"/></svg>