<svg id="Camada_1" data-name="Camada 1" xmlns="http://www.w3.org/2000/svg" viewBox="0 0 300 380"><defs><style>.cls-1{fill:#fff;}</style></defs><title>shows</title><path class="cls-1" d="M89.77,32h1.76V44.93H89.77Z"/><path class="cls-1" d="M94.16,35.51h1.5v1.34a4.28,4.28,0,0,1,1.42-1.19,3.78,3.78,0,0,1,1.66-.36,2.75,2.75,0,0,1,2.71,1.4,5,5,0,0,1,.38,2.19v6h-1.6V39A3.25,3.25,0,0,0,100,37.6a1.55,1.55,0,0,0-1.53-.87,3,3,0,0,0-.92.11,2.4,2.4,0,0,0-1.14.77,2.31,2.31,0,0,0-.52,1A6.38,6.38,0,0,0,95.74,40v4.93H94.16Z"/><path class="cls-1" d="M109.41,35.89a4.78,4.78,0,0,1,.91.9V35.6h1.46v8.56a6.31,6.31,0,0,1-.53,2.83,3.77,3.77,0,0,1-3.71,1.92,4.52,4.52,0,0,1-2.54-.68,2.67,2.67,0,0,1-1.16-2.13h1.61a1.73,1.73,0,0,0,.45,1,2.33,2.33,0,0,0,1.68.53A2.3,2.3,0,0,0,110,46.31a7.22,7.22,0,0,0,.3-2.69,3.11,3.11,0,0,1-1.13,1.07,3.85,3.85,0,0,1-1.76.35A3.76,3.76,0,0,1,104.69,44a4.83,4.83,0,0,1-1.14-3.6,5.45,5.45,0,0,1,1.15-3.69,3.56,3.56,0,0,1,2.78-1.32A3.46,3.46,0,0,1,109.41,35.89Zm.19,1.7a2.28,2.28,0,0,0-1.83-.85,2.26,2.26,0,0,0-2.27,1.57,6,6,0,0,0-.33,2.19,3.9,3.9,0,0,0,.65,2.42,2.07,2.07,0,0,0,1.72.83,2.41,2.41,0,0,0,2.39-1.54,4.93,4.93,0,0,0,.39-2A3.91,3.91,0,0,0,109.6,37.59Z"/><path class="cls-1" d="M114.23,35.51h1.5v1.63a3.61,3.61,0,0,1,.91-1.16,2.35,2.35,0,0,1,1.66-.68h.15l.36,0V37l-.26,0h-.26a2.27,2.27,0,0,0-1.84.77,2.66,2.66,0,0,0-.64,1.77v5.42h-1.58Z"/><path class="cls-1" d="M126,35.77A3.61,3.61,0,0,1,127.42,37a4.18,4.18,0,0,1,.62,1.66,10.42,10.42,0,0,1,.14,2.08h-6.84A4.07,4.07,0,0,0,122,43a2.24,2.24,0,0,0,1.94.87,2.54,2.54,0,0,0,2-.82A3,3,0,0,0,126.5,42h1.55a3.31,3.31,0,0,1-.41,1.16,4.32,4.32,0,0,1-.77,1,3.64,3.64,0,0,1-1.77.95,5.58,5.58,0,0,1-1.28.14,3.91,3.91,0,0,1-3-1.28,5,5,0,0,1-1.22-3.58,5.45,5.45,0,0,1,1.22-3.68,4,4,0,0,1,3.2-1.42A4.26,4.26,0,0,1,126,35.77Zm.57,3.7a4.11,4.11,0,0,0-.45-1.65A2.27,2.27,0,0,0,124,36.68a2.36,2.36,0,0,0-1.81.79,3,3,0,0,0-.78,2Z"/><path class="cls-1" d="M131.13,42a2.35,2.35,0,0,0,.4,1.22,2.57,2.57,0,0,0,2.12.76,3.24,3.24,0,0,0,1.58-.38,1.28,1.28,0,0,0,.68-1.18,1,1,0,0,0-.54-.93A7,7,0,0,0,134,41l-1.28-.32a6.14,6.14,0,0,1-1.8-.67,2,2,0,0,1-1-1.77,2.7,2.7,0,0,1,1-2.17,3.92,3.92,0,0,1,2.62-.82,3.65,3.65,0,0,1,3.11,1.25,2.66,2.66,0,0,1,.58,1.7h-1.5a1.82,1.82,0,0,0-.38-1,2.53,2.53,0,0,0-1.94-.62A2.36,2.36,0,0,0,132,37a1.08,1.08,0,0,0-.47.9,1.1,1.1,0,0,0,.62,1,3.59,3.59,0,0,0,1.06.39l1.06.25a8.71,8.71,0,0,1,2.33.8,2.11,2.11,0,0,1,.92,1.91,2.89,2.89,0,0,1-1,2.17,4.14,4.14,0,0,1-2.94.92,4,4,0,0,1-3-1,3.56,3.56,0,0,1-.95-2.36Z"/><path class="cls-1" d="M140.13,42a2.35,2.35,0,0,0,.4,1.22,2.57,2.57,0,0,0,2.12.76,3.24,3.24,0,0,0,1.58-.38,1.28,1.28,0,0,0,.68-1.18,1,1,0,0,0-.54-.93A7,7,0,0,0,143,41l-1.28-.32a6.14,6.14,0,0,1-1.8-.67,2,2,0,0,1-1-1.77,2.7,2.7,0,0,1,1-2.17,3.92,3.92,0,0,1,2.62-.82,3.65,3.65,0,0,1,3.11,1.25,2.66,2.66,0,0,1,.58,1.7h-1.5a1.82,1.82,0,0,0-.38-1,2.53,2.53,0,0,0-1.94-.62A2.36,2.36,0,0,0,141,37a1.08,1.08,0,0,0-.47.9,1.1,1.1,0,0,0,.62,1,3.59,3.59,0,0,0,1.06.39l1.06.25a8.71,8.71,0,0,1,2.33.8,2.11,2.11,0,0,1,.92,1.91,2.89,2.89,0,0,1-1,2.17,4.14,4.14,0,0,1-2.94.92,4,4,0,0,1-3-1,3.56,3.56,0,0,1-.95-2.36Z"/><path class="cls-1" d="M155,36.45A4.77,4.77,0,0,1,156.26,40a6.18,6.18,0,0,1-1.1,3.76,4,4,0,0,1-3.41,1.48A3.87,3.87,0,0,1,148.68,44a5.2,5.2,0,0,1-1.13-3.53,5.64,5.64,0,0,1,1.19-3.77A4,4,0,0,1,152,35.24,4.21,4.21,0,0,1,155,36.45Zm-1,6.26a6.06,6.06,0,0,0,.57-2.65,4.72,4.72,0,0,0-.41-2.14,2.34,2.34,0,0,0-2.28-1.3,2.25,2.25,0,0,0-2.09,1.11,5.18,5.18,0,0,0-.65,2.67,4.53,4.53,0,0,0,.65,2.5,2.32,2.32,0,0,0,2.07,1A2.17,2.17,0,0,0,154,42.71Z"/><path class="cls-1" d="M163.2,35.51h1.56v1.34a5.6,5.6,0,0,1,1-1,3.09,3.09,0,0,1,1.78-.54,2.8,2.8,0,0,1,1.81.56,2.83,2.83,0,0,1,.7.93,3.36,3.36,0,0,1,1.24-1.12,3.4,3.4,0,0,1,1.6-.37,2.63,2.63,0,0,1,2.59,1.37,4.62,4.62,0,0,1,.37,2v6.27h-1.65V38.39a1.52,1.52,0,0,0-.47-1.29,1.82,1.82,0,0,0-1.15-.36,2.26,2.26,0,0,0-1.6.63,2.72,2.72,0,0,0-.67,2.08v5.48h-1.61V38.78a3.17,3.17,0,0,0-.23-1.39,1.39,1.39,0,0,0-1.34-.66,2.31,2.31,0,0,0-1.63.69,3.39,3.39,0,0,0-.74,2.51v5H163.2Z"/><path class="cls-1" d="M179.78,35.51v6.25a2.67,2.67,0,0,0,.22,1.18,1.54,1.54,0,0,0,1.53.84,2.17,2.17,0,0,0,2.19-1.47,6,6,0,0,0,.32-2.17V35.51h1.58v9.42h-1.49V43.54a3,3,0,0,1-.75.9,3.21,3.21,0,0,1-2.15.74,2.76,2.76,0,0,1-2.69-1.34,4.08,4.08,0,0,1-.39-1.93v-6.4Zm4.06-3.78-2.35,2.54h-1.21l1.61-2.54Z"/><path class="cls-1" d="M188.25,32h1.58V44.93h-1.58Z"/><path class="cls-1" d="M192.52,32.89h1.6v2.62h1.5v1.3h-1.5V43a.67.67,0,0,0,.33.66,1.55,1.55,0,0,0,.62.09h.25l.3,0v1.26a3.47,3.47,0,0,1-.56.11,6.28,6.28,0,0,1-.64,0,1.7,1.7,0,0,1-1.5-.57,2.48,2.48,0,0,1-.4-1.47V36.81h-1.27v-1.3h1.27Z"/><path class="cls-1" d="M197.2,32h1.61v1.79H197.2Zm0,3.54h1.61v9.37H197.2Z"/><path class="cls-1" d="M201.07,35.56h1.55v1.25a3.91,3.91,0,0,1,1-1,3.34,3.34,0,0,1,1.88-.53,3.56,3.56,0,0,1,2.73,1.23,5.06,5.06,0,0,1,1.12,3.5q0,3.08-1.62,4.4a3.67,3.67,0,0,1-2.38.83,3.24,3.24,0,0,1-1.79-.46,4.32,4.32,0,0,1-.95-.91v4.81h-1.58Zm6,7.38a4.37,4.37,0,0,0,.74-2.78,5.09,5.09,0,0,0-.33-1.93,2.39,2.39,0,0,0-4.51.09,6.4,6.4,0,0,0-.33,2.23,4.64,4.64,0,0,0,.33,1.85,2.24,2.24,0,0,0,2.26,1.46A2.27,2.27,0,0,0,207,42.94Z"/><path class="cls-1" d="M211.26,32h1.58V44.93h-1.58Z"/><path class="cls-1" d="M222,36.45A4.73,4.73,0,0,1,223.28,40a6.12,6.12,0,0,1-1.1,3.76,4,4,0,0,1-3.41,1.48A3.83,3.83,0,0,1,215.71,44a5.2,5.2,0,0,1-1.14-3.53,5.59,5.59,0,0,1,1.2-3.77A4,4,0,0,1,219,35.24,4.2,4.2,0,0,1,222,36.45Zm-1,6.26a5.92,5.92,0,0,0,.58-2.65,4.71,4.71,0,0,0-.42-2.14,2.33,2.33,0,0,0-2.27-1.3,2.24,2.24,0,0,0-2.09,1.11,5.08,5.08,0,0,0-.65,2.67,4.45,4.45,0,0,0,.65,2.5,2.29,2.29,0,0,0,2.07,1A2.15,2.15,0,0,0,221.05,42.71Z"/><path class="cls-1" d="M98.5,96.3A4.55,4.55,0,0,1,100,99.24H98.28a3.24,3.24,0,0,0-3.52-2.71,3.78,3.78,0,0,0-3,1.34A6.2,6.2,0,0,0,90.58,102a6.11,6.11,0,0,0,1,3.69,3.62,3.62,0,0,0,3.11,1.41,3.26,3.26,0,0,0,2.89-1.49,5.89,5.89,0,0,0,.79-2h1.7A5.89,5.89,0,0,1,98.62,107a5.29,5.29,0,0,1-4.1,1.67,5.37,5.37,0,0,1-3.74-1.37c-1.33-1.2-2-3.06-2-5.56A7.15,7.15,0,0,1,90.29,97a5.4,5.4,0,0,1,4.45-2A5.18,5.18,0,0,1,98.5,96.3Z"/><path class="cls-1" d="M102.2,98.86h1.51v1.63a3.45,3.45,0,0,1,.9-1.16,2.37,2.37,0,0,1,1.66-.68h.15l.36,0v1.67l-.26,0h-.26a2.23,2.23,0,0,0-1.83.77,2.66,2.66,0,0,0-.64,1.77v5.41H102.2Z"/><path class="cls-1" d="M108.15,95.36h1.61v1.79h-1.61Zm0,3.54h1.61v9.37h-1.61Z"/><path class="cls-1" d="M118,99.12a3.5,3.5,0,0,1,1.42,1.22A4.14,4.14,0,0,1,120,102a11.12,11.12,0,0,1,.14,2.07h-6.85a4.08,4.08,0,0,0,.68,2.31,2.23,2.23,0,0,0,1.94.86,2.49,2.49,0,0,0,2-.82,2.71,2.71,0,0,0,.58-1.1H120a3.31,3.31,0,0,1-.41,1.16,4.1,4.1,0,0,1-.78,1,3.63,3.63,0,0,1-1.77,1,5.45,5.45,0,0,1-1.28.14,3.94,3.94,0,0,1-3-1.28,5,5,0,0,1-1.21-3.58,5.42,5.42,0,0,1,1.22-3.69,4,4,0,0,1,3.2-1.41A4.32,4.32,0,0,1,118,99.12Zm.56,3.69a4.11,4.11,0,0,0-.44-1.64,2.28,2.28,0,0,0-2.15-1.14,2.41,2.41,0,0,0-1.82.78,3.06,3.06,0,0,0-.77,2Z"/><path class="cls-1" d="M127.94,98.86l2.52,7.66,2.62-7.66h1.73l-3.55,9.41h-1.68l-3.47-9.41Z"/><path class="cls-1" d="M141.21,102.58a.86.86,0,0,0,.73-.46,1.4,1.4,0,0,0,.1-.61,1.31,1.31,0,0,0-.57-1.18,3.09,3.09,0,0,0-1.64-.36,2.09,2.09,0,0,0-1.76.67,2.25,2.25,0,0,0-.38,1.1h-1.47a2.73,2.73,0,0,1,1.13-2.43,4.65,4.65,0,0,1,2.51-.68,5.14,5.14,0,0,1,2.7.63,2.16,2.16,0,0,1,1,2v5.43a.75.75,0,0,0,.1.39.49.49,0,0,0,.43.15h.24l.28,0v1.17a5,5,0,0,1-.56.13,4,4,0,0,1-.53,0,1.3,1.3,0,0,1-1.19-.58,2.12,2.12,0,0,1-.27-.87,4,4,0,0,1-1.39,1.1,4.29,4.29,0,0,1-2,.47,3,3,0,0,1-2.14-.8,2.61,2.61,0,0,1-.83-2,2.56,2.56,0,0,1,.81-2,3.9,3.9,0,0,1,2.15-.89Zm-3.33,4.27a1.87,1.87,0,0,0,1.19.39,3.56,3.56,0,0,0,1.61-.38,2.18,2.18,0,0,0,1.32-2.1v-1.27a3,3,0,0,1-.74.31,6.16,6.16,0,0,1-.9.17l-1,.13a3.45,3.45,0,0,0-1.29.36,1.38,1.38,0,0,0-.73,1.31A1.28,1.28,0,0,0,137.88,106.85Zm4-11.78-2.35,2.54h-1.21l1.61-2.54Z"/><path class="cls-1" d="M146.22,98.86h1.5v1.63a3.65,3.65,0,0,1,.91-1.16,2.35,2.35,0,0,1,1.66-.68h.15l.36,0v1.67l-.26,0h-.26a2.24,2.24,0,0,0-1.84.77,2.71,2.71,0,0,0-.64,1.77v5.41h-1.58Z"/><path class="cls-1" d="M152.17,95.36h1.61v1.79h-1.61Zm0,3.54h1.61v9.37h-1.61Z"/><path class="cls-1" d="M163,99.8a4.75,4.75,0,0,1,1.25,3.56,6.16,6.16,0,0,1-1.1,3.76,4,4,0,0,1-3.41,1.49,3.84,3.84,0,0,1-3.07-1.32,5.22,5.22,0,0,1-1.13-3.52,5.69,5.69,0,0,1,1.19-3.78,4,4,0,0,1,3.21-1.4A4.21,4.21,0,0,1,163,99.8Zm-1,6.25a6,6,0,0,0,.57-2.64,4.72,4.72,0,0,0-.41-2.14,2.34,2.34,0,0,0-2.28-1.3,2.26,2.26,0,0,0-2.09,1.1,5.23,5.23,0,0,0-.65,2.67,4.51,4.51,0,0,0,.65,2.5,2.3,2.3,0,0,0,2.07,1A2.15,2.15,0,0,0,162,106.05Z"/><path class="cls-1" d="M167.12,105.32a2.28,2.28,0,0,0,.4,1.21,2.58,2.58,0,0,0,2.12.77,3.14,3.14,0,0,0,1.58-.39,1.26,1.26,0,0,0,.68-1.18,1,1,0,0,0-.54-.92,6.58,6.58,0,0,0-1.38-.45L168.7,104a6.3,6.3,0,0,1-1.8-.66,2,2,0,0,1-1-1.78,2.7,2.7,0,0,1,1-2.16,3.92,3.92,0,0,1,2.62-.83,3.68,3.68,0,0,1,3.11,1.25,2.7,2.7,0,0,1,.58,1.71h-1.49a1.84,1.84,0,0,0-.39-1,2.5,2.5,0,0,0-1.94-.62,2.36,2.36,0,0,0-1.39.34,1.06,1.06,0,0,0-.47.9,1.12,1.12,0,0,0,.62,1,3.9,3.9,0,0,0,1.06.39l1.06.25a8.36,8.36,0,0,1,2.33.8,2.11,2.11,0,0,1,.93,1.91,2.9,2.9,0,0,1-1,2.17,4.13,4.13,0,0,1-2.94.91,4,4,0,0,1-3-.95,3.58,3.58,0,0,1-1-2.36Z"/><path class="cls-1" d="M180.5,96.23h1.6v2.63h1.5v1.29h-1.5v6.14a.67.67,0,0,0,.33.66,1.34,1.34,0,0,0,.62.1h.24l.31,0v1.25a3.38,3.38,0,0,1-.57.12,6.19,6.19,0,0,1-.63,0,1.73,1.73,0,0,1-1.51-.57,2.51,2.51,0,0,1-.39-1.47v-6.23h-1.28V98.86h1.28Z"/><path class="cls-1" d="M185.18,95.36h1.61v1.79h-1.61Zm0,3.54h1.61v9.37h-1.61Z"/><path class="cls-1" d="M189.05,98.9h1.55v1.25a3.59,3.59,0,0,1,1-1,3.34,3.34,0,0,1,1.88-.53,3.53,3.53,0,0,1,2.72,1.23,5,5,0,0,1,1.12,3.5c0,2-.53,3.52-1.61,4.39a3.64,3.64,0,0,1-2.38.84,3.22,3.22,0,0,1-1.79-.47,3.84,3.84,0,0,1-1-.9V112h-1.58Zm5.95,7.38a4.4,4.4,0,0,0,.74-2.77,5.06,5.06,0,0,0-.33-1.93,2.39,2.39,0,0,0-4.51.08,6.46,6.46,0,0,0-.33,2.24,4.67,4.67,0,0,0,.33,1.85,2.39,2.39,0,0,0,4.1.53Z"/><path class="cls-1" d="M206,99.8a4.75,4.75,0,0,1,1.25,3.56,6.16,6.16,0,0,1-1.1,3.76,4,4,0,0,1-3.41,1.49,3.84,3.84,0,0,1-3.07-1.32,5.22,5.22,0,0,1-1.13-3.52,5.64,5.64,0,0,1,1.2-3.78,4,4,0,0,1,3.21-1.4A4.2,4.2,0,0,1,206,99.8Zm-1,6.25a6,6,0,0,0,.58-2.64,4.71,4.71,0,0,0-.42-2.14,2.34,2.34,0,0,0-2.28-1.3,2.24,2.24,0,0,0-2.08,1.1,5.13,5.13,0,0,0-.65,2.67,4.43,4.43,0,0,0,.65,2.5,2.27,2.27,0,0,0,2.07,1A2.15,2.15,0,0,0,205,106.05Z"/><path class="cls-1" d="M210.14,105.32a2.28,2.28,0,0,0,.41,1.21,2.55,2.55,0,0,0,2.11.77,3.11,3.11,0,0,0,1.58-.39,1.24,1.24,0,0,0,.68-1.18,1,1,0,0,0-.54-.92,6.37,6.37,0,0,0-1.38-.45l-1.27-.32a6.26,6.26,0,0,1-1.81-.66,2,2,0,0,1-1-1.78,2.69,2.69,0,0,1,1-2.16,3.94,3.94,0,0,1,2.62-.83,3.66,3.66,0,0,1,3.11,1.25,2.7,2.7,0,0,1,.58,1.71h-1.49a1.76,1.76,0,0,0-.39-1,2.49,2.49,0,0,0-1.93-.62,2.34,2.34,0,0,0-1.39.34,1,1,0,0,0-.48.9,1.11,1.11,0,0,0,.63,1,3.81,3.81,0,0,0,1,.39l1.07.25a8.49,8.49,0,0,1,2.33.8,2.12,2.12,0,0,1,.92,1.91,2.87,2.87,0,0,1-1,2.17,4.13,4.13,0,0,1-2.94.91,4,4,0,0,1-3-.95,3.58,3.58,0,0,1-.95-2.36Z"/><path class="cls-1" d="M229,99.12a3.5,3.5,0,0,1,1.42,1.22,4.14,4.14,0,0,1,.63,1.66,11.12,11.12,0,0,1,.14,2.07h-6.85a4.08,4.08,0,0,0,.68,2.31,2.23,2.23,0,0,0,1.94.86,2.49,2.49,0,0,0,2-.82,2.71,2.71,0,0,0,.58-1.1h1.56a3.31,3.31,0,0,1-.41,1.16,4.1,4.1,0,0,1-.78,1,3.63,3.63,0,0,1-1.77,1,5.45,5.45,0,0,1-1.28.14,3.94,3.94,0,0,1-3-1.28,5,5,0,0,1-1.21-3.58,5.42,5.42,0,0,1,1.22-3.69,4,4,0,0,1,3.2-1.41A4.32,4.32,0,0,1,229,99.12Zm.56,3.69a4.11,4.11,0,0,0-.44-1.64A2.28,2.28,0,0,0,227,100a2.41,2.41,0,0,0-1.82.78,3.06,3.06,0,0,0-.77,2Z"/><path class="cls-1" d="M89.2,116.36h1.59v12.91H89.2Z"/><path class="cls-1" d="M100,120.8a4.75,4.75,0,0,1,1.25,3.56,6.16,6.16,0,0,1-1.1,3.76,4,4,0,0,1-3.41,1.49,3.84,3.84,0,0,1-3.07-1.32,5.22,5.22,0,0,1-1.13-3.52A5.69,5.69,0,0,1,93.71,121a4,4,0,0,1,3.22-1.4A4.2,4.2,0,0,1,100,120.8Zm-1,6.25a6,6,0,0,0,.58-2.64,4.71,4.71,0,0,0-.42-2.14,2.34,2.34,0,0,0-2.28-1.3,2.24,2.24,0,0,0-2.08,1.1,5.13,5.13,0,0,0-.66,2.67,4.43,4.43,0,0,0,.66,2.5,2.27,2.27,0,0,0,2.07,1A2.15,2.15,0,0,0,99,127.05Z"/><path class="cls-1" d="M103.49,117.23h1.6v2.63h1.5v1.29h-1.5v6.14a.67.67,0,0,0,.33.66,1.34,1.34,0,0,0,.62.1h.24l.31,0v1.25a3.38,3.38,0,0,1-.57.12,6.19,6.19,0,0,1-.63,0,1.73,1.73,0,0,1-1.51-.57,2.51,2.51,0,0,1-.39-1.47v-6.23h-1.28v-1.29h1.28Z"/><path class="cls-1" d="M114,120.12a3.56,3.56,0,0,1,1.42,1.22A4.29,4.29,0,0,1,116,123a11.12,11.12,0,0,1,.14,2.07h-6.85a4.08,4.08,0,0,0,.67,2.31,2.27,2.27,0,0,0,2,.86,2.49,2.49,0,0,0,2-.82,2.71,2.71,0,0,0,.58-1.1h1.56a3.31,3.31,0,0,1-.41,1.16,4.1,4.1,0,0,1-.78,1,3.63,3.63,0,0,1-1.77.95,5.51,5.51,0,0,1-1.28.14,3.94,3.94,0,0,1-3-1.28,5,5,0,0,1-1.21-3.58,5.42,5.42,0,0,1,1.22-3.69,4,4,0,0,1,3.2-1.41A4.32,4.32,0,0,1,114,120.12Zm.56,3.69a4.11,4.11,0,0,0-.44-1.64A2.28,2.28,0,0,0,112,121a2.4,2.4,0,0,0-1.81.78,3,3,0,0,0-.77,2Z"/><path class="cls-1" d="M119.12,126.32a2.28,2.28,0,0,0,.41,1.21,2.55,2.55,0,0,0,2.11.77,3.11,3.11,0,0,0,1.58-.39,1.24,1.24,0,0,0,.68-1.18,1,1,0,0,0-.54-.92,6.37,6.37,0,0,0-1.38-.45l-1.27-.32a6.26,6.26,0,0,1-1.81-.66,2,2,0,0,1-1-1.78,2.69,2.69,0,0,1,1-2.16,3.94,3.94,0,0,1,2.62-.83,3.66,3.66,0,0,1,3.11,1.25,2.7,2.7,0,0,1,.58,1.71h-1.49a1.76,1.76,0,0,0-.39-1,2.49,2.49,0,0,0-1.93-.62,2.34,2.34,0,0,0-1.39.34,1,1,0,0,0-.48.9,1.11,1.11,0,0,0,.63,1,3.81,3.81,0,0,0,1.05.39l1.07.25a8.49,8.49,0,0,1,2.33.8,2.12,2.12,0,0,1,.92,1.91,2.87,2.87,0,0,1-1,2.17,4.13,4.13,0,0,1-2.94.91,4,4,0,0,1-3-.95,3.58,3.58,0,0,1-1-2.36Z"/><path class="cls-1" d="M137.36,120.15a4.39,4.39,0,0,1,.95.92v-4.75h1.52v13h-1.42V128a3.48,3.48,0,0,1-1.31,1.26,3.69,3.69,0,0,1-1.72.39,3.48,3.48,0,0,1-2.72-1.33,5.19,5.19,0,0,1-1.14-3.52,6.05,6.05,0,0,1,1-3.56,3.42,3.42,0,0,1,3-1.51A3.31,3.31,0,0,1,137.36,120.15Zm-3.54,7.06a2.24,2.24,0,0,0,2.05,1,2.16,2.16,0,0,0,1.8-.95,4.47,4.47,0,0,0,.7-2.71,4,4,0,0,0-.72-2.64,2.29,2.29,0,0,0-1.8-.86,2.38,2.38,0,0,0-1.93.92,4.21,4.21,0,0,0-.73,2.69A4.75,4.75,0,0,0,133.82,127.21Z"/><path class="cls-1" d="M148,120.12a3.5,3.5,0,0,1,1.42,1.22,4,4,0,0,1,.63,1.66,11.12,11.12,0,0,1,.14,2.07h-6.85a4.08,4.08,0,0,0,.68,2.31,2.23,2.23,0,0,0,1.94.86,2.49,2.49,0,0,0,2-.82,2.59,2.59,0,0,0,.58-1.1h1.56a3.31,3.31,0,0,1-.41,1.16,4.32,4.32,0,0,1-.77,1,3.72,3.72,0,0,1-1.77.95,5.6,5.6,0,0,1-1.29.14,3.94,3.94,0,0,1-3-1.28,5,5,0,0,1-1.21-3.58,5.47,5.47,0,0,1,1.22-3.69,4,4,0,0,1,3.2-1.41A4.29,4.29,0,0,1,148,120.12Zm.57,3.69a4.27,4.27,0,0,0-.45-1.64A2.28,2.28,0,0,0,146,121a2.41,2.41,0,0,0-1.82.78,3.06,3.06,0,0,0-.77,2Z"/><path class="cls-1" d="M157.21,116.36h1.6v1.79h-1.6Zm0,3.54h1.6v9.37h-1.6Z"/><path class="cls-1" d="M161.2,119.86h1.51v1.34a4,4,0,0,1,1.41-1.19,3.78,3.78,0,0,1,1.66-.36,2.73,2.73,0,0,1,2.71,1.4,4.91,4.91,0,0,1,.39,2.18v6h-1.61v-5.93A3.22,3.22,0,0,0,167,122a1.55,1.55,0,0,0-1.52-.88,3,3,0,0,0-.93.12,2.37,2.37,0,0,0-1.14.77,2.25,2.25,0,0,0-.51,1,6.44,6.44,0,0,0-.12,1.42v4.93H161.2Z"/><path class="cls-1" d="M176.45,120.24a4.19,4.19,0,0,1,.91.89V120h1.46v8.56a6.34,6.34,0,0,1-.53,2.83,3.76,3.76,0,0,1-3.7,1.91,4.49,4.49,0,0,1-2.55-.68,2.64,2.64,0,0,1-1.16-2.13h1.61a1.9,1.9,0,0,0,.45,1,2.33,2.33,0,0,0,1.68.52,2.29,2.29,0,0,0,2.37-1.28,7.2,7.2,0,0,0,.31-2.7,3.25,3.25,0,0,1-1.14,1.08,4.07,4.07,0,0,1-4.43-.74,4.79,4.79,0,0,1-1.14-3.59,5.47,5.47,0,0,1,1.15-3.69,3.55,3.55,0,0,1,2.78-1.33A3.36,3.36,0,0,1,176.45,120.24Zm.19,1.69a2.3,2.3,0,0,0-1.83-.84,2.26,2.26,0,0,0-2.27,1.56,6.34,6.34,0,0,0-.32,2.19,3.88,3.88,0,0,0,.64,2.42,2.05,2.05,0,0,0,1.73.83,2.42,2.42,0,0,0,2.38-1.53,4.93,4.93,0,0,0,.39-2A4,4,0,0,0,176.64,121.93Z"/><path class="cls-1" d="M181.27,119.86h1.5v1.63a3.65,3.65,0,0,1,.91-1.16,2.35,2.35,0,0,1,1.66-.68h.15l.36,0v1.67l-.26,0h-.26a2.24,2.24,0,0,0-1.84.77,2.71,2.71,0,0,0-.64,1.77v5.41h-1.58Z"/><path class="cls-1" d="M193,120.12a3.56,3.56,0,0,1,1.42,1.22,4.29,4.29,0,0,1,.63,1.66,11.12,11.12,0,0,1,.14,2.07h-6.85a4.08,4.08,0,0,0,.67,2.31,2.27,2.27,0,0,0,1.95.86,2.49,2.49,0,0,0,2-.82,2.71,2.71,0,0,0,.58-1.1h1.56a3.53,3.53,0,0,1-.41,1.16,4.35,4.35,0,0,1-.78,1,3.63,3.63,0,0,1-1.77.95,5.51,5.51,0,0,1-1.28.14,3.94,3.94,0,0,1-3-1.28,5,5,0,0,1-1.22-3.58,5.43,5.43,0,0,1,1.23-3.69,4,4,0,0,1,3.19-1.41A4.33,4.33,0,0,1,193,120.12Zm.56,3.69a4.11,4.11,0,0,0-.44-1.64A2.28,2.28,0,0,0,191,121a2.38,2.38,0,0,0-1.81.78,3,3,0,0,0-.77,2Z"/><path class="cls-1" d="M198.17,126.32a2.19,2.19,0,0,0,.41,1.21,2.55,2.55,0,0,0,2.11.77,3.11,3.11,0,0,0,1.58-.39,1.24,1.24,0,0,0,.68-1.18,1,1,0,0,0-.54-.92,6.37,6.37,0,0,0-1.38-.45l-1.27-.32a6.26,6.26,0,0,1-1.81-.66,2,2,0,0,1-1-1.78,2.7,2.7,0,0,1,1-2.16,3.92,3.92,0,0,1,2.62-.83,3.66,3.66,0,0,1,3.11,1.25,2.7,2.7,0,0,1,.58,1.71h-1.49a1.76,1.76,0,0,0-.39-1,2.49,2.49,0,0,0-1.93-.62,2.32,2.32,0,0,0-1.39.34,1,1,0,0,0-.48.9,1.12,1.12,0,0,0,.62,1,4,4,0,0,0,1.06.39l1.07.25a8.39,8.39,0,0,1,2.32.8,2.11,2.11,0,0,1,.93,1.91,2.87,2.87,0,0,1-1,2.17,4.13,4.13,0,0,1-2.94.91,4,4,0,0,1-3-.95,3.58,3.58,0,0,1-.95-2.36Z"/><path class="cls-1" d="M207.17,126.32a2.19,2.19,0,0,0,.41,1.21,2.55,2.55,0,0,0,2.11.77,3.11,3.11,0,0,0,1.58-.39,1.24,1.24,0,0,0,.68-1.18,1,1,0,0,0-.54-.92,6.37,6.37,0,0,0-1.38-.45l-1.27-.32a6.26,6.26,0,0,1-1.81-.66,2,2,0,0,1-1-1.78,2.7,2.7,0,0,1,1-2.16,3.92,3.92,0,0,1,2.62-.83,3.66,3.66,0,0,1,3.11,1.25,2.7,2.7,0,0,1,.58,1.71h-1.49a1.76,1.76,0,0,0-.39-1,2.49,2.49,0,0,0-1.93-.62,2.32,2.32,0,0,0-1.39.34,1,1,0,0,0-.48.9,1.12,1.12,0,0,0,.62,1,4,4,0,0,0,1.06.39l1.07.25a8.39,8.39,0,0,1,2.32.8,2.11,2.11,0,0,1,.93,1.91,2.87,2.87,0,0,1-1,2.17,4.13,4.13,0,0,1-2.94.91,4,4,0,0,1-3-.95,3.58,3.58,0,0,1-.95-2.36Z"/><path class="cls-1" d="M222.05,120.8a4.75,4.75,0,0,1,1.25,3.56,6.16,6.16,0,0,1-1.1,3.76,4,4,0,0,1-3.41,1.49,3.84,3.84,0,0,1-3.07-1.32,5.22,5.22,0,0,1-1.13-3.52,5.64,5.64,0,0,1,1.2-3.78,4,4,0,0,1,3.21-1.4A4.2,4.2,0,0,1,222.05,120.8Zm-1,6.25a6,6,0,0,0,.58-2.64,4.71,4.71,0,0,0-.42-2.14A2.34,2.34,0,0,0,219,121a2.24,2.24,0,0,0-2.08,1.1,5.13,5.13,0,0,0-.65,2.67,4.43,4.43,0,0,0,.65,2.5,2.27,2.27,0,0,0,2.07,1A2.15,2.15,0,0,0,221.07,127.05Z"/><path class="cls-1" d="M226.18,126.32a2.28,2.28,0,0,0,.41,1.21,2.55,2.55,0,0,0,2.11.77,3.11,3.11,0,0,0,1.58-.39,1.24,1.24,0,0,0,.68-1.18,1,1,0,0,0-.54-.92,6.37,6.37,0,0,0-1.38-.45l-1.27-.32a6.26,6.26,0,0,1-1.81-.66,2,2,0,0,1-1-1.78,2.69,2.69,0,0,1,1-2.16,3.94,3.94,0,0,1,2.62-.83,3.66,3.66,0,0,1,3.11,1.25,2.7,2.7,0,0,1,.58,1.71h-1.49a1.76,1.76,0,0,0-.39-1,2.49,2.49,0,0,0-1.93-.62,2.34,2.34,0,0,0-1.39.34,1,1,0,0,0-.48.9,1.11,1.11,0,0,0,.63,1,3.81,3.81,0,0,0,1.05.39l1.07.25a8.49,8.49,0,0,1,2.33.8,2.12,2.12,0,0,1,.92,1.91,2.87,2.87,0,0,1-1,2.17,4.13,4.13,0,0,1-2.94.91,4,4,0,0,1-3-.95,3.58,3.58,0,0,1-1-2.36Z"/><path class="cls-1" d="M90.4,237.64l3.7,11,3.67-11h2L95,250.55H93.16l-4.7-12.91Z"/><path class="cls-1" d="M106,241.4a3.54,3.54,0,0,1,1.42,1.21,4.25,4.25,0,0,1,.63,1.66,11.32,11.32,0,0,1,.14,2.08h-6.85a4.12,4.12,0,0,0,.67,2.3,2.25,2.25,0,0,0,1.95.87,2.49,2.49,0,0,0,2-.82,2.84,2.84,0,0,0,.58-1.1h1.56a3.27,3.27,0,0,1-.41,1.15,3.93,3.93,0,0,1-.78,1,3.55,3.55,0,0,1-1.77,1,5,5,0,0,1-1.28.14,3.91,3.91,0,0,1-3-1.28A5,5,0,0,1,99.65,246a5.4,5.4,0,0,1,1.22-3.68,4,4,0,0,1,3.2-1.41A4.19,4.19,0,0,1,106,241.4Zm.56,3.69a4.11,4.11,0,0,0-.44-1.64,2.28,2.28,0,0,0-2.15-1.14,2.41,2.41,0,0,0-1.82.78,3,3,0,0,0-.77,2Z"/><path class="cls-1" d="M110.19,241.14h1.51v1.33a4.12,4.12,0,0,1,1.41-1.18,3.78,3.78,0,0,1,1.66-.36,2.74,2.74,0,0,1,2.71,1.39,4.93,4.93,0,0,1,.39,2.19v6h-1.61v-5.93a3.19,3.19,0,0,0-.26-1.39,1.54,1.54,0,0,0-1.53-.88,3.35,3.35,0,0,0-.92.11,2.39,2.39,0,0,0-1.14.78,2.28,2.28,0,0,0-.52,1,6.49,6.49,0,0,0-.11,1.42v4.93h-1.59Z"/><path class="cls-1" d="M125.38,241.43a4.16,4.16,0,0,1,1,.92v-4.76h1.52v13h-1.42v-1.31a3.48,3.48,0,0,1-1.31,1.26,3.82,3.82,0,0,1-1.72.38,3.5,3.5,0,0,1-2.72-1.32,5.19,5.19,0,0,1-1.14-3.52,6.05,6.05,0,0,1,1-3.56,3.42,3.42,0,0,1,3-1.51A3.31,3.31,0,0,1,125.38,241.43Zm-3.54,7a2.24,2.24,0,0,0,2,1,2.15,2.15,0,0,0,1.8-.94,4.49,4.49,0,0,0,.7-2.71,4,4,0,0,0-.72-2.64,2.26,2.26,0,0,0-1.8-.86,2.34,2.34,0,0,0-1.92.91,4.17,4.17,0,0,0-.74,2.69A4.72,4.72,0,0,0,121.84,248.48Z"/><path class="cls-1" d="M135.26,244.85a.86.86,0,0,0,.73-.45,1.43,1.43,0,0,0,.1-.61,1.3,1.3,0,0,0-.57-1.18,3.09,3.09,0,0,0-1.64-.37,2.09,2.09,0,0,0-1.76.68,2.21,2.21,0,0,0-.38,1.1h-1.47a2.73,2.73,0,0,1,1.13-2.43,4.65,4.65,0,0,1,2.51-.68,5.16,5.16,0,0,1,2.7.63,2.15,2.15,0,0,1,1,2v5.42a.76.76,0,0,0,.1.4.49.49,0,0,0,.43.15l.24,0a1.45,1.45,0,0,0,.28,0v1.17a5.57,5.57,0,0,1-.56.14l-.53,0a1.3,1.3,0,0,1-1.19-.58,2.12,2.12,0,0,1-.27-.87,4.06,4.06,0,0,1-1.39,1.1,4.29,4.29,0,0,1-2,.47,3,3,0,0,1-2.14-.8,2.61,2.61,0,0,1-.83-2,2.56,2.56,0,0,1,.81-2,3.9,3.9,0,0,1,2.15-.89Zm-3.33,4.28a1.87,1.87,0,0,0,1.19.39,3.57,3.57,0,0,0,1.61-.39,2.16,2.16,0,0,0,1.32-2.09v-1.27a2.71,2.71,0,0,1-.74.3,6.23,6.23,0,0,1-.9.18l-1,.12a3.88,3.88,0,0,0-1.29.36,1.41,1.41,0,0,0-.73,1.32A1.3,1.3,0,0,0,131.93,249.13Z"/><path class="cls-1" d="M145.09,241.18h1.55v1.25a3.86,3.86,0,0,1,1-1,3.3,3.3,0,0,1,1.89-.53,3.57,3.57,0,0,1,2.72,1.22,5,5,0,0,1,1.12,3.51q0,3.08-1.62,4.39a3.62,3.62,0,0,1-2.38.84,3.24,3.24,0,0,1-1.79-.47,4.1,4.1,0,0,1-.94-.91v4.81h-1.59Zm6,7.38a4.4,4.4,0,0,0,.73-2.77,5.36,5.36,0,0,0-.32-1.94,2.4,2.4,0,0,0-4.52.09,6.46,6.46,0,0,0-.32,2.23,4.7,4.7,0,0,0,.32,1.86,2.4,2.4,0,0,0,4.11.53Z"/><path class="cls-1" d="M155.28,241.14h1.5v1.62a3.75,3.75,0,0,1,.91-1.15,2.31,2.31,0,0,1,1.66-.68h.15l.36,0v1.67l-.26,0h-.26a2.27,2.27,0,0,0-1.84.76,2.76,2.76,0,0,0-.64,1.78v5.41h-1.58Z"/><path class="cls-1" d="M168.05,242.08a4.73,4.73,0,0,1,1.25,3.56,6.16,6.16,0,0,1-1.1,3.76,4,4,0,0,1-3.41,1.48,3.84,3.84,0,0,1-3.07-1.31,5.23,5.23,0,0,1-1.13-3.53,5.61,5.61,0,0,1,1.2-3.77,4,4,0,0,1,3.21-1.41A4.21,4.21,0,0,1,168.05,242.08Zm-1,6.25a6,6,0,0,0,.58-2.64,4.76,4.76,0,0,0-.42-2.15,2.35,2.35,0,0,0-2.28-1.3,2.23,2.23,0,0,0-2.08,1.11,5.13,5.13,0,0,0-.65,2.67,4.45,4.45,0,0,0,.65,2.5,2.27,2.27,0,0,0,2.07,1A2.16,2.16,0,0,0,167.07,248.33Z"/><path class="cls-1" d="M176.41,241.43a4.17,4.17,0,0,1,1,.92v-4.76h1.52v13h-1.43v-1.31a3.39,3.39,0,0,1-1.3,1.26,3.82,3.82,0,0,1-1.72.38,3.5,3.5,0,0,1-2.72-1.32,5.2,5.2,0,0,1-1.15-3.52,6.06,6.06,0,0,1,1.05-3.56,3.41,3.41,0,0,1,3-1.51A3.25,3.25,0,0,1,176.41,241.43Zm-3.53,7a2.24,2.24,0,0,0,2.05,1,2.15,2.15,0,0,0,1.8-.94,4.49,4.49,0,0,0,.7-2.71,4,4,0,0,0-.73-2.64,2.23,2.23,0,0,0-1.79-.86,2.37,2.37,0,0,0-1.93.91,4.23,4.23,0,0,0-.74,2.69A4.73,4.73,0,0,0,172.88,248.48Z"/><path class="cls-1" d="M182.83,241.14v6.25a2.62,2.62,0,0,0,.23,1.17,1.53,1.53,0,0,0,1.53.85,2.18,2.18,0,0,0,2.19-1.48,6,6,0,0,0,.32-2.17v-4.62h1.58v9.41h-1.49v-1.39a3.18,3.18,0,0,1-.75.91,3.26,3.26,0,0,1-2.15.73,2.75,2.75,0,0,1-2.69-1.34,4.05,4.05,0,0,1-.39-1.93v-6.39Z"/><path class="cls-1" d="M191.58,238.51h1.6v2.63h1.5v1.29h-1.5v6.14a.67.67,0,0,0,.33.66,1.37,1.37,0,0,0,.62.1h.24l.31,0v1.26a3.47,3.47,0,0,1-.56.11,4.31,4.31,0,0,1-.64,0,1.7,1.7,0,0,1-1.5-.57,2.48,2.48,0,0,1-.4-1.47v-6.23h-1.27v-1.29h1.27Z"/><path class="cls-1" d="M203.08,242.08a4.69,4.69,0,0,1,1.25,3.56,6.1,6.1,0,0,1-1.1,3.76,4,4,0,0,1-3.41,1.48,3.82,3.82,0,0,1-3.06-1.31,5.18,5.18,0,0,1-1.14-3.53,5.61,5.61,0,0,1,1.2-3.77,4,4,0,0,1,3.21-1.41A4.21,4.21,0,0,1,203.08,242.08Zm-1,6.25a5.88,5.88,0,0,0,.58-2.64,4.76,4.76,0,0,0-.42-2.15,2.35,2.35,0,0,0-2.27-1.3,2.24,2.24,0,0,0-2.09,1.11,5.23,5.23,0,0,0-.65,2.67,4.53,4.53,0,0,0,.65,2.5,2.27,2.27,0,0,0,2.07,1A2.15,2.15,0,0,0,202.1,248.33Z"/><path class="cls-1" d="M207.22,247.6a2.22,2.22,0,0,0,.4,1.21,2.57,2.57,0,0,0,2.12.76,3.16,3.16,0,0,0,1.58-.38A1.27,1.27,0,0,0,212,248a1,1,0,0,0-.55-.92,6.43,6.43,0,0,0-1.37-.45l-1.28-.32a6,6,0,0,1-1.8-.67,2,2,0,0,1-1-1.77,2.69,2.69,0,0,1,1-2.16,4,4,0,0,1,2.63-.83,3.69,3.69,0,0,1,3.11,1.25,2.73,2.73,0,0,1,.58,1.7h-1.5a1.79,1.79,0,0,0-.39-1,2.51,2.51,0,0,0-1.93-.62,2.41,2.41,0,0,0-1.39.34,1.06,1.06,0,0,0-.47.91,1.11,1.11,0,0,0,.62,1,3.94,3.94,0,0,0,1.06.38l1.06.26a8.16,8.16,0,0,1,2.33.8,2.12,2.12,0,0,1,.92,1.9,2.91,2.91,0,0,1-1,2.18,4.21,4.21,0,0,1-2.94.91,4,4,0,0,1-3-.95,3.59,3.59,0,0,1-.94-2.36Z"/><path class="cls-1" d="M226.09,241.4a3.48,3.48,0,0,1,1.42,1.21,4.1,4.1,0,0,1,.63,1.66,10.48,10.48,0,0,1,.14,2.08h-6.84a4,4,0,0,0,.67,2.3,2.23,2.23,0,0,0,1.94.87,2.47,2.47,0,0,0,2-.82,2.86,2.86,0,0,0,.59-1.1h1.55a3.27,3.27,0,0,1-.41,1.15,4.13,4.13,0,0,1-.77,1,3.64,3.64,0,0,1-1.77,1,5.1,5.1,0,0,1-1.29.14,3.91,3.91,0,0,1-3-1.28,5,5,0,0,1-1.21-3.58,5.45,5.45,0,0,1,1.22-3.68,4,4,0,0,1,3.2-1.41A4.16,4.16,0,0,1,226.09,241.4Zm.57,3.69a4.1,4.1,0,0,0-.45-1.64,2.27,2.27,0,0,0-2.15-1.14,2.38,2.38,0,0,0-1.81.78,3,3,0,0,0-.78,2Z"/><path class="cls-1" d="M90.1,268.6a2.31,2.31,0,0,0,.4,1.21,2.58,2.58,0,0,0,2.12.76,3.11,3.11,0,0,0,1.58-.38,1.25,1.25,0,0,0,.68-1.18,1,1,0,0,0-.54-.92,6.37,6.37,0,0,0-1.38-.45l-1.27-.32a6.23,6.23,0,0,1-1.81-.67,2,2,0,0,1-1-1.77,2.7,2.7,0,0,1,1-2.16,3.92,3.92,0,0,1,2.62-.83,3.66,3.66,0,0,1,3.11,1.25,2.67,2.67,0,0,1,.58,1.7H94.64a1.79,1.79,0,0,0-.39-1,2.52,2.52,0,0,0-1.93-.62,2.39,2.39,0,0,0-1.39.34,1.07,1.07,0,0,0-.48.91,1.13,1.13,0,0,0,.62,1,3.94,3.94,0,0,0,1.06.38l1.07.26a8.06,8.06,0,0,1,2.32.8,2.1,2.1,0,0,1,.93,1.9,2.92,2.92,0,0,1-1,2.18,4.17,4.17,0,0,1-2.94.91,4,4,0,0,1-3-1,3.6,3.6,0,0,1-1-2.36Z"/><path class="cls-1" d="M104,262.4a3.54,3.54,0,0,1,1.42,1.21,4.42,4.42,0,0,1,.63,1.66,11.32,11.32,0,0,1,.14,2.08H99.32a4,4,0,0,0,.67,2.3,2.25,2.25,0,0,0,2,.87,2.49,2.49,0,0,0,2-.82,2.84,2.84,0,0,0,.58-1.1H106a3.27,3.27,0,0,1-.41,1.15,3.93,3.93,0,0,1-.78,1,3.55,3.55,0,0,1-1.77.95,5,5,0,0,1-1.28.14,3.91,3.91,0,0,1-3-1.28A5,5,0,0,1,97.62,267a5.4,5.4,0,0,1,1.23-3.68,4,4,0,0,1,3.19-1.41A4.2,4.2,0,0,1,104,262.4Zm.56,3.69a4.11,4.11,0,0,0-.44-1.64,2.28,2.28,0,0,0-2.16-1.14,2.38,2.38,0,0,0-1.81.78,3,3,0,0,0-.77,2Z"/><path class="cls-1" d="M108.22,262.14h1.5v1.62a3.54,3.54,0,0,1,.9-1.15,2.34,2.34,0,0,1,1.67-.68h.14l.36,0v1.67l-.25,0h-.26a2.27,2.27,0,0,0-1.84.76,2.7,2.7,0,0,0-.64,1.78v5.41h-1.58Z"/><path class="cls-1" d="M114.94,262.14l2.52,7.66,2.62-7.66h1.73l-3.55,9.41h-1.68l-3.47-9.41Z"/><path class="cls-1" d="M123.17,258.64h1.6v1.79h-1.6Zm0,3.54h1.6v9.37h-1.6Z"/><path class="cls-1" d="M133.38,262.64a3.65,3.65,0,0,1,1.2,2.66H133a2.8,2.8,0,0,0-.64-1.45,2,2,0,0,0-1.61-.57,2.23,2.23,0,0,0-2.16,1.47,5.9,5.9,0,0,0-.42,2.36,4.4,4.4,0,0,0,.6,2.38,2.32,2.32,0,0,0,3.44.37,3.28,3.28,0,0,0,.79-1.64h1.54a4.08,4.08,0,0,1-1.32,2.74,3.75,3.75,0,0,1-2.44.86l-.62.85a2.42,2.42,0,0,1,.66-.07,1.46,1.46,0,0,1,1,.35,1.32,1.32,0,0,1,.39,1,1.51,1.51,0,0,1-.52,1.15,2.38,2.38,0,0,1-1.62.48,3.76,3.76,0,0,1-1-.13,7.2,7.2,0,0,1-.75-.25l.3-.71.52.18a2.8,2.8,0,0,0,.66.09,1.6,1.6,0,0,0,.56-.09.67.67,0,0,0,.46-.67.65.65,0,0,0-.23-.49.92.92,0,0,0-.63-.21,1.67,1.67,0,0,0-.34,0,2.45,2.45,0,0,0-.37.11l-.31-.36.95-1.29a2.88,2.88,0,0,1-2.18-1,5.43,5.43,0,0,1-1.27-3.72,5.65,5.65,0,0,1,1.21-3.86,3.88,3.88,0,0,1,3.06-1.38A4.06,4.06,0,0,1,133.38,262.64Z"/><path class="cls-1" d="M143,263.08a4.73,4.73,0,0,1,1.24,3.56,6.1,6.1,0,0,1-1.1,3.76,4,4,0,0,1-3.41,1.48,3.82,3.82,0,0,1-3.06-1.31,5.18,5.18,0,0,1-1.14-3.53,5.61,5.61,0,0,1,1.2-3.77,4,4,0,0,1,3.21-1.41A4.25,4.25,0,0,1,143,263.08Zm-1,6.25a5.88,5.88,0,0,0,.58-2.64,4.76,4.76,0,0,0-.42-2.15,2.35,2.35,0,0,0-2.27-1.3,2.25,2.25,0,0,0-2.09,1.11,5.23,5.23,0,0,0-.65,2.67,4.53,4.53,0,0,0,.65,2.5,2.28,2.28,0,0,0,2.07,1A2.15,2.15,0,0,0,142,269.33Z"/><path class="cls-1" d="M147.12,268.6a2.22,2.22,0,0,0,.4,1.21,2.57,2.57,0,0,0,2.12.76,3.16,3.16,0,0,0,1.58-.38,1.27,1.27,0,0,0,.68-1.18,1,1,0,0,0-.55-.92,6.43,6.43,0,0,0-1.37-.45l-1.28-.32a6,6,0,0,1-1.8-.67,2,2,0,0,1-1-1.77,2.69,2.69,0,0,1,1-2.16,4,4,0,0,1,2.63-.83,3.69,3.69,0,0,1,3.11,1.25,2.73,2.73,0,0,1,.58,1.7h-1.5a1.79,1.79,0,0,0-.39-1,2.51,2.51,0,0,0-1.93-.62,2.41,2.41,0,0,0-1.39.34,1.06,1.06,0,0,0-.47.91,1.11,1.11,0,0,0,.62,1,3.94,3.94,0,0,0,1.06.38l1.06.26a8.16,8.16,0,0,1,2.33.8,2.12,2.12,0,0,1,.92,1.9,2.91,2.91,0,0,1-1,2.18,4.21,4.21,0,0,1-2.94.91,4,4,0,0,1-3-1,3.59,3.59,0,0,1-.94-2.36Z"/><path class="cls-1" d="M156,262.26h1.84v1.92H156Zm0,7.37h1.84v1.92H156Z"/><path class="cls-1" d="M171.4,262.64a3.73,3.73,0,0,1,1.2,2.66h-1.54a3,3,0,0,0-.64-1.45,2,2,0,0,0-1.61-.57,2.21,2.21,0,0,0-2.16,1.47,5.72,5.72,0,0,0-.43,2.36,4.4,4.4,0,0,0,.6,2.38,2.32,2.32,0,0,0,3.44.37,3.29,3.29,0,0,0,.8-1.64h1.54a3.71,3.71,0,0,1-4,3.6,3.62,3.62,0,0,1-3-1.35,5.17,5.17,0,0,1-1.09-3.37,5.7,5.7,0,0,1,1.2-3.86,3.9,3.9,0,0,1,3.07-1.38A4.1,4.1,0,0,1,171.4,262.64Z"/><path class="cls-1" d="M179.22,265.85a.84.84,0,0,0,.73-.45,1.41,1.41,0,0,0,.11-.61,1.28,1.28,0,0,0-.58-1.18,3.09,3.09,0,0,0-1.64-.37,2.09,2.09,0,0,0-1.76.68,2.22,2.22,0,0,0-.37,1.1h-1.48a2.75,2.75,0,0,1,1.13-2.43,4.65,4.65,0,0,1,2.51-.68,5.14,5.14,0,0,1,2.7.63,2.16,2.16,0,0,1,1,2v5.42a.68.68,0,0,0,.1.4c.06.1.21.15.42.15l.24,0a1.45,1.45,0,0,0,.28,0v1.17a5,5,0,0,1-.56.14l-.53,0a1.28,1.28,0,0,1-1.18-.58,2.28,2.28,0,0,1-.28-.87,4,4,0,0,1-1.39,1.1,4.26,4.26,0,0,1-2,.47,3,3,0,0,1-2.14-.8,2.65,2.65,0,0,1-.83-2,2.53,2.53,0,0,1,.82-2,3.87,3.87,0,0,1,2.14-.89Zm-3.33,4.28a1.89,1.89,0,0,0,1.19.39,3.64,3.64,0,0,0,1.62-.39A2.16,2.16,0,0,0,180,268v-1.27a2.71,2.71,0,0,1-.74.3,6,6,0,0,1-.9.18l-1,.12a3.88,3.88,0,0,0-1.3.36,1.41,1.41,0,0,0-.73,1.32A1.33,1.33,0,0,0,175.89,270.13Z"/><path class="cls-1" d="M184.19,262.14h1.56v1.33a5.6,5.6,0,0,1,1-1,3.06,3.06,0,0,1,1.78-.53,2.79,2.79,0,0,1,1.81.55,2.83,2.83,0,0,1,.7.93,3.45,3.45,0,0,1,1.24-1.12,3.52,3.52,0,0,1,1.6-.36,2.59,2.59,0,0,1,2.58,1.37,4.4,4.4,0,0,1,.37,2v6.27h-1.64V265a1.52,1.52,0,0,0-.47-1.29,1.83,1.83,0,0,0-1.15-.35,2.25,2.25,0,0,0-1.6.62,2.74,2.74,0,0,0-.67,2.08v5.48h-1.61v-6.14a3.22,3.22,0,0,0-.23-1.4,1.4,1.4,0,0,0-1.35-.66,2.34,2.34,0,0,0-1.63.69,3.42,3.42,0,0,0-.73,2.52v5h-1.58Z"/><path class="cls-1" d="M199.18,258.64h1.61v1.79h-1.61Zm0,3.54h1.61v9.37h-1.61Z"/><path class="cls-1" d="M204.12,268.6a2.22,2.22,0,0,0,.41,1.21,2.54,2.54,0,0,0,2.11.76,3.11,3.11,0,0,0,1.58-.38,1.25,1.25,0,0,0,.68-1.18,1,1,0,0,0-.54-.92,6.37,6.37,0,0,0-1.38-.45l-1.27-.32a6.23,6.23,0,0,1-1.81-.67,2,2,0,0,1-1-1.77,2.69,2.69,0,0,1,1-2.16,3.94,3.94,0,0,1,2.62-.83,3.66,3.66,0,0,1,3.11,1.25,2.67,2.67,0,0,1,.58,1.7h-1.49a1.79,1.79,0,0,0-.39-1,2.52,2.52,0,0,0-1.93-.62,2.39,2.39,0,0,0-1.39.34,1.07,1.07,0,0,0-.48.91,1.13,1.13,0,0,0,.62,1,4.07,4.07,0,0,0,1.06.38l1.07.26a8.06,8.06,0,0,1,2.32.8,2.1,2.1,0,0,1,.93,1.9,2.89,2.89,0,0,1-1,2.18,4.17,4.17,0,0,1-2.94.91,4,4,0,0,1-3-1,3.6,3.6,0,0,1-1-2.36Z"/><path class="cls-1" d="M217.23,265.85a.87.87,0,0,0,.73-.45,1.43,1.43,0,0,0,.1-.61,1.3,1.3,0,0,0-.57-1.18,3.13,3.13,0,0,0-1.65-.37,2.07,2.07,0,0,0-1.75.68,2.21,2.21,0,0,0-.38,1.1h-1.48a2.75,2.75,0,0,1,1.13-2.43,4.66,4.66,0,0,1,2.52-.68,5.13,5.13,0,0,1,2.69.63,2.14,2.14,0,0,1,1,2v5.42a.68.68,0,0,0,.1.4.49.49,0,0,0,.43.15l.23,0a1.55,1.55,0,0,0,.29,0v1.17a5.61,5.61,0,0,1-.57.14l-.52,0a1.3,1.3,0,0,1-1.19-.58,2.12,2.12,0,0,1-.27-.87,4.16,4.16,0,0,1-1.39,1.1,4.33,4.33,0,0,1-2,.47,3,3,0,0,1-2.14-.8,2.65,2.65,0,0,1-.83-2,2.53,2.53,0,0,1,.82-2,3.87,3.87,0,0,1,2.14-.89Zm-3.33,4.28a1.84,1.84,0,0,0,1.18.39,3.58,3.58,0,0,0,1.62-.39A2.16,2.16,0,0,0,218,268v-1.27a2.79,2.79,0,0,1-.75.3,5.85,5.85,0,0,1-.89.18l-1,.12a3.88,3.88,0,0,0-1.29.36,1.42,1.42,0,0,0-.74,1.32A1.31,1.31,0,0,0,213.9,270.13Z"/><path class="cls-1" d="M223.13,268.6a2.31,2.31,0,0,0,.41,1.21,2.54,2.54,0,0,0,2.11.76,3.11,3.11,0,0,0,1.58-.38,1.25,1.25,0,0,0,.68-1.18,1,1,0,0,0-.54-.92,6.37,6.37,0,0,0-1.38-.45l-1.27-.32a6.23,6.23,0,0,1-1.81-.67,2,2,0,0,1-1-1.77,2.69,2.69,0,0,1,1-2.16,3.94,3.94,0,0,1,2.62-.83,3.66,3.66,0,0,1,3.11,1.25,2.67,2.67,0,0,1,.58,1.7h-1.49a1.79,1.79,0,0,0-.39-1,2.52,2.52,0,0,0-1.93-.62,2.41,2.41,0,0,0-1.39.34,1.07,1.07,0,0,0-.48.91,1.12,1.12,0,0,0,.63,1,3.85,3.85,0,0,0,1,.38l1.07.26a8.16,8.16,0,0,1,2.33.8,2.12,2.12,0,0,1,.92,1.9,2.89,2.89,0,0,1-1,2.18,4.17,4.17,0,0,1-2.94.91,4,4,0,0,1-3-1,3.6,3.6,0,0,1-.95-2.36Z"/><path class="cls-1" d="M231.53,273.4a1.14,1.14,0,0,0,.85-.86,2.39,2.39,0,0,0,.13-.77v-.11a.61.61,0,0,0,0-.11h-.95v-1.92h1.88v1.78a3.87,3.87,0,0,1-.42,1.84,2,2,0,0,1-1.46,1Z"/><path class="cls-1" d="M89,283.18h1.55v1.25a3.59,3.59,0,0,1,1-1,3.27,3.27,0,0,1,1.88-.53,3.55,3.55,0,0,1,2.72,1.22,5,5,0,0,1,1.12,3.51c0,2.05-.53,3.51-1.61,4.39a3.64,3.64,0,0,1-2.38.84,3.22,3.22,0,0,1-1.79-.47,4.11,4.11,0,0,1-1-.91v4.81H89Zm6,7.38a4.4,4.4,0,0,0,.74-2.77,5.15,5.15,0,0,0-.33-1.94,2.39,2.39,0,0,0-4.51.09,6.44,6.44,0,0,0-.33,2.23,4.69,4.69,0,0,0,.33,1.86,2.39,2.39,0,0,0,4.1.53Z"/><path class="cls-1" d="M104.22,286.85a.87.87,0,0,0,.73-.45,1.43,1.43,0,0,0,.1-.61,1.3,1.3,0,0,0-.57-1.18,3.13,3.13,0,0,0-1.65-.37,2.07,2.07,0,0,0-1.75.68,2.21,2.21,0,0,0-.38,1.1H99.22a2.75,2.75,0,0,1,1.13-2.43,4.68,4.68,0,0,1,2.52-.68,5.13,5.13,0,0,1,2.69.63,2.14,2.14,0,0,1,1,2v5.42a.68.68,0,0,0,.1.4.49.49,0,0,0,.43.15l.23,0a1.55,1.55,0,0,0,.29,0v1.17a5.61,5.61,0,0,1-.57.14l-.52,0a1.3,1.3,0,0,1-1.19-.58,2.12,2.12,0,0,1-.27-.87,4.16,4.16,0,0,1-1.39,1.1,4.33,4.33,0,0,1-2,.47,3,3,0,0,1-2.14-.8,2.65,2.65,0,0,1-.83-2,2.53,2.53,0,0,1,.82-2,3.87,3.87,0,0,1,2.14-.89Zm-3.33,4.28a1.86,1.86,0,0,0,1.18.39,3.58,3.58,0,0,0,1.62-.39A2.16,2.16,0,0,0,105,289v-1.27a2.79,2.79,0,0,1-.75.3,5.85,5.85,0,0,1-.89.18l-1,.12a3.88,3.88,0,0,0-1.29.36,1.42,1.42,0,0,0-.74,1.32A1.31,1.31,0,0,0,100.89,291.13Z"/><path class="cls-1" d="M110.12,289.6a2.31,2.31,0,0,0,.41,1.21,2.54,2.54,0,0,0,2.11.76,3.11,3.11,0,0,0,1.58-.38,1.25,1.25,0,0,0,.68-1.18,1,1,0,0,0-.54-.92,6.37,6.37,0,0,0-1.38-.45l-1.27-.32a6.23,6.23,0,0,1-1.81-.67,2,2,0,0,1-1-1.77,2.69,2.69,0,0,1,1-2.16,3.94,3.94,0,0,1,2.62-.83,3.66,3.66,0,0,1,3.11,1.25,2.67,2.67,0,0,1,.58,1.7h-1.49a1.79,1.79,0,0,0-.39-1,2.52,2.52,0,0,0-1.93-.62,2.41,2.41,0,0,0-1.39.34,1.07,1.07,0,0,0-.48.91,1.12,1.12,0,0,0,.63,1,3.85,3.85,0,0,0,1.05.38l1.07.26a8.16,8.16,0,0,1,2.33.8,2.12,2.12,0,0,1,.92,1.9,2.89,2.89,0,0,1-1,2.18,4.17,4.17,0,0,1-2.94.91,4,4,0,0,1-3-1,3.6,3.6,0,0,1-1-2.36Z"/><path class="cls-1" d="M119.12,289.6a2.31,2.31,0,0,0,.41,1.21,2.54,2.54,0,0,0,2.11.76,3.11,3.11,0,0,0,1.58-.38,1.25,1.25,0,0,0,.68-1.18,1,1,0,0,0-.54-.92,6.37,6.37,0,0,0-1.38-.45l-1.27-.32a6.23,6.23,0,0,1-1.81-.67,2,2,0,0,1-1-1.77,2.69,2.69,0,0,1,1-2.16,3.94,3.94,0,0,1,2.62-.83,3.66,3.66,0,0,1,3.11,1.25,2.67,2.67,0,0,1,.58,1.7h-1.49a1.79,1.79,0,0,0-.39-1,2.52,2.52,0,0,0-1.93-.62,2.41,2.41,0,0,0-1.39.34,1.07,1.07,0,0,0-.48.91,1.12,1.12,0,0,0,.63,1,3.85,3.85,0,0,0,1.05.38l1.07.26a8.16,8.16,0,0,1,2.33.8,2.12,2.12,0,0,1,.92,1.9,2.89,2.89,0,0,1-1,2.18,4.17,4.17,0,0,1-2.94.91,4,4,0,0,1-3-1,3.6,3.6,0,0,1-1-2.36Z"/><path class="cls-1" d="M133,283.4a3.54,3.54,0,0,1,1.42,1.21,4.25,4.25,0,0,1,.63,1.66,11.32,11.32,0,0,1,.14,2.08h-6.85a4.12,4.12,0,0,0,.67,2.3,2.25,2.25,0,0,0,2,.87,2.49,2.49,0,0,0,2-.82,2.84,2.84,0,0,0,.58-1.1h1.56a3.27,3.27,0,0,1-.41,1.15,3.93,3.93,0,0,1-.78,1,3.55,3.55,0,0,1-1.77.95,5,5,0,0,1-1.28.14,3.91,3.91,0,0,1-3-1.28,5,5,0,0,1-1.21-3.58,5.4,5.4,0,0,1,1.22-3.68,4,4,0,0,1,3.2-1.41A4.19,4.19,0,0,1,133,283.4Zm.56,3.69a4.11,4.11,0,0,0-.44-1.64,2.28,2.28,0,0,0-2.15-1.14,2.41,2.41,0,0,0-1.82.78,3,3,0,0,0-.77,2Z"/><path class="cls-1" d="M138.13,289.6a2.31,2.31,0,0,0,.41,1.21,2.54,2.54,0,0,0,2.11.76,3.11,3.11,0,0,0,1.58-.38,1.25,1.25,0,0,0,.68-1.18,1,1,0,0,0-.54-.92,6.37,6.37,0,0,0-1.38-.45l-1.27-.32a6.23,6.23,0,0,1-1.81-.67,2,2,0,0,1-1-1.77,2.69,2.69,0,0,1,1-2.16,4,4,0,0,1,2.63-.83,3.66,3.66,0,0,1,3.1,1.25,2.67,2.67,0,0,1,.58,1.7h-1.49a1.79,1.79,0,0,0-.39-1,2.51,2.51,0,0,0-1.93-.62,2.41,2.41,0,0,0-1.39.34,1.06,1.06,0,0,0-.47.91,1.11,1.11,0,0,0,.62,1,3.85,3.85,0,0,0,1,.38l1.07.26a8.16,8.16,0,0,1,2.33.8,2.12,2.12,0,0,1,.92,1.9,2.89,2.89,0,0,1-1,2.18,4.17,4.17,0,0,1-2.94.91,4,4,0,0,1-3-1,3.6,3.6,0,0,1-.95-2.36Z"/><path class="cls-1" d="M146.53,294.4a1.13,1.13,0,0,0,.85-.86,2.39,2.39,0,0,0,.13-.77v-.11s0-.07,0-.11h-1v-1.92h1.88v1.78a3.87,3.87,0,0,1-.42,1.84,2,2,0,0,1-1.46,1Z"/><path class="cls-1" d="M161.37,283.43a4.16,4.16,0,0,1,.95.92v-4.76h1.52v13h-1.42v-1.31a3.41,3.41,0,0,1-1.31,1.26,3.79,3.79,0,0,1-1.72.38,3.5,3.5,0,0,1-2.72-1.32,5.19,5.19,0,0,1-1.14-3.52,6.12,6.12,0,0,1,1-3.56,3.42,3.42,0,0,1,3-1.51A3.31,3.31,0,0,1,161.37,283.43Zm-3.53,7.05a2.22,2.22,0,0,0,2,1,2.15,2.15,0,0,0,1.8-.94,4.49,4.49,0,0,0,.7-2.71,4,4,0,0,0-.72-2.64,2.25,2.25,0,0,0-1.8-.86,2.34,2.34,0,0,0-1.92.91,4.17,4.17,0,0,0-.74,2.69A4.64,4.64,0,0,0,157.84,290.48Z"/><path class="cls-1" d="M172,283.4a3.48,3.48,0,0,1,1.42,1.21,4.1,4.1,0,0,1,.63,1.66,10.48,10.48,0,0,1,.14,2.08h-6.84a4,4,0,0,0,.67,2.3,2.23,2.23,0,0,0,1.94.87,2.47,2.47,0,0,0,2-.82,2.86,2.86,0,0,0,.59-1.1h1.55a3.27,3.27,0,0,1-.41,1.15,4.13,4.13,0,0,1-.77,1,3.64,3.64,0,0,1-1.77.95,5.1,5.1,0,0,1-1.29.14,3.91,3.91,0,0,1-3-1.28,5,5,0,0,1-1.21-3.58,5.45,5.45,0,0,1,1.22-3.68,4,4,0,0,1,3.2-1.41A4.16,4.16,0,0,1,172,283.4Zm.57,3.69a4.27,4.27,0,0,0-.45-1.64,2.27,2.27,0,0,0-2.15-1.14,2.37,2.37,0,0,0-1.81.78,3,3,0,0,0-.78,2Z"/><path class="cls-1" d="M176.26,279.64h1.58v12.91h-1.58Z"/><path class="cls-1" d="M180.22,279.64h1.6v1.79h-1.6Zm0,3.54h1.6v9.37h-1.6Z"/><path class="cls-1" d="M185,283.14l2.52,7.66,2.61-7.66h1.74l-3.55,9.41h-1.68l-3.47-9.41Z"/><path class="cls-1" d="M199,283.4a3.48,3.48,0,0,1,1.42,1.21,4.1,4.1,0,0,1,.63,1.66,11.32,11.32,0,0,1,.14,2.08h-6.85a4,4,0,0,0,.68,2.3,2.22,2.22,0,0,0,1.94.87,2.49,2.49,0,0,0,2-.82,2.72,2.72,0,0,0,.58-1.1h1.56a3.27,3.27,0,0,1-.41,1.15,4.13,4.13,0,0,1-.77,1,3.64,3.64,0,0,1-1.77.95,5.1,5.1,0,0,1-1.29.14,3.91,3.91,0,0,1-3-1.28,5,5,0,0,1-1.21-3.58,5.45,5.45,0,0,1,1.22-3.68,4,4,0,0,1,3.2-1.41A4.16,4.16,0,0,1,199,283.4Zm.57,3.69a4.27,4.27,0,0,0-.45-1.64,2.28,2.28,0,0,0-2.15-1.14,2.37,2.37,0,0,0-1.81.78,3,3,0,0,0-.78,2Z"/><path class="cls-1" d="M203.27,283.14h1.5v1.62a3.75,3.75,0,0,1,.91-1.15,2.31,2.31,0,0,1,1.66-.68h.15l.36,0v1.67l-.26,0h-.26a2.27,2.27,0,0,0-1.84.76,2.76,2.76,0,0,0-.64,1.78v5.41h-1.58Z"/><path class="cls-1" d="M215.1,283.14h1.75c-.22.6-.72,2-1.48,4.13q-.87,2.43-1.44,4a26.71,26.71,0,0,1-1.94,4.39,2.21,2.21,0,0,1-1.93.79,3.3,3.3,0,0,1-.51,0,3.71,3.71,0,0,1-.44-.1v-1.44a3.52,3.52,0,0,0,.59.14l.33,0a1.19,1.19,0,0,0,.64-.14,1.5,1.5,0,0,0,.35-.36c0-.05.13-.29.31-.72s.32-.75.4-1l-3.48-9.69H210l2.52,7.66Z"/><path class="cls-1" d="M219.16,289.6a2.31,2.31,0,0,0,.4,1.21,2.58,2.58,0,0,0,2.12.76,3.13,3.13,0,0,0,1.58-.38,1.27,1.27,0,0,0,.68-1.18,1,1,0,0,0-.54-.92,6.58,6.58,0,0,0-1.38-.45l-1.28-.32a6.26,6.26,0,0,1-1.8-.67,2,2,0,0,1-1-1.77,2.7,2.7,0,0,1,1-2.16,3.92,3.92,0,0,1,2.62-.83,3.68,3.68,0,0,1,3.11,1.25,2.67,2.67,0,0,1,.58,1.7H223.7a1.87,1.87,0,0,0-.39-1,2.53,2.53,0,0,0-1.94-.62,2.43,2.43,0,0,0-1.39.34,1.08,1.08,0,0,0-.47.91,1.13,1.13,0,0,0,.62,1,3.94,3.94,0,0,0,1.06.38l1.06.26a8,8,0,0,1,2.33.8,2.1,2.1,0,0,1,.93,1.9,2.92,2.92,0,0,1-1,2.18,4.17,4.17,0,0,1-2.94.91,4,4,0,0,1-3-1,3.6,3.6,0,0,1-1-2.36Z"/><path class="cls-1" d="M228.13,290.62H230v1.93h-1.84Zm6,1.93v-1.93H236v1.93Zm6,0v-1.93H242v1.93Z"/><path class="cls-1" d="M90.4,172l3.7,11,3.67-11h2L95,184.89H93.16L88.46,172Z"/><path class="cls-1" d="M106,175.73a3.64,3.64,0,0,1,1.42,1.22,4.2,4.2,0,0,1,.63,1.66,11.2,11.2,0,0,1,.14,2.07h-6.85A4.16,4.16,0,0,0,102,183a2.25,2.25,0,0,0,1.95.87,2.52,2.52,0,0,0,2-.82,2.81,2.81,0,0,0,.58-1.11h1.56a3.31,3.31,0,0,1-.41,1.16,4.1,4.1,0,0,1-.78,1,3.55,3.55,0,0,1-1.77,1,5.45,5.45,0,0,1-1.28.14,3.94,3.94,0,0,1-3-1.28,5,5,0,0,1-1.21-3.58,5.4,5.4,0,0,1,1.22-3.68,4,4,0,0,1,3.2-1.42A4.32,4.32,0,0,1,106,175.73Zm.56,3.7a4.12,4.12,0,0,0-.44-1.65,2.28,2.28,0,0,0-2.15-1.14,2.38,2.38,0,0,0-1.82.79,3,3,0,0,0-.77,2Z"/><path class="cls-1" d="M110.19,175.47h1.51v1.34a4.15,4.15,0,0,1,1.41-1.19,3.78,3.78,0,0,1,1.66-.36,2.75,2.75,0,0,1,2.71,1.4,4.93,4.93,0,0,1,.39,2.19v6h-1.61V179a3.25,3.25,0,0,0-.26-1.39,1.55,1.55,0,0,0-1.53-.87,3,3,0,0,0-.92.11,2.44,2.44,0,0,0-1.14.77,2.25,2.25,0,0,0-.52,1,6.49,6.49,0,0,0-.11,1.42v4.93h-1.59Z"/><path class="cls-1" d="M125.38,175.76a4.48,4.48,0,0,1,1,.93v-4.76h1.52v13h-1.42v-1.31a3.38,3.38,0,0,1-1.31,1.25,3.69,3.69,0,0,1-1.72.39,3.5,3.5,0,0,1-2.72-1.32,5.21,5.21,0,0,1-1.14-3.52,6.1,6.1,0,0,1,1-3.57,3.44,3.44,0,0,1,3-1.5A3.4,3.4,0,0,1,125.38,175.76Zm-3.54,7.06a2.24,2.24,0,0,0,2,1,2.18,2.18,0,0,0,1.8-.94,4.5,4.5,0,0,0,.7-2.72,4,4,0,0,0-.72-2.64,2.28,2.28,0,0,0-1.8-.85,2.34,2.34,0,0,0-1.92.91,4.17,4.17,0,0,0-.74,2.69A4.72,4.72,0,0,0,121.84,182.82Z"/><path class="cls-1" d="M135.26,179.19a.86.86,0,0,0,.73-.46,1.4,1.4,0,0,0,.1-.61,1.28,1.28,0,0,0-.57-1.17,3,3,0,0,0-1.64-.37,2.09,2.09,0,0,0-1.76.67,2.29,2.29,0,0,0-.38,1.11h-1.47a2.7,2.7,0,0,1,1.13-2.43,4.57,4.57,0,0,1,2.51-.69,5.16,5.16,0,0,1,2.7.64,2.15,2.15,0,0,1,1,2v5.42a.75.75,0,0,0,.1.39.49.49,0,0,0,.43.15h.24l.28,0v1.17a5,5,0,0,1-.56.13,3.7,3.7,0,0,1-.53,0,1.32,1.32,0,0,1-1.19-.58,2.23,2.23,0,0,1-.27-.87,4.06,4.06,0,0,1-1.39,1.1,4.29,4.29,0,0,1-2,.46,3,3,0,0,1-2.14-.79,2.61,2.61,0,0,1-.83-2,2.58,2.58,0,0,1,.81-2,4,4,0,0,1,2.15-.89Zm-3.33,4.27a1.82,1.82,0,0,0,1.19.4,3.57,3.57,0,0,0,1.61-.39,2.17,2.17,0,0,0,1.32-2.1V180.1a2.42,2.42,0,0,1-.74.31,8,8,0,0,1-.9.18l-1,.12a3.88,3.88,0,0,0-1.29.36,1.38,1.38,0,0,0-.73,1.31A1.28,1.28,0,0,0,131.93,183.46Z"/><path class="cls-1" d="M141.17,181.93a2.26,2.26,0,0,0,.4,1.22,2.57,2.57,0,0,0,2.12.76,3.27,3.27,0,0,0,1.58-.38,1.28,1.28,0,0,0,.68-1.18,1,1,0,0,0-.55-.93A6.43,6.43,0,0,0,144,181l-1.28-.31A6,6,0,0,1,141,180a2,2,0,0,1-1-1.78,2.69,2.69,0,0,1,1-2.16,3.94,3.94,0,0,1,2.63-.82,3.68,3.68,0,0,1,3.11,1.24,2.76,2.76,0,0,1,.58,1.71h-1.5a1.76,1.76,0,0,0-.39-1,2.51,2.51,0,0,0-1.93-.62,2.34,2.34,0,0,0-1.39.34,1.05,1.05,0,0,0-.47.9,1.09,1.09,0,0,0,.62,1,3.59,3.59,0,0,0,1.06.39l1.06.25a8.85,8.85,0,0,1,2.33.8,2.14,2.14,0,0,1,.92,1.91,2.89,2.89,0,0,1-1,2.17,4.16,4.16,0,0,1-2.94.92,4,4,0,0,1-3-1,3.55,3.55,0,0,1-.94-2.36Z"/><path class="cls-1" d="M154.23,172h1.6v1.8h-1.6Zm0,3.55h1.6v9.37h-1.6Z"/><path class="cls-1" d="M158.23,175.47h1.5v1.34a4.25,4.25,0,0,1,1.41-1.19,3.81,3.81,0,0,1,1.66-.36,2.75,2.75,0,0,1,2.71,1.4,4.93,4.93,0,0,1,.39,2.19v6h-1.61V179a3.42,3.42,0,0,0-.25-1.39,1.56,1.56,0,0,0-1.53-.87,3,3,0,0,0-.93.11,2.44,2.44,0,0,0-1.14.77,2.23,2.23,0,0,0-.51,1,6.38,6.38,0,0,0-.12,1.42v4.93h-1.58Z"/><path class="cls-1" d="M173.47,175.85a4.26,4.26,0,0,1,.91.9v-1.19h1.46v8.56a6.31,6.31,0,0,1-.53,2.83,3.76,3.76,0,0,1-3.7,1.92,4.57,4.57,0,0,1-2.55-.68,2.68,2.68,0,0,1-1.16-2.14h1.61a1.87,1.87,0,0,0,.45,1,2.33,2.33,0,0,0,1.68.53,2.3,2.3,0,0,0,2.37-1.29,7.17,7.17,0,0,0,.31-2.69,3.21,3.21,0,0,1-1.14,1.07,3.82,3.82,0,0,1-1.76.35,3.76,3.76,0,0,1-2.67-1.09,4.79,4.79,0,0,1-1.14-3.59,5.51,5.51,0,0,1,1.15-3.69,3.57,3.57,0,0,1,2.78-1.32A3.44,3.44,0,0,1,173.47,175.85Zm.19,1.7a2.41,2.41,0,0,0-4.1.72,6.26,6.26,0,0,0-.32,2.19,3.9,3.9,0,0,0,.64,2.42,2.08,2.08,0,0,0,1.73.83,2.43,2.43,0,0,0,2.39-1.54,5.1,5.1,0,0,0,.38-2A3.91,3.91,0,0,0,173.66,177.55Z"/><path class="cls-1" d="M178.29,175.47h1.5v1.63a3.77,3.77,0,0,1,.91-1.16,2.35,2.35,0,0,1,1.66-.68h.15l.36,0V177l-.26,0h-.26a2.27,2.27,0,0,0-1.84.77,2.71,2.71,0,0,0-.64,1.77v5.42h-1.58Z"/><path class="cls-1" d="M190.06,175.73a3.64,3.64,0,0,1,1.42,1.22,4.35,4.35,0,0,1,.63,1.66,11.2,11.2,0,0,1,.14,2.07H185.4a4.08,4.08,0,0,0,.67,2.31,2.25,2.25,0,0,0,2,.87,2.52,2.52,0,0,0,2-.82,2.81,2.81,0,0,0,.58-1.11h1.56a3.31,3.31,0,0,1-.41,1.16,4.1,4.1,0,0,1-.78,1,3.55,3.55,0,0,1-1.77,1,5.51,5.51,0,0,1-1.28.14,3.94,3.94,0,0,1-3-1.28,5,5,0,0,1-1.22-3.58,5.4,5.4,0,0,1,1.23-3.68,4,4,0,0,1,3.19-1.42A4.33,4.33,0,0,1,190.06,175.73Zm.56,3.7a4.12,4.12,0,0,0-.44-1.65,2.28,2.28,0,0,0-2.16-1.14,2.36,2.36,0,0,0-1.81.79,3,3,0,0,0-.77,2Z"/><path class="cls-1" d="M195.19,181.93a2.26,2.26,0,0,0,.41,1.22,2.54,2.54,0,0,0,2.11.76,3.21,3.21,0,0,0,1.58-.38,1.26,1.26,0,0,0,.68-1.18,1,1,0,0,0-.54-.93,6.37,6.37,0,0,0-1.38-.45l-1.27-.31A6.23,6.23,0,0,1,195,180a2,2,0,0,1-1-1.78,2.69,2.69,0,0,1,1-2.16,3.93,3.93,0,0,1,2.62-.82,3.66,3.66,0,0,1,3.11,1.24,2.7,2.7,0,0,1,.58,1.71h-1.49a1.76,1.76,0,0,0-.39-1,2.52,2.52,0,0,0-1.93-.62,2.32,2.32,0,0,0-1.39.34,1.06,1.06,0,0,0-.48.9,1.1,1.1,0,0,0,.62,1,3.71,3.71,0,0,0,1.06.39l1.07.25a8.85,8.85,0,0,1,2.33.8,2.14,2.14,0,0,1,.92,1.91,2.87,2.87,0,0,1-1,2.17,4.13,4.13,0,0,1-2.94.92,4,4,0,0,1-3-1,3.56,3.56,0,0,1-1-2.36Z"/><path class="cls-1" d="M204.19,181.93a2.26,2.26,0,0,0,.41,1.22,2.54,2.54,0,0,0,2.11.76,3.21,3.21,0,0,0,1.58-.38,1.26,1.26,0,0,0,.68-1.18,1,1,0,0,0-.54-.93,6.37,6.37,0,0,0-1.38-.45l-1.27-.31A6.23,6.23,0,0,1,204,180a2,2,0,0,1-1-1.78,2.69,2.69,0,0,1,1-2.16,3.93,3.93,0,0,1,2.62-.82,3.66,3.66,0,0,1,3.11,1.24,2.7,2.7,0,0,1,.58,1.71h-1.49a1.76,1.76,0,0,0-.39-1,2.52,2.52,0,0,0-1.93-.62,2.32,2.32,0,0,0-1.39.34,1.06,1.06,0,0,0-.48.9,1.1,1.1,0,0,0,.62,1,3.71,3.71,0,0,0,1.06.39l1.07.25a8.85,8.85,0,0,1,2.33.8,2.14,2.14,0,0,1,.92,1.91,2.87,2.87,0,0,1-1,2.17,4.13,4.13,0,0,1-2.94.92,4,4,0,0,1-3-1,3.56,3.56,0,0,1-1-2.36Z"/><path class="cls-1" d="M219.07,176.41a4.77,4.77,0,0,1,1.25,3.57,6.18,6.18,0,0,1-1.1,3.76,4,4,0,0,1-3.41,1.48,3.83,3.83,0,0,1-3.06-1.31,5.2,5.2,0,0,1-1.14-3.53,5.64,5.64,0,0,1,1.2-3.78,4,4,0,0,1,3.21-1.4A4.2,4.2,0,0,1,219.07,176.41Zm-1,6.26a5.92,5.92,0,0,0,.58-2.65,4.71,4.71,0,0,0-.42-2.14,2.34,2.34,0,0,0-2.28-1.3,2.23,2.23,0,0,0-2.08,1.11,5.07,5.07,0,0,0-.65,2.66,4.46,4.46,0,0,0,.65,2.51,2.29,2.29,0,0,0,2.07,1A2.16,2.16,0,0,0,218.09,182.67Z"/><path class="cls-1" d="M223.2,181.93a2.35,2.35,0,0,0,.41,1.22,2.54,2.54,0,0,0,2.11.76,3.21,3.21,0,0,0,1.58-.38,1.26,1.26,0,0,0,.68-1.18,1,1,0,0,0-.54-.93,6.37,6.37,0,0,0-1.38-.45l-1.27-.31A6.23,6.23,0,0,1,223,180a2,2,0,0,1-1-1.78,2.69,2.69,0,0,1,1-2.16,3.93,3.93,0,0,1,2.62-.82,3.66,3.66,0,0,1,3.11,1.24,2.7,2.7,0,0,1,.58,1.71h-1.49a1.76,1.76,0,0,0-.39-1,2.52,2.52,0,0,0-1.93-.62,2.34,2.34,0,0,0-1.39.34,1.06,1.06,0,0,0-.48.9,1.1,1.1,0,0,0,.63,1,3.51,3.51,0,0,0,1,.39l1.07.25a8.85,8.85,0,0,1,2.33.8,2.14,2.14,0,0,1,.92,1.91,2.87,2.87,0,0,1-1,2.17,4.13,4.13,0,0,1-2.94.92,4,4,0,0,1-3-1,3.56,3.56,0,0,1-.95-2.36Z"/><path class="cls-1" d="M236.13,175.52h1.55v1.24a4,4,0,0,1,1-1,3.34,3.34,0,0,1,1.88-.53,3.56,3.56,0,0,1,2.73,1.23,5.06,5.06,0,0,1,1.12,3.5q0,3.08-1.62,4.4a3.67,3.67,0,0,1-2.38.83,3.24,3.24,0,0,1-1.79-.46,4.32,4.32,0,0,1-.95-.91v4.81h-1.58Zm6,7.38a4.37,4.37,0,0,0,.74-2.78,5.09,5.09,0,0,0-.33-1.93,2.39,2.39,0,0,0-4.51.09,6.4,6.4,0,0,0-.33,2.23,4.64,4.64,0,0,0,.33,1.85,2.24,2.24,0,0,0,2.26,1.46A2.27,2.27,0,0,0,242.08,182.9Z"/><path class="cls-1" d="M251.32,179.19a.86.86,0,0,0,.73-.46,1.4,1.4,0,0,0,.1-.61,1.28,1.28,0,0,0-.57-1.17,3,3,0,0,0-1.64-.37,2.09,2.09,0,0,0-1.76.67,2.29,2.29,0,0,0-.38,1.11h-1.47a2.72,2.72,0,0,1,1.12-2.43,4.63,4.63,0,0,1,2.52-.69,5.1,5.1,0,0,1,2.69.64,2.14,2.14,0,0,1,1,2v5.42a.75.75,0,0,0,.1.39.49.49,0,0,0,.43.15h.24l.28,0v1.17a5.52,5.52,0,0,1-.56.13,3.7,3.7,0,0,1-.53,0,1.32,1.32,0,0,1-1.19-.58,2.23,2.23,0,0,1-.27-.87,4.06,4.06,0,0,1-1.39,1.1,4.29,4.29,0,0,1-2,.46,3,3,0,0,1-2.15-.79,2.65,2.65,0,0,1-.83-2,2.58,2.58,0,0,1,.82-2,4,4,0,0,1,2.15-.89ZM248,183.46a1.81,1.81,0,0,0,1.18.4,3.58,3.58,0,0,0,1.62-.39,2.17,2.17,0,0,0,1.32-2.1V180.1a2.42,2.42,0,0,1-.74.31,8,8,0,0,1-.9.18l-1,.12a3.88,3.88,0,0,0-1.29.36,1.38,1.38,0,0,0-.73,1.31A1.28,1.28,0,0,0,248,183.46Z"/><path class="cls-1" d="M256.33,175.47h1.5v1.63a3.61,3.61,0,0,1,.91-1.16,2.35,2.35,0,0,1,1.66-.68h.15l.36,0V177l-.26,0h-.26a2.27,2.27,0,0,0-1.84.77,2.66,2.66,0,0,0-.64,1.77v5.42h-1.58Z"/><path class="cls-1" d="M267.32,179.19a.85.85,0,0,0,.73-.46,1.38,1.38,0,0,0,.11-.61,1.27,1.27,0,0,0-.58-1.17,3,3,0,0,0-1.64-.37,2.07,2.07,0,0,0-1.75.67,2.19,2.19,0,0,0-.38,1.11h-1.48a2.73,2.73,0,0,1,1.13-2.43,4.57,4.57,0,0,1,2.51-.69,5.14,5.14,0,0,1,2.7.64,2.16,2.16,0,0,1,1,2v5.42a.67.67,0,0,0,.1.39.48.48,0,0,0,.42.15h.24l.28,0v1.17a4.52,4.52,0,0,1-.56.13,3.6,3.6,0,0,1-.53,0,1.3,1.3,0,0,1-1.18-.58,2.4,2.4,0,0,1-.28-.87,4,4,0,0,1-1.38,1.1,4.33,4.33,0,0,1-2,.46,3,3,0,0,1-2.14-.79,2.65,2.65,0,0,1-.83-2,2.55,2.55,0,0,1,.82-2,3.94,3.94,0,0,1,2.14-.89ZM264,183.46a1.84,1.84,0,0,0,1.19.4,3.58,3.58,0,0,0,1.62-.39,2.17,2.17,0,0,0,1.32-2.1V180.1a2.6,2.6,0,0,1-.75.31,7.17,7.17,0,0,1-.9.18l-1,.12a3.81,3.81,0,0,0-1.29.36,1.39,1.39,0,0,0-.74,1.31A1.3,1.3,0,0,0,264,183.46Z"/><path class="cls-1" d="M94.33,196.76a4.49,4.49,0,0,1,1,.93v-4.76h1.52v13H95.38v-1.31a3.29,3.29,0,0,1-1.3,1.25,3.71,3.71,0,0,1-1.73.39,3.5,3.5,0,0,1-2.71-1.32,5.21,5.21,0,0,1-1.15-3.52,6.11,6.11,0,0,1,1.05-3.57,3.42,3.42,0,0,1,3-1.5A3.34,3.34,0,0,1,94.33,196.76Zm-3.53,7.06a2.24,2.24,0,0,0,2,1,2.16,2.16,0,0,0,1.79-.94,4.5,4.5,0,0,0,.71-2.72,4,4,0,0,0-.73-2.64,2.25,2.25,0,0,0-1.79-.85,2.36,2.36,0,0,0-1.93.91,4.23,4.23,0,0,0-.74,2.69A4.73,4.73,0,0,0,90.8,203.82Z"/><path class="cls-1" d="M99.17,193h1.61v1.8H99.17Zm0,3.55h1.61v9.37H99.17Z"/><path class="cls-1" d="M108.22,200.19a.88.88,0,0,0,.73-.46,1.4,1.4,0,0,0,.1-.61,1.28,1.28,0,0,0-.57-1.17,3.06,3.06,0,0,0-1.65-.37,2.07,2.07,0,0,0-1.75.67,2.19,2.19,0,0,0-.38,1.11h-1.48a2.73,2.73,0,0,1,1.13-2.43,4.58,4.58,0,0,1,2.52-.69,5.12,5.12,0,0,1,2.69.64,2.14,2.14,0,0,1,1,2v5.42a.67.67,0,0,0,.1.39.49.49,0,0,0,.43.15h.23l.28,0v1.17a4.52,4.52,0,0,1-.56.13,3.6,3.6,0,0,1-.53,0,1.3,1.3,0,0,1-1.18-.58,2.23,2.23,0,0,1-.27-.87,4.16,4.16,0,0,1-1.39,1.1,4.33,4.33,0,0,1-2,.46,3,3,0,0,1-2.14-.79,2.65,2.65,0,0,1-.83-2,2.55,2.55,0,0,1,.82-2,3.94,3.94,0,0,1,2.14-.89Zm-3.34,4.27a1.84,1.84,0,0,0,1.19.4,3.58,3.58,0,0,0,1.62-.39,2.17,2.17,0,0,0,1.32-2.1V201.1a2.49,2.49,0,0,1-.75.31,7.39,7.39,0,0,1-.89.18l-1,.12a3.88,3.88,0,0,0-1.29.36,1.39,1.39,0,0,0-.74,1.31A1.3,1.3,0,0,0,104.88,204.46Z"/><path class="cls-1" d="M114.12,202.93a2.26,2.26,0,0,0,.41,1.22,2.54,2.54,0,0,0,2.11.76,3.21,3.21,0,0,0,1.58-.38,1.26,1.26,0,0,0,.68-1.18,1,1,0,0,0-.54-.93A6.37,6.37,0,0,0,117,202l-1.27-.31a6.23,6.23,0,0,1-1.81-.67,2,2,0,0,1-1-1.78,2.69,2.69,0,0,1,1-2.16,3.93,3.93,0,0,1,2.62-.82,3.66,3.66,0,0,1,3.11,1.24,2.7,2.7,0,0,1,.58,1.71h-1.49a1.76,1.76,0,0,0-.39-1,2.52,2.52,0,0,0-1.93-.62,2.32,2.32,0,0,0-1.39.34,1.06,1.06,0,0,0-.48.9,1.1,1.1,0,0,0,.62,1,3.71,3.71,0,0,0,1.06.39l1.07.25a8.74,8.74,0,0,1,2.32.8,2.12,2.12,0,0,1,.93,1.91,2.87,2.87,0,0,1-1,2.17,4.13,4.13,0,0,1-2.94.92,4,4,0,0,1-3-1,3.56,3.56,0,0,1-1-2.36Z"/><path class="cls-1" d="M132.35,196.76a4.49,4.49,0,0,1,1,.93v-4.76h1.52v13h-1.42v-1.31a3.38,3.38,0,0,1-1.31,1.25,3.69,3.69,0,0,1-1.72.39,3.5,3.5,0,0,1-2.72-1.32,5.21,5.21,0,0,1-1.15-3.52,6.11,6.11,0,0,1,1-3.57,3.42,3.42,0,0,1,3-1.5A3.34,3.34,0,0,1,132.35,196.76Zm-3.53,7.06a2.24,2.24,0,0,0,2.05,1,2.18,2.18,0,0,0,1.8-.94,4.5,4.5,0,0,0,.7-2.72,4,4,0,0,0-.73-2.64,2.25,2.25,0,0,0-1.79-.85,2.37,2.37,0,0,0-1.93.91,4.23,4.23,0,0,0-.74,2.69A4.73,4.73,0,0,0,128.82,203.82Z"/><path class="cls-1" d="M137.19,193h1.61v1.8h-1.61Zm0,3.55h1.61v9.37h-1.61Z"/><path class="cls-1" d="M141.93,193.6a2.42,2.42,0,0,1,2.14-.81h.3l.36,0v1.44l-.36,0h-.2c-.49,0-.78.12-.88.37a7.66,7.66,0,0,0-.14,1.91h1.58v1.24h-1.58v8.13h-1.56v-8.13h-1.31v-1.24h1.31V195A2.81,2.81,0,0,1,141.93,193.6Z"/><path class="cls-1" d="M152,196.73a3.57,3.57,0,0,1,1.42,1.22,4.2,4.2,0,0,1,.63,1.66,11.2,11.2,0,0,1,.14,2.07h-6.85A4.08,4.08,0,0,0,148,204a2.22,2.22,0,0,0,1.94.87,2.52,2.52,0,0,0,2-.82,2.81,2.81,0,0,0,.58-1.11h1.56a3.31,3.31,0,0,1-.41,1.16,4.1,4.1,0,0,1-.78,1,3.55,3.55,0,0,1-1.77,1,5.45,5.45,0,0,1-1.28.14,3.94,3.94,0,0,1-3-1.28,5,5,0,0,1-1.21-3.58,5.4,5.4,0,0,1,1.22-3.68,4,4,0,0,1,3.2-1.42A4.32,4.32,0,0,1,152,196.73Zm.56,3.7a4.12,4.12,0,0,0-.44-1.65,2.28,2.28,0,0,0-2.15-1.14,2.38,2.38,0,0,0-1.82.79,3,3,0,0,0-.77,2Z"/><path class="cls-1" d="M156.25,196.47h1.5v1.63a3.61,3.61,0,0,1,.91-1.16,2.35,2.35,0,0,1,1.66-.68h.15l.36,0V198l-.26,0h-.26a2.27,2.27,0,0,0-1.84.77,2.66,2.66,0,0,0-.64,1.77v5.42h-1.58Z"/><path class="cls-1" d="M168,196.73a3.61,3.61,0,0,1,1.43,1.22,4.35,4.35,0,0,1,.63,1.66,11.41,11.41,0,0,1,.13,2.07h-6.84A4.08,4.08,0,0,0,164,204a2.24,2.24,0,0,0,1.94.87,2.54,2.54,0,0,0,2-.82,3,3,0,0,0,.58-1.11h1.55a3.12,3.12,0,0,1-.41,1.16,4.32,4.32,0,0,1-.77,1,3.64,3.64,0,0,1-1.77,1,5.58,5.58,0,0,1-1.28.14,3.93,3.93,0,0,1-3-1.28,5,5,0,0,1-1.22-3.58,5.45,5.45,0,0,1,1.22-3.68,4,4,0,0,1,3.2-1.42A4.26,4.26,0,0,1,168,196.73Zm.57,3.7a4.11,4.11,0,0,0-.45-1.65,2.27,2.27,0,0,0-2.15-1.14,2.36,2.36,0,0,0-1.81.79,3,3,0,0,0-.78,2Z"/><path class="cls-1" d="M172.21,196.47h1.5v1.34a4.28,4.28,0,0,1,1.42-1.19,3.74,3.74,0,0,1,1.66-.36,2.75,2.75,0,0,1,2.71,1.4,5.1,5.1,0,0,1,.38,2.19v6h-1.61V200a3.26,3.26,0,0,0-.25-1.39,1.55,1.55,0,0,0-1.53-.87,3,3,0,0,0-.92.11,2.42,2.42,0,0,0-1.15.77,2.34,2.34,0,0,0-.51,1,6.38,6.38,0,0,0-.12,1.42v4.93h-1.58Z"/><path class="cls-1" d="M182.54,193.84h1.6v2.63h1.5v1.29h-1.5v6.15a.67.67,0,0,0,.33.66,1.5,1.5,0,0,0,.61.09h.25l.31,0v1.26a3.38,3.38,0,0,1-.57.11,6.28,6.28,0,0,1-.64,0,1.72,1.72,0,0,1-1.5-.57,2.55,2.55,0,0,1-.39-1.47v-6.24h-1.28v-1.29h1.28Z"/><path class="cls-1" d="M193,196.73a3.64,3.64,0,0,1,1.42,1.22,4.35,4.35,0,0,1,.63,1.66,11.2,11.2,0,0,1,.14,2.07h-6.85a4.08,4.08,0,0,0,.67,2.31,2.25,2.25,0,0,0,1.95.87,2.52,2.52,0,0,0,2-.82,2.81,2.81,0,0,0,.58-1.11h1.56a3.53,3.53,0,0,1-.41,1.16,4.35,4.35,0,0,1-.78,1,3.55,3.55,0,0,1-1.77,1,5.51,5.51,0,0,1-1.28.14,3.94,3.94,0,0,1-3-1.28,5,5,0,0,1-1.22-3.58,5.4,5.4,0,0,1,1.23-3.68,4,4,0,0,1,3.19-1.42A4.33,4.33,0,0,1,193,196.73Zm.56,3.7a4.12,4.12,0,0,0-.44-1.65,2.28,2.28,0,0,0-2.16-1.14,2.36,2.36,0,0,0-1.81.79,3,3,0,0,0-.77,2Z"/><path class="cls-1" d="M198.17,202.93a2.26,2.26,0,0,0,.41,1.22,2.54,2.54,0,0,0,2.11.76,3.21,3.21,0,0,0,1.58-.38,1.26,1.26,0,0,0,.68-1.18,1,1,0,0,0-.54-.93A6.37,6.37,0,0,0,201,202l-1.27-.31A6.23,6.23,0,0,1,198,201a2,2,0,0,1-1-1.78,2.7,2.7,0,0,1,1-2.16,3.92,3.92,0,0,1,2.62-.82,3.66,3.66,0,0,1,3.11,1.24,2.7,2.7,0,0,1,.58,1.71h-1.49a1.76,1.76,0,0,0-.39-1,2.52,2.52,0,0,0-1.93-.62,2.32,2.32,0,0,0-1.39.34,1.06,1.06,0,0,0-.48.9,1.1,1.1,0,0,0,.62,1,3.71,3.71,0,0,0,1.06.39l1.07.25a8.74,8.74,0,0,1,2.32.8,2.12,2.12,0,0,1,.93,1.91,2.87,2.87,0,0,1-1,2.17,4.13,4.13,0,0,1-2.94.92,4,4,0,0,1-3-1,3.56,3.56,0,0,1-.95-2.36Z"/><path class="cls-1" d="M216.4,196.76a4.49,4.49,0,0,1,1,.93v-4.76h1.52v13h-1.43v-1.31a3.29,3.29,0,0,1-1.3,1.25,3.69,3.69,0,0,1-1.72.39,3.5,3.5,0,0,1-2.72-1.32,5.21,5.21,0,0,1-1.15-3.52,6.11,6.11,0,0,1,1.05-3.57,3.42,3.42,0,0,1,3-1.5A3.34,3.34,0,0,1,216.4,196.76Zm-3.53,7.06a2.24,2.24,0,0,0,2,1,2.18,2.18,0,0,0,1.8-.94,4.5,4.5,0,0,0,.7-2.72,4,4,0,0,0-.73-2.64,2.25,2.25,0,0,0-1.79-.85,2.37,2.37,0,0,0-1.93.91,4.23,4.23,0,0,0-.74,2.69A4.73,4.73,0,0,0,212.87,203.82Z"/><path class="cls-1" d="M228.06,197.41a4.73,4.73,0,0,1,1.25,3.57,6.12,6.12,0,0,1-1.1,3.76,4,4,0,0,1-3.41,1.48,3.83,3.83,0,0,1-3.06-1.31,5.2,5.2,0,0,1-1.14-3.53,5.64,5.64,0,0,1,1.2-3.78,4,4,0,0,1,3.21-1.4A4.2,4.2,0,0,1,228.06,197.41Zm-1,6.26a5.92,5.92,0,0,0,.58-2.65,4.71,4.71,0,0,0-.42-2.14,2.34,2.34,0,0,0-2.28-1.3,2.23,2.23,0,0,0-2.08,1.11,5.07,5.07,0,0,0-.65,2.66,4.46,4.46,0,0,0,.65,2.51,2.29,2.29,0,0,0,2.07,1A2.15,2.15,0,0,0,227.08,203.67Z"/><path class="cls-1" d="M242.07,196.73a3.57,3.57,0,0,1,1.42,1.22,4,4,0,0,1,.63,1.66,11.2,11.2,0,0,1,.14,2.07h-6.85a4.08,4.08,0,0,0,.68,2.31,2.22,2.22,0,0,0,1.94.87,2.52,2.52,0,0,0,2-.82,2.69,2.69,0,0,0,.58-1.11h1.56a3.31,3.31,0,0,1-.41,1.16,4.32,4.32,0,0,1-.77,1,3.64,3.64,0,0,1-1.77,1,5.6,5.6,0,0,1-1.29.14,3.94,3.94,0,0,1-3-1.28,5,5,0,0,1-1.21-3.58,5.45,5.45,0,0,1,1.22-3.68,4,4,0,0,1,3.2-1.42A4.29,4.29,0,0,1,242.07,196.73Zm.57,3.7a4.28,4.28,0,0,0-.45-1.65,2.28,2.28,0,0,0-2.15-1.14,2.34,2.34,0,0,0-1.81.79,3,3,0,0,0-.78,2Z"/><path class="cls-1" d="M247,196.47l2.52,7.67,2.62-7.67h1.73l-3.55,9.42h-1.68l-3.47-9.42Z"/><path class="cls-1" d="M261.08,196.73A3.57,3.57,0,0,1,262.5,198a4,4,0,0,1,.63,1.66,10.37,10.37,0,0,1,.14,2.07h-6.84a4,4,0,0,0,.67,2.31,2.23,2.23,0,0,0,1.94.87,2.51,2.51,0,0,0,2-.82,2.69,2.69,0,0,0,.58-1.11h1.56a3.31,3.31,0,0,1-.41,1.16,4.32,4.32,0,0,1-.77,1,3.64,3.64,0,0,1-1.77,1,5.6,5.6,0,0,1-1.29.14,3.94,3.94,0,0,1-3-1.28,5,5,0,0,1-1.21-3.58,5.45,5.45,0,0,1,1.22-3.68,4,4,0,0,1,3.2-1.42A4.29,4.29,0,0,1,261.08,196.73Zm.57,3.7a4.28,4.28,0,0,0-.45-1.65,2.28,2.28,0,0,0-2.15-1.14,2.34,2.34,0,0,0-1.81.79,3,3,0,0,0-.78,2Z"/><path class="cls-1" d="M265.28,196.47h1.5v1.34a4.25,4.25,0,0,1,1.41-1.19,3.82,3.82,0,0,1,1.67-.36,2.74,2.74,0,0,1,2.7,1.4,4.93,4.93,0,0,1,.39,2.19v6h-1.61V200a3.26,3.26,0,0,0-.25-1.39,1.56,1.56,0,0,0-1.53-.87,3,3,0,0,0-.93.11,2.44,2.44,0,0,0-1.14.77,2.34,2.34,0,0,0-.51,1,6.38,6.38,0,0,0-.12,1.42v4.93h-1.58Z"/><path class="cls-1" d="M275.6,193.84h1.6v2.63h1.51v1.29H277.2v6.15a.66.66,0,0,0,.34.66,1.5,1.5,0,0,0,.61.09h.25l.31,0v1.26a3.82,3.82,0,0,1-.57.11,6.28,6.28,0,0,1-.64,0,1.7,1.7,0,0,1-1.5-.57,2.55,2.55,0,0,1-.4-1.47v-6.24h-1.27v-1.29h1.27Z"/><path class="cls-1" d="M287.11,197.41a4.77,4.77,0,0,1,1.25,3.57,6.18,6.18,0,0,1-1.1,3.76,4,4,0,0,1-3.42,1.48,3.86,3.86,0,0,1-3.06-1.31,5.2,5.2,0,0,1-1.13-3.53,5.63,5.63,0,0,1,1.19-3.78,4,4,0,0,1,3.21-1.4A4.21,4.21,0,0,1,287.11,197.41Zm-1,6.26a6.06,6.06,0,0,0,.57-2.65,4.72,4.72,0,0,0-.41-2.14,2.34,2.34,0,0,0-2.28-1.3,2.25,2.25,0,0,0-2.09,1.11,5.16,5.16,0,0,0-.65,2.66,4.54,4.54,0,0,0,.65,2.51,2.32,2.32,0,0,0,2.07,1A2.17,2.17,0,0,0,286.13,203.67Z"/><path class="cls-1" d="M98.5,324A4.55,4.55,0,0,1,100,327H98.28a3.5,3.5,0,0,0-1.13-2,3.54,3.54,0,0,0-2.39-.73,3.75,3.75,0,0,0-3,1.34,6.17,6.17,0,0,0-1.16,4.11,6.08,6.08,0,0,0,1,3.68,3.62,3.62,0,0,0,3.11,1.41,3.25,3.25,0,0,0,2.89-1.48,5.87,5.87,0,0,0,.79-2.06h1.7a5.89,5.89,0,0,1-1.49,3.42,5.28,5.28,0,0,1-4.1,1.66A5.37,5.37,0,0,1,90.78,335q-2-1.8-2-5.57a7.15,7.15,0,0,1,1.5-4.69,5.42,5.42,0,0,1,4.45-2A5.18,5.18,0,0,1,98.5,324Z"/><path class="cls-1" d="M102.2,326.57h1.51v1.63a3.55,3.55,0,0,1,.9-1.16,2.37,2.37,0,0,1,1.66-.68h.15l.36,0v1.67l-.26,0h-.26a2.26,2.26,0,0,0-1.83.77,2.7,2.7,0,0,0-.64,1.77V336H102.2Z"/><path class="cls-1" d="M108.15,323.08h1.61v1.79h-1.61Zm0,3.54h1.61V336h-1.61Z"/><path class="cls-1" d="M118,326.83a3.57,3.57,0,0,1,1.42,1.22,4.25,4.25,0,0,1,.63,1.66,11.32,11.32,0,0,1,.14,2.08h-6.85a4.07,4.07,0,0,0,.68,2.3,2.22,2.22,0,0,0,1.94.87,2.49,2.49,0,0,0,2-.82,2.81,2.81,0,0,0,.58-1.11H120a3.25,3.25,0,0,1-.41,1.16,3.93,3.93,0,0,1-.78,1,3.55,3.55,0,0,1-1.77.95,5.45,5.45,0,0,1-1.28.14,3.91,3.91,0,0,1-3-1.28,5,5,0,0,1-1.21-3.58,5.4,5.4,0,0,1,1.22-3.68,4,4,0,0,1,3.2-1.42A4.32,4.32,0,0,1,118,326.83Zm.56,3.7a4.06,4.06,0,0,0-.44-1.64,2.27,2.27,0,0,0-2.15-1.15,2.41,2.41,0,0,0-1.82.79,3,3,0,0,0-.77,2Z"/><path class="cls-1" d="M127,326.62h1.55v1.25a3.91,3.91,0,0,1,1-1,3.35,3.35,0,0,1,1.89-.52,3.53,3.53,0,0,1,2.72,1.22,5.06,5.06,0,0,1,1.12,3.5c0,2.06-.54,3.52-1.62,4.4a3.62,3.62,0,0,1-2.38.83,3.24,3.24,0,0,1-1.79-.46,4.1,4.1,0,0,1-.94-.91v4.81H127Zm6,7.38a4.44,4.44,0,0,0,.73-2.78,5.3,5.3,0,0,0-.32-1.93,2.39,2.39,0,0,0-4.52.09,6.4,6.4,0,0,0-.33,2.23,4.69,4.69,0,0,0,.33,1.86,2.24,2.24,0,0,0,2.26,1.45A2.27,2.27,0,0,0,133,334Z"/><path class="cls-1" d="M142.22,330.29a.86.86,0,0,0,.73-.46,1.37,1.37,0,0,0,.11-.6,1.3,1.3,0,0,0-.58-1.18,3,3,0,0,0-1.64-.37,2.12,2.12,0,0,0-1.76.67,2.29,2.29,0,0,0-.38,1.11h-1.47a2.7,2.7,0,0,1,1.13-2.43,4.56,4.56,0,0,1,2.51-.68,5.14,5.14,0,0,1,2.7.63,2.15,2.15,0,0,1,1,2v5.42a.68.68,0,0,0,.11.4q.09.15.42.15l.24,0,.28,0V336a3.42,3.42,0,0,1-.56.13,3.7,3.7,0,0,1-.53,0,1.3,1.3,0,0,1-1.19-.58,2.23,2.23,0,0,1-.27-.87,4,4,0,0,1-1.39,1.1,4.29,4.29,0,0,1-2,.46,3,3,0,0,1-2.14-.79,2.61,2.61,0,0,1-.83-2,2.58,2.58,0,0,1,.81-2,3.89,3.89,0,0,1,2.15-.88Zm-3.33,4.27a1.82,1.82,0,0,0,1.19.4,3.57,3.57,0,0,0,1.61-.39,2.16,2.16,0,0,0,1.32-2.09V331.2a2.42,2.42,0,0,1-.74.31,8,8,0,0,1-.9.18l-1,.12a3.88,3.88,0,0,0-1.29.36,1.4,1.4,0,0,0-.73,1.32A1.3,1.3,0,0,0,138.89,334.56Z"/><path class="cls-1" d="M153.41,327.08a3.68,3.68,0,0,1,1.19,2.66h-1.53a2.89,2.89,0,0,0-.65-1.45,2,2,0,0,0-1.6-.57,2.24,2.24,0,0,0-2.17,1.47,5.9,5.9,0,0,0-.42,2.36,4.4,4.4,0,0,0,.6,2.38,2.32,2.32,0,0,0,3.44.37,3.37,3.37,0,0,0,.8-1.64h1.53a3.71,3.71,0,0,1-4,3.6,3.62,3.62,0,0,1-3-1.35,5.17,5.17,0,0,1-1.1-3.37,5.7,5.7,0,0,1,1.21-3.86,3.88,3.88,0,0,1,3.07-1.38A4.1,4.1,0,0,1,153.41,327.08Z"/><path class="cls-1" d="M163,327.51a4.77,4.77,0,0,1,1.24,3.57,6.16,6.16,0,0,1-1.09,3.76,4,4,0,0,1-3.42,1.48,3.86,3.86,0,0,1-3.06-1.31,5.2,5.2,0,0,1-1.14-3.53,5.59,5.59,0,0,1,1.2-3.77A4,4,0,0,1,160,326.3,4.27,4.27,0,0,1,163,327.51Zm-1,6.26a5.92,5.92,0,0,0,.58-2.65,4.89,4.89,0,0,0-.41-2.14,2.35,2.35,0,0,0-2.28-1.3,2.25,2.25,0,0,0-2.09,1.11,5.23,5.23,0,0,0-.65,2.67,4.53,4.53,0,0,0,.65,2.5,2.3,2.3,0,0,0,2.07,1A2.15,2.15,0,0,0,162,333.77Z"/><path class="cls-1" d="M166.51,324h1.6v2.62h1.51v1.3h-1.51V334a.66.66,0,0,0,.34.66,1.47,1.47,0,0,0,.61.1h.25l.31,0V336a3.59,3.59,0,0,1-.57.11,4.31,4.31,0,0,1-.64,0,1.7,1.7,0,0,1-1.5-.57,2.55,2.55,0,0,1-.4-1.47v-6.23h-1.27v-1.3h1.27Z"/><path class="cls-1" d="M177,326.83a3.61,3.61,0,0,1,1.43,1.22,4.42,4.42,0,0,1,.63,1.66,11.54,11.54,0,0,1,.13,2.08h-6.84a4.07,4.07,0,0,0,.67,2.3A2.24,2.24,0,0,0,175,335a2.51,2.51,0,0,0,2-.82,3,3,0,0,0,.58-1.11h1.55a3.06,3.06,0,0,1-.41,1.16,4.13,4.13,0,0,1-.77,1,3.64,3.64,0,0,1-1.77.95,5.58,5.58,0,0,1-1.28.14,3.89,3.89,0,0,1-3-1.28,5,5,0,0,1-1.22-3.58,5.45,5.45,0,0,1,1.22-3.68,4.06,4.06,0,0,1,3.2-1.42A4.26,4.26,0,0,1,177,326.83Zm.57,3.7a4.06,4.06,0,0,0-.45-1.64,2.26,2.26,0,0,0-2.15-1.15,2.39,2.39,0,0,0-1.81.79,3,3,0,0,0-.78,2Z"/><path class="cls-1" d="M182.15,333a2.31,2.31,0,0,0,.4,1.22,2.57,2.57,0,0,0,2.12.76,3.24,3.24,0,0,0,1.58-.38,1.27,1.27,0,0,0,.68-1.18,1,1,0,0,0-.54-.93,7.46,7.46,0,0,0-1.38-.44l-1.28-.32a6.26,6.26,0,0,1-1.8-.67,2,2,0,0,1-1-1.77,2.73,2.73,0,0,1,1-2.17,3.92,3.92,0,0,1,2.62-.82,3.65,3.65,0,0,1,3.11,1.25,2.66,2.66,0,0,1,.58,1.7h-1.5a1.78,1.78,0,0,0-.38-1,2.53,2.53,0,0,0-1.94-.62A2.36,2.36,0,0,0,183,328a1.08,1.08,0,0,0-.47.9,1.13,1.13,0,0,0,.62,1,3.94,3.94,0,0,0,1.06.38l1.06.26a8,8,0,0,1,2.33.8,2.1,2.1,0,0,1,.93,1.9,2.9,2.9,0,0,1-1,2.17,4.13,4.13,0,0,1-2.94.92,4,4,0,0,1-3-1,3.56,3.56,0,0,1-1-2.36Z"/><path class="cls-1" d="M201,326.83a3.61,3.61,0,0,1,1.43,1.22,4.42,4.42,0,0,1,.63,1.66,11.32,11.32,0,0,1,.14,2.08h-6.85a4.07,4.07,0,0,0,.67,2.3,2.25,2.25,0,0,0,2,.87,2.49,2.49,0,0,0,2-.82,3,3,0,0,0,.58-1.11h1.55a3.21,3.21,0,0,1-.4,1.16,4.15,4.15,0,0,1-.78,1,3.64,3.64,0,0,1-1.77.95,5.51,5.51,0,0,1-1.28.14,3.89,3.89,0,0,1-3-1.28,5,5,0,0,1-1.22-3.58,5.4,5.4,0,0,1,1.23-3.68,4,4,0,0,1,3.19-1.42A4.26,4.26,0,0,1,201,326.83Zm.57,3.7a4.06,4.06,0,0,0-.44-1.64,2.27,2.27,0,0,0-2.16-1.15,2.39,2.39,0,0,0-1.81.79,2.92,2.92,0,0,0-.77,2Z"/><path class="cls-1" d="M206.16,333a2.31,2.31,0,0,0,.4,1.22,2.58,2.58,0,0,0,2.12.76,3.21,3.21,0,0,0,1.58-.38,1.27,1.27,0,0,0,.68-1.18,1,1,0,0,0-.54-.93,7.46,7.46,0,0,0-1.38-.44l-1.27-.32a6.23,6.23,0,0,1-1.81-.67,2,2,0,0,1-1-1.77,2.73,2.73,0,0,1,1-2.17,3.92,3.92,0,0,1,2.62-.82,3.64,3.64,0,0,1,3.11,1.25,2.66,2.66,0,0,1,.58,1.7H210.7a1.79,1.79,0,0,0-.39-1,2.53,2.53,0,0,0-1.94-.62A2.3,2.3,0,0,0,207,328a1.06,1.06,0,0,0-.48.9,1.13,1.13,0,0,0,.62,1,3.94,3.94,0,0,0,1.06.38l1.07.26a8.06,8.06,0,0,1,2.32.8,2.1,2.1,0,0,1,.93,1.9,2.9,2.9,0,0,1-1,2.17,4.13,4.13,0,0,1-2.94.92,4,4,0,0,1-3-1,3.56,3.56,0,0,1-1-2.36Z"/><path class="cls-1" d="M214.09,326.62h1.55v1.25a3.77,3.77,0,0,1,1-1,3.34,3.34,0,0,1,1.88-.52,3.52,3.52,0,0,1,2.72,1.22,5,5,0,0,1,1.12,3.5c0,2.06-.53,3.52-1.61,4.4a3.64,3.64,0,0,1-2.38.83,3.22,3.22,0,0,1-1.79-.46,4.11,4.11,0,0,1-1-.91v4.81h-1.58ZM220,334a4.43,4.43,0,0,0,.74-2.78,5.09,5.09,0,0,0-.33-1.93,2.39,2.39,0,0,0-4.51.09,6.4,6.4,0,0,0-.33,2.23,4.69,4.69,0,0,0,.33,1.86,2.41,2.41,0,0,0,4.1.53Z"/><path class="cls-1" d="M230.05,326.83a3.64,3.64,0,0,1,1.42,1.22,4.42,4.42,0,0,1,.63,1.66,11.32,11.32,0,0,1,.14,2.08h-6.85a4.07,4.07,0,0,0,.67,2.3A2.25,2.25,0,0,0,228,335a2.49,2.49,0,0,0,2-.82,2.81,2.81,0,0,0,.58-1.11h1.56a3.25,3.25,0,0,1-.41,1.16,3.93,3.93,0,0,1-.78,1,3.55,3.55,0,0,1-1.77.95,5.51,5.51,0,0,1-1.28.14,3.91,3.91,0,0,1-3-1.28,5,5,0,0,1-1.21-3.58,5.4,5.4,0,0,1,1.22-3.68,4,4,0,0,1,3.2-1.42A4.32,4.32,0,0,1,230.05,326.83Zm.56,3.7a4.06,4.06,0,0,0-.44-1.64,2.27,2.27,0,0,0-2.16-1.15,2.39,2.39,0,0,0-1.81.79,3,3,0,0,0-.77,2Z"/><path class="cls-1" d="M240.46,327.08a3.69,3.69,0,0,1,1.2,2.66h-1.54a2.88,2.88,0,0,0-.64-1.45,2,2,0,0,0-1.61-.57,2.21,2.21,0,0,0-2.16,1.47,5.9,5.9,0,0,0-.42,2.36,4.4,4.4,0,0,0,.6,2.38,2,2,0,0,0,1.88,1,2.08,2.08,0,0,0,1.56-.6,3.28,3.28,0,0,0,.79-1.64h1.54a4.14,4.14,0,0,1-1.32,2.73,4.09,4.09,0,0,1-2.7.87,3.59,3.59,0,0,1-2.94-1.35,5.17,5.17,0,0,1-1.1-3.37,5.7,5.7,0,0,1,1.2-3.86,3.91,3.91,0,0,1,3.07-1.38A4.1,4.1,0,0,1,240.46,327.08Z"/><path class="cls-1" d="M243.24,323.08h1.61v1.79h-1.61Zm0,3.54h1.61V336h-1.61Z"/><path class="cls-1" d="M252.29,330.29a.88.88,0,0,0,.73-.46,1.38,1.38,0,0,0,.1-.6,1.3,1.3,0,0,0-.57-1.18,3,3,0,0,0-1.65-.37,2.09,2.09,0,0,0-1.75.67,2.19,2.19,0,0,0-.38,1.11h-1.48a2.73,2.73,0,0,1,1.13-2.43,4.57,4.57,0,0,1,2.52-.68,5.13,5.13,0,0,1,2.69.63,2.14,2.14,0,0,1,1,2v5.42a.68.68,0,0,0,.1.4.49.49,0,0,0,.43.15l.23,0,.28,0V336a3.21,3.21,0,0,1-.56.13,3.54,3.54,0,0,1-.52,0,1.29,1.29,0,0,1-1.19-.58,2.23,2.23,0,0,1-.27-.87,4.16,4.16,0,0,1-1.39,1.1,4.33,4.33,0,0,1-2,.46,3,3,0,0,1-2.14-.79,2.65,2.65,0,0,1-.83-2,2.55,2.55,0,0,1,.82-2,3.86,3.86,0,0,1,2.14-.88ZM249,334.56a1.84,1.84,0,0,0,1.19.4,3.58,3.58,0,0,0,1.62-.39,2.16,2.16,0,0,0,1.32-2.09V331.2a2.49,2.49,0,0,1-.75.31,7.39,7.39,0,0,1-.89.18l-1,.12a3.88,3.88,0,0,0-1.29.36,1.41,1.41,0,0,0-.74,1.32A1.3,1.3,0,0,0,249,334.56Z"/><path class="cls-1" d="M257.25,323.08h1.61v1.79h-1.61Zm0,3.54h1.61V336h-1.61Z"/><path class="cls-1" d="M262.19,333a2.31,2.31,0,0,0,.4,1.22,2.58,2.58,0,0,0,2.12.76,3.21,3.21,0,0,0,1.58-.38,1.25,1.25,0,0,0,.68-1.18,1,1,0,0,0-.54-.93,7.19,7.19,0,0,0-1.38-.44l-1.27-.32a6.23,6.23,0,0,1-1.81-.67,2,2,0,0,1-1-1.77,2.73,2.73,0,0,1,1-2.17,3.92,3.92,0,0,1,2.62-.82,3.64,3.64,0,0,1,3.11,1.25,2.66,2.66,0,0,1,.58,1.7h-1.49a1.79,1.79,0,0,0-.39-1,2.52,2.52,0,0,0-1.93-.62A2.32,2.32,0,0,0,263,328a1.06,1.06,0,0,0-.48.9,1.13,1.13,0,0,0,.62,1,3.94,3.94,0,0,0,1.06.38l1.07.26a8.06,8.06,0,0,1,2.32.8,2.1,2.1,0,0,1,.93,1.9,2.9,2.9,0,0,1-1,2.17,4.13,4.13,0,0,1-2.94.92,4,4,0,0,1-3-1,3.56,3.56,0,0,1-.95-2.36Z"/><path class="cls-1" d="M89,347.62h1.55v1.25a3.77,3.77,0,0,1,1-1,3.34,3.34,0,0,1,1.88-.52,3.52,3.52,0,0,1,2.72,1.22,5,5,0,0,1,1.12,3.5c0,2.06-.53,3.52-1.61,4.4a3.64,3.64,0,0,1-2.38.83,3.22,3.22,0,0,1-1.79-.46,4.11,4.11,0,0,1-1-.91v4.81H89ZM95,355a4.43,4.43,0,0,0,.74-2.78,5.09,5.09,0,0,0-.33-1.93,2.39,2.39,0,0,0-4.51.09,6.4,6.4,0,0,0-.33,2.23,4.69,4.69,0,0,0,.33,1.86A2.41,2.41,0,0,0,95,355Z"/><path class="cls-1" d="M104.22,351.29a.88.88,0,0,0,.73-.46,1.38,1.38,0,0,0,.1-.6,1.3,1.3,0,0,0-.57-1.18,3,3,0,0,0-1.65-.37,2.09,2.09,0,0,0-1.75.67,2.29,2.29,0,0,0-.38,1.11H99.22a2.73,2.73,0,0,1,1.13-2.43,4.6,4.6,0,0,1,2.52-.68,5.13,5.13,0,0,1,2.69.63,2.14,2.14,0,0,1,1,2v5.42a.68.68,0,0,0,.1.4.49.49,0,0,0,.43.15l.23,0,.29,0V357a3.49,3.49,0,0,1-.57.13,3.54,3.54,0,0,1-.52,0,1.3,1.3,0,0,1-1.19-.58,2.23,2.23,0,0,1-.27-.87,4.16,4.16,0,0,1-1.39,1.1,4.33,4.33,0,0,1-2,.46,3,3,0,0,1-2.14-.79,2.65,2.65,0,0,1-.83-2,2.55,2.55,0,0,1,.82-2,3.86,3.86,0,0,1,2.14-.88Zm-3.33,4.27a1.81,1.81,0,0,0,1.18.4,3.58,3.58,0,0,0,1.62-.39,2.16,2.16,0,0,0,1.32-2.09V352.2a2.49,2.49,0,0,1-.75.31,7.39,7.39,0,0,1-.89.18l-1,.12a3.88,3.88,0,0,0-1.29.36,1.41,1.41,0,0,0-.74,1.32A1.28,1.28,0,0,0,100.89,355.56Z"/><path class="cls-1" d="M109.23,347.57h1.5v1.63a3.55,3.55,0,0,1,.9-1.16,2.4,2.4,0,0,1,1.67-.68h.15l.36,0v1.67l-.26,0h-.26a2.27,2.27,0,0,0-1.84.77,2.7,2.7,0,0,0-.64,1.77V357h-1.58Z"/><path class="cls-1" d="M120.22,351.29a.86.86,0,0,0,.73-.46,1.37,1.37,0,0,0,.11-.6,1.28,1.28,0,0,0-.58-1.18,3,3,0,0,0-1.64-.37,2.12,2.12,0,0,0-1.76.67,2.2,2.2,0,0,0-.37,1.11h-1.48a2.7,2.7,0,0,1,1.13-2.43,4.56,4.56,0,0,1,2.51-.68,5.14,5.14,0,0,1,2.7.63,2.15,2.15,0,0,1,1,2v5.42a.68.68,0,0,0,.11.4c.06.1.21.15.42.15l.24,0,.28,0V357a3.42,3.42,0,0,1-.56.13,3.7,3.7,0,0,1-.53,0,1.31,1.31,0,0,1-1.19-.58,2.41,2.41,0,0,1-.27-.87,4,4,0,0,1-1.39,1.1,4.29,4.29,0,0,1-2,.46,3,3,0,0,1-2.14-.79,2.61,2.61,0,0,1-.83-2,2.58,2.58,0,0,1,.81-2,3.89,3.89,0,0,1,2.15-.88Zm-3.33,4.27a1.82,1.82,0,0,0,1.19.4,3.57,3.57,0,0,0,1.61-.39,2.16,2.16,0,0,0,1.32-2.09V352.2a2.42,2.42,0,0,1-.74.31,8,8,0,0,1-.9.18l-1,.12a3.88,3.88,0,0,0-1.3.36,1.4,1.4,0,0,0-.73,1.32A1.3,1.3,0,0,0,116.89,355.56Z"/><path class="cls-1" d="M131,347.57l2.51,7.67,2.62-7.67h1.73L134.29,357H132.6l-3.47-9.42Z"/><path class="cls-1" d="M145,347.83a3.61,3.61,0,0,1,1.43,1.22,4.42,4.42,0,0,1,.63,1.66,11.32,11.32,0,0,1,.14,2.08h-6.85a4.07,4.07,0,0,0,.67,2.3A2.24,2.24,0,0,0,143,356a2.51,2.51,0,0,0,2-.82,3,3,0,0,0,.58-1.11h1.55a3.21,3.21,0,0,1-.4,1.16,4.41,4.41,0,0,1-.78,1,3.64,3.64,0,0,1-1.77.95,5.58,5.58,0,0,1-1.28.14,3.89,3.89,0,0,1-3-1.28,5,5,0,0,1-1.22-3.58,5.45,5.45,0,0,1,1.22-3.68,4.06,4.06,0,0,1,3.2-1.42A4.26,4.26,0,0,1,145,347.83Zm.57,3.7a4.06,4.06,0,0,0-.45-1.64,2.26,2.26,0,0,0-2.15-1.15,2.39,2.39,0,0,0-1.81.79,3,3,0,0,0-.78,2Z"/><path class="cls-1" d="M149.2,347.57h1.5v1.34a4.28,4.28,0,0,1,1.42-1.19,3.78,3.78,0,0,1,1.66-.36,2.75,2.75,0,0,1,2.71,1.4,5.1,5.1,0,0,1,.38,2.19v6h-1.61v-5.93a3.2,3.2,0,0,0-.25-1.39,1.54,1.54,0,0,0-1.53-.88,3.3,3.3,0,0,0-.92.11,2.57,2.57,0,0,0-1.66,1.74,6.38,6.38,0,0,0-.12,1.42V357H149.2Z"/><path class="cls-1" d="M164.38,347.86a4.49,4.49,0,0,1,1,.93V344h1.52v13h-1.43v-1.31a3.46,3.46,0,0,1-1.3,1.26,3.83,3.83,0,0,1-1.73.38,3.48,3.48,0,0,1-2.71-1.32,5.16,5.16,0,0,1-1.15-3.52,6.06,6.06,0,0,1,1.05-3.56,3.41,3.41,0,0,1,3-1.51A3.34,3.34,0,0,1,164.38,347.86Zm-3.53,7.06a2.24,2.24,0,0,0,2.05,1,2.15,2.15,0,0,0,1.79-.94,4.48,4.48,0,0,0,.71-2.71,4,4,0,0,0-.73-2.65,2.25,2.25,0,0,0-1.79-.85,2.36,2.36,0,0,0-1.93.91,4.23,4.23,0,0,0-.74,2.69A4.64,4.64,0,0,0,160.85,354.92Z"/><path class="cls-1" d="M175,347.83a3.64,3.64,0,0,1,1.42,1.22,4.42,4.42,0,0,1,.63,1.66,11.32,11.32,0,0,1,.14,2.08h-6.85a4.07,4.07,0,0,0,.67,2.3A2.25,2.25,0,0,0,173,356a2.49,2.49,0,0,0,2-.82,2.81,2.81,0,0,0,.58-1.11h1.56a3.45,3.45,0,0,1-.41,1.16,4.15,4.15,0,0,1-.78,1,3.55,3.55,0,0,1-1.77.95,5.51,5.51,0,0,1-1.28.14,3.91,3.91,0,0,1-3-1.28,5,5,0,0,1-1.22-3.58,5.4,5.4,0,0,1,1.23-3.68,4,4,0,0,1,3.19-1.42A4.33,4.33,0,0,1,175,347.83Zm.56,3.7a4.06,4.06,0,0,0-.44-1.64,2.27,2.27,0,0,0-2.16-1.15,2.39,2.39,0,0,0-1.81.79,3,3,0,0,0-.77,2Z"/><path class="cls-1" d="M179.28,347.57h1.5v1.63a3.55,3.55,0,0,1,.9-1.16,2.37,2.37,0,0,1,1.66-.68h.15l.36,0v1.67l-.26,0h-.25a2.27,2.27,0,0,0-1.84.77,2.7,2.7,0,0,0-.64,1.77V357h-1.58Z"/><path class="cls-1" d="M190.23,347.57h1.56v1.34a5.6,5.6,0,0,1,1-1,3,3,0,0,1,1.78-.54,2.8,2.8,0,0,1,1.81.56,3,3,0,0,1,.7.93,3.37,3.37,0,0,1,1.24-1.12,3.49,3.49,0,0,1,1.6-.37,2.61,2.61,0,0,1,2.58,1.37,4.47,4.47,0,0,1,.37,2V357h-1.64v-6.54a1.52,1.52,0,0,0-.47-1.29,1.85,1.85,0,0,0-1.15-.35,2.23,2.23,0,0,0-1.6.62,2.74,2.74,0,0,0-.68,2.08V357h-1.6v-6.15a3.2,3.2,0,0,0-.23-1.39,1.4,1.4,0,0,0-1.35-.66,2.34,2.34,0,0,0-1.63.69,3.4,3.4,0,0,0-.73,2.52v5h-1.58Z"/><path class="cls-1" d="M210.27,351.29a.88.88,0,0,0,.73-.46,1.38,1.38,0,0,0,.1-.6,1.3,1.3,0,0,0-.57-1.18,3.06,3.06,0,0,0-1.65-.37,2.09,2.09,0,0,0-1.75.67,2.19,2.19,0,0,0-.38,1.11h-1.48A2.73,2.73,0,0,1,206.4,348a4.57,4.57,0,0,1,2.52-.68,5.13,5.13,0,0,1,2.69.63,2.14,2.14,0,0,1,1,2v5.42a.68.68,0,0,0,.1.4.49.49,0,0,0,.43.15l.23,0,.28,0V357a3.21,3.21,0,0,1-.56.13,3.6,3.6,0,0,1-.53,0,1.28,1.28,0,0,1-1.18-.58,2.23,2.23,0,0,1-.27-.87,4.16,4.16,0,0,1-1.39,1.1,4.33,4.33,0,0,1-2,.46,3,3,0,0,1-2.14-.79,2.65,2.65,0,0,1-.83-2,2.55,2.55,0,0,1,.82-2,3.86,3.86,0,0,1,2.14-.88Zm-3.34,4.27a1.84,1.84,0,0,0,1.19.4,3.58,3.58,0,0,0,1.62-.39,2.16,2.16,0,0,0,1.32-2.09V352.2a2.49,2.49,0,0,1-.75.31,7.39,7.39,0,0,1-.89.18l-1,.12a3.88,3.88,0,0,0-1.29.36,1.41,1.41,0,0,0-.74,1.32A1.3,1.3,0,0,0,206.93,355.56Z"/><path class="cls-1" d="M215.23,344.08h1.61v1.79h-1.61Zm0,3.54h1.61V357h-1.61Z"/><path class="cls-1" d="M220.17,354a2.31,2.31,0,0,0,.4,1.22,2.58,2.58,0,0,0,2.12.76,3.21,3.21,0,0,0,1.58-.38,1.27,1.27,0,0,0,.68-1.18,1,1,0,0,0-.54-.93,7.46,7.46,0,0,0-1.38-.44l-1.28-.32a6.26,6.26,0,0,1-1.8-.67,2,2,0,0,1-1-1.77,2.73,2.73,0,0,1,1-2.17,3.92,3.92,0,0,1,2.62-.82,3.64,3.64,0,0,1,3.11,1.25,2.66,2.66,0,0,1,.58,1.7h-1.49a1.79,1.79,0,0,0-.39-1,2.53,2.53,0,0,0-1.94-.62A2.3,2.3,0,0,0,221,349a1.06,1.06,0,0,0-.48.9,1.13,1.13,0,0,0,.62,1,3.94,3.94,0,0,0,1.06.38l1.07.26a8.06,8.06,0,0,1,2.32.8,2.1,2.1,0,0,1,.93,1.9,2.9,2.9,0,0,1-1,2.17,4.13,4.13,0,0,1-2.94.92,4,4,0,0,1-3-1,3.56,3.56,0,0,1-.95-2.36Z"/><path class="cls-1" d="M11.5,32V28.9a2.15,2.15,0,0,1,2.09-2.2H63.36a2.15,2.15,0,0,1,2.09,2.2V32s0,0,0,0h-1a1.67,1.67,0,0,0,.07,3.33h1V40H64.39a1.67,1.67,0,0,0,.07,3.33h1V48H64.39a1.67,1.67,0,0,0,.07,3.33h1v3a2.16,2.16,0,0,1-2.09,2.21H13.59a2.16,2.16,0,0,1-2.09-2.21v-3h1.05a1.63,1.63,0,0,0,1.57-1.87A1.66,1.66,0,0,0,12.49,48h-1V43.34h1.05a1.63,1.63,0,0,0,1.57-1.87A1.66,1.66,0,0,0,12.49,40h-1V35.3h1.05a1.63,1.63,0,0,0,1.57-1.87A1.66,1.66,0,0,0,12.49,32h-1A0,0,0,0,1,11.5,32Zm51.83-2s0,0,0,0v-1s0,0,0,0H13.62s0,0,0,0v1s0,0,0,0a3.94,3.94,0,0,1,0,7.43s0,0,0,0v.57s0,0,0,0a3.94,3.94,0,0,1,0,7.43s0,0,0,0V46s0,0,0,0a3.94,3.94,0,0,1,0,7.43s0,0,0,0v1s0,0,0,0H63.33s0,0,0,0v-1s0,0,0,0a3.94,3.94,0,0,1,0-7.43s0,0,0,0V45.4s0,0,0,0a3.94,3.94,0,0,1,0-7.43s0,0,0,0v-.57s0,0,0,0a3.94,3.94,0,0,1,0-7.43Zm7.18-3.49h1a0,0,0,0,0,0,0v-3a2.15,2.15,0,0,0-2.09-2.2H19.64a2.15,2.15,0,0,0-2.09,2.2h0a0,0,0,0,0,0,0H69.39v1h0a4,4,0,0,0,0,7.44h0v.58h0a4,4,0,0,0,0,7.44h0v.58h0a4,4,0,0,0,0,7.44h0v3.19h0a2.15,2.15,0,0,0,2.09-2.2v-3a0,0,0,0,0,0,0h-1a1.66,1.66,0,0,1-1.63-1.45,1.63,1.63,0,0,1,1.57-1.87h1a0,0,0,0,0,0,0v-4.7h-1a1.66,1.66,0,0,1-1.63-1.45,1.63,1.63,0,0,1,1.57-1.87h1a0,0,0,0,0,0,0V29.76a0,0,0,0,0,0,0h-1a1.63,1.63,0,0,1-1.57-1.86A1.66,1.66,0,0,1,70.51,26.42Z"/><path class="cls-1" d="M52.88,112.89A11.94,11.94,0,1,0,41,101,11.94,11.94,0,0,0,52.88,112.89Zm0-21.52A9.59,9.59,0,1,1,43.29,101,9.6,9.6,0,0,1,52.88,91.37Z"/><path class="cls-1" d="M38.43,112.2a1.85,1.85,0,0,0,1.84-1.85V90.63a1.85,1.85,0,0,0-1.84-1.85H18.7a1.84,1.84,0,0,0-1.84,1.85v19.72a1.84,1.84,0,0,0,1.84,1.85Zm-.5-2.35H19.2V91.13H37.93Z"/><path class="cls-1" d="M30.24,116.13a1.51,1.51,0,0,0-2.7,0L18.1,135a1.5,1.5,0,0,0,1.35,2.18H38.34A1.51,1.51,0,0,0,39.69,135Z"/><path class="cls-1" d="M65.9,124.92l-5.7-9.87a1.85,1.85,0,0,0-1.59-.92H47.22a1.87,1.87,0,0,0-1.6.92l-5.7,9.87a1.83,1.83,0,0,0,0,1.84l5.7,9.86a1.86,1.86,0,0,0,1.6.93H58.61a1.85,1.85,0,0,0,1.59-.92l5.7-9.87A1.83,1.83,0,0,0,65.9,124.92Zm-2.18.92-5.4,9.36H47.51l-5.41-9.36,5.41-9.36H58.32Z"/><path class="cls-1" d="M63.56,168.26H53.1A4.41,4.41,0,0,0,48.85,165a1.12,1.12,0,0,0-.78,1.93,1.22,1.22,0,0,0,.81.32,1.91,1.91,0,0,1,1.6.64,2.32,2.32,0,0,1,.28,2.48,2.14,2.14,0,0,1-1.91,1.17,1.12,1.12,0,1,0,0,2.24,4.41,4.41,0,0,0,4.25-3.27h9.23a.92.92,0,0,1,.92.92v5.83H19.75v-5.83a.92.92,0,0,1,.92-.92H33.33a1.12,1.12,0,0,0,0-2.24h-1a2.14,2.14,0,0,1,3.92.71,2.18,2.18,0,0,1-.45,1.78,2.15,2.15,0,0,1-1.65.78,1.12,1.12,0,1,0,0,2.24,4.39,4.39,0,1,0-4.25-5.51H19.44a1.94,1.94,0,0,0-1.94,1.94v40a1.94,1.94,0,0,0,1.94,1.94H63.56a1.94,1.94,0,0,0,1.94-1.94v-40A1.94,1.94,0,0,0,63.56,168.26Zm-.31,11.23V209a.92.92,0,0,1-.92.92H20.67a.92.92,0,0,1-.92-.92V179.49Z"/><path class="cls-1" d="M39.05,167.24a2.15,2.15,0,0,1,0,4.29,1.12,1.12,0,1,0,0,2.24,4.39,4.39,0,0,0,0-8.78,1.13,1.13,0,0,0,0,2.25Z"/><path class="cls-1" d="M44,167.24a2.15,2.15,0,1,1,0,4.29,1.12,1.12,0,0,0,0,2.24A4.39,4.39,0,1,0,44,165a1.13,1.13,0,0,0,0,2.25Z"/><path class="cls-1" d="M36.47,204.82H34q-.45,0-.45-.42V190l-1.79-1.37a.4.4,0,0,1-.18-.32.39.39,0,0,1,.11-.28l2-2.62a.58.58,0,0,1,.28-.07h2.49a.41.41,0,0,1,.42.42V204.4A.37.37,0,0,1,36.47,204.82Z"/><path class="cls-1" d="M45.7,185.24a7.75,7.75,0,0,1,2.6.43,7.49,7.49,0,0,1,2.19,1.21,5.86,5.86,0,0,1,1.5,1.83,4.8,4.8,0,0,1,.56,2.27,4.7,4.7,0,0,1-.56,2.26,6.23,6.23,0,0,1-1.47,1.81A6.49,6.49,0,0,1,52,196.89a4.63,4.63,0,0,1,.56,2.22,4.81,4.81,0,0,1-.56,2.28,6,6,0,0,1-1.47,1.82,6.84,6.84,0,0,1-2.11,1.21,7.31,7.31,0,0,1-2.5.44,7.76,7.76,0,0,1-2.6-.44,7.26,7.26,0,0,1-2.19-1.21,5.83,5.83,0,0,1-1.5-1.82,4.81,4.81,0,0,1-.56-2.28,4.62,4.62,0,0,1,.55-2.22,6,6,0,0,1,1.48-1.84,5.81,5.81,0,0,1-1.48-1.81,4.69,4.69,0,0,1-.55-2.26,4.8,4.8,0,0,1,.56-2.27,6,6,0,0,1,1.49-1.83,7.31,7.31,0,0,1,2.11-1.21A7.15,7.15,0,0,1,45.7,185.24Zm0,3.25a3.59,3.59,0,0,0-2.45.74,2.27,2.27,0,0,0-.82,1.75,2.2,2.2,0,0,0,.79,1.72,3.91,3.91,0,0,0,2.62.7,3.76,3.76,0,0,0,2.55-.7,2.21,2.21,0,0,0,.8-1.72,2.3,2.3,0,0,0-.81-1.73A3.88,3.88,0,0,0,45.7,188.49Zm0,8.24a3.61,3.61,0,0,0-2.5.72,2.19,2.19,0,0,0-.77,1.66,2.28,2.28,0,0,0,.81,1.75,3.91,3.91,0,0,0,2.67.74,3.53,3.53,0,0,0,2.48-.74,2.3,2.3,0,0,0,.8-1.75,2.09,2.09,0,0,0-.85-1.7A4.2,4.2,0,0,0,45.7,196.73Z"/><path class="cls-1" d="M64.64,249.24a18.2,18.2,0,0,0-5.19-6.39,8.24,8.24,0,0,0-5.07-1.74H28.62a8.24,8.24,0,0,0-5.07,1.74,18.28,18.28,0,0,0-7,14.41v5a1,1,0,0,0,1,1h7.69v26.93a1,1,0,0,0,1,1H56.88a1,1,0,0,0,1-1V263.22h7.69a1,1,0,0,0,1-1v-5A18.28,18.28,0,0,0,64.64,249.24ZM47.15,243a3.86,3.86,0,0,1-3.73,2.89H39.58A3.86,3.86,0,0,1,35.85,243ZM64.58,261.3H57.85v-4.81a1,1,0,0,0-1.93,0v32.69H27.08v-1.92H30a1,1,0,1,0,0-1.92H27.08V256.49a1,1,0,0,0-1.93,0v4.81H18.42v-4a16.24,16.24,0,0,1,6.31-12.9A6.38,6.38,0,0,1,28.62,243h5.27a5.77,5.77,0,0,0,5.69,4.81h3.84A5.77,5.77,0,0,0,49.11,243h5.27a6.38,6.38,0,0,1,3.89,1.33,16.24,16.24,0,0,1,6.31,12.9v4Z"/><path class="cls-1" d="M56.88,291.61H26.12a1.47,1.47,0,0,1-1.47-1.46V263.72H17.46A1.46,1.46,0,0,1,16,262.26v-5a18.8,18.8,0,0,1,7.24-14.81,8.8,8.8,0,0,1,5.38-1.84H54.38a8.8,8.8,0,0,1,5.38,1.84A19,19,0,0,1,65.09,249h0A18.83,18.83,0,0,1,67,257.26v5a1.46,1.46,0,0,1-1.46,1.46H58.35v26.43A1.47,1.47,0,0,1,56.88,291.61Zm-28.26-50a7.79,7.79,0,0,0-4.76,1.63,17.8,17.8,0,0,0-6.86,14v5a.46.46,0,0,0,.46.46h8.19v27.43a.47.47,0,0,0,.47.46H56.88a.47.47,0,0,0,.47-.46V262.72h8.19a.46.46,0,0,0,.46-.46v-5a17.71,17.71,0,0,0-1.81-7.8h0a17.84,17.84,0,0,0-5-6.22,7.79,7.79,0,0,0-4.76-1.63Zm27.8,48.07H26.58v-2.92H30a.46.46,0,0,0,0-.92H26.58V256.49a.47.47,0,0,0-.93,0v5.31H17.92v-4.54A16.73,16.73,0,0,1,24.42,244a6.89,6.89,0,0,1,4.2-1.44h5.69l.07.42a5.26,5.26,0,0,0,5.2,4.39h3.84a5.26,5.26,0,0,0,5.2-4.39l.07-.42h5.69a6.89,6.89,0,0,1,4.2,1.44,16.73,16.73,0,0,1,6.5,13.29v4.54H57.35v-5.31a.47.47,0,0,0-.93,0Zm-28.84-1H55.42V256.49a1.47,1.47,0,0,1,2.93,0v4.31h5.73v-3.54A15.73,15.73,0,0,0,58,244.76a5.88,5.88,0,0,0-3.58-1.23H49.52a6.25,6.25,0,0,1-6.1,4.81H39.58a6.25,6.25,0,0,1-6.1-4.81H28.62A5.88,5.88,0,0,0,25,244.76a15.73,15.73,0,0,0-6.12,12.5v3.54h5.73v-4.31a1.47,1.47,0,0,1,2.93,0v28.35H30a1.46,1.46,0,0,1,0,2.92H27.58Zm15.84-42.26H39.58a4.34,4.34,0,0,1-4.21-3.26l-.16-.63H47.79l-.16.63A4.34,4.34,0,0,1,43.42,246.42Zm-6.85-2.89a3.34,3.34,0,0,0,3,1.89h3.84a3.34,3.34,0,0,0,3-1.89Z"/><path class="cls-1" d="M63.94,328.88a1.38,1.38,0,0,0-.12-.56,1.25,1.25,0,0,0-.86-.68l-21.5-10.42a1.25,1.25,0,0,0-1.1,0L18.65,327.74a1.27,1.27,0,0,0-.72,1.1h0v26.44a1.26,1.26,0,0,0,.72,1.14L40.36,367h0l.09.05h0l.1,0h0l.11,0h.33l.11,0h0l.1,0h0a.2.2,0,0,0,.09-.05h0L63.25,356.4a1.27,1.27,0,0,0,.71-1.14V328.91S63.94,328.89,63.94,328.88Zm-23-9.12,18.83,9.13-6.93,3.37L34,323.13Zm0,18.26-18.82-9.13,9-4.36,18.83,9.13Zm-20.44-7.09,19.18,9.29v23.57l-19.18-9.3Zm21.71,32.86V340.22l9-4.37V342a1.27,1.27,0,0,0,2.54,0v-7.4l7.7-3.74v23.57Z"/></svg>