<svg id="Camada_1" data-name="Camada 1" xmlns="http://www.w3.org/2000/svg" viewBox="0 0 117.47 117.47"><defs><style>.cls-1{fill:#f09;}.cls-2{fill:#fff;}</style></defs><title>suporte</title><circle class="cls-1" cx="58.74" cy="58.74" r="58.74"/><path class="cls-2" d="M83.24,50.81V47.94a26.2,26.2,0,0,0-6.83-18,23.56,23.56,0,0,0-17.48-7.51H56.57A23.56,23.56,0,0,0,39.09,30a26.19,26.19,0,0,0-6.82,18v2.87a10.29,10.29,0,0,0-9.59,10.24v4.48A10.28,10.28,0,0,0,32.94,75.79h5.78a1.89,1.89,0,0,0,1.88-1.88V52.66a1.88,1.88,0,0,0-1.88-1.88H36V47.94c0-12.38,8.84-21.71,20.53-21.71h2.37c11.71,0,20.53,9.33,20.53,21.71v2.84h-2.7a1.88,1.88,0,0,0-1.88,1.88V73.89a1.89,1.89,0,0,0,1.88,1.88h2.63c-.76,9.8-7.51,12.07-10.64,12.59a6.61,6.61,0,0,0-6.28-4.56h-4.7a6.6,6.6,0,0,0,0,13.2h4.71a6.61,6.61,0,0,0,6.36-4.85A17.8,17.8,0,0,0,75.2,90c3.4-2,7.43-6,8-14.22a10.26,10.26,0,0,0,9.63-10.24V61A10.23,10.23,0,0,0,83.24,50.81ZM36.87,72H33a6.51,6.51,0,0,1-6.5-6.5V61a6.51,6.51,0,0,1,6.5-6.5h3.9Zm25.6,21.24H57.76a2.84,2.84,0,0,1,0-5.67h4.71a2.84,2.84,0,1,1,0,5.67ZM89.05,65.51a6.51,6.51,0,0,1-6.5,6.5h-3.9V54.54h3.9a6.51,6.51,0,0,1,6.5,6.5Z"/></svg>