<svg id="Camada_1" data-name="Camada 1" xmlns="http://www.w3.org/2000/svg" viewBox="0 0 95 95"><defs><style>.cls-1{fill:#fff;}</style></defs><title>tab e sm</title><path class="cls-1" d="M79.38,14.92H46.46a3.13,3.13,0,0,0-3.12,3.13V43a3.13,3.13,0,0,0,3.12,3.13H79.38A3.13,3.13,0,0,0,82.5,43v-25A3.13,3.13,0,0,0,79.38,14.92ZM81.25,43a1.88,1.88,0,0,1-1.87,1.88H46.46A1.88,1.88,0,0,1,44.59,43v-25a1.88,1.88,0,0,1,1.87-1.88H79.38a1.88,1.88,0,0,1,1.87,1.88Z"/><path class="cls-1" d="M76.88,19.92H49a.62.62,0,0,0-.62.62v20a.63.63,0,0,0,.62.63H71a.63.63,0,1,0,0-1.25H49.59V21.17H76.25V39.92H73.54a.63.63,0,0,0,0,1.25h3.34a.63.63,0,0,0,.62-.63v-20A.62.62,0,0,0,76.88,19.92Z"/><circle class="cls-1" cx="62.92" cy="18.05" r="0.62"/><path class="cls-1" d="M35.79,7.86H16a3.54,3.54,0,0,0-3.53,3.53V48.55A3.53,3.53,0,0,0,16,52.08H35.79a3.53,3.53,0,0,0,3.52-3.53V11.39A3.53,3.53,0,0,0,35.79,7.86ZM37.9,42.2H34.84a.7.7,0,0,0-.7.71.7.7,0,0,0,.7.7H37.9v4.94a2.12,2.12,0,0,1-2.11,2.12H16a2.12,2.12,0,0,1-2.12-2.12V43.61H32a.7.7,0,0,0,.71-.7A.71.71,0,0,0,32,42.2H13.91V17.74h24Zm0-25.87h-24V11.39A2.12,2.12,0,0,1,16,9.27H35.79a2.12,2.12,0,0,1,2.11,2.12Z"/><path class="cls-1" d="M25.91,45A2.12,2.12,0,1,0,28,47.14,2.12,2.12,0,0,0,25.91,45Zm0,2.83a.71.71,0,0,1-.71-.71.7.7,0,0,1,.71-.7.7.7,0,0,1,.7.7A.7.7,0,0,1,25.91,47.85Z"/><path class="cls-1" d="M28.73,12.1H23.08a.7.7,0,0,0-.7.7.7.7,0,0,0,.7.71h5.65a.7.7,0,0,0,.7-.71A.7.7,0,0,0,28.73,12.1Z"/><path class="cls-1" d="M27.85,63.87v1.19H24.47v8.85H23.09V65.06H19.71V63.87Z"/><path class="cls-1" d="M31.31,69.48a.69.69,0,0,0,.57-.36,1.14,1.14,0,0,0,.08-.47,1,1,0,0,0-.45-.92,2.38,2.38,0,0,0-1.28-.28,1.61,1.61,0,0,0-1.36.52,1.67,1.67,0,0,0-.29.86H27.43a2.11,2.11,0,0,1,.87-1.89,3.66,3.66,0,0,1,2-.53,4,4,0,0,1,2.1.49,1.68,1.68,0,0,1,.8,1.53v4.22a.57.57,0,0,0,.07.31c.06.08.17.11.34.11h.18L34,73v.91a2.3,2.3,0,0,1-.44.1,2.22,2.22,0,0,1-.41,0,1,1,0,0,1-.92-.46,1.65,1.65,0,0,1-.21-.67,3.07,3.07,0,0,1-1.08.85,3.38,3.38,0,0,1-1.56.36,2.31,2.31,0,0,1-1.66-.61A2.08,2.08,0,0,1,27,72a2,2,0,0,1,.64-1.58,3.07,3.07,0,0,1,1.67-.69ZM28.72,72.8a1.42,1.42,0,0,0,.92.31,2.84,2.84,0,0,0,1.26-.3,1.69,1.69,0,0,0,1-1.63v-1a2.47,2.47,0,0,1-.58.24,4.19,4.19,0,0,1-.69.13l-.74.1a2.81,2.81,0,0,0-1,.28,1.08,1.08,0,0,0-.57,1A1,1,0,0,0,28.72,72.8Z"/><path class="cls-1" d="M35.07,63.83h1.2v3.65a2.74,2.74,0,0,1,1-.81,2.82,2.82,0,0,1,1.22-.27,2.86,2.86,0,0,1,2.23.94,4,4,0,0,1,.86,2.77A4.75,4.75,0,0,1,40.69,73a2.73,2.73,0,0,1-2.34,1.15,2.37,2.37,0,0,1-1.41-.4A3.43,3.43,0,0,1,36.2,73v.94H35.07Zm4.7,8.43a3.81,3.81,0,0,0,.5-2.09,3.39,3.39,0,0,0-.5-1.92,1.64,1.64,0,0,0-1.46-.75,2,2,0,0,0-1.48.62,2.79,2.79,0,0,0-.63,2,4.37,4.37,0,0,0,.26,1.67,1.79,1.79,0,0,0,1.82,1.21A1.64,1.64,0,0,0,39.77,72.26Z"/><path class="cls-1" d="M43,63.87h1.23v10H43Z"/><path class="cls-1" d="M50.59,66.79a2.75,2.75,0,0,1,1.11.95A3.28,3.28,0,0,1,52.19,69a8.58,8.58,0,0,1,.11,1.61H47a3.16,3.16,0,0,0,.52,1.79,1.76,1.76,0,0,0,1.52.68,1.93,1.93,0,0,0,1.52-.64,2.22,2.22,0,0,0,.45-.86h1.21a2.34,2.34,0,0,1-.32.9,3,3,0,0,1-.6.81,2.91,2.91,0,0,1-1.37.74,4.37,4.37,0,0,1-1,.11,3,3,0,0,1-2.3-1,3.87,3.87,0,0,1-1-2.78,4.26,4.26,0,0,1,1-2.87,3.16,3.16,0,0,1,2.49-1.1A3.2,3.2,0,0,1,50.59,66.79ZM51,69.66a3.26,3.26,0,0,0-.34-1.28A1.78,1.78,0,0,0,49,67.5a1.84,1.84,0,0,0-1.41.61,2.29,2.29,0,0,0-.6,1.55Z"/><path class="cls-1" d="M54.1,64.54h1.24v2h1.17v1H55.34v4.78a.52.52,0,0,0,.26.51,1.12,1.12,0,0,0,.48.08h.19l.24,0v1a2.85,2.85,0,0,1-.44.09,3.85,3.85,0,0,1-.49,0,1.31,1.31,0,0,1-1.17-.44,1.9,1.9,0,0,1-.31-1.14V67.59h-1v-1h1Z"/><path class="cls-1" d="M58.48,71.61a1.69,1.69,0,0,0,.31.94,2,2,0,0,0,1.65.6,2.42,2.42,0,0,0,1.22-.3,1,1,0,0,0,.53-.92.8.8,0,0,0-.42-.72,5.16,5.16,0,0,0-1.07-.34l-1-.25a5.07,5.07,0,0,1-1.41-.52,1.55,1.55,0,0,1-.8-1.38A2.09,2.09,0,0,1,58.26,67a3,3,0,0,1,2-.64,2.83,2.83,0,0,1,2.41,1,2.07,2.07,0,0,1,.45,1.32H62a1.33,1.33,0,0,0-.3-.75,2,2,0,0,0-1.5-.48,1.79,1.79,0,0,0-1.08.26.82.82,0,0,0-.37.7.88.88,0,0,0,.48.77,3.25,3.25,0,0,0,.82.3l.83.19a6.56,6.56,0,0,1,1.81.63,1.63,1.63,0,0,1,.72,1.48,2.26,2.26,0,0,1-.75,1.69,3.24,3.24,0,0,1-2.29.71A3.11,3.11,0,0,1,58,73.45a2.85,2.85,0,0,1-.74-1.84Z"/><path class="cls-1" d="M73.16,66.79a2.71,2.71,0,0,1,1.1.95A3.13,3.13,0,0,1,74.75,69a7.79,7.79,0,0,1,.11,1.61H69.54a3.09,3.09,0,0,0,.52,1.79,1.74,1.74,0,0,0,1.51.68,1.94,1.94,0,0,0,1.53-.64,2.22,2.22,0,0,0,.45-.86h1.21a2.51,2.51,0,0,1-.32.9,3.28,3.28,0,0,1-.6.81,2.89,2.89,0,0,1-1.38.74,4.31,4.31,0,0,1-1,.11,3,3,0,0,1-2.3-1,3.87,3.87,0,0,1-.94-2.78,4.21,4.21,0,0,1,1-2.87,3.13,3.13,0,0,1,2.48-1.1A3.27,3.27,0,0,1,73.16,66.79Zm.44,2.87a3.25,3.25,0,0,0-.35-1.28,1.76,1.76,0,0,0-1.67-.88,1.84,1.84,0,0,0-1.41.61,2.35,2.35,0,0,0-.61,1.55Z"/><path class="cls-1" d="M8.67,86.61a1.69,1.69,0,0,0,.31.94,2,2,0,0,0,1.65.6,2.49,2.49,0,0,0,1.23-.3,1,1,0,0,0,.53-.92.81.81,0,0,0-.43-.72,5,5,0,0,0-1.07-.34l-1-.25a5.11,5.11,0,0,1-1.4-.52,1.54,1.54,0,0,1-.81-1.38A2.09,2.09,0,0,1,8.45,82a3,3,0,0,1,2-.64,2.85,2.85,0,0,1,2.42,1,2.07,2.07,0,0,1,.45,1.32H12.2a1.42,1.42,0,0,0-.31-.75,1.94,1.94,0,0,0-1.5-.48,1.79,1.79,0,0,0-1.08.26.82.82,0,0,0-.37.7.88.88,0,0,0,.48.77,3.2,3.2,0,0,0,.83.3l.83.19a6.69,6.69,0,0,1,1.81.63,1.64,1.64,0,0,1,.71,1.48,2.26,2.26,0,0,1-.75,1.69,3.23,3.23,0,0,1-2.28.71,3.12,3.12,0,0,1-2.35-.74,2.79,2.79,0,0,1-.73-1.84Z"/><path class="cls-1" d="M14.94,81.59h1.21v1a4.16,4.16,0,0,1,.8-.79,2.35,2.35,0,0,1,1.38-.42,2.24,2.24,0,0,1,1.41.43,2.27,2.27,0,0,1,.54.73,2.74,2.74,0,0,1,1-.87,2.67,2.67,0,0,1,1.24-.29,2,2,0,0,1,2,1.07A3.49,3.49,0,0,1,24.79,84v4.88H23.51V83.82a1.15,1.15,0,0,0-.37-1,1.39,1.39,0,0,0-.89-.28A1.8,1.8,0,0,0,21,83a2.15,2.15,0,0,0-.52,1.62v4.26H19.23V84.13A2.47,2.47,0,0,0,19.05,83a1.07,1.07,0,0,0-1-.51,1.8,1.8,0,0,0-1.27.54,2.65,2.65,0,0,0-.57,2v3.88H14.94Z"/><path class="cls-1" d="M30.52,84.48a.69.69,0,0,0,.57-.36,1.14,1.14,0,0,0,.08-.47,1,1,0,0,0-.45-.92,2.35,2.35,0,0,0-1.27-.28,1.62,1.62,0,0,0-1.37.52,1.67,1.67,0,0,0-.29.86H26.64a2.09,2.09,0,0,1,.88-1.89,3.6,3.6,0,0,1,1.95-.53,4,4,0,0,1,2.1.49,1.68,1.68,0,0,1,.8,1.53v4.22a.49.49,0,0,0,.08.31c0,.08.16.11.33.11H33l.22,0v.91a2.3,2.3,0,0,1-.44.1,2.15,2.15,0,0,1-.41,0,1,1,0,0,1-.92-.46,1.65,1.65,0,0,1-.21-.67,3.07,3.07,0,0,1-1.08.85,3.37,3.37,0,0,1-1.55.36,2.32,2.32,0,0,1-1.67-.61A2.07,2.07,0,0,1,26.26,87a2,2,0,0,1,.63-1.58,3.1,3.1,0,0,1,1.67-.69ZM27.93,87.8a1.42,1.42,0,0,0,.92.31,2.78,2.78,0,0,0,1.26-.3,1.69,1.69,0,0,0,1-1.63v-1a2.67,2.67,0,0,1-.58.24,4.51,4.51,0,0,1-.7.13l-.74.1a2.87,2.87,0,0,0-1,.28,1.08,1.08,0,0,0-.57,1A1,1,0,0,0,27.93,87.8Z"/><path class="cls-1" d="M34.42,81.59h1.17v1.26a2.88,2.88,0,0,1,.7-.9,1.86,1.86,0,0,1,1.29-.53h.12l.28,0v1.3l-.2,0h-.2a1.75,1.75,0,0,0-1.43.6,2.11,2.11,0,0,0-.5,1.38v4.21H34.42Z"/><path class="cls-1" d="M39.29,79.54h1.25v2h1.17v1H40.54v4.78a.5.5,0,0,0,.26.51,1.06,1.06,0,0,0,.48.08h.19l.24,0v1a3.43,3.43,0,0,1-.44.09,4,4,0,0,1-.5,0,1.33,1.33,0,0,1-1.17-.44,2,2,0,0,1-.31-1.14V82.59h-1v-1h1Z"/><path class="cls-1" d="M42.83,81.62H44v1a2.8,2.8,0,0,1,.81-.77,2.6,2.6,0,0,1,1.46-.41,2.78,2.78,0,0,1,2.12,1,3.93,3.93,0,0,1,.87,2.73A4.15,4.15,0,0,1,48,88.5a2.79,2.79,0,0,1-1.85.65,2.52,2.52,0,0,1-1.39-.36,3.09,3.09,0,0,1-.74-.7v3.74H42.83Zm4.63,5.74A3.44,3.44,0,0,0,48,85.2a4,4,0,0,0-.26-1.5,1.86,1.86,0,0,0-3.51.07A5,5,0,0,0,44,85.5,3.69,3.69,0,0,0,44.27,87a1.87,1.87,0,0,0,3.19.41Z"/><path class="cls-1" d="M50.72,78.83H52v3.75a3.55,3.55,0,0,1,.79-.78,2.65,2.65,0,0,1,1.48-.39,2.2,2.2,0,0,1,2.16,1.11,3.75,3.75,0,0,1,.31,1.69v4.7H55.43V84.29a2.54,2.54,0,0,0-.21-1.18,1.31,1.31,0,0,0-1.26-.6,2.08,2.08,0,0,0-1.38.53A2.51,2.51,0,0,0,52,85v3.88H50.72Z"/><path class="cls-1" d="M63.81,82.32a3.68,3.68,0,0,1,1,2.77A4.77,4.77,0,0,1,63.93,88a3.1,3.1,0,0,1-2.66,1.16,3,3,0,0,1-2.38-1A4.06,4.06,0,0,1,58,85.4a4.36,4.36,0,0,1,.93-2.93,3.11,3.11,0,0,1,2.5-1.1A3.27,3.27,0,0,1,63.81,82.32Zm-.76,4.86a4.62,4.62,0,0,0,.45-2.06,3.63,3.63,0,0,0-.33-1.66,1.82,1.82,0,0,0-1.77-1,1.75,1.75,0,0,0-1.62.86,4,4,0,0,0-.51,2.07,3.49,3.49,0,0,0,.51,2,1.79,1.79,0,0,0,1.61.78A1.67,1.67,0,0,0,63.05,87.18Z"/><path class="cls-1" d="M66.29,81.59h1.17v1a3.44,3.44,0,0,1,1.1-.93,3.06,3.06,0,0,1,1.3-.28A2.13,2.13,0,0,1,72,82.51a3.86,3.86,0,0,1,.3,1.7v4.7H71V84.29a2.42,2.42,0,0,0-.2-1.08,1.2,1.2,0,0,0-1.19-.68,2.32,2.32,0,0,0-.71.09,1.82,1.82,0,0,0-.89.6,1.72,1.72,0,0,0-.4.75,5.13,5.13,0,0,0-.09,1.1v3.84H66.29Z"/><path class="cls-1" d="M78.6,81.79a2.68,2.68,0,0,1,1.11.95A3.28,3.28,0,0,1,80.2,84a8.58,8.58,0,0,1,.11,1.61H75a3.17,3.17,0,0,0,.53,1.79,1.72,1.72,0,0,0,1.51.68,1.91,1.91,0,0,0,1.52-.64,2.11,2.11,0,0,0,.46-.86h1.21a2.72,2.72,0,0,1-.32.9,3.28,3.28,0,0,1-.6.81,2.94,2.94,0,0,1-1.38.74,4.37,4.37,0,0,1-1,.11,3,3,0,0,1-2.3-1,3.87,3.87,0,0,1-1-2.78,4.22,4.22,0,0,1,1-2.87,3.13,3.13,0,0,1,2.48-1.1A3.2,3.2,0,0,1,78.6,81.79ZM79,84.66a3.26,3.26,0,0,0-.34-1.28A1.77,1.77,0,0,0,77,82.5a1.84,1.84,0,0,0-1.41.61,2.29,2.29,0,0,0-.6,1.55Z"/><path class="cls-1" d="M82.6,86.61a1.77,1.77,0,0,0,.31.94,2,2,0,0,0,1.65.6,2.49,2.49,0,0,0,1.23-.3,1,1,0,0,0,.53-.92.79.79,0,0,0-.43-.72,5,5,0,0,0-1.07-.34l-1-.25a5.11,5.11,0,0,1-1.4-.52,1.54,1.54,0,0,1-.81-1.38A2.09,2.09,0,0,1,82.38,82a3.06,3.06,0,0,1,2-.64,2.85,2.85,0,0,1,2.42,1,2.07,2.07,0,0,1,.45,1.32H86.13a1.49,1.49,0,0,0-.3-.75,2,2,0,0,0-1.51-.48,1.79,1.79,0,0,0-1.08.26.82.82,0,0,0-.37.7.88.88,0,0,0,.48.77,3.2,3.2,0,0,0,.83.3l.83.19a6.69,6.69,0,0,1,1.81.63,1.64,1.64,0,0,1,.71,1.48,2.26,2.26,0,0,1-.75,1.69,3.23,3.23,0,0,1-2.28.71,3.12,3.12,0,0,1-2.35-.74,2.79,2.79,0,0,1-.73-1.84Z"/></svg>