<svg id="Camada_1" data-name="Camada 1" xmlns="http://www.w3.org/2000/svg" viewBox="0 0 95 95"><defs><style>.cls-1{fill:#fff;}</style></defs><title>tab e sm</title><path class="cls-1" d="M88.28,33.25H46.17a4,4,0,0,0-4,4v32a4,4,0,0,0,4,4H88.28a4,4,0,0,0,4-4v-32A4,4,0,0,0,88.28,33.25Zm2.39,36a2.4,2.4,0,0,1-2.39,2.4H46.17a2.41,2.41,0,0,1-2.4-2.4v-32a2.41,2.41,0,0,1,2.4-2.4H88.28a2.4,2.4,0,0,1,2.39,2.4Z"/><path class="cls-1" d="M85.08,39.64H49.37a.8.8,0,0,0-.8.8V66a.8.8,0,0,0,.8.8H77.62a.8.8,0,1,0,0-1.6H50.17v-24H84.28v24H80.81a.8.8,0,1,0,0,1.6h4.27a.8.8,0,0,0,.8-.8V40.44A.8.8,0,0,0,85.08,39.64Z"/><circle class="cls-1" cx="67.22" cy="37.24" r="0.8"/><path class="cls-1" d="M32.51,24.22H7.24a4.51,4.51,0,0,0-4.51,4.51V76.27a4.51,4.51,0,0,0,4.51,4.51H32.51A4.52,4.52,0,0,0,37,76.27V28.73A4.52,4.52,0,0,0,32.51,24.22Zm2.71,43.93H31.31a.9.9,0,0,0,0,1.8h3.91v6.32A2.71,2.71,0,0,1,32.51,79H7.24a2.72,2.72,0,0,1-2.71-2.71V70H27.7a.9.9,0,1,0,0-1.8H4.53V36.85H35.22Zm0-33.1H4.53V28.73A2.72,2.72,0,0,1,7.24,26H32.51a2.71,2.71,0,0,1,2.71,2.71Z"/><path class="cls-1" d="M19.88,71.76a2.71,2.71,0,1,0,2.71,2.7A2.7,2.7,0,0,0,19.88,71.76Zm0,3.61a.91.91,0,1,1,0-1.81.91.91,0,0,1,0,1.81Z"/><path class="cls-1" d="M23.49,29.63H16.27a.91.91,0,1,0,0,1.81h7.22a.91.91,0,0,0,0-1.81Z"/></svg>