<svg id="Camada_1" data-name="Camada 1" xmlns="http://www.w3.org/2000/svg" viewBox="0 0 95 95"><defs><style>.cls-1{fill:#fff;}</style></defs><title>web</title><path class="cls-1" d="M79.41,13.21H46.92a3.08,3.08,0,0,0-3.09,3.08V41a3.08,3.08,0,0,0,3.09,3.08H58.85v4.53H54.53a.61.61,0,0,0-.62.61.62.62,0,0,0,.62.62H71.8a.62.62,0,0,0,.62-.62.61.61,0,0,0-.62-.61H67.48V44.06H79.41A3.08,3.08,0,0,0,82.5,41V16.29A3.08,3.08,0,0,0,79.41,13.21ZM66.25,48.59H60.08V44.06h6.17Zm15-7.61a1.85,1.85,0,0,1-1.86,1.85H46.92A1.86,1.86,0,0,1,45.06,41V39.12H81.27Zm0-3.09H45.06V16.29a1.86,1.86,0,0,1,1.86-1.85H79.41a1.85,1.85,0,0,1,1.86,1.85Z"/><path class="cls-1" d="M79.41,15.68H46.92a.61.61,0,0,0-.62.61V36a.62.62,0,0,0,.62.62H73.66a.62.62,0,0,0,0-1.24H47.53V16.91H78.8V35.42H76.12a.62.62,0,0,0,0,1.24h3.29A.62.62,0,0,0,80,36V16.29A.61.61,0,0,0,79.41,15.68Z"/><path class="cls-1" d="M37,10.12H15.59a3.09,3.09,0,0,0-3.09,3.09v32.5a3.08,3.08,0,0,0,3.09,3.08H37a3.08,3.08,0,0,0,3.08-3.08V13.21A3.09,3.09,0,0,0,37,10.12Zm1.85,35.59A1.85,1.85,0,0,1,37,47.56H15.59a1.85,1.85,0,0,1-1.86-1.85V13.21a1.85,1.85,0,0,1,1.86-1.85H37a1.85,1.85,0,0,1,1.85,1.85Z"/><path class="cls-1" d="M21.34,19.79h9.88a.61.61,0,0,0,.61-.62.61.61,0,0,0-.61-.61H21.34a.61.61,0,0,0-.61.61A.61.61,0,0,0,21.34,19.79Z"/><path class="cls-1" d="M21.34,23.9h9.88a.61.61,0,0,0,.61-.61.61.61,0,0,0-.61-.62H21.34a.61.61,0,0,0-.61.62A.61.61,0,0,0,21.34,23.9Z"/><path class="cls-1" d="M21.34,28h9.88a.62.62,0,0,0,0-1.24H21.34a.62.62,0,0,0,0,1.24Z"/><path class="cls-1" d="M21.34,32.13h9.88a.62.62,0,0,0,0-1.23H21.34a.62.62,0,0,0,0,1.23Z"/><path class="cls-1" d="M21.34,36.25h9.88a.62.62,0,0,0,0-1.24H21.34a.62.62,0,0,0,0,1.24Z"/><path class="cls-1" d="M21.34,44.74h9.88a.62.62,0,0,0,0-1.24H21.34a.62.62,0,0,0,0,1.24Z"/><path class="cls-1" d="M36.15,13.41H16.41a.62.62,0,0,0-.62.62V40.77a.62.62,0,0,0,.62.62H36.15a.62.62,0,0,0,.62-.62V14A.62.62,0,0,0,36.15,13.41Zm-.61,26.74H17V14.65H35.54Z"/><path class="cls-1" d="M35,71.81,36.86,80l2.27-8.15H40.6L42.87,80l1.89-8.17h1.5l-2.64,10H42.19l-2.32-8.33-2.33,8.33H36.11l-2.62-10Z"/><path class="cls-1" d="M51.62,74.73a2.68,2.68,0,0,1,1.11,1A3.28,3.28,0,0,1,53.22,77a8.58,8.58,0,0,1,.11,1.61H48a3.17,3.17,0,0,0,.53,1.79,1.72,1.72,0,0,0,1.51.68,1.93,1.93,0,0,0,1.52-.64,2.11,2.11,0,0,0,.46-.86h1.21a2.72,2.72,0,0,1-.32.9,3.28,3.28,0,0,1-.6.81,2.94,2.94,0,0,1-1.38.74,4.37,4.37,0,0,1-1,.11,3,3,0,0,1-2.3-1,3.87,3.87,0,0,1-1-2.78,4.26,4.26,0,0,1,1-2.87,3.16,3.16,0,0,1,2.49-1.1A3.32,3.32,0,0,1,51.62,74.73Zm.44,2.87a3.16,3.16,0,0,0-.34-1.27A1.76,1.76,0,0,0,50,75.44a1.84,1.84,0,0,0-1.41.61A2.29,2.29,0,0,0,48,77.6Z"/><path class="cls-1" d="M54.78,71.77H56v3.65a2.79,2.79,0,0,1,1-.81,2.76,2.76,0,0,1,1.22-.27,2.87,2.87,0,0,1,2.23.94,4,4,0,0,1,.85,2.77,4.73,4.73,0,0,1-.84,2.88,2.75,2.75,0,0,1-2.34,1.15,2.42,2.42,0,0,1-1.42-.4,3.42,3.42,0,0,1-.73-.77v.94H54.78Zm4.71,8.43a3.89,3.89,0,0,0,.5-2.09,3.41,3.41,0,0,0-.5-1.91A1.63,1.63,0,0,0,58,75.44a2,2,0,0,0-1.47.62,2.75,2.75,0,0,0-.64,2,4.53,4.53,0,0,0,.26,1.67A1.8,1.8,0,0,0,58,81,1.64,1.64,0,0,0,59.49,80.2Z"/></svg>