<svg id="Camada_1" data-name="Camada 1" xmlns="http://www.w3.org/2000/svg" viewBox="0 0 95 95"><defs><style>.cls-1{fill:#fff;}</style></defs><title>web</title><path class="cls-1" d="M88.68,30.87H46.75a4,4,0,0,0-4,4V66.7a4,4,0,0,0,4,4H62.14v5.84H56.57a.8.8,0,0,0-.8.8.79.79,0,0,0,.8.79H78.86a.79.79,0,0,0,.8-.79.8.8,0,0,0-.8-.8H73.29V70.68H88.68a4,4,0,0,0,4-4V34.85A4,4,0,0,0,88.68,30.87Zm-17,45.65h-8V70.68h8ZM91.07,66.7a2.39,2.39,0,0,1-2.39,2.39H46.75a2.39,2.39,0,0,1-2.39-2.39V64.31H91.07Zm0-4H44.36V34.85a2.39,2.39,0,0,1,2.39-2.39H88.68a2.39,2.39,0,0,1,2.39,2.39Z"/><path class="cls-1" d="M88.68,34.05H46.75a.8.8,0,0,0-.8.8V60.33a.8.8,0,0,0,.8.8h34.5a.8.8,0,0,0,0-1.6H47.54V35.65H87.88V59.53H84.43a.8.8,0,0,0,0,1.6h4.25a.8.8,0,0,0,.8-.8V34.85A.8.8,0,0,0,88.68,34.05Z"/><path class="cls-1" d="M33.92,26.89H6.32a4,4,0,0,0-4,4V72.8a4,4,0,0,0,4,4h27.6a4,4,0,0,0,4-4V30.87A4,4,0,0,0,33.92,26.89ZM36.31,72.8a2.39,2.39,0,0,1-2.39,2.39H6.32A2.39,2.39,0,0,1,3.93,72.8V30.87a2.39,2.39,0,0,1,2.39-2.39h27.6a2.39,2.39,0,0,1,2.39,2.39Z"/><path class="cls-1" d="M13.75,39.36H26.49a.79.79,0,0,0,.8-.79.8.8,0,0,0-.8-.8H13.75a.8.8,0,0,0-.8.8A.79.79,0,0,0,13.75,39.36Z"/><path class="cls-1" d="M13.75,44.67H26.49a.8.8,0,0,0,.8-.8.79.79,0,0,0-.8-.79H13.75a.79.79,0,0,0-.8.79A.8.8,0,0,0,13.75,44.67Z"/><path class="cls-1" d="M13.75,50H26.49a.8.8,0,0,0,.8-.8.79.79,0,0,0-.8-.79H13.75a.79.79,0,0,0-.8.79A.8.8,0,0,0,13.75,50Z"/><path class="cls-1" d="M13.75,55.29H26.49a.8.8,0,0,0,0-1.6H13.75a.8.8,0,0,0,0,1.6Z"/><path class="cls-1" d="M13.75,60.59H26.49a.79.79,0,0,0,.8-.79.8.8,0,0,0-.8-.8H13.75a.8.8,0,0,0-.8.8A.79.79,0,0,0,13.75,60.59Z"/><path class="cls-1" d="M13.75,71.55H26.49a.79.79,0,0,0,.8-.79.8.8,0,0,0-.8-.8H13.75a.8.8,0,0,0-.8.8A.79.79,0,0,0,13.75,71.55Z"/><path class="cls-1" d="M32.86,31.13H7.38a.8.8,0,0,0-.8.8v34.5a.8.8,0,0,0,.8.8H32.86a.8.8,0,0,0,.8-.8V31.93A.8.8,0,0,0,32.86,31.13Zm-.8,34.51H8.18V32.73H32.06Z"/></svg>